<svg width="428" height="926" viewBox="0 0 428 926" fill="none" xmlns="http://www.w3.org/2000/svg">
<rect width="428" height="926" rx="50" fill="white"/>
<path d="M108.811 286.18C108.671 286.18 108.441 286.17 108.121 286.15C107.801 286.13 107.471 286.11 107.131 286.09C106.791 286.07 106.461 286.05 106.141 286.03C105.821 286.01 105.591 286 105.451 286H104.881C104.741 286 104.511 286.01 104.191 286.03C103.871 286.05 103.541 286.07 103.201 286.09C102.861 286.11 102.531 286.13 102.211 286.15C101.891 286.17 101.661 286.18 101.521 286.18L101.461 286.06L101.551 285.52L101.701 285.4C101.941 285.4 102.221 285.39 102.541 285.37C102.861 285.33 103.111 285.25 103.291 285.13C103.451 285.01 103.601 284.82 103.741 284.56C103.881 284.3 103.981 283.91 104.041 283.39C104.041 283.25 104.041 283.09 104.041 282.91C104.061 282.71 104.071 282.47 104.071 282.19C104.091 281.91 104.101 281.57 104.101 281.17C104.101 280.77 104.101 280.27 104.101 279.67V271.87C104.101 271.47 104.091 271.02 104.071 270.52C104.071 270 104.051 269.49 104.011 268.99C103.971 268.53 103.881 268.17 103.741 267.91C103.601 267.63 103.451 267.42 103.291 267.28C103.111 267.18 102.921 267.11 102.721 267.07C102.541 267.01 102.201 266.98 101.701 266.98L101.551 266.86L101.461 266.32L101.521 266.2C101.661 266.2 101.841 266.21 102.061 266.23C102.301 266.25 102.541 266.27 102.781 266.29C103.041 266.31 103.301 266.33 103.561 266.35C103.821 266.37 104.061 266.38 104.281 266.38H105.361C105.581 266.38 105.831 266.38 106.111 266.38C106.391 266.38 106.671 266.38 106.951 266.38C107.251 266.36 107.521 266.35 107.761 266.35C108.001 266.35 108.201 266.35 108.361 266.35C109.701 266.35 110.831 266.48 111.751 266.74C112.691 267 113.451 267.36 114.031 267.82C114.611 268.26 115.031 268.8 115.291 269.44C115.571 270.06 115.711 270.73 115.711 271.45C115.711 272.31 115.551 273.06 115.231 273.7C114.931 274.32 114.541 274.86 114.061 275.32C113.581 275.76 113.041 276.12 112.441 276.4C111.841 276.66 111.251 276.86 110.671 277C111.311 277.9 111.971 278.79 112.651 279.67C113.331 280.55 114.031 281.41 114.751 282.25C115.151 282.71 115.521 283.12 115.861 283.48C116.201 283.84 116.561 284.15 116.941 284.41C117.341 284.67 117.781 284.88 118.261 285.04C118.741 285.2 119.321 285.32 120.001 285.4L120.181 285.52L120.241 286.06L120.181 286.18C119.741 286.2 119.241 286.22 118.681 286.24C118.121 286.28 117.681 286.3 117.361 286.3C116.841 286.3 116.391 286.24 116.011 286.12C115.631 286 115.261 285.81 114.901 285.55C114.541 285.29 114.171 284.95 113.791 284.53C113.431 284.11 113.011 283.61 112.531 283.03C112.471 282.97 112.291 282.74 111.991 282.34C111.711 281.92 111.361 281.43 110.941 280.87C110.541 280.29 110.111 279.68 109.651 279.04C109.211 278.38 108.801 277.77 108.421 277.21H106.231C106.231 277.75 106.231 278.34 106.231 278.98C106.231 279.62 106.231 280.23 106.231 280.81C106.251 281.39 106.261 281.92 106.261 282.4C106.281 282.86 106.301 283.19 106.321 283.39C106.361 283.97 106.461 284.38 106.621 284.62C106.781 284.84 106.921 285 107.041 285.1C107.221 285.2 107.401 285.28 107.581 285.34C107.781 285.38 108.141 285.4 108.661 285.4L108.781 285.52L108.871 286.06L108.811 286.18ZM108.961 275.89C110.621 275.89 111.811 275.51 112.531 274.75C113.271 273.97 113.641 272.93 113.641 271.63C113.641 270.41 113.221 269.47 112.381 268.81C111.561 268.15 110.431 267.82 108.991 267.82H106.381C106.341 268.4 106.311 268.89 106.291 269.29C106.291 269.69 106.281 270.04 106.261 270.34C106.241 270.64 106.231 270.91 106.231 271.15C106.231 271.39 106.231 271.62 106.231 271.84V274.78C106.231 275.04 106.241 275.25 106.261 275.41C106.281 275.55 106.331 275.66 106.411 275.74C106.491 275.8 106.601 275.84 106.741 275.86C106.901 275.88 107.111 275.89 107.371 275.89H108.961ZM133.767 277.93L133.287 278.14C132.207 278.14 131.097 278.15 129.957 278.17C128.817 278.19 127.697 278.2 126.597 278.2H123.057C123.037 278.34 123.027 278.48 123.027 278.62C123.027 278.74 123.027 278.86 123.027 278.98C123.027 279.74 123.137 280.47 123.357 281.17C123.577 281.85 123.917 282.45 124.377 282.97C124.857 283.49 125.467 283.91 126.207 284.23C126.947 284.53 127.847 284.68 128.907 284.68C129.527 284.68 130.187 284.62 130.887 284.5C131.607 284.36 132.267 284.12 132.867 283.78L133.167 283.96V284.5L132.867 284.83C132.387 285.21 131.707 285.56 130.827 285.88C129.947 286.18 128.967 286.33 127.887 286.33C126.827 286.33 125.857 286.16 124.977 285.82C124.117 285.46 123.367 284.96 122.727 284.32C122.107 283.68 121.617 282.92 121.257 282.04C120.917 281.16 120.747 280.18 120.747 279.1C120.747 278 120.927 277 121.287 276.1C121.647 275.2 122.137 274.43 122.757 273.79C123.397 273.15 124.137 272.65 124.977 272.29C125.837 271.93 126.757 271.75 127.737 271.75C128.257 271.75 128.837 271.82 129.477 271.96C130.137 272.1 130.767 272.37 131.367 272.77C131.967 273.15 132.507 273.7 132.987 274.42C133.467 275.12 133.797 276.05 133.977 277.21L133.767 277.93ZM127.767 273.1C127.127 273.1 126.547 273.21 126.027 273.43C125.527 273.63 125.077 273.91 124.677 274.27C124.297 274.61 123.977 275.02 123.717 275.5C123.477 275.96 123.307 276.45 123.207 276.97H124.377C125.457 276.97 126.507 276.96 127.527 276.94C128.547 276.9 129.617 276.85 130.737 276.79C130.997 276.77 131.167 276.7 131.247 276.58C131.347 276.46 131.397 276.32 131.397 276.16C131.397 276.04 131.387 275.93 131.367 275.83C131.347 275.73 131.317 275.63 131.277 275.53C131.057 274.77 130.647 274.18 130.047 273.76C129.447 273.32 128.687 273.1 127.767 273.1ZM145.149 285.79C145.209 285.57 145.249 285.24 145.269 284.8C145.309 284.36 145.359 283.95 145.419 283.57L145.389 283.48C145.129 283.84 144.819 284.19 144.459 284.53C144.099 284.87 143.699 285.18 143.259 285.46C142.839 285.72 142.379 285.93 141.879 286.09C141.399 286.25 140.889 286.33 140.349 286.33C139.729 286.33 139.179 286.22 138.699 286C138.219 285.78 137.819 285.49 137.499 285.13C137.179 284.77 136.939 284.35 136.779 283.87C136.619 283.39 136.539 282.89 136.539 282.37C136.539 281.63 136.709 280.99 137.049 280.45C137.389 279.89 137.839 279.43 138.399 279.07C138.919 278.75 139.529 278.49 140.229 278.29C140.949 278.09 141.639 277.95 142.299 277.87C142.979 277.77 143.589 277.71 144.129 277.69C144.669 277.65 145.029 277.63 145.209 277.63H145.629C145.609 276.89 145.569 276.31 145.509 275.89C145.449 275.45 145.369 275.09 145.269 274.81C145.049 274.21 144.669 273.78 144.129 273.52C143.589 273.24 142.939 273.1 142.179 273.1C141.859 273.1 141.509 273.13 141.129 273.19C140.769 273.25 140.419 273.36 140.079 273.52C139.759 273.68 139.479 273.91 139.239 274.21C138.999 274.49 138.859 274.86 138.819 275.32L138.699 275.41H138.039L137.769 273.19L137.859 273.01C137.959 272.89 138.169 272.76 138.489 272.62C138.809 272.48 139.179 272.35 139.599 272.23C140.039 272.09 140.519 271.98 141.039 271.9C141.579 271.8 142.109 271.75 142.629 271.75C143.349 271.75 144.019 271.85 144.639 272.05C145.259 272.23 145.789 272.51 146.229 272.89C146.689 273.27 147.049 273.75 147.309 274.33C147.569 274.89 147.699 275.55 147.699 276.31C147.699 277.15 147.689 277.9 147.669 278.56C147.669 279.2 147.659 279.8 147.639 280.36C147.619 280.9 147.599 281.44 147.579 281.98C147.579 282.5 147.579 283.06 147.579 283.66C147.619 284.12 147.669 284.46 147.729 284.68C147.789 284.88 147.889 285.03 148.029 285.13C148.189 285.29 148.419 285.39 148.719 285.43C149.039 285.45 149.359 285.46 149.679 285.46L149.799 285.58L149.829 286L149.799 286.12C149.439 286.08 149.049 286.05 148.629 286.03C148.209 286.01 147.799 286 147.399 286C146.639 286 145.949 286.03 145.329 286.09L145.149 285.79ZM145.149 282.55C145.209 282.45 145.269 282.33 145.329 282.19C145.409 282.05 145.459 281.88 145.479 281.68L145.629 278.68H145.359C144.559 278.68 143.759 278.73 142.959 278.83C142.159 278.91 141.439 279.08 140.799 279.34C140.179 279.6 139.669 279.96 139.269 280.42C138.869 280.88 138.669 281.47 138.669 282.19C138.669 282.95 138.889 283.56 139.329 284.02C139.769 284.46 140.339 284.68 141.039 284.68C141.459 284.68 141.879 284.61 142.299 284.47C142.719 284.33 143.109 284.15 143.469 283.93C143.849 283.71 144.179 283.48 144.459 283.24C144.759 283 144.989 282.77 145.149 282.55ZM163.212 285.79C163.272 285.57 163.322 285.24 163.362 284.8C163.422 284.36 163.472 283.97 163.512 283.63L163.482 283.51C162.922 284.35 162.232 285.03 161.412 285.55C160.592 286.07 159.652 286.33 158.592 286.33C157.452 286.33 156.462 286.13 155.622 285.73C154.802 285.33 154.122 284.8 153.582 284.14C153.062 283.48 152.672 282.73 152.412 281.89C152.152 281.03 152.022 280.14 152.022 279.22C152.022 277.86 152.232 276.71 152.652 275.77C153.072 274.81 153.602 274.04 154.242 273.46C154.882 272.86 155.582 272.43 156.342 272.17C157.122 271.89 157.862 271.75 158.562 271.75C159.522 271.75 160.442 271.97 161.322 272.41C162.202 272.83 162.952 273.55 163.572 274.57L163.632 274.45C163.592 273.99 163.572 273.55 163.572 273.13C163.572 272.69 163.572 272.24 163.572 271.78C163.572 270.96 163.572 270.27 163.572 269.71C163.572 269.13 163.562 268.63 163.542 268.21C163.542 267.79 163.532 267.42 163.512 267.1C163.512 266.78 163.502 266.46 163.482 266.14C163.462 265.92 163.402 265.73 163.302 265.57C163.222 265.41 163.152 265.29 163.092 265.21C162.892 264.99 162.642 264.85 162.342 264.79C162.042 264.73 161.732 264.7 161.412 264.7L161.292 264.58V264.19L161.412 264.07H161.952C162.292 264.07 162.722 264.07 163.242 264.07C163.762 264.05 164.212 264.01 164.592 263.95L165.642 263.8L165.822 264.07C165.782 264.15 165.742 264.3 165.702 264.52C165.682 264.72 165.662 264.94 165.642 265.18C165.642 265.42 165.632 265.65 165.612 265.87C165.612 266.09 165.612 266.26 165.612 266.38C165.612 266.7 165.602 267 165.582 267.28C165.582 267.56 165.582 267.89 165.582 268.27C165.582 268.65 165.572 269.11 165.552 269.65C165.552 270.19 165.552 270.88 165.552 271.72V278.26C165.552 279.1 165.552 279.79 165.552 280.33C165.572 280.87 165.582 281.33 165.582 281.71C165.602 282.09 165.612 282.42 165.612 282.7C165.632 282.98 165.652 283.3 165.672 283.66C165.712 284.12 165.762 284.46 165.822 284.68C165.882 284.88 165.972 285.03 166.092 285.13C166.272 285.29 166.512 285.39 166.812 285.43C167.112 285.45 167.422 285.46 167.742 285.46L167.862 285.58L167.922 286L167.862 286.12C167.502 286.08 167.112 286.05 166.692 286.03C166.292 286.01 165.882 286 165.462 286C164.722 286 164.042 286.03 163.422 286.09L163.212 285.79ZM154.302 279.16C154.302 279.84 154.392 280.51 154.572 281.17C154.752 281.83 155.022 282.42 155.382 282.94C155.742 283.44 156.202 283.85 156.762 284.17C157.322 284.47 157.992 284.62 158.772 284.62C159.512 284.62 160.172 284.48 160.752 284.2C161.352 283.92 161.852 283.58 162.252 283.18C162.652 282.78 162.962 282.36 163.182 281.92C163.422 281.48 163.552 281.1 163.572 280.78V277.45C163.532 277.13 163.402 276.74 163.182 276.28C162.982 275.82 162.682 275.38 162.282 274.96C161.902 274.52 161.422 274.15 160.842 273.85C160.282 273.55 159.612 273.4 158.832 273.4C158.032 273.4 157.342 273.57 156.762 273.91C156.202 274.23 155.732 274.66 155.352 275.2C154.992 275.74 154.722 276.36 154.542 277.06C154.382 277.74 154.302 278.44 154.302 279.16ZM170.101 292.87C170.381 292.87 170.641 292.86 170.881 292.84C171.141 292.82 171.391 292.77 171.631 292.69C171.871 292.63 172.101 292.52 172.321 292.36C172.561 292.2 172.821 291.98 173.101 291.7C173.481 291.3 173.811 290.87 174.091 290.41C174.371 289.97 174.601 289.52 174.781 289.06L175.741 286.63L173.671 281.2C173.591 281.02 173.451 280.69 173.251 280.21C173.071 279.73 172.861 279.2 172.621 278.62C172.381 278.02 172.131 277.41 171.871 276.79C171.631 276.17 171.421 275.62 171.241 275.14C171.041 274.66 170.861 274.28 170.701 274C170.501 273.68 170.271 273.43 170.011 273.25C169.771 273.07 169.441 272.96 169.021 272.92L168.841 272.77V272.35L168.961 272.23C169.301 272.27 169.661 272.31 170.041 272.35C170.421 272.39 170.771 272.41 171.091 272.41H172.261C172.581 272.41 172.961 272.39 173.401 272.35C173.861 272.31 174.291 272.27 174.691 272.23L174.811 272.35V272.71L174.691 272.83C174.251 272.87 173.881 272.99 173.581 273.19C173.301 273.37 173.161 273.64 173.161 274C173.161 274.24 173.251 274.67 173.431 275.29C173.631 275.89 173.851 276.54 174.091 277.24C174.331 277.92 174.561 278.56 174.781 279.16C175.001 279.76 175.151 280.15 175.231 280.33L176.731 284.23L178.141 280.78C178.281 280.44 178.471 279.98 178.711 279.4C178.951 278.82 179.191 278.2 179.431 277.54C179.671 276.88 179.871 276.24 180.031 275.62C180.211 274.98 180.301 274.44 180.301 274C180.301 273.56 180.141 273.27 179.821 273.13C179.501 272.97 179.141 272.87 178.741 272.83L178.621 272.71V272.35L178.741 272.23C179.521 272.35 180.251 272.41 180.931 272.41H182.161C182.501 272.41 182.821 272.39 183.121 272.35C183.441 272.31 183.791 272.27 184.171 272.23L184.291 272.35V272.77L184.141 272.92C183.781 272.96 183.501 273.06 183.301 273.22C183.121 273.38 182.921 273.64 182.701 274C182.521 274.32 182.311 274.72 182.071 275.2C181.851 275.68 181.621 276.2 181.381 276.76C181.161 277.32 180.931 277.89 180.691 278.47C180.471 279.05 180.261 279.59 180.061 280.09C179.881 280.59 179.721 281.03 179.581 281.41C179.461 281.77 179.371 282.02 179.311 282.16L176.371 289.48C175.851 290.78 175.141 291.74 174.241 292.36C173.361 293 172.401 293.45 171.361 293.71C171.161 293.75 170.981 293.77 170.821 293.77C170.661 293.79 170.481 293.8 170.281 293.8L170.041 293.74L169.981 293.02L170.101 292.87ZM200.418 273.61H196.608V278.26C196.608 279.1 196.608 279.81 196.608 280.39C196.608 280.95 196.608 281.43 196.608 281.83C196.628 282.21 196.648 282.54 196.668 282.82C196.688 283.1 196.708 283.38 196.728 283.66C196.768 283.96 196.808 284.25 196.848 284.53C196.908 284.79 197.018 284.99 197.178 285.13C197.278 285.21 197.418 285.27 197.598 285.31C197.798 285.35 197.998 285.38 198.198 285.4C198.418 285.42 198.628 285.44 198.828 285.46C199.028 285.46 199.188 285.46 199.308 285.46L199.458 285.61L199.518 286L199.458 286.12C199.318 286.12 199.088 286.11 198.768 286.09C198.468 286.07 198.148 286.05 197.808 286.03C197.468 286.03 197.138 286.02 196.818 286C196.518 286 196.298 286 196.158 286H195.438C195.298 286 195.078 286 194.778 286C194.498 286.02 194.198 286.03 193.878 286.03C193.558 286.05 193.248 286.07 192.948 286.09C192.668 286.11 192.458 286.12 192.318 286.12L192.288 286L192.318 285.58L192.438 285.46C192.758 285.46 193.068 285.45 193.368 285.43C193.688 285.39 193.928 285.29 194.088 285.13C194.208 285.01 194.308 284.86 194.388 284.68C194.468 284.48 194.518 284.16 194.538 283.72C194.578 283.28 194.598 282.69 194.598 281.95C194.618 281.21 194.628 280.22 194.628 278.98V273.61H192.408L192.288 273.46V272.92L192.408 272.8L194.628 272.35V270.64C194.628 268.5 195.028 266.8 195.828 265.54C196.628 264.28 197.798 263.65 199.338 263.65C199.798 263.65 200.298 263.72 200.838 263.86C201.378 264 201.938 264.23 202.518 264.55L202.668 264.85L202.308 267.16H201.528C201.448 266.52 201.148 266.02 200.628 265.66C200.128 265.3 199.558 265.12 198.918 265.12C198.338 265.12 197.888 265.24 197.568 265.48C197.268 265.7 197.038 266 196.878 266.38C196.738 266.76 196.658 267.2 196.638 267.7C196.618 268.18 196.608 268.67 196.608 269.17V272.35L200.418 272.17L200.568 272.29V273.46L200.418 273.61ZM210.083 271.75C211.263 271.75 212.313 271.96 213.233 272.38C214.153 272.78 214.923 273.33 215.543 274.03C216.183 274.71 216.663 275.5 216.983 276.4C217.323 277.3 217.493 278.23 217.493 279.19C217.493 280.11 217.343 281 217.043 281.86C216.743 282.72 216.283 283.48 215.663 284.14C215.043 284.8 214.273 285.33 213.353 285.73C212.433 286.13 211.363 286.33 210.143 286.33C208.883 286.33 207.783 286.12 206.843 285.7C205.903 285.28 205.123 284.73 204.503 284.05C203.903 283.37 203.453 282.6 203.153 281.74C202.853 280.86 202.703 279.96 202.703 279.04C202.703 278.06 202.873 277.13 203.213 276.25C203.553 275.37 204.033 274.6 204.653 273.94C205.293 273.26 206.063 272.73 206.963 272.35C207.883 271.95 208.923 271.75 210.083 271.75ZM210.113 285.16C210.953 285.16 211.693 284.99 212.333 284.65C212.973 284.31 213.503 283.86 213.923 283.3C214.343 282.74 214.653 282.11 214.853 281.41C215.073 280.69 215.183 279.95 215.183 279.19C215.183 278.47 215.063 277.74 214.823 277C214.603 276.26 214.273 275.6 213.833 275.02C213.393 274.42 212.853 273.94 212.213 273.58C211.573 273.2 210.833 273.01 209.993 273.01C209.113 273.01 208.353 273.19 207.713 273.55C207.093 273.89 206.573 274.34 206.153 274.9C205.753 275.46 205.453 276.1 205.253 276.82C205.053 277.54 204.953 278.26 204.953 278.98C204.953 279.72 205.063 280.46 205.283 281.2C205.523 281.92 205.863 282.58 206.303 283.18C206.743 283.76 207.283 284.24 207.923 284.62C208.563 284.98 209.293 285.16 210.113 285.16ZM224.453 275.38C224.653 275 224.873 274.6 225.113 274.18C225.373 273.76 225.663 273.37 225.983 273.01C226.303 272.65 226.663 272.35 227.063 272.11C227.483 271.87 227.953 271.75 228.473 271.75C228.833 271.75 229.233 271.81 229.673 271.93C230.133 272.03 230.443 272.17 230.603 272.35L230.843 272.62L230.483 274.93H229.493C229.433 274.65 229.273 274.4 229.013 274.18C228.773 273.94 228.393 273.82 227.873 273.82C227.373 273.82 226.913 273.97 226.493 274.27C226.073 274.55 225.703 274.91 225.383 275.35C225.083 275.79 224.843 276.26 224.663 276.76C224.503 277.24 224.423 277.68 224.423 278.08V280.75C224.423 281.19 224.423 281.55 224.423 281.83C224.443 282.09 224.453 282.32 224.453 282.52C224.473 282.7 224.483 282.86 224.483 283C224.503 283.12 224.513 283.25 224.513 283.39L224.543 283.66C224.583 283.96 224.623 284.25 224.663 284.53C224.723 284.79 224.833 284.99 224.993 285.13C225.093 285.21 225.233 285.27 225.413 285.31C225.613 285.35 225.813 285.38 226.013 285.4C226.233 285.42 226.443 285.44 226.643 285.46C226.843 285.46 227.003 285.46 227.123 285.46L227.273 285.61L227.333 286L227.273 286.12C227.133 286.12 226.903 286.11 226.583 286.09C226.283 286.07 225.963 286.05 225.623 286.03C225.283 286.03 224.953 286.02 224.633 286C224.333 286 224.113 286 223.973 286H223.253C223.113 286 222.893 286 222.593 286C222.313 286.02 222.013 286.03 221.693 286.03C221.373 286.05 221.063 286.07 220.763 286.09C220.483 286.11 220.273 286.12 220.133 286.12L220.103 286L220.133 285.58L220.253 285.46C220.573 285.46 220.883 285.45 221.183 285.43C221.503 285.39 221.743 285.29 221.903 285.13C222.063 284.99 222.163 284.81 222.203 284.59C222.263 284.37 222.313 284.06 222.353 283.66L222.383 283.39C222.403 283.19 222.413 282.94 222.413 282.64C222.433 282.34 222.443 281.83 222.443 281.11V277.42C222.443 277 222.443 276.65 222.443 276.37C222.443 276.07 222.433 275.81 222.413 275.59C222.413 275.37 222.403 275.17 222.383 274.99C222.383 274.81 222.373 274.62 222.353 274.42C222.313 274.2 222.253 274.01 222.173 273.85C222.093 273.67 222.023 273.55 221.963 273.49C221.763 273.25 221.513 273.11 221.213 273.07C220.913 273.01 220.603 272.98 220.283 272.98L220.163 272.86V272.44L220.283 272.35H220.823C221.163 272.35 221.593 272.35 222.113 272.35C222.633 272.33 223.083 272.29 223.463 272.23L224.513 272.08L224.693 272.35C224.573 272.77 224.483 273.25 224.423 273.79C224.383 274.33 224.363 274.85 224.363 275.35L224.453 275.38ZM248.213 285.79C248.273 285.57 248.313 285.24 248.333 284.8C248.373 284.36 248.423 283.95 248.483 283.57L248.453 283.48C248.193 283.84 247.883 284.19 247.523 284.53C247.163 284.87 246.763 285.18 246.323 285.46C245.903 285.72 245.443 285.93 244.943 286.09C244.463 286.25 243.953 286.33 243.413 286.33C242.793 286.33 242.243 286.22 241.763 286C241.283 285.78 240.883 285.49 240.563 285.13C240.243 284.77 240.003 284.35 239.843 283.87C239.683 283.39 239.603 282.89 239.603 282.37C239.603 281.63 239.773 280.99 240.113 280.45C240.453 279.89 240.903 279.43 241.463 279.07C241.983 278.75 242.593 278.49 243.293 278.29C244.013 278.09 244.703 277.95 245.363 277.87C246.043 277.77 246.653 277.71 247.193 277.69C247.733 277.65 248.093 277.63 248.273 277.63H248.693C248.673 276.89 248.633 276.31 248.573 275.89C248.513 275.45 248.433 275.09 248.333 274.81C248.113 274.21 247.733 273.78 247.193 273.52C246.653 273.24 246.003 273.1 245.243 273.1C244.923 273.1 244.573 273.13 244.193 273.19C243.833 273.25 243.483 273.36 243.143 273.52C242.823 273.68 242.543 273.91 242.303 274.21C242.063 274.49 241.923 274.86 241.883 275.32L241.763 275.41H241.103L240.833 273.19L240.923 273.01C241.023 272.89 241.233 272.76 241.553 272.62C241.873 272.48 242.243 272.35 242.663 272.23C243.103 272.09 243.583 271.98 244.103 271.9C244.643 271.8 245.173 271.75 245.693 271.75C246.413 271.75 247.083 271.85 247.703 272.05C248.323 272.23 248.853 272.51 249.293 272.89C249.753 273.27 250.113 273.75 250.373 274.33C250.633 274.89 250.763 275.55 250.763 276.31C250.763 277.15 250.753 277.9 250.733 278.56C250.733 279.2 250.723 279.8 250.703 280.36C250.683 280.9 250.663 281.44 250.643 281.98C250.643 282.5 250.643 283.06 250.643 283.66C250.683 284.12 250.733 284.46 250.793 284.68C250.853 284.88 250.953 285.03 251.093 285.13C251.253 285.29 251.483 285.39 251.783 285.43C252.103 285.45 252.423 285.46 252.743 285.46L252.863 285.58L252.893 286L252.863 286.12C252.503 286.08 252.113 286.05 251.693 286.03C251.273 286.01 250.863 286 250.463 286C249.703 286 249.013 286.03 248.393 286.09L248.213 285.79ZM248.213 282.55C248.273 282.45 248.333 282.33 248.393 282.19C248.473 282.05 248.523 281.88 248.543 281.68L248.693 278.68H248.423C247.623 278.68 246.823 278.73 246.023 278.83C245.223 278.91 244.503 279.08 243.863 279.34C243.243 279.6 242.733 279.96 242.333 280.42C241.933 280.88 241.733 281.47 241.733 282.19C241.733 282.95 241.953 283.56 242.393 284.02C242.833 284.46 243.403 284.68 244.103 284.68C244.523 284.68 244.943 284.61 245.363 284.47C245.783 284.33 246.173 284.15 246.533 283.93C246.913 283.71 247.243 283.48 247.523 283.24C247.823 283 248.053 282.77 248.213 282.55ZM266.523 274.78C267.043 273.92 267.713 273.2 268.533 272.62C269.353 272.04 270.373 271.75 271.593 271.75C272.153 271.75 272.713 271.83 273.273 271.99C273.833 272.15 274.343 272.4 274.803 272.74C275.283 273.08 275.673 273.52 275.973 274.06C276.293 274.58 276.503 275.2 276.603 275.92C276.663 276.44 276.693 276.99 276.693 277.57C276.713 278.15 276.723 278.73 276.723 279.31C276.723 280.03 276.723 280.76 276.723 281.5C276.743 282.22 276.753 282.94 276.753 283.66C276.793 284.12 276.843 284.46 276.903 284.68C276.963 284.88 277.053 285.03 277.173 285.13C277.353 285.29 277.593 285.39 277.893 285.43C278.213 285.45 278.533 285.46 278.853 285.46L278.943 285.58L279.003 286L278.943 286.12C278.603 286.08 278.223 286.05 277.803 286.03C277.383 286.01 276.973 286 276.573 286C275.813 286 275.123 286.03 274.503 286.09L274.293 285.79C274.373 285.53 274.433 285.19 274.473 284.77C274.513 284.35 274.543 283.98 274.563 283.66C274.603 282.82 274.633 282 274.653 281.2C274.673 280.38 274.683 279.7 274.683 279.16C274.683 278.7 274.663 278.2 274.623 277.66C274.603 277.12 274.543 276.65 274.443 276.25C274.243 275.31 273.833 274.61 273.213 274.15C272.593 273.69 271.873 273.46 271.053 273.46C270.393 273.46 269.773 273.6 269.193 273.88C268.633 274.16 268.153 274.51 267.753 274.93C267.353 275.33 267.033 275.76 266.793 276.22C266.573 276.66 266.463 277.04 266.463 277.36V280.75C266.463 281.19 266.463 281.55 266.463 281.83C266.463 282.11 266.463 282.35 266.463 282.55C266.483 282.75 266.503 282.94 266.523 283.12C266.543 283.28 266.563 283.46 266.583 283.66C266.623 284.08 266.663 284.4 266.703 284.62C266.763 284.82 266.873 284.99 267.033 285.13C267.193 285.27 267.413 285.36 267.693 285.4C267.993 285.44 268.293 285.46 268.593 285.46L268.743 285.61L268.803 286L268.743 286.12C268.603 286.12 268.393 286.11 268.113 286.09C267.833 286.07 267.533 286.05 267.213 286.03C266.893 286.03 266.593 286.02 266.313 286C266.033 286 265.823 286 265.683 286H265.263C265.123 286 264.903 286 264.603 286C264.323 286.02 264.023 286.03 263.703 286.03C263.403 286.05 263.103 286.07 262.803 286.09C262.523 286.11 262.313 286.12 262.173 286.12L262.143 286L262.173 285.58L262.293 285.46C262.613 285.46 262.923 285.45 263.223 285.43C263.543 285.39 263.783 285.29 263.943 285.13C264.103 284.99 264.203 284.81 264.243 284.59C264.303 284.37 264.353 284.06 264.393 283.66C264.413 283.34 264.433 283.02 264.453 282.7C264.473 282.36 264.483 281.83 264.483 281.11V277.42C264.483 277 264.483 276.65 264.483 276.37C264.483 276.07 264.473 275.81 264.453 275.59C264.453 275.37 264.443 275.17 264.423 274.99C264.423 274.81 264.413 274.62 264.393 274.42C264.353 274.2 264.293 274.01 264.213 273.85C264.133 273.67 264.063 273.55 264.003 273.49C263.803 273.25 263.553 273.11 263.253 273.07C262.953 273.01 262.643 272.98 262.323 272.98L262.203 272.86V272.44L262.323 272.35H262.863C263.203 272.35 263.633 272.35 264.153 272.35C264.673 272.33 265.123 272.29 265.503 272.23L266.553 272.08L266.733 272.35C266.633 272.61 266.563 272.97 266.523 273.43C266.483 273.87 266.453 274.3 266.433 274.72L266.523 274.78ZM294.164 277.93L293.684 278.14C292.604 278.14 291.494 278.15 290.354 278.17C289.214 278.19 288.094 278.2 286.994 278.2H283.454C283.434 278.34 283.424 278.48 283.424 278.62C283.424 278.74 283.424 278.86 283.424 278.98C283.424 279.74 283.534 280.47 283.754 281.17C283.974 281.85 284.314 282.45 284.774 282.97C285.254 283.49 285.864 283.91 286.604 284.23C287.344 284.53 288.244 284.68 289.304 284.68C289.924 284.68 290.584 284.62 291.284 284.5C292.004 284.36 292.664 284.12 293.264 283.78L293.564 283.96V284.5L293.264 284.83C292.784 285.21 292.104 285.56 291.224 285.88C290.344 286.18 289.364 286.33 288.284 286.33C287.224 286.33 286.254 286.16 285.374 285.82C284.514 285.46 283.764 284.96 283.124 284.32C282.504 283.68 282.014 282.92 281.654 282.04C281.314 281.16 281.144 280.18 281.144 279.1C281.144 278 281.324 277 281.684 276.1C282.044 275.2 282.534 274.43 283.154 273.79C283.794 273.15 284.534 272.65 285.374 272.29C286.234 271.93 287.154 271.75 288.134 271.75C288.654 271.75 289.234 271.82 289.874 271.96C290.534 272.1 291.164 272.37 291.764 272.77C292.364 273.15 292.904 273.7 293.384 274.42C293.864 275.12 294.194 276.05 294.374 277.21L294.164 277.93ZM288.164 273.1C287.524 273.1 286.944 273.21 286.424 273.43C285.924 273.63 285.474 273.91 285.074 274.27C284.694 274.61 284.374 275.02 284.114 275.5C283.874 275.96 283.704 276.45 283.604 276.97H284.774C285.854 276.97 286.904 276.96 287.924 276.94C288.944 276.9 290.014 276.85 291.134 276.79C291.394 276.77 291.564 276.7 291.644 276.58C291.744 276.46 291.794 276.32 291.794 276.16C291.794 276.04 291.784 275.93 291.764 275.83C291.744 275.73 291.714 275.63 291.674 275.53C291.454 274.77 291.044 274.18 290.444 273.76C289.844 273.32 289.084 273.1 288.164 273.1ZM311.402 286L307.862 276.88C307.642 277.44 307.422 278 307.202 278.56C307.002 279.12 306.812 279.65 306.632 280.15C306.452 280.63 306.292 281.05 306.152 281.41C306.012 281.77 305.912 282.02 305.852 282.16L304.322 286L302.492 286.15L302.192 286L300.392 281.2C300.332 281.04 300.202 280.73 300.002 280.27C299.822 279.79 299.612 279.25 299.372 278.65C299.132 278.05 298.882 277.44 298.622 276.82C298.382 276.18 298.162 275.62 297.962 275.14C297.762 274.66 297.582 274.28 297.422 274C297.222 273.68 296.992 273.43 296.732 273.25C296.492 273.07 296.162 272.96 295.742 272.92L295.562 272.77V272.35L295.682 272.23C296.022 272.27 296.382 272.31 296.762 272.35C297.142 272.39 297.492 272.41 297.812 272.41H298.982C299.302 272.41 299.682 272.39 300.122 272.35C300.582 272.31 301.012 272.27 301.412 272.23L301.532 272.35V272.71L301.412 272.83C300.972 272.87 300.602 272.99 300.302 273.19C300.022 273.37 299.882 273.64 299.882 274C299.882 274.16 299.922 274.41 300.002 274.75C300.102 275.09 300.222 275.47 300.362 275.89C300.502 276.31 300.652 276.76 300.812 277.24C300.972 277.7 301.132 278.14 301.292 278.56C301.452 278.98 301.592 279.35 301.712 279.67C301.832 279.99 301.912 280.21 301.952 280.33L303.422 284.23L304.862 280.78C304.982 280.48 305.142 280.09 305.342 279.61C305.562 279.13 305.772 278.61 305.972 278.05C306.192 277.49 306.392 276.92 306.572 276.34C306.772 275.76 306.912 275.23 306.992 274.75C306.892 274.37 306.732 274 306.512 273.64C306.312 273.26 305.902 273.02 305.282 272.92L305.102 272.77V272.35L305.222 272.23C305.562 272.27 305.872 272.31 306.152 272.35C306.452 272.39 306.762 272.41 307.082 272.41H308.252C308.912 272.41 309.622 272.35 310.382 272.23L310.502 272.35V272.71L310.382 272.83C309.502 272.93 309.062 273.32 309.062 274C309.062 274.16 309.102 274.41 309.182 274.75C309.282 275.09 309.402 275.47 309.542 275.89C309.682 276.31 309.832 276.76 309.992 277.24C310.152 277.7 310.312 278.14 310.472 278.56C310.632 278.98 310.772 279.35 310.892 279.67C311.012 279.99 311.092 280.21 311.132 280.33L312.602 284.23L314.042 280.78C314.182 280.44 314.372 279.98 314.612 279.4C314.852 278.82 315.092 278.2 315.332 277.54C315.572 276.88 315.772 276.24 315.932 275.62C316.112 274.98 316.202 274.44 316.202 274C316.202 273.56 316.042 273.27 315.722 273.13C315.402 272.97 315.042 272.87 314.642 272.83L314.522 272.71V272.35L314.642 272.23C315.442 272.35 316.172 272.41 316.832 272.41H318.062C318.402 272.41 318.722 272.39 319.022 272.35C319.342 272.31 319.702 272.27 320.102 272.23L320.192 272.35V272.77L320.042 272.92C319.682 272.96 319.372 273.06 319.112 273.22C318.872 273.38 318.642 273.64 318.422 274C318.222 274.32 318.012 274.72 317.792 275.2C317.572 275.68 317.342 276.2 317.102 276.76C316.882 277.32 316.662 277.89 316.442 278.47C316.222 279.05 316.012 279.59 315.812 280.09C315.632 280.59 315.472 281.03 315.332 281.41C315.192 281.77 315.092 282.02 315.032 282.16L313.502 286L311.672 286.15L311.402 286ZM135.4 314.92C134.32 314.52 133.54 313.89 133.06 313.03C132.58 312.17 132.34 311.22 132.34 310.18C132.34 309.44 132.47 308.74 132.73 308.08C132.99 307.42 133.36 306.85 133.84 306.37C134.34 305.87 134.93 305.48 135.61 305.2C136.31 304.92 137.1 304.78 137.98 304.78C138.5 304.78 139.01 304.83 139.51 304.93C140.03 305.03 140.48 305.17 140.86 305.35C141.7 305.33 142.48 305.28 143.2 305.2C143.94 305.12 144.63 304.99 145.27 304.81L145.42 304.93L145.21 306.58L145.06 306.73L142.33 306.61L142.3 306.7C142.82 307.12 143.2 307.67 143.44 308.35C143.68 309.03 143.8 309.69 143.8 310.33C143.8 310.99 143.67 311.62 143.41 312.22C143.17 312.82 142.81 313.35 142.33 313.81C141.85 314.25 141.25 314.61 140.53 314.89C139.81 315.15 138.98 315.28 138.04 315.28C137.88 315.28 137.68 315.28 137.44 315.28C137.2 315.26 137 315.25 136.84 315.25C136.5 315.39 136.24 315.58 136.06 315.82C135.9 316.06 135.82 316.26 135.82 316.42C135.82 316.62 135.95 316.8 136.21 316.96C136.49 317.1 136.93 317.2 137.53 317.26L140.44 317.56C141.1 317.64 141.71 317.78 142.27 317.98C142.85 318.18 143.35 318.45 143.77 318.79C144.21 319.11 144.55 319.5 144.79 319.96C145.03 320.44 145.15 320.99 145.15 321.61C145.15 322.19 145.02 322.77 144.76 323.35C144.5 323.95 144.11 324.48 143.59 324.94C143.07 325.38 142.35 325.74 141.43 326.02C140.51 326.3 139.45 326.44 138.25 326.44C137.17 326.44 136.23 326.32 135.43 326.08C134.65 325.86 133.99 325.55 133.45 325.15C132.93 324.77 132.54 324.33 132.28 323.83C132.02 323.35 131.89 322.85 131.89 322.33C131.89 321.49 132.16 320.74 132.7 320.08C133.26 319.44 133.97 318.99 134.83 318.73L134.86 318.64C134.42 318.46 134.07 318.24 133.81 317.98C133.55 317.7 133.42 317.36 133.42 316.96C133.42 316.44 133.63 316.02 134.05 315.7C134.47 315.38 134.92 315.16 135.4 315.04V314.92ZM138.1 314.02C138.66 314.02 139.15 313.92 139.57 313.72C140.01 313.52 140.38 313.25 140.68 312.91C140.98 312.57 141.21 312.18 141.37 311.74C141.53 311.28 141.61 310.81 141.61 310.33C141.61 309.83 141.53 309.33 141.37 308.83C141.21 308.33 140.97 307.88 140.65 307.48C140.35 307.08 139.97 306.75 139.51 306.49C139.05 306.23 138.52 306.1 137.92 306.1C137.34 306.1 136.83 306.22 136.39 306.46C135.97 306.7 135.61 307.01 135.31 307.39C135.03 307.77 134.82 308.2 134.68 308.68C134.54 309.14 134.47 309.6 134.47 310.06C134.47 310.54 134.54 311.02 134.68 311.5C134.84 311.96 135.07 312.38 135.37 312.76C135.69 313.14 136.07 313.45 136.51 313.69C136.97 313.91 137.5 314.02 138.1 314.02ZM137.14 319.15C136.58 319.17 136.09 319.27 135.67 319.45C135.25 319.63 134.89 319.85 134.59 320.11C134.31 320.39 134.1 320.69 133.96 321.01C133.82 321.35 133.75 321.68 133.75 322C133.75 322.76 134.17 323.38 135.01 323.86C135.85 324.34 136.99 324.58 138.43 324.58C139.09 324.58 139.7 324.52 140.26 324.4C140.82 324.3 141.3 324.13 141.7 323.89C142.12 323.67 142.45 323.39 142.69 323.05C142.93 322.73 143.05 322.35 143.05 321.91C143.05 321.43 142.93 321.04 142.69 320.74C142.47 320.44 142.17 320.19 141.79 319.99C141.43 319.81 141.01 319.67 140.53 319.57C140.07 319.49 139.61 319.42 139.15 319.36L137.14 319.15ZM151.656 308.38C151.856 308 152.076 307.6 152.316 307.18C152.576 306.76 152.866 306.37 153.186 306.01C153.506 305.65 153.866 305.35 154.266 305.11C154.686 304.87 155.156 304.75 155.676 304.75C156.036 304.75 156.436 304.81 156.876 304.93C157.336 305.03 157.646 305.17 157.806 305.35L158.046 305.62L157.686 307.93H156.696C156.636 307.65 156.476 307.4 156.216 307.18C155.976 306.94 155.596 306.82 155.076 306.82C154.576 306.82 154.116 306.97 153.696 307.27C153.276 307.55 152.906 307.91 152.586 308.35C152.286 308.79 152.046 309.26 151.866 309.76C151.706 310.24 151.626 310.68 151.626 311.08V313.75C151.626 314.19 151.626 314.55 151.626 314.83C151.646 315.09 151.656 315.32 151.656 315.52C151.676 315.7 151.686 315.86 151.686 316C151.706 316.12 151.716 316.25 151.716 316.39L151.746 316.66C151.786 316.96 151.826 317.25 151.866 317.53C151.926 317.79 152.036 317.99 152.196 318.13C152.296 318.21 152.436 318.27 152.616 318.31C152.816 318.35 153.016 318.38 153.216 318.4C153.436 318.42 153.646 318.44 153.846 318.46C154.046 318.46 154.206 318.46 154.326 318.46L154.476 318.61L154.536 319L154.476 319.12C154.336 319.12 154.106 319.11 153.786 319.09C153.486 319.07 153.166 319.05 152.826 319.03C152.486 319.03 152.156 319.02 151.836 319C151.536 319 151.316 319 151.176 319H150.456C150.316 319 150.096 319 149.796 319C149.516 319.02 149.216 319.03 148.896 319.03C148.576 319.05 148.266 319.07 147.966 319.09C147.686 319.11 147.476 319.12 147.336 319.12L147.306 319L147.336 318.58L147.456 318.46C147.776 318.46 148.086 318.45 148.386 318.43C148.706 318.39 148.946 318.29 149.106 318.13C149.266 317.99 149.366 317.81 149.406 317.59C149.466 317.37 149.516 317.06 149.556 316.66L149.586 316.39C149.606 316.19 149.616 315.94 149.616 315.64C149.636 315.34 149.646 314.83 149.646 314.11V310.42C149.646 310 149.646 309.65 149.646 309.37C149.646 309.07 149.636 308.81 149.616 308.59C149.616 308.37 149.606 308.17 149.586 307.99C149.586 307.81 149.576 307.62 149.556 307.42C149.516 307.2 149.456 307.01 149.376 306.85C149.296 306.67 149.226 306.55 149.166 306.49C148.966 306.25 148.716 306.11 148.416 306.07C148.116 306.01 147.806 305.98 147.486 305.98L147.366 305.86V305.44L147.486 305.35H148.026C148.366 305.35 148.796 305.35 149.316 305.35C149.836 305.33 150.286 305.29 150.666 305.23L151.716 305.08L151.896 305.35C151.776 305.77 151.686 306.25 151.626 306.79C151.586 307.33 151.566 307.85 151.566 308.35L151.656 308.38ZM167.446 304.75C168.626 304.75 169.676 304.96 170.596 305.38C171.516 305.78 172.286 306.33 172.906 307.03C173.546 307.71 174.026 308.5 174.346 309.4C174.686 310.3 174.856 311.23 174.856 312.19C174.856 313.11 174.706 314 174.406 314.86C174.106 315.72 173.646 316.48 173.026 317.14C172.406 317.8 171.636 318.33 170.716 318.73C169.796 319.13 168.726 319.33 167.506 319.33C166.246 319.33 165.146 319.12 164.206 318.7C163.266 318.28 162.486 317.73 161.866 317.05C161.266 316.37 160.816 315.6 160.516 314.74C160.216 313.86 160.066 312.96 160.066 312.04C160.066 311.06 160.236 310.13 160.576 309.25C160.916 308.37 161.396 307.6 162.016 306.94C162.656 306.26 163.426 305.73 164.326 305.35C165.246 304.95 166.286 304.75 167.446 304.75ZM167.476 318.16C168.316 318.16 169.056 317.99 169.696 317.65C170.336 317.31 170.866 316.86 171.286 316.3C171.706 315.74 172.016 315.11 172.216 314.41C172.436 313.69 172.546 312.95 172.546 312.19C172.546 311.47 172.426 310.74 172.186 310C171.966 309.26 171.636 308.6 171.196 308.02C170.756 307.42 170.216 306.94 169.576 306.58C168.936 306.2 168.196 306.01 167.356 306.01C166.476 306.01 165.716 306.19 165.076 306.55C164.456 306.89 163.936 307.34 163.516 307.9C163.116 308.46 162.816 309.1 162.616 309.82C162.416 310.54 162.316 311.26 162.316 311.98C162.316 312.72 162.426 313.46 162.646 314.2C162.886 314.92 163.226 315.58 163.666 316.18C164.106 316.76 164.646 317.24 165.286 317.62C165.926 317.98 166.656 318.16 167.476 318.16ZM189.316 308.41L189.196 308.32C189.196 307.86 189.056 307.49 188.776 307.21C188.516 306.91 188.196 306.68 187.816 306.52C187.436 306.36 187.026 306.25 186.586 306.19C186.166 306.13 185.796 306.1 185.476 306.1C184.556 306.1 183.756 306.27 183.076 306.61C182.416 306.93 181.866 307.37 181.426 307.93C180.986 308.47 180.656 309.1 180.436 309.82C180.236 310.52 180.136 311.24 180.136 311.98C180.136 312.74 180.246 313.47 180.466 314.17C180.706 314.87 181.066 315.49 181.546 316.03C182.026 316.57 182.626 317 183.346 317.32C184.066 317.64 184.926 317.8 185.926 317.8C186.606 317.8 187.356 317.7 188.176 317.5C189.016 317.28 189.736 317.01 190.336 316.69L190.636 316.99L190.186 317.83C189.966 317.99 189.676 318.16 189.316 318.34C188.976 318.5 188.586 318.66 188.146 318.82C187.706 318.96 187.226 319.08 186.706 319.18C186.206 319.28 185.706 319.33 185.206 319.33C184.226 319.33 183.286 319.16 182.386 318.82C181.506 318.46 180.726 317.97 180.046 317.35C179.386 316.71 178.856 315.95 178.456 315.07C178.056 314.17 177.856 313.18 177.856 312.1C177.856 311 178.056 310 178.456 309.1C178.856 308.2 179.406 307.43 180.106 306.79C180.806 306.15 181.616 305.65 182.536 305.29C183.476 304.93 184.476 304.75 185.536 304.75C186.496 304.75 187.396 304.87 188.236 305.11C189.096 305.35 189.746 305.59 190.186 305.83L190.276 306.1L189.946 308.41H189.316ZM206.265 310.93L205.785 311.14C204.705 311.14 203.595 311.15 202.455 311.17C201.315 311.19 200.195 311.2 199.095 311.2H195.555C195.535 311.34 195.525 311.48 195.525 311.62C195.525 311.74 195.525 311.86 195.525 311.98C195.525 312.74 195.635 313.47 195.855 314.17C196.075 314.85 196.415 315.45 196.875 315.97C197.355 316.49 197.965 316.91 198.705 317.23C199.445 317.53 200.345 317.68 201.405 317.68C202.025 317.68 202.685 317.62 203.385 317.5C204.105 317.36 204.765 317.12 205.365 316.78L205.665 316.96V317.5L205.365 317.83C204.885 318.21 204.205 318.56 203.325 318.88C202.445 319.18 201.465 319.33 200.385 319.33C199.325 319.33 198.355 319.16 197.475 318.82C196.615 318.46 195.865 317.96 195.225 317.32C194.605 316.68 194.115 315.92 193.755 315.04C193.415 314.16 193.245 313.18 193.245 312.1C193.245 311 193.425 310 193.785 309.1C194.145 308.2 194.635 307.43 195.255 306.79C195.895 306.15 196.635 305.65 197.475 305.29C198.335 304.93 199.255 304.75 200.235 304.75C200.755 304.75 201.335 304.82 201.975 304.96C202.635 305.1 203.265 305.37 203.865 305.77C204.465 306.15 205.005 306.7 205.485 307.42C205.965 308.12 206.295 309.05 206.475 310.21L206.265 310.93ZM200.265 306.1C199.625 306.1 199.045 306.21 198.525 306.43C198.025 306.63 197.575 306.91 197.175 307.27C196.795 307.61 196.475 308.02 196.215 308.5C195.975 308.96 195.805 309.45 195.705 309.97H196.875C197.955 309.97 199.005 309.96 200.025 309.94C201.045 309.9 202.115 309.85 203.235 309.79C203.495 309.77 203.665 309.7 203.745 309.58C203.845 309.46 203.895 309.32 203.895 309.16C203.895 309.04 203.885 308.93 203.865 308.83C203.845 308.73 203.815 308.63 203.775 308.53C203.555 307.77 203.145 307.18 202.545 306.76C201.945 306.32 201.185 306.1 200.265 306.1ZM213.237 308.38C213.437 308 213.657 307.6 213.897 307.18C214.157 306.76 214.447 306.37 214.767 306.01C215.087 305.65 215.447 305.35 215.847 305.11C216.267 304.87 216.737 304.75 217.257 304.75C217.617 304.75 218.017 304.81 218.457 304.93C218.917 305.03 219.227 305.17 219.387 305.35L219.627 305.62L219.267 307.93H218.277C218.217 307.65 218.057 307.4 217.797 307.18C217.557 306.94 217.177 306.82 216.657 306.82C216.157 306.82 215.697 306.97 215.277 307.27C214.857 307.55 214.487 307.91 214.167 308.35C213.867 308.79 213.627 309.26 213.447 309.76C213.287 310.24 213.207 310.68 213.207 311.08V313.75C213.207 314.19 213.207 314.55 213.207 314.83C213.227 315.09 213.237 315.32 213.237 315.52C213.257 315.7 213.267 315.86 213.267 316C213.287 316.12 213.297 316.25 213.297 316.39L213.327 316.66C213.367 316.96 213.407 317.25 213.447 317.53C213.507 317.79 213.617 317.99 213.777 318.13C213.877 318.21 214.017 318.27 214.197 318.31C214.397 318.35 214.597 318.38 214.797 318.4C215.017 318.42 215.227 318.44 215.427 318.46C215.627 318.46 215.787 318.46 215.907 318.46L216.057 318.61L216.117 319L216.057 319.12C215.917 319.12 215.687 319.11 215.367 319.09C215.067 319.07 214.747 319.05 214.407 319.03C214.067 319.03 213.737 319.02 213.417 319C213.117 319 212.897 319 212.757 319H212.037C211.897 319 211.677 319 211.377 319C211.097 319.02 210.797 319.03 210.477 319.03C210.157 319.05 209.847 319.07 209.547 319.09C209.267 319.11 209.057 319.12 208.917 319.12L208.887 319L208.917 318.58L209.037 318.46C209.357 318.46 209.667 318.45 209.967 318.43C210.287 318.39 210.527 318.29 210.687 318.13C210.847 317.99 210.947 317.81 210.987 317.59C211.047 317.37 211.097 317.06 211.137 316.66L211.167 316.39C211.187 316.19 211.197 315.94 211.197 315.64C211.217 315.34 211.227 314.83 211.227 314.11V310.42C211.227 310 211.227 309.65 211.227 309.37C211.227 309.07 211.217 308.81 211.197 308.59C211.197 308.37 211.187 308.17 211.167 307.99C211.167 307.81 211.157 307.62 211.137 307.42C211.097 307.2 211.037 307.01 210.957 306.85C210.877 306.67 210.807 306.55 210.747 306.49C210.547 306.25 210.297 306.11 209.997 306.07C209.697 306.01 209.387 305.98 209.067 305.98L208.947 305.86V305.44L209.067 305.35H209.607C209.947 305.35 210.377 305.35 210.897 305.35C211.417 305.33 211.867 305.29 212.247 305.23L213.297 305.08L213.477 305.35C213.357 305.77 213.267 306.25 213.207 306.79C213.167 307.33 213.147 307.85 213.147 308.35L213.237 308.38ZM221.703 325.87C221.983 325.87 222.243 325.86 222.483 325.84C222.743 325.82 222.993 325.77 223.233 325.69C223.473 325.63 223.703 325.52 223.923 325.36C224.163 325.2 224.423 324.98 224.703 324.7C225.083 324.3 225.413 323.87 225.693 323.41C225.973 322.97 226.203 322.52 226.383 322.06L227.343 319.63L225.273 314.2C225.193 314.02 225.053 313.69 224.853 313.21C224.673 312.73 224.463 312.2 224.223 311.62C223.983 311.02 223.733 310.41 223.473 309.79C223.233 309.17 223.023 308.62 222.843 308.14C222.643 307.66 222.463 307.28 222.303 307C222.103 306.68 221.873 306.43 221.613 306.25C221.373 306.07 221.043 305.96 220.623 305.92L220.443 305.77V305.35L220.563 305.23C220.903 305.27 221.263 305.31 221.643 305.35C222.023 305.39 222.373 305.41 222.693 305.41H223.863C224.183 305.41 224.563 305.39 225.003 305.35C225.463 305.31 225.893 305.27 226.293 305.23L226.413 305.35V305.71L226.293 305.83C225.853 305.87 225.483 305.99 225.183 306.19C224.903 306.37 224.763 306.64 224.763 307C224.763 307.24 224.853 307.67 225.033 308.29C225.233 308.89 225.453 309.54 225.693 310.24C225.933 310.92 226.163 311.56 226.383 312.16C226.603 312.76 226.753 313.15 226.833 313.33L228.333 317.23L229.743 313.78C229.883 313.44 230.073 312.98 230.313 312.4C230.553 311.82 230.793 311.2 231.033 310.54C231.273 309.88 231.473 309.24 231.633 308.62C231.813 307.98 231.903 307.44 231.903 307C231.903 306.56 231.743 306.27 231.423 306.13C231.103 305.97 230.743 305.87 230.343 305.83L230.223 305.71V305.35L230.343 305.23C231.123 305.35 231.853 305.41 232.533 305.41H233.763C234.103 305.41 234.423 305.39 234.723 305.35C235.043 305.31 235.393 305.27 235.773 305.23L235.893 305.35V305.77L235.743 305.92C235.383 305.96 235.103 306.06 234.903 306.22C234.723 306.38 234.523 306.64 234.303 307C234.123 307.32 233.913 307.72 233.673 308.2C233.453 308.68 233.223 309.2 232.983 309.76C232.763 310.32 232.533 310.89 232.293 311.47C232.073 312.05 231.863 312.59 231.663 313.09C231.483 313.59 231.323 314.03 231.183 314.41C231.063 314.77 230.973 315.02 230.913 315.16L227.973 322.48C227.453 323.78 226.743 324.74 225.843 325.36C224.963 326 224.003 326.45 222.963 326.71C222.763 326.75 222.583 326.77 222.423 326.77C222.263 326.79 222.083 326.8 221.883 326.8L221.643 326.74L221.583 326.02L221.703 325.87ZM243.65 297.19L243.77 297.07H244.31C244.65 297.07 245.08 297.07 245.6 297.07C246.12 297.05 246.57 297.01 246.95 296.95L248.03 296.8L248.21 297.07C248.17 297.15 248.14 297.3 248.12 297.52C248.1 297.72 248.08 297.94 248.06 298.18C248.04 298.42 248.02 298.65 248 298.87C248 299.09 248 299.26 248 299.38C247.98 299.7 247.96 300 247.94 300.28C247.94 300.56 247.93 300.89 247.91 301.27C247.91 301.65 247.91 302.11 247.91 302.65C247.91 303.19 247.91 303.88 247.91 304.72V311.26C247.91 312.1 247.91 312.79 247.91 313.33C247.93 313.87 247.94 314.33 247.94 314.71C247.96 315.09 247.97 315.42 247.97 315.7C247.99 315.98 248.01 316.3 248.03 316.66C248.07 317.08 248.11 317.4 248.15 317.62C248.21 317.82 248.32 317.99 248.48 318.13C248.64 318.27 248.86 318.36 249.14 318.4C249.44 318.44 249.74 318.46 250.04 318.46L250.19 318.61L250.25 319L250.19 319.12C250.05 319.12 249.84 319.11 249.56 319.09C249.28 319.07 248.98 319.05 248.66 319.03C248.34 319.03 248.04 319.02 247.76 319C247.48 319 247.27 319 247.13 319H246.71C246.57 319 246.35 319 246.05 319C245.77 319.02 245.47 319.03 245.15 319.03C244.85 319.05 244.55 319.07 244.25 319.09C243.97 319.11 243.76 319.12 243.62 319.12L243.59 319L243.62 318.58L243.74 318.46C244.06 318.46 244.37 318.45 244.67 318.43C244.99 318.39 245.23 318.29 245.39 318.13C245.55 317.99 245.65 317.81 245.69 317.59C245.75 317.37 245.8 317.06 245.84 316.66C245.86 316.4 245.87 316.14 245.87 315.88C245.89 315.62 245.9 315.32 245.9 314.98C245.92 314.62 245.93 314.21 245.93 313.75C245.93 313.27 245.93 312.68 245.93 311.98V304.78C245.93 303.96 245.93 303.27 245.93 302.71C245.93 302.13 245.92 301.63 245.9 301.21C245.9 300.79 245.89 300.42 245.87 300.1C245.87 299.78 245.86 299.46 245.84 299.14C245.82 298.92 245.76 298.73 245.66 298.57C245.58 298.41 245.51 298.29 245.45 298.21C245.25 297.99 245 297.85 244.7 297.79C244.4 297.73 244.09 297.7 243.77 297.7L243.65 297.58V297.19ZM258.815 319.12C258.675 319.12 258.465 319.11 258.185 319.09C257.905 319.07 257.605 319.05 257.285 319.03C256.965 319.03 256.665 319.02 256.385 319C256.105 319 255.895 319 255.755 319H255.335C255.195 319 254.975 319 254.675 319C254.395 319.02 254.095 319.03 253.775 319.03C253.475 319.05 253.175 319.07 252.875 319.09C252.595 319.11 252.385 319.12 252.245 319.12L252.215 319L252.245 318.58L252.365 318.46C252.685 318.46 252.995 318.45 253.295 318.43C253.615 318.39 253.855 318.29 254.015 318.13C254.175 317.99 254.275 317.81 254.315 317.59C254.375 317.37 254.425 317.06 254.465 316.66C254.485 316.34 254.505 316.02 254.525 315.7C254.545 315.36 254.555 314.83 254.555 314.11V310.42C254.555 310 254.555 309.65 254.555 309.37C254.555 309.07 254.545 308.81 254.525 308.59C254.525 308.37 254.515 308.17 254.495 307.99C254.495 307.81 254.485 307.62 254.465 307.42C254.425 307.2 254.365 307.01 254.285 306.85C254.205 306.67 254.135 306.55 254.075 306.49C253.875 306.25 253.625 306.11 253.325 306.07C253.025 306.01 252.715 305.98 252.395 305.98L252.275 305.86V305.44L252.395 305.35H252.935C253.275 305.35 253.705 305.35 254.225 305.35C254.745 305.33 255.195 305.29 255.575 305.23L256.625 305.08L256.805 305.35C256.765 305.43 256.725 305.57 256.685 305.77C256.665 305.97 256.645 306.19 256.625 306.43C256.625 306.65 256.615 306.87 256.595 307.09C256.595 307.31 256.595 307.48 256.595 307.6C256.595 307.76 256.585 307.92 256.565 308.08C256.565 308.22 256.565 308.39 256.565 308.59C256.565 308.79 256.555 309.03 256.535 309.31C256.535 309.59 256.535 309.95 256.535 310.39V313.75C256.535 314.19 256.535 314.55 256.535 314.83C256.555 315.11 256.565 315.35 256.565 315.55C256.585 315.75 256.595 315.94 256.595 316.12C256.615 316.28 256.635 316.46 256.655 316.66C256.695 317.08 256.735 317.4 256.775 317.62C256.835 317.82 256.945 317.99 257.105 318.13C257.265 318.27 257.485 318.36 257.765 318.4C258.065 318.44 258.365 318.46 258.665 318.46L258.815 318.61L258.875 319L258.815 319.12ZM253.775 300.07C253.775 299.67 253.905 299.33 254.165 299.05C254.445 298.75 254.785 298.6 255.185 298.6C255.585 298.6 255.925 298.75 256.205 299.05C256.505 299.33 256.655 299.67 256.655 300.07C256.655 300.47 256.505 300.81 256.205 301.09C255.925 301.35 255.585 301.48 255.185 301.48C254.785 301.48 254.445 301.35 254.165 301.09C253.905 300.81 253.775 300.47 253.775 300.07ZM267.946 311.05C268.786 311.23 269.456 311.48 269.956 311.8C270.476 312.1 270.876 312.43 271.156 312.79C271.436 313.15 271.616 313.52 271.696 313.9C271.796 314.26 271.846 314.6 271.846 314.92C271.846 315.56 271.716 316.15 271.456 316.69C271.196 317.23 270.816 317.7 270.316 318.1C269.836 318.48 269.246 318.78 268.546 319C267.846 319.22 267.056 319.33 266.176 319.33C265.196 319.33 264.276 319.22 263.416 319C262.576 318.76 261.906 318.51 261.406 318.25L261.346 317.98L261.796 314.89H262.486L262.576 315.01C262.576 315.97 262.876 316.73 263.476 317.29C264.076 317.83 264.946 318.1 266.086 318.1C266.766 318.1 267.336 318.02 267.796 317.86C268.256 317.7 268.616 317.49 268.876 317.23C269.156 316.97 269.356 316.69 269.476 316.39C269.596 316.09 269.656 315.8 269.656 315.52C269.656 315.34 269.646 315.14 269.626 314.92C269.606 314.68 269.526 314.45 269.386 314.23C269.246 313.99 269.036 313.77 268.756 313.57C268.476 313.35 268.076 313.17 267.556 313.03L264.676 312.31C264.016 312.15 263.476 311.94 263.056 311.68C262.636 311.42 262.306 311.14 262.066 310.84C261.826 310.52 261.656 310.19 261.556 309.85C261.456 309.49 261.406 309.13 261.406 308.77C261.406 308.11 261.536 307.53 261.796 307.03C262.056 306.51 262.406 306.09 262.846 305.77C263.306 305.43 263.836 305.18 264.436 305.02C265.036 304.84 265.686 304.75 266.386 304.75C267.326 304.75 268.186 304.87 268.966 305.11C269.766 305.35 270.386 305.59 270.826 305.83L270.916 306.1L270.586 308.41H269.956L269.836 308.32C269.836 307.86 269.706 307.48 269.446 307.18C269.206 306.86 268.906 306.61 268.546 306.43C268.186 306.23 267.806 306.09 267.406 306.01C267.006 305.93 266.656 305.89 266.356 305.89C265.356 305.89 264.636 306.14 264.196 306.64C263.756 307.14 263.536 307.7 263.536 308.32C263.536 308.78 263.686 309.22 263.986 309.64C264.306 310.04 264.916 310.35 265.816 310.57L267.946 311.05ZM282.21 306.61H278.31C278.31 307.91 278.3 309.11 278.28 310.21C278.28 311.31 278.28 312.28 278.28 313.12C278.28 313.94 278.27 314.6 278.25 315.1C278.25 315.6 278.25 315.91 278.25 316.03C278.25 316.81 278.4 317.33 278.7 317.59C279 317.85 279.35 317.98 279.75 317.98C280.09 317.98 280.48 317.92 280.92 317.8C281.38 317.66 281.75 317.51 282.03 317.35L282.3 317.56L282.03 318.4C281.57 318.72 281.05 318.95 280.47 319.09C279.91 319.25 279.41 319.33 278.97 319.33C277.95 319.33 277.23 319.05 276.81 318.49C276.39 317.93 276.18 317.21 276.18 316.33C276.18 316.15 276.19 315.78 276.21 315.22C276.23 314.66 276.25 313.96 276.27 313.12C276.29 312.28 276.31 311.31 276.33 310.21C276.35 309.11 276.36 307.91 276.36 306.61H274.2L274.08 306.46V305.89L274.2 305.77L276.36 305.35C276.36 304.65 276.34 303.94 276.3 303.22C276.28 302.48 276.25 301.76 276.21 301.06L276.42 300.88L276.84 300.85C277 300.83 277.26 300.79 277.62 300.73C277.98 300.67 278.23 300.6 278.37 300.52L278.64 300.64C278.58 300.92 278.53 301.25 278.49 301.63C278.45 301.99 278.41 302.38 278.37 302.8C278.35 303.22 278.33 303.65 278.31 304.09C278.31 304.53 278.31 304.95 278.31 305.35L282.21 305.17L282.36 305.29V306.46L282.21 306.61ZM290.015 313.84L289.835 314.05L288.785 314.53L288.605 314.41C288.585 313.91 288.565 313.37 288.545 312.79C288.525 312.21 288.515 311.78 288.515 311.5C288.515 310.7 288.725 309.96 289.145 309.28C289.565 308.58 290.025 307.89 290.525 307.21C291.025 306.53 291.485 305.83 291.905 305.11C292.325 304.39 292.535 303.59 292.535 302.71C292.535 302.19 292.435 301.74 292.235 301.36C292.055 300.98 291.815 300.67 291.515 300.43C291.235 300.17 290.915 299.98 290.555 299.86C290.215 299.74 289.875 299.68 289.535 299.68C288.995 299.68 288.505 299.77 288.065 299.95C287.645 300.13 287.265 300.38 286.925 300.7C286.605 301 286.345 301.36 286.145 301.78C285.945 302.18 285.815 302.6 285.755 303.04L285.695 303.13H285.155L284.795 300.34L284.855 300.07C285.035 299.79 285.315 299.55 285.695 299.35C286.095 299.13 286.525 298.96 286.985 298.84C287.465 298.7 287.935 298.6 288.395 298.54C288.875 298.46 289.285 298.42 289.625 298.42C290.045 298.42 290.535 298.49 291.095 298.63C291.675 298.77 292.215 299.02 292.715 299.38C293.235 299.74 293.665 300.23 294.005 300.85C294.365 301.47 294.545 302.26 294.545 303.22C294.545 303.84 294.435 304.44 294.215 305.02C294.015 305.58 293.755 306.13 293.435 306.67C293.115 307.19 292.765 307.69 292.385 308.17C292.025 308.65 291.675 309.12 291.335 309.58C291.015 310.02 290.735 310.44 290.495 310.84C290.275 311.24 290.155 311.62 290.135 311.98L290.015 313.84ZM287.915 317.92C287.915 317.52 288.045 317.19 288.305 316.93C288.585 316.65 288.915 316.51 289.295 316.51C289.675 316.51 290.005 316.65 290.285 316.93C290.585 317.19 290.735 317.52 290.735 317.92C290.735 318.3 290.585 318.63 290.285 318.91C290.005 319.19 289.675 319.33 289.295 319.33C288.915 319.33 288.585 319.19 288.305 318.91C288.045 318.63 287.915 318.3 287.915 317.92Z" fill="#1B1D1C"/>
<g filter="url(#filter0_d_68_1924)">
<rect x="35" y="433" width="357" height="60" rx="10" fill="#039855" shape-rendering="crispEdges"/>
<path d="M133.672 460.24C133.352 459.653 132.912 459.207 132.352 458.9C131.792 458.593 131.139 458.44 130.392 458.44C129.566 458.44 128.832 458.627 128.192 459C127.552 459.373 127.052 459.907 126.692 460.6C126.332 461.293 126.152 462.093 126.152 463C126.152 463.933 126.332 464.747 126.692 465.44C127.066 466.133 127.579 466.667 128.232 467.04C128.886 467.413 129.646 467.6 130.512 467.6C131.579 467.6 132.452 467.32 133.132 466.76C133.812 466.187 134.259 465.393 134.472 464.38H129.672V462.24H137.232V464.68C137.046 465.653 136.646 466.553 136.032 467.38C135.419 468.207 134.626 468.873 133.652 469.38C132.692 469.873 131.612 470.12 130.412 470.12C129.066 470.12 127.846 469.82 126.752 469.22C125.672 468.607 124.819 467.76 124.192 466.68C123.579 465.6 123.272 464.373 123.272 463C123.272 461.627 123.579 460.4 124.192 459.32C124.819 458.227 125.672 457.38 126.752 456.78C127.846 456.167 129.059 455.86 130.392 455.86C131.966 455.86 133.332 456.247 134.492 457.02C135.652 457.78 136.452 458.853 136.892 460.24H133.672ZM149.604 464.22C149.604 464.62 149.577 464.98 149.524 465.3H141.424C141.49 466.1 141.77 466.727 142.264 467.18C142.757 467.633 143.364 467.86 144.084 467.86C145.124 467.86 145.864 467.413 146.304 466.52H149.324C149.004 467.587 148.39 468.467 147.484 469.16C146.577 469.84 145.464 470.18 144.144 470.18C143.077 470.18 142.117 469.947 141.264 469.48C140.424 469 139.764 468.327 139.284 467.46C138.817 466.593 138.584 465.593 138.584 464.46C138.584 463.313 138.817 462.307 139.284 461.44C139.75 460.573 140.404 459.907 141.244 459.44C142.084 458.973 143.05 458.74 144.144 458.74C145.197 458.74 146.137 458.967 146.964 459.42C147.804 459.873 148.45 460.52 148.904 461.36C149.37 462.187 149.604 463.14 149.604 464.22ZM146.704 463.42C146.69 462.7 146.43 462.127 145.924 461.7C145.417 461.26 144.797 461.04 144.064 461.04C143.37 461.04 142.784 461.253 142.304 461.68C141.837 462.093 141.55 462.673 141.444 463.42H146.704ZM157.788 458.76C159.108 458.76 160.174 459.18 160.988 460.02C161.801 460.847 162.208 462.007 162.208 463.5V470H159.408V463.88C159.408 463 159.188 462.327 158.748 461.86C158.308 461.38 157.708 461.14 156.948 461.14C156.174 461.14 155.561 461.38 155.108 461.86C154.668 462.327 154.448 463 154.448 463.88V470H151.648V458.92H154.448V460.3C154.821 459.82 155.294 459.447 155.868 459.18C156.454 458.9 157.094 458.76 157.788 458.76ZM175.17 464.22C175.17 464.62 175.144 464.98 175.09 465.3H166.99C167.057 466.1 167.337 466.727 167.83 467.18C168.324 467.633 168.93 467.86 169.65 467.86C170.69 467.86 171.43 467.413 171.87 466.52H174.89C174.57 467.587 173.957 468.467 173.05 469.16C172.144 469.84 171.03 470.18 169.71 470.18C168.644 470.18 167.684 469.947 166.83 469.48C165.99 469 165.33 468.327 164.85 467.46C164.384 466.593 164.15 465.593 164.15 464.46C164.15 463.313 164.384 462.307 164.85 461.44C165.317 460.573 165.97 459.907 166.81 459.44C167.65 458.973 168.617 458.74 169.71 458.74C170.764 458.74 171.704 458.967 172.53 459.42C173.37 459.873 174.017 460.52 174.47 461.36C174.937 462.187 175.17 463.14 175.17 464.22ZM172.27 463.42C172.257 462.7 171.997 462.127 171.49 461.7C170.984 461.26 170.364 461.04 169.63 461.04C168.937 461.04 168.35 461.253 167.87 461.68C167.404 462.093 167.117 462.673 167.01 463.42H172.27ZM180.014 460.64C180.374 460.053 180.841 459.593 181.414 459.26C182.001 458.927 182.667 458.76 183.414 458.76V461.7H182.674C181.794 461.7 181.127 461.907 180.674 462.32C180.234 462.733 180.014 463.453 180.014 464.48V470H177.214V458.92H180.014V460.64ZM184.58 464.42C184.58 463.3 184.8 462.307 185.24 461.44C185.693 460.573 186.3 459.907 187.06 459.44C187.833 458.973 188.693 458.74 189.64 458.74C190.467 458.74 191.187 458.907 191.8 459.24C192.427 459.573 192.927 459.993 193.3 460.5V458.92H196.12V470H193.3V468.38C192.94 468.9 192.44 469.333 191.8 469.68C191.173 470.013 190.447 470.18 189.62 470.18C188.687 470.18 187.833 469.94 187.06 469.46C186.3 468.98 185.693 468.307 185.24 467.44C184.8 466.56 184.58 465.553 184.58 464.42ZM193.3 464.46C193.3 463.78 193.167 463.2 192.9 462.72C192.633 462.227 192.273 461.853 191.82 461.6C191.367 461.333 190.88 461.2 190.36 461.2C189.84 461.2 189.36 461.327 188.92 461.58C188.48 461.833 188.12 462.207 187.84 462.7C187.573 463.18 187.44 463.753 187.44 464.42C187.44 465.087 187.573 465.673 187.84 466.18C188.12 466.673 188.48 467.053 188.92 467.32C189.373 467.587 189.853 467.72 190.36 467.72C190.88 467.72 191.367 467.593 191.82 467.34C192.273 467.073 192.633 466.7 192.9 466.22C193.167 465.727 193.3 465.14 193.3 464.46ZM202.115 461.22V466.58C202.115 466.953 202.201 467.227 202.375 467.4C202.561 467.56 202.868 467.64 203.295 467.64H204.595V470H202.835C200.475 470 199.295 468.853 199.295 466.56V461.22H197.975V458.92H199.295V456.18H202.115V458.92H204.595V461.22H202.115ZM216.909 464.22C216.909 464.62 216.882 464.98 216.829 465.3H208.729C208.795 466.1 209.075 466.727 209.569 467.18C210.062 467.633 210.669 467.86 211.389 467.86C212.429 467.86 213.169 467.413 213.609 466.52H216.629C216.309 467.587 215.695 468.467 214.789 469.16C213.882 469.84 212.769 470.18 211.449 470.18C210.382 470.18 209.422 469.947 208.569 469.48C207.729 469 207.069 468.327 206.589 467.46C206.122 466.593 205.889 465.593 205.889 464.46C205.889 463.313 206.122 462.307 206.589 461.44C207.055 460.573 207.709 459.907 208.549 459.44C209.389 458.973 210.355 458.74 211.449 458.74C212.502 458.74 213.442 458.967 214.269 459.42C215.109 459.873 215.755 460.52 216.209 461.36C216.675 462.187 216.909 463.14 216.909 464.22ZM214.009 463.42C213.995 462.7 213.735 462.127 213.229 461.7C212.722 461.26 212.102 461.04 211.369 461.04C210.675 461.04 210.089 461.253 209.609 461.68C209.142 462.093 208.855 462.673 208.749 463.42H214.009ZM235.658 470H232.858L226.518 460.42V470H223.718V456.02H226.518L232.858 465.62V456.02H235.658V470ZM248.725 464.22C248.725 464.62 248.698 464.98 248.645 465.3H240.545C240.612 466.1 240.892 466.727 241.385 467.18C241.878 467.633 242.485 467.86 243.205 467.86C244.245 467.86 244.985 467.413 245.425 466.52H248.445C248.125 467.587 247.512 468.467 246.605 469.16C245.698 469.84 244.585 470.18 243.265 470.18C242.198 470.18 241.238 469.947 240.385 469.48C239.545 469 238.885 468.327 238.405 467.46C237.938 466.593 237.705 465.593 237.705 464.46C237.705 463.313 237.938 462.307 238.405 461.44C238.872 460.573 239.525 459.907 240.365 459.44C241.205 458.973 242.172 458.74 243.265 458.74C244.318 458.74 245.258 458.967 246.085 459.42C246.925 459.873 247.572 460.52 248.025 461.36C248.492 462.187 248.725 463.14 248.725 464.22ZM245.825 463.42C245.812 462.7 245.552 462.127 245.045 461.7C244.538 461.26 243.918 461.04 243.185 461.04C242.492 461.04 241.905 461.253 241.425 461.68C240.958 462.093 240.672 462.673 240.565 463.42H245.825ZM266.129 458.92L262.889 470H259.869L257.849 462.26L255.829 470H252.789L249.529 458.92H252.369L254.329 467.36L256.449 458.92H259.409L261.489 467.34L263.449 458.92H266.129ZM275.209 467.78H279.809V470H272.409V456.04H275.209V467.78ZM283.009 457.6C282.516 457.6 282.102 457.447 281.769 457.14C281.449 456.82 281.289 456.427 281.289 455.96C281.289 455.493 281.449 455.107 281.769 454.8C282.102 454.48 282.516 454.32 283.009 454.32C283.502 454.32 283.909 454.48 284.229 454.8C284.562 455.107 284.729 455.493 284.729 455.96C284.729 456.427 284.562 456.82 284.229 457.14C283.909 457.447 283.502 457.6 283.009 457.6ZM284.389 458.92V470H281.589V458.92H284.389ZM291.395 470.18C290.489 470.18 289.675 470.02 288.955 469.7C288.235 469.367 287.662 468.92 287.235 468.36C286.822 467.8 286.595 467.18 286.555 466.5H289.375C289.429 466.927 289.635 467.28 289.995 467.56C290.369 467.84 290.829 467.98 291.375 467.98C291.909 467.98 292.322 467.873 292.615 467.66C292.922 467.447 293.075 467.173 293.075 466.84C293.075 466.48 292.889 466.213 292.515 466.04C292.155 465.853 291.575 465.653 290.775 465.44C289.949 465.24 289.269 465.033 288.735 464.82C288.215 464.607 287.762 464.28 287.375 463.84C287.002 463.4 286.815 462.807 286.815 462.06C286.815 461.447 286.989 460.887 287.335 460.38C287.695 459.873 288.202 459.473 288.855 459.18C289.522 458.887 290.302 458.74 291.195 458.74C292.515 458.74 293.569 459.073 294.355 459.74C295.142 460.393 295.575 461.28 295.655 462.4H292.975C292.935 461.96 292.749 461.613 292.415 461.36C292.095 461.093 291.662 460.96 291.115 460.96C290.609 460.96 290.215 461.053 289.935 461.24C289.669 461.427 289.535 461.687 289.535 462.02C289.535 462.393 289.722 462.68 290.095 462.88C290.469 463.067 291.049 463.26 291.835 463.46C292.635 463.66 293.295 463.867 293.815 464.08C294.335 464.293 294.782 464.627 295.155 465.08C295.542 465.52 295.742 466.107 295.755 466.84C295.755 467.48 295.575 468.053 295.215 468.56C294.869 469.067 294.362 469.467 293.695 469.76C293.042 470.04 292.275 470.18 291.395 470.18ZM301.314 461.22V466.58C301.314 466.953 301.4 467.227 301.574 467.4C301.76 467.56 302.067 467.64 302.494 467.64H303.794V470H302.034C299.674 470 298.494 468.853 298.494 466.56V461.22H297.174V458.92H298.494V456.18H301.314V458.92H303.794V461.22H301.314Z" fill="white"/>
</g>
<defs>
<filter id="filter0_d_68_1924" x="15" y="423" width="397" height="100" filterUnits="userSpaceOnUse" color-interpolation-filters="sRGB">
<feFlood flood-opacity="0" result="BackgroundImageFix"/>
<feColorMatrix in="SourceAlpha" type="matrix" values="0 0 0 0 0 0 0 0 0 0 0 0 0 0 0 0 0 0 127 0" result="hardAlpha"/>
<feOffset dy="10"/>
<feGaussianBlur stdDeviation="10"/>
<feComposite in2="hardAlpha" operator="out"/>
<feColorMatrix type="matrix" values="0 0 0 0 0.795833 0 0 0 0 0.84075 0 0 0 0 1 0 0 0 1 0"/>
<feBlend mode="normal" in2="BackgroundImageFix" result="effect1_dropShadow_68_1924"/>
<feBlend mode="normal" in="SourceGraphic" in2="effect1_dropShadow_68_1924" result="shape"/>
</filter>
</defs>
</svg>
