<svg width="428" height="926" viewBox="0 0 428 926" fill="none" xmlns="http://www.w3.org/2000/svg">
<rect width="428" height="926" rx="50" fill="white"/>
<path d="M109.774 229.18C109.634 229.18 109.404 229.17 109.084 229.15C108.764 229.13 108.434 229.11 108.094 229.09C107.754 229.07 107.424 229.05 107.104 229.03C106.784 229.01 106.554 229 106.414 229H105.844C105.704 229 105.474 229.01 105.154 229.03C104.834 229.05 104.504 229.07 104.164 229.09C103.824 229.11 103.494 229.13 103.174 229.15C102.854 229.17 102.624 229.18 102.484 229.18L102.424 229.06L102.514 228.52L102.664 228.4C102.904 228.4 103.184 228.39 103.504 228.37C103.824 228.33 104.074 228.25 104.254 228.13C104.414 228.01 104.564 227.82 104.704 227.56C104.844 227.3 104.944 226.91 105.004 226.39C105.004 226.25 105.004 226.09 105.004 225.91C105.024 225.71 105.034 225.47 105.034 225.19C105.054 224.91 105.064 224.57 105.064 224.17C105.064 223.77 105.064 223.27 105.064 222.67V214.87C105.064 214.47 105.054 214.02 105.034 213.52C105.034 213 105.014 212.49 104.974 211.99C104.934 211.53 104.844 211.17 104.704 210.91C104.564 210.63 104.414 210.42 104.254 210.28C104.074 210.18 103.884 210.11 103.684 210.07C103.504 210.01 103.164 209.98 102.664 209.98L102.514 209.86L102.424 209.32L102.484 209.2C102.624 209.2 102.804 209.21 103.024 209.23C103.264 209.25 103.504 209.27 103.744 209.29C104.004 209.31 104.264 209.33 104.524 209.35C104.784 209.37 105.024 209.38 105.244 209.38H106.324C106.544 209.38 106.794 209.38 107.074 209.38C107.354 209.38 107.634 209.38 107.914 209.38C108.214 209.36 108.484 209.35 108.724 209.35C108.964 209.35 109.164 209.35 109.324 209.35C110.664 209.35 111.794 209.48 112.714 209.74C113.654 210 114.414 210.36 114.994 210.82C115.574 211.26 115.994 211.8 116.254 212.44C116.534 213.06 116.674 213.73 116.674 214.45C116.674 215.31 116.514 216.06 116.194 216.7C115.894 217.32 115.504 217.86 115.024 218.32C114.544 218.76 114.004 219.12 113.404 219.4C112.804 219.66 112.214 219.86 111.634 220C112.274 220.9 112.934 221.79 113.614 222.67C114.294 223.55 114.994 224.41 115.714 225.25C116.114 225.71 116.484 226.12 116.824 226.48C117.164 226.84 117.524 227.15 117.904 227.41C118.304 227.67 118.744 227.88 119.224 228.04C119.704 228.2 120.284 228.32 120.964 228.4L121.144 228.52L121.204 229.06L121.144 229.18C120.704 229.2 120.204 229.22 119.644 229.24C119.084 229.28 118.644 229.3 118.324 229.3C117.804 229.3 117.354 229.24 116.974 229.12C116.594 229 116.224 228.81 115.864 228.55C115.504 228.29 115.134 227.95 114.754 227.53C114.394 227.11 113.974 226.61 113.494 226.03C113.434 225.97 113.254 225.74 112.954 225.34C112.674 224.92 112.324 224.43 111.904 223.87C111.504 223.29 111.074 222.68 110.614 222.04C110.174 221.38 109.764 220.77 109.384 220.21H107.194C107.194 220.75 107.194 221.34 107.194 221.98C107.194 222.62 107.194 223.23 107.194 223.81C107.214 224.39 107.224 224.92 107.224 225.4C107.244 225.86 107.264 226.19 107.284 226.39C107.324 226.97 107.424 227.38 107.584 227.62C107.744 227.84 107.884 228 108.004 228.1C108.184 228.2 108.364 228.28 108.544 228.34C108.744 228.38 109.104 228.4 109.624 228.4L109.744 228.52L109.834 229.06L109.774 229.18ZM109.924 218.89C111.584 218.89 112.774 218.51 113.494 217.75C114.234 216.97 114.604 215.93 114.604 214.63C114.604 213.41 114.184 212.47 113.344 211.81C112.524 211.15 111.394 210.82 109.954 210.82H107.344C107.304 211.4 107.274 211.89 107.254 212.29C107.254 212.69 107.244 213.04 107.224 213.34C107.204 213.64 107.194 213.91 107.194 214.15C107.194 214.39 107.194 214.62 107.194 214.84V217.78C107.194 218.04 107.204 218.25 107.224 218.41C107.244 218.55 107.294 218.66 107.374 218.74C107.454 218.8 107.564 218.84 107.704 218.86C107.864 218.88 108.074 218.89 108.334 218.89H109.924ZM134.731 220.93L134.251 221.14C133.171 221.14 132.061 221.15 130.921 221.17C129.781 221.19 128.661 221.2 127.561 221.2H124.021C124.001 221.34 123.991 221.48 123.991 221.62C123.991 221.74 123.991 221.86 123.991 221.98C123.991 222.74 124.101 223.47 124.321 224.17C124.541 224.85 124.881 225.45 125.341 225.97C125.821 226.49 126.431 226.91 127.171 227.23C127.911 227.53 128.811 227.68 129.871 227.68C130.491 227.68 131.151 227.62 131.851 227.5C132.571 227.36 133.231 227.12 133.831 226.78L134.131 226.96V227.5L133.831 227.83C133.351 228.21 132.671 228.56 131.791 228.88C130.911 229.18 129.931 229.33 128.851 229.33C127.791 229.33 126.821 229.16 125.941 228.82C125.081 228.46 124.331 227.96 123.691 227.32C123.071 226.68 122.581 225.92 122.221 225.04C121.881 224.16 121.711 223.18 121.711 222.1C121.711 221 121.891 220 122.251 219.1C122.611 218.2 123.101 217.43 123.721 216.79C124.361 216.15 125.101 215.65 125.941 215.29C126.801 214.93 127.721 214.75 128.701 214.75C129.221 214.75 129.801 214.82 130.441 214.96C131.101 215.1 131.731 215.37 132.331 215.77C132.931 216.15 133.471 216.7 133.951 217.42C134.431 218.12 134.761 219.05 134.941 220.21L134.731 220.93ZM128.731 216.1C128.091 216.1 127.511 216.21 126.991 216.43C126.491 216.63 126.041 216.91 125.641 217.27C125.261 217.61 124.941 218.02 124.681 218.5C124.441 218.96 124.271 219.45 124.171 219.97H125.341C126.421 219.97 127.471 219.96 128.491 219.94C129.511 219.9 130.581 219.85 131.701 219.79C131.961 219.77 132.131 219.7 132.211 219.58C132.311 219.46 132.361 219.32 132.361 219.16C132.361 219.04 132.351 218.93 132.331 218.83C132.311 218.73 132.281 218.63 132.241 218.53C132.021 217.77 131.611 217.18 131.011 216.76C130.411 216.32 129.651 216.1 128.731 216.1ZM143.058 229.15L142.758 229L140.958 224.2C140.898 224.02 140.768 223.69 140.568 223.21C140.388 222.73 140.178 222.2 139.938 221.62C139.698 221.04 139.448 220.44 139.188 219.82C138.948 219.18 138.728 218.62 138.528 218.14C138.328 217.66 138.148 217.28 137.988 217C137.788 216.68 137.558 216.43 137.298 216.25C137.058 216.07 136.728 215.96 136.308 215.92L136.128 215.77V215.35L136.248 215.23C136.588 215.27 136.948 215.31 137.328 215.35C137.708 215.39 138.058 215.41 138.378 215.41H139.548C139.868 215.41 140.248 215.39 140.688 215.35C141.148 215.31 141.578 215.27 141.978 215.23L142.098 215.35V215.71L141.978 215.83C141.538 215.87 141.168 215.99 140.868 216.19C140.588 216.37 140.448 216.64 140.448 217C140.448 217.24 140.538 217.67 140.718 218.29C140.918 218.89 141.138 219.54 141.378 220.24C141.618 220.92 141.848 221.56 142.068 222.16C142.288 222.74 142.438 223.13 142.518 223.33L143.988 227.23L145.428 223.78C145.568 223.44 145.758 222.98 145.998 222.4C146.238 221.82 146.478 221.2 146.718 220.54C146.958 219.88 147.158 219.24 147.318 218.62C147.498 217.98 147.588 217.44 147.588 217C147.588 216.56 147.428 216.27 147.108 216.13C146.788 215.97 146.428 215.87 146.028 215.83L145.908 215.71V215.35L146.028 215.23C146.808 215.35 147.538 215.41 148.218 215.41H149.448C149.788 215.41 150.118 215.39 150.438 215.35C150.778 215.31 151.138 215.27 151.518 215.23L151.638 215.35V215.77L151.458 215.92C151.118 215.96 150.818 216.06 150.558 216.22C150.318 216.38 150.088 216.64 149.868 217C149.688 217.32 149.478 217.72 149.238 218.2C149.018 218.68 148.788 219.2 148.548 219.76C148.328 220.32 148.098 220.89 147.858 221.47C147.638 222.05 147.428 222.59 147.228 223.09C147.048 223.59 146.888 224.03 146.748 224.41C146.628 224.77 146.538 225.02 146.478 225.16L144.948 229L143.058 229.15ZM159.457 229.12C159.317 229.12 159.107 229.11 158.827 229.09C158.547 229.07 158.247 229.05 157.927 229.03C157.607 229.03 157.307 229.02 157.027 229C156.747 229 156.537 229 156.397 229H155.977C155.837 229 155.617 229 155.317 229C155.037 229.02 154.737 229.03 154.417 229.03C154.117 229.05 153.817 229.07 153.517 229.09C153.237 229.11 153.027 229.12 152.887 229.12L152.857 229L152.887 228.58L153.007 228.46C153.327 228.46 153.637 228.45 153.937 228.43C154.257 228.39 154.497 228.29 154.657 228.13C154.817 227.99 154.917 227.81 154.957 227.59C155.017 227.37 155.067 227.06 155.107 226.66C155.127 226.34 155.147 226.02 155.167 225.7C155.187 225.36 155.197 224.83 155.197 224.11V220.42C155.197 220 155.197 219.65 155.197 219.37C155.197 219.07 155.187 218.81 155.167 218.59C155.167 218.37 155.157 218.17 155.137 217.99C155.137 217.81 155.127 217.62 155.107 217.42C155.067 217.2 155.007 217.01 154.927 216.85C154.847 216.67 154.777 216.55 154.717 216.49C154.517 216.25 154.267 216.11 153.967 216.07C153.667 216.01 153.357 215.98 153.037 215.98L152.917 215.86V215.44L153.037 215.35H153.577C153.917 215.35 154.347 215.35 154.867 215.35C155.387 215.33 155.837 215.29 156.217 215.23L157.267 215.08L157.447 215.35C157.407 215.43 157.367 215.57 157.327 215.77C157.307 215.97 157.287 216.19 157.267 216.43C157.267 216.65 157.257 216.87 157.237 217.09C157.237 217.31 157.237 217.48 157.237 217.6C157.237 217.76 157.227 217.92 157.207 218.08C157.207 218.22 157.207 218.39 157.207 218.59C157.207 218.79 157.197 219.03 157.177 219.31C157.177 219.59 157.177 219.95 157.177 220.39V223.75C157.177 224.19 157.177 224.55 157.177 224.83C157.197 225.11 157.207 225.35 157.207 225.55C157.227 225.75 157.237 225.94 157.237 226.12C157.257 226.28 157.277 226.46 157.297 226.66C157.337 227.08 157.377 227.4 157.417 227.62C157.477 227.82 157.587 227.99 157.747 228.13C157.907 228.27 158.127 228.36 158.407 228.4C158.707 228.44 159.007 228.46 159.307 228.46L159.457 228.61L159.517 229L159.457 229.12ZM154.417 210.07C154.417 209.67 154.547 209.33 154.807 209.05C155.087 208.75 155.427 208.6 155.827 208.6C156.227 208.6 156.567 208.75 156.847 209.05C157.147 209.33 157.297 209.67 157.297 210.07C157.297 210.47 157.147 210.81 156.847 211.09C156.567 211.35 156.227 211.48 155.827 211.48C155.427 211.48 155.087 211.35 154.807 211.09C154.547 210.81 154.417 210.47 154.417 210.07ZM174.888 220.93L174.408 221.14C173.328 221.14 172.218 221.15 171.078 221.17C169.938 221.19 168.818 221.2 167.718 221.2H164.178C164.158 221.34 164.148 221.48 164.148 221.62C164.148 221.74 164.148 221.86 164.148 221.98C164.148 222.74 164.258 223.47 164.478 224.17C164.698 224.85 165.038 225.45 165.498 225.97C165.978 226.49 166.588 226.91 167.328 227.23C168.068 227.53 168.968 227.68 170.028 227.68C170.648 227.68 171.308 227.62 172.008 227.5C172.728 227.36 173.388 227.12 173.988 226.78L174.288 226.96V227.5L173.988 227.83C173.508 228.21 172.828 228.56 171.948 228.88C171.068 229.18 170.088 229.33 169.008 229.33C167.948 229.33 166.978 229.16 166.098 228.82C165.238 228.46 164.488 227.96 163.848 227.32C163.228 226.68 162.738 225.92 162.378 225.04C162.038 224.16 161.868 223.18 161.868 222.1C161.868 221 162.048 220 162.408 219.1C162.768 218.2 163.258 217.43 163.878 216.79C164.518 216.15 165.258 215.65 166.098 215.29C166.958 214.93 167.878 214.75 168.858 214.75C169.378 214.75 169.958 214.82 170.598 214.96C171.258 215.1 171.888 215.37 172.488 215.77C173.088 216.15 173.628 216.7 174.108 217.42C174.588 218.12 174.918 219.05 175.098 220.21L174.888 220.93ZM168.888 216.1C168.248 216.1 167.668 216.21 167.148 216.43C166.648 216.63 166.198 216.91 165.798 217.27C165.418 217.61 165.098 218.02 164.838 218.5C164.598 218.96 164.428 219.45 164.328 219.97H165.498C166.578 219.97 167.628 219.96 168.648 219.94C169.668 219.9 170.738 219.85 171.858 219.79C172.118 219.77 172.288 219.7 172.368 219.58C172.468 219.46 172.518 219.32 172.518 219.16C172.518 219.04 172.508 218.93 172.488 218.83C172.468 218.73 172.438 218.63 172.398 218.53C172.178 217.77 171.768 217.18 171.168 216.76C170.568 216.32 169.808 216.1 168.888 216.1ZM192.126 229L188.586 219.88C188.366 220.44 188.146 221 187.926 221.56C187.726 222.12 187.536 222.65 187.356 223.15C187.176 223.63 187.016 224.05 186.876 224.41C186.736 224.77 186.636 225.02 186.576 225.16L185.046 229L183.216 229.15L182.916 229L181.116 224.2C181.056 224.04 180.926 223.73 180.726 223.27C180.546 222.79 180.336 222.25 180.096 221.65C179.856 221.05 179.606 220.44 179.346 219.82C179.106 219.18 178.886 218.62 178.686 218.14C178.486 217.66 178.306 217.28 178.146 217C177.946 216.68 177.716 216.43 177.456 216.25C177.216 216.07 176.886 215.96 176.466 215.92L176.286 215.77V215.35L176.406 215.23C176.746 215.27 177.106 215.31 177.486 215.35C177.866 215.39 178.216 215.41 178.536 215.41H179.706C180.026 215.41 180.406 215.39 180.846 215.35C181.306 215.31 181.736 215.27 182.136 215.23L182.256 215.35V215.71L182.136 215.83C181.696 215.87 181.326 215.99 181.026 216.19C180.746 216.37 180.606 216.64 180.606 217C180.606 217.16 180.646 217.41 180.726 217.75C180.826 218.09 180.946 218.47 181.086 218.89C181.226 219.31 181.376 219.76 181.536 220.24C181.696 220.7 181.856 221.14 182.016 221.56C182.176 221.98 182.316 222.35 182.436 222.67C182.556 222.99 182.636 223.21 182.676 223.33L184.146 227.23L185.586 223.78C185.706 223.48 185.866 223.09 186.066 222.61C186.286 222.13 186.496 221.61 186.696 221.05C186.916 220.49 187.116 219.92 187.296 219.34C187.496 218.76 187.636 218.23 187.716 217.75C187.616 217.37 187.456 217 187.236 216.64C187.036 216.26 186.626 216.02 186.006 215.92L185.826 215.77V215.35L185.946 215.23C186.286 215.27 186.596 215.31 186.876 215.35C187.176 215.39 187.486 215.41 187.806 215.41H188.976C189.636 215.41 190.346 215.35 191.106 215.23L191.226 215.35V215.71L191.106 215.83C190.226 215.93 189.786 216.32 189.786 217C189.786 217.16 189.826 217.41 189.906 217.75C190.006 218.09 190.126 218.47 190.266 218.89C190.406 219.31 190.556 219.76 190.716 220.24C190.876 220.7 191.036 221.14 191.196 221.56C191.356 221.98 191.496 222.35 191.616 222.67C191.736 222.99 191.816 223.21 191.856 223.33L193.326 227.23L194.766 223.78C194.906 223.44 195.096 222.98 195.336 222.4C195.576 221.82 195.816 221.2 196.056 220.54C196.296 219.88 196.496 219.24 196.656 218.62C196.836 217.98 196.926 217.44 196.926 217C196.926 216.56 196.766 216.27 196.446 216.13C196.126 215.97 195.766 215.87 195.366 215.83L195.246 215.71V215.35L195.366 215.23C196.166 215.35 196.896 215.41 197.556 215.41H198.786C199.126 215.41 199.446 215.39 199.746 215.35C200.066 215.31 200.426 215.27 200.826 215.23L200.916 215.35V215.77L200.766 215.92C200.406 215.96 200.096 216.06 199.836 216.22C199.596 216.38 199.366 216.64 199.146 217C198.946 217.32 198.736 217.72 198.516 218.2C198.296 218.68 198.066 219.2 197.826 219.76C197.606 220.32 197.386 220.89 197.166 221.47C196.946 222.05 196.736 222.59 196.536 223.09C196.356 223.59 196.196 224.03 196.056 224.41C195.916 224.77 195.816 225.02 195.756 225.16L194.226 229L192.396 229.15L192.126 229ZM208.234 235.87C208.514 235.87 208.774 235.86 209.014 235.84C209.274 235.82 209.524 235.77 209.764 235.69C210.004 235.63 210.234 235.52 210.454 235.36C210.694 235.2 210.954 234.98 211.234 234.7C211.614 234.3 211.944 233.87 212.224 233.41C212.504 232.97 212.734 232.52 212.914 232.06L213.874 229.63L211.804 224.2C211.724 224.02 211.584 223.69 211.384 223.21C211.204 222.73 210.994 222.2 210.754 221.62C210.514 221.02 210.264 220.41 210.004 219.79C209.764 219.17 209.554 218.62 209.374 218.14C209.174 217.66 208.994 217.28 208.834 217C208.634 216.68 208.404 216.43 208.144 216.25C207.904 216.07 207.574 215.96 207.154 215.92L206.974 215.77V215.35L207.094 215.23C207.434 215.27 207.794 215.31 208.174 215.35C208.554 215.39 208.904 215.41 209.224 215.41H210.394C210.714 215.41 211.094 215.39 211.534 215.35C211.994 215.31 212.424 215.27 212.824 215.23L212.944 215.35V215.71L212.824 215.83C212.384 215.87 212.014 215.99 211.714 216.19C211.434 216.37 211.294 216.64 211.294 217C211.294 217.24 211.384 217.67 211.564 218.29C211.764 218.89 211.984 219.54 212.224 220.24C212.464 220.92 212.694 221.56 212.914 222.16C213.134 222.76 213.284 223.15 213.364 223.33L214.864 227.23L216.274 223.78C216.414 223.44 216.604 222.98 216.844 222.4C217.084 221.82 217.324 221.2 217.564 220.54C217.804 219.88 218.004 219.24 218.164 218.62C218.344 217.98 218.434 217.44 218.434 217C218.434 216.56 218.274 216.27 217.954 216.13C217.634 215.97 217.274 215.87 216.874 215.83L216.754 215.71V215.35L216.874 215.23C217.654 215.35 218.384 215.41 219.064 215.41H220.294C220.634 215.41 220.954 215.39 221.254 215.35C221.574 215.31 221.924 215.27 222.304 215.23L222.424 215.35V215.77L222.274 215.92C221.914 215.96 221.634 216.06 221.434 216.22C221.254 216.38 221.054 216.64 220.834 217C220.654 217.32 220.444 217.72 220.204 218.2C219.984 218.68 219.754 219.2 219.514 219.76C219.294 220.32 219.064 220.89 218.824 221.47C218.604 222.05 218.394 222.59 218.194 223.09C218.014 223.59 217.854 224.03 217.714 224.41C217.594 224.77 217.504 225.02 217.444 225.16L214.504 232.48C213.984 233.78 213.274 234.74 212.374 235.36C211.494 236 210.534 236.45 209.494 236.71C209.294 236.75 209.114 236.77 208.954 236.77C208.794 236.79 208.614 236.8 208.414 236.8L208.174 236.74L208.114 236.02L208.234 235.87ZM231.268 214.75C232.448 214.75 233.498 214.96 234.418 215.38C235.338 215.78 236.108 216.33 236.728 217.03C237.368 217.71 237.848 218.5 238.168 219.4C238.508 220.3 238.678 221.23 238.678 222.19C238.678 223.11 238.528 224 238.228 224.86C237.928 225.72 237.468 226.48 236.848 227.14C236.228 227.8 235.458 228.33 234.538 228.73C233.618 229.13 232.548 229.33 231.328 229.33C230.068 229.33 228.968 229.12 228.028 228.7C227.088 228.28 226.308 227.73 225.688 227.05C225.088 226.37 224.638 225.6 224.338 224.74C224.038 223.86 223.888 222.96 223.888 222.04C223.888 221.06 224.058 220.13 224.398 219.25C224.738 218.37 225.218 217.6 225.838 216.94C226.478 216.26 227.248 215.73 228.148 215.35C229.068 214.95 230.108 214.75 231.268 214.75ZM231.298 228.16C232.138 228.16 232.878 227.99 233.518 227.65C234.158 227.31 234.688 226.86 235.108 226.3C235.528 225.74 235.838 225.11 236.038 224.41C236.258 223.69 236.368 222.95 236.368 222.19C236.368 221.47 236.248 220.74 236.008 220C235.788 219.26 235.458 218.6 235.018 218.02C234.578 217.42 234.038 216.94 233.398 216.58C232.758 216.2 232.018 216.01 231.178 216.01C230.298 216.01 229.538 216.19 228.898 216.55C228.278 216.89 227.758 217.34 227.338 217.9C226.938 218.46 226.638 219.1 226.438 219.82C226.238 220.54 226.138 221.26 226.138 221.98C226.138 222.72 226.248 223.46 226.468 224.2C226.708 224.92 227.048 225.58 227.488 226.18C227.928 226.76 228.468 227.24 229.108 227.62C229.748 227.98 230.478 228.16 231.298 228.16ZM253.198 226.42C252.678 227.26 252.008 227.96 251.188 228.52C250.388 229.06 249.398 229.33 248.218 229.33C247.638 229.33 247.078 229.26 246.538 229.12C246.018 229 245.528 228.79 245.068 228.49C244.628 228.19 244.248 227.79 243.928 227.29C243.608 226.79 243.378 226.16 243.238 225.4C243.138 224.88 243.088 224.34 243.088 223.78C243.108 223.2 243.108 222.62 243.088 222.04C243.088 221.78 243.078 221.43 243.058 220.99C243.058 220.53 243.058 220.07 243.058 219.61C243.058 219.13 243.058 218.69 243.058 218.29C243.058 217.89 243.058 217.6 243.058 217.42C243.058 217.2 243.008 217.01 242.908 216.85C242.808 216.67 242.728 216.54 242.668 216.46C242.468 216.24 242.218 216.11 241.918 216.07C241.618 216.01 241.308 215.98 240.988 215.98L240.898 215.86V215.44L240.988 215.35H241.528C241.868 215.35 242.298 215.35 242.818 215.35C243.338 215.33 243.788 215.29 244.168 215.23L245.218 215.08L245.398 215.35C245.358 215.43 245.328 215.58 245.308 215.8C245.288 216 245.268 216.22 245.248 216.46C245.228 216.7 245.218 216.93 245.218 217.15C245.218 217.37 245.218 217.54 245.218 217.66C245.218 218 245.208 218.38 245.188 218.8C245.188 219.2 245.178 219.61 245.158 220.03C245.158 220.45 245.148 220.85 245.128 221.23C245.128 221.61 245.128 221.93 245.128 222.19C245.128 222.63 245.138 223.13 245.158 223.69C245.198 224.23 245.268 224.7 245.368 225.1C245.568 226.04 245.978 226.74 246.598 227.2C247.218 227.66 247.938 227.89 248.758 227.89C249.378 227.89 249.948 227.77 250.468 227.53C250.988 227.27 251.438 226.96 251.818 226.6C252.218 226.24 252.538 225.86 252.778 225.46C253.038 225.04 253.208 224.66 253.288 224.32V220.42C253.288 220 253.278 219.65 253.258 219.37C253.258 219.07 253.248 218.81 253.228 218.59C253.228 218.37 253.218 218.17 253.198 217.99C253.198 217.81 253.188 217.62 253.168 217.42C253.128 217.2 253.068 217.01 252.988 216.85C252.928 216.67 252.868 216.55 252.808 216.49C252.608 216.25 252.358 216.11 252.058 216.07C251.758 216.01 251.448 215.98 251.128 215.98L251.008 215.86V215.44L251.128 215.35H251.668C252.008 215.35 252.438 215.35 252.958 215.35C253.478 215.33 253.918 215.29 254.278 215.23L255.328 215.08L255.508 215.35C255.468 215.43 255.438 215.58 255.418 215.8C255.398 216 255.378 216.22 255.358 216.46C255.338 216.7 255.328 216.93 255.328 217.15C255.328 217.37 255.328 217.54 255.328 217.66C255.328 217.82 255.318 217.97 255.298 218.11C255.298 218.25 255.298 218.42 255.298 218.62C255.298 218.82 255.288 219.06 255.268 219.34C255.268 219.6 255.268 219.95 255.268 220.39V223.75C255.268 224.19 255.268 224.55 255.268 224.83C255.288 225.11 255.298 225.35 255.298 225.55C255.318 225.75 255.328 225.94 255.328 226.12C255.348 226.28 255.358 226.46 255.358 226.66C255.398 227.12 255.448 227.46 255.508 227.68C255.568 227.88 255.668 228.03 255.808 228.13C255.968 228.29 256.198 228.39 256.498 228.43C256.818 228.45 257.138 228.46 257.458 228.46L257.578 228.58L257.638 229L257.578 229.12C257.218 229.08 256.828 229.05 256.408 229.03C255.988 229.01 255.578 229 255.178 229C254.418 229 253.728 229.03 253.108 229.09L252.928 228.79C252.988 228.53 253.048 228.19 253.108 227.77C253.188 227.35 253.248 226.92 253.288 226.48L253.198 226.42ZM263.897 218.38C264.097 218 264.317 217.6 264.557 217.18C264.817 216.76 265.107 216.37 265.427 216.01C265.747 215.65 266.107 215.35 266.507 215.11C266.927 214.87 267.397 214.75 267.917 214.75C268.277 214.75 268.677 214.81 269.117 214.93C269.577 215.03 269.887 215.17 270.047 215.35L270.287 215.62L269.927 217.93H268.937C268.877 217.65 268.717 217.4 268.457 217.18C268.217 216.94 267.837 216.82 267.317 216.82C266.817 216.82 266.357 216.97 265.937 217.27C265.517 217.55 265.147 217.91 264.827 218.35C264.527 218.79 264.287 219.26 264.107 219.76C263.947 220.24 263.867 220.68 263.867 221.08V223.75C263.867 224.19 263.867 224.55 263.867 224.83C263.887 225.09 263.897 225.32 263.897 225.52C263.917 225.7 263.927 225.86 263.927 226C263.947 226.12 263.957 226.25 263.957 226.39L263.987 226.66C264.027 226.96 264.067 227.25 264.107 227.53C264.167 227.79 264.277 227.99 264.437 228.13C264.537 228.21 264.677 228.27 264.857 228.31C265.057 228.35 265.257 228.38 265.457 228.4C265.677 228.42 265.887 228.44 266.087 228.46C266.287 228.46 266.447 228.46 266.567 228.46L266.717 228.61L266.777 229L266.717 229.12C266.577 229.12 266.347 229.11 266.027 229.09C265.727 229.07 265.407 229.05 265.067 229.03C264.727 229.03 264.397 229.02 264.077 229C263.777 229 263.557 229 263.417 229H262.697C262.557 229 262.337 229 262.037 229C261.757 229.02 261.457 229.03 261.137 229.03C260.817 229.05 260.507 229.07 260.207 229.09C259.927 229.11 259.717 229.12 259.577 229.12L259.547 229L259.577 228.58L259.697 228.46C260.017 228.46 260.327 228.45 260.627 228.43C260.947 228.39 261.187 228.29 261.347 228.13C261.507 227.99 261.607 227.81 261.647 227.59C261.707 227.37 261.757 227.06 261.797 226.66L261.827 226.39C261.847 226.19 261.857 225.94 261.857 225.64C261.877 225.34 261.887 224.83 261.887 224.11V220.42C261.887 220 261.887 219.65 261.887 219.37C261.887 219.07 261.877 218.81 261.857 218.59C261.857 218.37 261.847 218.17 261.827 217.99C261.827 217.81 261.817 217.62 261.797 217.42C261.757 217.2 261.697 217.01 261.617 216.85C261.537 216.67 261.467 216.55 261.407 216.49C261.207 216.25 260.957 216.11 260.657 216.07C260.357 216.01 260.047 215.98 259.727 215.98L259.607 215.86V215.44L259.727 215.35H260.267C260.607 215.35 261.037 215.35 261.557 215.35C262.077 215.33 262.527 215.29 262.907 215.23L263.957 215.08L264.137 215.35C264.017 215.77 263.927 216.25 263.867 216.79C263.827 217.33 263.807 217.85 263.807 218.35L263.897 218.38ZM278.717 207.19L278.837 207.07H279.377C279.717 207.07 280.147 207.07 280.667 207.07C281.187 207.05 281.637 207.01 282.017 206.95L283.097 206.8L283.277 207.07C283.237 207.15 283.207 207.3 283.187 207.52C283.167 207.72 283.147 207.94 283.127 208.18C283.107 208.42 283.087 208.65 283.067 208.87C283.067 209.09 283.067 209.26 283.067 209.38C283.047 209.7 283.027 210 283.007 210.28C283.007 210.56 282.997 210.89 282.977 211.27C282.977 211.65 282.977 212.11 282.977 212.65C282.977 213.19 282.977 213.88 282.977 214.72V221.26C282.977 222.1 282.977 222.79 282.977 223.33C282.997 223.87 283.007 224.33 283.007 224.71C283.027 225.09 283.037 225.42 283.037 225.7C283.057 225.98 283.077 226.3 283.097 226.66C283.137 227.08 283.177 227.4 283.217 227.62C283.277 227.82 283.387 227.99 283.547 228.13C283.707 228.27 283.927 228.36 284.207 228.4C284.507 228.44 284.807 228.46 285.107 228.46L285.257 228.61L285.317 229L285.257 229.12C285.117 229.12 284.907 229.11 284.627 229.09C284.347 229.07 284.047 229.05 283.727 229.03C283.407 229.03 283.107 229.02 282.827 229C282.547 229 282.337 229 282.197 229H281.777C281.637 229 281.417 229 281.117 229C280.837 229.02 280.537 229.03 280.217 229.03C279.917 229.05 279.617 229.07 279.317 229.09C279.037 229.11 278.827 229.12 278.687 229.12L278.657 229L278.687 228.58L278.807 228.46C279.127 228.46 279.437 228.45 279.737 228.43C280.057 228.39 280.297 228.29 280.457 228.13C280.617 227.99 280.717 227.81 280.757 227.59C280.817 227.37 280.867 227.06 280.907 226.66C280.927 226.4 280.937 226.14 280.937 225.88C280.957 225.62 280.967 225.32 280.967 224.98C280.987 224.62 280.997 224.21 280.997 223.75C280.997 223.27 280.997 222.68 280.997 221.98V214.78C280.997 213.96 280.997 213.27 280.997 212.71C280.997 212.13 280.987 211.63 280.967 211.21C280.967 210.79 280.957 210.42 280.937 210.1C280.937 209.78 280.927 209.46 280.907 209.14C280.887 208.92 280.827 208.73 280.727 208.57C280.647 208.41 280.577 208.29 280.517 208.21C280.317 207.99 280.067 207.85 279.767 207.79C279.467 207.73 279.157 207.7 278.837 207.7L278.717 207.58V207.19ZM293.883 229.12C293.743 229.12 293.533 229.11 293.253 229.09C292.973 229.07 292.673 229.05 292.353 229.03C292.033 229.03 291.733 229.02 291.453 229C291.173 229 290.963 229 290.823 229H290.403C290.263 229 290.043 229 289.743 229C289.463 229.02 289.163 229.03 288.843 229.03C288.543 229.05 288.243 229.07 287.943 229.09C287.663 229.11 287.453 229.12 287.313 229.12L287.283 229L287.313 228.58L287.433 228.46C287.753 228.46 288.063 228.45 288.363 228.43C288.683 228.39 288.923 228.29 289.083 228.13C289.243 227.99 289.343 227.81 289.383 227.59C289.443 227.37 289.493 227.06 289.533 226.66C289.553 226.34 289.573 226.02 289.593 225.7C289.613 225.36 289.623 224.83 289.623 224.11V220.42C289.623 220 289.623 219.65 289.623 219.37C289.623 219.07 289.613 218.81 289.593 218.59C289.593 218.37 289.583 218.17 289.563 217.99C289.563 217.81 289.553 217.62 289.533 217.42C289.493 217.2 289.433 217.01 289.353 216.85C289.273 216.67 289.203 216.55 289.143 216.49C288.943 216.25 288.693 216.11 288.393 216.07C288.093 216.01 287.783 215.98 287.463 215.98L287.343 215.86V215.44L287.463 215.35H288.003C288.343 215.35 288.773 215.35 289.293 215.35C289.813 215.33 290.263 215.29 290.643 215.23L291.693 215.08L291.873 215.35C291.833 215.43 291.793 215.57 291.753 215.77C291.733 215.97 291.713 216.19 291.693 216.43C291.693 216.65 291.683 216.87 291.663 217.09C291.663 217.31 291.663 217.48 291.663 217.6C291.663 217.76 291.653 217.92 291.633 218.08C291.633 218.22 291.633 218.39 291.633 218.59C291.633 218.79 291.623 219.03 291.603 219.31C291.603 219.59 291.603 219.95 291.603 220.39V223.75C291.603 224.19 291.603 224.55 291.603 224.83C291.623 225.11 291.633 225.35 291.633 225.55C291.653 225.75 291.663 225.94 291.663 226.12C291.683 226.28 291.703 226.46 291.723 226.66C291.763 227.08 291.803 227.4 291.843 227.62C291.903 227.82 292.013 227.99 292.173 228.13C292.333 228.27 292.553 228.36 292.833 228.4C293.133 228.44 293.433 228.46 293.733 228.46L293.883 228.61L293.943 229L293.883 229.12ZM288.843 210.07C288.843 209.67 288.973 209.33 289.233 209.05C289.513 208.75 289.853 208.6 290.253 208.6C290.653 208.6 290.993 208.75 291.273 209.05C291.573 209.33 291.723 209.67 291.723 210.07C291.723 210.47 291.573 210.81 291.273 211.09C290.993 211.35 290.653 211.48 290.253 211.48C289.853 211.48 289.513 211.35 289.233 211.09C288.973 210.81 288.843 210.47 288.843 210.07ZM303.014 221.05C303.854 221.23 304.524 221.48 305.024 221.8C305.544 222.1 305.944 222.43 306.224 222.79C306.504 223.15 306.684 223.52 306.764 223.9C306.864 224.26 306.914 224.6 306.914 224.92C306.914 225.56 306.784 226.15 306.524 226.69C306.264 227.23 305.884 227.7 305.384 228.1C304.904 228.48 304.314 228.78 303.614 229C302.914 229.22 302.124 229.33 301.244 229.33C300.264 229.33 299.344 229.22 298.484 229C297.644 228.76 296.974 228.51 296.474 228.25L296.414 227.98L296.864 224.89H297.554L297.644 225.01C297.644 225.97 297.944 226.73 298.544 227.29C299.144 227.83 300.014 228.1 301.154 228.1C301.834 228.1 302.404 228.02 302.864 227.86C303.324 227.7 303.684 227.49 303.944 227.23C304.224 226.97 304.424 226.69 304.544 226.39C304.664 226.09 304.724 225.8 304.724 225.52C304.724 225.34 304.714 225.14 304.694 224.92C304.674 224.68 304.594 224.45 304.454 224.23C304.314 223.99 304.104 223.77 303.824 223.57C303.544 223.35 303.144 223.17 302.624 223.03L299.744 222.31C299.084 222.15 298.544 221.94 298.124 221.68C297.704 221.42 297.374 221.14 297.134 220.84C296.894 220.52 296.724 220.19 296.624 219.85C296.524 219.49 296.474 219.13 296.474 218.77C296.474 218.11 296.604 217.53 296.864 217.03C297.124 216.51 297.474 216.09 297.914 215.77C298.374 215.43 298.904 215.18 299.504 215.02C300.104 214.84 300.754 214.75 301.454 214.75C302.394 214.75 303.254 214.87 304.034 215.11C304.834 215.35 305.454 215.59 305.894 215.83L305.984 216.1L305.654 218.41H305.024L304.904 218.32C304.904 217.86 304.774 217.48 304.514 217.18C304.274 216.86 303.974 216.61 303.614 216.43C303.254 216.23 302.874 216.09 302.474 216.01C302.074 215.93 301.724 215.89 301.424 215.89C300.424 215.89 299.704 216.14 299.264 216.64C298.824 217.14 298.604 217.7 298.604 218.32C298.604 218.78 298.754 219.22 299.054 219.64C299.374 220.04 299.984 220.35 300.884 220.57L303.014 221.05ZM317.278 216.61H313.378C313.378 217.91 313.368 219.11 313.348 220.21C313.348 221.31 313.348 222.28 313.348 223.12C313.348 223.94 313.338 224.6 313.318 225.1C313.318 225.6 313.318 225.91 313.318 226.03C313.318 226.81 313.468 227.33 313.768 227.59C314.068 227.85 314.418 227.98 314.818 227.98C315.158 227.98 315.548 227.92 315.988 227.8C316.448 227.66 316.818 227.51 317.098 227.35L317.368 227.56L317.098 228.4C316.638 228.72 316.118 228.95 315.538 229.09C314.978 229.25 314.478 229.33 314.038 229.33C313.018 229.33 312.298 229.05 311.878 228.49C311.458 227.93 311.248 227.21 311.248 226.33C311.248 226.15 311.258 225.78 311.278 225.22C311.298 224.66 311.318 223.96 311.338 223.12C311.358 222.28 311.378 221.31 311.398 220.21C311.418 219.11 311.428 217.91 311.428 216.61H309.268L309.148 216.46V215.89L309.268 215.77L311.428 215.35C311.428 214.65 311.408 213.94 311.368 213.22C311.348 212.48 311.318 211.76 311.278 211.06L311.488 210.88L311.908 210.85C312.068 210.83 312.328 210.79 312.688 210.73C313.048 210.67 313.298 210.6 313.438 210.52L313.708 210.64C313.648 210.92 313.598 211.25 313.558 211.63C313.518 211.99 313.478 212.38 313.438 212.8C313.418 213.22 313.398 213.65 313.378 214.09C313.378 214.53 313.378 214.95 313.378 215.35L317.278 215.17L317.428 215.29V216.46L317.278 216.61ZM323.553 208.51C323.553 208.69 323.543 208.86 323.523 209.02C323.523 209.16 323.523 209.28 323.523 209.38C323.503 209.6 323.483 209.82 323.463 210.04C323.443 210.26 323.413 210.56 323.373 210.94C323.353 211.3 323.323 211.79 323.283 212.41C323.243 213.01 323.193 213.81 323.133 214.81C323.093 215.81 323.043 217.05 322.983 218.53C322.943 219.99 322.903 221.76 322.863 223.84L322.713 224.05L321.663 224.53L321.483 224.41C321.443 222.43 321.393 220.72 321.333 219.28C321.293 217.82 321.253 216.58 321.213 215.56C321.173 214.52 321.133 213.66 321.093 212.98C321.053 212.28 321.013 211.71 320.973 211.27C320.933 210.81 320.903 210.45 320.883 210.19C320.863 209.91 320.843 209.67 320.823 209.47L320.943 209.2L323.403 208.42L323.553 208.51ZM320.763 227.95C320.763 227.57 320.893 227.24 321.153 226.96C321.433 226.66 321.773 226.51 322.173 226.51C322.533 226.51 322.853 226.66 323.133 226.96C323.433 227.24 323.583 227.57 323.583 227.95C323.583 228.33 323.433 228.66 323.133 228.94C322.853 229.2 322.533 229.33 322.173 229.33C321.773 229.33 321.433 229.2 321.153 228.94C320.893 228.66 320.763 228.33 320.763 227.95Z" fill="#1B1D1C"/>
<g filter="url(#filter0_d_68_2933)">
<rect x="35" y="668" width="357" height="60" rx="10" fill="#039855" shape-rendering="crispEdges"/>
<path d="M171.585 702.34H166.025L165.105 705H162.165L167.185 691.02H170.445L175.465 705H172.505L171.585 702.34ZM170.825 700.1L168.805 694.26L166.785 700.1H170.825ZM176.621 699.42C176.621 698.3 176.841 697.307 177.281 696.44C177.734 695.573 178.348 694.907 179.121 694.44C179.894 693.973 180.754 693.74 181.701 693.74C182.421 693.74 183.108 693.9 183.761 694.22C184.414 694.527 184.934 694.94 185.321 695.46V690.2H188.161V705H185.321V703.36C184.974 703.907 184.488 704.347 183.861 704.68C183.234 705.013 182.508 705.18 181.681 705.18C180.748 705.18 179.894 704.94 179.121 704.46C178.348 703.98 177.734 703.307 177.281 702.44C176.841 701.56 176.621 700.553 176.621 699.42ZM185.341 699.46C185.341 698.78 185.208 698.2 184.941 697.72C184.674 697.227 184.314 696.853 183.861 696.6C183.408 696.333 182.921 696.2 182.401 696.2C181.881 696.2 181.401 696.327 180.961 696.58C180.521 696.833 180.161 697.207 179.881 697.7C179.614 698.18 179.481 698.753 179.481 699.42C179.481 700.087 179.614 700.673 179.881 701.18C180.161 701.673 180.521 702.053 180.961 702.32C181.414 702.587 181.894 702.72 182.401 702.72C182.921 702.72 183.408 702.593 183.861 702.34C184.314 702.073 184.674 701.7 184.941 701.22C185.208 700.727 185.341 700.14 185.341 699.46ZM190.176 699.42C190.176 698.3 190.396 697.307 190.836 696.44C191.289 695.573 191.902 694.907 192.676 694.44C193.449 693.973 194.309 693.74 195.256 693.74C195.976 693.74 196.662 693.9 197.316 694.22C197.969 694.527 198.489 694.94 198.876 695.46V690.2H201.716V705H198.876V703.36C198.529 703.907 198.042 704.347 197.416 704.68C196.789 705.013 196.062 705.18 195.236 705.18C194.302 705.18 193.449 704.94 192.676 704.46C191.902 703.98 191.289 703.307 190.836 702.44C190.396 701.56 190.176 700.553 190.176 699.42ZM198.896 699.46C198.896 698.78 198.762 698.2 198.496 697.72C198.229 697.227 197.869 696.853 197.416 696.6C196.962 696.333 196.476 696.2 195.956 696.2C195.436 696.2 194.956 696.327 194.516 696.58C194.076 696.833 193.716 697.207 193.436 697.7C193.169 698.18 193.036 698.753 193.036 699.42C193.036 700.087 193.169 700.673 193.436 701.18C193.716 701.673 194.076 702.053 194.516 702.32C194.969 702.587 195.449 702.72 195.956 702.72C196.476 702.72 196.962 702.593 197.416 702.34C197.869 702.073 198.229 701.7 198.496 701.22C198.762 700.727 198.896 700.14 198.896 699.46ZM212.016 691.04V705H209.216V691.04H212.016ZM218.042 696.22V701.58C218.042 701.953 218.129 702.227 218.302 702.4C218.489 702.56 218.796 702.64 219.222 702.64H220.522V705H218.762C216.402 705 215.222 703.853 215.222 701.56V696.22H213.902V693.92H215.222V691.18H218.042V693.92H220.522V696.22H218.042ZM232.836 699.22C232.836 699.62 232.81 699.98 232.756 700.3H224.656C224.723 701.1 225.003 701.727 225.496 702.18C225.99 702.633 226.596 702.86 227.316 702.86C228.356 702.86 229.096 702.413 229.536 701.52H232.556C232.236 702.587 231.623 703.467 230.716 704.16C229.81 704.84 228.696 705.18 227.376 705.18C226.31 705.18 225.35 704.947 224.496 704.48C223.656 704 222.996 703.327 222.516 702.46C222.05 701.593 221.816 700.593 221.816 699.46C221.816 698.313 222.05 697.307 222.516 696.44C222.983 695.573 223.636 694.907 224.476 694.44C225.316 693.973 226.283 693.74 227.376 693.74C228.43 693.74 229.37 693.967 230.196 694.42C231.036 694.873 231.683 695.52 232.136 696.36C232.603 697.187 232.836 698.14 232.836 699.22ZM229.936 698.42C229.923 697.7 229.663 697.127 229.156 696.7C228.65 696.26 228.03 696.04 227.296 696.04C226.603 696.04 226.016 696.253 225.536 696.68C225.07 697.093 224.783 697.673 224.676 698.42H229.936ZM248.64 693.76C250 693.76 251.093 694.18 251.92 695.02C252.76 695.847 253.18 697.007 253.18 698.5V705H250.38V698.88C250.38 698.013 250.16 697.353 249.72 696.9C249.28 696.433 248.68 696.2 247.92 696.2C247.16 696.2 246.553 696.433 246.1 696.9C245.66 697.353 245.44 698.013 245.44 698.88V705H242.64V698.88C242.64 698.013 242.42 697.353 241.98 696.9C241.54 696.433 240.94 696.2 240.18 696.2C239.407 696.2 238.793 696.433 238.34 696.9C237.9 697.353 237.68 698.013 237.68 698.88V705H234.88V693.92H237.68V695.26C238.04 694.793 238.5 694.427 239.06 694.16C239.633 693.893 240.26 693.76 240.94 693.76C241.807 693.76 242.58 693.947 243.26 694.32C243.94 694.68 244.467 695.2 244.84 695.88C245.2 695.24 245.72 694.727 246.4 694.34C247.093 693.953 247.84 693.76 248.64 693.76ZM260.077 705.18C259.17 705.18 258.357 705.02 257.637 704.7C256.917 704.367 256.344 703.92 255.917 703.36C255.504 702.8 255.277 702.18 255.237 701.5H258.057C258.11 701.927 258.317 702.28 258.677 702.56C259.05 702.84 259.51 702.98 260.057 702.98C260.59 702.98 261.004 702.873 261.297 702.66C261.604 702.447 261.757 702.173 261.757 701.84C261.757 701.48 261.57 701.213 261.197 701.04C260.837 700.853 260.257 700.653 259.457 700.44C258.63 700.24 257.95 700.033 257.417 699.82C256.897 699.607 256.444 699.28 256.057 698.84C255.684 698.4 255.497 697.807 255.497 697.06C255.497 696.447 255.67 695.887 256.017 695.38C256.377 694.873 256.884 694.473 257.537 694.18C258.204 693.887 258.984 693.74 259.877 693.74C261.197 693.74 262.25 694.073 263.037 694.74C263.824 695.393 264.257 696.28 264.337 697.4H261.657C261.617 696.96 261.43 696.613 261.097 696.36C260.777 696.093 260.344 695.96 259.797 695.96C259.29 695.96 258.897 696.053 258.617 696.24C258.35 696.427 258.217 696.687 258.217 697.02C258.217 697.393 258.404 697.68 258.777 697.88C259.15 698.067 259.73 698.26 260.517 698.46C261.317 698.66 261.977 698.867 262.497 699.08C263.017 699.293 263.464 699.627 263.837 700.08C264.224 700.52 264.424 701.107 264.437 701.84C264.437 702.48 264.257 703.053 263.897 703.56C263.55 704.067 263.044 704.467 262.377 704.76C261.724 705.04 260.957 705.18 260.077 705.18Z" fill="white"/>
</g>
<g filter="url(#filter1_d_68_2933)">
<rect x="35" y="315" width="357" height="60" rx="10" fill="#E97B2C" fill-opacity="0.85" shape-rendering="crispEdges"/>
</g>
<g filter="url(#filter2_d_68_2933)">
<path d="M354.792 360.375C353.944 360.375 353.218 360.073 352.614 359.469C352.01 358.865 351.708 358.14 351.708 357.292V337.25H350.167V334.167H357.875V332.625H367.125V334.167H374.833V337.25H373.292V357.292C373.292 358.14 372.99 358.865 372.386 359.469C371.782 360.073 371.056 360.375 370.208 360.375H354.792ZM370.208 337.25H354.792V357.292H370.208V337.25ZM357.875 354.208H360.958V340.333H357.875V354.208ZM364.042 354.208H367.125V340.333H364.042V354.208Z" fill="#FEF7FF"/>
</g>
<g filter="url(#filter3_d_68_2933)">
<path d="M48.9344 338.6V335.504H54.7184V353H51.2624V338.6H48.9344ZM59.9097 353.168C59.3017 353.168 58.7977 352.984 58.3977 352.616C58.0137 352.232 57.8217 351.76 57.8217 351.2C57.8217 350.64 58.0137 350.176 58.3977 349.808C58.7977 349.424 59.3017 349.232 59.9097 349.232C60.5017 349.232 60.9897 349.424 61.3737 349.808C61.7577 350.176 61.9497 350.64 61.9497 351.2C61.9497 351.76 61.7577 352.232 61.3737 352.616C60.9897 352.984 60.5017 353.168 59.9097 353.168ZM90.92 336.248V353H87.56V342.104L83.072 353H80.528L76.016 342.104V353H72.656V336.248H76.472L81.8 348.704L87.128 336.248H90.92ZM95.9459 338.12C95.3539 338.12 94.8579 337.936 94.4579 337.568C94.0739 337.184 93.8819 336.712 93.8819 336.152C93.8819 335.592 94.0739 335.128 94.4579 334.76C94.8579 334.376 95.3539 334.184 95.9459 334.184C96.5379 334.184 97.0259 334.376 97.4099 334.76C97.8099 335.128 98.0099 335.592 98.0099 336.152C98.0099 336.712 97.8099 337.184 97.4099 337.568C97.0259 337.936 96.5379 338.12 95.9459 338.12ZM97.6019 339.704V353H94.2419V339.704H97.6019ZM104.282 335.24V353H100.922V335.24H104.282ZM115.473 353L110.961 347.336V353H107.601V335.24H110.961V345.344L115.425 339.704H119.793L113.937 346.376L119.841 353H115.473Z" fill="white"/>
</g>
<g filter="url(#filter4_d_68_2933)">
<rect x="35" y="391" width="357" height="60" rx="10" fill="#E97B2C" fill-opacity="0.85" shape-rendering="crispEdges"/>
</g>
<g filter="url(#filter5_d_68_2933)">
<path d="M354.792 436.375C353.944 436.375 353.218 436.073 352.614 435.469C352.01 434.865 351.708 434.14 351.708 433.292V413.25H350.167V410.167H357.875V408.625H367.125V410.167H374.833V413.25H373.292V433.292C373.292 434.14 372.99 434.865 372.386 435.469C371.782 436.073 371.056 436.375 370.208 436.375H354.792ZM370.208 413.25H354.792V433.292H370.208V413.25ZM357.875 430.208H360.958V416.333H357.875V430.208ZM364.042 430.208H367.125V416.333H364.042V430.208Z" fill="#FEF7FF"/>
</g>
<g filter="url(#filter6_d_68_2933)">
<path d="M45.3125 425.208C46.8485 423.928 48.0725 422.864 48.9845 422.016C49.8965 421.152 50.6565 420.256 51.2645 419.328C51.8725 418.4 52.1765 417.488 52.1765 416.592C52.1765 415.776 51.9845 415.136 51.6005 414.672C51.2165 414.208 50.6245 413.976 49.8245 413.976C49.0245 413.976 48.4085 414.248 47.9765 414.792C47.5445 415.32 47.3205 416.048 47.3045 416.976H44.0405C44.1045 415.056 44.6725 413.6 45.7445 412.608C46.8325 411.616 48.2085 411.12 49.8725 411.12C51.6965 411.12 53.0965 411.608 54.0725 412.584C55.0485 413.544 55.5365 414.816 55.5365 416.4C55.5365 417.648 55.2005 418.84 54.5285 419.976C53.8565 421.112 53.0885 422.104 52.2245 422.952C51.3605 423.784 50.2325 424.792 48.8405 425.976H55.9205V428.76H44.0645V426.264L45.3125 425.208ZM59.9097 429.168C59.3017 429.168 58.7977 428.984 58.3977 428.616C58.0137 428.232 57.8217 427.76 57.8217 427.2C57.8217 426.64 58.0137 426.176 58.3977 425.808C58.7977 425.424 59.3017 425.232 59.9097 425.232C60.5017 425.232 60.9897 425.424 61.3737 425.808C61.7577 426.176 61.9497 426.64 61.9497 427.2C61.9497 427.76 61.7577 428.232 61.3737 428.616C60.9897 428.984 60.5017 429.168 59.9097 429.168ZM82.16 420.408C83.104 420.584 83.88 421.056 84.488 421.824C85.096 422.592 85.4 423.472 85.4 424.464C85.4 425.36 85.176 426.152 84.728 426.84C84.296 427.512 83.664 428.04 82.832 428.424C82 428.808 81.016 429 79.88 429H72.656V412.248H79.568C80.704 412.248 81.68 412.432 82.496 412.8C83.328 413.168 83.952 413.68 84.368 414.336C84.8 414.992 85.016 415.736 85.016 416.568C85.016 417.544 84.752 418.36 84.224 419.016C83.712 419.672 83.024 420.136 82.16 420.408ZM76.016 419.16H79.088C79.888 419.16 80.504 418.984 80.936 418.632C81.368 418.264 81.584 417.744 81.584 417.072C81.584 416.4 81.368 415.88 80.936 415.512C80.504 415.144 79.888 414.96 79.088 414.96H76.016V419.16ZM79.4 426.264C80.216 426.264 80.848 426.072 81.296 425.688C81.76 425.304 81.992 424.76 81.992 424.056C81.992 423.336 81.752 422.776 81.272 422.376C80.792 421.96 80.144 421.752 79.328 421.752H76.016V426.264H79.4ZM91.4379 417.768C91.8699 417.064 92.4299 416.512 93.1179 416.112C93.8219 415.712 94.6219 415.512 95.5179 415.512V419.04H94.6299C93.5739 419.04 92.7739 419.288 92.2299 419.784C91.7019 420.28 91.4379 421.144 91.4379 422.376V429H88.0779V415.704H91.4379V417.768ZM110.141 422.064C110.141 422.544 110.109 422.976 110.045 423.36H100.325C100.405 424.32 100.741 425.072 101.333 425.616C101.925 426.16 102.653 426.432 103.517 426.432C104.765 426.432 105.653 425.896 106.181 424.824H109.805C109.421 426.104 108.685 427.16 107.597 427.992C106.509 428.808 105.173 429.216 103.589 429.216C102.309 429.216 101.157 428.936 100.133 428.376C99.125 427.8 98.333 426.992 97.757 425.952C97.197 424.912 96.917 423.712 96.917 422.352C96.917 420.976 97.197 419.768 97.757 418.728C98.317 417.688 99.101 416.888 100.109 416.328C101.117 415.768 102.277 415.488 103.589 415.488C104.853 415.488 105.981 415.76 106.973 416.304C107.981 416.848 108.757 417.624 109.301 418.632C109.861 419.624 110.141 420.768 110.141 422.064ZM106.661 421.104C106.645 420.24 106.333 419.552 105.725 419.04C105.117 418.512 104.373 418.248 103.493 418.248C102.661 418.248 101.957 418.504 101.381 419.016C100.821 419.512 100.477 420.208 100.349 421.104H106.661ZM111.729 422.304C111.729 420.96 111.993 419.768 112.521 418.728C113.066 417.688 113.794 416.888 114.706 416.328C115.634 415.768 116.666 415.488 117.802 415.488C118.794 415.488 119.658 415.688 120.394 416.088C121.146 416.488 121.746 416.992 122.194 417.6V415.704H125.578V429H122.194V427.056C121.762 427.68 121.162 428.2 120.394 428.616C119.642 429.016 118.77 429.216 117.778 429.216C116.658 429.216 115.634 428.928 114.706 428.352C113.794 427.776 113.066 426.968 112.521 425.928C111.993 424.872 111.729 423.664 111.729 422.304ZM122.194 422.352C122.194 421.536 122.034 420.84 121.714 420.264C121.394 419.672 120.962 419.224 120.418 418.92C119.874 418.6 119.29 418.44 118.666 418.44C118.042 418.44 117.466 418.592 116.938 418.896C116.41 419.2 115.978 419.648 115.642 420.24C115.322 420.816 115.162 421.504 115.162 422.304C115.162 423.104 115.322 423.808 115.642 424.416C115.978 425.008 116.41 425.464 116.938 425.784C117.482 426.104 118.058 426.264 118.666 426.264C119.29 426.264 119.874 426.112 120.418 425.808C120.962 425.488 121.394 425.04 121.714 424.464C122.034 423.872 122.194 423.168 122.194 422.352ZM127.995 422.304C127.995 420.96 128.259 419.768 128.787 418.728C129.331 417.688 130.067 416.888 130.995 416.328C131.923 415.768 132.955 415.488 134.091 415.488C134.955 415.488 135.779 415.68 136.563 416.064C137.347 416.432 137.971 416.928 138.435 417.552V411.24H141.843V429H138.435V427.032C138.019 427.688 137.435 428.216 136.683 428.616C135.931 429.016 135.059 429.216 134.067 429.216C132.947 429.216 131.923 428.928 130.995 428.352C130.067 427.776 129.331 426.968 128.787 425.928C128.259 424.872 127.995 423.664 127.995 422.304ZM138.459 422.352C138.459 421.536 138.299 420.84 137.979 420.264C137.659 419.672 137.227 419.224 136.683 418.92C136.139 418.6 135.555 418.44 134.931 418.44C134.307 418.44 133.731 418.592 133.203 418.896C132.675 419.2 132.243 419.648 131.907 420.24C131.587 420.816 131.427 421.504 131.427 422.304C131.427 423.104 131.587 423.808 131.907 424.416C132.243 425.008 132.675 425.464 133.203 425.784C133.747 426.104 134.323 426.264 134.931 426.264C135.555 426.264 136.139 426.112 136.683 425.808C137.227 425.488 137.659 425.04 137.979 424.464C138.299 423.872 138.459 423.168 138.459 422.352Z" fill="white"/>
</g>
<g filter="url(#filter7_d_68_2933)">
<rect x="35" y="744" width="357" height="60" rx="10" fill="#039855" shape-rendering="crispEdges"/>
<path d="M138.92 767.04C140.387 767.04 141.673 767.327 142.78 767.9C143.9 768.473 144.76 769.293 145.36 770.36C145.973 771.413 146.28 772.64 146.28 774.04C146.28 775.44 145.973 776.667 145.36 777.72C144.76 778.76 143.9 779.567 142.78 780.14C141.673 780.713 140.387 781 138.92 781H134.04V767.04H138.92ZM138.82 778.62C140.287 778.62 141.42 778.22 142.22 777.42C143.02 776.62 143.42 775.493 143.42 774.04C143.42 772.587 143.02 771.453 142.22 770.64C141.42 769.813 140.287 769.4 138.82 769.4H136.84V778.62H138.82ZM153.296 781.18C152.229 781.18 151.269 780.947 150.416 780.48C149.563 780 148.889 779.327 148.396 778.46C147.916 777.593 147.676 776.593 147.676 775.46C147.676 774.327 147.923 773.327 148.416 772.46C148.923 771.593 149.609 770.927 150.476 770.46C151.343 769.98 152.309 769.74 153.376 769.74C154.443 769.74 155.409 769.98 156.276 770.46C157.143 770.927 157.823 771.593 158.316 772.46C158.823 773.327 159.076 774.327 159.076 775.46C159.076 776.593 158.816 777.593 158.296 778.46C157.789 779.327 157.096 780 156.216 780.48C155.349 780.947 154.376 781.18 153.296 781.18ZM153.296 778.74C153.803 778.74 154.276 778.62 154.716 778.38C155.169 778.127 155.529 777.753 155.796 777.26C156.063 776.767 156.196 776.167 156.196 775.46C156.196 774.407 155.916 773.6 155.356 773.04C154.809 772.467 154.136 772.18 153.336 772.18C152.536 772.18 151.863 772.467 151.316 773.04C150.783 773.6 150.516 774.407 150.516 775.46C150.516 776.513 150.776 777.327 151.296 777.9C151.829 778.46 152.496 778.74 153.296 778.74ZM167.27 769.76C168.59 769.76 169.657 770.18 170.47 771.02C171.283 771.847 171.69 773.007 171.69 774.5V781H168.89V774.88C168.89 774 168.67 773.327 168.23 772.86C167.79 772.38 167.19 772.14 166.43 772.14C165.657 772.14 165.043 772.38 164.59 772.86C164.15 773.327 163.93 774 163.93 774.88V781H161.13V769.92H163.93V771.3C164.303 770.82 164.777 770.447 165.35 770.18C165.937 769.9 166.577 769.76 167.27 769.76ZM184.653 775.22C184.653 775.62 184.626 775.98 184.573 776.3H176.473C176.539 777.1 176.819 777.727 177.313 778.18C177.806 778.633 178.413 778.86 179.133 778.86C180.173 778.86 180.913 778.413 181.353 777.52H184.373C184.053 778.587 183.439 779.467 182.533 780.16C181.626 780.84 180.513 781.18 179.193 781.18C178.126 781.18 177.166 780.947 176.313 780.48C175.473 780 174.813 779.327 174.333 778.46C173.866 777.593 173.633 776.593 173.633 775.46C173.633 774.313 173.866 773.307 174.333 772.44C174.799 771.573 175.453 770.907 176.293 770.44C177.133 769.973 178.099 769.74 179.193 769.74C180.246 769.74 181.186 769.967 182.013 770.42C182.853 770.873 183.499 771.52 183.953 772.36C184.419 773.187 184.653 774.14 184.653 775.22ZM181.753 774.42C181.739 773.7 181.479 773.127 180.973 772.7C180.466 772.26 179.846 772.04 179.113 772.04C178.419 772.04 177.833 772.253 177.353 772.68C176.886 773.093 176.599 773.673 176.493 774.42H181.753ZM198.662 781L195.582 775.56H194.262V781H191.462V767.04H196.702C197.782 767.04 198.702 767.233 199.462 767.62C200.222 767.993 200.789 768.507 201.162 769.16C201.549 769.8 201.742 770.52 201.742 771.32C201.742 772.24 201.475 773.073 200.942 773.82C200.409 774.553 199.615 775.06 198.562 775.34L201.902 781H198.662ZM194.262 773.46H196.602C197.362 773.46 197.929 773.28 198.302 772.92C198.675 772.547 198.862 772.033 198.862 771.38C198.862 770.74 198.675 770.247 198.302 769.9C197.929 769.54 197.362 769.36 196.602 769.36H194.262V773.46ZM214.575 775.22C214.575 775.62 214.548 775.98 214.495 776.3H206.395C206.461 777.1 206.741 777.727 207.235 778.18C207.728 778.633 208.335 778.86 209.055 778.86C210.095 778.86 210.835 778.413 211.275 777.52H214.295C213.975 778.587 213.361 779.467 212.455 780.16C211.548 780.84 210.435 781.18 209.115 781.18C208.048 781.18 207.088 780.947 206.235 780.48C205.395 780 204.735 779.327 204.255 778.46C203.788 777.593 203.555 776.593 203.555 775.46C203.555 774.313 203.788 773.307 204.255 772.44C204.721 771.573 205.375 770.907 206.215 770.44C207.055 769.973 208.021 769.74 209.115 769.74C210.168 769.74 211.108 769.967 211.935 770.42C212.775 770.873 213.421 771.52 213.875 772.36C214.341 773.187 214.575 774.14 214.575 775.22ZM211.675 774.42C211.661 773.7 211.401 773.127 210.895 772.7C210.388 772.26 209.768 772.04 209.035 772.04C208.341 772.04 207.755 772.253 207.275 772.68C206.808 773.093 206.521 773.673 206.415 774.42H211.675ZM221.238 778.42L224.038 769.92H227.018L222.918 781H219.518L215.438 769.92H218.438L221.238 778.42ZM230.011 768.6C229.518 768.6 229.104 768.447 228.771 768.14C228.451 767.82 228.291 767.427 228.291 766.96C228.291 766.493 228.451 766.107 228.771 765.8C229.104 765.48 229.518 765.32 230.011 765.32C230.504 765.32 230.911 765.48 231.231 765.8C231.564 766.107 231.731 766.493 231.731 766.96C231.731 767.427 231.564 767.82 231.231 768.14C230.911 768.447 230.504 768.6 230.011 768.6ZM231.391 769.92V781H228.591V769.92H231.391ZM244.457 775.22C244.457 775.62 244.431 775.98 244.377 776.3H236.277C236.344 777.1 236.624 777.727 237.117 778.18C237.611 778.633 238.217 778.86 238.937 778.86C239.977 778.86 240.717 778.413 241.157 777.52H244.177C243.857 778.587 243.244 779.467 242.337 780.16C241.431 780.84 240.317 781.18 238.997 781.18C237.931 781.18 236.971 780.947 236.117 780.48C235.277 780 234.617 779.327 234.137 778.46C233.671 777.593 233.437 776.593 233.437 775.46C233.437 774.313 233.671 773.307 234.137 772.44C234.604 771.573 235.257 770.907 236.097 770.44C236.937 769.973 237.904 769.74 238.997 769.74C240.051 769.74 240.991 769.967 241.817 770.42C242.657 770.873 243.304 771.52 243.757 772.36C244.224 773.187 244.457 774.14 244.457 775.22ZM241.557 774.42C241.544 773.7 241.284 773.127 240.777 772.7C240.271 772.26 239.651 772.04 238.917 772.04C238.224 772.04 237.637 772.253 237.157 772.68C236.691 773.093 236.404 773.673 236.297 774.42H241.557ZM261.861 769.92L258.621 781H255.601L253.581 773.26L251.561 781H248.521L245.261 769.92H248.101L250.061 778.36L252.181 769.92H255.141L257.221 778.34L259.181 769.92H261.861ZM264.796 768.6C264.303 768.6 263.889 768.447 263.556 768.14C263.236 767.82 263.076 767.427 263.076 766.96C263.076 766.493 263.236 766.107 263.556 765.8C263.889 765.48 264.303 765.32 264.796 765.32C265.289 765.32 265.696 765.48 266.016 765.8C266.349 766.107 266.516 766.493 266.516 766.96C266.516 767.427 266.349 767.82 266.016 768.14C265.696 768.447 265.289 768.6 264.796 768.6ZM266.176 769.92V781H263.376V769.92H266.176ZM275.083 769.76C276.403 769.76 277.469 770.18 278.283 771.02C279.096 771.847 279.503 773.007 279.503 774.5V781H276.703V774.88C276.703 774 276.483 773.327 276.043 772.86C275.603 772.38 275.003 772.14 274.243 772.14C273.469 772.14 272.856 772.38 272.403 772.86C271.963 773.327 271.743 774 271.743 774.88V781H268.943V769.92H271.743V771.3C272.116 770.82 272.589 770.447 273.163 770.18C273.749 769.9 274.389 769.76 275.083 769.76ZM286.505 769.74C287.332 769.74 288.058 769.907 288.685 770.24C289.312 770.56 289.805 770.98 290.165 771.5V769.92H292.985V781.08C292.985 782.107 292.778 783.02 292.365 783.82C291.952 784.633 291.332 785.273 290.505 785.74C289.678 786.22 288.678 786.46 287.505 786.46C285.932 786.46 284.638 786.093 283.625 785.36C282.625 784.627 282.058 783.627 281.925 782.36H284.705C284.852 782.867 285.165 783.267 285.645 783.56C286.138 783.867 286.732 784.02 287.425 784.02C288.238 784.02 288.898 783.773 289.405 783.28C289.912 782.8 290.165 782.067 290.165 781.08V779.36C289.805 779.88 289.305 780.313 288.665 780.66C288.038 781.007 287.318 781.18 286.505 781.18C285.572 781.18 284.718 780.94 283.945 780.46C283.172 779.98 282.558 779.307 282.105 778.44C281.665 777.56 281.445 776.553 281.445 775.42C281.445 774.3 281.665 773.307 282.105 772.44C282.558 771.573 283.165 770.907 283.925 770.44C284.698 769.973 285.558 769.74 286.505 769.74ZM290.165 775.46C290.165 774.78 290.032 774.2 289.765 773.72C289.498 773.227 289.138 772.853 288.685 772.6C288.232 772.333 287.745 772.2 287.225 772.2C286.705 772.2 286.225 772.327 285.785 772.58C285.345 772.833 284.985 773.207 284.705 773.7C284.438 774.18 284.305 774.753 284.305 775.42C284.305 776.087 284.438 776.673 284.705 777.18C284.985 777.673 285.345 778.053 285.785 778.32C286.238 778.587 286.718 778.72 287.225 778.72C287.745 778.72 288.232 778.593 288.685 778.34C289.138 778.073 289.498 777.7 289.765 777.22C290.032 776.727 290.165 776.14 290.165 775.46Z" fill="white"/>
</g>
<defs>
<filter id="filter0_d_68_2933" x="15" y="658" width="397" height="100" filterUnits="userSpaceOnUse" color-interpolation-filters="sRGB">
<feFlood flood-opacity="0" result="BackgroundImageFix"/>
<feColorMatrix in="SourceAlpha" type="matrix" values="0 0 0 0 0 0 0 0 0 0 0 0 0 0 0 0 0 0 127 0" result="hardAlpha"/>
<feOffset dy="10"/>
<feGaussianBlur stdDeviation="10"/>
<feComposite in2="hardAlpha" operator="out"/>
<feColorMatrix type="matrix" values="0 0 0 0 0.795833 0 0 0 0 0.84075 0 0 0 0 1 0 0 0 1 0"/>
<feBlend mode="normal" in2="BackgroundImageFix" result="effect1_dropShadow_68_2933"/>
<feBlend mode="normal" in="SourceGraphic" in2="effect1_dropShadow_68_2933" result="shape"/>
</filter>
<filter id="filter1_d_68_2933" x="15" y="305" width="397" height="100" filterUnits="userSpaceOnUse" color-interpolation-filters="sRGB">
<feFlood flood-opacity="0" result="BackgroundImageFix"/>
<feColorMatrix in="SourceAlpha" type="matrix" values="0 0 0 0 0 0 0 0 0 0 0 0 0 0 0 0 0 0 127 0" result="hardAlpha"/>
<feOffset dy="10"/>
<feGaussianBlur stdDeviation="10"/>
<feComposite in2="hardAlpha" operator="out"/>
<feColorMatrix type="matrix" values="0 0 0 0 0.795833 0 0 0 0 0.84075 0 0 0 0 1 0 0 0 1 0"/>
<feBlend mode="normal" in2="BackgroundImageFix" result="effect1_dropShadow_68_2933"/>
<feBlend mode="normal" in="SourceGraphic" in2="effect1_dropShadow_68_2933" result="shape"/>
</filter>
<filter id="filter2_d_68_2933" x="341.405" y="328" width="42.1892" height="42.1892" filterUnits="userSpaceOnUse" color-interpolation-filters="sRGB">
<feFlood flood-opacity="0" result="BackgroundImageFix"/>
<feColorMatrix in="SourceAlpha" type="matrix" values="0 0 0 0 0 0 0 0 0 0 0 0 0 0 0 0 0 0 127 0" result="hardAlpha"/>
<feOffset dy="2.59459"/>
<feGaussianBlur stdDeviation="1.2973"/>
<feComposite in2="hardAlpha" operator="out"/>
<feColorMatrix type="matrix" values="0 0 0 0 0 0 0 0 0 0 0 0 0 0 0 0 0 0 0.25 0"/>
<feBlend mode="normal" in2="BackgroundImageFix" result="effect1_dropShadow_68_2933"/>
<feBlend mode="normal" in="SourceGraphic" in2="effect1_dropShadow_68_2933" result="shape"/>
</filter>
<filter id="filter3_d_68_2933" x="44.9346" y="334.184" width="78.9067" height="26.984" filterUnits="userSpaceOnUse" color-interpolation-filters="sRGB">
<feFlood flood-opacity="0" result="BackgroundImageFix"/>
<feColorMatrix in="SourceAlpha" type="matrix" values="0 0 0 0 0 0 0 0 0 0 0 0 0 0 0 0 0 0 127 0" result="hardAlpha"/>
<feOffset dy="4"/>
<feGaussianBlur stdDeviation="2"/>
<feComposite in2="hardAlpha" operator="out"/>
<feColorMatrix type="matrix" values="0 0 0 0 0 0 0 0 0 0 0 0 0 0 0 0 0 0 0.25 0"/>
<feBlend mode="normal" in2="BackgroundImageFix" result="effect1_dropShadow_68_2933"/>
<feBlend mode="normal" in="SourceGraphic" in2="effect1_dropShadow_68_2933" result="shape"/>
</filter>
<filter id="filter4_d_68_2933" x="15" y="381" width="397" height="100" filterUnits="userSpaceOnUse" color-interpolation-filters="sRGB">
<feFlood flood-opacity="0" result="BackgroundImageFix"/>
<feColorMatrix in="SourceAlpha" type="matrix" values="0 0 0 0 0 0 0 0 0 0 0 0 0 0 0 0 0 0 127 0" result="hardAlpha"/>
<feOffset dy="10"/>
<feGaussianBlur stdDeviation="10"/>
<feComposite in2="hardAlpha" operator="out"/>
<feColorMatrix type="matrix" values="0 0 0 0 0.795833 0 0 0 0 0.84075 0 0 0 0 1 0 0 0 1 0"/>
<feBlend mode="normal" in2="BackgroundImageFix" result="effect1_dropShadow_68_2933"/>
<feBlend mode="normal" in="SourceGraphic" in2="effect1_dropShadow_68_2933" result="shape"/>
</filter>
<filter id="filter5_d_68_2933" x="341.405" y="404" width="42.1892" height="42.1892" filterUnits="userSpaceOnUse" color-interpolation-filters="sRGB">
<feFlood flood-opacity="0" result="BackgroundImageFix"/>
<feColorMatrix in="SourceAlpha" type="matrix" values="0 0 0 0 0 0 0 0 0 0 0 0 0 0 0 0 0 0 127 0" result="hardAlpha"/>
<feOffset dy="2.59459"/>
<feGaussianBlur stdDeviation="1.2973"/>
<feComposite in2="hardAlpha" operator="out"/>
<feColorMatrix type="matrix" values="0 0 0 0 0 0 0 0 0 0 0 0 0 0 0 0 0 0 0.25 0"/>
<feBlend mode="normal" in2="BackgroundImageFix" result="effect1_dropShadow_68_2933"/>
<feBlend mode="normal" in="SourceGraphic" in2="effect1_dropShadow_68_2933" result="shape"/>
</filter>
<filter id="filter6_d_68_2933" x="40.0405" y="411.12" width="105.803" height="26.096" filterUnits="userSpaceOnUse" color-interpolation-filters="sRGB">
<feFlood flood-opacity="0" result="BackgroundImageFix"/>
<feColorMatrix in="SourceAlpha" type="matrix" values="0 0 0 0 0 0 0 0 0 0 0 0 0 0 0 0 0 0 127 0" result="hardAlpha"/>
<feOffset dy="4"/>
<feGaussianBlur stdDeviation="2"/>
<feComposite in2="hardAlpha" operator="out"/>
<feColorMatrix type="matrix" values="0 0 0 0 0 0 0 0 0 0 0 0 0 0 0 0 0 0 0.25 0"/>
<feBlend mode="normal" in2="BackgroundImageFix" result="effect1_dropShadow_68_2933"/>
<feBlend mode="normal" in="SourceGraphic" in2="effect1_dropShadow_68_2933" result="shape"/>
</filter>
<filter id="filter7_d_68_2933" x="15" y="734" width="397" height="100" filterUnits="userSpaceOnUse" color-interpolation-filters="sRGB">
<feFlood flood-opacity="0" result="BackgroundImageFix"/>
<feColorMatrix in="SourceAlpha" type="matrix" values="0 0 0 0 0 0 0 0 0 0 0 0 0 0 0 0 0 0 127 0" result="hardAlpha"/>
<feOffset dy="10"/>
<feGaussianBlur stdDeviation="10"/>
<feComposite in2="hardAlpha" operator="out"/>
<feColorMatrix type="matrix" values="0 0 0 0 0.795833 0 0 0 0 0.84075 0 0 0 0 1 0 0 0 1 0"/>
<feBlend mode="normal" in2="BackgroundImageFix" result="effect1_dropShadow_68_2933"/>
<feBlend mode="normal" in="SourceGraphic" in2="effect1_dropShadow_68_2933" result="shape"/>
</filter>
</defs>
</svg>
