<svg width="428" height="926" viewBox="0 0 428 926" fill="none" xmlns="http://www.w3.org/2000/svg">
<rect width="428" height="926" rx="50" fill="white"/>
<path d="M174.579 176.04H181.299V180H169.449V158.94H174.579V176.04ZM191.366 180.24C189.726 180.24 188.246 179.89 186.926 179.19C185.626 178.49 184.596 177.49 183.836 176.19C183.096 174.89 182.726 173.37 182.726 171.63C182.726 169.91 183.106 168.4 183.866 167.1C184.626 165.78 185.666 164.77 186.986 164.07C188.306 163.37 189.786 163.02 191.426 163.02C193.066 163.02 194.546 163.37 195.866 164.07C197.186 164.77 198.226 165.78 198.986 167.1C199.746 168.4 200.126 169.91 200.126 171.63C200.126 173.35 199.736 174.87 198.956 176.19C198.196 177.49 197.146 178.49 195.806 179.19C194.486 179.89 193.006 180.24 191.366 180.24ZM191.366 175.8C192.346 175.8 193.176 175.44 193.856 174.72C194.556 174 194.906 172.97 194.906 171.63C194.906 170.29 194.566 169.26 193.886 168.54C193.226 167.82 192.406 167.46 191.426 167.46C190.426 167.46 189.596 167.82 188.936 168.54C188.276 169.24 187.946 170.27 187.946 171.63C187.946 172.97 188.266 174 188.906 174.72C189.566 175.44 190.386 175.8 191.366 175.8ZM209.207 163.02C210.387 163.02 211.417 163.26 212.297 163.74C213.197 164.22 213.887 164.85 214.367 165.63V163.26H219.497V179.97C219.497 181.51 219.187 182.9 218.567 184.14C217.967 185.4 217.037 186.4 215.777 187.14C214.537 187.88 212.987 188.25 211.127 188.25C208.647 188.25 206.637 187.66 205.097 186.48C203.557 185.32 202.677 183.74 202.457 181.74H207.527C207.687 182.38 208.067 182.88 208.667 183.24C209.267 183.62 210.007 183.81 210.887 183.81C211.947 183.81 212.787 183.5 213.407 182.88C214.047 182.28 214.367 181.31 214.367 179.97V177.6C213.867 178.38 213.177 179.02 212.297 179.52C211.417 180 210.387 180.24 209.207 180.24C207.827 180.24 206.577 179.89 205.457 179.19C204.337 178.47 203.447 177.46 202.787 176.16C202.147 174.84 201.827 173.32 201.827 171.6C201.827 169.88 202.147 168.37 202.787 167.07C203.447 165.77 204.337 164.77 205.457 164.07C206.577 163.37 207.827 163.02 209.207 163.02ZM214.367 171.63C214.367 170.35 214.007 169.34 213.287 168.6C212.587 167.86 211.727 167.49 210.707 167.49C209.687 167.49 208.817 167.86 208.097 168.6C207.397 169.32 207.047 170.32 207.047 171.6C207.047 172.88 207.397 173.9 208.097 174.66C208.817 175.4 209.687 175.77 210.707 175.77C211.727 175.77 212.587 175.4 213.287 174.66C214.007 173.92 214.367 172.91 214.367 171.63ZM225.789 161.52C224.889 161.52 224.149 161.26 223.569 160.74C223.009 160.2 222.729 159.54 222.729 158.76C222.729 157.96 223.009 157.3 223.569 156.78C224.149 156.24 224.889 155.97 225.789 155.97C226.669 155.97 227.389 156.24 227.949 156.78C228.529 157.3 228.819 157.96 228.819 158.76C228.819 159.54 228.529 160.2 227.949 160.74C227.389 161.26 226.669 161.52 225.789 161.52ZM228.339 163.26V180H223.209V163.26H228.339ZM242.256 163.08C244.216 163.08 245.776 163.72 246.936 165C248.116 166.26 248.706 168 248.706 170.22V180H243.606V170.91C243.606 169.79 243.316 168.92 242.736 168.3C242.156 167.68 241.376 167.37 240.396 167.37C239.416 167.37 238.636 167.68 238.056 168.3C237.476 168.92 237.186 169.79 237.186 170.91V180H232.056V163.26H237.186V165.48C237.706 164.74 238.406 164.16 239.286 163.74C240.166 163.3 241.156 163.08 242.256 163.08Z" fill="#039855"/>
<rect width="357" height="64" transform="translate(31 302)" fill="#F5F5F5"/>
<rect x="32" y="303" width="355" height="62" rx="9" fill="#F5F5F5"/>
<rect x="32" y="303" width="355" height="62" rx="9" stroke="#626262" stroke-width="2"/>
<path d="M57.0621 331.04C57.7554 331.04 58.3741 331.184 58.9181 331.472C59.4727 331.76 59.9047 332.187 60.2141 332.752C60.5234 333.317 60.6781 334 60.6781 334.8V340H58.8701V335.072C58.8701 334.283 58.6727 333.68 58.2781 333.264C57.8834 332.837 57.3447 332.624 56.6621 332.624C55.9794 332.624 55.4354 332.837 55.0301 333.264C54.6354 333.68 54.4381 334.283 54.4381 335.072V340H52.6141V331.184H54.4381V332.192C54.7367 331.829 55.1154 331.547 55.5741 331.344C56.0434 331.141 56.5394 331.04 57.0621 331.04ZM62.3967 335.552C62.3967 334.667 62.578 333.883 62.9407 333.2C63.314 332.517 63.8154 331.989 64.4447 331.616C65.0847 331.232 65.7887 331.04 66.5567 331.04C67.25 331.04 67.8527 331.179 68.3647 331.456C68.8874 331.723 69.3034 332.059 69.6127 332.464V331.184H71.4527V340H69.6127V338.688C69.3034 339.104 68.882 339.451 68.3487 339.728C67.8154 340.005 67.2074 340.144 66.5247 340.144C65.7674 340.144 65.074 339.952 64.4447 339.568C63.8154 339.173 63.314 338.629 62.9407 337.936C62.578 337.232 62.3967 336.437 62.3967 335.552ZM69.6127 335.584C69.6127 334.976 69.4847 334.448 69.2287 334C68.9834 333.552 68.658 333.211 68.2527 332.976C67.8474 332.741 67.41 332.624 66.9407 332.624C66.4714 332.624 66.034 332.741 65.6287 332.976C65.2234 333.2 64.8927 333.536 64.6367 333.984C64.3914 334.421 64.2687 334.944 64.2687 335.552C64.2687 336.16 64.3914 336.693 64.6367 337.152C64.8927 337.611 65.2234 337.963 65.6287 338.208C66.0447 338.443 66.482 338.56 66.9407 338.56C67.41 338.56 67.8474 338.443 68.2527 338.208C68.658 337.973 68.9834 337.632 69.2287 337.184C69.4847 336.725 69.6127 336.192 69.6127 335.584ZM84.5204 331.04C85.2138 331.04 85.8324 331.184 86.3764 331.472C86.9311 331.76 87.3631 332.187 87.6724 332.752C87.9924 333.317 88.1524 334 88.1524 334.8V340H86.3444V335.072C86.3444 334.283 86.1471 333.68 85.7524 333.264C85.3578 332.837 84.8191 332.624 84.1364 332.624C83.4538 332.624 82.9098 332.837 82.5044 333.264C82.1098 333.68 81.9124 334.283 81.9124 335.072V340H80.1044V335.072C80.1044 334.283 79.9071 333.68 79.5124 333.264C79.1178 332.837 78.5791 332.624 77.8964 332.624C77.2138 332.624 76.6698 332.837 76.2644 333.264C75.8698 333.68 75.6724 334.283 75.6724 335.072V340H73.8484V331.184H75.6724V332.192C75.9711 331.829 76.3498 331.547 76.8084 331.344C77.2671 331.141 77.7578 331.04 78.2804 331.04C78.9844 331.04 79.6138 331.189 80.1684 331.488C80.7231 331.787 81.1498 332.219 81.4484 332.784C81.7151 332.251 82.1311 331.829 82.6964 331.52C83.2618 331.2 83.8698 331.04 84.5204 331.04ZM98.5534 335.376C98.5534 335.707 98.5321 336.005 98.4894 336.272H91.7534C91.8068 336.976 92.0681 337.541 92.5374 337.968C93.0068 338.395 93.5828 338.608 94.2654 338.608C95.2468 338.608 95.9401 338.197 96.3454 337.376H98.3134C98.0468 338.187 97.5614 338.853 96.8574 339.376C96.1641 339.888 95.3001 340.144 94.2654 340.144C93.4228 340.144 92.6654 339.957 91.9934 339.584C91.3321 339.2 90.8094 338.667 90.4254 337.984C90.0521 337.291 89.8654 336.491 89.8654 335.584C89.8654 334.677 90.0468 333.883 90.4094 333.2C90.7828 332.507 91.3001 331.973 91.9614 331.6C92.6334 331.227 93.4014 331.04 94.2654 331.04C95.0974 331.04 95.8388 331.221 96.4894 331.584C97.1401 331.947 97.6468 332.459 98.0094 333.12C98.3721 333.771 98.5534 334.523 98.5534 335.376ZM96.6494 334.8C96.6388 334.128 96.3988 333.589 95.9294 333.184C95.4601 332.779 94.8788 332.576 94.1854 332.576C93.5561 332.576 93.0174 332.779 92.5694 333.184C92.1214 333.579 91.8548 334.117 91.7694 334.8H96.6494ZM108.556 329.664C109.772 329.664 110.823 329.888 111.708 330.336C112.594 330.784 113.266 331.413 113.724 332.224C114.194 333.024 114.428 333.957 114.428 335.024C114.428 335.877 114.279 336.693 113.98 337.472C113.692 338.251 113.271 338.885 112.716 339.376C112.172 339.867 111.527 340.112 110.78 340.112C110.236 340.112 109.81 339.995 109.5 339.76C109.191 339.515 108.999 339.173 108.924 338.736C108.594 339.163 108.178 339.499 107.676 339.744C107.175 339.989 106.652 340.112 106.108 340.112C105.287 340.112 104.642 339.867 104.172 339.376C103.714 338.875 103.484 338.197 103.484 337.344C103.484 336.533 103.65 335.776 103.98 335.072C104.322 334.368 104.796 333.808 105.404 333.392C106.012 332.965 106.695 332.752 107.452 332.752C108.38 332.752 109.031 333.067 109.404 333.696L109.548 332.896H111.132L110.332 337.472C110.3 337.696 110.284 337.893 110.284 338.064C110.284 338.341 110.338 338.549 110.444 338.688C110.562 338.827 110.764 338.896 111.052 338.896C111.458 338.896 111.804 338.699 112.092 338.304C112.38 337.899 112.594 337.403 112.732 336.816C112.882 336.229 112.956 335.659 112.956 335.104C112.956 333.749 112.562 332.715 111.772 332C110.983 331.285 109.836 330.928 108.332 330.928C107.074 330.928 105.943 331.227 104.94 331.824C103.948 332.421 103.17 333.243 102.604 334.288C102.039 335.333 101.756 336.496 101.756 337.776C101.756 339.141 102.162 340.181 102.972 340.896C103.783 341.611 104.94 341.968 106.444 341.968C107.458 341.968 108.343 341.781 109.1 341.408L109.34 342.624C108.37 343.04 107.282 343.248 106.076 343.248C104.914 343.248 103.895 343.029 103.02 342.592C102.146 342.155 101.468 341.531 100.988 340.72C100.508 339.92 100.268 338.987 100.268 337.92C100.268 336.395 100.62 335.003 101.324 333.744C102.039 332.485 103.026 331.493 104.284 330.768C105.543 330.032 106.967 329.664 108.556 329.664ZM106.668 338.704C107.116 338.704 107.522 338.576 107.884 338.32C108.258 338.053 108.551 337.707 108.764 337.28C108.978 336.843 109.084 336.379 109.084 335.888C109.084 335.376 108.94 334.96 108.652 334.64C108.375 334.309 107.98 334.144 107.468 334.144C107.01 334.144 106.604 334.288 106.252 334.576C105.911 334.853 105.644 335.216 105.452 335.664C105.271 336.112 105.18 336.581 105.18 337.072C105.18 337.573 105.303 337.973 105.548 338.272C105.794 338.56 106.167 338.704 106.668 338.704ZM120.307 331.04C120.989 331.04 121.592 331.179 122.115 331.456C122.648 331.723 123.064 332.059 123.363 332.464V331.184H125.203V340.144C125.203 340.955 125.032 341.675 124.691 342.304C124.349 342.944 123.853 343.445 123.203 343.808C122.563 344.171 121.795 344.352 120.899 344.352C119.704 344.352 118.712 344.069 117.923 343.504C117.133 342.949 116.685 342.192 116.579 341.232H118.387C118.525 341.691 118.819 342.059 119.267 342.336C119.725 342.624 120.269 342.768 120.899 342.768C121.635 342.768 122.227 342.544 122.675 342.096C123.133 341.648 123.363 340.997 123.363 340.144V338.672C123.053 339.088 122.632 339.44 122.099 339.728C121.576 340.005 120.979 340.144 120.307 340.144C119.539 340.144 118.835 339.952 118.195 339.568C117.565 339.173 117.064 338.629 116.691 337.936C116.328 337.232 116.147 336.437 116.147 335.552C116.147 334.667 116.328 333.883 116.691 333.2C117.064 332.517 117.565 331.989 118.195 331.616C118.835 331.232 119.539 331.04 120.307 331.04ZM123.363 335.584C123.363 334.976 123.235 334.448 122.979 334C122.733 333.552 122.408 333.211 122.003 332.976C121.597 332.741 121.16 332.624 120.691 332.624C120.221 332.624 119.784 332.741 119.379 332.976C118.973 333.2 118.643 333.536 118.387 333.984C118.141 334.421 118.019 334.944 118.019 335.552C118.019 336.16 118.141 336.693 118.387 337.152C118.643 337.611 118.973 337.963 119.379 338.208C119.795 338.443 120.232 338.56 120.691 338.56C121.16 338.56 121.597 338.443 122.003 338.208C122.408 337.973 122.733 337.632 122.979 337.184C123.235 336.725 123.363 336.192 123.363 335.584ZM138.27 331.04C138.964 331.04 139.582 331.184 140.126 331.472C140.681 331.76 141.113 332.187 141.422 332.752C141.742 333.317 141.902 334 141.902 334.8V340H140.094V335.072C140.094 334.283 139.897 333.68 139.502 333.264C139.108 332.837 138.569 332.624 137.886 332.624C137.204 332.624 136.66 332.837 136.254 333.264C135.86 333.68 135.662 334.283 135.662 335.072V340H133.854V335.072C133.854 334.283 133.657 333.68 133.262 333.264C132.868 332.837 132.329 332.624 131.646 332.624C130.964 332.624 130.42 332.837 130.014 333.264C129.62 333.68 129.422 334.283 129.422 335.072V340H127.598V331.184H129.422V332.192C129.721 331.829 130.1 331.547 130.558 331.344C131.017 331.141 131.508 331.04 132.03 331.04C132.734 331.04 133.364 331.189 133.918 331.488C134.473 331.787 134.9 332.219 135.198 332.784C135.465 332.251 135.881 331.829 136.446 331.52C137.012 331.2 137.62 331.04 138.27 331.04ZM143.615 335.552C143.615 334.667 143.797 333.883 144.159 333.2C144.533 332.517 145.034 331.989 145.663 331.616C146.303 331.232 147.007 331.04 147.775 331.04C148.469 331.04 149.071 331.179 149.583 331.456C150.106 331.723 150.522 332.059 150.831 332.464V331.184H152.671V340H150.831V338.688C150.522 339.104 150.101 339.451 149.567 339.728C149.034 340.005 148.426 340.144 147.743 340.144C146.986 340.144 146.293 339.952 145.663 339.568C145.034 339.173 144.533 338.629 144.159 337.936C143.797 337.232 143.615 336.437 143.615 335.552ZM150.831 335.584C150.831 334.976 150.703 334.448 150.447 334C150.202 333.552 149.877 333.211 149.471 332.976C149.066 332.741 148.629 332.624 148.159 332.624C147.69 332.624 147.253 332.741 146.847 332.976C146.442 333.2 146.111 333.536 145.855 333.984C145.61 334.421 145.487 334.944 145.487 335.552C145.487 336.16 145.61 336.693 145.855 337.152C146.111 337.611 146.442 337.963 146.847 338.208C147.263 338.443 147.701 338.56 148.159 338.56C148.629 338.56 149.066 338.443 149.471 338.208C149.877 337.973 150.202 337.632 150.447 337.184C150.703 336.725 150.831 336.192 150.831 335.584ZM155.995 330.016C155.665 330.016 155.387 329.904 155.163 329.68C154.939 329.456 154.827 329.179 154.827 328.848C154.827 328.517 154.939 328.24 155.163 328.016C155.387 327.792 155.665 327.68 155.995 327.68C156.315 327.68 156.587 327.792 156.811 328.016C157.035 328.24 157.147 328.517 157.147 328.848C157.147 329.179 157.035 329.456 156.811 329.68C156.587 329.904 156.315 330.016 155.995 330.016ZM156.891 331.184V340H155.067V331.184H156.891ZM161.11 328.16V340H159.286V328.16H161.11ZM164.241 340.112C163.91 340.112 163.633 340 163.409 339.776C163.185 339.552 163.073 339.275 163.073 338.944C163.073 338.613 163.185 338.336 163.409 338.112C163.633 337.888 163.91 337.776 164.241 337.776C164.561 337.776 164.833 337.888 165.057 338.112C165.281 338.336 165.393 338.613 165.393 338.944C165.393 339.275 165.281 339.552 165.057 339.776C164.833 340 164.561 340.112 164.241 340.112ZM166.756 335.584C166.756 334.677 166.937 333.883 167.3 333.2C167.673 332.507 168.185 331.973 168.836 331.6C169.487 331.227 170.233 331.04 171.076 331.04C172.143 331.04 173.023 331.296 173.716 331.808C174.42 332.309 174.895 333.029 175.14 333.968H173.172C173.012 333.531 172.756 333.189 172.404 332.944C172.052 332.699 171.609 332.576 171.076 332.576C170.329 332.576 169.732 332.843 169.284 333.376C168.847 333.899 168.628 334.635 168.628 335.584C168.628 336.533 168.847 337.275 169.284 337.808C169.732 338.341 170.329 338.608 171.076 338.608C172.132 338.608 172.831 338.144 173.172 337.216H175.14C174.884 338.112 174.404 338.827 173.7 339.36C172.996 339.883 172.121 340.144 171.076 340.144C170.233 340.144 169.487 339.957 168.836 339.584C168.185 339.2 167.673 338.667 167.3 337.984C166.937 337.291 166.756 336.491 166.756 335.584ZM180.782 340.144C179.95 340.144 179.198 339.957 178.526 339.584C177.854 339.2 177.326 338.667 176.942 337.984C176.558 337.291 176.366 336.491 176.366 335.584C176.366 334.688 176.563 333.893 176.958 333.2C177.352 332.507 177.891 331.973 178.574 331.6C179.256 331.227 180.019 331.04 180.862 331.04C181.704 331.04 182.467 331.227 183.15 331.6C183.832 331.973 184.371 332.507 184.766 333.2C185.16 333.893 185.358 334.688 185.358 335.584C185.358 336.48 185.155 337.275 184.75 337.968C184.344 338.661 183.79 339.2 183.086 339.584C182.392 339.957 181.624 340.144 180.782 340.144ZM180.782 338.56C181.251 338.56 181.688 338.448 182.094 338.224C182.51 338 182.846 337.664 183.102 337.216C183.358 336.768 183.486 336.224 183.486 335.584C183.486 334.944 183.363 334.405 183.118 333.968C182.872 333.52 182.547 333.184 182.142 332.96C181.736 332.736 181.299 332.624 180.83 332.624C180.36 332.624 179.923 332.736 179.518 332.96C179.123 333.184 178.808 333.52 178.574 333.968C178.339 334.405 178.222 334.944 178.222 335.584C178.222 336.533 178.462 337.269 178.942 337.792C179.432 338.304 180.046 338.56 180.782 338.56ZM197.833 331.04C198.526 331.04 199.145 331.184 199.689 331.472C200.244 331.76 200.676 332.187 200.985 332.752C201.305 333.317 201.465 334 201.465 334.8V340H199.657V335.072C199.657 334.283 199.46 333.68 199.065 333.264C198.67 332.837 198.132 332.624 197.449 332.624C196.766 332.624 196.222 332.837 195.817 333.264C195.422 333.68 195.225 334.283 195.225 335.072V340H193.417V335.072C193.417 334.283 193.22 333.68 192.825 333.264C192.43 332.837 191.892 332.624 191.209 332.624C190.526 332.624 189.982 332.837 189.577 333.264C189.182 333.68 188.985 334.283 188.985 335.072V340H187.161V331.184H188.985V332.192C189.284 331.829 189.662 331.547 190.121 331.344C190.58 331.141 191.07 331.04 191.593 331.04C192.297 331.04 192.926 331.189 193.481 331.488C194.036 331.787 194.462 332.219 194.761 332.784C195.028 332.251 195.444 331.829 196.009 331.52C196.574 331.2 197.182 331.04 197.833 331.04Z" fill="#E97B2C"/>
<rect x="32" y="396" width="355" height="62" rx="9" fill="#F5F5F5"/>
<rect x="32" y="396" width="355" height="62" rx="9" stroke="#626262" stroke-width="2"/>
<path d="M57.272 422.136L57.992 423.416L55.8 424.232L57.992 425.048L57.256 426.36L55.432 424.92L55.768 427.24H54.296L54.6 424.92L52.776 426.392L52.008 425.032L54.184 424.216L52.008 423.432L52.744 422.12L54.616 423.56L54.296 421.224H55.784L55.432 423.56L57.272 422.136ZM65.3345 422.136L66.0545 423.416L63.8625 424.232L66.0545 425.048L65.3185 426.36L63.4945 424.92L63.8305 427.24H62.3585L62.6625 424.92L60.8385 426.392L60.0705 425.032L62.2465 424.216L60.0705 423.432L60.8065 422.12L62.6785 423.56L62.3585 421.224H63.8465L63.4945 423.56L65.3345 422.136ZM73.397 422.136L74.117 423.416L71.925 424.232L74.117 425.048L73.381 426.36L71.557 424.92L71.893 427.24H70.421L70.725 424.92L68.901 426.392L68.133 425.032L70.309 424.216L68.133 423.432L68.869 422.12L70.741 423.56L70.421 421.224H71.909L71.557 423.56L73.397 422.136ZM81.4595 422.136L82.1795 423.416L79.9875 424.232L82.1795 425.048L81.4435 426.36L79.6195 424.92L79.9555 427.24H78.4835L78.7875 424.92L76.9635 426.392L76.1955 425.032L78.3715 424.216L76.1955 423.432L76.9315 422.12L78.8035 423.56L78.4835 421.224H79.9715L79.6195 423.56L81.4595 422.136ZM89.522 422.136L90.242 423.416L88.05 424.232L90.242 425.048L89.506 426.36L87.682 424.92L88.018 427.24H86.546L86.85 424.92L85.026 426.392L84.258 425.032L86.434 424.216L84.258 423.432L84.994 422.12L86.866 423.56L86.546 421.224H88.034L87.682 423.56L89.522 422.136ZM97.5845 422.136L98.3045 423.416L96.1125 424.232L98.3045 425.048L97.5685 426.36L95.7445 424.92L96.0805 427.24H94.6085L94.9125 424.92L93.0885 426.392L92.3205 425.032L94.4965 424.216L92.3205 423.432L93.0565 422.12L94.9285 423.56L94.6085 421.224H96.0965L95.7445 423.56L97.5845 422.136ZM105.647 422.136L106.367 423.416L104.175 424.232L106.367 425.048L105.631 426.36L103.807 424.92L104.143 427.24H102.671L102.975 424.92L101.151 426.392L100.383 425.032L102.559 424.216L100.383 423.432L101.119 422.12L102.991 423.56L102.671 421.224H104.159L103.807 423.56L105.647 422.136ZM113.71 422.136L114.43 423.416L112.238 424.232L114.43 425.048L113.694 426.36L111.87 424.92L112.206 427.24H110.734L111.038 424.92L109.214 426.392L108.446 425.032L110.622 424.216L108.446 423.432L109.182 422.12L111.054 423.56L110.734 421.224H112.222L111.87 423.56L113.71 422.136ZM121.772 422.136L122.492 423.416L120.3 424.232L122.492 425.048L121.756 426.36L119.932 424.92L120.268 427.24H118.796L119.1 424.92L117.276 426.392L116.508 425.032L118.684 424.216L116.508 423.432L117.244 422.12L119.116 423.56L118.796 421.224H120.284L119.932 423.56L121.772 422.136ZM129.835 422.136L130.555 423.416L128.363 424.232L130.555 425.048L129.819 426.36L127.995 424.92L128.331 427.24H126.859L127.163 424.92L125.339 426.392L124.571 425.032L126.747 424.216L124.571 423.432L125.307 422.12L127.179 423.56L126.859 421.224H128.347L127.995 423.56L129.835 422.136ZM137.897 422.136L138.617 423.416L136.425 424.232L138.617 425.048L137.881 426.36L136.057 424.92L136.393 427.24H134.921L135.225 424.92L133.401 426.392L132.633 425.032L134.809 424.216L132.633 423.432L133.369 422.12L135.241 423.56L134.921 421.224H136.409L136.057 423.56L137.897 422.136ZM145.96 422.136L146.68 423.416L144.488 424.232L146.68 425.048L145.944 426.36L144.12 424.92L144.456 427.24H142.984L143.288 424.92L141.464 426.392L140.696 425.032L142.872 424.216L140.696 423.432L141.432 422.12L143.304 423.56L142.984 421.224H144.472L144.12 423.56L145.96 422.136ZM154.022 422.136L154.742 423.416L152.55 424.232L154.742 425.048L154.006 426.36L152.182 424.92L152.518 427.24H151.046L151.35 424.92L149.526 426.392L148.758 425.032L150.934 424.216L148.758 423.432L149.494 422.12L151.366 423.56L151.046 421.224H152.534L152.182 423.56L154.022 422.136ZM162.085 422.136L162.805 423.416L160.613 424.232L162.805 425.048L162.069 426.36L160.245 424.92L160.581 427.24H159.109L159.413 424.92L157.589 426.392L156.821 425.032L158.997 424.216L156.821 423.432L157.557 422.12L159.429 423.56L159.109 421.224H160.597L160.245 423.56L162.085 422.136ZM170.147 422.136L170.867 423.416L168.675 424.232L170.867 425.048L170.131 426.36L168.307 424.92L168.643 427.24H167.171L167.475 424.92L165.651 426.392L164.883 425.032L167.059 424.216L164.883 423.432L165.619 422.12L167.491 423.56L167.171 421.224H168.659L168.307 423.56L170.147 422.136ZM178.21 422.136L178.93 423.416L176.738 424.232L178.93 425.048L178.194 426.36L176.37 424.92L176.706 427.24H175.234L175.538 424.92L173.714 426.392L172.946 425.032L175.122 424.216L172.946 423.432L173.682 422.12L175.554 423.56L175.234 421.224H176.722L176.37 423.56L178.21 422.136Z" fill="black"/>
<g filter="url(#filter0_d_32_1375)">
<rect x="31" y="519" width="357" height="60" rx="10" fill="#039855" shape-rendering="crispEdges"/>
<path d="M186.541 553.78H191.141V556H183.741V542.04H186.541V553.78ZM197.841 556.18C196.774 556.18 195.814 555.947 194.961 555.48C194.108 555 193.434 554.327 192.941 553.46C192.461 552.593 192.221 551.593 192.221 550.46C192.221 549.327 192.468 548.327 192.961 547.46C193.468 546.593 194.154 545.927 195.021 545.46C195.888 544.98 196.854 544.74 197.921 544.74C198.988 544.74 199.954 544.98 200.821 545.46C201.688 545.927 202.368 546.593 202.861 547.46C203.368 548.327 203.621 549.327 203.621 550.46C203.621 551.593 203.361 552.593 202.841 553.46C202.334 554.327 201.641 555 200.761 555.48C199.894 555.947 198.921 556.18 197.841 556.18ZM197.841 553.74C198.348 553.74 198.821 553.62 199.261 553.38C199.714 553.127 200.074 552.753 200.341 552.26C200.608 551.767 200.741 551.167 200.741 550.46C200.741 549.407 200.461 548.6 199.901 548.04C199.354 547.467 198.681 547.18 197.881 547.18C197.081 547.18 196.408 547.467 195.861 548.04C195.328 548.6 195.061 549.407 195.061 550.46C195.061 551.513 195.321 552.327 195.841 552.9C196.374 553.46 197.041 553.74 197.841 553.74ZM210.015 544.74C210.842 544.74 211.568 544.907 212.195 545.24C212.822 545.56 213.315 545.98 213.675 546.5V544.92H216.495V556.08C216.495 557.107 216.288 558.02 215.875 558.82C215.462 559.633 214.842 560.273 214.015 560.74C213.188 561.22 212.188 561.46 211.015 561.46C209.442 561.46 208.148 561.093 207.135 560.36C206.135 559.627 205.568 558.627 205.435 557.36H208.215C208.362 557.867 208.675 558.267 209.155 558.56C209.648 558.867 210.242 559.02 210.935 559.02C211.748 559.02 212.408 558.773 212.915 558.28C213.422 557.8 213.675 557.067 213.675 556.08V554.36C213.315 554.88 212.815 555.313 212.175 555.66C211.548 556.007 210.828 556.18 210.015 556.18C209.082 556.18 208.228 555.94 207.455 555.46C206.682 554.98 206.068 554.307 205.615 553.44C205.175 552.56 204.955 551.553 204.955 550.42C204.955 549.3 205.175 548.307 205.615 547.44C206.068 546.573 206.675 545.907 207.435 545.44C208.208 544.973 209.068 544.74 210.015 544.74ZM213.675 550.46C213.675 549.78 213.542 549.2 213.275 548.72C213.008 548.227 212.648 547.853 212.195 547.6C211.742 547.333 211.255 547.2 210.735 547.2C210.215 547.2 209.735 547.327 209.295 547.58C208.855 547.833 208.495 548.207 208.215 548.7C207.948 549.18 207.815 549.753 207.815 550.42C207.815 551.087 207.948 551.673 208.215 552.18C208.495 552.673 208.855 553.053 209.295 553.32C209.748 553.587 210.228 553.72 210.735 553.72C211.255 553.72 211.742 553.593 212.195 553.34C212.648 553.073 213.008 552.7 213.275 552.22C213.542 551.727 213.675 551.14 213.675 550.46ZM220.65 543.6C220.156 543.6 219.743 543.447 219.41 543.14C219.09 542.82 218.93 542.427 218.93 541.96C218.93 541.493 219.09 541.107 219.41 540.8C219.743 540.48 220.156 540.32 220.65 540.32C221.143 540.32 221.55 540.48 221.87 540.8C222.203 541.107 222.37 541.493 222.37 541.96C222.37 542.427 222.203 542.82 221.87 543.14C221.55 543.447 221.143 543.6 220.65 543.6ZM222.03 544.92V556H219.23V544.92H222.03ZM230.936 544.76C232.256 544.76 233.323 545.18 234.136 546.02C234.949 546.847 235.356 548.007 235.356 549.5V556H232.556V549.88C232.556 549 232.336 548.327 231.896 547.86C231.456 547.38 230.856 547.14 230.096 547.14C229.323 547.14 228.709 547.38 228.256 547.86C227.816 548.327 227.596 549 227.596 549.88V556H224.796V544.92H227.596V546.3C227.969 545.82 228.443 545.447 229.016 545.18C229.603 544.9 230.243 544.76 230.936 544.76Z" fill="white"/>
</g>
<defs>
<filter id="filter0_d_32_1375" x="11" y="509" width="397" height="100" filterUnits="userSpaceOnUse" color-interpolation-filters="sRGB">
<feFlood flood-opacity="0" result="BackgroundImageFix"/>
<feColorMatrix in="SourceAlpha" type="matrix" values="0 0 0 0 0 0 0 0 0 0 0 0 0 0 0 0 0 0 127 0" result="hardAlpha"/>
<feOffset dy="10"/>
<feGaussianBlur stdDeviation="10"/>
<feComposite in2="hardAlpha" operator="out"/>
<feColorMatrix type="matrix" values="0 0 0 0 0.795833 0 0 0 0 0.84075 0 0 0 0 1 0 0 0 1 0"/>
<feBlend mode="normal" in2="BackgroundImageFix" result="effect1_dropShadow_32_1375"/>
<feBlend mode="normal" in="SourceGraphic" in2="effect1_dropShadow_32_1375" result="shape"/>
</filter>
</defs>
</svg>
