<svg width="428" height="926" viewBox="0 0 428 926" fill="none" xmlns="http://www.w3.org/2000/svg">
<rect width="428" height="926" rx="50" fill="white"/>
<path d="M175.079 176.04H181.799V180H169.949V158.94H175.079V176.04ZM191.866 180.24C190.226 180.24 188.746 179.89 187.426 179.19C186.126 178.49 185.096 177.49 184.336 176.19C183.596 174.89 183.226 173.37 183.226 171.63C183.226 169.91 183.606 168.4 184.366 167.1C185.126 165.78 186.166 164.77 187.486 164.07C188.806 163.37 190.286 163.02 191.926 163.02C193.566 163.02 195.046 163.37 196.366 164.07C197.686 164.77 198.726 165.78 199.486 167.1C200.246 168.4 200.626 169.91 200.626 171.63C200.626 173.35 200.236 174.87 199.456 176.19C198.696 177.49 197.646 178.49 196.306 179.19C194.986 179.89 193.506 180.24 191.866 180.24ZM191.866 175.8C192.846 175.8 193.676 175.44 194.356 174.72C195.056 174 195.406 172.97 195.406 171.63C195.406 170.29 195.066 169.26 194.386 168.54C193.726 167.82 192.906 167.46 191.926 167.46C190.926 167.46 190.096 167.82 189.436 168.54C188.776 169.24 188.446 170.27 188.446 171.63C188.446 172.97 188.766 174 189.406 174.72C190.066 175.44 190.886 175.8 191.866 175.8ZM209.707 163.02C210.887 163.02 211.917 163.26 212.797 163.74C213.697 164.22 214.387 164.85 214.867 165.63V163.26H219.997V179.97C219.997 181.51 219.687 182.9 219.067 184.14C218.467 185.4 217.537 186.4 216.277 187.14C215.037 187.88 213.487 188.25 211.627 188.25C209.147 188.25 207.137 187.66 205.597 186.48C204.057 185.32 203.177 183.74 202.957 181.74H208.027C208.187 182.38 208.567 182.88 209.167 183.24C209.767 183.62 210.507 183.81 211.387 183.81C212.447 183.81 213.287 183.5 213.907 182.88C214.547 182.28 214.867 181.31 214.867 179.97V177.6C214.367 178.38 213.677 179.02 212.797 179.52C211.917 180 210.887 180.24 209.707 180.24C208.327 180.24 207.077 179.89 205.957 179.19C204.837 178.47 203.947 177.46 203.287 176.16C202.647 174.84 202.327 173.32 202.327 171.6C202.327 169.88 202.647 168.37 203.287 167.07C203.947 165.77 204.837 164.77 205.957 164.07C207.077 163.37 208.327 163.02 209.707 163.02ZM214.867 171.63C214.867 170.35 214.507 169.34 213.787 168.6C213.087 167.86 212.227 167.49 211.207 167.49C210.187 167.49 209.317 167.86 208.597 168.6C207.897 169.32 207.547 170.32 207.547 171.6C207.547 172.88 207.897 173.9 208.597 174.66C209.317 175.4 210.187 175.77 211.207 175.77C212.227 175.77 213.087 175.4 213.787 174.66C214.507 173.92 214.867 172.91 214.867 171.63ZM226.289 161.52C225.389 161.52 224.649 161.26 224.069 160.74C223.509 160.2 223.229 159.54 223.229 158.76C223.229 157.96 223.509 157.3 224.069 156.78C224.649 156.24 225.389 155.97 226.289 155.97C227.169 155.97 227.889 156.24 228.449 156.78C229.029 157.3 229.319 157.96 229.319 158.76C229.319 159.54 229.029 160.2 228.449 160.74C227.889 161.26 227.169 161.52 226.289 161.52ZM228.839 163.26V180H223.709V163.26H228.839ZM242.756 163.08C244.716 163.08 246.276 163.72 247.436 165C248.616 166.26 249.206 168 249.206 170.22V180H244.106V170.91C244.106 169.79 243.816 168.92 243.236 168.3C242.656 167.68 241.876 167.37 240.896 167.37C239.916 167.37 239.136 167.68 238.556 168.3C237.976 168.92 237.686 169.79 237.686 170.91V180H232.556V163.26H237.686V165.48C238.206 164.74 238.906 164.16 239.786 163.74C240.666 163.3 241.656 163.08 242.756 163.08Z" fill="#039855"/>
<rect x="32" y="303" width="355" height="62" rx="9" fill="#F5F5F5"/>
<rect x="32" y="303" width="355" height="62" rx="9" stroke="#626262" stroke-width="2"/>
<path d="M54.3756 330.352V333.616H58.2156V335.104H54.3756V338.512H58.6956V340H52.5516V328.864H58.6956V330.352H54.3756ZM71.6142 331.04C72.3075 331.04 72.9262 331.184 73.4702 331.472C74.0249 331.76 74.4569 332.187 74.7662 332.752C75.0862 333.317 75.2462 334 75.2462 334.8V340H73.4382V335.072C73.4382 334.283 73.2409 333.68 72.8462 333.264C72.4515 332.837 71.9129 332.624 71.2302 332.624C70.5475 332.624 70.0035 332.837 69.5982 333.264C69.2035 333.68 69.0062 334.283 69.0062 335.072V340H67.1982V335.072C67.1982 334.283 67.0009 333.68 66.6062 333.264C66.2115 332.837 65.6729 332.624 64.9902 332.624C64.3075 332.624 63.7635 332.837 63.3582 333.264C62.9635 333.68 62.7662 334.283 62.7662 335.072V340H60.9422V331.184H62.7662V332.192C63.0649 331.829 63.4435 331.547 63.9022 331.344C64.3609 331.141 64.8515 331.04 65.3742 331.04C66.0782 331.04 66.7075 331.189 67.2622 331.488C67.8169 331.787 68.2435 332.219 68.5422 332.784C68.8089 332.251 69.2249 331.829 69.7902 331.52C70.3555 331.2 70.9635 331.04 71.6142 331.04ZM76.9592 335.552C76.9592 334.667 77.1405 333.883 77.5032 333.2C77.8765 332.517 78.3779 331.989 79.0072 331.616C79.6472 331.232 80.3512 331.04 81.1192 331.04C81.8125 331.04 82.4152 331.179 82.9272 331.456C83.4499 331.723 83.8659 332.059 84.1752 332.464V331.184H86.0152V340H84.1752V338.688C83.8659 339.104 83.4445 339.451 82.9112 339.728C82.3779 340.005 81.7699 340.144 81.0872 340.144C80.3299 340.144 79.6365 339.952 79.0072 339.568C78.3779 339.173 77.8765 338.629 77.5032 337.936C77.1405 337.232 76.9592 336.437 76.9592 335.552ZM84.1752 335.584C84.1752 334.976 84.0472 334.448 83.7912 334C83.5459 333.552 83.2205 333.211 82.8152 332.976C82.4099 332.741 81.9725 332.624 81.5032 332.624C81.0339 332.624 80.5965 332.741 80.1912 332.976C79.7859 333.2 79.4552 333.536 79.1992 333.984C78.9539 334.421 78.8312 334.944 78.8312 335.552C78.8312 336.16 78.9539 336.693 79.1992 337.152C79.4552 337.611 79.7859 337.963 80.1912 338.208C80.6072 338.443 81.0445 338.56 81.5032 338.56C81.9725 338.56 82.4099 338.443 82.8152 338.208C83.2205 337.973 83.5459 337.632 83.7912 337.184C84.0472 336.725 84.1752 336.192 84.1752 335.584ZM89.3389 330.016C89.0083 330.016 88.7309 329.904 88.5069 329.68C88.2829 329.456 88.1709 329.179 88.1709 328.848C88.1709 328.517 88.2829 328.24 88.5069 328.016C88.7309 327.792 89.0083 327.68 89.3389 327.68C89.6589 327.68 89.9309 327.792 90.1549 328.016C90.3789 328.24 90.4909 328.517 90.4909 328.848C90.4909 329.179 90.3789 329.456 90.1549 329.68C89.9309 329.904 89.6589 330.016 89.3389 330.016ZM90.2349 331.184V340H88.4109V331.184H90.2349ZM94.4537 328.16V340H92.6297V328.16H94.4537Z" fill="#626262"/>
<rect x="32" y="396" width="355" height="62" rx="9" fill="#F5F5F5"/>
<rect x="32" y="396" width="355" height="62" rx="9" stroke="#626262" stroke-width="2"/>
<path d="M60.0541 425.192C60.0541 425.757 59.9208 426.291 59.6541 426.792C59.3875 427.293 58.9608 427.704 58.3741 428.024C57.7875 428.333 57.0355 428.488 56.1181 428.488H54.1021V433H52.2781V421.88H56.1181C56.9715 421.88 57.6915 422.029 58.2781 422.328C58.8755 422.616 59.3181 423.011 59.6061 423.512C59.9048 424.013 60.0541 424.573 60.0541 425.192ZM56.1181 427C56.8115 427 57.3288 426.845 57.6701 426.536C58.0115 426.216 58.1821 425.768 58.1821 425.192C58.1821 423.976 57.4941 423.368 56.1181 423.368H54.1021V427H56.1181ZM61.1858 428.552C61.1858 427.667 61.3671 426.883 61.7298 426.2C62.1031 425.517 62.6044 424.989 63.2338 424.616C63.8738 424.232 64.5778 424.04 65.3458 424.04C66.0391 424.04 66.6418 424.179 67.1538 424.456C67.6764 424.723 68.0924 425.059 68.4018 425.464V424.184H70.2418V433H68.4018V431.688C68.0924 432.104 67.6711 432.451 67.1378 432.728C66.6044 433.005 65.9964 433.144 65.3138 433.144C64.5564 433.144 63.8631 432.952 63.2338 432.568C62.6044 432.173 62.1031 431.629 61.7298 430.936C61.3671 430.232 61.1858 429.437 61.1858 428.552ZM68.4018 428.584C68.4018 427.976 68.2738 427.448 68.0178 427C67.7724 426.552 67.4471 426.211 67.0418 425.976C66.6364 425.741 66.1991 425.624 65.7298 425.624C65.2604 425.624 64.8231 425.741 64.4178 425.976C64.0124 426.2 63.6818 426.536 63.4258 426.984C63.1804 427.421 63.0578 427.944 63.0578 428.552C63.0578 429.16 63.1804 429.693 63.4258 430.152C63.6818 430.611 64.0124 430.963 64.4178 431.208C64.8338 431.443 65.2711 431.56 65.7298 431.56C66.1991 431.56 66.6364 431.443 67.0418 431.208C67.4471 430.973 67.7724 430.632 68.0178 430.184C68.2738 429.725 68.4018 429.192 68.4018 428.584ZM75.8375 433.144C75.1442 433.144 74.5202 433.021 73.9655 432.776C73.4215 432.52 72.9895 432.179 72.6695 431.752C72.3495 431.315 72.1788 430.829 72.1575 430.296H74.0455C74.0775 430.669 74.2535 430.984 74.5735 431.24C74.9042 431.485 75.3148 431.608 75.8055 431.608C76.3175 431.608 76.7122 431.512 76.9895 431.32C77.2775 431.117 77.4215 430.861 77.4215 430.552C77.4215 430.221 77.2615 429.976 76.9415 429.816C76.6322 429.656 76.1362 429.48 75.4535 429.288C74.7922 429.107 74.2535 428.931 73.8375 428.76C73.4215 428.589 73.0588 428.328 72.7495 427.976C72.4508 427.624 72.3015 427.16 72.3015 426.584C72.3015 426.115 72.4402 425.688 72.7175 425.304C72.9948 424.909 73.3895 424.6 73.9015 424.376C74.4242 424.152 75.0215 424.04 75.6935 424.04C76.6962 424.04 77.5015 424.296 78.1095 424.808C78.7282 425.309 79.0588 425.997 79.1015 426.872H77.2775C77.2455 426.477 77.0855 426.163 76.7975 425.928C76.5095 425.693 76.1202 425.576 75.6295 425.576C75.1495 425.576 74.7815 425.667 74.5255 425.848C74.2695 426.029 74.1415 426.269 74.1415 426.568C74.1415 426.803 74.2268 427 74.3975 427.16C74.5682 427.32 74.7762 427.448 75.0215 427.544C75.2668 427.629 75.6295 427.741 76.1095 427.88C76.7495 428.051 77.2722 428.227 77.6775 428.408C78.0935 428.579 78.4508 428.835 78.7495 429.176C79.0482 429.517 79.2028 429.971 79.2135 430.536C79.2135 431.037 79.0748 431.485 78.7975 431.88C78.5202 432.275 78.1255 432.584 77.6135 432.808C77.1122 433.032 76.5202 433.144 75.8375 433.144ZM84.3844 433.144C83.691 433.144 83.067 433.021 82.5124 432.776C81.9684 432.52 81.5364 432.179 81.2164 431.752C80.8964 431.315 80.7257 430.829 80.7044 430.296H82.5924C82.6244 430.669 82.8004 430.984 83.1204 431.24C83.451 431.485 83.8617 431.608 84.3524 431.608C84.8644 431.608 85.259 431.512 85.5364 431.32C85.8244 431.117 85.9684 430.861 85.9684 430.552C85.9684 430.221 85.8084 429.976 85.4884 429.816C85.179 429.656 84.683 429.48 84.0004 429.288C83.339 429.107 82.8004 428.931 82.3844 428.76C81.9684 428.589 81.6057 428.328 81.2964 427.976C80.9977 427.624 80.8484 427.16 80.8484 426.584C80.8484 426.115 80.987 425.688 81.2644 425.304C81.5417 424.909 81.9364 424.6 82.4484 424.376C82.971 424.152 83.5684 424.04 84.2404 424.04C85.243 424.04 86.0484 424.296 86.6564 424.808C87.275 425.309 87.6057 425.997 87.6484 426.872H85.8244C85.7924 426.477 85.6324 426.163 85.3444 425.928C85.0564 425.693 84.667 425.576 84.1764 425.576C83.6964 425.576 83.3284 425.667 83.0724 425.848C82.8164 426.029 82.6884 426.269 82.6884 426.568C82.6884 426.803 82.7737 427 82.9444 427.16C83.115 427.32 83.323 427.448 83.5684 427.544C83.8137 427.629 84.1764 427.741 84.6564 427.88C85.2964 428.051 85.819 428.227 86.2244 428.408C86.6404 428.579 86.9977 428.835 87.2964 429.176C87.595 429.517 87.7497 429.971 87.7604 430.536C87.7604 431.037 87.6217 431.485 87.3444 431.88C87.067 432.275 86.6724 432.584 86.1604 432.808C85.659 433.032 85.067 433.144 84.3844 433.144ZM101.571 424.184L98.8353 433H96.9153L95.1393 426.488L93.3633 433H91.4433L88.6913 424.184H90.5473L92.3873 431.272L94.2593 424.184H96.1633L97.9553 431.24L99.7793 424.184H101.571ZM106.758 433.144C105.926 433.144 105.174 432.957 104.502 432.584C103.83 432.2 103.302 431.667 102.918 430.984C102.534 430.291 102.342 429.491 102.342 428.584C102.342 427.688 102.54 426.893 102.934 426.2C103.329 425.507 103.868 424.973 104.55 424.6C105.233 424.227 105.996 424.04 106.838 424.04C107.681 424.04 108.444 424.227 109.126 424.6C109.809 424.973 110.348 425.507 110.742 426.2C111.137 426.893 111.334 427.688 111.334 428.584C111.334 429.48 111.132 430.275 110.726 430.968C110.321 431.661 109.766 432.2 109.062 432.584C108.369 432.957 107.601 433.144 106.758 433.144ZM106.758 431.56C107.228 431.56 107.665 431.448 108.07 431.224C108.486 431 108.822 430.664 109.078 430.216C109.334 429.768 109.462 429.224 109.462 428.584C109.462 427.944 109.34 427.405 109.094 426.968C108.849 426.52 108.524 426.184 108.118 425.96C107.713 425.736 107.276 425.624 106.806 425.624C106.337 425.624 105.9 425.736 105.494 425.96C105.1 426.184 104.785 426.52 104.55 426.968C104.316 427.405 104.198 427.944 104.198 428.584C104.198 429.533 104.438 430.269 104.918 430.792C105.409 431.304 106.022 431.56 106.758 431.56ZM114.962 425.464C115.228 425.016 115.58 424.669 116.018 424.424C116.466 424.168 116.994 424.04 117.602 424.04V425.928H117.138C116.423 425.928 115.879 426.109 115.506 426.472C115.143 426.835 114.962 427.464 114.962 428.36V433H113.138V424.184H114.962V425.464ZM118.67 428.552C118.67 427.667 118.851 426.883 119.214 426.2C119.587 425.517 120.089 424.989 120.718 424.616C121.358 424.232 122.067 424.04 122.846 424.04C123.422 424.04 123.987 424.168 124.542 424.424C125.107 424.669 125.555 425 125.886 425.416V421.16H127.726V433H125.886V431.672C125.587 432.099 125.171 432.451 124.638 432.728C124.115 433.005 123.513 433.144 122.83 433.144C122.062 433.144 121.358 432.952 120.718 432.568C120.089 432.173 119.587 431.629 119.214 430.936C118.851 430.232 118.67 429.437 118.67 428.552ZM125.886 428.584C125.886 427.976 125.758 427.448 125.502 427C125.257 426.552 124.931 426.211 124.526 425.976C124.121 425.741 123.683 425.624 123.214 425.624C122.745 425.624 122.307 425.741 121.902 425.976C121.497 426.2 121.166 426.536 120.91 426.984C120.665 427.421 120.542 427.944 120.542 428.552C120.542 429.16 120.665 429.693 120.91 430.152C121.166 430.611 121.497 430.963 121.902 431.208C122.318 431.443 122.755 431.56 123.214 431.56C123.683 431.56 124.121 431.443 124.526 431.208C124.931 430.973 125.257 430.632 125.502 430.184C125.758 429.725 125.886 429.192 125.886 428.584Z" fill="#626262"/>
<path d="M232.248 494.228V495.81H228.174V498.316H231.296V499.87H228.174V504H226.214V494.228H232.248ZM237.082 504.126C236.335 504.126 235.663 503.963 235.066 503.636C234.469 503.3 233.997 502.829 233.652 502.222C233.316 501.615 233.148 500.915 233.148 500.122C233.148 499.329 233.321 498.629 233.666 498.022C234.021 497.415 234.501 496.949 235.108 496.622C235.715 496.286 236.391 496.118 237.138 496.118C237.885 496.118 238.561 496.286 239.168 496.622C239.775 496.949 240.251 497.415 240.596 498.022C240.951 498.629 241.128 499.329 241.128 500.122C241.128 500.915 240.946 501.615 240.582 502.222C240.227 502.829 239.742 503.3 239.126 503.636C238.519 503.963 237.838 504.126 237.082 504.126ZM237.082 502.418C237.437 502.418 237.768 502.334 238.076 502.166C238.393 501.989 238.645 501.727 238.832 501.382C239.019 501.037 239.112 500.617 239.112 500.122C239.112 499.385 238.916 498.82 238.524 498.428C238.141 498.027 237.67 497.826 237.11 497.826C236.55 497.826 236.079 498.027 235.696 498.428C235.323 498.82 235.136 499.385 235.136 500.122C235.136 500.859 235.318 501.429 235.682 501.83C236.055 502.222 236.522 502.418 237.082 502.418ZM244.526 497.448C244.778 497.037 245.104 496.715 245.506 496.482C245.916 496.249 246.383 496.132 246.906 496.132V498.19H246.388C245.772 498.19 245.305 498.335 244.988 498.624C244.68 498.913 244.526 499.417 244.526 500.136V504H242.566V496.244H244.526V497.448ZM251.264 496.118C251.842 496.118 252.351 496.235 252.79 496.468C253.228 496.692 253.574 496.986 253.826 497.35V496.244H255.8V504.056C255.8 504.775 255.655 505.414 255.366 505.974C255.076 506.543 254.642 506.991 254.064 507.318C253.485 507.654 252.785 507.822 251.964 507.822C250.862 507.822 249.957 507.565 249.248 507.052C248.548 506.539 248.151 505.839 248.058 504.952H250.004C250.106 505.307 250.326 505.587 250.662 505.792C251.007 506.007 251.422 506.114 251.908 506.114C252.477 506.114 252.939 505.941 253.294 505.596C253.648 505.26 253.826 504.747 253.826 504.056V502.852C253.574 503.216 253.224 503.519 252.776 503.762C252.337 504.005 251.833 504.126 251.264 504.126C250.61 504.126 250.013 503.958 249.472 503.622C248.93 503.286 248.501 502.815 248.184 502.208C247.876 501.592 247.722 500.887 247.722 500.094C247.722 499.31 247.876 498.615 248.184 498.008C248.501 497.401 248.926 496.935 249.458 496.608C249.999 496.281 250.601 496.118 251.264 496.118ZM253.826 500.122C253.826 499.646 253.732 499.24 253.546 498.904C253.359 498.559 253.107 498.297 252.79 498.12C252.472 497.933 252.132 497.84 251.768 497.84C251.404 497.84 251.068 497.929 250.76 498.106C250.452 498.283 250.2 498.545 250.004 498.89C249.817 499.226 249.724 499.627 249.724 500.094C249.724 500.561 249.817 500.971 250.004 501.326C250.2 501.671 250.452 501.937 250.76 502.124C251.077 502.311 251.413 502.404 251.768 502.404C252.132 502.404 252.472 502.315 252.79 502.138C253.107 501.951 253.359 501.69 253.546 501.354C253.732 501.009 253.826 500.598 253.826 500.122ZM261.158 504.126C260.411 504.126 259.739 503.963 259.142 503.636C258.545 503.3 258.073 502.829 257.728 502.222C257.392 501.615 257.224 500.915 257.224 500.122C257.224 499.329 257.397 498.629 257.742 498.022C258.097 497.415 258.577 496.949 259.184 496.622C259.791 496.286 260.467 496.118 261.214 496.118C261.961 496.118 262.637 496.286 263.244 496.622C263.851 496.949 264.327 497.415 264.672 498.022C265.027 498.629 265.204 499.329 265.204 500.122C265.204 500.915 265.022 501.615 264.658 502.222C264.303 502.829 263.818 503.3 263.202 503.636C262.595 503.963 261.914 504.126 261.158 504.126ZM261.158 502.418C261.513 502.418 261.844 502.334 262.152 502.166C262.469 501.989 262.721 501.727 262.908 501.382C263.095 501.037 263.188 500.617 263.188 500.122C263.188 499.385 262.992 498.82 262.6 498.428C262.217 498.027 261.746 497.826 261.186 497.826C260.626 497.826 260.155 498.027 259.772 498.428C259.399 498.82 259.212 499.385 259.212 500.122C259.212 500.859 259.394 501.429 259.758 501.83C260.131 502.222 260.598 502.418 261.158 502.418ZM268.924 497.854V501.606C268.924 501.867 268.984 502.059 269.106 502.18C269.236 502.292 269.451 502.348 269.75 502.348H270.66V504H269.428C267.776 504 266.95 503.197 266.95 501.592V497.854H266.026V496.244H266.95V494.326H268.924V496.244H270.66V497.854H268.924ZM282.825 496.244L278.023 507.668H275.937L277.617 503.804L274.509 496.244H276.707L278.709 501.662L280.739 496.244H282.825ZM287.326 504.126C286.579 504.126 285.907 503.963 285.31 503.636C284.713 503.3 284.241 502.829 283.896 502.222C283.56 501.615 283.392 500.915 283.392 500.122C283.392 499.329 283.565 498.629 283.91 498.022C284.265 497.415 284.745 496.949 285.352 496.622C285.959 496.286 286.635 496.118 287.382 496.118C288.129 496.118 288.805 496.286 289.412 496.622C290.019 496.949 290.495 497.415 290.84 498.022C291.195 498.629 291.372 499.329 291.372 500.122C291.372 500.915 291.19 501.615 290.826 502.222C290.471 502.829 289.986 503.3 289.37 503.636C288.763 503.963 288.082 504.126 287.326 504.126ZM287.326 502.418C287.681 502.418 288.012 502.334 288.32 502.166C288.637 501.989 288.889 501.727 289.076 501.382C289.263 501.037 289.356 500.617 289.356 500.122C289.356 499.385 289.16 498.82 288.768 498.428C288.385 498.027 287.914 497.826 287.354 497.826C286.794 497.826 286.323 498.027 285.94 498.428C285.567 498.82 285.38 499.385 285.38 500.122C285.38 500.859 285.562 501.429 285.926 501.83C286.299 502.222 286.766 502.418 287.326 502.418ZM300.132 496.244V504H298.158V503.02C297.906 503.356 297.574 503.622 297.164 503.818C296.762 504.005 296.324 504.098 295.848 504.098C295.241 504.098 294.704 503.972 294.238 503.72C293.771 503.459 293.402 503.081 293.132 502.586C292.87 502.082 292.74 501.485 292.74 500.794V496.244H294.7V500.514C294.7 501.13 294.854 501.606 295.162 501.942C295.47 502.269 295.89 502.432 296.422 502.432C296.963 502.432 297.388 502.269 297.696 501.942C298.004 501.606 298.158 501.13 298.158 500.514V496.244H300.132ZM304.026 497.448C304.278 497.037 304.604 496.715 305.006 496.482C305.416 496.249 305.883 496.132 306.406 496.132V498.19H305.888C305.272 498.19 304.805 498.335 304.488 498.624C304.18 498.913 304.026 499.417 304.026 500.136V504H302.066V496.244H304.026V497.448ZM313.022 497.364C313.274 497.009 313.619 496.715 314.058 496.482C314.506 496.239 315.014 496.118 315.584 496.118C316.246 496.118 316.844 496.281 317.376 496.608C317.917 496.935 318.342 497.401 318.65 498.008C318.967 498.605 319.126 499.301 319.126 500.094C319.126 500.887 318.967 501.592 318.65 502.208C318.342 502.815 317.917 503.286 317.376 503.622C316.844 503.958 316.246 504.126 315.584 504.126C315.014 504.126 314.51 504.009 314.072 503.776C313.642 503.543 313.292 503.249 313.022 502.894V507.696H311.062V496.244H313.022V497.364ZM317.124 500.094C317.124 499.627 317.026 499.226 316.83 498.89C316.643 498.545 316.391 498.283 316.074 498.106C315.766 497.929 315.43 497.84 315.066 497.84C314.711 497.84 314.375 497.933 314.058 498.12C313.75 498.297 313.498 498.559 313.302 498.904C313.115 499.249 313.022 499.655 313.022 500.122C313.022 500.589 313.115 500.995 313.302 501.34C313.498 501.685 313.75 501.951 314.058 502.138C314.375 502.315 314.711 502.404 315.066 502.404C315.43 502.404 315.766 502.311 316.074 502.124C316.391 501.937 316.643 501.671 316.83 501.326C317.026 500.981 317.124 500.57 317.124 500.094ZM320.046 500.094C320.046 499.31 320.2 498.615 320.508 498.008C320.825 497.401 321.25 496.935 321.782 496.608C322.323 496.281 322.925 496.118 323.588 496.118C324.167 496.118 324.671 496.235 325.1 496.468C325.539 496.701 325.889 496.995 326.15 497.35V496.244H328.124V504H326.15V502.866C325.898 503.23 325.548 503.533 325.1 503.776C324.661 504.009 324.153 504.126 323.574 504.126C322.921 504.126 322.323 503.958 321.782 503.622C321.25 503.286 320.825 502.815 320.508 502.208C320.2 501.592 320.046 500.887 320.046 500.094ZM326.15 500.122C326.15 499.646 326.057 499.24 325.87 498.904C325.683 498.559 325.431 498.297 325.114 498.12C324.797 497.933 324.456 497.84 324.092 497.84C323.728 497.84 323.392 497.929 323.084 498.106C322.776 498.283 322.524 498.545 322.328 498.89C322.141 499.226 322.048 499.627 322.048 500.094C322.048 500.561 322.141 500.971 322.328 501.326C322.524 501.671 322.776 501.937 323.084 502.124C323.401 502.311 323.737 502.404 324.092 502.404C324.456 502.404 324.797 502.315 325.114 502.138C325.431 501.951 325.683 501.69 325.87 501.354C326.057 501.009 326.15 500.598 326.15 500.122ZM333.006 504.126C332.372 504.126 331.802 504.014 331.298 503.79C330.794 503.557 330.393 503.244 330.094 502.852C329.805 502.46 329.646 502.026 329.618 501.55H331.592C331.63 501.849 331.774 502.096 332.026 502.292C332.288 502.488 332.61 502.586 332.992 502.586C333.366 502.586 333.655 502.511 333.86 502.362C334.075 502.213 334.182 502.021 334.182 501.788C334.182 501.536 334.052 501.349 333.79 501.228C333.538 501.097 333.132 500.957 332.572 500.808C331.994 500.668 331.518 500.523 331.144 500.374C330.78 500.225 330.463 499.996 330.192 499.688C329.931 499.38 329.8 498.965 329.8 498.442C329.8 498.013 329.922 497.621 330.164 497.266C330.416 496.911 330.771 496.631 331.228 496.426C331.695 496.221 332.241 496.118 332.866 496.118C333.79 496.118 334.528 496.351 335.078 496.818C335.629 497.275 335.932 497.896 335.988 498.68H334.112C334.084 498.372 333.954 498.129 333.72 497.952C333.496 497.765 333.193 497.672 332.81 497.672C332.456 497.672 332.18 497.737 331.984 497.868C331.798 497.999 331.704 498.181 331.704 498.414C331.704 498.675 331.835 498.876 332.096 499.016C332.358 499.147 332.764 499.282 333.314 499.422C333.874 499.562 334.336 499.707 334.7 499.856C335.064 500.005 335.377 500.239 335.638 500.556C335.909 500.864 336.049 501.275 336.058 501.788C336.058 502.236 335.932 502.637 335.68 502.992C335.438 503.347 335.083 503.627 334.616 503.832C334.159 504.028 333.622 504.126 333.006 504.126ZM340.635 504.126C340.001 504.126 339.431 504.014 338.927 503.79C338.423 503.557 338.022 503.244 337.723 502.852C337.434 502.46 337.275 502.026 337.247 501.55H339.221C339.259 501.849 339.403 502.096 339.655 502.292C339.917 502.488 340.239 502.586 340.621 502.586C340.995 502.586 341.284 502.511 341.489 502.362C341.704 502.213 341.811 502.021 341.811 501.788C341.811 501.536 341.681 501.349 341.419 501.228C341.167 501.097 340.761 500.957 340.201 500.808C339.623 500.668 339.147 500.523 338.773 500.374C338.409 500.225 338.092 499.996 337.821 499.688C337.56 499.38 337.429 498.965 337.429 498.442C337.429 498.013 337.551 497.621 337.793 497.266C338.045 496.911 338.4 496.631 338.857 496.426C339.324 496.221 339.87 496.118 340.495 496.118C341.419 496.118 342.157 496.351 342.707 496.818C343.258 497.275 343.561 497.896 343.617 498.68H341.741C341.713 498.372 341.583 498.129 341.349 497.952C341.125 497.765 340.822 497.672 340.439 497.672C340.085 497.672 339.809 497.737 339.613 497.868C339.427 497.999 339.333 498.181 339.333 498.414C339.333 498.675 339.464 498.876 339.725 499.016C339.987 499.147 340.393 499.282 340.943 499.422C341.503 499.562 341.965 499.707 342.329 499.856C342.693 500.005 343.006 500.239 343.267 500.556C343.538 500.864 343.678 501.275 343.687 501.788C343.687 502.236 343.561 502.637 343.309 502.992C343.067 503.347 342.712 503.627 342.245 503.832C341.788 504.028 341.251 504.126 340.635 504.126ZM356.048 496.244L353.78 504H351.666L350.252 498.582L348.838 504H346.71L344.428 496.244H346.416L347.788 502.152L349.272 496.244H351.344L352.8 502.138L354.172 496.244H356.048ZM360.553 504.126C359.806 504.126 359.134 503.963 358.537 503.636C357.939 503.3 357.468 502.829 357.123 502.222C356.787 501.615 356.619 500.915 356.619 500.122C356.619 499.329 356.791 498.629 357.137 498.022C357.491 497.415 357.972 496.949 358.579 496.622C359.185 496.286 359.862 496.118 360.609 496.118C361.355 496.118 362.032 496.286 362.639 496.622C363.245 496.949 363.721 497.415 364.067 498.022C364.421 498.629 364.599 499.329 364.599 500.122C364.599 500.915 364.417 501.615 364.053 502.222C363.698 502.829 363.213 503.3 362.597 503.636C361.99 503.963 361.309 504.126 360.553 504.126ZM360.553 502.418C360.907 502.418 361.239 502.334 361.547 502.166C361.864 501.989 362.116 501.727 362.303 501.382C362.489 501.037 362.583 500.617 362.583 500.122C362.583 499.385 362.387 498.82 361.995 498.428C361.612 498.027 361.141 497.826 360.581 497.826C360.021 497.826 359.549 498.027 359.167 498.428C358.793 498.82 358.607 499.385 358.607 500.122C358.607 500.859 358.789 501.429 359.153 501.83C359.526 502.222 359.993 502.418 360.553 502.418ZM367.996 497.448C368.248 497.037 368.575 496.715 368.976 496.482C369.387 496.249 369.854 496.132 370.376 496.132V498.19H369.858C369.242 498.19 368.776 498.335 368.458 498.624C368.15 498.913 367.996 499.417 367.996 500.136V504H366.036V496.244H367.996V497.448ZM371.192 500.094C371.192 499.31 371.346 498.615 371.654 498.008C371.972 497.401 372.401 496.935 372.942 496.608C373.484 496.281 374.086 496.118 374.748 496.118C375.252 496.118 375.733 496.23 376.19 496.454C376.648 496.669 377.012 496.958 377.282 497.322V493.64H379.27V504H377.282V502.852C377.04 503.235 376.699 503.543 376.26 503.776C375.822 504.009 375.313 504.126 374.734 504.126C374.081 504.126 373.484 503.958 372.942 503.622C372.401 503.286 371.972 502.815 371.654 502.208C371.346 501.592 371.192 500.887 371.192 500.094ZM377.296 500.122C377.296 499.646 377.203 499.24 377.016 498.904C376.83 498.559 376.578 498.297 376.26 498.12C375.943 497.933 375.602 497.84 375.238 497.84C374.874 497.84 374.538 497.929 374.23 498.106C373.922 498.283 373.67 498.545 373.474 498.89C373.288 499.226 373.194 499.627 373.194 500.094C373.194 500.561 373.288 500.971 373.474 501.326C373.67 501.671 373.922 501.937 374.23 502.124C374.548 502.311 374.884 502.404 375.238 502.404C375.602 502.404 375.943 502.315 376.26 502.138C376.578 501.951 376.83 501.69 377.016 501.354C377.203 501.009 377.296 500.598 377.296 500.122ZM383.915 493.892C384.885 493.892 385.665 494.158 386.253 494.69C386.85 495.213 387.149 495.936 387.149 496.86C387.149 497.775 386.855 498.475 386.267 498.96C385.679 499.436 384.899 499.674 383.929 499.674L383.873 500.752H382.151L382.081 498.372H382.711C383.523 498.372 384.148 498.265 384.587 498.05C385.025 497.835 385.245 497.443 385.245 496.874C385.245 496.463 385.123 496.137 384.881 495.894C384.647 495.651 384.325 495.53 383.915 495.53C383.485 495.53 383.149 495.647 382.907 495.88C382.673 496.113 382.557 496.435 382.557 496.846H380.709C380.699 496.277 380.821 495.768 381.073 495.32C381.325 494.872 381.693 494.522 382.179 494.27C382.673 494.018 383.252 493.892 383.915 493.892ZM383.005 504.098C382.65 504.098 382.356 503.991 382.123 503.776C381.899 503.552 381.787 503.277 381.787 502.95C381.787 502.623 381.899 502.353 382.123 502.138C382.356 501.914 382.65 501.802 383.005 501.802C383.35 501.802 383.635 501.914 383.859 502.138C384.083 502.353 384.195 502.623 384.195 502.95C384.195 503.277 384.083 503.552 383.859 503.776C383.635 503.991 383.35 504.098 383.005 504.098Z" fill="#039855"/>
<g filter="url(#filter0_d_3_56)">
<rect x="31" y="540" width="357" height="60" rx="10" fill="#039855" shape-rendering="crispEdges"/>
<path d="M186.541 574.78H191.141V577H183.741V563.04H186.541V574.78ZM197.841 577.18C196.774 577.18 195.814 576.947 194.961 576.48C194.108 576 193.434 575.327 192.941 574.46C192.461 573.593 192.221 572.593 192.221 571.46C192.221 570.327 192.468 569.327 192.961 568.46C193.468 567.593 194.154 566.927 195.021 566.46C195.888 565.98 196.854 565.74 197.921 565.74C198.988 565.74 199.954 565.98 200.821 566.46C201.688 566.927 202.368 567.593 202.861 568.46C203.368 569.327 203.621 570.327 203.621 571.46C203.621 572.593 203.361 573.593 202.841 574.46C202.334 575.327 201.641 576 200.761 576.48C199.894 576.947 198.921 577.18 197.841 577.18ZM197.841 574.74C198.348 574.74 198.821 574.62 199.261 574.38C199.714 574.127 200.074 573.753 200.341 573.26C200.608 572.767 200.741 572.167 200.741 571.46C200.741 570.407 200.461 569.6 199.901 569.04C199.354 568.467 198.681 568.18 197.881 568.18C197.081 568.18 196.408 568.467 195.861 569.04C195.328 569.6 195.061 570.407 195.061 571.46C195.061 572.513 195.321 573.327 195.841 573.9C196.374 574.46 197.041 574.74 197.841 574.74ZM210.015 565.74C210.842 565.74 211.568 565.907 212.195 566.24C212.822 566.56 213.315 566.98 213.675 567.5V565.92H216.495V577.08C216.495 578.107 216.288 579.02 215.875 579.82C215.462 580.633 214.842 581.273 214.015 581.74C213.188 582.22 212.188 582.46 211.015 582.46C209.442 582.46 208.148 582.093 207.135 581.36C206.135 580.627 205.568 579.627 205.435 578.36H208.215C208.362 578.867 208.675 579.267 209.155 579.56C209.648 579.867 210.242 580.02 210.935 580.02C211.748 580.02 212.408 579.773 212.915 579.28C213.422 578.8 213.675 578.067 213.675 577.08V575.36C213.315 575.88 212.815 576.313 212.175 576.66C211.548 577.007 210.828 577.18 210.015 577.18C209.082 577.18 208.228 576.94 207.455 576.46C206.682 575.98 206.068 575.307 205.615 574.44C205.175 573.56 204.955 572.553 204.955 571.42C204.955 570.3 205.175 569.307 205.615 568.44C206.068 567.573 206.675 566.907 207.435 566.44C208.208 565.973 209.068 565.74 210.015 565.74ZM213.675 571.46C213.675 570.78 213.542 570.2 213.275 569.72C213.008 569.227 212.648 568.853 212.195 568.6C211.742 568.333 211.255 568.2 210.735 568.2C210.215 568.2 209.735 568.327 209.295 568.58C208.855 568.833 208.495 569.207 208.215 569.7C207.948 570.18 207.815 570.753 207.815 571.42C207.815 572.087 207.948 572.673 208.215 573.18C208.495 573.673 208.855 574.053 209.295 574.32C209.748 574.587 210.228 574.72 210.735 574.72C211.255 574.72 211.742 574.593 212.195 574.34C212.648 574.073 213.008 573.7 213.275 573.22C213.542 572.727 213.675 572.14 213.675 571.46ZM220.65 564.6C220.156 564.6 219.743 564.447 219.41 564.14C219.09 563.82 218.93 563.427 218.93 562.96C218.93 562.493 219.09 562.107 219.41 561.8C219.743 561.48 220.156 561.32 220.65 561.32C221.143 561.32 221.55 561.48 221.87 561.8C222.203 562.107 222.37 562.493 222.37 562.96C222.37 563.427 222.203 563.82 221.87 564.14C221.55 564.447 221.143 564.6 220.65 564.6ZM222.03 565.92V577H219.23V565.92H222.03ZM230.936 565.76C232.256 565.76 233.323 566.18 234.136 567.02C234.949 567.847 235.356 569.007 235.356 570.5V577H232.556V570.88C232.556 570 232.336 569.327 231.896 568.86C231.456 568.38 230.856 568.14 230.096 568.14C229.323 568.14 228.709 568.38 228.256 568.86C227.816 569.327 227.596 570 227.596 570.88V577H224.796V565.92H227.596V567.3C227.969 566.82 228.443 566.447 229.016 566.18C229.603 565.9 230.243 565.76 230.936 565.76Z" fill="white"/>
</g>
<rect x="31" y="630" width="357" height="41" rx="10" fill="white"/>
<path d="M137.898 650.1C137.898 649.139 138.113 648.28 138.542 647.524C138.981 646.759 139.574 646.166 140.32 645.746C141.076 645.317 141.921 645.102 142.854 645.102C143.946 645.102 144.903 645.382 145.724 645.942C146.546 646.502 147.12 647.277 147.446 648.266H145.192C144.968 647.799 144.651 647.449 144.24 647.216C143.839 646.983 143.372 646.866 142.84 646.866C142.271 646.866 141.762 647.001 141.314 647.272C140.876 647.533 140.53 647.907 140.278 648.392C140.036 648.877 139.914 649.447 139.914 650.1C139.914 650.744 140.036 651.313 140.278 651.808C140.53 652.293 140.876 652.671 141.314 652.942C141.762 653.203 142.271 653.334 142.84 653.334C143.372 653.334 143.839 653.217 144.24 652.984C144.651 652.741 144.968 652.387 145.192 651.92H147.446C147.12 652.919 146.546 653.698 145.724 654.258C144.912 654.809 143.956 655.084 142.854 655.084C141.921 655.084 141.076 654.874 140.32 654.454C139.574 654.025 138.981 653.432 138.542 652.676C138.113 651.92 137.898 651.061 137.898 650.1ZM151.08 648.448C151.332 648.037 151.659 647.715 152.06 647.482C152.471 647.249 152.938 647.132 153.46 647.132V649.19H152.942C152.326 649.19 151.86 649.335 151.542 649.624C151.234 649.913 151.08 650.417 151.08 651.136V655H149.12V647.244H151.08V648.448ZM161.99 650.954C161.99 651.234 161.972 651.486 161.934 651.71H156.264C156.311 652.27 156.507 652.709 156.852 653.026C157.198 653.343 157.622 653.502 158.126 653.502C158.854 653.502 159.372 653.189 159.68 652.564H161.794C161.57 653.311 161.141 653.927 160.506 654.412C159.872 654.888 159.092 655.126 158.168 655.126C157.422 655.126 156.75 654.963 156.152 654.636C155.564 654.3 155.102 653.829 154.766 653.222C154.44 652.615 154.276 651.915 154.276 651.122C154.276 650.319 154.44 649.615 154.766 649.008C155.093 648.401 155.55 647.935 156.138 647.608C156.726 647.281 157.403 647.118 158.168 647.118C158.906 647.118 159.564 647.277 160.142 647.594C160.73 647.911 161.183 648.364 161.5 648.952C161.827 649.531 161.99 650.198 161.99 650.954ZM159.96 650.394C159.951 649.89 159.769 649.489 159.414 649.19C159.06 648.882 158.626 648.728 158.112 648.728C157.627 648.728 157.216 648.877 156.88 649.176C156.554 649.465 156.353 649.871 156.278 650.394H159.96ZM162.917 651.094C162.917 650.31 163.071 649.615 163.379 649.008C163.696 648.401 164.121 647.935 164.653 647.608C165.194 647.281 165.796 647.118 166.459 647.118C167.038 647.118 167.542 647.235 167.971 647.468C168.41 647.701 168.76 647.995 169.021 648.35V647.244H170.995V655H169.021V653.866C168.769 654.23 168.419 654.533 167.971 654.776C167.532 655.009 167.024 655.126 166.445 655.126C165.792 655.126 165.194 654.958 164.653 654.622C164.121 654.286 163.696 653.815 163.379 653.208C163.071 652.592 162.917 651.887 162.917 651.094ZM169.021 651.122C169.021 650.646 168.928 650.24 168.741 649.904C168.554 649.559 168.302 649.297 167.985 649.12C167.668 648.933 167.327 648.84 166.963 648.84C166.599 648.84 166.263 648.929 165.955 649.106C165.647 649.283 165.395 649.545 165.199 649.89C165.012 650.226 164.919 650.627 164.919 651.094C164.919 651.561 165.012 651.971 165.199 652.326C165.395 652.671 165.647 652.937 165.955 653.124C166.272 653.311 166.608 653.404 166.963 653.404C167.327 653.404 167.668 653.315 167.985 653.138C168.302 652.951 168.554 652.69 168.741 652.354C168.928 652.009 169.021 651.598 169.021 651.122ZM175.191 648.854V652.606C175.191 652.867 175.252 653.059 175.373 653.18C175.504 653.292 175.719 653.348 176.017 653.348H176.927V655H175.695C174.043 655 173.217 654.197 173.217 652.592V648.854H172.293V647.244H173.217V645.326H175.191V647.244H176.927V648.854H175.191ZM185.547 650.954C185.547 651.234 185.528 651.486 185.491 651.71H179.821C179.868 652.27 180.064 652.709 180.409 653.026C180.754 653.343 181.179 653.502 181.683 653.502C182.411 653.502 182.929 653.189 183.237 652.564H185.351C185.127 653.311 184.698 653.927 184.063 654.412C183.428 654.888 182.649 655.126 181.725 655.126C180.978 655.126 180.306 654.963 179.709 654.636C179.121 654.3 178.659 653.829 178.323 653.222C177.996 652.615 177.833 651.915 177.833 651.122C177.833 650.319 177.996 649.615 178.323 649.008C178.65 648.401 179.107 647.935 179.695 647.608C180.283 647.281 180.96 647.118 181.725 647.118C182.462 647.118 183.12 647.277 183.699 647.594C184.287 647.911 184.74 648.364 185.057 648.952C185.384 649.531 185.547 650.198 185.547 650.954ZM183.517 650.394C183.508 649.89 183.326 649.489 182.971 649.19C182.616 648.882 182.182 648.728 181.669 648.728C181.184 648.728 180.773 648.877 180.437 649.176C180.11 649.465 179.91 649.871 179.835 650.394H183.517ZM194.612 647.132C195.536 647.132 196.282 647.426 196.852 648.014C197.421 648.593 197.706 649.405 197.706 650.45V655H195.746V650.716C195.746 650.1 195.592 649.629 195.284 649.302C194.976 648.966 194.556 648.798 194.024 648.798C193.482 648.798 193.053 648.966 192.736 649.302C192.428 649.629 192.274 650.1 192.274 650.716V655H190.314V647.244H192.274V648.21C192.535 647.874 192.866 647.613 193.268 647.426C193.678 647.23 194.126 647.132 194.612 647.132ZM206.78 650.954C206.78 651.234 206.761 651.486 206.724 651.71H201.054C201.1 652.27 201.296 652.709 201.642 653.026C201.987 653.343 202.412 653.502 202.916 653.502C203.644 653.502 204.162 653.189 204.47 652.564H206.584C206.36 653.311 205.93 653.927 205.296 654.412C204.661 654.888 203.882 655.126 202.958 655.126C202.211 655.126 201.539 654.963 200.942 654.636C200.354 654.3 199.892 653.829 199.556 653.222C199.229 652.615 199.066 651.915 199.066 651.122C199.066 650.319 199.229 649.615 199.556 649.008C199.882 648.401 200.34 647.935 200.928 647.608C201.516 647.281 202.192 647.118 202.958 647.118C203.695 647.118 204.353 647.277 204.932 647.594C205.52 647.911 205.972 648.364 206.29 648.952C206.616 649.531 206.78 650.198 206.78 650.954ZM204.75 650.394C204.74 649.89 204.558 649.489 204.204 649.19C203.849 648.882 203.415 648.728 202.902 648.728C202.416 648.728 202.006 648.877 201.67 649.176C201.343 649.465 201.142 649.871 201.068 650.394H204.75ZM218.962 647.244L216.694 655H214.58L213.166 649.582L211.752 655H209.624L207.342 647.244H209.33L210.702 653.152L212.186 647.244H214.258L215.714 653.138L217.086 647.244H218.962ZM222.855 651.094C222.855 650.31 223.009 649.615 223.317 649.008C223.634 648.401 224.059 647.935 224.591 647.608C225.132 647.281 225.734 647.118 226.397 647.118C226.975 647.118 227.479 647.235 227.909 647.468C228.347 647.701 228.697 647.995 228.959 648.35V647.244H230.933V655H228.959V653.866C228.707 654.23 228.357 654.533 227.909 654.776C227.47 655.009 226.961 655.126 226.383 655.126C225.729 655.126 225.132 654.958 224.591 654.622C224.059 654.286 223.634 653.815 223.317 653.208C223.009 652.592 222.855 651.887 222.855 651.094ZM228.959 651.122C228.959 650.646 228.865 650.24 228.679 649.904C228.492 649.559 228.24 649.297 227.923 649.12C227.605 648.933 227.265 648.84 226.901 648.84C226.537 648.84 226.201 648.929 225.893 649.106C225.585 649.283 225.333 649.545 225.137 649.89C224.95 650.226 224.857 650.627 224.857 651.094C224.857 651.561 224.95 651.971 225.137 652.326C225.333 652.671 225.585 652.937 225.893 653.124C226.21 653.311 226.546 653.404 226.901 653.404C227.265 653.404 227.605 653.315 227.923 653.138C228.24 652.951 228.492 652.69 228.679 652.354C228.865 652.009 228.959 651.598 228.959 651.122ZM232.343 651.122C232.343 650.319 232.506 649.619 232.833 649.022C233.16 648.415 233.612 647.949 234.191 647.622C234.77 647.286 235.432 647.118 236.179 647.118C237.14 647.118 237.934 647.361 238.559 647.846C239.194 648.322 239.618 648.994 239.833 649.862H237.719C237.607 649.526 237.416 649.265 237.145 649.078C236.884 648.882 236.557 648.784 236.165 648.784C235.605 648.784 235.162 648.989 234.835 649.4C234.508 649.801 234.345 650.375 234.345 651.122C234.345 651.859 234.508 652.433 234.835 652.844C235.162 653.245 235.605 653.446 236.165 653.446C236.958 653.446 237.476 653.091 237.719 652.382H239.833C239.618 653.222 239.194 653.889 238.559 654.384C237.924 654.879 237.131 655.126 236.179 655.126C235.432 655.126 234.77 654.963 234.191 654.636C233.612 654.3 233.16 653.833 232.833 653.236C232.506 652.629 232.343 651.925 232.343 651.122ZM240.765 651.122C240.765 650.319 240.928 649.619 241.255 649.022C241.581 648.415 242.034 647.949 242.613 647.622C243.191 647.286 243.854 647.118 244.601 647.118C245.562 647.118 246.355 647.361 246.981 647.846C247.615 648.322 248.04 648.994 248.255 649.862H246.141C246.029 649.526 245.837 649.265 245.567 649.078C245.305 648.882 244.979 648.784 244.587 648.784C244.027 648.784 243.583 648.989 243.257 649.4C242.93 649.801 242.767 650.375 242.767 651.122C242.767 651.859 242.93 652.433 243.257 652.844C243.583 653.245 244.027 653.446 244.587 653.446C245.38 653.446 245.898 653.091 246.141 652.382H248.255C248.04 653.222 247.615 653.889 246.981 654.384C246.346 654.879 245.553 655.126 244.601 655.126C243.854 655.126 243.191 654.963 242.613 654.636C242.034 654.3 241.581 653.833 241.255 653.236C240.928 652.629 240.765 651.925 240.765 651.122ZM253.135 655.126C252.388 655.126 251.716 654.963 251.119 654.636C250.521 654.3 250.05 653.829 249.705 653.222C249.369 652.615 249.201 651.915 249.201 651.122C249.201 650.329 249.373 649.629 249.719 649.022C250.073 648.415 250.554 647.949 251.161 647.622C251.767 647.286 252.444 647.118 253.191 647.118C253.937 647.118 254.614 647.286 255.221 647.622C255.827 647.949 256.303 648.415 256.649 649.022C257.003 649.629 257.181 650.329 257.181 651.122C257.181 651.915 256.999 652.615 256.635 653.222C256.28 653.829 255.795 654.3 255.179 654.636C254.572 654.963 253.891 655.126 253.135 655.126ZM253.135 653.418C253.489 653.418 253.821 653.334 254.129 653.166C254.446 652.989 254.698 652.727 254.885 652.382C255.071 652.037 255.165 651.617 255.165 651.122C255.165 650.385 254.969 649.82 254.577 649.428C254.194 649.027 253.723 648.826 253.163 648.826C252.603 648.826 252.131 649.027 251.749 649.428C251.375 649.82 251.189 650.385 251.189 651.122C251.189 651.859 251.371 652.429 251.735 652.83C252.108 653.222 252.575 653.418 253.135 653.418ZM265.94 647.244V655H263.966V654.02C263.714 654.356 263.383 654.622 262.972 654.818C262.571 655.005 262.132 655.098 261.656 655.098C261.05 655.098 260.513 654.972 260.046 654.72C259.58 654.459 259.211 654.081 258.94 653.586C258.679 653.082 258.548 652.485 258.548 651.794V647.244H260.508V651.514C260.508 652.13 260.662 652.606 260.97 652.942C261.278 653.269 261.698 653.432 262.23 653.432C262.772 653.432 263.196 653.269 263.504 652.942C263.812 652.606 263.966 652.13 263.966 651.514V647.244H265.94ZM272.172 647.132C273.096 647.132 273.843 647.426 274.412 648.014C274.982 648.593 275.266 649.405 275.266 650.45V655H273.306V650.716C273.306 650.1 273.152 649.629 272.844 649.302C272.536 648.966 272.116 648.798 271.584 648.798C271.043 648.798 270.614 648.966 270.296 649.302C269.988 649.629 269.834 650.1 269.834 650.716V655H267.874V647.244H269.834V648.21C270.096 647.874 270.427 647.613 270.828 647.426C271.239 647.23 271.687 647.132 272.172 647.132ZM279.412 648.854V652.606C279.412 652.867 279.473 653.059 279.594 653.18C279.725 653.292 279.939 653.348 280.238 653.348H281.148V655H279.916C278.264 655 277.438 654.197 277.438 652.592V648.854H276.514V647.244H277.438V645.326H279.412V647.244H281.148V648.854H279.412Z" fill="#494949"/>
<defs>
<filter id="filter0_d_3_56" x="11" y="530" width="397" height="100" filterUnits="userSpaceOnUse" color-interpolation-filters="sRGB">
<feFlood flood-opacity="0" result="BackgroundImageFix"/>
<feColorMatrix in="SourceAlpha" type="matrix" values="0 0 0 0 0 0 0 0 0 0 0 0 0 0 0 0 0 0 127 0" result="hardAlpha"/>
<feOffset dy="10"/>
<feGaussianBlur stdDeviation="10"/>
<feComposite in2="hardAlpha" operator="out"/>
<feColorMatrix type="matrix" values="0 0 0 0 0.795833 0 0 0 0 0.84075 0 0 0 0 1 0 0 0 1 0"/>
<feBlend mode="normal" in2="BackgroundImageFix" result="effect1_dropShadow_3_56"/>
<feBlend mode="normal" in="SourceGraphic" in2="effect1_dropShadow_3_56" result="shape"/>
</filter>
</defs>
</svg>
