<svg width="428" height="926" viewBox="0 0 428 926" fill="none" xmlns="http://www.w3.org/2000/svg">
<rect width="428" height="926" rx="50" fill="white"/>
<path d="M93.1985 180.33L88.3085 166.71C88.0885 166.11 87.8985 165.61 87.7385 165.21C87.5985 164.81 87.4685 164.47 87.3485 164.19C87.2485 163.91 87.1585 163.68 87.0785 163.5C86.9985 163.32 86.9285 163.15 86.8685 162.99C86.6485 162.49 86.4185 162.11 86.1785 161.85C85.9585 161.57 85.7285 161.37 85.4885 161.25C85.2485 161.11 84.9985 161.03 84.7385 161.01C84.4985 160.99 84.2485 160.98 83.9885 160.98L83.8385 160.86L83.7785 160.32L83.8085 160.2C83.9485 160.2 84.1485 160.21 84.4085 160.23C84.6885 160.25 84.9785 160.27 85.2785 160.29C85.5785 160.31 85.8685 160.33 86.1485 160.35C86.4285 160.37 86.6385 160.38 86.7785 160.38H87.7985C87.9385 160.38 88.1685 160.37 88.4885 160.35C88.8085 160.33 89.1385 160.31 89.4785 160.29C89.8385 160.27 90.1785 160.25 90.4985 160.23C90.8185 160.21 91.0485 160.2 91.1885 160.2L91.2485 160.32L91.1585 160.86L91.0085 160.98C90.4285 160.98 89.9785 161.05 89.6585 161.19C89.3385 161.31 89.1785 161.66 89.1785 162.24C89.1785 162.7 89.3285 163.35 89.6285 164.19C89.9485 165.01 90.3385 166.05 90.7985 167.31L92.8385 172.83C93.2185 173.87 93.5485 174.81 93.8285 175.65C94.1285 176.47 94.3985 177.18 94.6385 177.78C94.8585 177.2 95.1185 176.51 95.4185 175.71C95.7385 174.91 96.0985 173.95 96.4985 172.83L98.5385 167.31C98.8185 166.53 99.0685 165.84 99.2885 165.24C99.5285 164.64 99.7285 164.1 99.8885 163.62C99.7885 163.3 99.6685 162.99 99.5285 162.69C99.4085 162.39 99.2485 162.12 99.0485 161.88C98.8685 161.64 98.6285 161.44 98.3285 161.28C98.0285 161.12 97.6585 161.02 97.2185 160.98L97.0685 160.86L97.0085 160.32L97.0385 160.2C97.1785 160.2 97.3785 160.21 97.6385 160.23C97.9185 160.25 98.1985 160.27 98.4785 160.29C98.7785 160.31 99.0585 160.33 99.3185 160.35C99.5985 160.37 99.8085 160.38 99.9485 160.38H100.938C101.078 160.38 101.298 160.37 101.598 160.35C101.898 160.33 102.218 160.31 102.558 160.29C102.898 160.27 103.218 160.25 103.518 160.23C103.818 160.21 104.038 160.2 104.178 160.2L104.238 160.32L104.148 160.86L103.998 160.98C103.778 160.98 103.538 161.02 103.278 161.1C103.038 161.16 102.808 161.26 102.588 161.4C102.388 161.54 102.218 161.71 102.078 161.91C101.958 162.11 101.898 162.34 101.898 162.6C101.898 162.8 101.918 162.94 101.958 163.02C102.078 163.52 102.268 164.12 102.528 164.82C102.808 165.52 103.118 166.35 103.458 167.31L105.498 172.83C105.878 173.85 106.218 174.79 106.518 175.65C106.818 176.49 107.078 177.2 107.298 177.78C107.518 177.2 107.778 176.51 108.078 175.71C108.398 174.91 108.758 173.95 109.158 172.83L111.198 167.31C111.658 166.05 112.038 165.01 112.338 164.19C112.658 163.35 112.818 162.7 112.818 162.24C112.818 161.66 112.658 161.31 112.338 161.19C112.018 161.05 111.568 160.98 110.988 160.98L110.868 160.86L110.778 160.32L110.838 160.2C110.978 160.2 111.198 160.21 111.498 160.23C111.798 160.25 112.108 160.27 112.428 160.29C112.748 160.31 113.058 160.33 113.358 160.35C113.658 160.37 113.878 160.38 114.018 160.38H114.588C114.728 160.38 114.928 160.37 115.188 160.35C115.468 160.33 115.758 160.31 116.058 160.29C116.358 160.27 116.648 160.25 116.928 160.23C117.208 160.21 117.418 160.2 117.558 160.2L117.618 160.32L117.528 160.86L117.378 160.98C117.118 160.98 116.868 160.99 116.628 161.01C116.388 161.03 116.148 161.11 115.908 161.25C115.668 161.37 115.428 161.57 115.188 161.85C114.968 162.11 114.738 162.49 114.498 162.99C114.438 163.15 114.348 163.35 114.228 163.59C114.128 163.83 113.948 164.28 113.688 164.94C113.428 165.6 113.048 166.55 112.548 167.79C112.068 169.01 111.418 170.68 110.598 172.8C110.318 173.5 110.028 174.23 109.728 174.99C109.448 175.73 109.168 176.44 108.888 177.12C108.628 177.78 108.398 178.37 108.198 178.89C107.998 179.41 107.858 179.78 107.778 180L106.218 180.33H105.858L100.638 165.87C100.358 166.57 99.9985 167.47 99.5585 168.57C99.1385 169.67 98.5985 171.08 97.9385 172.8C97.6785 173.5 97.3985 174.23 97.0985 174.99C96.7985 175.73 96.5085 176.44 96.2285 177.12C95.9685 177.78 95.7385 178.37 95.5385 178.89C95.3385 179.41 95.1985 179.78 95.1185 180L93.5585 180.33H93.1985ZM130.06 179.79C130.14 179.53 130.2 179.19 130.24 178.77C130.28 178.35 130.31 177.98 130.33 177.66C130.37 176.82 130.4 176 130.42 175.2C130.44 174.38 130.45 173.7 130.45 173.16C130.45 172.7 130.43 172.2 130.39 171.66C130.37 171.12 130.31 170.65 130.21 170.25C130.01 169.31 129.6 168.61 128.98 168.15C128.36 167.69 127.64 167.46 126.82 167.46C126.16 167.46 125.54 167.61 124.96 167.91C124.4 168.19 123.92 168.54 123.52 168.96C123.12 169.36 122.8 169.79 122.56 170.25C122.34 170.69 122.23 171.06 122.23 171.36C122.23 172.44 122.23 173.31 122.23 173.97C122.23 174.61 122.23 175.15 122.23 175.59C122.25 176.03 122.26 176.4 122.26 176.7C122.28 176.98 122.31 177.3 122.35 177.66C122.39 178.08 122.43 178.4 122.47 178.62C122.53 178.82 122.64 178.99 122.8 179.13C122.96 179.27 123.18 179.36 123.46 179.4C123.76 179.44 124.06 179.46 124.36 179.46L124.51 179.61L124.57 180L124.51 180.12C124.37 180.12 124.16 180.11 123.88 180.09C123.6 180.07 123.3 180.05 122.98 180.03C122.66 180.03 122.36 180.02 122.08 180C121.8 180 121.59 180 121.45 180H121.03C120.89 180 120.67 180 120.37 180C120.09 180.02 119.79 180.03 119.47 180.03C119.17 180.05 118.87 180.07 118.57 180.09C118.29 180.11 118.08 180.12 117.94 180.12L117.91 180L117.94 179.58L118.06 179.46C118.38 179.46 118.69 179.45 118.99 179.43C119.31 179.39 119.55 179.29 119.71 179.13C119.87 178.99 119.97 178.81 120.01 178.59C120.07 178.37 120.12 178.06 120.16 177.66C120.18 177.4 120.19 177.14 120.19 176.88C120.21 176.62 120.22 176.32 120.22 175.98C120.24 175.62 120.25 175.21 120.25 174.75C120.25 174.27 120.25 173.68 120.25 172.98V165.78C120.25 164.96 120.25 164.27 120.25 163.71C120.25 163.13 120.24 162.63 120.22 162.21C120.22 161.79 120.21 161.42 120.19 161.1C120.19 160.78 120.18 160.46 120.16 160.14C120.14 159.92 120.08 159.73 119.98 159.57C119.9 159.41 119.83 159.29 119.77 159.21C119.57 158.99 119.32 158.85 119.02 158.79C118.72 158.73 118.41 158.7 118.09 158.7L117.97 158.58V158.19L118.09 158.07H118.63C118.97 158.07 119.4 158.07 119.92 158.07C120.44 158.05 120.89 158.01 121.27 157.95L122.32 157.8L122.5 158.07C122.46 158.15 122.43 158.3 122.41 158.52C122.39 158.72 122.37 158.94 122.35 159.18C122.33 159.42 122.32 159.65 122.32 159.87C122.32 160.09 122.32 160.26 122.32 160.38C122.32 161.02 122.3 161.79 122.26 162.69C122.24 163.57 122.23 164.58 122.23 165.72C122.23 166.56 122.22 167.22 122.2 167.7C122.2 168.18 122.18 168.56 122.14 168.84L122.23 168.9C122.73 168.02 123.4 167.28 124.24 166.68C125.08 166.06 126.12 165.75 127.36 165.75C127.92 165.75 128.48 165.83 129.04 165.99C129.62 166.15 130.14 166.4 130.6 166.74C131.06 167.08 131.45 167.51 131.77 168.03C132.09 168.55 132.29 169.17 132.37 169.89C132.43 170.41 132.46 171.01 132.46 171.69C132.48 172.35 132.49 172.89 132.49 173.31V177.54C132.49 178 132.53 178.36 132.61 178.62C132.71 178.86 132.82 179.03 132.94 179.13C133.12 179.29 133.36 179.39 133.66 179.43C133.98 179.45 134.3 179.46 134.62 179.46L134.71 179.58L134.77 180L134.71 180.12C134.37 180.08 133.99 180.05 133.57 180.03C133.15 180.01 132.74 180 132.34 180C131.58 180 130.89 180.03 130.27 180.09L130.06 179.79ZM149.91 171.93L149.43 172.14C148.35 172.14 147.24 172.15 146.1 172.17C144.96 172.19 143.84 172.2 142.74 172.2H139.2C139.18 172.34 139.17 172.48 139.17 172.62C139.17 172.74 139.17 172.86 139.17 172.98C139.17 173.74 139.28 174.47 139.5 175.17C139.72 175.85 140.06 176.45 140.52 176.97C141 177.49 141.61 177.91 142.35 178.23C143.09 178.53 143.99 178.68 145.05 178.68C145.67 178.68 146.33 178.62 147.03 178.5C147.75 178.36 148.41 178.12 149.01 177.78L149.31 177.96V178.5L149.01 178.83C148.53 179.21 147.85 179.56 146.97 179.88C146.09 180.18 145.11 180.33 144.03 180.33C142.97 180.33 142 180.16 141.12 179.82C140.26 179.46 139.51 178.96 138.87 178.32C138.25 177.68 137.76 176.92 137.4 176.04C137.06 175.16 136.89 174.18 136.89 173.1C136.89 172 137.07 171 137.43 170.1C137.79 169.2 138.28 168.43 138.9 167.79C139.54 167.15 140.28 166.65 141.12 166.29C141.98 165.93 142.9 165.75 143.88 165.75C144.4 165.75 144.98 165.82 145.62 165.96C146.28 166.1 146.91 166.37 147.51 166.77C148.11 167.15 148.65 167.7 149.13 168.42C149.61 169.12 149.94 170.05 150.12 171.21L149.91 171.93ZM143.91 167.1C143.27 167.1 142.69 167.21 142.17 167.43C141.67 167.63 141.22 167.91 140.82 168.27C140.44 168.61 140.12 169.02 139.86 169.5C139.62 169.96 139.45 170.45 139.35 170.97H140.52C141.6 170.97 142.65 170.96 143.67 170.94C144.69 170.9 145.76 170.85 146.88 170.79C147.14 170.77 147.31 170.7 147.39 170.58C147.49 170.46 147.54 170.32 147.54 170.16C147.54 170.04 147.53 169.93 147.51 169.83C147.49 169.73 147.46 169.63 147.42 169.53C147.2 168.77 146.79 168.18 146.19 167.76C145.59 167.32 144.83 167.1 143.91 167.1ZM156.912 168.78C157.432 167.92 158.102 167.2 158.922 166.62C159.742 166.04 160.762 165.75 161.982 165.75C162.542 165.75 163.102 165.83 163.662 165.99C164.222 166.15 164.732 166.4 165.192 166.74C165.672 167.08 166.062 167.52 166.362 168.06C166.682 168.58 166.892 169.2 166.992 169.92C167.052 170.44 167.082 170.99 167.082 171.57C167.102 172.15 167.112 172.73 167.112 173.31C167.112 174.03 167.112 174.76 167.112 175.5C167.132 176.22 167.142 176.94 167.142 177.66C167.182 178.12 167.232 178.46 167.292 178.68C167.352 178.88 167.442 179.03 167.562 179.13C167.742 179.29 167.982 179.39 168.282 179.43C168.602 179.45 168.922 179.46 169.242 179.46L169.332 179.58L169.392 180L169.332 180.12C168.992 180.08 168.612 180.05 168.192 180.03C167.772 180.01 167.362 180 166.962 180C166.202 180 165.512 180.03 164.892 180.09L164.682 179.79C164.762 179.53 164.822 179.19 164.862 178.77C164.902 178.35 164.932 177.98 164.952 177.66C164.992 176.82 165.022 176 165.042 175.2C165.062 174.38 165.072 173.7 165.072 173.16C165.072 172.7 165.052 172.2 165.012 171.66C164.992 171.12 164.932 170.65 164.832 170.25C164.632 169.31 164.222 168.61 163.602 168.15C162.982 167.69 162.262 167.46 161.442 167.46C160.782 167.46 160.162 167.6 159.582 167.88C159.022 168.16 158.542 168.51 158.142 168.93C157.742 169.33 157.422 169.76 157.182 170.22C156.962 170.66 156.852 171.04 156.852 171.36V174.75C156.852 175.19 156.852 175.55 156.852 175.83C156.852 176.11 156.852 176.35 156.852 176.55C156.872 176.75 156.892 176.94 156.912 177.12C156.932 177.28 156.952 177.46 156.972 177.66C157.012 178.08 157.052 178.4 157.092 178.62C157.152 178.82 157.262 178.99 157.422 179.13C157.582 179.27 157.802 179.36 158.082 179.4C158.382 179.44 158.682 179.46 158.982 179.46L159.132 179.61L159.192 180L159.132 180.12C158.992 180.12 158.782 180.11 158.502 180.09C158.222 180.07 157.922 180.05 157.602 180.03C157.282 180.03 156.982 180.02 156.702 180C156.422 180 156.212 180 156.072 180H155.652C155.512 180 155.292 180 154.992 180C154.712 180.02 154.412 180.03 154.092 180.03C153.792 180.05 153.492 180.07 153.192 180.09C152.912 180.11 152.702 180.12 152.562 180.12L152.532 180L152.562 179.58L152.682 179.46C153.002 179.46 153.312 179.45 153.612 179.43C153.932 179.39 154.172 179.29 154.332 179.13C154.492 178.99 154.592 178.81 154.632 178.59C154.692 178.37 154.742 178.06 154.782 177.66C154.802 177.34 154.822 177.02 154.842 176.7C154.862 176.36 154.872 175.83 154.872 175.11V171.42C154.872 171 154.872 170.65 154.872 170.37C154.872 170.07 154.862 169.81 154.842 169.59C154.842 169.37 154.832 169.17 154.812 168.99C154.812 168.81 154.802 168.62 154.782 168.42C154.742 168.2 154.682 168.01 154.602 167.85C154.522 167.67 154.452 167.55 154.392 167.49C154.192 167.25 153.942 167.11 153.642 167.07C153.342 167.01 153.032 166.98 152.712 166.98L152.592 166.86V166.44L152.712 166.35H153.252C153.592 166.35 154.022 166.35 154.542 166.35C155.062 166.33 155.512 166.29 155.892 166.23L156.942 166.08L157.122 166.35C157.022 166.61 156.952 166.97 156.912 167.43C156.872 167.87 156.842 168.3 156.822 168.72L156.912 168.78ZM190.26 179.79C190.32 179.57 190.37 179.24 190.41 178.8C190.47 178.36 190.52 177.97 190.56 177.63L190.53 177.51C189.97 178.35 189.28 179.03 188.46 179.55C187.64 180.07 186.7 180.33 185.64 180.33C184.5 180.33 183.51 180.13 182.67 179.73C181.85 179.33 181.17 178.8 180.63 178.14C180.11 177.48 179.72 176.73 179.46 175.89C179.2 175.03 179.07 174.14 179.07 173.22C179.07 171.86 179.28 170.71 179.7 169.77C180.12 168.81 180.65 168.04 181.29 167.46C181.93 166.86 182.63 166.43 183.39 166.17C184.17 165.89 184.91 165.75 185.61 165.75C186.57 165.75 187.49 165.97 188.37 166.41C189.25 166.83 190 167.55 190.62 168.57L190.68 168.45C190.64 167.99 190.62 167.55 190.62 167.13C190.62 166.69 190.62 166.24 190.62 165.78C190.62 164.96 190.62 164.27 190.62 163.71C190.62 163.13 190.61 162.63 190.59 162.21C190.59 161.79 190.58 161.42 190.56 161.1C190.56 160.78 190.55 160.46 190.53 160.14C190.51 159.92 190.45 159.73 190.35 159.57C190.27 159.41 190.2 159.29 190.14 159.21C189.94 158.99 189.69 158.85 189.39 158.79C189.09 158.73 188.78 158.7 188.46 158.7L188.34 158.58V158.19L188.46 158.07H189C189.34 158.07 189.77 158.07 190.29 158.07C190.81 158.05 191.26 158.01 191.64 157.95L192.69 157.8L192.87 158.07C192.83 158.15 192.79 158.3 192.75 158.52C192.73 158.72 192.71 158.94 192.69 159.18C192.69 159.42 192.68 159.65 192.66 159.87C192.66 160.09 192.66 160.26 192.66 160.38C192.66 160.7 192.65 161 192.63 161.28C192.63 161.56 192.63 161.89 192.63 162.27C192.63 162.65 192.62 163.11 192.6 163.65C192.6 164.19 192.6 164.88 192.6 165.72V172.26C192.6 173.1 192.6 173.79 192.6 174.33C192.62 174.87 192.63 175.33 192.63 175.71C192.65 176.09 192.66 176.42 192.66 176.7C192.68 176.98 192.7 177.3 192.72 177.66C192.76 178.12 192.81 178.46 192.87 178.68C192.93 178.88 193.02 179.03 193.14 179.13C193.32 179.29 193.56 179.39 193.86 179.43C194.16 179.45 194.47 179.46 194.79 179.46L194.91 179.58L194.97 180L194.91 180.12C194.55 180.08 194.16 180.05 193.74 180.03C193.34 180.01 192.93 180 192.51 180C191.77 180 191.09 180.03 190.47 180.09L190.26 179.79ZM181.35 173.16C181.35 173.84 181.44 174.51 181.62 175.17C181.8 175.83 182.07 176.42 182.43 176.94C182.79 177.44 183.25 177.85 183.81 178.17C184.37 178.47 185.04 178.62 185.82 178.62C186.56 178.62 187.22 178.48 187.8 178.2C188.4 177.92 188.9 177.58 189.3 177.18C189.7 176.78 190.01 176.36 190.23 175.92C190.47 175.48 190.6 175.1 190.62 174.78V171.45C190.58 171.13 190.45 170.74 190.23 170.28C190.03 169.82 189.73 169.38 189.33 168.96C188.95 168.52 188.47 168.15 187.89 167.85C187.33 167.55 186.66 167.4 185.88 167.4C185.08 167.4 184.39 167.57 183.81 167.91C183.25 168.23 182.78 168.66 182.4 169.2C182.04 169.74 181.77 170.36 181.59 171.06C181.43 171.74 181.35 172.44 181.35 173.16ZM203.479 180.12C203.339 180.12 203.129 180.11 202.849 180.09C202.569 180.07 202.269 180.05 201.949 180.03C201.629 180.03 201.329 180.02 201.049 180C200.769 180 200.559 180 200.419 180H199.999C199.859 180 199.639 180 199.339 180C199.059 180.02 198.759 180.03 198.439 180.03C198.139 180.05 197.839 180.07 197.539 180.09C197.259 180.11 197.049 180.12 196.909 180.12L196.879 180L196.909 179.58L197.029 179.46C197.349 179.46 197.659 179.45 197.959 179.43C198.279 179.39 198.519 179.29 198.679 179.13C198.839 178.99 198.939 178.81 198.979 178.59C199.039 178.37 199.089 178.06 199.129 177.66C199.149 177.34 199.169 177.02 199.189 176.7C199.209 176.36 199.219 175.83 199.219 175.11V171.42C199.219 171 199.219 170.65 199.219 170.37C199.219 170.07 199.209 169.81 199.189 169.59C199.189 169.37 199.179 169.17 199.159 168.99C199.159 168.81 199.149 168.62 199.129 168.42C199.089 168.2 199.029 168.01 198.949 167.85C198.869 167.67 198.799 167.55 198.739 167.49C198.539 167.25 198.289 167.11 197.989 167.07C197.689 167.01 197.379 166.98 197.059 166.98L196.939 166.86V166.44L197.059 166.35H197.599C197.939 166.35 198.369 166.35 198.889 166.35C199.409 166.33 199.859 166.29 200.239 166.23L201.289 166.08L201.469 166.35C201.429 166.43 201.389 166.57 201.349 166.77C201.329 166.97 201.309 167.19 201.289 167.43C201.289 167.65 201.279 167.87 201.259 168.09C201.259 168.31 201.259 168.48 201.259 168.6C201.259 168.76 201.249 168.92 201.229 169.08C201.229 169.22 201.229 169.39 201.229 169.59C201.229 169.79 201.219 170.03 201.199 170.31C201.199 170.59 201.199 170.95 201.199 171.39V174.75C201.199 175.19 201.199 175.55 201.199 175.83C201.219 176.11 201.229 176.35 201.229 176.55C201.249 176.75 201.259 176.94 201.259 177.12C201.279 177.28 201.299 177.46 201.319 177.66C201.359 178.08 201.399 178.4 201.439 178.62C201.499 178.82 201.609 178.99 201.769 179.13C201.929 179.27 202.149 179.36 202.429 179.4C202.729 179.44 203.029 179.46 203.329 179.46L203.479 179.61L203.539 180L203.479 180.12ZM198.439 161.07C198.439 160.67 198.569 160.33 198.829 160.05C199.109 159.75 199.449 159.6 199.849 159.6C200.249 159.6 200.589 159.75 200.869 160.05C201.169 160.33 201.319 160.67 201.319 161.07C201.319 161.47 201.169 161.81 200.869 162.09C200.589 162.35 200.249 162.48 199.849 162.48C199.449 162.48 199.109 162.35 198.829 162.09C198.569 161.81 198.439 161.47 198.439 161.07ZM217.11 179.79C217.17 179.57 217.22 179.24 217.26 178.8C217.32 178.36 217.37 177.97 217.41 177.63L217.38 177.51C216.82 178.35 216.13 179.03 215.31 179.55C214.49 180.07 213.55 180.33 212.49 180.33C211.35 180.33 210.36 180.13 209.52 179.73C208.7 179.33 208.02 178.8 207.48 178.14C206.96 177.48 206.57 176.73 206.31 175.89C206.05 175.03 205.92 174.14 205.92 173.22C205.92 171.86 206.13 170.71 206.55 169.77C206.97 168.81 207.5 168.04 208.14 167.46C208.78 166.86 209.48 166.43 210.24 166.17C211.02 165.89 211.76 165.75 212.46 165.75C213.42 165.75 214.34 165.97 215.22 166.41C216.1 166.83 216.85 167.55 217.47 168.57L217.53 168.45C217.49 167.99 217.47 167.55 217.47 167.13C217.47 166.69 217.47 166.24 217.47 165.78C217.47 164.96 217.47 164.27 217.47 163.71C217.47 163.13 217.46 162.63 217.44 162.21C217.44 161.79 217.43 161.42 217.41 161.1C217.41 160.78 217.4 160.46 217.38 160.14C217.36 159.92 217.3 159.73 217.2 159.57C217.12 159.41 217.05 159.29 216.99 159.21C216.79 158.99 216.54 158.85 216.24 158.79C215.94 158.73 215.63 158.7 215.31 158.7L215.19 158.58V158.19L215.31 158.07H215.85C216.19 158.07 216.62 158.07 217.14 158.07C217.66 158.05 218.11 158.01 218.49 157.95L219.54 157.8L219.72 158.07C219.68 158.15 219.64 158.3 219.6 158.52C219.58 158.72 219.56 158.94 219.54 159.18C219.54 159.42 219.53 159.65 219.51 159.87C219.51 160.09 219.51 160.26 219.51 160.38C219.51 160.7 219.5 161 219.48 161.28C219.48 161.56 219.48 161.89 219.48 162.27C219.48 162.65 219.47 163.11 219.45 163.65C219.45 164.19 219.45 164.88 219.45 165.72V172.26C219.45 173.1 219.45 173.79 219.45 174.33C219.47 174.87 219.48 175.33 219.48 175.71C219.5 176.09 219.51 176.42 219.51 176.7C219.53 176.98 219.55 177.3 219.57 177.66C219.61 178.12 219.66 178.46 219.72 178.68C219.78 178.88 219.87 179.03 219.99 179.13C220.17 179.29 220.41 179.39 220.71 179.43C221.01 179.45 221.32 179.46 221.64 179.46L221.76 179.58L221.82 180L221.76 180.12C221.4 180.08 221.01 180.05 220.59 180.03C220.19 180.01 219.78 180 219.36 180C218.62 180 217.94 180.03 217.32 180.09L217.11 179.79ZM208.2 173.16C208.2 173.84 208.29 174.51 208.47 175.17C208.65 175.83 208.92 176.42 209.28 176.94C209.64 177.44 210.1 177.85 210.66 178.17C211.22 178.47 211.89 178.62 212.67 178.62C213.41 178.62 214.07 178.48 214.65 178.2C215.25 177.92 215.75 177.58 216.15 177.18C216.55 176.78 216.86 176.36 217.08 175.92C217.32 175.48 217.45 175.1 217.47 174.78V171.45C217.43 171.13 217.3 170.74 217.08 170.28C216.88 169.82 216.58 169.38 216.18 168.96C215.8 168.52 215.32 168.15 214.74 167.85C214.18 167.55 213.51 167.4 212.73 167.4C211.93 167.4 211.24 167.57 210.66 167.91C210.1 168.23 209.63 168.66 209.25 169.2C208.89 169.74 208.62 170.36 208.44 171.06C208.28 171.74 208.2 172.44 208.2 173.16ZM230.656 186.87C230.936 186.87 231.196 186.86 231.436 186.84C231.696 186.82 231.946 186.77 232.186 186.69C232.426 186.63 232.656 186.52 232.876 186.36C233.116 186.2 233.376 185.98 233.656 185.7C234.036 185.3 234.366 184.87 234.646 184.41C234.926 183.97 235.156 183.52 235.336 183.06L236.296 180.63L234.226 175.2C234.146 175.02 234.006 174.69 233.806 174.21C233.626 173.73 233.416 173.2 233.176 172.62C232.936 172.02 232.686 171.41 232.426 170.79C232.186 170.17 231.976 169.62 231.796 169.14C231.596 168.66 231.416 168.28 231.256 168C231.056 167.68 230.826 167.43 230.566 167.25C230.326 167.07 229.996 166.96 229.576 166.92L229.396 166.77V166.35L229.516 166.23C229.856 166.27 230.216 166.31 230.596 166.35C230.976 166.39 231.326 166.41 231.646 166.41H232.816C233.136 166.41 233.516 166.39 233.956 166.35C234.416 166.31 234.846 166.27 235.246 166.23L235.366 166.35V166.71L235.246 166.83C234.806 166.87 234.436 166.99 234.136 167.19C233.856 167.37 233.716 167.64 233.716 168C233.716 168.24 233.806 168.67 233.986 169.29C234.186 169.89 234.406 170.54 234.646 171.24C234.886 171.92 235.116 172.56 235.336 173.16C235.556 173.76 235.706 174.15 235.786 174.33L237.286 178.23L238.696 174.78C238.836 174.44 239.026 173.98 239.266 173.4C239.506 172.82 239.746 172.2 239.986 171.54C240.226 170.88 240.426 170.24 240.586 169.62C240.766 168.98 240.856 168.44 240.856 168C240.856 167.56 240.696 167.27 240.376 167.13C240.056 166.97 239.696 166.87 239.296 166.83L239.176 166.71V166.35L239.296 166.23C240.076 166.35 240.806 166.41 241.486 166.41H242.716C243.056 166.41 243.376 166.39 243.676 166.35C243.996 166.31 244.346 166.27 244.726 166.23L244.846 166.35V166.77L244.696 166.92C244.336 166.96 244.056 167.06 243.856 167.22C243.676 167.38 243.476 167.64 243.256 168C243.076 168.32 242.866 168.72 242.626 169.2C242.406 169.68 242.176 170.2 241.936 170.76C241.716 171.32 241.486 171.89 241.246 172.47C241.026 173.05 240.816 173.59 240.616 174.09C240.436 174.59 240.276 175.03 240.136 175.41C240.016 175.77 239.926 176.02 239.866 176.16L236.926 183.48C236.406 184.78 235.696 185.74 234.796 186.36C233.916 187 232.956 187.45 231.916 187.71C231.716 187.75 231.536 187.77 231.376 187.77C231.216 187.79 231.036 187.8 230.836 187.8L230.596 187.74L230.536 187.02L230.656 186.87ZM253.691 165.75C254.871 165.75 255.921 165.96 256.841 166.38C257.761 166.78 258.531 167.33 259.151 168.03C259.791 168.71 260.271 169.5 260.591 170.4C260.931 171.3 261.101 172.23 261.101 173.19C261.101 174.11 260.951 175 260.651 175.86C260.351 176.72 259.891 177.48 259.271 178.14C258.651 178.8 257.881 179.33 256.961 179.73C256.041 180.13 254.971 180.33 253.751 180.33C252.491 180.33 251.391 180.12 250.451 179.7C249.511 179.28 248.731 178.73 248.111 178.05C247.511 177.37 247.061 176.6 246.761 175.74C246.461 174.86 246.311 173.96 246.311 173.04C246.311 172.06 246.481 171.13 246.821 170.25C247.161 169.37 247.641 168.6 248.261 167.94C248.901 167.26 249.671 166.73 250.571 166.35C251.491 165.95 252.531 165.75 253.691 165.75ZM253.721 179.16C254.561 179.16 255.301 178.99 255.941 178.65C256.581 178.31 257.111 177.86 257.531 177.3C257.951 176.74 258.261 176.11 258.461 175.41C258.681 174.69 258.791 173.95 258.791 173.19C258.791 172.47 258.671 171.74 258.431 171C258.211 170.26 257.881 169.6 257.441 169.02C257.001 168.42 256.461 167.94 255.821 167.58C255.181 167.2 254.441 167.01 253.601 167.01C252.721 167.01 251.961 167.19 251.321 167.55C250.701 167.89 250.181 168.34 249.761 168.9C249.361 169.46 249.061 170.1 248.861 170.82C248.661 171.54 248.561 172.26 248.561 172.98C248.561 173.72 248.671 174.46 248.891 175.2C249.131 175.92 249.471 176.58 249.911 177.18C250.351 177.76 250.891 178.24 251.531 178.62C252.171 178.98 252.901 179.16 253.721 179.16ZM275.621 177.42C275.101 178.26 274.431 178.96 273.611 179.52C272.811 180.06 271.821 180.33 270.641 180.33C270.061 180.33 269.501 180.26 268.961 180.12C268.441 180 267.951 179.79 267.491 179.49C267.051 179.19 266.671 178.79 266.351 178.29C266.031 177.79 265.801 177.16 265.661 176.4C265.561 175.88 265.511 175.34 265.511 174.78C265.531 174.2 265.531 173.62 265.511 173.04C265.511 172.78 265.501 172.43 265.481 171.99C265.481 171.53 265.481 171.07 265.481 170.61C265.481 170.13 265.481 169.69 265.481 169.29C265.481 168.89 265.481 168.6 265.481 168.42C265.481 168.2 265.431 168.01 265.331 167.85C265.231 167.67 265.151 167.54 265.091 167.46C264.891 167.24 264.641 167.11 264.341 167.07C264.041 167.01 263.731 166.98 263.411 166.98L263.321 166.86V166.44L263.411 166.35H263.951C264.291 166.35 264.721 166.35 265.241 166.35C265.761 166.33 266.211 166.29 266.591 166.23L267.641 166.08L267.821 166.35C267.781 166.43 267.751 166.58 267.731 166.8C267.711 167 267.691 167.22 267.671 167.46C267.651 167.7 267.641 167.93 267.641 168.15C267.641 168.37 267.641 168.54 267.641 168.66C267.641 169 267.631 169.38 267.611 169.8C267.611 170.2 267.601 170.61 267.581 171.03C267.581 171.45 267.571 171.85 267.551 172.23C267.551 172.61 267.551 172.93 267.551 173.19C267.551 173.63 267.561 174.13 267.581 174.69C267.621 175.23 267.691 175.7 267.791 176.1C267.991 177.04 268.401 177.74 269.021 178.2C269.641 178.66 270.361 178.89 271.181 178.89C271.801 178.89 272.371 178.77 272.891 178.53C273.411 178.27 273.861 177.96 274.241 177.6C274.641 177.24 274.961 176.86 275.201 176.46C275.461 176.04 275.631 175.66 275.711 175.32V171.42C275.711 171 275.701 170.65 275.681 170.37C275.681 170.07 275.671 169.81 275.651 169.59C275.651 169.37 275.641 169.17 275.621 168.99C275.621 168.81 275.611 168.62 275.591 168.42C275.551 168.2 275.491 168.01 275.411 167.85C275.351 167.67 275.291 167.55 275.231 167.49C275.031 167.25 274.781 167.11 274.481 167.07C274.181 167.01 273.871 166.98 273.551 166.98L273.431 166.86V166.44L273.551 166.35H274.091C274.431 166.35 274.861 166.35 275.381 166.35C275.901 166.33 276.341 166.29 276.701 166.23L277.751 166.08L277.931 166.35C277.891 166.43 277.861 166.58 277.841 166.8C277.821 167 277.801 167.22 277.781 167.46C277.761 167.7 277.751 167.93 277.751 168.15C277.751 168.37 277.751 168.54 277.751 168.66C277.751 168.82 277.741 168.97 277.721 169.11C277.721 169.25 277.721 169.42 277.721 169.62C277.721 169.82 277.711 170.06 277.691 170.34C277.691 170.6 277.691 170.95 277.691 171.39V174.75C277.691 175.19 277.691 175.55 277.691 175.83C277.711 176.11 277.721 176.35 277.721 176.55C277.741 176.75 277.751 176.94 277.751 177.12C277.771 177.28 277.781 177.46 277.781 177.66C277.821 178.12 277.871 178.46 277.931 178.68C277.991 178.88 278.091 179.03 278.231 179.13C278.391 179.29 278.621 179.39 278.921 179.43C279.241 179.45 279.561 179.46 279.881 179.46L280.001 179.58L280.061 180L280.001 180.12C279.641 180.08 279.251 180.05 278.831 180.03C278.411 180.01 278.001 180 277.601 180C276.841 180 276.151 180.03 275.531 180.09L275.351 179.79C275.411 179.53 275.471 179.19 275.531 178.77C275.611 178.35 275.671 177.92 275.711 177.48L275.621 177.42ZM289.297 158.19L289.417 158.07H289.957C290.297 158.07 290.727 158.07 291.247 158.07C291.767 158.05 292.217 158.01 292.597 157.95L293.677 157.8L293.857 158.07C293.817 158.15 293.787 158.3 293.767 158.52C293.747 158.72 293.727 158.94 293.707 159.18C293.687 159.42 293.667 159.65 293.647 159.87C293.647 160.09 293.647 160.26 293.647 160.38C293.627 160.7 293.607 161 293.587 161.28C293.587 161.56 293.577 161.89 293.557 162.27C293.557 162.65 293.557 163.11 293.557 163.65C293.557 164.19 293.557 164.88 293.557 165.72V172.26C293.557 173.1 293.557 173.79 293.557 174.33C293.577 174.87 293.587 175.33 293.587 175.71C293.607 176.09 293.617 176.42 293.617 176.7C293.637 176.98 293.657 177.3 293.677 177.66C293.717 178.08 293.757 178.4 293.797 178.62C293.857 178.82 293.967 178.99 294.127 179.13C294.287 179.27 294.507 179.36 294.787 179.4C295.087 179.44 295.387 179.46 295.687 179.46L295.837 179.61L295.897 180L295.837 180.12C295.697 180.12 295.487 180.11 295.207 180.09C294.927 180.07 294.627 180.05 294.307 180.03C293.987 180.03 293.687 180.02 293.407 180C293.127 180 292.917 180 292.777 180H292.357C292.217 180 291.997 180 291.697 180C291.417 180.02 291.117 180.03 290.797 180.03C290.497 180.05 290.197 180.07 289.897 180.09C289.617 180.11 289.407 180.12 289.267 180.12L289.237 180L289.267 179.58L289.387 179.46C289.707 179.46 290.017 179.45 290.317 179.43C290.637 179.39 290.877 179.29 291.037 179.13C291.197 178.99 291.297 178.81 291.337 178.59C291.397 178.37 291.447 178.06 291.487 177.66C291.507 177.4 291.517 177.14 291.517 176.88C291.537 176.62 291.547 176.32 291.547 175.98C291.567 175.62 291.577 175.21 291.577 174.75C291.577 174.27 291.577 173.68 291.577 172.98V165.78C291.577 164.96 291.577 164.27 291.577 163.71C291.577 163.13 291.567 162.63 291.547 162.21C291.547 161.79 291.537 161.42 291.517 161.1C291.517 160.78 291.507 160.46 291.487 160.14C291.467 159.92 291.407 159.73 291.307 159.57C291.227 159.41 291.157 159.29 291.097 159.21C290.897 158.99 290.647 158.85 290.347 158.79C290.047 158.73 289.737 158.7 289.417 158.7L289.297 158.58V158.19ZM306.623 179.79C306.683 179.57 306.723 179.24 306.743 178.8C306.783 178.36 306.833 177.95 306.893 177.57L306.863 177.48C306.603 177.84 306.293 178.19 305.933 178.53C305.573 178.87 305.173 179.18 304.733 179.46C304.313 179.72 303.853 179.93 303.353 180.09C302.873 180.25 302.363 180.33 301.823 180.33C301.203 180.33 300.653 180.22 300.173 180C299.693 179.78 299.293 179.49 298.973 179.13C298.653 178.77 298.413 178.35 298.253 177.87C298.093 177.39 298.013 176.89 298.013 176.37C298.013 175.63 298.183 174.99 298.523 174.45C298.863 173.89 299.313 173.43 299.873 173.07C300.393 172.75 301.003 172.49 301.703 172.29C302.423 172.09 303.113 171.95 303.773 171.87C304.453 171.77 305.063 171.71 305.603 171.69C306.143 171.65 306.503 171.63 306.683 171.63H307.103C307.083 170.89 307.043 170.31 306.983 169.89C306.923 169.45 306.843 169.09 306.743 168.81C306.523 168.21 306.143 167.78 305.603 167.52C305.063 167.24 304.413 167.1 303.653 167.1C303.333 167.1 302.983 167.13 302.603 167.19C302.243 167.25 301.893 167.36 301.553 167.52C301.233 167.68 300.953 167.91 300.713 168.21C300.473 168.49 300.333 168.86 300.293 169.32L300.173 169.41H299.513L299.243 167.19L299.333 167.01C299.433 166.89 299.643 166.76 299.963 166.62C300.283 166.48 300.653 166.35 301.073 166.23C301.513 166.09 301.993 165.98 302.513 165.9C303.053 165.8 303.583 165.75 304.103 165.75C304.823 165.75 305.493 165.85 306.113 166.05C306.733 166.23 307.263 166.51 307.703 166.89C308.163 167.27 308.523 167.75 308.783 168.33C309.043 168.89 309.173 169.55 309.173 170.31C309.173 171.15 309.163 171.9 309.143 172.56C309.143 173.2 309.133 173.8 309.113 174.36C309.093 174.9 309.073 175.44 309.053 175.98C309.053 176.5 309.053 177.06 309.053 177.66C309.093 178.12 309.143 178.46 309.203 178.68C309.263 178.88 309.363 179.03 309.503 179.13C309.663 179.29 309.893 179.39 310.193 179.43C310.513 179.45 310.833 179.46 311.153 179.46L311.273 179.58L311.303 180L311.273 180.12C310.913 180.08 310.523 180.05 310.103 180.03C309.683 180.01 309.273 180 308.873 180C308.113 180 307.423 180.03 306.803 180.09L306.623 179.79ZM306.623 176.55C306.683 176.45 306.743 176.33 306.803 176.19C306.883 176.05 306.933 175.88 306.953 175.68L307.103 172.68H306.833C306.033 172.68 305.233 172.73 304.433 172.83C303.633 172.91 302.913 173.08 302.273 173.34C301.653 173.6 301.143 173.96 300.743 174.42C300.343 174.88 300.143 175.47 300.143 176.19C300.143 176.95 300.363 177.56 300.803 178.02C301.243 178.46 301.813 178.68 302.513 178.68C302.933 178.68 303.353 178.61 303.773 178.47C304.193 178.33 304.583 178.15 304.943 177.93C305.323 177.71 305.653 177.48 305.933 177.24C306.233 177 306.463 176.77 306.623 176.55ZM320.186 172.05C321.026 172.23 321.696 172.48 322.196 172.8C322.716 173.1 323.116 173.43 323.396 173.79C323.676 174.15 323.856 174.52 323.936 174.9C324.036 175.26 324.086 175.6 324.086 175.92C324.086 176.56 323.956 177.15 323.696 177.69C323.436 178.23 323.056 178.7 322.556 179.1C322.076 179.48 321.486 179.78 320.786 180C320.086 180.22 319.296 180.33 318.416 180.33C317.436 180.33 316.516 180.22 315.656 180C314.816 179.76 314.146 179.51 313.646 179.25L313.586 178.98L314.036 175.89H314.726L314.816 176.01C314.816 176.97 315.116 177.73 315.716 178.29C316.316 178.83 317.186 179.1 318.326 179.1C319.006 179.1 319.576 179.02 320.036 178.86C320.496 178.7 320.856 178.49 321.116 178.23C321.396 177.97 321.596 177.69 321.716 177.39C321.836 177.09 321.896 176.8 321.896 176.52C321.896 176.34 321.886 176.14 321.866 175.92C321.846 175.68 321.766 175.45 321.626 175.23C321.486 174.99 321.276 174.77 320.996 174.57C320.716 174.35 320.316 174.17 319.796 174.03L316.916 173.31C316.256 173.15 315.716 172.94 315.296 172.68C314.876 172.42 314.546 172.14 314.306 171.84C314.066 171.52 313.896 171.19 313.796 170.85C313.696 170.49 313.646 170.13 313.646 169.77C313.646 169.11 313.776 168.53 314.036 168.03C314.296 167.51 314.646 167.09 315.086 166.77C315.546 166.43 316.076 166.18 316.676 166.02C317.276 165.84 317.926 165.75 318.626 165.75C319.566 165.75 320.426 165.87 321.206 166.11C322.006 166.35 322.626 166.59 323.066 166.83L323.156 167.1L322.826 169.41H322.196L322.076 169.32C322.076 168.86 321.946 168.48 321.686 168.18C321.446 167.86 321.146 167.61 320.786 167.43C320.426 167.23 320.046 167.09 319.646 167.01C319.246 166.93 318.896 166.89 318.596 166.89C317.596 166.89 316.876 167.14 316.436 167.64C315.996 168.14 315.776 168.7 315.776 169.32C315.776 169.78 315.926 170.22 316.226 170.64C316.546 171.04 317.156 171.35 318.056 171.57L320.186 172.05ZM334.449 167.61H330.549C330.549 168.91 330.539 170.11 330.519 171.21C330.519 172.31 330.519 173.28 330.519 174.12C330.519 174.94 330.509 175.6 330.489 176.1C330.489 176.6 330.489 176.91 330.489 177.03C330.489 177.81 330.639 178.33 330.939 178.59C331.239 178.85 331.589 178.98 331.989 178.98C332.329 178.98 332.719 178.92 333.159 178.8C333.619 178.66 333.989 178.51 334.269 178.35L334.539 178.56L334.269 179.4C333.809 179.72 333.289 179.95 332.709 180.09C332.149 180.25 331.649 180.33 331.209 180.33C330.189 180.33 329.469 180.05 329.049 179.49C328.629 178.93 328.419 178.21 328.419 177.33C328.419 177.15 328.429 176.78 328.449 176.22C328.469 175.66 328.489 174.96 328.509 174.12C328.529 173.28 328.549 172.31 328.569 171.21C328.589 170.11 328.599 168.91 328.599 167.61H326.439L326.319 167.46V166.89L326.439 166.77L328.599 166.35C328.599 165.65 328.579 164.94 328.539 164.22C328.519 163.48 328.489 162.76 328.449 162.06L328.659 161.88L329.079 161.85C329.239 161.83 329.499 161.79 329.859 161.73C330.219 161.67 330.469 161.6 330.609 161.52L330.879 161.64C330.819 161.92 330.769 162.25 330.729 162.63C330.689 162.99 330.649 163.38 330.609 163.8C330.589 164.22 330.569 164.65 330.549 165.09C330.549 165.53 330.549 165.95 330.549 166.35L334.449 166.17L334.599 166.29V167.46L334.449 167.61ZM126.995 208.92C125.915 208.52 125.135 207.89 124.655 207.03C124.175 206.17 123.935 205.22 123.935 204.18C123.935 203.44 124.065 202.74 124.325 202.08C124.585 201.42 124.955 200.85 125.435 200.37C125.935 199.87 126.525 199.48 127.205 199.2C127.905 198.92 128.695 198.78 129.575 198.78C130.095 198.78 130.605 198.83 131.105 198.93C131.625 199.03 132.075 199.17 132.455 199.35C133.295 199.33 134.075 199.28 134.795 199.2C135.535 199.12 136.225 198.99 136.865 198.81L137.015 198.93L136.805 200.58L136.655 200.73L133.925 200.61L133.895 200.7C134.415 201.12 134.795 201.67 135.035 202.35C135.275 203.03 135.395 203.69 135.395 204.33C135.395 204.99 135.265 205.62 135.005 206.22C134.765 206.82 134.405 207.35 133.925 207.81C133.445 208.25 132.845 208.61 132.125 208.89C131.405 209.15 130.575 209.28 129.635 209.28C129.475 209.28 129.275 209.28 129.035 209.28C128.795 209.26 128.595 209.25 128.435 209.25C128.095 209.39 127.835 209.58 127.655 209.82C127.495 210.06 127.415 210.26 127.415 210.42C127.415 210.62 127.545 210.8 127.805 210.96C128.085 211.1 128.525 211.2 129.125 211.26L132.035 211.56C132.695 211.64 133.305 211.78 133.865 211.98C134.445 212.18 134.945 212.45 135.365 212.79C135.805 213.11 136.145 213.5 136.385 213.96C136.625 214.44 136.745 214.99 136.745 215.61C136.745 216.19 136.615 216.77 136.355 217.35C136.095 217.95 135.705 218.48 135.185 218.94C134.665 219.38 133.945 219.74 133.025 220.02C132.105 220.3 131.045 220.44 129.845 220.44C128.765 220.44 127.825 220.32 127.025 220.08C126.245 219.86 125.585 219.55 125.045 219.15C124.525 218.77 124.135 218.33 123.875 217.83C123.615 217.35 123.485 216.85 123.485 216.33C123.485 215.49 123.755 214.74 124.295 214.08C124.855 213.44 125.565 212.99 126.425 212.73L126.455 212.64C126.015 212.46 125.665 212.24 125.405 211.98C125.145 211.7 125.015 211.36 125.015 210.96C125.015 210.44 125.225 210.02 125.645 209.7C126.065 209.38 126.515 209.16 126.995 209.04V208.92ZM129.695 208.02C130.255 208.02 130.745 207.92 131.165 207.72C131.605 207.52 131.975 207.25 132.275 206.91C132.575 206.57 132.805 206.18 132.965 205.74C133.125 205.28 133.205 204.81 133.205 204.33C133.205 203.83 133.125 203.33 132.965 202.83C132.805 202.33 132.565 201.88 132.245 201.48C131.945 201.08 131.565 200.75 131.105 200.49C130.645 200.23 130.115 200.1 129.515 200.1C128.935 200.1 128.425 200.22 127.985 200.46C127.565 200.7 127.205 201.01 126.905 201.39C126.625 201.77 126.415 202.2 126.275 202.68C126.135 203.14 126.065 203.6 126.065 204.06C126.065 204.54 126.135 205.02 126.275 205.5C126.435 205.96 126.665 206.38 126.965 206.76C127.285 207.14 127.665 207.45 128.105 207.69C128.565 207.91 129.095 208.02 129.695 208.02ZM128.735 213.15C128.175 213.17 127.685 213.27 127.265 213.45C126.845 213.63 126.485 213.85 126.185 214.11C125.905 214.39 125.695 214.69 125.555 215.01C125.415 215.35 125.345 215.68 125.345 216C125.345 216.76 125.765 217.38 126.605 217.86C127.445 218.34 128.585 218.58 130.025 218.58C130.685 218.58 131.295 218.52 131.855 218.4C132.415 218.3 132.895 218.13 133.295 217.89C133.715 217.67 134.045 217.39 134.285 217.05C134.525 216.73 134.645 216.35 134.645 215.91C134.645 215.43 134.525 215.04 134.285 214.74C134.065 214.44 133.765 214.19 133.385 213.99C133.025 213.81 132.605 213.67 132.125 213.57C131.665 213.49 131.205 213.42 130.745 213.36L128.735 213.15ZM146.671 198.75C147.851 198.75 148.901 198.96 149.821 199.38C150.741 199.78 151.511 200.33 152.131 201.03C152.771 201.71 153.251 202.5 153.571 203.4C153.911 204.3 154.081 205.23 154.081 206.19C154.081 207.11 153.931 208 153.631 208.86C153.331 209.72 152.871 210.48 152.251 211.14C151.631 211.8 150.861 212.33 149.941 212.73C149.021 213.13 147.951 213.33 146.731 213.33C145.471 213.33 144.371 213.12 143.431 212.7C142.491 212.28 141.711 211.73 141.091 211.05C140.491 210.37 140.041 209.6 139.741 208.74C139.441 207.86 139.291 206.96 139.291 206.04C139.291 205.06 139.461 204.13 139.801 203.25C140.141 202.37 140.621 201.6 141.241 200.94C141.881 200.26 142.651 199.73 143.551 199.35C144.471 198.95 145.511 198.75 146.671 198.75ZM146.701 212.16C147.541 212.16 148.281 211.99 148.921 211.65C149.561 211.31 150.091 210.86 150.511 210.3C150.931 209.74 151.241 209.11 151.441 208.41C151.661 207.69 151.771 206.95 151.771 206.19C151.771 205.47 151.651 204.74 151.411 204C151.191 203.26 150.861 202.6 150.421 202.02C149.981 201.42 149.441 200.94 148.801 200.58C148.161 200.2 147.421 200.01 146.581 200.01C145.701 200.01 144.941 200.19 144.301 200.55C143.681 200.89 143.161 201.34 142.741 201.9C142.341 202.46 142.041 203.1 141.841 203.82C141.641 204.54 141.541 205.26 141.541 205.98C141.541 206.72 141.651 207.46 141.871 208.2C142.111 208.92 142.451 209.58 142.891 210.18C143.331 210.76 143.871 211.24 144.511 211.62C145.151 211.98 145.881 212.16 146.701 212.16ZM171.338 205.05C172.178 205.23 172.848 205.48 173.348 205.8C173.868 206.1 174.268 206.43 174.548 206.79C174.828 207.15 175.008 207.52 175.088 207.9C175.188 208.26 175.238 208.6 175.238 208.92C175.238 209.56 175.108 210.15 174.848 210.69C174.588 211.23 174.208 211.7 173.708 212.1C173.228 212.48 172.638 212.78 171.938 213C171.238 213.22 170.448 213.33 169.568 213.33C168.588 213.33 167.668 213.22 166.808 213C165.968 212.76 165.298 212.51 164.798 212.25L164.738 211.98L165.188 208.89H165.878L165.968 209.01C165.968 209.97 166.268 210.73 166.868 211.29C167.468 211.83 168.338 212.1 169.478 212.1C170.158 212.1 170.728 212.02 171.188 211.86C171.648 211.7 172.008 211.49 172.268 211.23C172.548 210.97 172.748 210.69 172.868 210.39C172.988 210.09 173.048 209.8 173.048 209.52C173.048 209.34 173.038 209.14 173.018 208.92C172.998 208.68 172.918 208.45 172.778 208.23C172.638 207.99 172.428 207.77 172.148 207.57C171.868 207.35 171.468 207.17 170.948 207.03L168.068 206.31C167.408 206.15 166.868 205.94 166.448 205.68C166.028 205.42 165.698 205.14 165.458 204.84C165.218 204.52 165.048 204.19 164.948 203.85C164.848 203.49 164.798 203.13 164.798 202.77C164.798 202.11 164.928 201.53 165.188 201.03C165.448 200.51 165.798 200.09 166.238 199.77C166.698 199.43 167.228 199.18 167.828 199.02C168.428 198.84 169.078 198.75 169.778 198.75C170.718 198.75 171.578 198.87 172.358 199.11C173.158 199.35 173.778 199.59 174.218 199.83L174.308 200.1L173.978 202.41H173.348L173.228 202.32C173.228 201.86 173.098 201.48 172.838 201.18C172.598 200.86 172.298 200.61 171.938 200.43C171.578 200.23 171.198 200.09 170.798 200.01C170.398 199.93 170.048 199.89 169.748 199.89C168.748 199.89 168.028 200.14 167.588 200.64C167.148 201.14 166.928 201.7 166.928 202.32C166.928 202.78 167.078 203.22 167.378 203.64C167.698 204.04 168.308 204.35 169.208 204.57L171.338 205.05ZM189.472 212.79C189.552 212.53 189.612 212.19 189.652 211.77C189.692 211.35 189.722 210.98 189.742 210.66C189.782 209.82 189.812 209 189.832 208.2C189.852 207.38 189.862 206.7 189.862 206.16C189.862 205.7 189.842 205.2 189.802 204.66C189.782 204.12 189.722 203.65 189.622 203.25C189.422 202.31 189.012 201.61 188.392 201.15C187.772 200.69 187.052 200.46 186.232 200.46C185.572 200.46 184.952 200.61 184.372 200.91C183.812 201.19 183.332 201.54 182.932 201.96C182.532 202.36 182.212 202.79 181.972 203.25C181.752 203.69 181.642 204.06 181.642 204.36C181.642 205.44 181.642 206.31 181.642 206.97C181.642 207.61 181.642 208.15 181.642 208.59C181.662 209.03 181.672 209.4 181.672 209.7C181.692 209.98 181.722 210.3 181.762 210.66C181.802 211.08 181.842 211.4 181.882 211.62C181.942 211.82 182.052 211.99 182.212 212.13C182.372 212.27 182.592 212.36 182.872 212.4C183.172 212.44 183.472 212.46 183.772 212.46L183.922 212.61L183.982 213L183.922 213.12C183.782 213.12 183.572 213.11 183.292 213.09C183.012 213.07 182.712 213.05 182.392 213.03C182.072 213.03 181.772 213.02 181.492 213C181.212 213 181.002 213 180.862 213H180.442C180.302 213 180.082 213 179.782 213C179.502 213.02 179.202 213.03 178.882 213.03C178.582 213.05 178.282 213.07 177.982 213.09C177.702 213.11 177.492 213.12 177.352 213.12L177.322 213L177.352 212.58L177.472 212.46C177.792 212.46 178.102 212.45 178.402 212.43C178.722 212.39 178.962 212.29 179.122 212.13C179.282 211.99 179.382 211.81 179.422 211.59C179.482 211.37 179.532 211.06 179.572 210.66C179.592 210.4 179.602 210.14 179.602 209.88C179.622 209.62 179.632 209.32 179.632 208.98C179.652 208.62 179.662 208.21 179.662 207.75C179.662 207.27 179.662 206.68 179.662 205.98V198.78C179.662 197.96 179.662 197.27 179.662 196.71C179.662 196.13 179.652 195.63 179.632 195.21C179.632 194.79 179.622 194.42 179.602 194.1C179.602 193.78 179.592 193.46 179.572 193.14C179.552 192.92 179.492 192.73 179.392 192.57C179.312 192.41 179.242 192.29 179.182 192.21C178.982 191.99 178.732 191.85 178.432 191.79C178.132 191.73 177.822 191.7 177.502 191.7L177.382 191.58V191.19L177.502 191.07H178.042C178.382 191.07 178.812 191.07 179.332 191.07C179.852 191.05 180.302 191.01 180.682 190.95L181.732 190.8L181.912 191.07C181.872 191.15 181.842 191.3 181.822 191.52C181.802 191.72 181.782 191.94 181.762 192.18C181.742 192.42 181.732 192.65 181.732 192.87C181.732 193.09 181.732 193.26 181.732 193.38C181.732 194.02 181.712 194.79 181.672 195.69C181.652 196.57 181.642 197.58 181.642 198.72C181.642 199.56 181.632 200.22 181.612 200.7C181.612 201.18 181.592 201.56 181.552 201.84L181.642 201.9C182.142 201.02 182.812 200.28 183.652 199.68C184.492 199.06 185.532 198.75 186.772 198.75C187.332 198.75 187.892 198.83 188.452 198.99C189.032 199.15 189.552 199.4 190.012 199.74C190.472 200.08 190.862 200.51 191.182 201.03C191.502 201.55 191.702 202.17 191.782 202.89C191.842 203.41 191.872 204.01 191.872 204.69C191.892 205.35 191.902 205.89 191.902 206.31V210.54C191.902 211 191.942 211.36 192.022 211.62C192.122 211.86 192.232 212.03 192.352 212.13C192.532 212.29 192.772 212.39 193.072 212.43C193.392 212.45 193.712 212.46 194.032 212.46L194.122 212.58L194.182 213L194.122 213.12C193.782 213.08 193.402 213.05 192.982 213.03C192.562 213.01 192.152 213 191.752 213C190.992 213 190.302 213.03 189.682 213.09L189.472 212.79ZM203.652 198.75C204.832 198.75 205.882 198.96 206.802 199.38C207.722 199.78 208.492 200.33 209.112 201.03C209.752 201.71 210.232 202.5 210.552 203.4C210.892 204.3 211.062 205.23 211.062 206.19C211.062 207.11 210.912 208 210.612 208.86C210.312 209.72 209.852 210.48 209.232 211.14C208.612 211.8 207.842 212.33 206.922 212.73C206.002 213.13 204.932 213.33 203.712 213.33C202.452 213.33 201.352 213.12 200.412 212.7C199.472 212.28 198.692 211.73 198.072 211.05C197.472 210.37 197.022 209.6 196.722 208.74C196.422 207.86 196.272 206.96 196.272 206.04C196.272 205.06 196.442 204.13 196.782 203.25C197.122 202.37 197.602 201.6 198.222 200.94C198.862 200.26 199.632 199.73 200.532 199.35C201.452 198.95 202.492 198.75 203.652 198.75ZM203.682 212.16C204.522 212.16 205.262 211.99 205.902 211.65C206.542 211.31 207.072 210.86 207.492 210.3C207.912 209.74 208.222 209.11 208.422 208.41C208.642 207.69 208.752 206.95 208.752 206.19C208.752 205.47 208.632 204.74 208.392 204C208.172 203.26 207.842 202.6 207.402 202.02C206.962 201.42 206.422 200.94 205.782 200.58C205.142 200.2 204.402 200.01 203.562 200.01C202.682 200.01 201.922 200.19 201.282 200.55C200.662 200.89 200.142 201.34 199.722 201.9C199.322 202.46 199.022 203.1 198.822 203.82C198.622 204.54 198.522 205.26 198.522 205.98C198.522 206.72 198.632 207.46 198.852 208.2C199.092 208.92 199.432 209.58 199.872 210.18C200.312 210.76 200.852 211.24 201.492 211.62C202.132 211.98 202.862 212.16 203.682 212.16ZM217.752 201.48C218.332 200.66 219.032 200 219.852 199.5C220.692 199 221.622 198.75 222.642 198.75C223.782 198.75 224.762 198.95 225.582 199.35C226.422 199.75 227.112 200.28 227.652 200.94C228.192 201.6 228.592 202.36 228.852 203.22C229.112 204.06 229.242 204.94 229.242 205.86C229.242 207.22 229.032 208.38 228.612 209.34C228.192 210.28 227.652 211.05 226.992 211.65C226.352 212.23 225.642 212.66 224.862 212.94C224.102 213.2 223.372 213.33 222.672 213.33C221.712 213.33 220.792 213.11 219.912 212.67C219.032 212.21 218.282 211.47 217.662 210.45L217.572 210.51C217.592 210.79 217.612 211.12 217.632 211.5C217.652 211.88 217.662 212.43 217.662 213.15C217.662 213.97 217.662 214.63 217.662 215.13C217.662 215.65 217.662 216.09 217.662 216.45C217.682 216.81 217.692 217.13 217.692 217.41C217.712 217.71 217.742 218.03 217.782 218.37C217.822 218.77 217.862 219.08 217.902 219.3C217.962 219.52 218.072 219.69 218.232 219.81C218.392 219.97 218.612 220.07 218.892 220.11C219.192 220.15 219.492 220.17 219.792 220.17L219.942 220.29L220.002 220.71L219.942 220.8C219.802 220.8 219.592 220.79 219.312 220.77C219.032 220.77 218.732 220.76 218.412 220.74C218.092 220.74 217.792 220.73 217.512 220.71C217.232 220.71 217.022 220.71 216.882 220.71H216.462C216.322 220.71 216.102 220.71 215.802 220.71C215.522 220.73 215.222 220.74 214.902 220.74C214.602 220.76 214.302 220.77 214.002 220.77C213.722 220.79 213.512 220.8 213.372 220.8L213.342 220.71L213.372 220.26L213.492 220.17C213.812 220.17 214.122 220.15 214.422 220.11C214.722 220.07 214.962 219.97 215.142 219.81C215.302 219.67 215.402 219.49 215.442 219.27C215.502 219.07 215.552 218.77 215.592 218.37C215.612 218.11 215.622 217.85 215.622 217.59C215.642 217.35 215.652 217.06 215.652 216.72C215.672 216.38 215.682 215.98 215.682 215.52C215.682 215.06 215.682 214.5 215.682 213.84V206.85C215.682 206.05 215.682 205.38 215.682 204.84C215.682 204.3 215.672 203.83 215.652 203.43C215.652 203.03 215.642 202.68 215.622 202.38C215.622 202.06 215.612 201.74 215.592 201.42C215.572 201.2 215.512 201.01 215.412 200.85C215.332 200.67 215.262 200.55 215.202 200.49C215.002 200.25 214.752 200.11 214.452 200.07C214.152 200.01 213.842 199.98 213.522 199.98L213.402 199.86V199.44L213.522 199.35H214.062C214.402 199.35 214.832 199.35 215.352 199.35C215.872 199.33 216.322 199.29 216.702 199.23L217.752 199.08L217.932 199.35C217.892 199.43 217.852 199.56 217.812 199.74C217.792 199.9 217.762 200.09 217.722 200.31C217.702 200.51 217.682 200.72 217.662 200.94C217.662 201.14 217.662 201.31 217.662 201.45L217.752 201.48ZM226.962 205.92C226.962 205.24 226.872 204.57 226.692 203.91C226.512 203.25 226.232 202.67 225.852 202.17C225.492 201.65 225.032 201.24 224.472 200.94C223.912 200.62 223.252 200.46 222.492 200.46C221.732 200.46 221.062 200.6 220.482 200.88C219.902 201.16 219.402 201.51 218.982 201.93C218.582 202.33 218.262 202.75 218.022 203.19C217.802 203.63 217.682 204.01 217.662 204.33V207.63C217.722 207.95 217.852 208.34 218.052 208.8C218.252 209.26 218.542 209.71 218.922 210.15C219.322 210.57 219.812 210.93 220.392 211.23C220.972 211.53 221.652 211.68 222.432 211.68C223.212 211.68 223.882 211.52 224.442 211.2C225.022 210.86 225.492 210.42 225.852 209.88C226.232 209.34 226.512 208.73 226.692 208.05C226.872 207.35 226.962 206.64 226.962 205.92ZM235.982 201.48C236.562 200.66 237.262 200 238.082 199.5C238.922 199 239.852 198.75 240.872 198.75C242.012 198.75 242.992 198.95 243.812 199.35C244.652 199.75 245.342 200.28 245.882 200.94C246.422 201.6 246.822 202.36 247.082 203.22C247.342 204.06 247.472 204.94 247.472 205.86C247.472 207.22 247.262 208.38 246.842 209.34C246.422 210.28 245.882 211.05 245.222 211.65C244.582 212.23 243.872 212.66 243.092 212.94C242.332 213.2 241.602 213.33 240.902 213.33C239.942 213.33 239.022 213.11 238.142 212.67C237.262 212.21 236.512 211.47 235.892 210.45L235.802 210.51C235.822 210.79 235.842 211.12 235.862 211.5C235.882 211.88 235.892 212.43 235.892 213.15C235.892 213.97 235.892 214.63 235.892 215.13C235.892 215.65 235.892 216.09 235.892 216.45C235.912 216.81 235.922 217.13 235.922 217.41C235.942 217.71 235.972 218.03 236.012 218.37C236.052 218.77 236.092 219.08 236.132 219.3C236.192 219.52 236.302 219.69 236.462 219.81C236.622 219.97 236.842 220.07 237.122 220.11C237.422 220.15 237.722 220.17 238.022 220.17L238.172 220.29L238.232 220.71L238.172 220.8C238.032 220.8 237.822 220.79 237.542 220.77C237.262 220.77 236.962 220.76 236.642 220.74C236.322 220.74 236.022 220.73 235.742 220.71C235.462 220.71 235.252 220.71 235.112 220.71H234.692C234.552 220.71 234.332 220.71 234.032 220.71C233.752 220.73 233.452 220.74 233.132 220.74C232.832 220.76 232.532 220.77 232.232 220.77C231.952 220.79 231.742 220.8 231.602 220.8L231.572 220.71L231.602 220.26L231.722 220.17C232.042 220.17 232.352 220.15 232.652 220.11C232.952 220.07 233.192 219.97 233.372 219.81C233.532 219.67 233.632 219.49 233.672 219.27C233.732 219.07 233.782 218.77 233.822 218.37C233.842 218.11 233.852 217.85 233.852 217.59C233.872 217.35 233.882 217.06 233.882 216.72C233.902 216.38 233.912 215.98 233.912 215.52C233.912 215.06 233.912 214.5 233.912 213.84V206.85C233.912 206.05 233.912 205.38 233.912 204.84C233.912 204.3 233.902 203.83 233.882 203.43C233.882 203.03 233.872 202.68 233.852 202.38C233.852 202.06 233.842 201.74 233.822 201.42C233.802 201.2 233.742 201.01 233.642 200.85C233.562 200.67 233.492 200.55 233.432 200.49C233.232 200.25 232.982 200.11 232.682 200.07C232.382 200.01 232.072 199.98 231.752 199.98L231.632 199.86V199.44L231.752 199.35H232.292C232.632 199.35 233.062 199.35 233.582 199.35C234.102 199.33 234.552 199.29 234.932 199.23L235.982 199.08L236.162 199.35C236.122 199.43 236.082 199.56 236.042 199.74C236.022 199.9 235.992 200.09 235.952 200.31C235.932 200.51 235.912 200.72 235.892 200.94C235.892 201.14 235.892 201.31 235.892 201.45L235.982 201.48ZM245.192 205.92C245.192 205.24 245.102 204.57 244.922 203.91C244.742 203.25 244.462 202.67 244.082 202.17C243.722 201.65 243.262 201.24 242.702 200.94C242.142 200.62 241.482 200.46 240.722 200.46C239.962 200.46 239.292 200.6 238.712 200.88C238.132 201.16 237.632 201.51 237.212 201.93C236.812 202.33 236.492 202.75 236.252 203.19C236.032 203.63 235.912 204.01 235.892 204.33V207.63C235.952 207.95 236.082 208.34 236.282 208.8C236.482 209.26 236.772 209.71 237.152 210.15C237.552 210.57 238.042 210.93 238.622 211.23C239.202 211.53 239.882 211.68 240.662 211.68C241.442 211.68 242.112 211.52 242.672 211.2C243.252 210.86 243.722 210.42 244.082 209.88C244.462 209.34 244.742 208.73 244.922 208.05C245.102 207.35 245.192 206.64 245.192 205.92ZM256.732 213.12C256.592 213.12 256.382 213.11 256.102 213.09C255.822 213.07 255.522 213.05 255.202 213.03C254.882 213.03 254.582 213.02 254.302 213C254.022 213 253.812 213 253.672 213H253.252C253.112 213 252.892 213 252.592 213C252.312 213.02 252.012 213.03 251.692 213.03C251.392 213.05 251.092 213.07 250.792 213.09C250.512 213.11 250.302 213.12 250.162 213.12L250.132 213L250.162 212.58L250.282 212.46C250.602 212.46 250.912 212.45 251.212 212.43C251.532 212.39 251.772 212.29 251.932 212.13C252.092 211.99 252.192 211.81 252.232 211.59C252.292 211.37 252.342 211.06 252.382 210.66C252.402 210.34 252.422 210.02 252.442 209.7C252.462 209.36 252.472 208.83 252.472 208.11V204.42C252.472 204 252.472 203.65 252.472 203.37C252.472 203.07 252.462 202.81 252.442 202.59C252.442 202.37 252.432 202.17 252.412 201.99C252.412 201.81 252.402 201.62 252.382 201.42C252.342 201.2 252.282 201.01 252.202 200.85C252.122 200.67 252.052 200.55 251.992 200.49C251.792 200.25 251.542 200.11 251.242 200.07C250.942 200.01 250.632 199.98 250.312 199.98L250.192 199.86V199.44L250.312 199.35H250.852C251.192 199.35 251.622 199.35 252.142 199.35C252.662 199.33 253.112 199.29 253.492 199.23L254.542 199.08L254.722 199.35C254.682 199.43 254.642 199.57 254.602 199.77C254.582 199.97 254.562 200.19 254.542 200.43C254.542 200.65 254.532 200.87 254.512 201.09C254.512 201.31 254.512 201.48 254.512 201.6C254.512 201.76 254.502 201.92 254.482 202.08C254.482 202.22 254.482 202.39 254.482 202.59C254.482 202.79 254.472 203.03 254.452 203.31C254.452 203.59 254.452 203.95 254.452 204.39V207.75C254.452 208.19 254.452 208.55 254.452 208.83C254.472 209.11 254.482 209.35 254.482 209.55C254.502 209.75 254.512 209.94 254.512 210.12C254.532 210.28 254.552 210.46 254.572 210.66C254.612 211.08 254.652 211.4 254.692 211.62C254.752 211.82 254.862 211.99 255.022 212.13C255.182 212.27 255.402 212.36 255.682 212.4C255.982 212.44 256.282 212.46 256.582 212.46L256.732 212.61L256.792 213L256.732 213.12ZM251.692 194.07C251.692 193.67 251.822 193.33 252.082 193.05C252.362 192.75 252.702 192.6 253.102 192.6C253.502 192.6 253.842 192.75 254.122 193.05C254.422 193.33 254.572 193.67 254.572 194.07C254.572 194.47 254.422 194.81 254.122 195.09C253.842 195.35 253.502 195.48 253.102 195.48C252.702 195.48 252.362 195.35 252.082 195.09C251.822 194.81 251.692 194.47 251.692 194.07ZM263.103 201.78C263.623 200.92 264.293 200.2 265.113 199.62C265.933 199.04 266.953 198.75 268.173 198.75C268.733 198.75 269.293 198.83 269.853 198.99C270.413 199.15 270.923 199.4 271.383 199.74C271.863 200.08 272.253 200.52 272.553 201.06C272.873 201.58 273.083 202.2 273.183 202.92C273.243 203.44 273.273 203.99 273.273 204.57C273.293 205.15 273.303 205.73 273.303 206.31C273.303 207.03 273.303 207.76 273.303 208.5C273.323 209.22 273.333 209.94 273.333 210.66C273.373 211.12 273.423 211.46 273.483 211.68C273.543 211.88 273.633 212.03 273.753 212.13C273.933 212.29 274.173 212.39 274.473 212.43C274.793 212.45 275.113 212.46 275.433 212.46L275.523 212.58L275.583 213L275.523 213.12C275.183 213.08 274.803 213.05 274.383 213.03C273.963 213.01 273.553 213 273.153 213C272.393 213 271.703 213.03 271.083 213.09L270.873 212.79C270.953 212.53 271.013 212.19 271.053 211.77C271.093 211.35 271.123 210.98 271.143 210.66C271.183 209.82 271.213 209 271.233 208.2C271.253 207.38 271.263 206.7 271.263 206.16C271.263 205.7 271.243 205.2 271.203 204.66C271.183 204.12 271.123 203.65 271.023 203.25C270.823 202.31 270.413 201.61 269.793 201.15C269.173 200.69 268.453 200.46 267.633 200.46C266.973 200.46 266.353 200.6 265.773 200.88C265.213 201.16 264.733 201.51 264.333 201.93C263.933 202.33 263.613 202.76 263.373 203.22C263.153 203.66 263.043 204.04 263.043 204.36V207.75C263.043 208.19 263.043 208.55 263.043 208.83C263.043 209.11 263.043 209.35 263.043 209.55C263.063 209.75 263.083 209.94 263.103 210.12C263.123 210.28 263.143 210.46 263.163 210.66C263.203 211.08 263.243 211.4 263.283 211.62C263.343 211.82 263.453 211.99 263.613 212.13C263.773 212.27 263.993 212.36 264.273 212.4C264.573 212.44 264.873 212.46 265.173 212.46L265.323 212.61L265.383 213L265.323 213.12C265.183 213.12 264.973 213.11 264.693 213.09C264.413 213.07 264.113 213.05 263.793 213.03C263.473 213.03 263.173 213.02 262.893 213C262.613 213 262.403 213 262.263 213H261.843C261.703 213 261.483 213 261.183 213C260.903 213.02 260.603 213.03 260.283 213.03C259.983 213.05 259.683 213.07 259.383 213.09C259.103 213.11 258.893 213.12 258.753 213.12L258.723 213L258.753 212.58L258.873 212.46C259.193 212.46 259.503 212.45 259.803 212.43C260.123 212.39 260.363 212.29 260.523 212.13C260.683 211.99 260.783 211.81 260.823 211.59C260.883 211.37 260.933 211.06 260.973 210.66C260.993 210.34 261.013 210.02 261.033 209.7C261.053 209.36 261.063 208.83 261.063 208.11V204.42C261.063 204 261.063 203.65 261.063 203.37C261.063 203.07 261.053 202.81 261.033 202.59C261.033 202.37 261.023 202.17 261.003 201.99C261.003 201.81 260.993 201.62 260.973 201.42C260.933 201.2 260.873 201.01 260.793 200.85C260.713 200.67 260.643 200.55 260.583 200.49C260.383 200.25 260.133 200.11 259.833 200.07C259.533 200.01 259.223 199.98 258.903 199.98L258.783 199.86V199.44L258.903 199.35H259.443C259.783 199.35 260.213 199.35 260.733 199.35C261.253 199.33 261.703 199.29 262.083 199.23L263.133 199.08L263.313 199.35C263.213 199.61 263.143 199.97 263.103 200.43C263.063 200.87 263.033 201.3 263.013 201.72L263.103 201.78ZM280.874 208.92C279.794 208.52 279.014 207.89 278.534 207.03C278.054 206.17 277.814 205.22 277.814 204.18C277.814 203.44 277.944 202.74 278.204 202.08C278.464 201.42 278.834 200.85 279.314 200.37C279.814 199.87 280.404 199.48 281.084 199.2C281.784 198.92 282.574 198.78 283.454 198.78C283.974 198.78 284.484 198.83 284.984 198.93C285.504 199.03 285.954 199.17 286.334 199.35C287.174 199.33 287.954 199.28 288.674 199.2C289.414 199.12 290.104 198.99 290.744 198.81L290.894 198.93L290.684 200.58L290.534 200.73L287.804 200.61L287.774 200.7C288.294 201.12 288.674 201.67 288.914 202.35C289.154 203.03 289.274 203.69 289.274 204.33C289.274 204.99 289.144 205.62 288.884 206.22C288.644 206.82 288.284 207.35 287.804 207.81C287.324 208.25 286.724 208.61 286.004 208.89C285.284 209.15 284.454 209.28 283.514 209.28C283.354 209.28 283.154 209.28 282.914 209.28C282.674 209.26 282.474 209.25 282.314 209.25C281.974 209.39 281.714 209.58 281.534 209.82C281.374 210.06 281.294 210.26 281.294 210.42C281.294 210.62 281.424 210.8 281.684 210.96C281.964 211.1 282.404 211.2 283.004 211.26L285.914 211.56C286.574 211.64 287.184 211.78 287.744 211.98C288.324 212.18 288.824 212.45 289.244 212.79C289.684 213.11 290.024 213.5 290.264 213.96C290.504 214.44 290.624 214.99 290.624 215.61C290.624 216.19 290.494 216.77 290.234 217.35C289.974 217.95 289.584 218.48 289.064 218.94C288.544 219.38 287.824 219.74 286.904 220.02C285.984 220.3 284.924 220.44 283.724 220.44C282.644 220.44 281.704 220.32 280.904 220.08C280.124 219.86 279.464 219.55 278.924 219.15C278.404 218.77 278.014 218.33 277.754 217.83C277.494 217.35 277.364 216.85 277.364 216.33C277.364 215.49 277.634 214.74 278.174 214.08C278.734 213.44 279.444 212.99 280.304 212.73L280.334 212.64C279.894 212.46 279.544 212.24 279.284 211.98C279.024 211.7 278.894 211.36 278.894 210.96C278.894 210.44 279.104 210.02 279.524 209.7C279.944 209.38 280.394 209.16 280.874 209.04V208.92ZM283.574 208.02C284.134 208.02 284.624 207.92 285.044 207.72C285.484 207.52 285.854 207.25 286.154 206.91C286.454 206.57 286.684 206.18 286.844 205.74C287.004 205.28 287.084 204.81 287.084 204.33C287.084 203.83 287.004 203.33 286.844 202.83C286.684 202.33 286.444 201.88 286.124 201.48C285.824 201.08 285.444 200.75 284.984 200.49C284.524 200.23 283.994 200.1 283.394 200.1C282.814 200.1 282.304 200.22 281.864 200.46C281.444 200.7 281.084 201.01 280.784 201.39C280.504 201.77 280.294 202.2 280.154 202.68C280.014 203.14 279.944 203.6 279.944 204.06C279.944 204.54 280.014 205.02 280.154 205.5C280.314 205.96 280.544 206.38 280.844 206.76C281.164 207.14 281.544 207.45 281.984 207.69C282.444 207.91 282.974 208.02 283.574 208.02ZM282.614 213.15C282.054 213.17 281.564 213.27 281.144 213.45C280.724 213.63 280.364 213.85 280.064 214.11C279.784 214.39 279.574 214.69 279.434 215.01C279.294 215.35 279.224 215.68 279.224 216C279.224 216.76 279.644 217.38 280.484 217.86C281.324 218.34 282.464 218.58 283.904 218.58C284.564 218.58 285.174 218.52 285.734 218.4C286.294 218.3 286.774 218.13 287.174 217.89C287.594 217.67 287.924 217.39 288.164 217.05C288.404 216.73 288.524 216.35 288.524 215.91C288.524 215.43 288.404 215.04 288.164 214.74C287.944 214.44 287.644 214.19 287.264 213.99C286.904 213.81 286.484 213.67 286.004 213.57C285.544 213.49 285.084 213.42 284.624 213.36L282.614 213.15ZM298.42 207.84L298.24 208.05L297.19 208.53L297.01 208.41C296.99 207.91 296.97 207.37 296.95 206.79C296.93 206.21 296.92 205.78 296.92 205.5C296.92 204.7 297.13 203.96 297.55 203.28C297.97 202.58 298.43 201.89 298.93 201.21C299.43 200.53 299.89 199.83 300.31 199.11C300.73 198.39 300.94 197.59 300.94 196.71C300.94 196.19 300.84 195.74 300.64 195.36C300.46 194.98 300.22 194.67 299.92 194.43C299.64 194.17 299.32 193.98 298.96 193.86C298.62 193.74 298.28 193.68 297.94 193.68C297.4 193.68 296.91 193.77 296.47 193.95C296.05 194.13 295.67 194.38 295.33 194.7C295.01 195 294.75 195.36 294.55 195.78C294.35 196.18 294.22 196.6 294.16 197.04L294.1 197.13H293.56L293.2 194.34L293.26 194.07C293.44 193.79 293.72 193.55 294.1 193.35C294.5 193.13 294.93 192.96 295.39 192.84C295.87 192.7 296.34 192.6 296.8 192.54C297.28 192.46 297.69 192.42 298.03 192.42C298.45 192.42 298.94 192.49 299.5 192.63C300.08 192.77 300.62 193.02 301.12 193.38C301.64 193.74 302.07 194.23 302.41 194.85C302.77 195.47 302.95 196.26 302.95 197.22C302.95 197.84 302.84 198.44 302.62 199.02C302.42 199.58 302.16 200.13 301.84 200.67C301.52 201.19 301.17 201.69 300.79 202.17C300.43 202.65 300.08 203.12 299.74 203.58C299.42 204.02 299.14 204.44 298.9 204.84C298.68 205.24 298.56 205.62 298.54 205.98L298.42 207.84ZM296.32 211.92C296.32 211.52 296.45 211.19 296.71 210.93C296.99 210.65 297.32 210.51 297.7 210.51C298.08 210.51 298.41 210.65 298.69 210.93C298.99 211.19 299.14 211.52 299.14 211.92C299.14 212.3 298.99 212.63 298.69 212.91C298.41 213.19 298.08 213.33 297.7 213.33C297.32 213.33 296.99 213.19 296.71 212.91C296.45 212.63 296.32 212.3 296.32 211.92Z" fill="#1B1D1C"/>
<rect width="357" height="64" transform="translate(35 299)" fill="#F5F5F5"/>
<rect x="36" y="300" width="355" height="62" rx="9" fill="#F5F5F5"/>
<rect x="36" y="300" width="355" height="62" rx="9" stroke="#626262" stroke-width="2"/>
<path d="M60.1921 337.112C59.4455 337.112 58.7735 336.984 58.1761 336.728C57.5788 336.461 57.1095 336.088 56.7681 335.608C56.4268 335.128 56.2561 334.568 56.2561 333.928H58.2081C58.2508 334.408 58.4375 334.803 58.7681 335.112C59.1095 335.421 59.5841 335.576 60.1921 335.576C60.8215 335.576 61.3121 335.427 61.6641 335.128C62.0161 334.819 62.1921 334.424 62.1921 333.944C62.1921 333.571 62.0801 333.267 61.8561 333.032C61.6428 332.797 61.3708 332.616 61.0401 332.488C60.7201 332.36 60.2721 332.221 59.6961 332.072C58.9708 331.88 58.3788 331.688 57.9201 331.496C57.4721 331.293 57.0881 330.984 56.7681 330.568C56.4481 330.152 56.2881 329.597 56.2881 328.904C56.2881 328.264 56.4481 327.704 56.7681 327.224C57.0881 326.744 57.5361 326.376 58.1121 326.12C58.6881 325.864 59.3548 325.736 60.1121 325.736C61.1895 325.736 62.0695 326.008 62.7521 326.552C63.4455 327.085 63.8295 327.821 63.9041 328.76H61.8881C61.8561 328.355 61.6641 328.008 61.3121 327.72C60.9601 327.432 60.4961 327.288 59.9201 327.288C59.3975 327.288 58.9708 327.421 58.6401 327.688C58.3095 327.955 58.1441 328.339 58.1441 328.84C58.1441 329.181 58.2455 329.464 58.4481 329.688C58.6615 329.901 58.9281 330.072 59.2481 330.2C59.5681 330.328 60.0055 330.467 60.5601 330.616C61.2961 330.819 61.8935 331.021 62.3521 331.224C62.8215 331.427 63.2161 331.741 63.5361 332.168C63.8668 332.584 64.0321 333.144 64.0321 333.848C64.0321 334.413 63.8775 334.947 63.5681 335.448C63.2695 335.949 62.8268 336.355 62.2401 336.664C61.6641 336.963 60.9815 337.112 60.1921 337.112ZM74.2644 332.376C74.2644 332.707 74.243 333.005 74.2004 333.272H67.4644C67.5177 333.976 67.779 334.541 68.2484 334.968C68.7177 335.395 69.2937 335.608 69.9764 335.608C70.9577 335.608 71.651 335.197 72.0564 334.376H74.0244C73.7577 335.187 73.2724 335.853 72.5684 336.376C71.875 336.888 71.011 337.144 69.9764 337.144C69.1337 337.144 68.3764 336.957 67.7044 336.584C67.043 336.2 66.5204 335.667 66.1364 334.984C65.763 334.291 65.5764 333.491 65.5764 332.584C65.5764 331.677 65.7577 330.883 66.1204 330.2C66.4937 329.507 67.011 328.973 67.6724 328.6C68.3444 328.227 69.1124 328.04 69.9764 328.04C70.8084 328.04 71.5497 328.221 72.2004 328.584C72.851 328.947 73.3577 329.459 73.7204 330.12C74.083 330.771 74.2644 331.523 74.2644 332.376ZM72.3604 331.8C72.3497 331.128 72.1097 330.589 71.6404 330.184C71.171 329.779 70.5897 329.576 69.8964 329.576C69.267 329.576 68.7284 329.779 68.2804 330.184C67.8324 330.579 67.5657 331.117 67.4804 331.8H72.3604ZM77.8834 325.16V337H76.0594V325.16H77.8834ZM88.3581 332.376C88.3581 332.707 88.3368 333.005 88.2941 333.272H81.5581C81.6115 333.976 81.8728 334.541 82.3421 334.968C82.8115 335.395 83.3875 335.608 84.0701 335.608C85.0515 335.608 85.7448 335.197 86.1501 334.376H88.1181C87.8515 335.187 87.3661 335.853 86.6621 336.376C85.9688 336.888 85.1048 337.144 84.0701 337.144C83.2275 337.144 82.4701 336.957 81.7981 336.584C81.1368 336.2 80.6141 335.667 80.2301 334.984C79.8568 334.291 79.6701 333.491 79.6701 332.584C79.6701 331.677 79.8515 330.883 80.2141 330.2C80.5875 329.507 81.1048 328.973 81.7661 328.6C82.4381 328.227 83.2061 328.04 84.0701 328.04C84.9021 328.04 85.6435 328.221 86.2941 328.584C86.9448 328.947 87.4515 329.459 87.8141 330.12C88.1768 330.771 88.3581 331.523 88.3581 332.376ZM86.4541 331.8C86.4435 331.128 86.2035 330.589 85.7341 330.184C85.2648 329.779 84.6835 329.576 83.9901 329.576C83.3608 329.576 82.8221 329.779 82.3741 330.184C81.9261 330.579 81.6595 331.117 81.5741 331.8H86.4541ZM89.5451 332.584C89.5451 331.677 89.7265 330.883 90.0891 330.2C90.4625 329.507 90.9745 328.973 91.6251 328.6C92.2758 328.227 93.0225 328.04 93.8651 328.04C94.9318 328.04 95.8118 328.296 96.5051 328.808C97.2091 329.309 97.6838 330.029 97.9291 330.968H95.9611C95.8011 330.531 95.5451 330.189 95.1931 329.944C94.8411 329.699 94.3985 329.576 93.8651 329.576C93.1185 329.576 92.5211 329.843 92.0731 330.376C91.6358 330.899 91.4171 331.635 91.4171 332.584C91.4171 333.533 91.6358 334.275 92.0731 334.808C92.5211 335.341 93.1185 335.608 93.8651 335.608C94.9211 335.608 95.6198 335.144 95.9611 334.216H97.9291C97.6731 335.112 97.1931 335.827 96.4891 336.36C95.7851 336.883 94.9105 337.144 93.8651 337.144C93.0225 337.144 92.2758 336.957 91.6251 336.584C90.9745 336.2 90.4625 335.667 90.0891 334.984C89.7265 334.291 89.5451 333.491 89.5451 332.584ZM101.875 329.672V334.552C101.875 334.883 101.95 335.123 102.099 335.272C102.259 335.411 102.526 335.48 102.899 335.48H104.019V337H102.579C101.758 337 101.128 336.808 100.691 336.424C100.254 336.04 100.035 335.416 100.035 334.552V329.672H98.9949V328.184H100.035V325.992H101.875V328.184H104.019V329.672H101.875ZM113.488 325.88C114.672 325.88 115.707 326.109 116.592 326.568C117.488 327.016 118.176 327.667 118.656 328.52C119.147 329.363 119.392 330.349 119.392 331.48C119.392 332.611 119.147 333.592 118.656 334.424C118.176 335.256 117.488 335.896 116.592 336.344C115.707 336.781 114.672 337 113.488 337H109.856V325.88H113.488ZM113.488 335.512C114.79 335.512 115.787 335.16 116.48 334.456C117.174 333.752 117.52 332.76 117.52 331.48C117.52 330.189 117.174 329.181 116.48 328.456C115.787 327.731 114.79 327.368 113.488 327.368H111.68V335.512H113.488ZM120.592 332.552C120.592 331.667 120.773 330.883 121.136 330.2C121.509 329.517 122.011 328.989 122.64 328.616C123.28 328.232 123.984 328.04 124.752 328.04C125.445 328.04 126.048 328.179 126.56 328.456C127.083 328.723 127.499 329.059 127.808 329.464V328.184H129.648V337H127.808V335.688C127.499 336.104 127.077 336.451 126.544 336.728C126.011 337.005 125.403 337.144 124.72 337.144C123.963 337.144 123.269 336.952 122.64 336.568C122.011 336.173 121.509 335.629 121.136 334.936C120.773 334.232 120.592 333.437 120.592 332.552ZM127.808 332.584C127.808 331.976 127.68 331.448 127.424 331C127.179 330.552 126.853 330.211 126.448 329.976C126.043 329.741 125.605 329.624 125.136 329.624C124.667 329.624 124.229 329.741 123.824 329.976C123.419 330.2 123.088 330.536 122.832 330.984C122.587 331.421 122.464 331.944 122.464 332.552C122.464 333.16 122.587 333.693 122.832 334.152C123.088 334.611 123.419 334.963 123.824 335.208C124.24 335.443 124.677 335.56 125.136 335.56C125.605 335.56 126.043 335.443 126.448 335.208C126.853 334.973 127.179 334.632 127.424 334.184C127.68 333.725 127.808 333.192 127.808 332.584ZM134.172 329.672V334.552C134.172 334.883 134.246 335.123 134.396 335.272C134.556 335.411 134.822 335.48 135.196 335.48H136.316V337H134.876C134.054 337 133.425 336.808 132.988 336.424C132.55 336.04 132.332 335.416 132.332 334.552V329.672H131.292V328.184H132.332V325.992H134.172V328.184H136.316V329.672H134.172ZM146.077 332.376C146.077 332.707 146.056 333.005 146.013 333.272H139.277C139.33 333.976 139.592 334.541 140.061 334.968C140.53 335.395 141.106 335.608 141.789 335.608C142.77 335.608 143.464 335.197 143.869 334.376H145.837C145.57 335.187 145.085 335.853 144.381 336.376C143.688 336.888 142.824 337.144 141.789 337.144C140.946 337.144 140.189 336.957 139.517 336.584C138.856 336.2 138.333 335.667 137.949 334.984C137.576 334.291 137.389 333.491 137.389 332.584C137.389 331.677 137.57 330.883 137.933 330.2C138.306 329.507 138.824 328.973 139.485 328.6C140.157 328.227 140.925 328.04 141.789 328.04C142.621 328.04 143.362 328.221 144.013 328.584C144.664 328.947 145.17 329.459 145.533 330.12C145.896 330.771 146.077 331.523 146.077 332.376ZM144.173 331.8C144.162 331.128 143.922 330.589 143.453 330.184C142.984 329.779 142.402 329.576 141.709 329.576C141.08 329.576 140.541 329.779 140.093 330.184C139.645 330.579 139.378 331.117 139.293 331.8H144.173Z" fill="#626262"/>
<path d="M356 315.25V321.75M343 315.25V321.75M334.875 328.25H364.125M338.125 318.5H360.875C362.67 318.5 364.125 319.955 364.125 321.75V344.5C364.125 346.295 362.67 347.75 360.875 347.75H338.125C336.33 347.75 334.875 346.295 334.875 344.5V321.75C334.875 319.955 336.33 318.5 338.125 318.5Z" stroke="#1E1E1E" stroke-linecap="round" stroke-linejoin="round"/>
<g filter="url(#filter0_d_9_12145)">
<rect x="35" y="517" width="357" height="60" rx="10" fill="#039855" shape-rendering="crispEdges"/>
<path d="M204.017 554H201.217L194.877 544.42V554H192.077V540.02H194.877L201.217 549.62V540.02H204.017V554ZM217.084 548.22C217.084 548.62 217.058 548.98 217.004 549.3H208.904C208.971 550.1 209.251 550.727 209.744 551.18C210.238 551.633 210.844 551.86 211.564 551.86C212.604 551.86 213.344 551.413 213.784 550.52H216.804C216.484 551.587 215.871 552.467 214.964 553.16C214.058 553.84 212.944 554.18 211.624 554.18C210.558 554.18 209.598 553.947 208.744 553.48C207.904 553 207.244 552.327 206.764 551.46C206.298 550.593 206.064 549.593 206.064 548.46C206.064 547.313 206.298 546.307 206.764 545.44C207.231 544.573 207.884 543.907 208.724 543.44C209.564 542.973 210.531 542.74 211.624 542.74C212.678 542.74 213.618 542.967 214.444 543.42C215.284 543.873 215.931 544.52 216.384 545.36C216.851 546.187 217.084 547.14 217.084 548.22ZM214.184 547.42C214.171 546.7 213.911 546.127 213.404 545.7C212.898 545.26 212.278 545.04 211.544 545.04C210.851 545.04 210.264 545.253 209.784 545.68C209.318 546.093 209.031 546.673 208.924 547.42H214.184ZM225.248 554L222.968 550.56L220.948 554H217.948L221.568 548.44L217.908 542.92H221.068L223.328 546.34L225.368 542.92H228.368L224.728 548.44L228.408 554H225.248ZM233.189 545.22V550.58C233.189 550.953 233.275 551.227 233.449 551.4C233.635 551.56 233.942 551.64 234.369 551.64H235.669V554H233.909C231.549 554 230.369 552.853 230.369 550.56V545.22H229.049V542.92H230.369V540.18H233.189V542.92H235.669V545.22H233.189Z" fill="white"/>
</g>
<defs>
<filter id="filter0_d_9_12145" x="15" y="507" width="397" height="100" filterUnits="userSpaceOnUse" color-interpolation-filters="sRGB">
<feFlood flood-opacity="0" result="BackgroundImageFix"/>
<feColorMatrix in="SourceAlpha" type="matrix" values="0 0 0 0 0 0 0 0 0 0 0 0 0 0 0 0 0 0 127 0" result="hardAlpha"/>
<feOffset dy="10"/>
<feGaussianBlur stdDeviation="10"/>
<feComposite in2="hardAlpha" operator="out"/>
<feColorMatrix type="matrix" values="0 0 0 0 0.795833 0 0 0 0 0.84075 0 0 0 0 1 0 0 0 1 0"/>
<feBlend mode="normal" in2="BackgroundImageFix" result="effect1_dropShadow_9_12145"/>
<feBlend mode="normal" in="SourceGraphic" in2="effect1_dropShadow_9_12145" result="shape"/>
</filter>
</defs>
</svg>
