<svg width="428" height="926" viewBox="0 0 428 926" fill="none" xmlns="http://www.w3.org/2000/svg">
<rect width="428" height="926" rx="50" fill="white"/>
<path d="M104.671 179.25C103.711 179.55 102.701 179.8 101.641 180C100.601 180.22 99.5105 180.33 98.3705 180.33C96.6305 180.33 95.1105 180.07 93.8105 179.55C92.5305 179.01 91.4605 178.28 90.6005 177.36C89.7605 176.44 89.1305 175.37 88.7105 174.15C88.2905 172.93 88.0805 171.64 88.0805 170.28C88.0805 168.84 88.3005 167.5 88.7405 166.26C89.2005 165.02 89.8705 163.94 90.7505 163.02C91.6305 162.1 92.7205 161.38 94.0205 160.86C95.3205 160.32 96.8305 160.05 98.5505 160.05C98.9105 160.05 99.3405 160.07 99.8405 160.11C100.361 160.13 100.901 160.18 101.461 160.26C102.021 160.34 102.591 160.45 103.171 160.59C103.751 160.71 104.301 160.87 104.821 161.07L104.881 161.34L104.371 164.25H103.531L103.411 164.16C103.271 163.36 102.801 162.74 102.001 162.3C101.221 161.86 100.021 161.64 98.4005 161.64C96.1405 161.64 94.4205 162.11 93.2405 163.05C92.7605 163.43 92.3505 163.88 92.0105 164.4C91.6705 164.92 91.3805 165.49 91.1405 166.11C90.9205 166.73 90.7505 167.39 90.6305 168.09C90.5305 168.77 90.4805 169.45 90.4805 170.13C90.4805 171.47 90.6705 172.67 91.0505 173.73C91.4505 174.79 91.9905 175.69 92.6705 176.43C93.3505 177.15 94.1605 177.71 95.1005 178.11C96.0405 178.49 97.0605 178.68 98.1605 178.68C98.5005 178.68 98.8805 178.67 99.3005 178.65C99.7405 178.61 100.161 178.56 100.561 178.5C100.981 178.44 101.351 178.37 101.671 178.29C101.991 178.21 102.211 178.13 102.331 178.05C102.491 177.95 102.571 177.74 102.571 177.42C102.571 177.28 102.571 177.09 102.571 176.85C102.571 176.61 102.571 176.36 102.571 176.1C102.571 175.82 102.561 175.55 102.541 175.29C102.541 175.01 102.531 174.77 102.511 174.57C102.471 174.05 102.361 173.66 102.181 173.4C102.021 173.12 101.881 172.94 101.761 172.86C101.581 172.72 101.311 172.64 100.951 172.62C100.591 172.58 100.251 172.56 99.9305 172.56L99.7805 172.44L99.6905 171.78L99.7505 171.66C99.8905 171.66 100.111 171.67 100.411 171.69C100.731 171.71 101.051 171.73 101.371 171.75C101.711 171.77 102.031 171.79 102.331 171.81C102.651 171.83 102.881 171.84 103.021 171.84H103.921C104.061 171.84 104.251 171.83 104.491 171.81C104.731 171.79 104.981 171.77 105.241 171.75C105.501 171.73 105.751 171.71 105.991 171.69C106.231 171.67 106.421 171.66 106.561 171.66L106.621 171.78L106.561 172.5L106.411 172.62C105.831 172.62 105.421 172.79 105.181 173.13C104.961 173.45 104.831 173.93 104.791 174.57C104.751 175.07 104.721 175.61 104.701 176.19C104.701 176.75 104.701 177.17 104.701 177.45C104.701 177.75 104.701 178.08 104.701 178.44C104.721 178.78 104.751 179 104.791 179.1L104.671 179.25ZM113.311 169.38C113.511 169 113.731 168.6 113.971 168.18C114.231 167.76 114.521 167.37 114.841 167.01C115.161 166.65 115.521 166.35 115.921 166.11C116.341 165.87 116.811 165.75 117.331 165.75C117.691 165.75 118.091 165.81 118.531 165.93C118.991 166.03 119.301 166.17 119.461 166.35L119.701 166.62L119.341 168.93H118.351C118.291 168.65 118.131 168.4 117.871 168.18C117.631 167.94 117.251 167.82 116.731 167.82C116.231 167.82 115.771 167.97 115.351 168.27C114.931 168.55 114.561 168.91 114.241 169.35C113.941 169.79 113.701 170.26 113.521 170.76C113.361 171.24 113.281 171.68 113.281 172.08V174.75C113.281 175.19 113.281 175.55 113.281 175.83C113.301 176.09 113.311 176.32 113.311 176.52C113.331 176.7 113.341 176.86 113.341 177C113.361 177.12 113.371 177.25 113.371 177.39L113.401 177.66C113.441 177.96 113.481 178.25 113.521 178.53C113.581 178.79 113.691 178.99 113.851 179.13C113.951 179.21 114.091 179.27 114.271 179.31C114.471 179.35 114.671 179.38 114.871 179.4C115.091 179.42 115.301 179.44 115.501 179.46C115.701 179.46 115.861 179.46 115.981 179.46L116.131 179.61L116.191 180L116.131 180.12C115.991 180.12 115.761 180.11 115.441 180.09C115.141 180.07 114.821 180.05 114.481 180.03C114.141 180.03 113.811 180.02 113.491 180C113.191 180 112.971 180 112.831 180H112.111C111.971 180 111.751 180 111.451 180C111.171 180.02 110.871 180.03 110.551 180.03C110.231 180.05 109.921 180.07 109.621 180.09C109.341 180.11 109.131 180.12 108.991 180.12L108.961 180L108.991 179.58L109.111 179.46C109.431 179.46 109.741 179.45 110.041 179.43C110.361 179.39 110.601 179.29 110.761 179.13C110.921 178.99 111.021 178.81 111.061 178.59C111.121 178.37 111.171 178.06 111.211 177.66L111.241 177.39C111.261 177.19 111.271 176.94 111.271 176.64C111.291 176.34 111.301 175.83 111.301 175.11V171.42C111.301 171 111.301 170.65 111.301 170.37C111.301 170.07 111.291 169.81 111.271 169.59C111.271 169.37 111.261 169.17 111.241 168.99C111.241 168.81 111.231 168.62 111.211 168.42C111.171 168.2 111.111 168.01 111.031 167.85C110.951 167.67 110.881 167.55 110.821 167.49C110.621 167.25 110.371 167.11 110.071 167.07C109.771 167.01 109.461 166.98 109.141 166.98L109.021 166.86V166.44L109.141 166.35H109.681C110.021 166.35 110.451 166.35 110.971 166.35C111.491 166.33 111.941 166.29 112.321 166.23L113.371 166.08L113.551 166.35C113.431 166.77 113.341 167.25 113.281 167.79C113.241 168.33 113.221 168.85 113.221 169.35L113.311 169.38ZM134.771 171.93L134.291 172.14C133.211 172.14 132.101 172.15 130.961 172.17C129.821 172.19 128.701 172.2 127.601 172.2H124.061C124.041 172.34 124.031 172.48 124.031 172.62C124.031 172.74 124.031 172.86 124.031 172.98C124.031 173.74 124.141 174.47 124.361 175.17C124.581 175.85 124.921 176.45 125.381 176.97C125.861 177.49 126.471 177.91 127.211 178.23C127.951 178.53 128.851 178.68 129.911 178.68C130.531 178.68 131.191 178.62 131.891 178.5C132.611 178.36 133.271 178.12 133.871 177.78L134.171 177.96V178.5L133.871 178.83C133.391 179.21 132.711 179.56 131.831 179.88C130.951 180.18 129.971 180.33 128.891 180.33C127.831 180.33 126.861 180.16 125.981 179.82C125.121 179.46 124.371 178.96 123.731 178.32C123.111 177.68 122.621 176.92 122.261 176.04C121.921 175.16 121.751 174.18 121.751 173.1C121.751 172 121.931 171 122.291 170.1C122.651 169.2 123.141 168.43 123.761 167.79C124.401 167.15 125.141 166.65 125.981 166.29C126.841 165.93 127.761 165.75 128.741 165.75C129.261 165.75 129.841 165.82 130.481 165.96C131.141 166.1 131.771 166.37 132.371 166.77C132.971 167.15 133.511 167.7 133.991 168.42C134.471 169.12 134.801 170.05 134.981 171.21L134.771 171.93ZM128.771 167.1C128.131 167.1 127.551 167.21 127.031 167.43C126.531 167.63 126.081 167.91 125.681 168.27C125.301 168.61 124.981 169.02 124.721 169.5C124.481 169.96 124.311 170.45 124.211 170.97H125.381C126.461 170.97 127.511 170.96 128.531 170.94C129.551 170.9 130.621 170.85 131.741 170.79C132.001 170.77 132.171 170.7 132.251 170.58C132.351 170.46 132.401 170.32 132.401 170.16C132.401 170.04 132.391 169.93 132.371 169.83C132.351 169.73 132.321 169.63 132.281 169.53C132.061 168.77 131.651 168.18 131.051 167.76C130.451 167.32 129.691 167.1 128.771 167.1ZM146.153 179.79C146.213 179.57 146.253 179.24 146.273 178.8C146.313 178.36 146.363 177.95 146.423 177.57L146.393 177.48C146.133 177.84 145.823 178.19 145.463 178.53C145.103 178.87 144.703 179.18 144.263 179.46C143.843 179.72 143.383 179.93 142.883 180.09C142.403 180.25 141.893 180.33 141.353 180.33C140.733 180.33 140.183 180.22 139.703 180C139.223 179.78 138.823 179.49 138.503 179.13C138.183 178.77 137.943 178.35 137.783 177.87C137.623 177.39 137.543 176.89 137.543 176.37C137.543 175.63 137.713 174.99 138.053 174.45C138.393 173.89 138.843 173.43 139.403 173.07C139.923 172.75 140.533 172.49 141.233 172.29C141.953 172.09 142.643 171.95 143.303 171.87C143.983 171.77 144.593 171.71 145.133 171.69C145.673 171.65 146.033 171.63 146.213 171.63H146.633C146.613 170.89 146.573 170.31 146.513 169.89C146.453 169.45 146.373 169.09 146.273 168.81C146.053 168.21 145.673 167.78 145.133 167.52C144.593 167.24 143.943 167.1 143.183 167.1C142.863 167.1 142.513 167.13 142.133 167.19C141.773 167.25 141.423 167.36 141.083 167.52C140.763 167.68 140.483 167.91 140.243 168.21C140.003 168.49 139.863 168.86 139.823 169.32L139.703 169.41H139.043L138.773 167.19L138.863 167.01C138.963 166.89 139.173 166.76 139.493 166.62C139.813 166.48 140.183 166.35 140.603 166.23C141.043 166.09 141.523 165.98 142.043 165.9C142.583 165.8 143.113 165.75 143.633 165.75C144.353 165.75 145.023 165.85 145.643 166.05C146.263 166.23 146.793 166.51 147.233 166.89C147.693 167.27 148.053 167.75 148.313 168.33C148.573 168.89 148.703 169.55 148.703 170.31C148.703 171.15 148.693 171.9 148.673 172.56C148.673 173.2 148.663 173.8 148.643 174.36C148.623 174.9 148.603 175.44 148.583 175.98C148.583 176.5 148.583 177.06 148.583 177.66C148.623 178.12 148.673 178.46 148.733 178.68C148.793 178.88 148.893 179.03 149.033 179.13C149.193 179.29 149.423 179.39 149.723 179.43C150.043 179.45 150.363 179.46 150.683 179.46L150.803 179.58L150.833 180L150.803 180.12C150.443 180.08 150.053 180.05 149.633 180.03C149.213 180.01 148.803 180 148.403 180C147.643 180 146.953 180.03 146.333 180.09L146.153 179.79ZM146.153 176.55C146.213 176.45 146.273 176.33 146.333 176.19C146.413 176.05 146.463 175.88 146.483 175.68L146.633 172.68H146.363C145.563 172.68 144.763 172.73 143.963 172.83C143.163 172.91 142.443 173.08 141.803 173.34C141.183 173.6 140.673 173.96 140.273 174.42C139.873 174.88 139.673 175.47 139.673 176.19C139.673 176.95 139.893 177.56 140.333 178.02C140.773 178.46 141.343 178.68 142.043 178.68C142.463 178.68 142.883 178.61 143.303 178.47C143.723 178.33 144.113 178.15 144.473 177.93C144.853 177.71 145.183 177.48 145.463 177.24C145.763 177 145.993 176.77 146.153 176.55ZM160.496 167.61H156.596C156.596 168.91 156.586 170.11 156.566 171.21C156.566 172.31 156.566 173.28 156.566 174.12C156.566 174.94 156.556 175.6 156.536 176.1C156.536 176.6 156.536 176.91 156.536 177.03C156.536 177.81 156.686 178.33 156.986 178.59C157.286 178.85 157.636 178.98 158.036 178.98C158.376 178.98 158.766 178.92 159.206 178.8C159.666 178.66 160.036 178.51 160.316 178.35L160.586 178.56L160.316 179.4C159.856 179.72 159.336 179.95 158.756 180.09C158.196 180.25 157.696 180.33 157.256 180.33C156.236 180.33 155.516 180.05 155.096 179.49C154.676 178.93 154.466 178.21 154.466 177.33C154.466 177.15 154.476 176.78 154.496 176.22C154.516 175.66 154.536 174.96 154.556 174.12C154.576 173.28 154.596 172.31 154.616 171.21C154.636 170.11 154.646 168.91 154.646 167.61H152.486L152.366 167.46V166.89L152.486 166.77L154.646 166.35C154.646 165.65 154.626 164.94 154.586 164.22C154.566 163.48 154.536 162.76 154.496 162.06L154.706 161.88L155.126 161.85C155.286 161.83 155.546 161.79 155.906 161.73C156.266 161.67 156.516 161.6 156.656 161.52L156.926 161.64C156.866 161.92 156.816 162.25 156.776 162.63C156.736 162.99 156.696 163.38 156.656 163.8C156.636 164.22 156.616 164.65 156.596 165.09C156.596 165.53 156.596 165.95 156.596 166.35L160.496 166.17L160.646 166.29V167.46L160.496 167.61ZM166.771 159.51C166.771 159.69 166.761 159.86 166.741 160.02C166.741 160.16 166.741 160.28 166.741 160.38C166.721 160.6 166.701 160.82 166.681 161.04C166.661 161.26 166.631 161.56 166.591 161.94C166.571 162.3 166.541 162.79 166.501 163.41C166.461 164.01 166.411 164.81 166.351 165.81C166.311 166.81 166.261 168.05 166.201 169.53C166.161 170.99 166.121 172.76 166.081 174.84L165.931 175.05L164.881 175.53L164.701 175.41C164.661 173.43 164.611 171.72 164.551 170.28C164.511 168.82 164.471 167.58 164.431 166.56C164.391 165.52 164.351 164.66 164.311 163.98C164.271 163.28 164.231 162.71 164.191 162.27C164.151 161.81 164.121 161.45 164.101 161.19C164.081 160.91 164.061 160.67 164.041 160.47L164.161 160.2L166.621 159.42L166.771 159.51ZM163.981 178.95C163.981 178.57 164.111 178.24 164.371 177.96C164.651 177.66 164.991 177.51 165.391 177.51C165.751 177.51 166.071 177.66 166.351 177.96C166.651 178.24 166.801 178.57 166.801 178.95C166.801 179.33 166.651 179.66 166.351 179.94C166.071 180.2 165.751 180.33 165.391 180.33C164.991 180.33 164.651 180.2 164.371 179.94C164.111 179.66 163.981 179.33 163.981 178.95ZM193.421 163.95C193.361 163.51 193.171 163.14 192.851 162.84C192.531 162.54 192.131 162.3 191.651 162.12C191.191 161.94 190.671 161.82 190.091 161.76C189.531 161.68 188.971 161.64 188.411 161.64C186.431 161.64 184.871 162.09 183.731 162.99C182.791 163.75 182.081 164.76 181.601 166.02C181.141 167.28 180.911 168.66 180.911 170.16C180.911 171.58 181.111 172.83 181.511 173.91C181.931 174.97 182.501 175.86 183.221 176.58C183.941 177.3 184.791 177.85 185.771 178.23C186.771 178.59 187.851 178.77 189.011 178.77C189.831 178.77 190.771 178.66 191.831 178.44C192.911 178.2 193.931 177.75 194.891 177.09L195.191 177.42L194.531 178.77C193.531 179.31 192.531 179.71 191.531 179.97C190.551 180.21 189.531 180.33 188.471 180.33C186.971 180.33 185.611 180.09 184.391 179.61C183.171 179.13 182.121 178.45 181.241 177.57C180.381 176.67 179.711 175.61 179.231 174.39C178.751 173.15 178.511 171.78 178.511 170.28C178.511 168.88 178.721 167.56 179.141 166.32C179.581 165.06 180.221 163.97 181.061 163.05C181.921 162.13 182.971 161.4 184.211 160.86C185.471 160.32 186.931 160.05 188.591 160.05C188.951 160.05 189.371 160.07 189.851 160.11C190.351 160.13 190.871 160.18 191.411 160.26C191.951 160.34 192.501 160.45 193.061 160.59C193.621 160.71 194.161 160.87 194.681 161.07L194.771 161.34L194.381 164.07H193.511L193.421 163.95ZM197.482 158.19L197.602 158.07H198.142C198.482 158.07 198.912 158.07 199.432 158.07C199.952 158.05 200.402 158.01 200.782 157.95L201.862 157.8L202.042 158.07C202.002 158.15 201.972 158.3 201.952 158.52C201.932 158.72 201.912 158.94 201.892 159.18C201.872 159.42 201.852 159.65 201.832 159.87C201.832 160.09 201.832 160.26 201.832 160.38C201.812 160.7 201.792 161 201.772 161.28C201.772 161.56 201.762 161.89 201.742 162.27C201.742 162.65 201.742 163.11 201.742 163.65C201.742 164.19 201.742 164.88 201.742 165.72V172.26C201.742 173.1 201.742 173.79 201.742 174.33C201.762 174.87 201.772 175.33 201.772 175.71C201.792 176.09 201.802 176.42 201.802 176.7C201.822 176.98 201.842 177.3 201.862 177.66C201.902 178.08 201.942 178.4 201.982 178.62C202.042 178.82 202.152 178.99 202.312 179.13C202.472 179.27 202.692 179.36 202.972 179.4C203.272 179.44 203.572 179.46 203.872 179.46L204.022 179.61L204.082 180L204.022 180.12C203.882 180.12 203.672 180.11 203.392 180.09C203.112 180.07 202.812 180.05 202.492 180.03C202.172 180.03 201.872 180.02 201.592 180C201.312 180 201.102 180 200.962 180H200.542C200.402 180 200.182 180 199.882 180C199.602 180.02 199.302 180.03 198.982 180.03C198.682 180.05 198.382 180.07 198.082 180.09C197.802 180.11 197.592 180.12 197.452 180.12L197.422 180L197.452 179.58L197.572 179.46C197.892 179.46 198.202 179.45 198.502 179.43C198.822 179.39 199.062 179.29 199.222 179.13C199.382 178.99 199.482 178.81 199.522 178.59C199.582 178.37 199.632 178.06 199.672 177.66C199.692 177.4 199.702 177.14 199.702 176.88C199.722 176.62 199.732 176.32 199.732 175.98C199.752 175.62 199.762 175.21 199.762 174.75C199.762 174.27 199.762 173.68 199.762 172.98V165.78C199.762 164.96 199.762 164.27 199.762 163.71C199.762 163.13 199.752 162.63 199.732 162.21C199.732 161.79 199.722 161.42 199.702 161.1C199.702 160.78 199.692 160.46 199.672 160.14C199.652 159.92 199.592 159.73 199.492 159.57C199.412 159.41 199.342 159.29 199.282 159.21C199.082 158.99 198.832 158.85 198.532 158.79C198.232 158.73 197.922 158.7 197.602 158.7L197.482 158.58V158.19ZM212.648 180.12C212.508 180.12 212.298 180.11 212.018 180.09C211.738 180.07 211.438 180.05 211.118 180.03C210.798 180.03 210.498 180.02 210.218 180C209.938 180 209.728 180 209.588 180H209.168C209.028 180 208.808 180 208.508 180C208.228 180.02 207.928 180.03 207.608 180.03C207.308 180.05 207.008 180.07 206.708 180.09C206.428 180.11 206.218 180.12 206.078 180.12L206.048 180L206.078 179.58L206.198 179.46C206.518 179.46 206.828 179.45 207.128 179.43C207.448 179.39 207.688 179.29 207.848 179.13C208.008 178.99 208.108 178.81 208.148 178.59C208.208 178.37 208.258 178.06 208.298 177.66C208.318 177.34 208.338 177.02 208.358 176.7C208.378 176.36 208.388 175.83 208.388 175.11V171.42C208.388 171 208.388 170.65 208.388 170.37C208.388 170.07 208.378 169.81 208.358 169.59C208.358 169.37 208.348 169.17 208.328 168.99C208.328 168.81 208.318 168.62 208.298 168.42C208.258 168.2 208.198 168.01 208.118 167.85C208.038 167.67 207.968 167.55 207.908 167.49C207.708 167.25 207.458 167.11 207.158 167.07C206.858 167.01 206.548 166.98 206.228 166.98L206.108 166.86V166.44L206.228 166.35H206.768C207.108 166.35 207.538 166.35 208.058 166.35C208.578 166.33 209.028 166.29 209.408 166.23L210.458 166.08L210.638 166.35C210.598 166.43 210.558 166.57 210.518 166.77C210.498 166.97 210.478 167.19 210.458 167.43C210.458 167.65 210.448 167.87 210.428 168.09C210.428 168.31 210.428 168.48 210.428 168.6C210.428 168.76 210.418 168.92 210.398 169.08C210.398 169.22 210.398 169.39 210.398 169.59C210.398 169.79 210.388 170.03 210.368 170.31C210.368 170.59 210.368 170.95 210.368 171.39V174.75C210.368 175.19 210.368 175.55 210.368 175.83C210.388 176.11 210.398 176.35 210.398 176.55C210.418 176.75 210.428 176.94 210.428 177.12C210.448 177.28 210.468 177.46 210.488 177.66C210.528 178.08 210.568 178.4 210.608 178.62C210.668 178.82 210.778 178.99 210.938 179.13C211.098 179.27 211.318 179.36 211.598 179.4C211.898 179.44 212.198 179.46 212.498 179.46L212.648 179.61L212.708 180L212.648 180.12ZM207.608 161.07C207.608 160.67 207.738 160.33 207.998 160.05C208.278 159.75 208.618 159.6 209.018 159.6C209.418 159.6 209.758 159.75 210.038 160.05C210.338 160.33 210.488 160.67 210.488 161.07C210.488 161.47 210.338 161.81 210.038 162.09C209.758 162.35 209.418 162.48 209.018 162.48C208.618 162.48 208.278 162.35 207.998 162.09C207.738 161.81 207.608 161.47 207.608 161.07ZM226.489 169.41L226.369 169.32C226.369 168.86 226.229 168.49 225.949 168.21C225.689 167.91 225.369 167.68 224.989 167.52C224.609 167.36 224.199 167.25 223.759 167.19C223.339 167.13 222.969 167.1 222.649 167.1C221.729 167.1 220.929 167.27 220.249 167.61C219.589 167.93 219.039 168.37 218.599 168.93C218.159 169.47 217.829 170.1 217.609 170.82C217.409 171.52 217.309 172.24 217.309 172.98C217.309 173.74 217.419 174.47 217.639 175.17C217.879 175.87 218.239 176.49 218.719 177.03C219.199 177.57 219.799 178 220.519 178.32C221.239 178.64 222.099 178.8 223.099 178.8C223.779 178.8 224.529 178.7 225.349 178.5C226.189 178.28 226.909 178.01 227.509 177.69L227.809 177.99L227.359 178.83C227.139 178.99 226.849 179.16 226.489 179.34C226.149 179.5 225.759 179.66 225.319 179.82C224.879 179.96 224.399 180.08 223.879 180.18C223.379 180.28 222.879 180.33 222.379 180.33C221.399 180.33 220.459 180.16 219.559 179.82C218.679 179.46 217.899 178.97 217.219 178.35C216.559 177.71 216.029 176.95 215.629 176.07C215.229 175.17 215.029 174.18 215.029 173.1C215.029 172 215.229 171 215.629 170.1C216.029 169.2 216.579 168.43 217.279 167.79C217.979 167.15 218.789 166.65 219.709 166.29C220.649 165.93 221.649 165.75 222.709 165.75C223.669 165.75 224.569 165.87 225.409 166.11C226.269 166.35 226.919 166.59 227.359 166.83L227.449 167.1L227.119 169.41H226.489ZM229.903 158.19L230.023 158.07H230.563C230.903 158.07 231.333 158.07 231.853 158.07C232.373 158.05 232.823 158.01 233.203 157.95L234.253 157.8L234.433 158.07C234.393 158.15 234.363 158.3 234.343 158.52C234.323 158.72 234.303 158.94 234.283 159.18C234.263 159.42 234.253 159.65 234.253 159.87C234.253 160.09 234.253 160.26 234.253 160.38C234.253 160.7 234.243 161 234.223 161.28C234.223 161.56 234.213 161.89 234.193 162.27C234.193 162.65 234.183 163.11 234.163 163.65C234.163 164.19 234.163 164.88 234.163 165.72V172.86L237.733 169.56C237.773 169.52 237.863 169.43 238.003 169.29C238.163 169.15 238.323 169.01 238.483 168.87C238.643 168.71 238.793 168.56 238.933 168.42C239.093 168.26 239.203 168.15 239.263 168.09C239.443 167.89 239.533 167.71 239.533 167.55C239.533 167.31 239.373 167.14 239.053 167.04C238.753 166.94 238.453 166.87 238.153 166.83L238.033 166.71V166.35L238.153 166.23C238.533 166.27 238.913 166.31 239.293 166.35C239.673 166.39 240.063 166.41 240.463 166.41H241.303C241.683 166.41 242.063 166.39 242.443 166.35C242.843 166.31 243.243 166.27 243.643 166.23L243.733 166.35V166.77L243.583 166.92C243.383 166.96 243.143 167.01 242.863 167.07C242.583 167.11 242.333 167.2 242.113 167.34C241.813 167.52 241.493 167.74 241.153 168C240.833 168.24 240.503 168.5 240.163 168.78C239.843 169.06 239.523 169.34 239.203 169.62C238.903 169.9 238.623 170.17 238.363 170.43L237.133 171.57C237.233 171.71 237.363 171.91 237.523 172.17C237.683 172.41 237.923 172.72 238.243 173.1L240.913 176.4C241.193 176.74 241.463 177.09 241.723 177.45C242.003 177.79 242.293 178.11 242.593 178.41C242.913 178.69 243.253 178.93 243.613 179.13C243.973 179.33 244.383 179.44 244.843 179.46L244.933 179.58L244.993 180L244.933 180.12C244.593 180.16 244.213 180.18 243.793 180.18C243.373 180.2 242.953 180.21 242.533 180.21C241.973 180.21 241.443 179.96 240.943 179.46C240.883 179.4 240.693 179.21 240.373 178.89C240.053 178.57 239.723 178.21 239.383 177.81L236.983 174.72C236.643 174.26 236.373 173.92 236.173 173.7C235.973 173.46 235.763 173.23 235.543 173.01C235.103 173.41 234.793 173.71 234.613 173.91C234.453 174.09 234.303 174.25 234.163 174.39C234.163 174.79 234.163 175.13 234.163 175.41C234.183 175.69 234.193 175.95 234.193 176.19C234.213 176.43 234.223 176.67 234.223 176.91C234.243 177.13 234.263 177.38 234.283 177.66C234.303 178.08 234.343 178.4 234.403 178.62C234.463 178.82 234.573 178.99 234.733 179.13C234.893 179.27 235.113 179.36 235.393 179.4C235.693 179.44 235.993 179.46 236.293 179.46L236.443 179.61L236.503 180L236.443 180.12C236.303 180.12 236.093 180.11 235.813 180.09C235.533 180.07 235.233 180.05 234.913 180.03C234.593 180.03 234.293 180.02 234.013 180C233.733 180 233.523 180 233.383 180H232.963C232.823 180 232.603 180 232.303 180C232.023 180.02 231.723 180.03 231.403 180.03C231.103 180.05 230.803 180.07 230.503 180.09C230.223 180.11 230.013 180.12 229.873 180.12L229.843 180L229.873 179.58L229.993 179.46C230.313 179.46 230.623 179.45 230.923 179.43C231.243 179.39 231.483 179.29 231.643 179.13C231.803 178.99 231.903 178.81 231.943 178.59C232.003 178.37 232.053 178.06 232.093 177.66C232.113 177.4 232.123 177.14 232.123 176.88C232.143 176.62 232.153 176.32 232.153 175.98C232.173 175.62 232.183 175.21 232.183 174.75C232.183 174.27 232.183 173.68 232.183 172.98V165.78C232.183 164.96 232.183 164.27 232.183 163.71C232.183 163.13 232.173 162.63 232.153 162.21C232.153 161.79 232.143 161.42 232.123 161.1C232.123 160.78 232.113 160.46 232.093 160.14C232.073 159.92 232.013 159.73 231.913 159.57C231.833 159.41 231.763 159.29 231.703 159.21C231.503 158.99 231.253 158.85 230.953 158.79C230.653 158.73 230.343 158.7 230.023 158.7L229.903 158.58V158.19ZM261.692 157.8L261.872 157.98V158.1C261.592 158.68 261.402 159.2 261.302 159.66C261.222 160.12 261.182 160.48 261.182 160.74C261.182 160.96 261.232 161.18 261.332 161.4C261.452 161.62 261.512 161.89 261.512 162.21C261.512 162.37 261.452 162.52 261.332 162.66C261.212 162.78 261.062 162.88 260.882 162.96C260.722 163.04 260.532 163.1 260.312 163.14C260.112 163.18 259.922 163.2 259.742 163.2C259.582 163.2 259.452 163.16 259.352 163.08C259.252 162.98 259.172 162.86 259.112 162.72C259.072 162.58 259.042 162.44 259.022 162.3C259.002 162.16 258.992 162.03 258.992 161.91C258.992 161.45 259.082 161 259.262 160.56C259.462 160.1 259.692 159.69 259.952 159.33C260.212 158.95 260.482 158.63 260.762 158.37C261.062 158.09 261.312 157.9 261.512 157.8H261.692ZM257.132 157.8L257.312 157.98V158.1C257.032 158.68 256.842 159.2 256.742 159.66C256.662 160.12 256.622 160.48 256.622 160.74C256.622 160.96 256.672 161.18 256.772 161.4C256.892 161.62 256.952 161.89 256.952 162.21C256.952 162.37 256.892 162.52 256.772 162.66C256.652 162.78 256.502 162.88 256.322 162.96C256.162 163.04 255.972 163.1 255.752 163.14C255.552 163.18 255.362 163.2 255.182 163.2C255.022 163.2 254.892 163.16 254.792 163.08C254.692 162.98 254.612 162.86 254.552 162.72C254.512 162.58 254.482 162.44 254.462 162.3C254.442 162.16 254.432 162.03 254.432 161.91C254.432 161.45 254.522 161 254.702 160.56C254.902 160.1 255.132 159.69 255.392 159.33C255.652 158.95 255.922 158.63 256.202 158.37C256.502 158.09 256.752 157.9 256.952 157.8H257.132ZM284.576 160.32L284.516 160.86L284.366 160.98C284.046 160.98 283.736 161 283.436 161.04C283.156 161.06 282.936 161.14 282.776 161.28C282.616 161.42 282.466 161.6 282.326 161.82C282.206 162.04 282.126 162.43 282.086 162.99C282.066 163.27 282.046 163.53 282.026 163.77C282.026 164.01 282.016 164.29 281.996 164.61C281.996 164.93 281.996 165.32 281.996 165.78C281.996 166.24 281.996 166.83 281.996 167.55V172.83C281.996 173.95 281.996 174.87 281.996 175.59C282.016 176.31 282.026 176.93 282.026 177.45C282.046 177.95 282.066 178.4 282.086 178.8C282.126 179.2 282.166 179.64 282.206 180.12L281.966 180.27L280.106 180.15L279.806 179.79L269.126 163.8C269.126 164 269.116 164.2 269.096 164.4C269.096 164.6 269.096 164.85 269.096 165.15C269.096 165.43 269.096 165.76 269.096 166.14C269.096 166.52 269.096 166.99 269.096 167.55V173.07C269.096 173.31 269.096 173.63 269.096 174.03C269.096 174.41 269.096 174.81 269.096 175.23C269.116 175.65 269.126 176.06 269.126 176.46C269.146 176.84 269.166 177.15 269.186 177.39C269.226 177.89 269.306 178.27 269.426 178.53C269.566 178.77 269.736 178.96 269.936 179.1C270.096 179.22 270.306 179.3 270.566 179.34C270.826 179.38 271.156 179.4 271.556 179.4L271.706 179.52L271.796 180.06L271.736 180.18C271.596 180.18 271.376 180.17 271.076 180.15C270.796 180.13 270.496 180.11 270.176 180.09C269.856 180.07 269.546 180.05 269.246 180.03C268.966 180.01 268.756 180 268.616 180H268.046C267.906 180 267.676 180.01 267.356 180.03C267.036 180.05 266.706 180.07 266.366 180.09C266.026 180.11 265.696 180.13 265.376 180.15C265.056 180.17 264.826 180.18 264.686 180.18L264.626 180.06L264.716 179.52L264.866 179.4C265.226 179.4 265.526 179.39 265.766 179.37C266.026 179.33 266.256 179.24 266.456 179.1C266.596 179 266.736 178.84 266.876 178.62C267.036 178.38 267.146 177.97 267.206 177.39C267.226 177.25 267.236 177.09 267.236 176.91C267.256 176.71 267.266 176.47 267.266 176.19C267.266 175.91 267.266 175.57 267.266 175.17C267.266 174.77 267.266 174.27 267.266 173.67V167.58C267.266 166.88 267.266 166.29 267.266 165.81C267.266 165.33 267.266 164.92 267.266 164.58C267.266 164.24 267.256 163.95 267.236 163.71C267.236 163.47 267.226 163.23 267.206 162.99C267.166 162.57 267.076 162.22 266.936 161.94C266.796 161.64 266.636 161.42 266.456 161.28C266.276 161.14 266.046 161.06 265.766 161.04C265.506 161 265.206 160.98 264.866 160.98L264.716 160.86L264.626 160.32L264.686 160.2C264.826 160.2 265.026 160.21 265.286 160.23C265.566 160.25 265.846 160.27 266.126 160.29C266.406 160.31 266.676 160.33 266.936 160.35C267.216 160.37 267.426 160.38 267.566 160.38H268.616C268.776 160.38 268.996 160.37 269.276 160.35C269.576 160.33 269.816 160.3 269.996 160.26L270.146 160.35C270.226 160.63 270.386 161.02 270.626 161.52C270.886 162 271.186 162.54 271.526 163.14C271.886 163.74 272.266 164.38 272.666 165.06C273.086 165.74 273.506 166.41 273.926 167.07C275.446 169.51 276.766 171.5 277.886 173.04C279.026 174.58 279.756 175.58 280.076 176.04C280.076 175.9 280.076 175.77 280.076 175.65C280.096 175.53 280.106 175.39 280.106 175.23C280.106 175.07 280.106 174.87 280.106 174.63C280.106 174.39 280.106 174.07 280.106 173.67V167.58C280.106 166.88 280.106 166.29 280.106 165.81C280.106 165.33 280.096 164.92 280.076 164.58C280.076 164.24 280.066 163.95 280.046 163.71C280.046 163.47 280.036 163.23 280.016 162.99C279.976 162.43 279.886 162.04 279.746 161.82C279.606 161.6 279.456 161.42 279.296 161.28C279.116 161.14 278.876 161.06 278.576 161.04C278.296 161 277.996 160.98 277.676 160.98L277.556 160.86L277.466 160.32L277.526 160.2C277.666 160.2 277.866 160.21 278.126 160.23C278.386 160.25 278.646 160.27 278.906 160.29C279.186 160.31 279.456 160.33 279.716 160.35C279.976 160.37 280.176 160.38 280.316 160.38H281.726C281.866 160.38 282.066 160.38 282.326 160.38C282.586 160.36 282.856 160.34 283.136 160.32C283.416 160.3 283.686 160.28 283.946 160.26C284.206 160.24 284.406 160.22 284.546 160.2L284.576 160.32ZM299.775 171.93L299.295 172.14C298.215 172.14 297.105 172.15 295.965 172.17C294.825 172.19 293.705 172.2 292.605 172.2H289.065C289.045 172.34 289.035 172.48 289.035 172.62C289.035 172.74 289.035 172.86 289.035 172.98C289.035 173.74 289.145 174.47 289.365 175.17C289.585 175.85 289.925 176.45 290.385 176.97C290.865 177.49 291.475 177.91 292.215 178.23C292.955 178.53 293.855 178.68 294.915 178.68C295.535 178.68 296.195 178.62 296.895 178.5C297.615 178.36 298.275 178.12 298.875 177.78L299.175 177.96V178.5L298.875 178.83C298.395 179.21 297.715 179.56 296.835 179.88C295.955 180.18 294.975 180.33 293.895 180.33C292.835 180.33 291.865 180.16 290.985 179.82C290.125 179.46 289.375 178.96 288.735 178.32C288.115 177.68 287.625 176.92 287.265 176.04C286.925 175.16 286.755 174.18 286.755 173.1C286.755 172 286.935 171 287.295 170.1C287.655 169.2 288.145 168.43 288.765 167.79C289.405 167.15 290.145 166.65 290.985 166.29C291.845 165.93 292.765 165.75 293.745 165.75C294.265 165.75 294.845 165.82 295.485 165.96C296.145 166.1 296.775 166.37 297.375 166.77C297.975 167.15 298.515 167.7 298.995 168.42C299.475 169.12 299.805 170.05 299.985 171.21L299.775 171.93ZM293.775 167.1C293.135 167.1 292.555 167.21 292.035 167.43C291.535 167.63 291.085 167.91 290.685 168.27C290.305 168.61 289.985 169.02 289.725 169.5C289.485 169.96 289.315 170.45 289.215 170.97H290.385C291.465 170.97 292.515 170.96 293.535 170.94C294.555 170.9 295.625 170.85 296.745 170.79C297.005 170.77 297.175 170.7 297.255 170.58C297.355 170.46 297.405 170.32 297.405 170.16C297.405 170.04 297.395 169.93 297.375 169.83C297.355 169.73 297.325 169.63 297.285 169.53C297.065 168.77 296.655 168.18 296.055 167.76C295.455 167.32 294.695 167.1 293.775 167.1ZM306.569 167.7C306.569 167.78 306.639 167.95 306.779 168.21C306.939 168.47 307.149 168.79 307.409 169.17C307.669 169.55 307.969 169.98 308.309 170.46C308.649 170.94 309.019 171.43 309.419 171.93C309.799 171.47 310.149 171.01 310.469 170.55C310.789 170.09 311.069 169.68 311.309 169.32C311.549 168.94 311.739 168.62 311.879 168.36C312.019 168.08 312.089 167.9 312.089 167.82C312.089 167.42 312.009 167.18 311.849 167.1C311.689 167 311.379 166.91 310.919 166.83L310.799 166.71V166.35L310.919 166.23C311.319 166.29 311.649 166.34 311.909 166.38C312.189 166.4 312.499 166.41 312.839 166.41H314.069C314.409 166.41 314.739 166.39 315.059 166.35C315.399 166.31 315.769 166.27 316.169 166.23L316.289 166.35V166.77L316.109 166.92C315.789 166.96 315.499 167.02 315.239 167.1C314.999 167.16 314.769 167.26 314.549 167.4C314.349 167.52 314.149 167.68 313.949 167.88C313.769 168.06 313.579 168.3 313.379 168.6C313.019 169.08 312.699 169.51 312.419 169.89C312.159 170.27 311.899 170.63 311.639 170.97C311.399 171.29 311.159 171.61 310.919 171.93C310.699 172.25 310.459 172.6 310.199 172.98C310.659 173.6 311.119 174.21 311.579 174.81C312.039 175.39 312.449 175.92 312.809 176.4C313.169 176.86 313.459 177.24 313.679 177.54C313.919 177.82 314.059 177.97 314.099 177.99C314.379 178.37 314.689 178.69 315.029 178.95C315.389 179.19 315.889 179.36 316.529 179.46L316.709 179.61V180.03L316.589 180.15C316.249 180.11 315.869 180.07 315.449 180.03C315.029 179.99 314.659 179.97 314.339 179.97H313.169C312.849 179.97 312.479 179.99 312.059 180.03C311.639 180.07 311.229 180.11 310.829 180.15L310.709 180.03V179.67L310.829 179.55C311.169 179.53 311.459 179.45 311.699 179.31C311.939 179.17 312.059 179.02 312.059 178.86C312.059 178.76 312.019 178.62 311.939 178.44C311.879 178.26 311.729 178 311.489 177.66C311.269 177.3 310.949 176.83 310.529 176.25C310.129 175.67 309.599 174.93 308.939 174.03C308.539 174.51 308.139 175 307.739 175.5C307.359 176 307.009 176.46 306.689 176.88C306.369 177.3 306.109 177.66 305.909 177.96C305.729 178.26 305.639 178.45 305.639 178.53C305.639 178.87 305.759 179.1 305.999 179.22C306.259 179.34 306.619 179.44 307.079 179.52L307.199 179.64V180L307.079 180.12C306.679 180.06 306.349 180.02 306.089 180C305.829 180 305.529 180 305.189 180H303.959C303.619 180 303.279 180.01 302.939 180.03C302.599 180.05 302.239 180.08 301.859 180.12L301.739 180V179.58L301.919 179.43C302.239 179.37 302.499 179.31 302.699 179.25C302.919 179.19 303.119 179.11 303.299 179.01C303.479 178.89 303.649 178.75 303.809 178.59C303.989 178.41 304.189 178.18 304.409 177.9C304.749 177.46 305.249 176.8 305.909 175.92C306.589 175.02 307.309 174.02 308.069 172.92C307.589 172.28 307.039 171.55 306.419 170.73C305.819 169.89 305.129 168.98 304.349 168C304.109 167.7 303.829 167.46 303.509 167.28C303.209 167.08 302.829 166.96 302.369 166.92L302.189 166.77V166.35L302.309 166.23C302.649 166.27 303.029 166.31 303.449 166.35C303.869 166.39 304.239 166.41 304.559 166.41H305.729C306.049 166.41 306.409 166.39 306.809 166.35C307.229 166.31 307.639 166.27 308.039 166.23L308.159 166.35V166.71L308.039 166.83C307.639 166.87 307.289 166.94 306.989 167.04C306.709 167.14 306.569 167.36 306.569 167.7ZM326.261 167.61H322.361C322.361 168.91 322.351 170.11 322.331 171.21C322.331 172.31 322.331 173.28 322.331 174.12C322.331 174.94 322.321 175.6 322.301 176.1C322.301 176.6 322.301 176.91 322.301 177.03C322.301 177.81 322.451 178.33 322.751 178.59C323.051 178.85 323.401 178.98 323.801 178.98C324.141 178.98 324.531 178.92 324.971 178.8C325.431 178.66 325.801 178.51 326.081 178.35L326.351 178.56L326.081 179.4C325.621 179.72 325.101 179.95 324.521 180.09C323.961 180.25 323.461 180.33 323.021 180.33C322.001 180.33 321.281 180.05 320.861 179.49C320.441 178.93 320.231 178.21 320.231 177.33C320.231 177.15 320.241 176.78 320.261 176.22C320.281 175.66 320.301 174.96 320.321 174.12C320.341 173.28 320.361 172.31 320.381 171.21C320.401 170.11 320.411 168.91 320.411 167.61H318.251L318.131 167.46V166.89L318.251 166.77L320.411 166.35C320.411 165.65 320.391 164.94 320.351 164.22C320.331 163.48 320.301 162.76 320.261 162.06L320.471 161.88L320.891 161.85C321.051 161.83 321.311 161.79 321.671 161.73C322.031 161.67 322.281 161.6 322.421 161.52L322.691 161.64C322.631 161.92 322.581 162.25 322.541 162.63C322.501 162.99 322.461 163.38 322.421 163.8C322.401 164.22 322.381 164.65 322.361 165.09C322.361 165.53 322.361 165.95 322.361 166.35L326.261 166.17L326.411 166.29V167.46L326.261 167.61ZM329.326 178.95C329.326 178.57 329.456 178.24 329.716 177.96C329.976 177.66 330.306 177.51 330.706 177.51C331.086 177.51 331.416 177.66 331.696 177.96C331.996 178.24 332.146 178.57 332.146 178.95C332.146 179.33 331.996 179.66 331.696 179.94C331.416 180.2 331.086 180.33 330.706 180.33C330.306 180.33 329.976 180.2 329.716 179.94C329.456 179.66 329.326 179.33 329.326 178.95ZM332.556 163.2L332.376 163.02V162.9C332.656 162.32 332.836 161.8 332.916 161.34C333.016 160.88 333.066 160.52 333.066 160.26C333.066 160.04 333.006 159.82 332.886 159.6C332.786 159.38 332.736 159.11 332.736 158.79C332.736 158.63 332.796 158.49 332.916 158.37C333.036 158.23 333.176 158.12 333.336 158.04C333.516 157.96 333.706 157.9 333.906 157.86C334.126 157.82 334.326 157.8 334.506 157.8C334.666 157.8 334.796 157.85 334.896 157.95C334.996 158.03 335.066 158.14 335.106 158.28C335.166 158.42 335.206 158.56 335.226 158.7C335.246 158.84 335.256 158.97 335.256 159.09C335.256 159.55 335.156 160.01 334.956 160.47C334.776 160.91 334.556 161.32 334.296 161.7C334.036 162.06 333.756 162.38 333.456 162.66C333.176 162.92 332.936 163.1 332.736 163.2H332.556ZM337.116 163.2L336.936 163.02V162.9C337.216 162.32 337.396 161.8 337.476 161.34C337.576 160.88 337.626 160.52 337.626 160.26C337.626 160.04 337.566 159.82 337.446 159.6C337.346 159.38 337.296 159.11 337.296 158.79C337.296 158.63 337.356 158.49 337.476 158.37C337.596 158.23 337.736 158.12 337.896 158.04C338.076 157.96 338.266 157.9 338.466 157.86C338.686 157.82 338.886 157.8 339.066 157.8C339.226 157.8 339.356 157.85 339.456 157.95C339.556 158.03 339.626 158.14 339.666 158.28C339.726 158.42 339.766 158.56 339.786 158.7C339.806 158.84 339.816 158.97 339.816 159.09C339.816 159.55 339.716 160.01 339.516 160.47C339.336 160.91 339.116 161.32 338.856 161.7C338.596 162.06 338.316 162.38 338.016 162.66C337.736 162.92 337.496 163.1 337.296 163.2H337.116Z" fill="#1B1D1C"/>
<rect width="357" height="64" transform="translate(35 299)" fill="#F5F5F5"/>
<rect x="36" y="300" width="355" height="62" rx="9" fill="#F5F5F5"/>
<rect x="36" y="300" width="355" height="62" rx="9" stroke="#626262" stroke-width="2"/>
<path d="M65.4141 337H63.5901L58.1021 328.696V337H56.2781V325.864H58.1021L63.5901 334.152V325.864H65.4141V337ZM71.6334 337.144C70.8014 337.144 70.0494 336.957 69.3774 336.584C68.7054 336.2 68.1774 335.667 67.7934 334.984C67.4094 334.291 67.2174 333.491 67.2174 332.584C67.2174 331.688 67.4147 330.893 67.8094 330.2C68.204 329.507 68.7427 328.973 69.4254 328.6C70.108 328.227 70.8707 328.04 71.7134 328.04C72.556 328.04 73.3187 328.227 74.0014 328.6C74.684 328.973 75.2227 329.507 75.6174 330.2C76.012 330.893 76.2094 331.688 76.2094 332.584C76.2094 333.48 76.0067 334.275 75.6014 334.968C75.196 335.661 74.6414 336.2 73.9374 336.584C73.244 336.957 72.476 337.144 71.6334 337.144ZM71.6334 335.56C72.1027 335.56 72.54 335.448 72.9454 335.224C73.3614 335 73.6974 334.664 73.9534 334.216C74.2094 333.768 74.3374 333.224 74.3374 332.584C74.3374 331.944 74.2147 331.405 73.9694 330.968C73.724 330.52 73.3987 330.184 72.9934 329.96C72.588 329.736 72.1507 329.624 71.6814 329.624C71.212 329.624 70.7747 329.736 70.3694 329.96C69.9747 330.184 69.66 330.52 69.4254 330.968C69.1907 331.405 69.0734 331.944 69.0734 332.584C69.0734 333.533 69.3134 334.269 69.7934 334.792C70.284 335.304 70.8974 335.56 71.6334 335.56ZM81.4205 335.368L83.9165 328.184H85.8525L82.4925 337H80.3165L76.9725 328.184H78.9245L81.4205 335.368ZM95.3113 332.376C95.3113 332.707 95.2899 333.005 95.2473 333.272H88.5113C88.5646 333.976 88.8259 334.541 89.2953 334.968C89.7646 335.395 90.3406 335.608 91.0233 335.608C92.0046 335.608 92.6979 335.197 93.1033 334.376H95.0712C94.8046 335.187 94.3193 335.853 93.6153 336.376C92.9219 336.888 92.0579 337.144 91.0233 337.144C90.1806 337.144 89.4233 336.957 88.7513 336.584C88.0899 336.2 87.5673 335.667 87.1833 334.984C86.8099 334.291 86.6233 333.491 86.6233 332.584C86.6233 331.677 86.8046 330.883 87.1673 330.2C87.5406 329.507 88.0579 328.973 88.7193 328.6C89.3913 328.227 90.1593 328.04 91.0233 328.04C91.8553 328.04 92.5966 328.221 93.2473 328.584C93.8979 328.947 94.4046 329.459 94.7673 330.12C95.1299 330.771 95.3113 331.523 95.3113 332.376ZM93.4073 331.8C93.3966 331.128 93.1566 330.589 92.6873 330.184C92.2179 329.779 91.6366 329.576 90.9433 329.576C90.3139 329.576 89.7753 329.779 89.3273 330.184C88.8793 330.579 88.6126 331.117 88.5273 331.8H93.4073ZM107.778 328.04C108.472 328.04 109.09 328.184 109.634 328.472C110.189 328.76 110.621 329.187 110.93 329.752C111.25 330.317 111.41 331 111.41 331.8V337H109.602V332.072C109.602 331.283 109.405 330.68 109.01 330.264C108.616 329.837 108.077 329.624 107.394 329.624C106.712 329.624 106.168 329.837 105.762 330.264C105.368 330.68 105.17 331.283 105.17 332.072V337H103.362V332.072C103.362 331.283 103.165 330.68 102.77 330.264C102.376 329.837 101.837 329.624 101.154 329.624C100.472 329.624 99.9276 329.837 99.5223 330.264C99.1276 330.68 98.9303 331.283 98.9303 332.072V337H97.1063V328.184H98.9303V329.192C99.2289 328.829 99.6076 328.547 100.066 328.344C100.525 328.141 101.016 328.04 101.538 328.04C102.242 328.04 102.872 328.189 103.426 328.488C103.981 328.787 104.408 329.219 104.706 329.784C104.973 329.251 105.389 328.829 105.954 328.52C106.52 328.2 107.128 328.04 107.778 328.04ZM115.555 329.496C115.865 329.069 116.286 328.723 116.819 328.456C117.363 328.179 117.966 328.04 118.627 328.04C119.406 328.04 120.11 328.227 120.739 328.6C121.369 328.973 121.865 329.507 122.227 330.2C122.59 330.883 122.771 331.667 122.771 332.552C122.771 333.437 122.59 334.232 122.227 334.936C121.865 335.629 121.363 336.173 120.723 336.568C120.094 336.952 119.395 337.144 118.627 337.144C117.945 337.144 117.337 337.011 116.803 336.744C116.281 336.477 115.865 336.136 115.555 335.72V337H113.731V325.16H115.555V329.496ZM120.915 332.552C120.915 331.944 120.787 331.421 120.531 330.984C120.286 330.536 119.955 330.2 119.539 329.976C119.134 329.741 118.697 329.624 118.227 329.624C117.769 329.624 117.331 329.741 116.915 329.976C116.51 330.211 116.179 330.552 115.923 331C115.678 331.448 115.555 331.976 115.555 332.584C115.555 333.192 115.678 333.725 115.923 334.184C116.179 334.632 116.51 334.973 116.915 335.208C117.331 335.443 117.769 335.56 118.227 335.56C118.697 335.56 119.134 335.443 119.539 335.208C119.955 334.963 120.286 334.611 120.531 334.152C120.787 333.693 120.915 333.16 120.915 332.552ZM132.655 332.376C132.655 332.707 132.634 333.005 132.591 333.272H125.855C125.908 333.976 126.17 334.541 126.639 334.968C127.108 335.395 127.684 335.608 128.367 335.608C129.348 335.608 130.042 335.197 130.447 334.376H132.415C132.148 335.187 131.663 335.853 130.959 336.376C130.266 336.888 129.402 337.144 128.367 337.144C127.524 337.144 126.767 336.957 126.095 336.584C125.434 336.2 124.911 335.667 124.527 334.984C124.154 334.291 123.967 333.491 123.967 332.584C123.967 331.677 124.148 330.883 124.511 330.2C124.884 329.507 125.402 328.973 126.063 328.6C126.735 328.227 127.503 328.04 128.367 328.04C129.199 328.04 129.94 328.221 130.591 328.584C131.242 328.947 131.748 329.459 132.111 330.12C132.474 330.771 132.655 331.523 132.655 332.376ZM130.751 331.8C130.74 331.128 130.5 330.589 130.031 330.184C129.562 329.779 128.98 329.576 128.287 329.576C127.658 329.576 127.119 329.779 126.671 330.184C126.223 330.579 125.956 331.117 125.871 331.8H130.751ZM136.274 329.464C136.541 329.016 136.893 328.669 137.33 328.424C137.778 328.168 138.306 328.04 138.914 328.04V329.928H138.45C137.735 329.928 137.191 330.109 136.818 330.472C136.455 330.835 136.274 331.464 136.274 332.36V337H134.45V328.184H136.274V329.464ZM144.267 327V325.336H147.595V337H145.755V327H144.267ZM157.493 326.744L153.045 337H151.205L155.701 326.936H149.781V325.384H157.493V326.744ZM161.294 334.808L159.358 339.224H158.174L159.31 334.808H161.294ZM167.812 334.52C168.836 333.635 169.641 332.909 170.228 332.344C170.825 331.768 171.321 331.171 171.716 330.552C172.11 329.933 172.308 329.315 172.308 328.696C172.308 328.056 172.153 327.555 171.844 327.192C171.545 326.829 171.07 326.648 170.42 326.648C169.79 326.648 169.3 326.851 168.948 327.256C168.606 327.651 168.425 328.184 168.404 328.856H166.644C166.676 327.64 167.038 326.712 167.732 326.072C168.436 325.421 169.326 325.096 170.404 325.096C171.566 325.096 172.473 325.416 173.124 326.056C173.785 326.696 174.116 327.549 174.116 328.616C174.116 329.384 173.918 330.125 173.524 330.84C173.14 331.544 172.676 332.179 172.132 332.744C171.598 333.299 170.916 333.944 170.084 334.68L169.364 335.32H174.436V336.84H166.66V335.512L167.812 334.52ZM176.038 331.016C176.038 329.171 176.347 327.731 176.966 326.696C177.595 325.651 178.673 325.128 180.198 325.128C181.723 325.128 182.795 325.651 183.414 326.696C184.043 327.731 184.358 329.171 184.358 331.016C184.358 332.883 184.043 334.344 183.414 335.4C182.795 336.445 181.723 336.968 180.198 336.968C178.673 336.968 177.595 336.445 176.966 335.4C176.347 334.344 176.038 332.883 176.038 331.016ZM182.566 331.016C182.566 330.152 182.507 329.421 182.39 328.824C182.283 328.227 182.059 327.741 181.718 327.368C181.377 326.984 180.87 326.792 180.198 326.792C179.526 326.792 179.019 326.984 178.678 327.368C178.337 327.741 178.107 328.227 177.99 328.824C177.883 329.421 177.83 330.152 177.83 331.016C177.83 331.912 177.883 332.664 177.99 333.272C178.097 333.88 178.321 334.371 178.662 334.744C179.014 335.117 179.526 335.304 180.198 335.304C180.87 335.304 181.377 335.117 181.718 334.744C182.07 334.371 182.299 333.88 182.406 333.272C182.513 332.664 182.566 331.912 182.566 331.016ZM187.296 334.52C188.32 333.635 189.125 332.909 189.712 332.344C190.309 331.768 190.805 331.171 191.2 330.552C191.595 329.933 191.792 329.315 191.792 328.696C191.792 328.056 191.637 327.555 191.328 327.192C191.029 326.829 190.555 326.648 189.904 326.648C189.275 326.648 188.784 326.851 188.432 327.256C188.091 327.651 187.909 328.184 187.888 328.856H186.128C186.16 327.64 186.523 326.712 187.216 326.072C187.92 325.421 188.811 325.096 189.888 325.096C191.051 325.096 191.957 325.416 192.608 326.056C193.269 326.696 193.6 327.549 193.6 328.616C193.6 329.384 193.403 330.125 193.008 330.84C192.624 331.544 192.16 332.179 191.616 332.744C191.083 333.299 190.4 333.944 189.568 334.68L188.848 335.32H193.92V336.84H186.144V335.512L187.296 334.52ZM195.299 334.568V333.192L200.675 325.48H202.883V332.984H204.371V334.568H202.883V337H201.091V334.568H195.299ZM201.171 327.336L197.395 332.984H201.171V327.336Z" fill="#E97B2C"/>
<path d="M356 315.25V321.75M343 315.25V321.75M334.875 328.25H364.125M338.125 318.5H360.875C362.67 318.5 364.125 319.955 364.125 321.75V344.5C364.125 346.295 362.67 347.75 360.875 347.75H338.125C336.33 347.75 334.875 346.295 334.875 344.5V321.75C334.875 319.955 336.33 318.5 338.125 318.5Z" stroke="#1E1E1E" stroke-linecap="round" stroke-linejoin="round"/>
<g filter="url(#filter0_d_32_1416)">
<rect x="35" y="517" width="357" height="60" rx="10" fill="#039855" shape-rendering="crispEdges"/>
<path d="M204.017 554H201.217L194.877 544.42V554H192.077V540.02H194.877L201.217 549.62V540.02H204.017V554ZM217.084 548.22C217.084 548.62 217.058 548.98 217.004 549.3H208.904C208.971 550.1 209.251 550.727 209.744 551.18C210.238 551.633 210.844 551.86 211.564 551.86C212.604 551.86 213.344 551.413 213.784 550.52H216.804C216.484 551.587 215.871 552.467 214.964 553.16C214.058 553.84 212.944 554.18 211.624 554.18C210.558 554.18 209.598 553.947 208.744 553.48C207.904 553 207.244 552.327 206.764 551.46C206.298 550.593 206.064 549.593 206.064 548.46C206.064 547.313 206.298 546.307 206.764 545.44C207.231 544.573 207.884 543.907 208.724 543.44C209.564 542.973 210.531 542.74 211.624 542.74C212.678 542.74 213.618 542.967 214.444 543.42C215.284 543.873 215.931 544.52 216.384 545.36C216.851 546.187 217.084 547.14 217.084 548.22ZM214.184 547.42C214.171 546.7 213.911 546.127 213.404 545.7C212.898 545.26 212.278 545.04 211.544 545.04C210.851 545.04 210.264 545.253 209.784 545.68C209.318 546.093 209.031 546.673 208.924 547.42H214.184ZM225.248 554L222.968 550.56L220.948 554H217.948L221.568 548.44L217.908 542.92H221.068L223.328 546.34L225.368 542.92H228.368L224.728 548.44L228.408 554H225.248ZM233.189 545.22V550.58C233.189 550.953 233.275 551.227 233.449 551.4C233.635 551.56 233.942 551.64 234.369 551.64H235.669V554H233.909C231.549 554 230.369 552.853 230.369 550.56V545.22H229.049V542.92H230.369V540.18H233.189V542.92H235.669V545.22H233.189Z" fill="white"/>
</g>
<defs>
<filter id="filter0_d_32_1416" x="15" y="507" width="397" height="100" filterUnits="userSpaceOnUse" color-interpolation-filters="sRGB">
<feFlood flood-opacity="0" result="BackgroundImageFix"/>
<feColorMatrix in="SourceAlpha" type="matrix" values="0 0 0 0 0 0 0 0 0 0 0 0 0 0 0 0 0 0 127 0" result="hardAlpha"/>
<feOffset dy="10"/>
<feGaussianBlur stdDeviation="10"/>
<feComposite in2="hardAlpha" operator="out"/>
<feColorMatrix type="matrix" values="0 0 0 0 0.795833 0 0 0 0 0.84075 0 0 0 0 1 0 0 0 1 0"/>
<feBlend mode="normal" in2="BackgroundImageFix" result="effect1_dropShadow_32_1416"/>
<feBlend mode="normal" in="SourceGraphic" in2="effect1_dropShadow_32_1416" result="shape"/>
</filter>
</defs>
</svg>
