<svg width="428" height="926" viewBox="0 0 428 926" fill="none" xmlns="http://www.w3.org/2000/svg">
<rect width="428" height="926" rx="50" fill="white"/>
<path d="M89.1257 169.44C89.1257 167.36 89.5757 165.51 90.4757 163.89C91.3757 162.25 92.6257 160.98 94.2257 160.08C95.8457 159.16 97.6757 158.7 99.7157 158.7C102.216 158.7 104.356 159.36 106.136 160.68C107.916 162 109.106 163.8 109.706 166.08H104.066C103.646 165.2 103.046 164.53 102.266 164.07C101.506 163.61 100.636 163.38 99.6557 163.38C98.0757 163.38 96.7957 163.93 95.8157 165.03C94.8357 166.13 94.3457 167.6 94.3457 169.44C94.3457 171.28 94.8357 172.75 95.8157 173.85C96.7957 174.95 98.0757 175.5 99.6557 175.5C100.636 175.5 101.506 175.27 102.266 174.81C103.046 174.35 103.646 173.68 104.066 172.8H109.706C109.106 175.08 107.916 176.88 106.136 178.2C104.356 179.5 102.216 180.15 99.7157 180.15C97.6757 180.15 95.8457 179.7 94.2257 178.8C92.6257 177.88 91.3757 176.61 90.4757 174.99C89.5757 173.37 89.1257 171.52 89.1257 169.44ZM117.977 166.05C118.577 165.13 119.327 164.41 120.227 163.89C121.127 163.35 122.127 163.08 123.227 163.08V168.51H121.817C120.537 168.51 119.577 168.79 118.937 169.35C118.297 169.89 117.977 170.85 117.977 172.23V180H112.847V163.26H117.977V166.05ZM141.459 171.36C141.459 171.84 141.429 172.34 141.369 172.86H129.759C129.839 173.9 130.169 174.7 130.749 175.26C131.349 175.8 132.079 176.07 132.939 176.07C134.219 176.07 135.109 175.53 135.609 174.45H141.069C140.789 175.55 140.279 176.54 139.539 177.42C138.819 178.3 137.909 178.99 136.809 179.49C135.709 179.99 134.479 180.24 133.119 180.24C131.479 180.24 130.019 179.89 128.739 179.19C127.459 178.49 126.459 177.49 125.739 176.19C125.019 174.89 124.659 173.37 124.659 171.63C124.659 169.89 125.009 168.37 125.709 167.07C126.429 165.77 127.429 164.77 128.709 164.07C129.989 163.37 131.459 163.02 133.119 163.02C134.739 163.02 136.179 163.36 137.439 164.04C138.699 164.72 139.679 165.69 140.379 166.95C141.099 168.21 141.459 169.68 141.459 171.36ZM136.209 170.01C136.209 169.13 135.909 168.43 135.309 167.91C134.709 167.39 133.959 167.13 133.059 167.13C132.199 167.13 131.469 167.38 130.869 167.88C130.289 168.38 129.929 169.09 129.789 170.01H136.209ZM143.146 171.6C143.146 169.88 143.466 168.37 144.106 167.07C144.766 165.77 145.656 164.77 146.776 164.07C147.896 163.37 149.146 163.02 150.526 163.02C151.706 163.02 152.736 163.26 153.616 163.74C154.516 164.22 155.206 164.85 155.686 165.63V163.26H160.816V180H155.686V177.63C155.186 178.41 154.486 179.04 153.586 179.52C152.706 180 151.676 180.24 150.496 180.24C149.136 180.24 147.896 179.89 146.776 179.19C145.656 178.47 144.766 177.46 144.106 176.16C143.466 174.84 143.146 173.32 143.146 171.6ZM155.686 171.63C155.686 170.35 155.326 169.34 154.606 168.6C153.906 167.86 153.046 167.49 152.026 167.49C151.006 167.49 150.136 167.86 149.416 168.6C148.716 169.32 148.366 170.32 148.366 171.6C148.366 172.88 148.716 173.9 149.416 174.66C150.136 175.4 151.006 175.77 152.026 175.77C153.046 175.77 153.906 175.4 154.606 174.66C155.326 173.92 155.686 172.91 155.686 171.63ZM173.857 175.65V180H171.247C169.387 180 167.937 179.55 166.897 178.65C165.857 177.73 165.337 176.24 165.337 174.18V167.52H163.297V163.26H165.337V159.18H170.467V163.26H173.827V167.52H170.467V174.24C170.467 174.74 170.587 175.1 170.827 175.32C171.067 175.54 171.467 175.65 172.027 175.65H173.857ZM192.494 171.36C192.494 171.84 192.464 172.34 192.404 172.86H180.794C180.874 173.9 181.204 174.7 181.784 175.26C182.384 175.8 183.114 176.07 183.974 176.07C185.254 176.07 186.144 175.53 186.644 174.45H192.104C191.824 175.55 191.314 176.54 190.574 177.42C189.854 178.3 188.944 178.99 187.844 179.49C186.744 179.99 185.514 180.24 184.154 180.24C182.514 180.24 181.054 179.89 179.774 179.19C178.494 178.49 177.494 177.49 176.774 176.19C176.054 174.89 175.694 173.37 175.694 171.63C175.694 169.89 176.044 168.37 176.744 167.07C177.464 165.77 178.464 164.77 179.744 164.07C181.024 163.37 182.494 163.02 184.154 163.02C185.774 163.02 187.214 163.36 188.474 164.04C189.734 164.72 190.714 165.69 191.414 166.95C192.134 168.21 192.494 169.68 192.494 171.36ZM187.244 170.01C187.244 169.13 186.944 168.43 186.344 167.91C185.744 167.39 184.994 167.13 184.094 167.13C183.234 167.13 182.504 167.38 181.904 167.88C181.324 168.38 180.964 169.09 180.824 170.01H187.244ZM214.668 176.28H206.808L205.548 180H200.178L207.798 158.94H213.738L221.358 180H215.928L214.668 176.28ZM213.348 172.32L210.738 164.61L208.158 172.32H213.348ZM222.657 171.63C222.657 169.89 223.007 168.37 223.707 167.07C224.427 165.77 225.417 164.77 226.677 164.07C227.957 163.37 229.417 163.02 231.057 163.02C233.157 163.02 234.907 163.57 236.307 164.67C237.727 165.77 238.657 167.32 239.097 169.32H233.637C233.177 168.04 232.287 167.4 230.967 167.4C230.027 167.4 229.277 167.77 228.717 168.51C228.157 169.23 227.877 170.27 227.877 171.63C227.877 172.99 228.157 174.04 228.717 174.78C229.277 175.5 230.027 175.86 230.967 175.86C232.287 175.86 233.177 175.22 233.637 173.94H239.097C238.657 175.9 237.727 177.44 236.307 178.56C234.887 179.68 233.137 180.24 231.057 180.24C229.417 180.24 227.957 179.89 226.677 179.19C225.417 178.49 224.427 177.49 223.707 176.19C223.007 174.89 222.657 173.37 222.657 171.63ZM240.821 171.63C240.821 169.89 241.171 168.37 241.871 167.07C242.591 165.77 243.581 164.77 244.841 164.07C246.121 163.37 247.581 163.02 249.221 163.02C251.321 163.02 253.071 163.57 254.471 164.67C255.891 165.77 256.821 167.32 257.261 169.32H251.801C251.341 168.04 250.451 167.4 249.131 167.4C248.191 167.4 247.441 167.77 246.881 168.51C246.321 169.23 246.041 170.27 246.041 171.63C246.041 172.99 246.321 174.04 246.881 174.78C247.441 175.5 248.191 175.86 249.131 175.86C250.451 175.86 251.341 175.22 251.801 173.94H257.261C256.821 175.9 255.891 177.44 254.471 178.56C253.051 179.68 251.301 180.24 249.221 180.24C247.581 180.24 246.121 179.89 244.841 179.19C243.581 178.49 242.591 177.49 241.871 176.19C241.171 174.89 240.821 173.37 240.821 171.63ZM267.626 180.24C265.986 180.24 264.506 179.89 263.186 179.19C261.886 178.49 260.856 177.49 260.096 176.19C259.356 174.89 258.986 173.37 258.986 171.63C258.986 169.91 259.366 168.4 260.126 167.1C260.886 165.78 261.926 164.77 263.246 164.07C264.566 163.37 266.046 163.02 267.686 163.02C269.326 163.02 270.806 163.37 272.126 164.07C273.446 164.77 274.486 165.78 275.246 167.1C276.006 168.4 276.386 169.91 276.386 171.63C276.386 173.35 275.996 174.87 275.216 176.19C274.456 177.49 273.406 178.49 272.066 179.19C270.746 179.89 269.266 180.24 267.626 180.24ZM267.626 175.8C268.606 175.8 269.436 175.44 270.116 174.72C270.816 174 271.166 172.97 271.166 171.63C271.166 170.29 270.826 169.26 270.146 168.54C269.486 167.82 268.666 167.46 267.686 167.46C266.686 167.46 265.856 167.82 265.196 168.54C264.536 169.24 264.206 170.27 264.206 171.63C264.206 172.97 264.526 174 265.166 174.72C265.826 175.44 266.646 175.8 267.626 175.8ZM295.637 163.26V180H290.507V177.72C289.987 178.46 289.277 179.06 288.377 179.52C287.497 179.96 286.517 180.18 285.437 180.18C284.157 180.18 283.027 179.9 282.047 179.34C281.067 178.76 280.307 177.93 279.767 176.85C279.227 175.77 278.957 174.5 278.957 173.04V163.26H284.057V172.35C284.057 173.47 284.347 174.34 284.927 174.96C285.507 175.58 286.287 175.89 287.267 175.89C288.267 175.89 289.057 175.58 289.637 174.96C290.217 174.34 290.507 173.47 290.507 172.35V163.26H295.637ZM309.522 163.08C311.482 163.08 313.042 163.72 314.202 165C315.382 166.26 315.972 168 315.972 170.22V180H310.872V170.91C310.872 169.79 310.582 168.92 310.002 168.3C309.422 167.68 308.642 167.37 307.662 167.37C306.682 167.37 305.902 167.68 305.322 168.3C304.742 168.92 304.452 169.79 304.452 170.91V180H299.322V163.26H304.452V165.48C304.972 164.74 305.672 164.16 306.552 163.74C307.432 163.3 308.422 163.08 309.522 163.08ZM328.867 175.65V180H326.257C324.397 180 322.947 179.55 321.907 178.65C320.867 177.73 320.347 176.24 320.347 174.18V167.52H318.307V163.26H320.347V159.18H325.477V163.26H328.837V167.52H325.477V174.24C325.477 174.74 325.597 175.1 325.837 175.32C326.077 175.54 326.477 175.65 327.037 175.65H328.867Z" fill="#039855"/>
<rect width="357" height="64" transform="translate(31 302)" fill="#F5F5F5"/>
<rect x="32" y="303" width="355" height="62" rx="9" fill="#F5F5F5"/>
<rect x="32" y="303" width="355" height="62" rx="9" stroke="#626262" stroke-width="2"/>
<path d="M57.0621 331.04C57.7554 331.04 58.3741 331.184 58.9181 331.472C59.4727 331.76 59.9047 332.187 60.2141 332.752C60.5234 333.317 60.6781 334 60.6781 334.8V340H58.8701V335.072C58.8701 334.283 58.6727 333.68 58.2781 333.264C57.8834 332.837 57.3447 332.624 56.6621 332.624C55.9794 332.624 55.4354 332.837 55.0301 333.264C54.6354 333.68 54.4381 334.283 54.4381 335.072V340H52.6141V331.184H54.4381V332.192C54.7367 331.829 55.1154 331.547 55.5741 331.344C56.0434 331.141 56.5394 331.04 57.0621 331.04ZM62.3967 335.552C62.3967 334.667 62.578 333.883 62.9407 333.2C63.314 332.517 63.8154 331.989 64.4447 331.616C65.0847 331.232 65.7887 331.04 66.5567 331.04C67.25 331.04 67.8527 331.179 68.3647 331.456C68.8874 331.723 69.3034 332.059 69.6127 332.464V331.184H71.4527V340H69.6127V338.688C69.3034 339.104 68.882 339.451 68.3487 339.728C67.8154 340.005 67.2074 340.144 66.5247 340.144C65.7674 340.144 65.074 339.952 64.4447 339.568C63.8154 339.173 63.314 338.629 62.9407 337.936C62.578 337.232 62.3967 336.437 62.3967 335.552ZM69.6127 335.584C69.6127 334.976 69.4847 334.448 69.2287 334C68.9834 333.552 68.658 333.211 68.2527 332.976C67.8474 332.741 67.41 332.624 66.9407 332.624C66.4714 332.624 66.034 332.741 65.6287 332.976C65.2234 333.2 64.8927 333.536 64.6367 333.984C64.3914 334.421 64.2687 334.944 64.2687 335.552C64.2687 336.16 64.3914 336.693 64.6367 337.152C64.8927 337.611 65.2234 337.963 65.6287 338.208C66.0447 338.443 66.482 338.56 66.9407 338.56C67.41 338.56 67.8474 338.443 68.2527 338.208C68.658 337.973 68.9834 337.632 69.2287 337.184C69.4847 336.725 69.6127 336.192 69.6127 335.584ZM84.5204 331.04C85.2138 331.04 85.8324 331.184 86.3764 331.472C86.9311 331.76 87.3631 332.187 87.6724 332.752C87.9924 333.317 88.1524 334 88.1524 334.8V340H86.3444V335.072C86.3444 334.283 86.1471 333.68 85.7524 333.264C85.3578 332.837 84.8191 332.624 84.1364 332.624C83.4538 332.624 82.9098 332.837 82.5044 333.264C82.1098 333.68 81.9124 334.283 81.9124 335.072V340H80.1044V335.072C80.1044 334.283 79.9071 333.68 79.5124 333.264C79.1178 332.837 78.5791 332.624 77.8964 332.624C77.2138 332.624 76.6698 332.837 76.2644 333.264C75.8698 333.68 75.6724 334.283 75.6724 335.072V340H73.8484V331.184H75.6724V332.192C75.9711 331.829 76.3498 331.547 76.8084 331.344C77.2671 331.141 77.7578 331.04 78.2804 331.04C78.9844 331.04 79.6138 331.189 80.1684 331.488C80.7231 331.787 81.1498 332.219 81.4484 332.784C81.7151 332.251 82.1311 331.829 82.6964 331.52C83.2618 331.2 83.8698 331.04 84.5204 331.04ZM98.5534 335.376C98.5534 335.707 98.5321 336.005 98.4894 336.272H91.7534C91.8068 336.976 92.0681 337.541 92.5374 337.968C93.0068 338.395 93.5828 338.608 94.2654 338.608C95.2468 338.608 95.9401 338.197 96.3454 337.376H98.3134C98.0468 338.187 97.5614 338.853 96.8574 339.376C96.1641 339.888 95.3001 340.144 94.2654 340.144C93.4228 340.144 92.6654 339.957 91.9934 339.584C91.3321 339.2 90.8094 338.667 90.4254 337.984C90.0521 337.291 89.8654 336.491 89.8654 335.584C89.8654 334.677 90.0468 333.883 90.4094 333.2C90.7828 332.507 91.3001 331.973 91.9614 331.6C92.6334 331.227 93.4014 331.04 94.2654 331.04C95.0974 331.04 95.8388 331.221 96.4894 331.584C97.1401 331.947 97.6468 332.459 98.0094 333.12C98.3721 333.771 98.5534 334.523 98.5534 335.376ZM96.6494 334.8C96.6388 334.128 96.3988 333.589 95.9294 333.184C95.4601 332.779 94.8788 332.576 94.1854 332.576C93.5561 332.576 93.0174 332.779 92.5694 333.184C92.1214 333.579 91.8548 334.117 91.7694 334.8H96.6494ZM108.556 329.664C109.772 329.664 110.823 329.888 111.708 330.336C112.594 330.784 113.266 331.413 113.724 332.224C114.194 333.024 114.428 333.957 114.428 335.024C114.428 335.877 114.279 336.693 113.98 337.472C113.692 338.251 113.271 338.885 112.716 339.376C112.172 339.867 111.527 340.112 110.78 340.112C110.236 340.112 109.81 339.995 109.5 339.76C109.191 339.515 108.999 339.173 108.924 338.736C108.594 339.163 108.178 339.499 107.676 339.744C107.175 339.989 106.652 340.112 106.108 340.112C105.287 340.112 104.642 339.867 104.172 339.376C103.714 338.875 103.484 338.197 103.484 337.344C103.484 336.533 103.65 335.776 103.98 335.072C104.322 334.368 104.796 333.808 105.404 333.392C106.012 332.965 106.695 332.752 107.452 332.752C108.38 332.752 109.031 333.067 109.404 333.696L109.548 332.896H111.132L110.332 337.472C110.3 337.696 110.284 337.893 110.284 338.064C110.284 338.341 110.338 338.549 110.444 338.688C110.562 338.827 110.764 338.896 111.052 338.896C111.458 338.896 111.804 338.699 112.092 338.304C112.38 337.899 112.594 337.403 112.732 336.816C112.882 336.229 112.956 335.659 112.956 335.104C112.956 333.749 112.562 332.715 111.772 332C110.983 331.285 109.836 330.928 108.332 330.928C107.074 330.928 105.943 331.227 104.94 331.824C103.948 332.421 103.17 333.243 102.604 334.288C102.039 335.333 101.756 336.496 101.756 337.776C101.756 339.141 102.162 340.181 102.972 340.896C103.783 341.611 104.94 341.968 106.444 341.968C107.458 341.968 108.343 341.781 109.1 341.408L109.34 342.624C108.37 343.04 107.282 343.248 106.076 343.248C104.914 343.248 103.895 343.029 103.02 342.592C102.146 342.155 101.468 341.531 100.988 340.72C100.508 339.92 100.268 338.987 100.268 337.92C100.268 336.395 100.62 335.003 101.324 333.744C102.039 332.485 103.026 331.493 104.284 330.768C105.543 330.032 106.967 329.664 108.556 329.664ZM106.668 338.704C107.116 338.704 107.522 338.576 107.884 338.32C108.258 338.053 108.551 337.707 108.764 337.28C108.978 336.843 109.084 336.379 109.084 335.888C109.084 335.376 108.94 334.96 108.652 334.64C108.375 334.309 107.98 334.144 107.468 334.144C107.01 334.144 106.604 334.288 106.252 334.576C105.911 334.853 105.644 335.216 105.452 335.664C105.271 336.112 105.18 336.581 105.18 337.072C105.18 337.573 105.303 337.973 105.548 338.272C105.794 338.56 106.167 338.704 106.668 338.704ZM120.307 331.04C120.989 331.04 121.592 331.179 122.115 331.456C122.648 331.723 123.064 332.059 123.363 332.464V331.184H125.203V340.144C125.203 340.955 125.032 341.675 124.691 342.304C124.349 342.944 123.853 343.445 123.203 343.808C122.563 344.171 121.795 344.352 120.899 344.352C119.704 344.352 118.712 344.069 117.923 343.504C117.133 342.949 116.685 342.192 116.579 341.232H118.387C118.525 341.691 118.819 342.059 119.267 342.336C119.725 342.624 120.269 342.768 120.899 342.768C121.635 342.768 122.227 342.544 122.675 342.096C123.133 341.648 123.363 340.997 123.363 340.144V338.672C123.053 339.088 122.632 339.44 122.099 339.728C121.576 340.005 120.979 340.144 120.307 340.144C119.539 340.144 118.835 339.952 118.195 339.568C117.565 339.173 117.064 338.629 116.691 337.936C116.328 337.232 116.147 336.437 116.147 335.552C116.147 334.667 116.328 333.883 116.691 333.2C117.064 332.517 117.565 331.989 118.195 331.616C118.835 331.232 119.539 331.04 120.307 331.04ZM123.363 335.584C123.363 334.976 123.235 334.448 122.979 334C122.733 333.552 122.408 333.211 122.003 332.976C121.597 332.741 121.16 332.624 120.691 332.624C120.221 332.624 119.784 332.741 119.379 332.976C118.973 333.2 118.643 333.536 118.387 333.984C118.141 334.421 118.019 334.944 118.019 335.552C118.019 336.16 118.141 336.693 118.387 337.152C118.643 337.611 118.973 337.963 119.379 338.208C119.795 338.443 120.232 338.56 120.691 338.56C121.16 338.56 121.597 338.443 122.003 338.208C122.408 337.973 122.733 337.632 122.979 337.184C123.235 336.725 123.363 336.192 123.363 335.584ZM138.27 331.04C138.964 331.04 139.582 331.184 140.126 331.472C140.681 331.76 141.113 332.187 141.422 332.752C141.742 333.317 141.902 334 141.902 334.8V340H140.094V335.072C140.094 334.283 139.897 333.68 139.502 333.264C139.108 332.837 138.569 332.624 137.886 332.624C137.204 332.624 136.66 332.837 136.254 333.264C135.86 333.68 135.662 334.283 135.662 335.072V340H133.854V335.072C133.854 334.283 133.657 333.68 133.262 333.264C132.868 332.837 132.329 332.624 131.646 332.624C130.964 332.624 130.42 332.837 130.014 333.264C129.62 333.68 129.422 334.283 129.422 335.072V340H127.598V331.184H129.422V332.192C129.721 331.829 130.1 331.547 130.558 331.344C131.017 331.141 131.508 331.04 132.03 331.04C132.734 331.04 133.364 331.189 133.918 331.488C134.473 331.787 134.9 332.219 135.198 332.784C135.465 332.251 135.881 331.829 136.446 331.52C137.012 331.2 137.62 331.04 138.27 331.04ZM143.615 335.552C143.615 334.667 143.797 333.883 144.159 333.2C144.533 332.517 145.034 331.989 145.663 331.616C146.303 331.232 147.007 331.04 147.775 331.04C148.469 331.04 149.071 331.179 149.583 331.456C150.106 331.723 150.522 332.059 150.831 332.464V331.184H152.671V340H150.831V338.688C150.522 339.104 150.101 339.451 149.567 339.728C149.034 340.005 148.426 340.144 147.743 340.144C146.986 340.144 146.293 339.952 145.663 339.568C145.034 339.173 144.533 338.629 144.159 337.936C143.797 337.232 143.615 336.437 143.615 335.552ZM150.831 335.584C150.831 334.976 150.703 334.448 150.447 334C150.202 333.552 149.877 333.211 149.471 332.976C149.066 332.741 148.629 332.624 148.159 332.624C147.69 332.624 147.253 332.741 146.847 332.976C146.442 333.2 146.111 333.536 145.855 333.984C145.61 334.421 145.487 334.944 145.487 335.552C145.487 336.16 145.61 336.693 145.855 337.152C146.111 337.611 146.442 337.963 146.847 338.208C147.263 338.443 147.701 338.56 148.159 338.56C148.629 338.56 149.066 338.443 149.471 338.208C149.877 337.973 150.202 337.632 150.447 337.184C150.703 336.725 150.831 336.192 150.831 335.584ZM155.995 330.016C155.665 330.016 155.387 329.904 155.163 329.68C154.939 329.456 154.827 329.179 154.827 328.848C154.827 328.517 154.939 328.24 155.163 328.016C155.387 327.792 155.665 327.68 155.995 327.68C156.315 327.68 156.587 327.792 156.811 328.016C157.035 328.24 157.147 328.517 157.147 328.848C157.147 329.179 157.035 329.456 156.811 329.68C156.587 329.904 156.315 330.016 155.995 330.016ZM156.891 331.184V340H155.067V331.184H156.891ZM161.11 328.16V340H159.286V328.16H161.11ZM164.241 340.112C163.91 340.112 163.633 340 163.409 339.776C163.185 339.552 163.073 339.275 163.073 338.944C163.073 338.613 163.185 338.336 163.409 338.112C163.633 337.888 163.91 337.776 164.241 337.776C164.561 337.776 164.833 337.888 165.057 338.112C165.281 338.336 165.393 338.613 165.393 338.944C165.393 339.275 165.281 339.552 165.057 339.776C164.833 340 164.561 340.112 164.241 340.112ZM166.756 335.584C166.756 334.677 166.937 333.883 167.3 333.2C167.673 332.507 168.185 331.973 168.836 331.6C169.487 331.227 170.233 331.04 171.076 331.04C172.143 331.04 173.023 331.296 173.716 331.808C174.42 332.309 174.895 333.029 175.14 333.968H173.172C173.012 333.531 172.756 333.189 172.404 332.944C172.052 332.699 171.609 332.576 171.076 332.576C170.329 332.576 169.732 332.843 169.284 333.376C168.847 333.899 168.628 334.635 168.628 335.584C168.628 336.533 168.847 337.275 169.284 337.808C169.732 338.341 170.329 338.608 171.076 338.608C172.132 338.608 172.831 338.144 173.172 337.216H175.14C174.884 338.112 174.404 338.827 173.7 339.36C172.996 339.883 172.121 340.144 171.076 340.144C170.233 340.144 169.487 339.957 168.836 339.584C168.185 339.2 167.673 338.667 167.3 337.984C166.937 337.291 166.756 336.491 166.756 335.584ZM180.782 340.144C179.95 340.144 179.198 339.957 178.526 339.584C177.854 339.2 177.326 338.667 176.942 337.984C176.558 337.291 176.366 336.491 176.366 335.584C176.366 334.688 176.563 333.893 176.958 333.2C177.352 332.507 177.891 331.973 178.574 331.6C179.256 331.227 180.019 331.04 180.862 331.04C181.704 331.04 182.467 331.227 183.15 331.6C183.832 331.973 184.371 332.507 184.766 333.2C185.16 333.893 185.358 334.688 185.358 335.584C185.358 336.48 185.155 337.275 184.75 337.968C184.344 338.661 183.79 339.2 183.086 339.584C182.392 339.957 181.624 340.144 180.782 340.144ZM180.782 338.56C181.251 338.56 181.688 338.448 182.094 338.224C182.51 338 182.846 337.664 183.102 337.216C183.358 336.768 183.486 336.224 183.486 335.584C183.486 334.944 183.363 334.405 183.118 333.968C182.872 333.52 182.547 333.184 182.142 332.96C181.736 332.736 181.299 332.624 180.83 332.624C180.36 332.624 179.923 332.736 179.518 332.96C179.123 333.184 178.808 333.52 178.574 333.968C178.339 334.405 178.222 334.944 178.222 335.584C178.222 336.533 178.462 337.269 178.942 337.792C179.432 338.304 180.046 338.56 180.782 338.56ZM197.833 331.04C198.526 331.04 199.145 331.184 199.689 331.472C200.244 331.76 200.676 332.187 200.985 332.752C201.305 333.317 201.465 334 201.465 334.8V340H199.657V335.072C199.657 334.283 199.46 333.68 199.065 333.264C198.67 332.837 198.132 332.624 197.449 332.624C196.766 332.624 196.222 332.837 195.817 333.264C195.422 333.68 195.225 334.283 195.225 335.072V340H193.417V335.072C193.417 334.283 193.22 333.68 192.825 333.264C192.43 332.837 191.892 332.624 191.209 332.624C190.526 332.624 189.982 332.837 189.577 333.264C189.182 333.68 188.985 334.283 188.985 335.072V340H187.161V331.184H188.985V332.192C189.284 331.829 189.662 331.547 190.121 331.344C190.58 331.141 191.07 331.04 191.593 331.04C192.297 331.04 192.926 331.189 193.481 331.488C194.036 331.787 194.462 332.219 194.761 332.784C195.028 332.251 195.444 331.829 196.009 331.52C196.574 331.2 197.182 331.04 197.833 331.04Z" fill="#E97B2C"/>
<rect x="32" y="396" width="355" height="58" rx="9" fill="#F5F5F5"/>
<rect x="32" y="396" width="355" height="58" rx="9" stroke="#626262" stroke-width="2"/>
<path d="M57.272 420.136L57.992 421.416L55.8 422.232L57.992 423.048L57.256 424.36L55.432 422.92L55.768 425.24H54.296L54.6 422.92L52.776 424.392L52.008 423.032L54.184 422.216L52.008 421.432L52.744 420.12L54.616 421.56L54.296 419.224H55.784L55.432 421.56L57.272 420.136ZM65.3345 420.136L66.0545 421.416L63.8625 422.232L66.0545 423.048L65.3185 424.36L63.4945 422.92L63.8305 425.24H62.3585L62.6625 422.92L60.8385 424.392L60.0705 423.032L62.2465 422.216L60.0705 421.432L60.8065 420.12L62.6785 421.56L62.3585 419.224H63.8465L63.4945 421.56L65.3345 420.136ZM73.397 420.136L74.117 421.416L71.925 422.232L74.117 423.048L73.381 424.36L71.557 422.92L71.893 425.24H70.421L70.725 422.92L68.901 424.392L68.133 423.032L70.309 422.216L68.133 421.432L68.869 420.12L70.741 421.56L70.421 419.224H71.909L71.557 421.56L73.397 420.136ZM81.4595 420.136L82.1795 421.416L79.9875 422.232L82.1795 423.048L81.4435 424.36L79.6195 422.92L79.9555 425.24H78.4835L78.7875 422.92L76.9635 424.392L76.1955 423.032L78.3715 422.216L76.1955 421.432L76.9315 420.12L78.8035 421.56L78.4835 419.224H79.9715L79.6195 421.56L81.4595 420.136ZM89.522 420.136L90.242 421.416L88.05 422.232L90.242 423.048L89.506 424.36L87.682 422.92L88.018 425.24H86.546L86.85 422.92L85.026 424.392L84.258 423.032L86.434 422.216L84.258 421.432L84.994 420.12L86.866 421.56L86.546 419.224H88.034L87.682 421.56L89.522 420.136ZM97.5845 420.136L98.3045 421.416L96.1125 422.232L98.3045 423.048L97.5685 424.36L95.7445 422.92L96.0805 425.24H94.6085L94.9125 422.92L93.0885 424.392L92.3205 423.032L94.4965 422.216L92.3205 421.432L93.0565 420.12L94.9285 421.56L94.6085 419.224H96.0965L95.7445 421.56L97.5845 420.136ZM105.647 420.136L106.367 421.416L104.175 422.232L106.367 423.048L105.631 424.36L103.807 422.92L104.143 425.24H102.671L102.975 422.92L101.151 424.392L100.383 423.032L102.559 422.216L100.383 421.432L101.119 420.12L102.991 421.56L102.671 419.224H104.159L103.807 421.56L105.647 420.136ZM113.71 420.136L114.43 421.416L112.238 422.232L114.43 423.048L113.694 424.36L111.87 422.92L112.206 425.24H110.734L111.038 422.92L109.214 424.392L108.446 423.032L110.622 422.216L108.446 421.432L109.182 420.12L111.054 421.56L110.734 419.224H112.222L111.87 421.56L113.71 420.136ZM121.772 420.136L122.492 421.416L120.3 422.232L122.492 423.048L121.756 424.36L119.932 422.92L120.268 425.24H118.796L119.1 422.92L117.276 424.392L116.508 423.032L118.684 422.216L116.508 421.432L117.244 420.12L119.116 421.56L118.796 419.224H120.284L119.932 421.56L121.772 420.136ZM129.835 420.136L130.555 421.416L128.363 422.232L130.555 423.048L129.819 424.36L127.995 422.92L128.331 425.24H126.859L127.163 422.92L125.339 424.392L124.571 423.032L126.747 422.216L124.571 421.432L125.307 420.12L127.179 421.56L126.859 419.224H128.347L127.995 421.56L129.835 420.136ZM137.897 420.136L138.617 421.416L136.425 422.232L138.617 423.048L137.881 424.36L136.057 422.92L136.393 425.24H134.921L135.225 422.92L133.401 424.392L132.633 423.032L134.809 422.216L132.633 421.432L133.369 420.12L135.241 421.56L134.921 419.224H136.409L136.057 421.56L137.897 420.136ZM145.96 420.136L146.68 421.416L144.488 422.232L146.68 423.048L145.944 424.36L144.12 422.92L144.456 425.24H142.984L143.288 422.92L141.464 424.392L140.696 423.032L142.872 422.216L140.696 421.432L141.432 420.12L143.304 421.56L142.984 419.224H144.472L144.12 421.56L145.96 420.136ZM154.022 420.136L154.742 421.416L152.55 422.232L154.742 423.048L154.006 424.36L152.182 422.92L152.518 425.24H151.046L151.35 422.92L149.526 424.392L148.758 423.032L150.934 422.216L148.758 421.432L149.494 420.12L151.366 421.56L151.046 419.224H152.534L152.182 421.56L154.022 420.136ZM162.085 420.136L162.805 421.416L160.613 422.232L162.805 423.048L162.069 424.36L160.245 422.92L160.581 425.24H159.109L159.413 422.92L157.589 424.392L156.821 423.032L158.997 422.216L156.821 421.432L157.557 420.12L159.429 421.56L159.109 419.224H160.597L160.245 421.56L162.085 420.136ZM170.147 420.136L170.867 421.416L168.675 422.232L170.867 423.048L170.131 424.36L168.307 422.92L168.643 425.24H167.171L167.475 422.92L165.651 424.392L164.883 423.032L167.059 422.216L164.883 421.432L165.619 420.12L167.491 421.56L167.171 419.224H168.659L168.307 421.56L170.147 420.136ZM178.21 420.136L178.93 421.416L176.738 422.232L178.93 423.048L178.194 424.36L176.37 422.92L176.706 425.24H175.234L175.538 422.92L173.714 424.392L172.946 423.032L175.122 422.216L172.946 421.432L173.682 420.12L175.554 421.56L175.234 419.224H176.722L176.37 421.56L178.21 420.136Z" fill="black"/>
<g filter="url(#filter0_d_32_1335)">
<rect x="31" y="515" width="357" height="60" rx="10" fill="#039855" shape-rendering="crispEdges"/>
<path d="M177.663 552.14C176.69 552.14 175.81 551.973 175.023 551.64C174.25 551.307 173.636 550.827 173.183 550.2C172.73 549.573 172.496 548.833 172.483 547.98H175.483C175.523 548.553 175.723 549.007 176.083 549.34C176.456 549.673 176.963 549.84 177.603 549.84C178.256 549.84 178.77 549.687 179.143 549.38C179.516 549.06 179.703 548.647 179.703 548.14C179.703 547.727 179.576 547.387 179.323 547.12C179.07 546.853 178.75 546.647 178.363 546.5C177.99 546.34 177.47 546.167 176.803 545.98C175.896 545.713 175.156 545.453 174.583 545.2C174.023 544.933 173.536 544.54 173.123 544.02C172.723 543.487 172.523 542.78 172.523 541.9C172.523 541.073 172.73 540.353 173.143 539.74C173.556 539.127 174.136 538.66 174.883 538.34C175.63 538.007 176.483 537.84 177.443 537.84C178.883 537.84 180.05 538.193 180.943 538.9C181.85 539.593 182.35 540.567 182.443 541.82H179.363C179.336 541.34 179.13 540.947 178.743 540.64C178.37 540.32 177.87 540.16 177.243 540.16C176.696 540.16 176.256 540.3 175.923 540.58C175.603 540.86 175.443 541.267 175.443 541.8C175.443 542.173 175.563 542.487 175.803 542.74C176.056 542.98 176.363 543.18 176.723 543.34C177.096 543.487 177.616 543.66 178.283 543.86C179.19 544.127 179.93 544.393 180.503 544.66C181.076 544.927 181.57 545.327 181.983 545.86C182.396 546.393 182.603 547.093 182.603 547.96C182.603 548.707 182.41 549.4 182.023 550.04C181.636 550.68 181.07 551.193 180.323 551.58C179.576 551.953 178.69 552.14 177.663 552.14ZM186.45 539.6C185.957 539.6 185.544 539.447 185.21 539.14C184.89 538.82 184.73 538.427 184.73 537.96C184.73 537.493 184.89 537.107 185.21 536.8C185.544 536.48 185.957 536.32 186.45 536.32C186.944 536.32 187.35 536.48 187.67 536.8C188.004 537.107 188.17 537.493 188.17 537.96C188.17 538.427 188.004 538.82 187.67 539.14C187.35 539.447 186.944 539.6 186.45 539.6ZM187.83 540.92V552H185.03V540.92H187.83ZM194.937 540.74C195.763 540.74 196.49 540.907 197.117 541.24C197.743 541.56 198.237 541.98 198.597 542.5V540.92H201.417V552.08C201.417 553.107 201.21 554.02 200.797 554.82C200.383 555.633 199.763 556.273 198.937 556.74C198.11 557.22 197.11 557.46 195.937 557.46C194.363 557.46 193.07 557.093 192.057 556.36C191.057 555.627 190.49 554.627 190.357 553.36H193.137C193.283 553.867 193.597 554.267 194.077 554.56C194.57 554.867 195.163 555.02 195.857 555.02C196.67 555.02 197.33 554.773 197.837 554.28C198.343 553.8 198.597 553.067 198.597 552.08V550.36C198.237 550.88 197.737 551.313 197.097 551.66C196.47 552.007 195.75 552.18 194.937 552.18C194.003 552.18 193.15 551.94 192.377 551.46C191.603 550.98 190.99 550.307 190.537 549.44C190.097 548.56 189.877 547.553 189.877 546.42C189.877 545.3 190.097 544.307 190.537 543.44C190.99 542.573 191.597 541.907 192.357 541.44C193.13 540.973 193.99 540.74 194.937 540.74ZM198.597 546.46C198.597 545.78 198.463 545.2 198.197 544.72C197.93 544.227 197.57 543.853 197.117 543.6C196.663 543.333 196.177 543.2 195.657 543.2C195.137 543.2 194.657 543.327 194.217 543.58C193.777 543.833 193.417 544.207 193.137 544.7C192.87 545.18 192.737 545.753 192.737 546.42C192.737 547.087 192.87 547.673 193.137 548.18C193.417 548.673 193.777 549.053 194.217 549.32C194.67 549.587 195.15 549.72 195.657 549.72C196.177 549.72 196.663 549.593 197.117 549.34C197.57 549.073 197.93 548.7 198.197 548.22C198.463 547.727 198.597 547.14 198.597 546.46ZM210.291 540.76C211.611 540.76 212.678 541.18 213.491 542.02C214.305 542.847 214.711 544.007 214.711 545.5V552H211.911V545.88C211.911 545 211.691 544.327 211.251 543.86C210.811 543.38 210.211 543.14 209.451 543.14C208.678 543.14 208.065 543.38 207.611 543.86C207.171 544.327 206.951 545 206.951 545.88V552H204.151V540.92H206.951V542.3C207.325 541.82 207.798 541.447 208.371 541.18C208.958 540.9 209.598 540.76 210.291 540.76ZM232.6 540.92V552H229.78V550.6C229.42 551.08 228.946 551.46 228.36 551.74C227.786 552.007 227.16 552.14 226.48 552.14C225.613 552.14 224.846 551.96 224.18 551.6C223.513 551.227 222.986 550.687 222.6 549.98C222.226 549.26 222.04 548.407 222.04 547.42V540.92H224.84V547.02C224.84 547.9 225.06 548.58 225.5 549.06C225.94 549.527 226.54 549.76 227.3 549.76C228.073 549.76 228.68 549.527 229.12 549.06C229.56 548.58 229.78 547.9 229.78 547.02V540.92H232.6ZM238.162 542.52C238.522 542.013 239.016 541.593 239.642 541.26C240.282 540.913 241.009 540.74 241.822 540.74C242.769 540.74 243.622 540.973 244.382 541.44C245.156 541.907 245.762 542.573 246.202 543.44C246.656 544.293 246.882 545.287 246.882 546.42C246.882 547.553 246.656 548.56 246.202 549.44C245.762 550.307 245.156 550.98 244.382 551.46C243.622 551.94 242.769 552.18 241.822 552.18C241.009 552.18 240.289 552.013 239.662 551.68C239.049 551.347 238.549 550.927 238.162 550.42V557.28H235.362V540.92H238.162V542.52ZM244.022 546.42C244.022 545.753 243.882 545.18 243.602 544.7C243.336 544.207 242.976 543.833 242.522 543.58C242.082 543.327 241.602 543.2 241.082 543.2C240.576 543.2 240.096 543.333 239.642 543.6C239.202 543.853 238.842 544.227 238.562 544.72C238.296 545.213 238.162 545.793 238.162 546.46C238.162 547.127 238.296 547.707 238.562 548.2C238.842 548.693 239.202 549.073 239.642 549.34C240.096 549.593 240.576 549.72 241.082 549.72C241.602 549.72 242.082 549.587 242.522 549.32C242.976 549.053 243.336 548.673 243.602 548.18C243.882 547.687 244.022 547.1 244.022 546.42Z" fill="white"/>
</g>
<defs>
<filter id="filter0_d_32_1335" x="11" y="505" width="397" height="100" filterUnits="userSpaceOnUse" color-interpolation-filters="sRGB">
<feFlood flood-opacity="0" result="BackgroundImageFix"/>
<feColorMatrix in="SourceAlpha" type="matrix" values="0 0 0 0 0 0 0 0 0 0 0 0 0 0 0 0 0 0 127 0" result="hardAlpha"/>
<feOffset dy="10"/>
<feGaussianBlur stdDeviation="10"/>
<feComposite in2="hardAlpha" operator="out"/>
<feColorMatrix type="matrix" values="0 0 0 0 0.795833 0 0 0 0 0.84075 0 0 0 0 1 0 0 0 1 0"/>
<feBlend mode="normal" in2="BackgroundImageFix" result="effect1_dropShadow_32_1335"/>
<feBlend mode="normal" in="SourceGraphic" in2="effect1_dropShadow_32_1335" result="shape"/>
</filter>
</defs>
</svg>
