<svg width="428" height="926" viewBox="0 0 428 926" fill="none" xmlns="http://www.w3.org/2000/svg">
<rect width="428" height="926" rx="50" fill="white"/>
<path d="M89.1257 169.44C89.1257 167.36 89.5757 165.51 90.4757 163.89C91.3757 162.25 92.6257 160.98 94.2257 160.08C95.8457 159.16 97.6757 158.7 99.7157 158.7C102.216 158.7 104.356 159.36 106.136 160.68C107.916 162 109.106 163.8 109.706 166.08H104.066C103.646 165.2 103.046 164.53 102.266 164.07C101.506 163.61 100.636 163.38 99.6557 163.38C98.0757 163.38 96.7957 163.93 95.8157 165.03C94.8357 166.13 94.3457 167.6 94.3457 169.44C94.3457 171.28 94.8357 172.75 95.8157 173.85C96.7957 174.95 98.0757 175.5 99.6557 175.5C100.636 175.5 101.506 175.27 102.266 174.81C103.046 174.35 103.646 173.68 104.066 172.8H109.706C109.106 175.08 107.916 176.88 106.136 178.2C104.356 179.5 102.216 180.15 99.7157 180.15C97.6757 180.15 95.8457 179.7 94.2257 178.8C92.6257 177.88 91.3757 176.61 90.4757 174.99C89.5757 173.37 89.1257 171.52 89.1257 169.44ZM117.977 166.05C118.577 165.13 119.327 164.41 120.227 163.89C121.127 163.35 122.127 163.08 123.227 163.08V168.51H121.817C120.537 168.51 119.577 168.79 118.937 169.35C118.297 169.89 117.977 170.85 117.977 172.23V180H112.847V163.26H117.977V166.05ZM141.459 171.36C141.459 171.84 141.429 172.34 141.369 172.86H129.759C129.839 173.9 130.169 174.7 130.749 175.26C131.349 175.8 132.079 176.07 132.939 176.07C134.219 176.07 135.109 175.53 135.609 174.45H141.069C140.789 175.55 140.279 176.54 139.539 177.42C138.819 178.3 137.909 178.99 136.809 179.49C135.709 179.99 134.479 180.24 133.119 180.24C131.479 180.24 130.019 179.89 128.739 179.19C127.459 178.49 126.459 177.49 125.739 176.19C125.019 174.89 124.659 173.37 124.659 171.63C124.659 169.89 125.009 168.37 125.709 167.07C126.429 165.77 127.429 164.77 128.709 164.07C129.989 163.37 131.459 163.02 133.119 163.02C134.739 163.02 136.179 163.36 137.439 164.04C138.699 164.72 139.679 165.69 140.379 166.95C141.099 168.21 141.459 169.68 141.459 171.36ZM136.209 170.01C136.209 169.13 135.909 168.43 135.309 167.91C134.709 167.39 133.959 167.13 133.059 167.13C132.199 167.13 131.469 167.38 130.869 167.88C130.289 168.38 129.929 169.09 129.789 170.01H136.209ZM143.146 171.6C143.146 169.88 143.466 168.37 144.106 167.07C144.766 165.77 145.656 164.77 146.776 164.07C147.896 163.37 149.146 163.02 150.526 163.02C151.706 163.02 152.736 163.26 153.616 163.74C154.516 164.22 155.206 164.85 155.686 165.63V163.26H160.816V180H155.686V177.63C155.186 178.41 154.486 179.04 153.586 179.52C152.706 180 151.676 180.24 150.496 180.24C149.136 180.24 147.896 179.89 146.776 179.19C145.656 178.47 144.766 177.46 144.106 176.16C143.466 174.84 143.146 173.32 143.146 171.6ZM155.686 171.63C155.686 170.35 155.326 169.34 154.606 168.6C153.906 167.86 153.046 167.49 152.026 167.49C151.006 167.49 150.136 167.86 149.416 168.6C148.716 169.32 148.366 170.32 148.366 171.6C148.366 172.88 148.716 173.9 149.416 174.66C150.136 175.4 151.006 175.77 152.026 175.77C153.046 175.77 153.906 175.4 154.606 174.66C155.326 173.92 155.686 172.91 155.686 171.63ZM173.857 175.65V180H171.247C169.387 180 167.937 179.55 166.897 178.65C165.857 177.73 165.337 176.24 165.337 174.18V167.52H163.297V163.26H165.337V159.18H170.467V163.26H173.827V167.52H170.467V174.24C170.467 174.74 170.587 175.1 170.827 175.32C171.067 175.54 171.467 175.65 172.027 175.65H173.857ZM192.494 171.36C192.494 171.84 192.464 172.34 192.404 172.86H180.794C180.874 173.9 181.204 174.7 181.784 175.26C182.384 175.8 183.114 176.07 183.974 176.07C185.254 176.07 186.144 175.53 186.644 174.45H192.104C191.824 175.55 191.314 176.54 190.574 177.42C189.854 178.3 188.944 178.99 187.844 179.49C186.744 179.99 185.514 180.24 184.154 180.24C182.514 180.24 181.054 179.89 179.774 179.19C178.494 178.49 177.494 177.49 176.774 176.19C176.054 174.89 175.694 173.37 175.694 171.63C175.694 169.89 176.044 168.37 176.744 167.07C177.464 165.77 178.464 164.77 179.744 164.07C181.024 163.37 182.494 163.02 184.154 163.02C185.774 163.02 187.214 163.36 188.474 164.04C189.734 164.72 190.714 165.69 191.414 166.95C192.134 168.21 192.494 169.68 192.494 171.36ZM187.244 170.01C187.244 169.13 186.944 168.43 186.344 167.91C185.744 167.39 184.994 167.13 184.094 167.13C183.234 167.13 182.504 167.38 181.904 167.88C181.324 168.38 180.964 169.09 180.824 170.01H187.244ZM214.668 176.28H206.808L205.548 180H200.178L207.798 158.94H213.738L221.358 180H215.928L214.668 176.28ZM213.348 172.32L210.738 164.61L208.158 172.32H213.348ZM222.657 171.63C222.657 169.89 223.007 168.37 223.707 167.07C224.427 165.77 225.417 164.77 226.677 164.07C227.957 163.37 229.417 163.02 231.057 163.02C233.157 163.02 234.907 163.57 236.307 164.67C237.727 165.77 238.657 167.32 239.097 169.32H233.637C233.177 168.04 232.287 167.4 230.967 167.4C230.027 167.4 229.277 167.77 228.717 168.51C228.157 169.23 227.877 170.27 227.877 171.63C227.877 172.99 228.157 174.04 228.717 174.78C229.277 175.5 230.027 175.86 230.967 175.86C232.287 175.86 233.177 175.22 233.637 173.94H239.097C238.657 175.9 237.727 177.44 236.307 178.56C234.887 179.68 233.137 180.24 231.057 180.24C229.417 180.24 227.957 179.89 226.677 179.19C225.417 178.49 224.427 177.49 223.707 176.19C223.007 174.89 222.657 173.37 222.657 171.63ZM240.821 171.63C240.821 169.89 241.171 168.37 241.871 167.07C242.591 165.77 243.581 164.77 244.841 164.07C246.121 163.37 247.581 163.02 249.221 163.02C251.321 163.02 253.071 163.57 254.471 164.67C255.891 165.77 256.821 167.32 257.261 169.32H251.801C251.341 168.04 250.451 167.4 249.131 167.4C248.191 167.4 247.441 167.77 246.881 168.51C246.321 169.23 246.041 170.27 246.041 171.63C246.041 172.99 246.321 174.04 246.881 174.78C247.441 175.5 248.191 175.86 249.131 175.86C250.451 175.86 251.341 175.22 251.801 173.94H257.261C256.821 175.9 255.891 177.44 254.471 178.56C253.051 179.68 251.301 180.24 249.221 180.24C247.581 180.24 246.121 179.89 244.841 179.19C243.581 178.49 242.591 177.49 241.871 176.19C241.171 174.89 240.821 173.37 240.821 171.63ZM267.626 180.24C265.986 180.24 264.506 179.89 263.186 179.19C261.886 178.49 260.856 177.49 260.096 176.19C259.356 174.89 258.986 173.37 258.986 171.63C258.986 169.91 259.366 168.4 260.126 167.1C260.886 165.78 261.926 164.77 263.246 164.07C264.566 163.37 266.046 163.02 267.686 163.02C269.326 163.02 270.806 163.37 272.126 164.07C273.446 164.77 274.486 165.78 275.246 167.1C276.006 168.4 276.386 169.91 276.386 171.63C276.386 173.35 275.996 174.87 275.216 176.19C274.456 177.49 273.406 178.49 272.066 179.19C270.746 179.89 269.266 180.24 267.626 180.24ZM267.626 175.8C268.606 175.8 269.436 175.44 270.116 174.72C270.816 174 271.166 172.97 271.166 171.63C271.166 170.29 270.826 169.26 270.146 168.54C269.486 167.82 268.666 167.46 267.686 167.46C266.686 167.46 265.856 167.82 265.196 168.54C264.536 169.24 264.206 170.27 264.206 171.63C264.206 172.97 264.526 174 265.166 174.72C265.826 175.44 266.646 175.8 267.626 175.8ZM295.637 163.26V180H290.507V177.72C289.987 178.46 289.277 179.06 288.377 179.52C287.497 179.96 286.517 180.18 285.437 180.18C284.157 180.18 283.027 179.9 282.047 179.34C281.067 178.76 280.307 177.93 279.767 176.85C279.227 175.77 278.957 174.5 278.957 173.04V163.26H284.057V172.35C284.057 173.47 284.347 174.34 284.927 174.96C285.507 175.58 286.287 175.89 287.267 175.89C288.267 175.89 289.057 175.58 289.637 174.96C290.217 174.34 290.507 173.47 290.507 172.35V163.26H295.637ZM309.522 163.08C311.482 163.08 313.042 163.72 314.202 165C315.382 166.26 315.972 168 315.972 170.22V180H310.872V170.91C310.872 169.79 310.582 168.92 310.002 168.3C309.422 167.68 308.642 167.37 307.662 167.37C306.682 167.37 305.902 167.68 305.322 168.3C304.742 168.92 304.452 169.79 304.452 170.91V180H299.322V163.26H304.452V165.48C304.972 164.74 305.672 164.16 306.552 163.74C307.432 163.3 308.422 163.08 309.522 163.08ZM328.867 175.65V180H326.257C324.397 180 322.947 179.55 321.907 178.65C320.867 177.73 320.347 176.24 320.347 174.18V167.52H318.307V163.26H320.347V159.18H325.477V163.26H328.837V167.52H325.477V174.24C325.477 174.74 325.597 175.1 325.837 175.32C326.077 175.54 326.477 175.65 327.037 175.65H328.867Z" fill="#039855"/>
<rect width="357" height="64" transform="translate(31 302)" fill="#F5F5F5"/>
<rect x="32" y="303" width="355" height="62" rx="9" fill="#F5F5F5"/>
<rect x="32" y="303" width="355" height="62" rx="9" stroke="#626262" stroke-width="2"/>
<path d="M57.0621 331.04C57.7554 331.04 58.3741 331.184 58.9181 331.472C59.4727 331.76 59.9047 332.187 60.2141 332.752C60.5234 333.317 60.6781 334 60.6781 334.8V340H58.8701V335.072C58.8701 334.283 58.6727 333.68 58.2781 333.264C57.8834 332.837 57.3447 332.624 56.6621 332.624C55.9794 332.624 55.4354 332.837 55.0301 333.264C54.6354 333.68 54.4381 334.283 54.4381 335.072V340H52.6141V331.184H54.4381V332.192C54.7367 331.829 55.1154 331.547 55.5741 331.344C56.0434 331.141 56.5394 331.04 57.0621 331.04ZM62.3967 335.552C62.3967 334.667 62.578 333.883 62.9407 333.2C63.314 332.517 63.8154 331.989 64.4447 331.616C65.0847 331.232 65.7887 331.04 66.5567 331.04C67.25 331.04 67.8527 331.179 68.3647 331.456C68.8874 331.723 69.3034 332.059 69.6127 332.464V331.184H71.4527V340H69.6127V338.688C69.3034 339.104 68.882 339.451 68.3487 339.728C67.8154 340.005 67.2074 340.144 66.5247 340.144C65.7674 340.144 65.074 339.952 64.4447 339.568C63.8154 339.173 63.314 338.629 62.9407 337.936C62.578 337.232 62.3967 336.437 62.3967 335.552ZM69.6127 335.584C69.6127 334.976 69.4847 334.448 69.2287 334C68.9834 333.552 68.658 333.211 68.2527 332.976C67.8474 332.741 67.41 332.624 66.9407 332.624C66.4714 332.624 66.034 332.741 65.6287 332.976C65.2234 333.2 64.8927 333.536 64.6367 333.984C64.3914 334.421 64.2687 334.944 64.2687 335.552C64.2687 336.16 64.3914 336.693 64.6367 337.152C64.8927 337.611 65.2234 337.963 65.6287 338.208C66.0447 338.443 66.482 338.56 66.9407 338.56C67.41 338.56 67.8474 338.443 68.2527 338.208C68.658 337.973 68.9834 337.632 69.2287 337.184C69.4847 336.725 69.6127 336.192 69.6127 335.584ZM84.5204 331.04C85.2138 331.04 85.8324 331.184 86.3764 331.472C86.9311 331.76 87.3631 332.187 87.6724 332.752C87.9924 333.317 88.1524 334 88.1524 334.8V340H86.3444V335.072C86.3444 334.283 86.1471 333.68 85.7524 333.264C85.3578 332.837 84.8191 332.624 84.1364 332.624C83.4538 332.624 82.9098 332.837 82.5044 333.264C82.1098 333.68 81.9124 334.283 81.9124 335.072V340H80.1044V335.072C80.1044 334.283 79.9071 333.68 79.5124 333.264C79.1178 332.837 78.5791 332.624 77.8964 332.624C77.2138 332.624 76.6698 332.837 76.2644 333.264C75.8698 333.68 75.6724 334.283 75.6724 335.072V340H73.8484V331.184H75.6724V332.192C75.9711 331.829 76.3498 331.547 76.8084 331.344C77.2671 331.141 77.7578 331.04 78.2804 331.04C78.9844 331.04 79.6138 331.189 80.1684 331.488C80.7231 331.787 81.1498 332.219 81.4484 332.784C81.7151 332.251 82.1311 331.829 82.6964 331.52C83.2618 331.2 83.8698 331.04 84.5204 331.04ZM98.5534 335.376C98.5534 335.707 98.5321 336.005 98.4894 336.272H91.7534C91.8068 336.976 92.0681 337.541 92.5374 337.968C93.0068 338.395 93.5828 338.608 94.2654 338.608C95.2468 338.608 95.9401 338.197 96.3454 337.376H98.3134C98.0468 338.187 97.5614 338.853 96.8574 339.376C96.1641 339.888 95.3001 340.144 94.2654 340.144C93.4228 340.144 92.6654 339.957 91.9934 339.584C91.3321 339.2 90.8094 338.667 90.4254 337.984C90.0521 337.291 89.8654 336.491 89.8654 335.584C89.8654 334.677 90.0468 333.883 90.4094 333.2C90.7828 332.507 91.3001 331.973 91.9614 331.6C92.6334 331.227 93.4014 331.04 94.2654 331.04C95.0974 331.04 95.8388 331.221 96.4894 331.584C97.1401 331.947 97.6468 332.459 98.0094 333.12C98.3721 333.771 98.5534 334.523 98.5534 335.376ZM96.6494 334.8C96.6388 334.128 96.3988 333.589 95.9294 333.184C95.4601 332.779 94.8788 332.576 94.1854 332.576C93.5561 332.576 93.0174 332.779 92.5694 333.184C92.1214 333.579 91.8548 334.117 91.7694 334.8H96.6494ZM108.556 329.664C109.772 329.664 110.823 329.888 111.708 330.336C112.594 330.784 113.266 331.413 113.724 332.224C114.194 333.024 114.428 333.957 114.428 335.024C114.428 335.877 114.279 336.693 113.98 337.472C113.692 338.251 113.271 338.885 112.716 339.376C112.172 339.867 111.527 340.112 110.78 340.112C110.236 340.112 109.81 339.995 109.5 339.76C109.191 339.515 108.999 339.173 108.924 338.736C108.594 339.163 108.178 339.499 107.676 339.744C107.175 339.989 106.652 340.112 106.108 340.112C105.287 340.112 104.642 339.867 104.172 339.376C103.714 338.875 103.484 338.197 103.484 337.344C103.484 336.533 103.65 335.776 103.98 335.072C104.322 334.368 104.796 333.808 105.404 333.392C106.012 332.965 106.695 332.752 107.452 332.752C108.38 332.752 109.031 333.067 109.404 333.696L109.548 332.896H111.132L110.332 337.472C110.3 337.696 110.284 337.893 110.284 338.064C110.284 338.341 110.338 338.549 110.444 338.688C110.562 338.827 110.764 338.896 111.052 338.896C111.458 338.896 111.804 338.699 112.092 338.304C112.38 337.899 112.594 337.403 112.732 336.816C112.882 336.229 112.956 335.659 112.956 335.104C112.956 333.749 112.562 332.715 111.772 332C110.983 331.285 109.836 330.928 108.332 330.928C107.074 330.928 105.943 331.227 104.94 331.824C103.948 332.421 103.17 333.243 102.604 334.288C102.039 335.333 101.756 336.496 101.756 337.776C101.756 339.141 102.162 340.181 102.972 340.896C103.783 341.611 104.94 341.968 106.444 341.968C107.458 341.968 108.343 341.781 109.1 341.408L109.34 342.624C108.37 343.04 107.282 343.248 106.076 343.248C104.914 343.248 103.895 343.029 103.02 342.592C102.146 342.155 101.468 341.531 100.988 340.72C100.508 339.92 100.268 338.987 100.268 337.92C100.268 336.395 100.62 335.003 101.324 333.744C102.039 332.485 103.026 331.493 104.284 330.768C105.543 330.032 106.967 329.664 108.556 329.664ZM106.668 338.704C107.116 338.704 107.522 338.576 107.884 338.32C108.258 338.053 108.551 337.707 108.764 337.28C108.978 336.843 109.084 336.379 109.084 335.888C109.084 335.376 108.94 334.96 108.652 334.64C108.375 334.309 107.98 334.144 107.468 334.144C107.01 334.144 106.604 334.288 106.252 334.576C105.911 334.853 105.644 335.216 105.452 335.664C105.271 336.112 105.18 336.581 105.18 337.072C105.18 337.573 105.303 337.973 105.548 338.272C105.794 338.56 106.167 338.704 106.668 338.704ZM120.307 331.04C120.989 331.04 121.592 331.179 122.115 331.456C122.648 331.723 123.064 332.059 123.363 332.464V331.184H125.203V340.144C125.203 340.955 125.032 341.675 124.691 342.304C124.349 342.944 123.853 343.445 123.203 343.808C122.563 344.171 121.795 344.352 120.899 344.352C119.704 344.352 118.712 344.069 117.923 343.504C117.133 342.949 116.685 342.192 116.579 341.232H118.387C118.525 341.691 118.819 342.059 119.267 342.336C119.725 342.624 120.269 342.768 120.899 342.768C121.635 342.768 122.227 342.544 122.675 342.096C123.133 341.648 123.363 340.997 123.363 340.144V338.672C123.053 339.088 122.632 339.44 122.099 339.728C121.576 340.005 120.979 340.144 120.307 340.144C119.539 340.144 118.835 339.952 118.195 339.568C117.565 339.173 117.064 338.629 116.691 337.936C116.328 337.232 116.147 336.437 116.147 335.552C116.147 334.667 116.328 333.883 116.691 333.2C117.064 332.517 117.565 331.989 118.195 331.616C118.835 331.232 119.539 331.04 120.307 331.04ZM123.363 335.584C123.363 334.976 123.235 334.448 122.979 334C122.733 333.552 122.408 333.211 122.003 332.976C121.597 332.741 121.16 332.624 120.691 332.624C120.221 332.624 119.784 332.741 119.379 332.976C118.973 333.2 118.643 333.536 118.387 333.984C118.141 334.421 118.019 334.944 118.019 335.552C118.019 336.16 118.141 336.693 118.387 337.152C118.643 337.611 118.973 337.963 119.379 338.208C119.795 338.443 120.232 338.56 120.691 338.56C121.16 338.56 121.597 338.443 122.003 338.208C122.408 337.973 122.733 337.632 122.979 337.184C123.235 336.725 123.363 336.192 123.363 335.584ZM138.27 331.04C138.964 331.04 139.582 331.184 140.126 331.472C140.681 331.76 141.113 332.187 141.422 332.752C141.742 333.317 141.902 334 141.902 334.8V340H140.094V335.072C140.094 334.283 139.897 333.68 139.502 333.264C139.108 332.837 138.569 332.624 137.886 332.624C137.204 332.624 136.66 332.837 136.254 333.264C135.86 333.68 135.662 334.283 135.662 335.072V340H133.854V335.072C133.854 334.283 133.657 333.68 133.262 333.264C132.868 332.837 132.329 332.624 131.646 332.624C130.964 332.624 130.42 332.837 130.014 333.264C129.62 333.68 129.422 334.283 129.422 335.072V340H127.598V331.184H129.422V332.192C129.721 331.829 130.1 331.547 130.558 331.344C131.017 331.141 131.508 331.04 132.03 331.04C132.734 331.04 133.364 331.189 133.918 331.488C134.473 331.787 134.9 332.219 135.198 332.784C135.465 332.251 135.881 331.829 136.446 331.52C137.012 331.2 137.62 331.04 138.27 331.04ZM143.615 335.552C143.615 334.667 143.797 333.883 144.159 333.2C144.533 332.517 145.034 331.989 145.663 331.616C146.303 331.232 147.007 331.04 147.775 331.04C148.469 331.04 149.071 331.179 149.583 331.456C150.106 331.723 150.522 332.059 150.831 332.464V331.184H152.671V340H150.831V338.688C150.522 339.104 150.101 339.451 149.567 339.728C149.034 340.005 148.426 340.144 147.743 340.144C146.986 340.144 146.293 339.952 145.663 339.568C145.034 339.173 144.533 338.629 144.159 337.936C143.797 337.232 143.615 336.437 143.615 335.552ZM150.831 335.584C150.831 334.976 150.703 334.448 150.447 334C150.202 333.552 149.877 333.211 149.471 332.976C149.066 332.741 148.629 332.624 148.159 332.624C147.69 332.624 147.253 332.741 146.847 332.976C146.442 333.2 146.111 333.536 145.855 333.984C145.61 334.421 145.487 334.944 145.487 335.552C145.487 336.16 145.61 336.693 145.855 337.152C146.111 337.611 146.442 337.963 146.847 338.208C147.263 338.443 147.701 338.56 148.159 338.56C148.629 338.56 149.066 338.443 149.471 338.208C149.877 337.973 150.202 337.632 150.447 337.184C150.703 336.725 150.831 336.192 150.831 335.584ZM155.995 330.016C155.665 330.016 155.387 329.904 155.163 329.68C154.939 329.456 154.827 329.179 154.827 328.848C154.827 328.517 154.939 328.24 155.163 328.016C155.387 327.792 155.665 327.68 155.995 327.68C156.315 327.68 156.587 327.792 156.811 328.016C157.035 328.24 157.147 328.517 157.147 328.848C157.147 329.179 157.035 329.456 156.811 329.68C156.587 329.904 156.315 330.016 155.995 330.016ZM156.891 331.184V340H155.067V331.184H156.891ZM161.11 328.16V340H159.286V328.16H161.11ZM164.241 340.112C163.91 340.112 163.633 340 163.409 339.776C163.185 339.552 163.073 339.275 163.073 338.944C163.073 338.613 163.185 338.336 163.409 338.112C163.633 337.888 163.91 337.776 164.241 337.776C164.561 337.776 164.833 337.888 165.057 338.112C165.281 338.336 165.393 338.613 165.393 338.944C165.393 339.275 165.281 339.552 165.057 339.776C164.833 340 164.561 340.112 164.241 340.112ZM166.756 335.584C166.756 334.677 166.937 333.883 167.3 333.2C167.673 332.507 168.185 331.973 168.836 331.6C169.487 331.227 170.233 331.04 171.076 331.04C172.143 331.04 173.023 331.296 173.716 331.808C174.42 332.309 174.895 333.029 175.14 333.968H173.172C173.012 333.531 172.756 333.189 172.404 332.944C172.052 332.699 171.609 332.576 171.076 332.576C170.329 332.576 169.732 332.843 169.284 333.376C168.847 333.899 168.628 334.635 168.628 335.584C168.628 336.533 168.847 337.275 169.284 337.808C169.732 338.341 170.329 338.608 171.076 338.608C172.132 338.608 172.831 338.144 173.172 337.216H175.14C174.884 338.112 174.404 338.827 173.7 339.36C172.996 339.883 172.121 340.144 171.076 340.144C170.233 340.144 169.487 339.957 168.836 339.584C168.185 339.2 167.673 338.667 167.3 337.984C166.937 337.291 166.756 336.491 166.756 335.584ZM180.782 340.144C179.95 340.144 179.198 339.957 178.526 339.584C177.854 339.2 177.326 338.667 176.942 337.984C176.558 337.291 176.366 336.491 176.366 335.584C176.366 334.688 176.563 333.893 176.958 333.2C177.352 332.507 177.891 331.973 178.574 331.6C179.256 331.227 180.019 331.04 180.862 331.04C181.704 331.04 182.467 331.227 183.15 331.6C183.832 331.973 184.371 332.507 184.766 333.2C185.16 333.893 185.358 334.688 185.358 335.584C185.358 336.48 185.155 337.275 184.75 337.968C184.344 338.661 183.79 339.2 183.086 339.584C182.392 339.957 181.624 340.144 180.782 340.144ZM180.782 338.56C181.251 338.56 181.688 338.448 182.094 338.224C182.51 338 182.846 337.664 183.102 337.216C183.358 336.768 183.486 336.224 183.486 335.584C183.486 334.944 183.363 334.405 183.118 333.968C182.872 333.52 182.547 333.184 182.142 332.96C181.736 332.736 181.299 332.624 180.83 332.624C180.36 332.624 179.923 332.736 179.518 332.96C179.123 333.184 178.808 333.52 178.574 333.968C178.339 334.405 178.222 334.944 178.222 335.584C178.222 336.533 178.462 337.269 178.942 337.792C179.432 338.304 180.046 338.56 180.782 338.56ZM197.833 331.04C198.526 331.04 199.145 331.184 199.689 331.472C200.244 331.76 200.676 332.187 200.985 332.752C201.305 333.317 201.465 334 201.465 334.8V340H199.657V335.072C199.657 334.283 199.46 333.68 199.065 333.264C198.67 332.837 198.132 332.624 197.449 332.624C196.766 332.624 196.222 332.837 195.817 333.264C195.422 333.68 195.225 334.283 195.225 335.072V340H193.417V335.072C193.417 334.283 193.22 333.68 192.825 333.264C192.43 332.837 191.892 332.624 191.209 332.624C190.526 332.624 189.982 332.837 189.577 333.264C189.182 333.68 188.985 334.283 188.985 335.072V340H187.161V331.184H188.985V332.192C189.284 331.829 189.662 331.547 190.121 331.344C190.58 331.141 191.07 331.04 191.593 331.04C192.297 331.04 192.926 331.189 193.481 331.488C194.036 331.787 194.462 332.219 194.761 332.784C195.028 332.251 195.444 331.829 196.009 331.52C196.574 331.2 197.182 331.04 197.833 331.04Z" fill="#E97B2C"/>
<rect x="32" y="396" width="355" height="62" rx="9" fill="#F5F5F5"/>
<rect x="32" y="396" width="355" height="62" rx="9" stroke="#626262" stroke-width="2"/>
<path d="M60.0541 425.192C60.0541 425.757 59.9208 426.291 59.6541 426.792C59.3875 427.293 58.9608 427.704 58.3741 428.024C57.7875 428.333 57.0355 428.488 56.1181 428.488H54.1021V433H52.2781V421.88H56.1181C56.9715 421.88 57.6915 422.029 58.2781 422.328C58.8755 422.616 59.3181 423.011 59.6061 423.512C59.9048 424.013 60.0541 424.573 60.0541 425.192ZM56.1181 427C56.8115 427 57.3288 426.845 57.6701 426.536C58.0115 426.216 58.1821 425.768 58.1821 425.192C58.1821 423.976 57.4941 423.368 56.1181 423.368H54.1021V427H56.1181ZM61.1858 428.552C61.1858 427.667 61.3671 426.883 61.7298 426.2C62.1031 425.517 62.6044 424.989 63.2338 424.616C63.8738 424.232 64.5778 424.04 65.3458 424.04C66.0391 424.04 66.6418 424.179 67.1538 424.456C67.6764 424.723 68.0924 425.059 68.4018 425.464V424.184H70.2418V433H68.4018V431.688C68.0924 432.104 67.6711 432.451 67.1378 432.728C66.6044 433.005 65.9964 433.144 65.3138 433.144C64.5564 433.144 63.8631 432.952 63.2338 432.568C62.6044 432.173 62.1031 431.629 61.7298 430.936C61.3671 430.232 61.1858 429.437 61.1858 428.552ZM68.4018 428.584C68.4018 427.976 68.2738 427.448 68.0178 427C67.7724 426.552 67.4471 426.211 67.0418 425.976C66.6364 425.741 66.1991 425.624 65.7298 425.624C65.2604 425.624 64.8231 425.741 64.4178 425.976C64.0124 426.2 63.6818 426.536 63.4258 426.984C63.1804 427.421 63.0578 427.944 63.0578 428.552C63.0578 429.16 63.1804 429.693 63.4258 430.152C63.6818 430.611 64.0124 430.963 64.4178 431.208C64.8338 431.443 65.2711 431.56 65.7298 431.56C66.1991 431.56 66.6364 431.443 67.0418 431.208C67.4471 430.973 67.7724 430.632 68.0178 430.184C68.2738 429.725 68.4018 429.192 68.4018 428.584ZM75.8375 433.144C75.1442 433.144 74.5202 433.021 73.9655 432.776C73.4215 432.52 72.9895 432.179 72.6695 431.752C72.3495 431.315 72.1788 430.829 72.1575 430.296H74.0455C74.0775 430.669 74.2535 430.984 74.5735 431.24C74.9042 431.485 75.3148 431.608 75.8055 431.608C76.3175 431.608 76.7122 431.512 76.9895 431.32C77.2775 431.117 77.4215 430.861 77.4215 430.552C77.4215 430.221 77.2615 429.976 76.9415 429.816C76.6322 429.656 76.1362 429.48 75.4535 429.288C74.7922 429.107 74.2535 428.931 73.8375 428.76C73.4215 428.589 73.0588 428.328 72.7495 427.976C72.4508 427.624 72.3015 427.16 72.3015 426.584C72.3015 426.115 72.4402 425.688 72.7175 425.304C72.9948 424.909 73.3895 424.6 73.9015 424.376C74.4242 424.152 75.0215 424.04 75.6935 424.04C76.6962 424.04 77.5015 424.296 78.1095 424.808C78.7282 425.309 79.0588 425.997 79.1015 426.872H77.2775C77.2455 426.477 77.0855 426.163 76.7975 425.928C76.5095 425.693 76.1202 425.576 75.6295 425.576C75.1495 425.576 74.7815 425.667 74.5255 425.848C74.2695 426.029 74.1415 426.269 74.1415 426.568C74.1415 426.803 74.2268 427 74.3975 427.16C74.5682 427.32 74.7762 427.448 75.0215 427.544C75.2668 427.629 75.6295 427.741 76.1095 427.88C76.7495 428.051 77.2722 428.227 77.6775 428.408C78.0935 428.579 78.4508 428.835 78.7495 429.176C79.0482 429.517 79.2028 429.971 79.2135 430.536C79.2135 431.037 79.0748 431.485 78.7975 431.88C78.5202 432.275 78.1255 432.584 77.6135 432.808C77.1122 433.032 76.5202 433.144 75.8375 433.144ZM84.3844 433.144C83.691 433.144 83.067 433.021 82.5124 432.776C81.9684 432.52 81.5364 432.179 81.2164 431.752C80.8964 431.315 80.7257 430.829 80.7044 430.296H82.5924C82.6244 430.669 82.8004 430.984 83.1204 431.24C83.451 431.485 83.8617 431.608 84.3524 431.608C84.8644 431.608 85.259 431.512 85.5364 431.32C85.8244 431.117 85.9684 430.861 85.9684 430.552C85.9684 430.221 85.8084 429.976 85.4884 429.816C85.179 429.656 84.683 429.48 84.0004 429.288C83.339 429.107 82.8004 428.931 82.3844 428.76C81.9684 428.589 81.6057 428.328 81.2964 427.976C80.9977 427.624 80.8484 427.16 80.8484 426.584C80.8484 426.115 80.987 425.688 81.2644 425.304C81.5417 424.909 81.9364 424.6 82.4484 424.376C82.971 424.152 83.5684 424.04 84.2404 424.04C85.243 424.04 86.0484 424.296 86.6564 424.808C87.275 425.309 87.6057 425.997 87.6484 426.872H85.8244C85.7924 426.477 85.6324 426.163 85.3444 425.928C85.0564 425.693 84.667 425.576 84.1764 425.576C83.6964 425.576 83.3284 425.667 83.0724 425.848C82.8164 426.029 82.6884 426.269 82.6884 426.568C82.6884 426.803 82.7737 427 82.9444 427.16C83.115 427.32 83.323 427.448 83.5684 427.544C83.8137 427.629 84.1764 427.741 84.6564 427.88C85.2964 428.051 85.819 428.227 86.2244 428.408C86.6404 428.579 86.9977 428.835 87.2964 429.176C87.595 429.517 87.7497 429.971 87.7604 430.536C87.7604 431.037 87.6217 431.485 87.3444 431.88C87.067 432.275 86.6724 432.584 86.1604 432.808C85.659 433.032 85.067 433.144 84.3844 433.144ZM101.571 424.184L98.8353 433H96.9153L95.1393 426.488L93.3633 433H91.4433L88.6913 424.184H90.5473L92.3873 431.272L94.2593 424.184H96.1633L97.9553 431.24L99.7793 424.184H101.571ZM106.758 433.144C105.926 433.144 105.174 432.957 104.502 432.584C103.83 432.2 103.302 431.667 102.918 430.984C102.534 430.291 102.342 429.491 102.342 428.584C102.342 427.688 102.54 426.893 102.934 426.2C103.329 425.507 103.868 424.973 104.55 424.6C105.233 424.227 105.996 424.04 106.838 424.04C107.681 424.04 108.444 424.227 109.126 424.6C109.809 424.973 110.348 425.507 110.742 426.2C111.137 426.893 111.334 427.688 111.334 428.584C111.334 429.48 111.132 430.275 110.726 430.968C110.321 431.661 109.766 432.2 109.062 432.584C108.369 432.957 107.601 433.144 106.758 433.144ZM106.758 431.56C107.228 431.56 107.665 431.448 108.07 431.224C108.486 431 108.822 430.664 109.078 430.216C109.334 429.768 109.462 429.224 109.462 428.584C109.462 427.944 109.34 427.405 109.094 426.968C108.849 426.52 108.524 426.184 108.118 425.96C107.713 425.736 107.276 425.624 106.806 425.624C106.337 425.624 105.9 425.736 105.494 425.96C105.1 426.184 104.785 426.52 104.55 426.968C104.316 427.405 104.198 427.944 104.198 428.584C104.198 429.533 104.438 430.269 104.918 430.792C105.409 431.304 106.022 431.56 106.758 431.56ZM114.962 425.464C115.228 425.016 115.58 424.669 116.018 424.424C116.466 424.168 116.994 424.04 117.602 424.04V425.928H117.138C116.423 425.928 115.879 426.109 115.506 426.472C115.143 426.835 114.962 427.464 114.962 428.36V433H113.138V424.184H114.962V425.464ZM118.67 428.552C118.67 427.667 118.851 426.883 119.214 426.2C119.587 425.517 120.089 424.989 120.718 424.616C121.358 424.232 122.067 424.04 122.846 424.04C123.422 424.04 123.987 424.168 124.542 424.424C125.107 424.669 125.555 425 125.886 425.416V421.16H127.726V433H125.886V431.672C125.587 432.099 125.171 432.451 124.638 432.728C124.115 433.005 123.513 433.144 122.83 433.144C122.062 433.144 121.358 432.952 120.718 432.568C120.089 432.173 119.587 431.629 119.214 430.936C118.851 430.232 118.67 429.437 118.67 428.552ZM125.886 428.584C125.886 427.976 125.758 427.448 125.502 427C125.257 426.552 124.931 426.211 124.526 425.976C124.121 425.741 123.683 425.624 123.214 425.624C122.745 425.624 122.307 425.741 121.902 425.976C121.497 426.2 121.166 426.536 120.91 426.984C120.665 427.421 120.542 427.944 120.542 428.552C120.542 429.16 120.665 429.693 120.91 430.152C121.166 430.611 121.497 430.963 121.902 431.208C122.318 431.443 122.755 431.56 123.214 431.56C123.683 431.56 124.121 431.443 124.526 431.208C124.931 430.973 125.257 430.632 125.502 430.184C125.758 429.725 125.886 429.192 125.886 428.584Z" fill="#626262"/>
<g filter="url(#filter0_d_32_1286)">
<rect x="31" y="519" width="357" height="60" rx="10" fill="#039855" shape-rendering="crispEdges"/>
<path d="M177.663 556.14C176.69 556.14 175.81 555.973 175.023 555.64C174.25 555.307 173.636 554.827 173.183 554.2C172.73 553.573 172.496 552.833 172.483 551.98H175.483C175.523 552.553 175.723 553.007 176.083 553.34C176.456 553.673 176.963 553.84 177.603 553.84C178.256 553.84 178.77 553.687 179.143 553.38C179.516 553.06 179.703 552.647 179.703 552.14C179.703 551.727 179.576 551.387 179.323 551.12C179.07 550.853 178.75 550.647 178.363 550.5C177.99 550.34 177.47 550.167 176.803 549.98C175.896 549.713 175.156 549.453 174.583 549.2C174.023 548.933 173.536 548.54 173.123 548.02C172.723 547.487 172.523 546.78 172.523 545.9C172.523 545.073 172.73 544.353 173.143 543.74C173.556 543.127 174.136 542.66 174.883 542.34C175.63 542.007 176.483 541.84 177.443 541.84C178.883 541.84 180.05 542.193 180.943 542.9C181.85 543.593 182.35 544.567 182.443 545.82H179.363C179.336 545.34 179.13 544.947 178.743 544.64C178.37 544.32 177.87 544.16 177.243 544.16C176.696 544.16 176.256 544.3 175.923 544.58C175.603 544.86 175.443 545.267 175.443 545.8C175.443 546.173 175.563 546.487 175.803 546.74C176.056 546.98 176.363 547.18 176.723 547.34C177.096 547.487 177.616 547.66 178.283 547.86C179.19 548.127 179.93 548.393 180.503 548.66C181.076 548.927 181.57 549.327 181.983 549.86C182.396 550.393 182.603 551.093 182.603 551.96C182.603 552.707 182.41 553.4 182.023 554.04C181.636 554.68 181.07 555.193 180.323 555.58C179.576 555.953 178.69 556.14 177.663 556.14ZM186.45 543.6C185.957 543.6 185.544 543.447 185.21 543.14C184.89 542.82 184.73 542.427 184.73 541.96C184.73 541.493 184.89 541.107 185.21 540.8C185.544 540.48 185.957 540.32 186.45 540.32C186.944 540.32 187.35 540.48 187.67 540.8C188.004 541.107 188.17 541.493 188.17 541.96C188.17 542.427 188.004 542.82 187.67 543.14C187.35 543.447 186.944 543.6 186.45 543.6ZM187.83 544.92V556H185.03V544.92H187.83ZM194.937 544.74C195.763 544.74 196.49 544.907 197.117 545.24C197.743 545.56 198.237 545.98 198.597 546.5V544.92H201.417V556.08C201.417 557.107 201.21 558.02 200.797 558.82C200.383 559.633 199.763 560.273 198.937 560.74C198.11 561.22 197.11 561.46 195.937 561.46C194.363 561.46 193.07 561.093 192.057 560.36C191.057 559.627 190.49 558.627 190.357 557.36H193.137C193.283 557.867 193.597 558.267 194.077 558.56C194.57 558.867 195.163 559.02 195.857 559.02C196.67 559.02 197.33 558.773 197.837 558.28C198.343 557.8 198.597 557.067 198.597 556.08V554.36C198.237 554.88 197.737 555.313 197.097 555.66C196.47 556.007 195.75 556.18 194.937 556.18C194.003 556.18 193.15 555.94 192.377 555.46C191.603 554.98 190.99 554.307 190.537 553.44C190.097 552.56 189.877 551.553 189.877 550.42C189.877 549.3 190.097 548.307 190.537 547.44C190.99 546.573 191.597 545.907 192.357 545.44C193.13 544.973 193.99 544.74 194.937 544.74ZM198.597 550.46C198.597 549.78 198.463 549.2 198.197 548.72C197.93 548.227 197.57 547.853 197.117 547.6C196.663 547.333 196.177 547.2 195.657 547.2C195.137 547.2 194.657 547.327 194.217 547.58C193.777 547.833 193.417 548.207 193.137 548.7C192.87 549.18 192.737 549.753 192.737 550.42C192.737 551.087 192.87 551.673 193.137 552.18C193.417 552.673 193.777 553.053 194.217 553.32C194.67 553.587 195.15 553.72 195.657 553.72C196.177 553.72 196.663 553.593 197.117 553.34C197.57 553.073 197.93 552.7 198.197 552.22C198.463 551.727 198.597 551.14 198.597 550.46ZM210.291 544.76C211.611 544.76 212.678 545.18 213.491 546.02C214.305 546.847 214.711 548.007 214.711 549.5V556H211.911V549.88C211.911 549 211.691 548.327 211.251 547.86C210.811 547.38 210.211 547.14 209.451 547.14C208.678 547.14 208.065 547.38 207.611 547.86C207.171 548.327 206.951 549 206.951 549.88V556H204.151V544.92H206.951V546.3C207.325 545.82 207.798 545.447 208.371 545.18C208.958 544.9 209.598 544.76 210.291 544.76ZM232.6 544.92V556H229.78V554.6C229.42 555.08 228.946 555.46 228.36 555.74C227.786 556.007 227.16 556.14 226.48 556.14C225.613 556.14 224.846 555.96 224.18 555.6C223.513 555.227 222.986 554.687 222.6 553.98C222.226 553.26 222.04 552.407 222.04 551.42V544.92H224.84V551.02C224.84 551.9 225.06 552.58 225.5 553.06C225.94 553.527 226.54 553.76 227.3 553.76C228.073 553.76 228.68 553.527 229.12 553.06C229.56 552.58 229.78 551.9 229.78 551.02V544.92H232.6ZM238.162 546.52C238.522 546.013 239.016 545.593 239.642 545.26C240.282 544.913 241.009 544.74 241.822 544.74C242.769 544.74 243.622 544.973 244.382 545.44C245.156 545.907 245.762 546.573 246.202 547.44C246.656 548.293 246.882 549.287 246.882 550.42C246.882 551.553 246.656 552.56 246.202 553.44C245.762 554.307 245.156 554.98 244.382 555.46C243.622 555.94 242.769 556.18 241.822 556.18C241.009 556.18 240.289 556.013 239.662 555.68C239.049 555.347 238.549 554.927 238.162 554.42V561.28H235.362V544.92H238.162V546.52ZM244.022 550.42C244.022 549.753 243.882 549.18 243.602 548.7C243.336 548.207 242.976 547.833 242.522 547.58C242.082 547.327 241.602 547.2 241.082 547.2C240.576 547.2 240.096 547.333 239.642 547.6C239.202 547.853 238.842 548.227 238.562 548.72C238.296 549.213 238.162 549.793 238.162 550.46C238.162 551.127 238.296 551.707 238.562 552.2C238.842 552.693 239.202 553.073 239.642 553.34C240.096 553.593 240.576 553.72 241.082 553.72C241.602 553.72 242.082 553.587 242.522 553.32C242.976 553.053 243.336 552.673 243.602 552.18C243.882 551.687 244.022 551.1 244.022 550.42Z" fill="white"/>
</g>
<defs>
<filter id="filter0_d_32_1286" x="11" y="509" width="397" height="100" filterUnits="userSpaceOnUse" color-interpolation-filters="sRGB">
<feFlood flood-opacity="0" result="BackgroundImageFix"/>
<feColorMatrix in="SourceAlpha" type="matrix" values="0 0 0 0 0 0 0 0 0 0 0 0 0 0 0 0 0 0 127 0" result="hardAlpha"/>
<feOffset dy="10"/>
<feGaussianBlur stdDeviation="10"/>
<feComposite in2="hardAlpha" operator="out"/>
<feColorMatrix type="matrix" values="0 0 0 0 0.795833 0 0 0 0 0.84075 0 0 0 0 1 0 0 0 1 0"/>
<feBlend mode="normal" in2="BackgroundImageFix" result="effect1_dropShadow_32_1286"/>
<feBlend mode="normal" in="SourceGraphic" in2="effect1_dropShadow_32_1286" result="shape"/>
</filter>
</defs>
</svg>
