<svg width="428" height="926" viewBox="0 0 428 926" fill="none" xmlns="http://www.w3.org/2000/svg">
<rect width="428" height="926" rx="50" fill="white"/>
<path d="M118.766 165.95C118.706 165.51 118.516 165.14 118.196 164.84C117.876 164.54 117.476 164.3 116.996 164.12C116.536 163.94 116.016 163.82 115.436 163.76C114.876 163.68 114.316 163.64 113.756 163.64C111.776 163.64 110.216 164.09 109.076 164.99C108.136 165.75 107.426 166.76 106.946 168.02C106.486 169.28 106.256 170.66 106.256 172.16C106.256 173.58 106.456 174.83 106.856 175.91C107.276 176.97 107.846 177.86 108.566 178.58C109.286 179.3 110.136 179.85 111.116 180.23C112.116 180.59 113.196 180.77 114.356 180.77C115.176 180.77 116.116 180.66 117.176 180.44C118.256 180.2 119.276 179.75 120.236 179.09L120.536 179.42L119.876 180.77C118.876 181.31 117.876 181.71 116.876 181.97C115.896 182.21 114.876 182.33 113.816 182.33C112.316 182.33 110.956 182.09 109.736 181.61C108.516 181.13 107.466 180.45 106.586 179.57C105.726 178.67 105.056 177.61 104.576 176.39C104.096 175.15 103.856 173.78 103.856 172.28C103.856 170.88 104.066 169.56 104.486 168.32C104.926 167.06 105.566 165.97 106.406 165.05C107.266 164.13 108.316 163.4 109.556 162.86C110.816 162.32 112.276 162.05 113.936 162.05C114.296 162.05 114.716 162.07 115.196 162.11C115.696 162.13 116.216 162.18 116.756 162.26C117.296 162.34 117.846 162.45 118.406 162.59C118.966 162.71 119.506 162.87 120.026 163.07L120.116 163.34L119.726 166.07H118.856L118.766 165.95ZM134.798 181.79C134.878 181.53 134.938 181.19 134.978 180.77C135.018 180.35 135.048 179.98 135.068 179.66C135.108 178.82 135.138 178 135.158 177.2C135.178 176.38 135.188 175.7 135.188 175.16C135.188 174.7 135.168 174.2 135.128 173.66C135.108 173.12 135.048 172.65 134.948 172.25C134.748 171.31 134.338 170.61 133.718 170.15C133.098 169.69 132.378 169.46 131.558 169.46C130.898 169.46 130.278 169.61 129.698 169.91C129.138 170.19 128.658 170.54 128.258 170.96C127.858 171.36 127.538 171.79 127.298 172.25C127.078 172.69 126.968 173.06 126.968 173.36C126.968 174.44 126.968 175.31 126.968 175.97C126.968 176.61 126.968 177.15 126.968 177.59C126.988 178.03 126.998 178.4 126.998 178.7C127.018 178.98 127.048 179.3 127.088 179.66C127.128 180.08 127.168 180.4 127.208 180.62C127.268 180.82 127.378 180.99 127.538 181.13C127.698 181.27 127.918 181.36 128.198 181.4C128.498 181.44 128.798 181.46 129.098 181.46L129.248 181.61L129.308 182L129.248 182.12C129.108 182.12 128.898 182.11 128.618 182.09C128.338 182.07 128.038 182.05 127.718 182.03C127.398 182.03 127.098 182.02 126.818 182C126.538 182 126.328 182 126.188 182H125.768C125.628 182 125.408 182 125.108 182C124.828 182.02 124.528 182.03 124.208 182.03C123.908 182.05 123.608 182.07 123.308 182.09C123.028 182.11 122.818 182.12 122.678 182.12L122.648 182L122.678 181.58L122.798 181.46C123.118 181.46 123.428 181.45 123.728 181.43C124.048 181.39 124.288 181.29 124.448 181.13C124.608 180.99 124.708 180.81 124.748 180.59C124.808 180.37 124.858 180.06 124.898 179.66C124.918 179.4 124.928 179.14 124.928 178.88C124.948 178.62 124.958 178.32 124.958 177.98C124.978 177.62 124.988 177.21 124.988 176.75C124.988 176.27 124.988 175.68 124.988 174.98V167.78C124.988 166.96 124.988 166.27 124.988 165.71C124.988 165.13 124.978 164.63 124.958 164.21C124.958 163.79 124.948 163.42 124.928 163.1C124.928 162.78 124.918 162.46 124.898 162.14C124.878 161.92 124.818 161.73 124.718 161.57C124.638 161.41 124.568 161.29 124.508 161.21C124.308 160.99 124.058 160.85 123.758 160.79C123.458 160.73 123.148 160.7 122.828 160.7L122.708 160.58V160.19L122.828 160.07H123.368C123.708 160.07 124.138 160.07 124.658 160.07C125.178 160.05 125.628 160.01 126.008 159.95L127.058 159.8L127.238 160.07C127.198 160.15 127.168 160.3 127.148 160.52C127.128 160.72 127.108 160.94 127.088 161.18C127.068 161.42 127.058 161.65 127.058 161.87C127.058 162.09 127.058 162.26 127.058 162.38C127.058 163.02 127.038 163.79 126.998 164.69C126.978 165.57 126.968 166.58 126.968 167.72C126.968 168.56 126.958 169.22 126.938 169.7C126.938 170.18 126.918 170.56 126.878 170.84L126.968 170.9C127.468 170.02 128.138 169.28 128.978 168.68C129.818 168.06 130.858 167.75 132.098 167.75C132.658 167.75 133.218 167.83 133.778 167.99C134.358 168.15 134.878 168.4 135.338 168.74C135.798 169.08 136.188 169.51 136.508 170.03C136.828 170.55 137.028 171.17 137.108 171.89C137.168 172.41 137.198 173.01 137.198 173.69C137.218 174.35 137.228 174.89 137.228 175.31V179.54C137.228 180 137.268 180.36 137.348 180.62C137.448 180.86 137.558 181.03 137.678 181.13C137.858 181.29 138.098 181.39 138.398 181.43C138.718 181.45 139.038 181.46 139.358 181.46L139.448 181.58L139.508 182L139.448 182.12C139.108 182.08 138.728 182.05 138.308 182.03C137.888 182.01 137.478 182 137.078 182C136.318 182 135.628 182.03 135.008 182.09L134.798 181.79ZM154.648 173.93L154.168 174.14C153.088 174.14 151.978 174.15 150.838 174.17C149.698 174.19 148.578 174.2 147.478 174.2H143.938C143.918 174.34 143.908 174.48 143.908 174.62C143.908 174.74 143.908 174.86 143.908 174.98C143.908 175.74 144.018 176.47 144.238 177.17C144.458 177.85 144.798 178.45 145.258 178.97C145.738 179.49 146.348 179.91 147.088 180.23C147.828 180.53 148.728 180.68 149.788 180.68C150.408 180.68 151.068 180.62 151.768 180.5C152.488 180.36 153.148 180.12 153.748 179.78L154.048 179.96V180.5L153.748 180.83C153.268 181.21 152.588 181.56 151.708 181.88C150.828 182.18 149.848 182.33 148.768 182.33C147.708 182.33 146.738 182.16 145.858 181.82C144.998 181.46 144.248 180.96 143.608 180.32C142.988 179.68 142.498 178.92 142.138 178.04C141.798 177.16 141.628 176.18 141.628 175.1C141.628 174 141.808 173 142.168 172.1C142.528 171.2 143.018 170.43 143.638 169.79C144.278 169.15 145.018 168.65 145.858 168.29C146.718 167.93 147.638 167.75 148.618 167.75C149.138 167.75 149.718 167.82 150.358 167.96C151.018 168.1 151.648 168.37 152.248 168.77C152.848 169.15 153.388 169.7 153.868 170.42C154.348 171.12 154.678 172.05 154.858 173.21L154.648 173.93ZM148.648 169.1C148.008 169.1 147.428 169.21 146.908 169.43C146.408 169.63 145.958 169.91 145.558 170.27C145.178 170.61 144.858 171.02 144.598 171.5C144.358 171.96 144.188 172.45 144.088 172.97H145.258C146.338 172.97 147.388 172.96 148.408 172.94C149.428 172.9 150.498 172.85 151.618 172.79C151.878 172.77 152.048 172.7 152.128 172.58C152.228 172.46 152.278 172.32 152.278 172.16C152.278 172.04 152.268 171.93 152.248 171.83C152.228 171.73 152.198 171.63 152.158 171.53C151.938 170.77 151.528 170.18 150.928 169.76C150.328 169.32 149.568 169.1 148.648 169.1ZM169.12 171.41L169 171.32C169 170.86 168.86 170.49 168.58 170.21C168.32 169.91 168 169.68 167.62 169.52C167.24 169.36 166.83 169.25 166.39 169.19C165.97 169.13 165.6 169.1 165.28 169.1C164.36 169.1 163.56 169.27 162.88 169.61C162.22 169.93 161.67 170.37 161.23 170.93C160.79 171.47 160.46 172.1 160.24 172.82C160.04 173.52 159.94 174.24 159.94 174.98C159.94 175.74 160.05 176.47 160.27 177.17C160.51 177.87 160.87 178.49 161.35 179.03C161.83 179.57 162.43 180 163.15 180.32C163.87 180.64 164.73 180.8 165.73 180.8C166.41 180.8 167.16 180.7 167.98 180.5C168.82 180.28 169.54 180.01 170.14 179.69L170.44 179.99L169.99 180.83C169.77 180.99 169.48 181.16 169.12 181.34C168.78 181.5 168.39 181.66 167.95 181.82C167.51 181.96 167.03 182.08 166.51 182.18C166.01 182.28 165.51 182.33 165.01 182.33C164.03 182.33 163.09 182.16 162.19 181.82C161.31 181.46 160.53 180.97 159.85 180.35C159.19 179.71 158.66 178.95 158.26 178.07C157.86 177.17 157.66 176.18 157.66 175.1C157.66 174 157.86 173 158.26 172.1C158.66 171.2 159.21 170.43 159.91 169.79C160.61 169.15 161.42 168.65 162.34 168.29C163.28 167.93 164.28 167.75 165.34 167.75C166.3 167.75 167.2 167.87 168.04 168.11C168.9 168.35 169.55 168.59 169.99 168.83L170.08 169.1L169.75 171.41H169.12ZM172.534 160.19L172.654 160.07H173.194C173.534 160.07 173.964 160.07 174.484 160.07C175.004 160.05 175.454 160.01 175.834 159.95L176.884 159.8L177.064 160.07C177.024 160.15 176.994 160.3 176.974 160.52C176.954 160.72 176.934 160.94 176.914 161.18C176.894 161.42 176.884 161.65 176.884 161.87C176.884 162.09 176.884 162.26 176.884 162.38C176.884 162.7 176.874 163 176.854 163.28C176.854 163.56 176.844 163.89 176.824 164.27C176.824 164.65 176.814 165.11 176.794 165.65C176.794 166.19 176.794 166.88 176.794 167.72V174.86L180.364 171.56C180.404 171.52 180.494 171.43 180.634 171.29C180.794 171.15 180.954 171.01 181.114 170.87C181.274 170.71 181.424 170.56 181.564 170.42C181.724 170.26 181.834 170.15 181.894 170.09C182.074 169.89 182.164 169.71 182.164 169.55C182.164 169.31 182.004 169.14 181.684 169.04C181.384 168.94 181.084 168.87 180.784 168.83L180.664 168.71V168.35L180.784 168.23C181.164 168.27 181.544 168.31 181.924 168.35C182.304 168.39 182.694 168.41 183.094 168.41H183.934C184.314 168.41 184.694 168.39 185.074 168.35C185.474 168.31 185.874 168.27 186.274 168.23L186.364 168.35V168.77L186.214 168.92C186.014 168.96 185.774 169.01 185.494 169.07C185.214 169.11 184.964 169.2 184.744 169.34C184.444 169.52 184.124 169.74 183.784 170C183.464 170.24 183.134 170.5 182.794 170.78C182.474 171.06 182.154 171.34 181.834 171.62C181.534 171.9 181.254 172.17 180.994 172.43L179.764 173.57C179.864 173.71 179.994 173.91 180.154 174.17C180.314 174.41 180.554 174.72 180.874 175.1L183.544 178.4C183.824 178.74 184.094 179.09 184.354 179.45C184.634 179.79 184.924 180.11 185.224 180.41C185.544 180.69 185.884 180.93 186.244 181.13C186.604 181.33 187.014 181.44 187.474 181.46L187.564 181.58L187.624 182L187.564 182.12C187.224 182.16 186.844 182.18 186.424 182.18C186.004 182.2 185.584 182.21 185.164 182.21C184.604 182.21 184.074 181.96 183.574 181.46C183.514 181.4 183.324 181.21 183.004 180.89C182.684 180.57 182.354 180.21 182.014 179.81L179.614 176.72C179.274 176.26 179.004 175.92 178.804 175.7C178.604 175.46 178.394 175.23 178.174 175.01C177.734 175.41 177.424 175.71 177.244 175.91C177.084 176.09 176.934 176.25 176.794 176.39C176.794 176.79 176.794 177.13 176.794 177.41C176.814 177.69 176.824 177.95 176.824 178.19C176.844 178.43 176.854 178.67 176.854 178.91C176.874 179.13 176.894 179.38 176.914 179.66C176.934 180.08 176.974 180.4 177.034 180.62C177.094 180.82 177.204 180.99 177.364 181.13C177.524 181.27 177.744 181.36 178.024 181.4C178.324 181.44 178.624 181.46 178.924 181.46L179.074 181.61L179.134 182L179.074 182.12C178.934 182.12 178.724 182.11 178.444 182.09C178.164 182.07 177.864 182.05 177.544 182.03C177.224 182.03 176.924 182.02 176.644 182C176.364 182 176.154 182 176.014 182H175.594C175.454 182 175.234 182 174.934 182C174.654 182.02 174.354 182.03 174.034 182.03C173.734 182.05 173.434 182.07 173.134 182.09C172.854 182.11 172.644 182.12 172.504 182.12L172.474 182L172.504 181.58L172.624 181.46C172.944 181.46 173.254 181.45 173.554 181.43C173.874 181.39 174.114 181.29 174.274 181.13C174.434 180.99 174.534 180.81 174.574 180.59C174.634 180.37 174.684 180.06 174.724 179.66C174.744 179.4 174.754 179.14 174.754 178.88C174.774 178.62 174.784 178.32 174.784 177.98C174.804 177.62 174.814 177.21 174.814 176.75C174.814 176.27 174.814 175.68 174.814 174.98V167.78C174.814 166.96 174.814 166.27 174.814 165.71C174.814 165.13 174.804 164.63 174.784 164.21C174.784 163.79 174.774 163.42 174.754 163.1C174.754 162.78 174.744 162.46 174.724 162.14C174.704 161.92 174.644 161.73 174.544 161.57C174.464 161.41 174.394 161.29 174.334 161.21C174.134 160.99 173.884 160.85 173.584 160.79C173.284 160.73 172.974 160.7 172.654 160.7L172.534 160.58V160.19ZM204.173 167.75C205.353 167.75 206.403 167.96 207.323 168.38C208.243 168.78 209.013 169.33 209.633 170.03C210.273 170.71 210.753 171.5 211.073 172.4C211.413 173.3 211.583 174.23 211.583 175.19C211.583 176.11 211.433 177 211.133 177.86C210.833 178.72 210.373 179.48 209.753 180.14C209.133 180.8 208.363 181.33 207.443 181.73C206.523 182.13 205.453 182.33 204.233 182.33C202.973 182.33 201.873 182.12 200.933 181.7C199.993 181.28 199.213 180.73 198.593 180.05C197.993 179.37 197.543 178.6 197.243 177.74C196.943 176.86 196.793 175.96 196.793 175.04C196.793 174.06 196.963 173.13 197.303 172.25C197.643 171.37 198.123 170.6 198.743 169.94C199.383 169.26 200.153 168.73 201.053 168.35C201.973 167.95 203.013 167.75 204.173 167.75ZM204.203 181.16C205.043 181.16 205.783 180.99 206.423 180.65C207.063 180.31 207.593 179.86 208.013 179.3C208.433 178.74 208.743 178.11 208.943 177.41C209.163 176.69 209.273 175.95 209.273 175.19C209.273 174.47 209.153 173.74 208.913 173C208.693 172.26 208.363 171.6 207.923 171.02C207.483 170.42 206.943 169.94 206.303 169.58C205.663 169.2 204.923 169.01 204.083 169.01C203.203 169.01 202.443 169.19 201.803 169.55C201.183 169.89 200.663 170.34 200.243 170.9C199.843 171.46 199.543 172.1 199.343 172.82C199.143 173.54 199.043 174.26 199.043 174.98C199.043 175.72 199.153 176.46 199.373 177.2C199.613 177.92 199.953 178.58 200.393 179.18C200.833 179.76 201.373 180.24 202.013 180.62C202.653 180.98 203.383 181.16 204.203 181.16ZM222.383 169.61H218.573V174.26C218.573 175.1 218.573 175.81 218.573 176.39C218.573 176.95 218.573 177.43 218.573 177.83C218.593 178.21 218.613 178.54 218.633 178.82C218.653 179.1 218.673 179.38 218.693 179.66C218.733 179.96 218.773 180.25 218.813 180.53C218.873 180.79 218.983 180.99 219.143 181.13C219.243 181.21 219.383 181.27 219.563 181.31C219.763 181.35 219.963 181.38 220.163 181.4C220.383 181.42 220.593 181.44 220.793 181.46C220.993 181.46 221.153 181.46 221.273 181.46L221.423 181.61L221.483 182L221.423 182.12C221.283 182.12 221.053 182.11 220.733 182.09C220.433 182.07 220.113 182.05 219.773 182.03C219.433 182.03 219.103 182.02 218.783 182C218.483 182 218.263 182 218.123 182H217.403C217.263 182 217.043 182 216.743 182C216.463 182.02 216.163 182.03 215.843 182.03C215.523 182.05 215.213 182.07 214.913 182.09C214.633 182.11 214.423 182.12 214.283 182.12L214.253 182L214.283 181.58L214.403 181.46C214.723 181.46 215.033 181.45 215.333 181.43C215.653 181.39 215.893 181.29 216.053 181.13C216.173 181.01 216.273 180.86 216.353 180.68C216.433 180.48 216.483 180.16 216.503 179.72C216.543 179.28 216.563 178.69 216.563 177.95C216.583 177.21 216.593 176.22 216.593 174.98V169.61H214.373L214.253 169.46V168.92L214.373 168.8L216.593 168.35V166.64C216.593 164.5 216.993 162.8 217.793 161.54C218.593 160.28 219.763 159.65 221.303 159.65C221.763 159.65 222.263 159.72 222.803 159.86C223.343 160 223.903 160.23 224.483 160.55L224.633 160.85L224.273 163.16H223.493C223.413 162.52 223.113 162.02 222.593 161.66C222.093 161.3 221.523 161.12 220.883 161.12C220.303 161.12 219.853 161.24 219.533 161.48C219.233 161.7 219.003 162 218.843 162.38C218.703 162.76 218.623 163.2 218.603 163.7C218.583 164.18 218.573 164.67 218.573 165.17V168.35L222.383 168.17L222.533 168.29V169.46L222.383 169.61ZM232.673 169.61H228.863V174.26C228.863 175.1 228.863 175.81 228.863 176.39C228.863 176.95 228.863 177.43 228.863 177.83C228.883 178.21 228.903 178.54 228.923 178.82C228.943 179.1 228.963 179.38 228.983 179.66C229.023 179.96 229.063 180.25 229.103 180.53C229.163 180.79 229.273 180.99 229.433 181.13C229.533 181.21 229.673 181.27 229.853 181.31C230.053 181.35 230.253 181.38 230.453 181.4C230.673 181.42 230.883 181.44 231.083 181.46C231.283 181.46 231.443 181.46 231.563 181.46L231.713 181.61L231.773 182L231.713 182.12C231.573 182.12 231.343 182.11 231.023 182.09C230.723 182.07 230.403 182.05 230.063 182.03C229.723 182.03 229.393 182.02 229.073 182C228.773 182 228.553 182 228.413 182H227.693C227.553 182 227.333 182 227.033 182C226.753 182.02 226.453 182.03 226.133 182.03C225.813 182.05 225.503 182.07 225.203 182.09C224.923 182.11 224.713 182.12 224.573 182.12L224.543 182L224.573 181.58L224.693 181.46C225.013 181.46 225.323 181.45 225.623 181.43C225.943 181.39 226.183 181.29 226.343 181.13C226.463 181.01 226.563 180.86 226.643 180.68C226.723 180.48 226.773 180.16 226.793 179.72C226.833 179.28 226.853 178.69 226.853 177.95C226.873 177.21 226.883 176.22 226.883 174.98V169.61H224.663L224.543 169.46V168.92L224.663 168.8L226.883 168.35V166.64C226.883 164.5 227.283 162.8 228.083 161.54C228.883 160.28 230.053 159.65 231.593 159.65C232.053 159.65 232.553 159.72 233.093 159.86C233.633 160 234.193 160.23 234.773 160.55L234.923 160.85L234.563 163.16H233.783C233.703 162.52 233.403 162.02 232.883 161.66C232.383 161.3 231.813 161.12 231.173 161.12C230.593 161.12 230.143 161.24 229.823 161.48C229.523 161.7 229.293 162 229.133 162.38C228.993 162.76 228.913 163.2 228.893 163.7C228.873 164.18 228.863 164.67 228.863 165.17V168.35L232.673 168.17L232.823 168.29V169.46L232.673 169.61ZM248.88 182.12C248.74 182.12 248.53 182.11 248.25 182.09C247.97 182.07 247.67 182.05 247.35 182.03C247.03 182.03 246.73 182.02 246.45 182C246.17 182 245.96 182 245.82 182H245.4C245.26 182 245.04 182 244.74 182C244.46 182.02 244.16 182.03 243.84 182.03C243.54 182.05 243.24 182.07 242.94 182.09C242.66 182.11 242.45 182.12 242.31 182.12L242.28 182L242.31 181.58L242.43 181.46C242.75 181.46 243.06 181.45 243.36 181.43C243.68 181.39 243.92 181.29 244.08 181.13C244.24 180.99 244.34 180.81 244.38 180.59C244.44 180.37 244.49 180.06 244.53 179.66C244.55 179.34 244.57 179.02 244.59 178.7C244.61 178.36 244.62 177.83 244.62 177.11V173.42C244.62 173 244.62 172.65 244.62 172.37C244.62 172.07 244.61 171.81 244.59 171.59C244.59 171.37 244.58 171.17 244.56 170.99C244.56 170.81 244.55 170.62 244.53 170.42C244.49 170.2 244.43 170.01 244.35 169.85C244.27 169.67 244.2 169.55 244.14 169.49C243.94 169.25 243.69 169.11 243.39 169.07C243.09 169.01 242.78 168.98 242.46 168.98L242.34 168.86V168.44L242.46 168.35H243C243.34 168.35 243.77 168.35 244.29 168.35C244.81 168.33 245.26 168.29 245.64 168.23L246.69 168.08L246.87 168.35C246.83 168.43 246.79 168.57 246.75 168.77C246.73 168.97 246.71 169.19 246.69 169.43C246.69 169.65 246.68 169.87 246.66 170.09C246.66 170.31 246.66 170.48 246.66 170.6C246.66 170.76 246.65 170.92 246.63 171.08C246.63 171.22 246.63 171.39 246.63 171.59C246.63 171.79 246.62 172.03 246.6 172.31C246.6 172.59 246.6 172.95 246.6 173.39V176.75C246.6 177.19 246.6 177.55 246.6 177.83C246.62 178.11 246.63 178.35 246.63 178.55C246.65 178.75 246.66 178.94 246.66 179.12C246.68 179.28 246.7 179.46 246.72 179.66C246.76 180.08 246.8 180.4 246.84 180.62C246.9 180.82 247.01 180.99 247.17 181.13C247.33 181.27 247.55 181.36 247.83 181.4C248.13 181.44 248.43 181.46 248.73 181.46L248.88 181.61L248.94 182L248.88 182.12ZM243.84 163.07C243.84 162.67 243.97 162.33 244.23 162.05C244.51 161.75 244.85 161.6 245.25 161.6C245.65 161.6 245.99 161.75 246.27 162.05C246.57 162.33 246.72 162.67 246.72 163.07C246.72 163.47 246.57 163.81 246.27 164.09C245.99 164.35 245.65 164.48 245.25 164.48C244.85 164.48 244.51 164.35 244.23 164.09C243.97 163.81 243.84 163.47 243.84 163.07ZM258.791 169.61H254.891C254.891 170.91 254.881 172.11 254.861 173.21C254.861 174.31 254.861 175.28 254.861 176.12C254.861 176.94 254.851 177.6 254.831 178.1C254.831 178.6 254.831 178.91 254.831 179.03C254.831 179.81 254.981 180.33 255.281 180.59C255.581 180.85 255.931 180.98 256.331 180.98C256.671 180.98 257.061 180.92 257.501 180.8C257.961 180.66 258.331 180.51 258.611 180.35L258.881 180.56L258.611 181.4C258.151 181.72 257.631 181.95 257.051 182.09C256.491 182.25 255.991 182.33 255.551 182.33C254.531 182.33 253.811 182.05 253.391 181.49C252.971 180.93 252.761 180.21 252.761 179.33C252.761 179.15 252.771 178.78 252.791 178.22C252.811 177.66 252.831 176.96 252.851 176.12C252.871 175.28 252.891 174.31 252.911 173.21C252.931 172.11 252.941 170.91 252.941 169.61H250.781L250.661 169.46V168.89L250.781 168.77L252.941 168.35C252.941 167.65 252.921 166.94 252.881 166.22C252.861 165.48 252.831 164.76 252.791 164.06L253.001 163.88L253.421 163.85C253.581 163.83 253.841 163.79 254.201 163.73C254.561 163.67 254.811 163.6 254.951 163.52L255.221 163.64C255.161 163.92 255.111 164.25 255.071 164.63C255.031 164.99 254.991 165.38 254.951 165.8C254.931 166.22 254.911 166.65 254.891 167.09C254.891 167.53 254.891 167.95 254.891 168.35L258.791 168.17L258.941 168.29V169.46L258.791 169.61ZM274.396 173.93L273.916 174.14C272.836 174.14 271.726 174.15 270.586 174.17C269.446 174.19 268.326 174.2 267.226 174.2H263.686C263.666 174.34 263.656 174.48 263.656 174.62C263.656 174.74 263.656 174.86 263.656 174.98C263.656 175.74 263.766 176.47 263.986 177.17C264.206 177.85 264.546 178.45 265.006 178.97C265.486 179.49 266.096 179.91 266.836 180.23C267.576 180.53 268.476 180.68 269.536 180.68C270.156 180.68 270.816 180.62 271.516 180.5C272.236 180.36 272.896 180.12 273.496 179.78L273.796 179.96V180.5L273.496 180.83C273.016 181.21 272.336 181.56 271.456 181.88C270.576 182.18 269.596 182.33 268.516 182.33C267.456 182.33 266.486 182.16 265.606 181.82C264.746 181.46 263.996 180.96 263.356 180.32C262.736 179.68 262.246 178.92 261.886 178.04C261.546 177.16 261.376 176.18 261.376 175.1C261.376 174 261.556 173 261.916 172.1C262.276 171.2 262.766 170.43 263.386 169.79C264.026 169.15 264.766 168.65 265.606 168.29C266.466 167.93 267.386 167.75 268.366 167.75C268.886 167.75 269.466 167.82 270.106 167.96C270.766 168.1 271.396 168.37 271.996 168.77C272.596 169.15 273.136 169.7 273.616 170.42C274.096 171.12 274.426 172.05 274.606 173.21L274.396 173.93ZM268.396 169.1C267.756 169.1 267.176 169.21 266.656 169.43C266.156 169.63 265.706 169.91 265.306 170.27C264.926 170.61 264.606 171.02 264.346 171.5C264.106 171.96 263.936 172.45 263.836 172.97H265.006C266.086 172.97 267.136 172.96 268.156 172.94C269.176 172.9 270.246 172.85 271.366 172.79C271.626 172.77 271.796 172.7 271.876 172.58C271.976 172.46 272.026 172.32 272.026 172.16C272.026 172.04 272.016 171.93 271.996 171.83C271.976 171.73 271.946 171.63 271.906 171.53C271.686 170.77 271.276 170.18 270.676 169.76C270.076 169.32 269.316 169.1 268.396 169.1ZM277.078 168.44L277.198 168.35H277.738C278.078 168.35 278.508 168.35 279.028 168.35C279.548 168.33 279.998 168.29 280.378 168.23L281.428 168.08L281.608 168.35C281.568 168.47 281.528 168.63 281.488 168.83C281.468 169.01 281.438 169.22 281.398 169.46C281.378 169.68 281.358 169.9 281.338 170.12C281.318 170.34 281.308 170.53 281.308 170.69L281.398 170.75C281.618 170.35 281.868 169.97 282.148 169.61C282.448 169.23 282.788 168.91 283.168 168.65C283.548 168.37 283.978 168.15 284.458 167.99C284.938 167.83 285.488 167.75 286.108 167.75C286.628 167.75 287.138 167.82 287.638 167.96C288.138 168.08 288.598 168.28 289.018 168.56C289.458 168.82 289.838 169.17 290.158 169.61C290.498 170.03 290.758 170.54 290.938 171.14C291.178 170.7 291.438 170.28 291.718 169.88C292.018 169.46 292.358 169.1 292.738 168.8C293.138 168.48 293.588 168.23 294.088 168.05C294.608 167.85 295.198 167.75 295.858 167.75C296.438 167.75 296.998 167.83 297.538 167.99C298.098 168.15 298.598 168.4 299.038 168.74C299.498 169.08 299.888 169.51 300.208 170.03C300.548 170.55 300.778 171.18 300.898 171.92C300.998 172.44 301.048 172.99 301.048 173.57C301.068 174.15 301.078 174.73 301.078 175.31V179.66C301.078 180.12 301.118 180.46 301.198 180.68C301.278 180.88 301.388 181.03 301.528 181.13C301.688 181.29 301.918 181.39 302.218 181.43C302.538 181.45 302.858 181.46 303.178 181.46L303.298 181.58L303.358 182L303.298 182.12C302.938 182.08 302.548 182.05 302.128 182.03C301.728 182.01 301.318 182 300.898 182C300.158 182 299.478 182.03 298.858 182.09L298.648 181.79C298.728 181.53 298.788 181.19 298.828 180.77C298.868 180.35 298.898 179.98 298.918 179.66C298.938 179.36 298.948 178.99 298.948 178.55C298.968 178.11 298.978 177.67 298.978 177.23C298.998 176.77 299.008 176.34 299.008 175.94C299.008 175.54 299.008 175.23 299.008 175.01C299.008 174.61 298.988 174.11 298.948 173.51C298.928 172.89 298.868 172.37 298.768 171.95C298.568 171.13 298.158 170.51 297.538 170.09C296.938 169.67 296.258 169.46 295.498 169.46C294.938 169.46 294.418 169.57 293.938 169.79C293.478 169.99 293.068 170.25 292.708 170.57C292.348 170.87 292.038 171.21 291.778 171.59C291.538 171.97 291.358 172.33 291.238 172.67C291.278 173.11 291.298 173.55 291.298 173.99C291.318 174.43 291.328 174.87 291.328 175.31V179.66C291.328 180.08 291.368 180.4 291.448 180.62C291.528 180.82 291.648 180.99 291.808 181.13C291.968 181.27 292.188 181.36 292.468 181.4C292.768 181.44 293.068 181.46 293.368 181.46L293.518 181.61L293.578 182L293.518 182.12C293.378 182.12 293.168 182.11 292.888 182.09C292.608 182.07 292.308 182.05 291.988 182.03C291.668 182.03 291.368 182.02 291.088 182C290.808 182 290.598 182 290.458 182H290.038C289.898 182 289.678 182 289.378 182C289.098 182.02 288.798 182.03 288.478 182.03C288.178 182.05 287.878 182.07 287.578 182.09C287.298 182.11 287.088 182.12 286.948 182.12L286.888 182L286.948 181.58L287.068 181.46C287.388 181.46 287.698 181.45 287.998 181.43C288.318 181.39 288.558 181.29 288.718 181.13C288.878 180.99 288.978 180.81 289.018 180.59C289.058 180.37 289.098 180.06 289.138 179.66C289.158 179.36 289.168 178.99 289.168 178.55C289.188 178.11 289.198 177.67 289.198 177.23C289.218 176.77 289.228 176.34 289.228 175.94C289.248 175.54 289.258 175.23 289.258 175.01C289.258 174.81 289.258 174.58 289.258 174.32C289.258 174.04 289.248 173.76 289.228 173.48C289.208 173.2 289.178 172.93 289.138 172.67C289.118 172.41 289.078 172.17 289.018 171.95C288.798 171.13 288.388 170.51 287.788 170.09C287.188 169.67 286.508 169.46 285.748 169.46C285.088 169.46 284.488 169.61 283.948 169.91C283.408 170.19 282.938 170.54 282.538 170.96C282.158 171.36 281.858 171.79 281.638 172.25C281.438 172.69 281.338 173.07 281.338 173.39V176.75C281.338 177.19 281.338 177.55 281.338 177.83C281.358 178.11 281.368 178.35 281.368 178.55C281.388 178.75 281.398 178.94 281.398 179.12C281.418 179.28 281.438 179.46 281.458 179.66C281.498 180.08 281.538 180.4 281.578 180.62C281.638 180.82 281.748 180.99 281.908 181.13C282.068 181.27 282.288 181.36 282.568 181.4C282.868 181.44 283.168 181.46 283.468 181.46L283.618 181.61L283.678 182L283.618 182.12C283.478 182.12 283.268 182.11 282.988 182.09C282.708 182.07 282.408 182.05 282.088 182.03C281.768 182.03 281.468 182.02 281.188 182C280.908 182 280.698 182 280.558 182H280.138C279.998 182 279.778 182 279.478 182C279.198 182.02 278.898 182.03 278.578 182.03C278.278 182.05 277.978 182.07 277.678 182.09C277.398 182.11 277.188 182.12 277.048 182.12L277.018 182L277.048 181.58L277.168 181.46C277.488 181.46 277.798 181.45 278.098 181.43C278.418 181.39 278.658 181.29 278.818 181.13C278.978 180.99 279.078 180.81 279.118 180.59C279.178 180.37 279.228 180.06 279.268 179.66C279.288 179.34 279.308 179.02 279.328 178.7C279.348 178.36 279.358 177.83 279.358 177.11V173.42C279.358 173 279.358 172.65 279.358 172.37C279.358 172.07 279.348 171.81 279.328 171.59C279.328 171.37 279.318 171.17 279.298 170.99C279.298 170.81 279.288 170.62 279.268 170.42C279.228 170.2 279.168 170.01 279.088 169.85C279.008 169.67 278.938 169.55 278.878 169.49C278.678 169.25 278.428 169.11 278.128 169.07C277.828 169.01 277.518 168.98 277.198 168.98L277.078 168.86V168.44ZM312.173 174.05C313.013 174.23 313.683 174.48 314.183 174.8C314.703 175.1 315.103 175.43 315.383 175.79C315.663 176.15 315.843 176.52 315.923 176.9C316.023 177.26 316.073 177.6 316.073 177.92C316.073 178.56 315.943 179.15 315.683 179.69C315.423 180.23 315.043 180.7 314.543 181.1C314.063 181.48 313.473 181.78 312.773 182C312.073 182.22 311.283 182.33 310.403 182.33C309.423 182.33 308.503 182.22 307.643 182C306.803 181.76 306.133 181.51 305.633 181.25L305.573 180.98L306.023 177.89H306.713L306.803 178.01C306.803 178.97 307.103 179.73 307.703 180.29C308.303 180.83 309.173 181.1 310.313 181.1C310.993 181.1 311.563 181.02 312.023 180.86C312.483 180.7 312.843 180.49 313.103 180.23C313.383 179.97 313.583 179.69 313.703 179.39C313.823 179.09 313.883 178.8 313.883 178.52C313.883 178.34 313.873 178.14 313.853 177.92C313.833 177.68 313.753 177.45 313.613 177.23C313.473 176.99 313.263 176.77 312.983 176.57C312.703 176.35 312.303 176.17 311.783 176.03L308.903 175.31C308.243 175.15 307.703 174.94 307.283 174.68C306.863 174.42 306.533 174.14 306.293 173.84C306.053 173.52 305.883 173.19 305.783 172.85C305.683 172.49 305.633 172.13 305.633 171.77C305.633 171.11 305.763 170.53 306.023 170.03C306.283 169.51 306.633 169.09 307.073 168.77C307.533 168.43 308.063 168.18 308.663 168.02C309.263 167.84 309.913 167.75 310.613 167.75C311.553 167.75 312.413 167.87 313.193 168.11C313.993 168.35 314.613 168.59 315.053 168.83L315.143 169.1L314.813 171.41H314.183L314.063 171.32C314.063 170.86 313.933 170.48 313.673 170.18C313.433 169.86 313.133 169.61 312.773 169.43C312.413 169.23 312.033 169.09 311.633 169.01C311.233 168.93 310.883 168.89 310.583 168.89C309.583 168.89 308.863 169.14 308.423 169.64C307.983 170.14 307.763 170.7 307.763 171.32C307.763 171.78 307.913 172.22 308.213 172.64C308.533 173.04 309.143 173.35 310.043 173.57L312.173 174.05ZM138.469 214.79C138.529 214.57 138.569 214.24 138.589 213.8C138.629 213.36 138.679 212.95 138.739 212.57L138.709 212.48C138.449 212.84 138.139 213.19 137.779 213.53C137.419 213.87 137.019 214.18 136.579 214.46C136.159 214.72 135.699 214.93 135.199 215.09C134.719 215.25 134.209 215.33 133.669 215.33C133.049 215.33 132.499 215.22 132.019 215C131.539 214.78 131.139 214.49 130.819 214.13C130.499 213.77 130.259 213.35 130.099 212.87C129.939 212.39 129.859 211.89 129.859 211.37C129.859 210.63 130.029 209.99 130.369 209.45C130.709 208.89 131.159 208.43 131.719 208.07C132.239 207.75 132.849 207.49 133.549 207.29C134.269 207.09 134.959 206.95 135.619 206.87C136.299 206.77 136.909 206.71 137.449 206.69C137.989 206.65 138.349 206.63 138.529 206.63H138.949C138.929 205.89 138.889 205.31 138.829 204.89C138.769 204.45 138.689 204.09 138.589 203.81C138.369 203.21 137.989 202.78 137.449 202.52C136.909 202.24 136.259 202.1 135.499 202.1C135.179 202.1 134.829 202.13 134.449 202.19C134.089 202.25 133.739 202.36 133.399 202.52C133.079 202.68 132.799 202.91 132.559 203.21C132.319 203.49 132.179 203.86 132.139 204.32L132.019 204.41H131.359L131.089 202.19L131.179 202.01C131.279 201.89 131.489 201.76 131.809 201.62C132.129 201.48 132.499 201.35 132.919 201.23C133.359 201.09 133.839 200.98 134.359 200.9C134.899 200.8 135.429 200.75 135.949 200.75C136.669 200.75 137.339 200.85 137.959 201.05C138.579 201.23 139.109 201.51 139.549 201.89C140.009 202.27 140.369 202.75 140.629 203.33C140.889 203.89 141.019 204.55 141.019 205.31C141.019 206.15 141.009 206.9 140.989 207.56C140.989 208.2 140.979 208.8 140.959 209.36C140.939 209.9 140.919 210.44 140.899 210.98C140.899 211.5 140.899 212.06 140.899 212.66C140.939 213.12 140.989 213.46 141.049 213.68C141.109 213.88 141.209 214.03 141.349 214.13C141.509 214.29 141.739 214.39 142.039 214.43C142.359 214.45 142.679 214.46 142.999 214.46L143.119 214.58L143.149 215L143.119 215.12C142.759 215.08 142.369 215.05 141.949 215.03C141.529 215.01 141.119 215 140.719 215C139.959 215 139.269 215.03 138.649 215.09L138.469 214.79ZM138.469 211.55C138.529 211.45 138.589 211.33 138.649 211.19C138.729 211.05 138.779 210.88 138.799 210.68L138.949 207.68H138.679C137.879 207.68 137.079 207.73 136.279 207.83C135.479 207.91 134.759 208.08 134.119 208.34C133.499 208.6 132.989 208.96 132.589 209.42C132.189 209.88 131.989 210.47 131.989 211.19C131.989 211.95 132.209 212.56 132.649 213.02C133.089 213.46 133.659 213.68 134.359 213.68C134.779 213.68 135.199 213.61 135.619 213.47C136.039 213.33 136.429 213.15 136.789 212.93C137.169 212.71 137.499 212.48 137.779 212.24C138.079 212 138.309 211.77 138.469 211.55ZM152.032 207.05C152.872 207.23 153.542 207.48 154.042 207.8C154.562 208.1 154.962 208.43 155.242 208.79C155.522 209.15 155.702 209.52 155.782 209.9C155.882 210.26 155.932 210.6 155.932 210.92C155.932 211.56 155.802 212.15 155.542 212.69C155.282 213.23 154.902 213.7 154.402 214.1C153.922 214.48 153.332 214.78 152.632 215C151.932 215.22 151.142 215.33 150.262 215.33C149.282 215.33 148.362 215.22 147.502 215C146.662 214.76 145.992 214.51 145.492 214.25L145.432 213.98L145.882 210.89H146.572L146.662 211.01C146.662 211.97 146.962 212.73 147.562 213.29C148.162 213.83 149.032 214.1 150.172 214.1C150.852 214.1 151.422 214.02 151.882 213.86C152.342 213.7 152.702 213.49 152.962 213.23C153.242 212.97 153.442 212.69 153.562 212.39C153.682 212.09 153.742 211.8 153.742 211.52C153.742 211.34 153.732 211.14 153.712 210.92C153.692 210.68 153.612 210.45 153.472 210.23C153.332 209.99 153.122 209.77 152.842 209.57C152.562 209.35 152.162 209.17 151.642 209.03L148.762 208.31C148.102 208.15 147.562 207.94 147.142 207.68C146.722 207.42 146.392 207.14 146.152 206.84C145.912 206.52 145.742 206.19 145.642 205.85C145.542 205.49 145.492 205.13 145.492 204.77C145.492 204.11 145.622 203.53 145.882 203.03C146.142 202.51 146.492 202.09 146.932 201.77C147.392 201.43 147.922 201.18 148.522 201.02C149.122 200.84 149.772 200.75 150.472 200.75C151.412 200.75 152.272 200.87 153.052 201.11C153.852 201.35 154.472 201.59 154.912 201.83L155.002 202.1L154.672 204.41H154.042L153.922 204.32C153.922 203.86 153.792 203.48 153.532 203.18C153.292 202.86 152.992 202.61 152.632 202.43C152.272 202.23 151.892 202.09 151.492 202.01C151.092 201.93 150.742 201.89 150.442 201.89C149.442 201.89 148.722 202.14 148.282 202.64C147.842 203.14 147.622 203.7 147.622 204.32C147.622 204.78 147.772 205.22 148.072 205.64C148.392 206.04 149.002 206.35 149.902 206.57L152.032 207.05ZM165.303 221.87C165.583 221.87 165.843 221.86 166.083 221.84C166.343 221.82 166.593 221.77 166.833 221.69C167.073 221.63 167.303 221.52 167.523 221.36C167.763 221.2 168.023 220.98 168.303 220.7C168.683 220.3 169.013 219.87 169.293 219.41C169.573 218.97 169.803 218.52 169.983 218.06L170.943 215.63L168.873 210.2C168.793 210.02 168.653 209.69 168.453 209.21C168.273 208.73 168.063 208.2 167.823 207.62C167.583 207.02 167.333 206.41 167.073 205.79C166.833 205.17 166.623 204.62 166.443 204.14C166.243 203.66 166.063 203.28 165.903 203C165.703 202.68 165.473 202.43 165.213 202.25C164.973 202.07 164.643 201.96 164.223 201.92L164.043 201.77V201.35L164.163 201.23C164.503 201.27 164.863 201.31 165.243 201.35C165.623 201.39 165.973 201.41 166.293 201.41H167.463C167.783 201.41 168.163 201.39 168.603 201.35C169.063 201.31 169.493 201.27 169.893 201.23L170.013 201.35V201.71L169.893 201.83C169.453 201.87 169.083 201.99 168.783 202.19C168.503 202.37 168.363 202.64 168.363 203C168.363 203.24 168.453 203.67 168.633 204.29C168.833 204.89 169.053 205.54 169.293 206.24C169.533 206.92 169.763 207.56 169.983 208.16C170.203 208.76 170.353 209.15 170.433 209.33L171.933 213.23L173.343 209.78C173.483 209.44 173.673 208.98 173.913 208.4C174.153 207.82 174.393 207.2 174.633 206.54C174.873 205.88 175.073 205.24 175.233 204.62C175.413 203.98 175.503 203.44 175.503 203C175.503 202.56 175.343 202.27 175.023 202.13C174.703 201.97 174.343 201.87 173.943 201.83L173.823 201.71V201.35L173.943 201.23C174.723 201.35 175.453 201.41 176.133 201.41H177.363C177.703 201.41 178.023 201.39 178.323 201.35C178.643 201.31 178.993 201.27 179.373 201.23L179.493 201.35V201.77L179.343 201.92C178.983 201.96 178.703 202.06 178.503 202.22C178.323 202.38 178.123 202.64 177.903 203C177.723 203.32 177.513 203.72 177.273 204.2C177.053 204.68 176.823 205.2 176.583 205.76C176.363 206.32 176.133 206.89 175.893 207.47C175.673 208.05 175.463 208.59 175.263 209.09C175.083 209.59 174.923 210.03 174.783 210.41C174.663 210.77 174.573 211.02 174.513 211.16L171.573 218.48C171.053 219.78 170.343 220.74 169.443 221.36C168.563 222 167.603 222.45 166.563 222.71C166.363 222.75 166.183 222.77 166.023 222.77C165.863 222.79 165.683 222.8 165.483 222.8L165.243 222.74L165.183 222.02L165.303 221.87ZM188.338 200.75C189.518 200.75 190.568 200.96 191.488 201.38C192.408 201.78 193.178 202.33 193.798 203.03C194.438 203.71 194.918 204.5 195.238 205.4C195.578 206.3 195.748 207.23 195.748 208.19C195.748 209.11 195.598 210 195.298 210.86C194.998 211.72 194.538 212.48 193.918 213.14C193.298 213.8 192.528 214.33 191.608 214.73C190.688 215.13 189.618 215.33 188.398 215.33C187.138 215.33 186.038 215.12 185.098 214.7C184.158 214.28 183.378 213.73 182.758 213.05C182.158 212.37 181.708 211.6 181.408 210.74C181.108 209.86 180.958 208.96 180.958 208.04C180.958 207.06 181.128 206.13 181.468 205.25C181.808 204.37 182.288 203.6 182.908 202.94C183.548 202.26 184.318 201.73 185.218 201.35C186.138 200.95 187.178 200.75 188.338 200.75ZM188.368 214.16C189.208 214.16 189.948 213.99 190.588 213.65C191.228 213.31 191.758 212.86 192.178 212.3C192.598 211.74 192.908 211.11 193.108 210.41C193.328 209.69 193.438 208.95 193.438 208.19C193.438 207.47 193.318 206.74 193.078 206C192.858 205.26 192.528 204.6 192.088 204.02C191.648 203.42 191.108 202.94 190.468 202.58C189.828 202.2 189.088 202.01 188.248 202.01C187.368 202.01 186.608 202.19 185.968 202.55C185.348 202.89 184.828 203.34 184.408 203.9C184.008 204.46 183.708 205.1 183.508 205.82C183.308 206.54 183.208 207.26 183.208 207.98C183.208 208.72 183.318 209.46 183.538 210.2C183.778 210.92 184.118 211.58 184.558 212.18C184.998 212.76 185.538 213.24 186.178 213.62C186.818 213.98 187.548 214.16 188.368 214.16ZM210.268 212.42C209.748 213.26 209.078 213.96 208.258 214.52C207.458 215.06 206.468 215.33 205.288 215.33C204.708 215.33 204.148 215.26 203.608 215.12C203.088 215 202.598 214.79 202.138 214.49C201.698 214.19 201.318 213.79 200.998 213.29C200.678 212.79 200.448 212.16 200.308 211.4C200.208 210.88 200.158 210.34 200.158 209.78C200.178 209.2 200.178 208.62 200.158 208.04C200.158 207.78 200.148 207.43 200.128 206.99C200.128 206.53 200.128 206.07 200.128 205.61C200.128 205.13 200.128 204.69 200.128 204.29C200.128 203.89 200.128 203.6 200.128 203.42C200.128 203.2 200.078 203.01 199.978 202.85C199.878 202.67 199.798 202.54 199.738 202.46C199.538 202.24 199.288 202.11 198.988 202.07C198.688 202.01 198.378 201.98 198.058 201.98L197.968 201.86V201.44L198.058 201.35H198.598C198.938 201.35 199.368 201.35 199.888 201.35C200.408 201.33 200.858 201.29 201.238 201.23L202.288 201.08L202.468 201.35C202.428 201.43 202.398 201.58 202.378 201.8C202.358 202 202.338 202.22 202.318 202.46C202.298 202.7 202.288 202.93 202.288 203.15C202.288 203.37 202.288 203.54 202.288 203.66C202.288 204 202.278 204.38 202.258 204.8C202.258 205.2 202.248 205.61 202.228 206.03C202.228 206.45 202.218 206.85 202.198 207.23C202.198 207.61 202.198 207.93 202.198 208.19C202.198 208.63 202.208 209.13 202.228 209.69C202.268 210.23 202.338 210.7 202.438 211.1C202.638 212.04 203.048 212.74 203.668 213.2C204.288 213.66 205.008 213.89 205.828 213.89C206.448 213.89 207.018 213.77 207.538 213.53C208.058 213.27 208.508 212.96 208.888 212.6C209.288 212.24 209.608 211.86 209.848 211.46C210.108 211.04 210.278 210.66 210.358 210.32V206.42C210.358 206 210.348 205.65 210.328 205.37C210.328 205.07 210.318 204.81 210.298 204.59C210.298 204.37 210.288 204.17 210.268 203.99C210.268 203.81 210.258 203.62 210.238 203.42C210.198 203.2 210.138 203.01 210.058 202.85C209.998 202.67 209.938 202.55 209.878 202.49C209.678 202.25 209.428 202.11 209.128 202.07C208.828 202.01 208.518 201.98 208.198 201.98L208.078 201.86V201.44L208.198 201.35H208.738C209.078 201.35 209.508 201.35 210.028 201.35C210.548 201.33 210.988 201.29 211.348 201.23L212.398 201.08L212.578 201.35C212.538 201.43 212.508 201.58 212.488 201.8C212.468 202 212.448 202.22 212.428 202.46C212.408 202.7 212.398 202.93 212.398 203.15C212.398 203.37 212.398 203.54 212.398 203.66C212.398 203.82 212.388 203.97 212.368 204.11C212.368 204.25 212.368 204.42 212.368 204.62C212.368 204.82 212.358 205.06 212.338 205.34C212.338 205.6 212.338 205.95 212.338 206.39V209.75C212.338 210.19 212.338 210.55 212.338 210.83C212.358 211.11 212.368 211.35 212.368 211.55C212.388 211.75 212.398 211.94 212.398 212.12C212.418 212.28 212.428 212.46 212.428 212.66C212.468 213.12 212.518 213.46 212.578 213.68C212.638 213.88 212.738 214.03 212.878 214.13C213.038 214.29 213.268 214.39 213.568 214.43C213.888 214.45 214.208 214.46 214.528 214.46L214.648 214.58L214.708 215L214.648 215.12C214.288 215.08 213.898 215.05 213.478 215.03C213.058 215.01 212.648 215 212.248 215C211.488 215 210.798 215.03 210.178 215.09L209.998 214.79C210.058 214.53 210.118 214.19 210.178 213.77C210.258 213.35 210.318 212.92 210.358 212.48L210.268 212.42ZM231.264 207.05C232.104 207.23 232.774 207.48 233.274 207.8C233.794 208.1 234.194 208.43 234.474 208.79C234.754 209.15 234.934 209.52 235.014 209.9C235.114 210.26 235.164 210.6 235.164 210.92C235.164 211.56 235.034 212.15 234.774 212.69C234.514 213.23 234.134 213.7 233.634 214.1C233.154 214.48 232.564 214.78 231.864 215C231.164 215.22 230.374 215.33 229.494 215.33C228.514 215.33 227.594 215.22 226.734 215C225.894 214.76 225.224 214.51 224.724 214.25L224.664 213.98L225.114 210.89H225.804L225.894 211.01C225.894 211.97 226.194 212.73 226.794 213.29C227.394 213.83 228.264 214.1 229.404 214.1C230.084 214.1 230.654 214.02 231.114 213.86C231.574 213.7 231.934 213.49 232.194 213.23C232.474 212.97 232.674 212.69 232.794 212.39C232.914 212.09 232.974 211.8 232.974 211.52C232.974 211.34 232.964 211.14 232.944 210.92C232.924 210.68 232.844 210.45 232.704 210.23C232.564 209.99 232.354 209.77 232.074 209.57C231.794 209.35 231.394 209.17 230.874 209.03L227.994 208.31C227.334 208.15 226.794 207.94 226.374 207.68C225.954 207.42 225.624 207.14 225.384 206.84C225.144 206.52 224.974 206.19 224.874 205.85C224.774 205.49 224.724 205.13 224.724 204.77C224.724 204.11 224.854 203.53 225.114 203.03C225.374 202.51 225.724 202.09 226.164 201.77C226.624 201.43 227.154 201.18 227.754 201.02C228.354 200.84 229.004 200.75 229.704 200.75C230.644 200.75 231.504 200.87 232.284 201.11C233.084 201.35 233.704 201.59 234.144 201.83L234.234 202.1L233.904 204.41H233.274L233.154 204.32C233.154 203.86 233.024 203.48 232.764 203.18C232.524 202.86 232.224 202.61 231.864 202.43C231.504 202.23 231.124 202.09 230.724 202.01C230.324 201.93 229.974 201.89 229.674 201.89C228.674 201.89 227.954 202.14 227.514 202.64C227.074 203.14 226.854 203.7 226.854 204.32C226.854 204.78 227.004 205.22 227.304 205.64C227.624 206.04 228.234 206.35 229.134 206.57L231.264 207.05ZM249.397 214.79C249.477 214.53 249.537 214.19 249.577 213.77C249.617 213.35 249.647 212.98 249.667 212.66C249.707 211.82 249.737 211 249.757 210.2C249.777 209.38 249.787 208.7 249.787 208.16C249.787 207.7 249.767 207.2 249.727 206.66C249.707 206.12 249.647 205.65 249.547 205.25C249.347 204.31 248.937 203.61 248.317 203.15C247.697 202.69 246.977 202.46 246.157 202.46C245.497 202.46 244.877 202.61 244.297 202.91C243.737 203.19 243.257 203.54 242.857 203.96C242.457 204.36 242.137 204.79 241.897 205.25C241.677 205.69 241.567 206.06 241.567 206.36C241.567 207.44 241.567 208.31 241.567 208.97C241.567 209.61 241.567 210.15 241.567 210.59C241.587 211.03 241.597 211.4 241.597 211.7C241.617 211.98 241.647 212.3 241.687 212.66C241.727 213.08 241.767 213.4 241.807 213.62C241.867 213.82 241.977 213.99 242.137 214.13C242.297 214.27 242.517 214.36 242.797 214.4C243.097 214.44 243.397 214.46 243.697 214.46L243.847 214.61L243.907 215L243.847 215.12C243.707 215.12 243.497 215.11 243.217 215.09C242.937 215.07 242.637 215.05 242.317 215.03C241.997 215.03 241.697 215.02 241.417 215C241.137 215 240.927 215 240.787 215H240.367C240.227 215 240.007 215 239.707 215C239.427 215.02 239.127 215.03 238.807 215.03C238.507 215.05 238.207 215.07 237.907 215.09C237.627 215.11 237.417 215.12 237.277 215.12L237.247 215L237.277 214.58L237.397 214.46C237.717 214.46 238.027 214.45 238.327 214.43C238.647 214.39 238.887 214.29 239.047 214.13C239.207 213.99 239.307 213.81 239.347 213.59C239.407 213.37 239.457 213.06 239.497 212.66C239.517 212.4 239.527 212.14 239.527 211.88C239.547 211.62 239.557 211.32 239.557 210.98C239.577 210.62 239.587 210.21 239.587 209.75C239.587 209.27 239.587 208.68 239.587 207.98V200.78C239.587 199.96 239.587 199.27 239.587 198.71C239.587 198.13 239.577 197.63 239.557 197.21C239.557 196.79 239.547 196.42 239.527 196.1C239.527 195.78 239.517 195.46 239.497 195.14C239.477 194.92 239.417 194.73 239.317 194.57C239.237 194.41 239.167 194.29 239.107 194.21C238.907 193.99 238.657 193.85 238.357 193.79C238.057 193.73 237.747 193.7 237.427 193.7L237.307 193.58V193.19L237.427 193.07H237.967C238.307 193.07 238.737 193.07 239.257 193.07C239.777 193.05 240.227 193.01 240.607 192.95L241.657 192.8L241.837 193.07C241.797 193.15 241.767 193.3 241.747 193.52C241.727 193.72 241.707 193.94 241.687 194.18C241.667 194.42 241.657 194.65 241.657 194.87C241.657 195.09 241.657 195.26 241.657 195.38C241.657 196.02 241.637 196.79 241.597 197.69C241.577 198.57 241.567 199.58 241.567 200.72C241.567 201.56 241.557 202.22 241.537 202.7C241.537 203.18 241.517 203.56 241.477 203.84L241.567 203.9C242.067 203.02 242.737 202.28 243.577 201.68C244.417 201.06 245.457 200.75 246.697 200.75C247.257 200.75 247.817 200.83 248.377 200.99C248.957 201.15 249.477 201.4 249.937 201.74C250.397 202.08 250.787 202.51 251.107 203.03C251.427 203.55 251.627 204.17 251.707 204.89C251.767 205.41 251.797 206.01 251.797 206.69C251.817 207.35 251.827 207.89 251.827 208.31V212.54C251.827 213 251.867 213.36 251.947 213.62C252.047 213.86 252.157 214.03 252.277 214.13C252.457 214.29 252.697 214.39 252.997 214.43C253.317 214.45 253.637 214.46 253.957 214.46L254.047 214.58L254.107 215L254.047 215.12C253.707 215.08 253.327 215.05 252.907 215.03C252.487 215.01 252.077 215 251.677 215C250.917 215 250.227 215.03 249.607 215.09L249.397 214.79ZM263.578 200.75C264.758 200.75 265.808 200.96 266.728 201.38C267.648 201.78 268.418 202.33 269.038 203.03C269.678 203.71 270.158 204.5 270.478 205.4C270.818 206.3 270.988 207.23 270.988 208.19C270.988 209.11 270.838 210 270.538 210.86C270.238 211.72 269.778 212.48 269.158 213.14C268.538 213.8 267.768 214.33 266.848 214.73C265.928 215.13 264.858 215.33 263.638 215.33C262.378 215.33 261.278 215.12 260.338 214.7C259.398 214.28 258.618 213.73 257.998 213.05C257.398 212.37 256.948 211.6 256.648 210.74C256.348 209.86 256.198 208.96 256.198 208.04C256.198 207.06 256.368 206.13 256.708 205.25C257.048 204.37 257.528 203.6 258.148 202.94C258.788 202.26 259.558 201.73 260.458 201.35C261.378 200.95 262.418 200.75 263.578 200.75ZM263.608 214.16C264.448 214.16 265.188 213.99 265.828 213.65C266.468 213.31 266.998 212.86 267.418 212.3C267.838 211.74 268.148 211.11 268.348 210.41C268.568 209.69 268.678 208.95 268.678 208.19C268.678 207.47 268.558 206.74 268.318 206C268.098 205.26 267.768 204.6 267.328 204.02C266.888 203.42 266.348 202.94 265.708 202.58C265.068 202.2 264.328 202.01 263.488 202.01C262.608 202.01 261.848 202.19 261.208 202.55C260.588 202.89 260.068 203.34 259.648 203.9C259.248 204.46 258.948 205.1 258.748 205.82C258.548 206.54 258.448 207.26 258.448 207.98C258.448 208.72 258.558 209.46 258.778 210.2C259.018 210.92 259.358 211.58 259.798 212.18C260.238 212.76 260.778 213.24 261.418 213.62C262.058 213.98 262.788 214.16 263.608 214.16ZM277.678 203.48C278.258 202.66 278.958 202 279.778 201.5C280.618 201 281.548 200.75 282.568 200.75C283.708 200.75 284.688 200.95 285.508 201.35C286.348 201.75 287.038 202.28 287.578 202.94C288.118 203.6 288.518 204.36 288.778 205.22C289.038 206.06 289.168 206.94 289.168 207.86C289.168 209.22 288.958 210.38 288.538 211.34C288.118 212.28 287.578 213.05 286.918 213.65C286.278 214.23 285.568 214.66 284.788 214.94C284.028 215.2 283.298 215.33 282.598 215.33C281.638 215.33 280.718 215.11 279.838 214.67C278.958 214.21 278.208 213.47 277.588 212.45L277.498 212.51C277.518 212.79 277.538 213.12 277.558 213.5C277.578 213.88 277.588 214.43 277.588 215.15C277.588 215.97 277.588 216.63 277.588 217.13C277.588 217.65 277.588 218.09 277.588 218.45C277.608 218.81 277.618 219.13 277.618 219.41C277.638 219.71 277.668 220.03 277.708 220.37C277.748 220.77 277.788 221.08 277.828 221.3C277.888 221.52 277.998 221.69 278.158 221.81C278.318 221.97 278.538 222.07 278.818 222.11C279.118 222.15 279.418 222.17 279.718 222.17L279.868 222.29L279.928 222.71L279.868 222.8C279.728 222.8 279.518 222.79 279.238 222.77C278.958 222.77 278.658 222.76 278.338 222.74C278.018 222.74 277.718 222.73 277.438 222.71C277.158 222.71 276.948 222.71 276.808 222.71H276.388C276.248 222.71 276.028 222.71 275.728 222.71C275.448 222.73 275.148 222.74 274.828 222.74C274.528 222.76 274.228 222.77 273.928 222.77C273.648 222.79 273.438 222.8 273.298 222.8L273.268 222.71L273.298 222.26L273.418 222.17C273.738 222.17 274.048 222.15 274.348 222.11C274.648 222.07 274.888 221.97 275.068 221.81C275.228 221.67 275.328 221.49 275.368 221.27C275.428 221.07 275.478 220.77 275.518 220.37C275.538 220.11 275.548 219.85 275.548 219.59C275.568 219.35 275.578 219.06 275.578 218.72C275.598 218.38 275.608 217.98 275.608 217.52C275.608 217.06 275.608 216.5 275.608 215.84V208.85C275.608 208.05 275.608 207.38 275.608 206.84C275.608 206.3 275.598 205.83 275.578 205.43C275.578 205.03 275.568 204.68 275.548 204.38C275.548 204.06 275.538 203.74 275.518 203.42C275.498 203.2 275.438 203.01 275.338 202.85C275.258 202.67 275.188 202.55 275.128 202.49C274.928 202.25 274.678 202.11 274.378 202.07C274.078 202.01 273.768 201.98 273.448 201.98L273.328 201.86V201.44L273.448 201.35H273.988C274.328 201.35 274.758 201.35 275.278 201.35C275.798 201.33 276.248 201.29 276.628 201.23L277.678 201.08L277.858 201.35C277.818 201.43 277.778 201.56 277.738 201.74C277.718 201.9 277.688 202.09 277.648 202.31C277.628 202.51 277.608 202.72 277.588 202.94C277.588 203.14 277.588 203.31 277.588 203.45L277.678 203.48ZM286.888 207.92C286.888 207.24 286.798 206.57 286.618 205.91C286.438 205.25 286.158 204.67 285.778 204.17C285.418 203.65 284.958 203.24 284.398 202.94C283.838 202.62 283.178 202.46 282.418 202.46C281.658 202.46 280.988 202.6 280.408 202.88C279.828 203.16 279.328 203.51 278.908 203.93C278.508 204.33 278.188 204.75 277.948 205.19C277.728 205.63 277.608 206.01 277.588 206.33V209.63C277.648 209.95 277.778 210.34 277.978 210.8C278.178 211.26 278.468 211.71 278.848 212.15C279.248 212.57 279.738 212.93 280.318 213.23C280.898 213.53 281.578 213.68 282.358 213.68C283.138 213.68 283.808 213.52 284.368 213.2C284.948 212.86 285.418 212.42 285.778 211.88C286.158 211.34 286.438 210.73 286.618 210.05C286.798 209.35 286.888 208.64 286.888 207.92ZM295.938 194.51C295.938 194.69 295.928 194.86 295.908 195.02C295.908 195.16 295.908 195.28 295.908 195.38C295.888 195.6 295.868 195.82 295.848 196.04C295.828 196.26 295.798 196.56 295.758 196.94C295.738 197.3 295.708 197.79 295.668 198.41C295.628 199.01 295.578 199.81 295.518 200.81C295.478 201.81 295.428 203.05 295.368 204.53C295.328 205.99 295.288 207.76 295.248 209.84L295.098 210.05L294.048 210.53L293.868 210.41C293.828 208.43 293.778 206.72 293.718 205.28C293.678 203.82 293.638 202.58 293.598 201.56C293.558 200.52 293.518 199.66 293.478 198.98C293.438 198.28 293.398 197.71 293.358 197.27C293.318 196.81 293.288 196.45 293.268 196.19C293.248 195.91 293.228 195.67 293.208 195.47L293.328 195.2L295.788 194.42L295.938 194.51ZM293.148 213.95C293.148 213.57 293.278 213.24 293.538 212.96C293.818 212.66 294.158 212.51 294.558 212.51C294.918 212.51 295.238 212.66 295.518 212.96C295.818 213.24 295.968 213.57 295.968 213.95C295.968 214.33 295.818 214.66 295.518 214.94C295.238 215.2 294.918 215.33 294.558 215.33C294.158 215.33 293.818 215.2 293.538 214.94C293.278 214.66 293.148 214.33 293.148 213.95Z" fill="#1B1D1C"/>
<g filter="url(#filter0_d_79_6322)">
<rect x="35" y="668" width="357" height="60" rx="10" fill="#039855" shape-rendering="crispEdges"/>
<path d="M179.838 693.3V696.8H184.538V699.02H179.838V702.72H185.138V705H177.038V691.02H185.138V693.3H179.838ZM186.963 699.42C186.963 698.3 187.183 697.307 187.623 696.44C188.076 695.573 188.689 694.907 189.463 694.44C190.236 693.973 191.096 693.74 192.043 693.74C192.763 693.74 193.449 693.9 194.103 694.22C194.756 694.527 195.276 694.94 195.663 695.46V690.2H198.503V705H195.663V703.36C195.316 703.907 194.829 704.347 194.203 704.68C193.576 705.013 192.849 705.18 192.023 705.18C191.089 705.18 190.236 704.94 189.463 704.46C188.689 703.98 188.076 703.307 187.623 702.44C187.183 701.56 186.963 700.553 186.963 699.42ZM195.683 699.46C195.683 698.78 195.549 698.2 195.283 697.72C195.016 697.227 194.656 696.853 194.203 696.6C193.749 696.333 193.263 696.2 192.743 696.2C192.223 696.2 191.743 696.327 191.303 696.58C190.863 696.833 190.503 697.207 190.223 697.7C189.956 698.18 189.823 698.753 189.823 699.42C189.823 700.087 189.956 700.673 190.223 701.18C190.503 701.673 190.863 702.053 191.303 702.32C191.756 702.587 192.236 702.72 192.743 702.72C193.263 702.72 193.749 702.593 194.203 702.34C194.656 702.073 195.016 701.7 195.283 701.22C195.549 700.727 195.683 700.14 195.683 699.46ZM202.657 692.6C202.164 692.6 201.751 692.447 201.417 692.14C201.097 691.82 200.937 691.427 200.937 690.96C200.937 690.493 201.097 690.107 201.417 689.8C201.751 689.48 202.164 689.32 202.657 689.32C203.151 689.32 203.557 689.48 203.877 689.8C204.211 690.107 204.377 690.493 204.377 690.96C204.377 691.427 204.211 691.82 203.877 692.14C203.557 692.447 203.151 692.6 202.657 692.6ZM204.037 693.92V705H201.237V693.92H204.037ZM210.064 696.22V701.58C210.064 701.953 210.15 702.227 210.324 702.4C210.51 702.56 210.817 702.64 211.244 702.64H212.544V705H210.784C208.424 705 207.244 703.853 207.244 701.56V696.22H205.924V693.92H207.244V691.18H210.064V693.92H212.544V696.22H210.064ZM222.123 702.78H226.723V705H219.323V691.04H222.123V702.78ZM229.923 692.6C229.43 692.6 229.016 692.447 228.683 692.14C228.363 691.82 228.203 691.427 228.203 690.96C228.203 690.493 228.363 690.107 228.683 689.8C229.016 689.48 229.43 689.32 229.923 689.32C230.416 689.32 230.823 689.48 231.143 689.8C231.476 690.107 231.643 690.493 231.643 690.96C231.643 691.427 231.476 691.82 231.143 692.14C230.823 692.447 230.416 692.6 229.923 692.6ZM231.303 693.92V705H228.503V693.92H231.303ZM238.309 705.18C237.403 705.18 236.589 705.02 235.869 704.7C235.149 704.367 234.576 703.92 234.149 703.36C233.736 702.8 233.509 702.18 233.469 701.5H236.289C236.343 701.927 236.549 702.28 236.909 702.56C237.283 702.84 237.743 702.98 238.289 702.98C238.823 702.98 239.236 702.873 239.529 702.66C239.836 702.447 239.989 702.173 239.989 701.84C239.989 701.48 239.803 701.213 239.429 701.04C239.069 700.853 238.489 700.653 237.689 700.44C236.863 700.24 236.183 700.033 235.649 699.82C235.129 699.607 234.676 699.28 234.289 698.84C233.916 698.4 233.729 697.807 233.729 697.06C233.729 696.447 233.903 695.887 234.249 695.38C234.609 694.873 235.116 694.473 235.769 694.18C236.436 693.887 237.216 693.74 238.109 693.74C239.429 693.74 240.483 694.073 241.269 694.74C242.056 695.393 242.489 696.28 242.569 697.4H239.889C239.849 696.96 239.663 696.613 239.329 696.36C239.009 696.093 238.576 695.96 238.029 695.96C237.523 695.96 237.129 696.053 236.849 696.24C236.583 696.427 236.449 696.687 236.449 697.02C236.449 697.393 236.636 697.68 237.009 697.88C237.383 698.067 237.963 698.26 238.749 698.46C239.549 698.66 240.209 698.867 240.729 699.08C241.249 699.293 241.696 699.627 242.069 700.08C242.456 700.52 242.656 701.107 242.669 701.84C242.669 702.48 242.489 703.053 242.129 703.56C241.783 704.067 241.276 704.467 240.609 704.76C239.956 705.04 239.189 705.18 238.309 705.18ZM248.228 696.22V701.58C248.228 701.953 248.315 702.227 248.488 702.4C248.675 702.56 248.981 702.64 249.408 702.64H250.708V705H248.948C246.588 705 245.408 703.853 245.408 701.56V696.22H244.088V693.92H245.408V691.18H248.228V693.92H250.708V696.22H248.228Z" fill="white"/>
</g>
<g filter="url(#filter1_d_79_6322)">
<rect x="35" y="277" width="357" height="60" rx="10" fill="#E97B2C" fill-opacity="0.85" shape-rendering="crispEdges"/>
</g>
<g filter="url(#filter2_d_79_6322)">
<path d="M48.9344 300.6V297.504H54.7184V315H51.2624V300.6H48.9344ZM59.9097 315.168C59.3017 315.168 58.7977 314.984 58.3977 314.616C58.0137 314.232 57.8217 313.76 57.8217 313.2C57.8217 312.64 58.0137 312.176 58.3977 311.808C58.7977 311.424 59.3017 311.232 59.9097 311.232C60.5017 311.232 60.9897 311.424 61.3737 311.808C61.7577 312.176 61.9497 312.64 61.9497 313.2C61.9497 313.76 61.7577 314.232 61.3737 314.616C60.9897 314.984 60.5017 315.168 59.9097 315.168ZM90.92 298.248V315H87.56V304.104L83.072 315H80.528L76.016 304.104V315H72.656V298.248H76.472L81.8 310.704L87.128 298.248H90.92ZM95.9459 300.12C95.3539 300.12 94.8579 299.936 94.4579 299.568C94.0739 299.184 93.8819 298.712 93.8819 298.152C93.8819 297.592 94.0739 297.128 94.4579 296.76C94.8579 296.376 95.3539 296.184 95.9459 296.184C96.5379 296.184 97.0259 296.376 97.4099 296.76C97.8099 297.128 98.0099 297.592 98.0099 298.152C98.0099 298.712 97.8099 299.184 97.4099 299.568C97.0259 299.936 96.5379 300.12 95.9459 300.12ZM97.6019 301.704V315H94.2419V301.704H97.6019ZM104.282 297.24V315H100.922V297.24H104.282ZM115.473 315L110.961 309.336V315H107.601V297.24H110.961V307.344L115.425 301.704H119.793L113.937 308.376L119.841 315H115.473Z" fill="white"/>
</g>
<g filter="url(#filter3_d_79_6322)">
<rect x="35" y="744" width="357" height="60" rx="10" fill="#039855" shape-rendering="crispEdges"/>
<path d="M129.818 767.04V769.3H123.998V772.88H128.458V775.1H123.998V781H121.198V767.04H129.818ZM133.224 768.6C132.73 768.6 132.317 768.447 131.984 768.14C131.664 767.82 131.504 767.427 131.504 766.96C131.504 766.493 131.664 766.107 131.984 765.8C132.317 765.48 132.73 765.32 133.224 765.32C133.717 765.32 134.124 765.48 134.444 765.8C134.777 766.107 134.944 766.493 134.944 766.96C134.944 767.427 134.777 767.82 134.444 768.14C134.124 768.447 133.717 768.6 133.224 768.6ZM134.604 769.92V781H131.804V769.92H134.604ZM143.51 769.76C144.83 769.76 145.897 770.18 146.71 771.02C147.524 771.847 147.93 773.007 147.93 774.5V781H145.13V774.88C145.13 774 144.91 773.327 144.47 772.86C144.03 772.38 143.43 772.14 142.67 772.14C141.897 772.14 141.284 772.38 140.83 772.86C140.39 773.327 140.17 774 140.17 774.88V781H137.37V769.92H140.17V771.3C140.544 770.82 141.017 770.447 141.59 770.18C142.177 769.9 142.817 769.76 143.51 769.76ZM152.013 768.6C151.52 768.6 151.106 768.447 150.773 768.14C150.453 767.82 150.293 767.427 150.293 766.96C150.293 766.493 150.453 766.107 150.773 765.8C151.106 765.48 151.52 765.32 152.013 765.32C152.506 765.32 152.913 765.48 153.233 765.8C153.566 766.107 153.733 766.493 153.733 766.96C153.733 767.427 153.566 767.82 153.233 768.14C152.913 768.447 152.506 768.6 152.013 768.6ZM153.393 769.92V781H150.593V769.92H153.393ZM160.399 781.18C159.493 781.18 158.679 781.02 157.959 780.7C157.239 780.367 156.666 779.92 156.239 779.36C155.826 778.8 155.599 778.18 155.559 777.5H158.379C158.433 777.927 158.639 778.28 158.999 778.56C159.373 778.84 159.833 778.98 160.379 778.98C160.913 778.98 161.326 778.873 161.619 778.66C161.926 778.447 162.079 778.173 162.079 777.84C162.079 777.48 161.893 777.213 161.519 777.04C161.159 776.853 160.579 776.653 159.779 776.44C158.953 776.24 158.273 776.033 157.739 775.82C157.219 775.607 156.766 775.28 156.379 774.84C156.006 774.4 155.819 773.807 155.819 773.06C155.819 772.447 155.993 771.887 156.339 771.38C156.699 770.873 157.206 770.473 157.859 770.18C158.526 769.887 159.306 769.74 160.199 769.74C161.519 769.74 162.573 770.073 163.359 770.74C164.146 771.393 164.579 772.28 164.659 773.4H161.979C161.939 772.96 161.753 772.613 161.419 772.36C161.099 772.093 160.666 771.96 160.119 771.96C159.613 771.96 159.219 772.053 158.939 772.24C158.673 772.427 158.539 772.687 158.539 773.02C158.539 773.393 158.726 773.68 159.099 773.88C159.473 774.067 160.053 774.26 160.839 774.46C161.639 774.66 162.299 774.867 162.819 775.08C163.339 775.293 163.786 775.627 164.159 776.08C164.546 776.52 164.746 777.107 164.759 777.84C164.759 778.48 164.579 779.053 164.219 779.56C163.873 780.067 163.366 780.467 162.699 780.76C162.046 781.04 161.279 781.18 160.399 781.18ZM173.298 769.76C174.138 769.76 174.884 769.947 175.538 770.32C176.191 770.68 176.698 771.22 177.058 771.94C177.431 772.647 177.618 773.5 177.618 774.5V781H174.818V774.88C174.818 774 174.598 773.327 174.158 772.86C173.718 772.38 173.118 772.14 172.358 772.14C171.584 772.14 170.971 772.38 170.518 772.86C170.078 773.327 169.858 774 169.858 774.88V781H167.058V766.2H169.858V771.3C170.218 770.82 170.698 770.447 171.298 770.18C171.898 769.9 172.564 769.76 173.298 769.76ZM190.58 775.22C190.58 775.62 190.554 775.98 190.5 776.3H182.4C182.467 777.1 182.747 777.727 183.24 778.18C183.734 778.633 184.34 778.86 185.06 778.86C186.1 778.86 186.84 778.413 187.28 777.52H190.3C189.98 778.587 189.367 779.467 188.46 780.16C187.554 780.84 186.44 781.18 185.12 781.18C184.054 781.18 183.094 780.947 182.24 780.48C181.4 780 180.74 779.327 180.26 778.46C179.794 777.593 179.56 776.593 179.56 775.46C179.56 774.313 179.794 773.307 180.26 772.44C180.727 771.573 181.38 770.907 182.22 770.44C183.06 769.973 184.027 769.74 185.12 769.74C186.174 769.74 187.114 769.967 187.94 770.42C188.78 770.873 189.427 771.52 189.88 772.36C190.347 773.187 190.58 774.14 190.58 775.22ZM187.68 774.42C187.667 773.7 187.407 773.127 186.9 772.7C186.394 772.26 185.774 772.04 185.04 772.04C184.347 772.04 183.76 772.253 183.28 772.68C182.814 773.093 182.527 773.673 182.42 774.42H187.68ZM191.904 775.42C191.904 774.3 192.124 773.307 192.564 772.44C193.017 771.573 193.631 770.907 194.404 770.44C195.177 769.973 196.037 769.74 196.984 769.74C197.704 769.74 198.391 769.9 199.044 770.22C199.697 770.527 200.217 770.94 200.604 771.46V766.2H203.444V781H200.604V779.36C200.257 779.907 199.771 780.347 199.144 780.68C198.517 781.013 197.791 781.18 196.964 781.18C196.031 781.18 195.177 780.94 194.404 780.46C193.631 779.98 193.017 779.307 192.564 778.44C192.124 777.56 191.904 776.553 191.904 775.42ZM200.624 775.46C200.624 774.78 200.491 774.2 200.224 773.72C199.957 773.227 199.597 772.853 199.144 772.6C198.691 772.333 198.204 772.2 197.684 772.2C197.164 772.2 196.684 772.327 196.244 772.58C195.804 772.833 195.444 773.207 195.164 773.7C194.897 774.18 194.764 774.753 194.764 775.42C194.764 776.087 194.897 776.673 195.164 777.18C195.444 777.673 195.804 778.053 196.244 778.32C196.697 778.587 197.177 778.72 197.684 778.72C198.204 778.72 198.691 778.593 199.144 778.34C199.597 778.073 199.957 777.7 200.224 777.22C200.491 776.727 200.624 776.14 200.624 775.46ZM215.764 781.14C214.791 781.14 213.911 780.973 213.124 780.64C212.351 780.307 211.738 779.827 211.284 779.2C210.831 778.573 210.598 777.833 210.584 776.98H213.584C213.624 777.553 213.824 778.007 214.184 778.34C214.558 778.673 215.064 778.84 215.704 778.84C216.358 778.84 216.871 778.687 217.244 778.38C217.618 778.06 217.804 777.647 217.804 777.14C217.804 776.727 217.678 776.387 217.424 776.12C217.171 775.853 216.851 775.647 216.464 775.5C216.091 775.34 215.571 775.167 214.904 774.98C213.998 774.713 213.258 774.453 212.684 774.2C212.124 773.933 211.638 773.54 211.224 773.02C210.824 772.487 210.624 771.78 210.624 770.9C210.624 770.073 210.831 769.353 211.244 768.74C211.658 768.127 212.238 767.66 212.984 767.34C213.731 767.007 214.584 766.84 215.544 766.84C216.984 766.84 218.151 767.193 219.044 767.9C219.951 768.593 220.451 769.567 220.544 770.82H217.464C217.438 770.34 217.231 769.947 216.844 769.64C216.471 769.32 215.971 769.16 215.344 769.16C214.798 769.16 214.358 769.3 214.024 769.58C213.704 769.86 213.544 770.267 213.544 770.8C213.544 771.173 213.664 771.487 213.904 771.74C214.158 771.98 214.464 772.18 214.824 772.34C215.198 772.487 215.718 772.66 216.384 772.86C217.291 773.127 218.031 773.393 218.604 773.66C219.178 773.927 219.671 774.327 220.084 774.86C220.498 775.393 220.704 776.093 220.704 776.96C220.704 777.707 220.511 778.4 220.124 779.04C219.738 779.68 219.171 780.193 218.424 780.58C217.678 780.953 216.791 781.14 215.764 781.14ZM229.372 769.76C230.212 769.76 230.959 769.947 231.612 770.32C232.265 770.68 232.772 771.22 233.132 771.94C233.505 772.647 233.692 773.5 233.692 774.5V781H230.892V774.88C230.892 774 230.672 773.327 230.232 772.86C229.792 772.38 229.192 772.14 228.432 772.14C227.659 772.14 227.045 772.38 226.592 772.86C226.152 773.327 225.932 774 225.932 774.88V781H223.132V766.2H225.932V771.3C226.292 770.82 226.772 770.447 227.372 770.18C227.972 769.9 228.639 769.76 229.372 769.76ZM241.275 781.18C240.208 781.18 239.248 780.947 238.395 780.48C237.541 780 236.868 779.327 236.375 778.46C235.895 777.593 235.655 776.593 235.655 775.46C235.655 774.327 235.901 773.327 236.395 772.46C236.901 771.593 237.588 770.927 238.455 770.46C239.321 769.98 240.288 769.74 241.355 769.74C242.421 769.74 243.388 769.98 244.255 770.46C245.121 770.927 245.801 771.593 246.295 772.46C246.801 773.327 247.055 774.327 247.055 775.46C247.055 776.593 246.795 777.593 246.275 778.46C245.768 779.327 245.075 780 244.195 780.48C243.328 780.947 242.355 781.18 241.275 781.18ZM241.275 778.74C241.781 778.74 242.255 778.62 242.695 778.38C243.148 778.127 243.508 777.753 243.775 777.26C244.041 776.767 244.175 776.167 244.175 775.46C244.175 774.407 243.895 773.6 243.335 773.04C242.788 772.467 242.115 772.18 241.315 772.18C240.515 772.18 239.841 772.467 239.295 773.04C238.761 773.6 238.495 774.407 238.495 775.46C238.495 776.513 238.755 777.327 239.275 777.9C239.808 778.46 240.475 778.74 241.275 778.74ZM251.909 771.52C252.269 771.013 252.762 770.593 253.389 770.26C254.029 769.913 254.755 769.74 255.569 769.74C256.515 769.74 257.369 769.973 258.129 770.44C258.902 770.907 259.509 771.573 259.949 772.44C260.402 773.293 260.629 774.287 260.629 775.42C260.629 776.553 260.402 777.56 259.949 778.44C259.509 779.307 258.902 779.98 258.129 780.46C257.369 780.94 256.515 781.18 255.569 781.18C254.755 781.18 254.035 781.013 253.409 780.68C252.795 780.347 252.295 779.927 251.909 779.42V786.28H249.109V769.92H251.909V771.52ZM257.769 775.42C257.769 774.753 257.629 774.18 257.349 773.7C257.082 773.207 256.722 772.833 256.269 772.58C255.829 772.327 255.349 772.2 254.829 772.2C254.322 772.2 253.842 772.333 253.389 772.6C252.949 772.853 252.589 773.227 252.309 773.72C252.042 774.213 251.909 774.793 251.909 775.46C251.909 776.127 252.042 776.707 252.309 777.2C252.589 777.693 252.949 778.073 253.389 778.34C253.842 778.593 254.322 778.72 254.829 778.72C255.349 778.72 255.829 778.587 256.269 778.32C256.722 778.053 257.082 777.673 257.349 777.18C257.629 776.687 257.769 776.1 257.769 775.42ZM265.463 771.52C265.823 771.013 266.317 770.593 266.943 770.26C267.583 769.913 268.31 769.74 269.123 769.74C270.07 769.74 270.923 769.973 271.683 770.44C272.457 770.907 273.063 771.573 273.503 772.44C273.957 773.293 274.183 774.287 274.183 775.42C274.183 776.553 273.957 777.56 273.503 778.44C273.063 779.307 272.457 779.98 271.683 780.46C270.923 780.94 270.07 781.18 269.123 781.18C268.31 781.18 267.59 781.013 266.963 780.68C266.35 780.347 265.85 779.927 265.463 779.42V786.28H262.663V769.92H265.463V771.52ZM271.323 775.42C271.323 774.753 271.183 774.18 270.903 773.7C270.637 773.207 270.277 772.833 269.823 772.58C269.383 772.327 268.903 772.2 268.383 772.2C267.877 772.2 267.397 772.333 266.943 772.6C266.503 772.853 266.143 773.227 265.863 773.72C265.597 774.213 265.463 774.793 265.463 775.46C265.463 776.127 265.597 776.707 265.863 777.2C266.143 777.693 266.503 778.073 266.943 778.34C267.397 778.593 267.877 778.72 268.383 778.72C268.903 778.72 269.383 778.587 269.823 778.32C270.277 778.053 270.637 777.673 270.903 777.18C271.183 776.687 271.323 776.1 271.323 775.42ZM277.638 768.6C277.145 768.6 276.731 768.447 276.398 768.14C276.078 767.82 275.918 767.427 275.918 766.96C275.918 766.493 276.078 766.107 276.398 765.8C276.731 765.48 277.145 765.32 277.638 765.32C278.131 765.32 278.538 765.48 278.858 765.8C279.191 766.107 279.358 766.493 279.358 766.96C279.358 767.427 279.191 767.82 278.858 768.14C278.538 768.447 278.131 768.6 277.638 768.6ZM279.018 769.92V781H276.218V769.92H279.018ZM287.924 769.76C289.244 769.76 290.311 770.18 291.124 771.02C291.938 771.847 292.344 773.007 292.344 774.5V781H289.544V774.88C289.544 774 289.324 773.327 288.884 772.86C288.444 772.38 287.844 772.14 287.084 772.14C286.311 772.14 285.698 772.38 285.244 772.86C284.804 773.327 284.584 774 284.584 774.88V781H281.784V769.92H284.584V771.3C284.958 770.82 285.431 770.447 286.004 770.18C286.591 769.9 287.231 769.76 287.924 769.76ZM299.347 769.74C300.174 769.74 300.9 769.907 301.527 770.24C302.154 770.56 302.647 770.98 303.007 771.5V769.92H305.827V781.08C305.827 782.107 305.62 783.02 305.207 783.82C304.794 784.633 304.174 785.273 303.347 785.74C302.52 786.22 301.52 786.46 300.347 786.46C298.774 786.46 297.48 786.093 296.467 785.36C295.467 784.627 294.9 783.627 294.767 782.36H297.547C297.694 782.867 298.007 783.267 298.487 783.56C298.98 783.867 299.574 784.02 300.267 784.02C301.08 784.02 301.74 783.773 302.247 783.28C302.754 782.8 303.007 782.067 303.007 781.08V779.36C302.647 779.88 302.147 780.313 301.507 780.66C300.88 781.007 300.16 781.18 299.347 781.18C298.414 781.18 297.56 780.94 296.787 780.46C296.014 779.98 295.4 779.307 294.947 778.44C294.507 777.56 294.287 776.553 294.287 775.42C294.287 774.3 294.507 773.307 294.947 772.44C295.4 771.573 296.007 770.907 296.767 770.44C297.54 769.973 298.4 769.74 299.347 769.74ZM303.007 775.46C303.007 774.78 302.874 774.2 302.607 773.72C302.34 773.227 301.98 772.853 301.527 772.6C301.074 772.333 300.587 772.2 300.067 772.2C299.547 772.2 299.067 772.327 298.627 772.58C298.187 772.833 297.827 773.207 297.547 773.7C297.28 774.18 297.147 774.753 297.147 775.42C297.147 776.087 297.28 776.673 297.547 777.18C297.827 777.673 298.187 778.053 298.627 778.32C299.08 778.587 299.56 778.72 300.067 778.72C300.587 778.72 301.074 778.593 301.527 778.34C301.98 778.073 302.34 777.7 302.607 777.22C302.874 776.727 303.007 776.14 303.007 775.46Z" fill="white"/>
</g>
<rect x="346.625" y="291.625" width="30.75" height="30.75" rx="3.41667" fill="#039855"/>
<path d="M358.583 314.517L351.75 307.683L354.142 305.292L358.583 309.733L369.858 298.458L372.25 300.85L358.583 314.517Z" fill="white"/>
<g filter="url(#filter4_d_79_6322)">
<rect x="35" y="353" width="357" height="60" rx="10" fill="#E97B2C" fill-opacity="0.85" shape-rendering="crispEdges"/>
</g>
<g filter="url(#filter5_d_79_6322)">
<path d="M45.3125 387.208C46.8485 385.928 48.0725 384.864 48.9845 384.016C49.8965 383.152 50.6565 382.256 51.2645 381.328C51.8725 380.4 52.1765 379.488 52.1765 378.592C52.1765 377.776 51.9845 377.136 51.6005 376.672C51.2165 376.208 50.6245 375.976 49.8245 375.976C49.0245 375.976 48.4085 376.248 47.9765 376.792C47.5445 377.32 47.3205 378.048 47.3045 378.976H44.0405C44.1045 377.056 44.6725 375.6 45.7445 374.608C46.8325 373.616 48.2085 373.12 49.8725 373.12C51.6965 373.12 53.0965 373.608 54.0725 374.584C55.0485 375.544 55.5365 376.816 55.5365 378.4C55.5365 379.648 55.2005 380.84 54.5285 381.976C53.8565 383.112 53.0885 384.104 52.2245 384.952C51.3605 385.784 50.2325 386.792 48.8405 387.976H55.9205V390.76H44.0645V388.264L45.3125 387.208ZM59.9097 391.168C59.3017 391.168 58.7977 390.984 58.3977 390.616C58.0137 390.232 57.8217 389.76 57.8217 389.2C57.8217 388.64 58.0137 388.176 58.3977 387.808C58.7977 387.424 59.3017 387.232 59.9097 387.232C60.5017 387.232 60.9897 387.424 61.3737 387.808C61.7577 388.176 61.9497 388.64 61.9497 389.2C61.9497 389.76 61.7577 390.232 61.3737 390.616C60.9897 390.984 60.5017 391.168 59.9097 391.168ZM76.016 376.96V381.16H81.656V383.824H76.016V388.264H82.376V391H72.656V374.224H82.376V376.96H76.016ZM90.6374 377.488C91.6294 377.488 92.5014 377.688 93.2534 378.088C94.0054 378.472 94.5974 378.976 95.0294 379.6V377.704H98.4134V391.096C98.4134 392.328 98.1654 393.424 97.6694 394.384C97.1734 395.36 96.4294 396.128 95.4374 396.688C94.4454 397.264 93.2454 397.552 91.8374 397.552C89.9494 397.552 88.3974 397.112 87.1814 396.232C85.9814 395.352 85.3014 394.152 85.1414 392.632H88.4774C88.6534 393.24 89.0294 393.72 89.6054 394.072C90.1974 394.44 90.9094 394.624 91.7414 394.624C92.7174 394.624 93.5094 394.328 94.1174 393.736C94.7254 393.16 95.0294 392.28 95.0294 391.096V389.032C94.5974 389.656 93.9974 390.176 93.2294 390.592C92.4774 391.008 91.6134 391.216 90.6374 391.216C89.5174 391.216 88.4934 390.928 87.5654 390.352C86.6374 389.776 85.9014 388.968 85.3574 387.928C84.8294 386.872 84.5654 385.664 84.5654 384.304C84.5654 382.96 84.8294 381.768 85.3574 380.728C85.9014 379.688 86.6294 378.888 87.5414 378.328C88.4694 377.768 89.5014 377.488 90.6374 377.488ZM95.0294 384.352C95.0294 383.536 94.8694 382.84 94.5494 382.264C94.2294 381.672 93.7974 381.224 93.2534 380.92C92.7094 380.6 92.1254 380.44 91.5014 380.44C90.8774 380.44 90.3014 380.592 89.7734 380.896C89.2454 381.2 88.8134 381.648 88.4774 382.24C88.1574 382.816 87.9974 383.504 87.9974 384.304C87.9974 385.104 88.1574 385.808 88.4774 386.416C88.8134 387.008 89.2454 387.464 89.7734 387.784C90.3174 388.104 90.8934 388.264 91.5014 388.264C92.1254 388.264 92.7094 388.112 93.2534 387.808C93.7974 387.488 94.2294 387.04 94.5494 386.464C94.8694 385.872 95.0294 385.168 95.0294 384.352ZM106.903 377.488C107.895 377.488 108.767 377.688 109.519 378.088C110.271 378.472 110.863 378.976 111.295 379.6V377.704H114.679V391.096C114.679 392.328 114.431 393.424 113.935 394.384C113.439 395.36 112.695 396.128 111.703 396.688C110.711 397.264 109.511 397.552 108.103 397.552C106.215 397.552 104.663 397.112 103.447 396.232C102.247 395.352 101.567 394.152 101.407 392.632H104.743C104.919 393.24 105.295 393.72 105.871 394.072C106.463 394.44 107.175 394.624 108.007 394.624C108.983 394.624 109.775 394.328 110.383 393.736C110.991 393.16 111.295 392.28 111.295 391.096V389.032C110.863 389.656 110.263 390.176 109.495 390.592C108.743 391.008 107.879 391.216 106.903 391.216C105.783 391.216 104.759 390.928 103.831 390.352C102.903 389.776 102.167 388.968 101.623 387.928C101.095 386.872 100.831 385.664 100.831 384.304C100.831 382.96 101.095 381.768 101.623 380.728C102.167 379.688 102.895 378.888 103.807 378.328C104.735 377.768 105.767 377.488 106.903 377.488ZM111.295 384.352C111.295 383.536 111.135 382.84 110.815 382.264C110.495 381.672 110.063 381.224 109.519 380.92C108.975 380.6 108.391 380.44 107.767 380.44C107.143 380.44 106.567 380.592 106.039 380.896C105.511 381.2 105.079 381.648 104.743 382.24C104.423 382.816 104.263 383.504 104.263 384.304C104.263 385.104 104.423 385.808 104.743 386.416C105.079 387.008 105.511 387.464 106.039 387.784C106.583 388.104 107.159 388.264 107.767 388.264C108.391 388.264 108.975 388.112 109.519 387.808C110.063 387.488 110.495 387.04 110.815 386.464C111.135 385.872 111.295 385.168 111.295 384.352ZM123.049 391.216C121.961 391.216 120.985 391.024 120.121 390.64C119.257 390.24 118.569 389.704 118.057 389.032C117.561 388.36 117.289 387.616 117.241 386.8H120.625C120.689 387.312 120.937 387.736 121.369 388.072C121.817 388.408 122.369 388.576 123.025 388.576C123.665 388.576 124.161 388.448 124.513 388.192C124.881 387.936 125.065 387.608 125.065 387.208C125.065 386.776 124.841 386.456 124.393 386.248C123.961 386.024 123.265 385.784 122.305 385.528C121.313 385.288 120.497 385.04 119.857 384.784C119.233 384.528 118.689 384.136 118.225 383.608C117.777 383.08 117.553 382.368 117.553 381.472C117.553 380.736 117.761 380.064 118.177 379.456C118.609 378.848 119.217 378.368 120.001 378.016C120.801 377.664 121.737 377.488 122.809 377.488C124.393 377.488 125.657 377.888 126.601 378.688C127.545 379.472 128.065 380.536 128.161 381.88H124.945C124.897 381.352 124.673 380.936 124.273 380.632C123.889 380.312 123.369 380.152 122.713 380.152C122.105 380.152 121.633 380.264 121.297 380.488C120.977 380.712 120.817 381.024 120.817 381.424C120.817 381.872 121.041 382.216 121.489 382.456C121.937 382.68 122.633 382.912 123.577 383.152C124.537 383.392 125.329 383.64 125.953 383.896C126.577 384.152 127.113 384.552 127.561 385.096C128.025 385.624 128.265 386.328 128.281 387.208C128.281 387.976 128.065 388.664 127.633 389.272C127.217 389.88 126.609 390.36 125.809 390.712C125.025 391.048 124.105 391.216 123.049 391.216Z" fill="white"/>
</g>
<g filter="url(#filter6_d_79_6322)">
<rect x="35" y="429" width="357" height="60" rx="10" fill="#E97B2C" fill-opacity="0.85" shape-rendering="crispEdges"/>
</g>
<g filter="url(#filter7_d_79_6322)">
<path d="M43.7185 454.112C43.7985 452.512 44.3585 451.28 45.3985 450.416C46.4545 449.536 47.8385 449.096 49.5505 449.096C50.7185 449.096 51.7185 449.304 52.5505 449.72C53.3825 450.12 54.0065 450.672 54.4225 451.376C54.8545 452.064 55.0705 452.848 55.0705 453.728C55.0705 454.736 54.8065 455.592 54.2785 456.296C53.7665 456.984 53.1505 457.448 52.4305 457.688V457.784C53.3585 458.072 54.0785 458.584 54.5905 459.32C55.1185 460.056 55.3825 461 55.3825 462.152C55.3825 463.112 55.1585 463.968 54.7105 464.72C54.2785 465.472 53.6305 466.064 52.7665 466.496C51.9185 466.912 50.8945 467.12 49.6945 467.12C47.8865 467.12 46.4145 466.664 45.2785 465.752C44.1425 464.84 43.5425 463.496 43.4785 461.72H46.7425C46.7745 462.504 47.0385 463.136 47.5345 463.616C48.0465 464.08 48.7425 464.312 49.6225 464.312C50.4385 464.312 51.0625 464.088 51.4945 463.64C51.9425 463.176 52.1665 462.584 52.1665 461.864C52.1665 460.904 51.8625 460.216 51.2545 459.8C50.6465 459.384 49.7025 459.176 48.4225 459.176H47.7265V456.416H48.4225C50.6945 456.416 51.8305 455.656 51.8305 454.136C51.8305 453.448 51.6225 452.912 51.2065 452.528C50.8065 452.144 50.2225 451.952 49.4545 451.952C48.7025 451.952 48.1185 452.16 47.7025 452.576C47.3025 452.976 47.0705 453.488 47.0065 454.112H43.7185ZM59.9097 467.168C59.3017 467.168 58.7977 466.984 58.3977 466.616C58.0137 466.232 57.8217 465.76 57.8217 465.2C57.8217 464.64 58.0137 464.176 58.3977 463.808C58.7977 463.424 59.3017 463.232 59.9097 463.232C60.5017 463.232 60.9897 463.424 61.3737 463.808C61.7577 464.176 61.9497 464.64 61.9497 465.2C61.9497 465.76 61.7577 466.232 61.3737 466.616C60.9897 466.984 60.5017 467.168 59.9097 467.168ZM82.16 458.408C83.104 458.584 83.88 459.056 84.488 459.824C85.096 460.592 85.4 461.472 85.4 462.464C85.4 463.36 85.176 464.152 84.728 464.84C84.296 465.512 83.664 466.04 82.832 466.424C82 466.808 81.016 467 79.88 467H72.656V450.248H79.568C80.704 450.248 81.68 450.432 82.496 450.8C83.328 451.168 83.952 451.68 84.368 452.336C84.8 452.992 85.016 453.736 85.016 454.568C85.016 455.544 84.752 456.36 84.224 457.016C83.712 457.672 83.024 458.136 82.16 458.408ZM76.016 457.16H79.088C79.888 457.16 80.504 456.984 80.936 456.632C81.368 456.264 81.584 455.744 81.584 455.072C81.584 454.4 81.368 453.88 80.936 453.512C80.504 453.144 79.888 452.96 79.088 452.96H76.016V457.16ZM79.4 464.264C80.216 464.264 80.848 464.072 81.296 463.688C81.76 463.304 81.992 462.76 81.992 462.056C81.992 461.336 81.752 460.776 81.272 460.376C80.792 459.96 80.144 459.752 79.328 459.752H76.016V464.264H79.4ZM91.4379 455.768C91.8699 455.064 92.4299 454.512 93.1179 454.112C93.8219 453.712 94.6219 453.512 95.5179 453.512V457.04H94.6299C93.5739 457.04 92.7739 457.288 92.2299 457.784C91.7019 458.28 91.4379 459.144 91.4379 460.376V467H88.0779V453.704H91.4379V455.768ZM110.141 460.064C110.141 460.544 110.109 460.976 110.045 461.36H100.325C100.405 462.32 100.741 463.072 101.333 463.616C101.925 464.16 102.653 464.432 103.517 464.432C104.765 464.432 105.653 463.896 106.181 462.824H109.805C109.421 464.104 108.685 465.16 107.597 465.992C106.509 466.808 105.173 467.216 103.589 467.216C102.309 467.216 101.157 466.936 100.133 466.376C99.125 465.8 98.333 464.992 97.757 463.952C97.197 462.912 96.917 461.712 96.917 460.352C96.917 458.976 97.197 457.768 97.757 456.728C98.317 455.688 99.101 454.888 100.109 454.328C101.117 453.768 102.277 453.488 103.589 453.488C104.853 453.488 105.981 453.76 106.973 454.304C107.981 454.848 108.757 455.624 109.301 456.632C109.861 457.624 110.141 458.768 110.141 460.064ZM106.661 459.104C106.645 458.24 106.333 457.552 105.725 457.04C105.117 456.512 104.373 456.248 103.493 456.248C102.661 456.248 101.957 456.504 101.381 457.016C100.821 457.512 100.477 458.208 100.349 459.104H106.661ZM111.729 460.304C111.729 458.96 111.993 457.768 112.521 456.728C113.066 455.688 113.794 454.888 114.706 454.328C115.634 453.768 116.666 453.488 117.802 453.488C118.794 453.488 119.658 453.688 120.394 454.088C121.146 454.488 121.746 454.992 122.194 455.6V453.704H125.578V467H122.194V465.056C121.762 465.68 121.162 466.2 120.394 466.616C119.642 467.016 118.77 467.216 117.778 467.216C116.658 467.216 115.634 466.928 114.706 466.352C113.794 465.776 113.066 464.968 112.521 463.928C111.993 462.872 111.729 461.664 111.729 460.304ZM122.194 460.352C122.194 459.536 122.034 458.84 121.714 458.264C121.394 457.672 120.962 457.224 120.418 456.92C119.874 456.6 119.29 456.44 118.666 456.44C118.042 456.44 117.466 456.592 116.938 456.896C116.41 457.2 115.978 457.648 115.642 458.24C115.322 458.816 115.162 459.504 115.162 460.304C115.162 461.104 115.322 461.808 115.642 462.416C115.978 463.008 116.41 463.464 116.938 463.784C117.482 464.104 118.058 464.264 118.666 464.264C119.29 464.264 119.874 464.112 120.418 463.808C120.962 463.488 121.394 463.04 121.714 462.464C122.034 461.872 122.194 461.168 122.194 460.352ZM127.995 460.304C127.995 458.96 128.259 457.768 128.787 456.728C129.331 455.688 130.067 454.888 130.995 454.328C131.923 453.768 132.955 453.488 134.091 453.488C134.955 453.488 135.779 453.68 136.563 454.064C137.347 454.432 137.971 454.928 138.435 455.552V449.24H141.843V467H138.435V465.032C138.019 465.688 137.435 466.216 136.683 466.616C135.931 467.016 135.059 467.216 134.067 467.216C132.947 467.216 131.923 466.928 130.995 466.352C130.067 465.776 129.331 464.968 128.787 463.928C128.259 462.872 127.995 461.664 127.995 460.304ZM138.459 460.352C138.459 459.536 138.299 458.84 137.979 458.264C137.659 457.672 137.227 457.224 136.683 456.92C136.139 456.6 135.555 456.44 134.931 456.44C134.307 456.44 133.731 456.592 133.203 456.896C132.675 457.2 132.243 457.648 131.907 458.24C131.587 458.816 131.427 459.504 131.427 460.304C131.427 461.104 131.587 461.808 131.907 462.416C132.243 463.008 132.675 463.464 133.203 463.784C133.747 464.104 134.323 464.264 134.931 464.264C135.555 464.264 136.139 464.112 136.683 463.808C137.227 463.488 137.659 463.04 137.979 462.464C138.299 461.872 138.459 461.168 138.459 460.352Z" fill="white"/>
</g>
<rect x="346.625" y="367.625" width="30.75" height="30.75" rx="3.41667" fill="white"/>
<rect x="346.625" y="445.625" width="30.75" height="30.75" rx="3.41667" fill="white"/>
<defs>
<filter id="filter0_d_79_6322" x="15" y="658" width="397" height="100" filterUnits="userSpaceOnUse" color-interpolation-filters="sRGB">
<feFlood flood-opacity="0" result="BackgroundImageFix"/>
<feColorMatrix in="SourceAlpha" type="matrix" values="0 0 0 0 0 0 0 0 0 0 0 0 0 0 0 0 0 0 127 0" result="hardAlpha"/>
<feOffset dy="10"/>
<feGaussianBlur stdDeviation="10"/>
<feComposite in2="hardAlpha" operator="out"/>
<feColorMatrix type="matrix" values="0 0 0 0 0.795833 0 0 0 0 0.84075 0 0 0 0 1 0 0 0 1 0"/>
<feBlend mode="normal" in2="BackgroundImageFix" result="effect1_dropShadow_79_6322"/>
<feBlend mode="normal" in="SourceGraphic" in2="effect1_dropShadow_79_6322" result="shape"/>
</filter>
<filter id="filter1_d_79_6322" x="15" y="267" width="397" height="100" filterUnits="userSpaceOnUse" color-interpolation-filters="sRGB">
<feFlood flood-opacity="0" result="BackgroundImageFix"/>
<feColorMatrix in="SourceAlpha" type="matrix" values="0 0 0 0 0 0 0 0 0 0 0 0 0 0 0 0 0 0 127 0" result="hardAlpha"/>
<feOffset dy="10"/>
<feGaussianBlur stdDeviation="10"/>
<feComposite in2="hardAlpha" operator="out"/>
<feColorMatrix type="matrix" values="0 0 0 0 0.795833 0 0 0 0 0.84075 0 0 0 0 1 0 0 0 1 0"/>
<feBlend mode="normal" in2="BackgroundImageFix" result="effect1_dropShadow_79_6322"/>
<feBlend mode="normal" in="SourceGraphic" in2="effect1_dropShadow_79_6322" result="shape"/>
</filter>
<filter id="filter2_d_79_6322" x="44.9346" y="296.184" width="78.9067" height="26.984" filterUnits="userSpaceOnUse" color-interpolation-filters="sRGB">
<feFlood flood-opacity="0" result="BackgroundImageFix"/>
<feColorMatrix in="SourceAlpha" type="matrix" values="0 0 0 0 0 0 0 0 0 0 0 0 0 0 0 0 0 0 127 0" result="hardAlpha"/>
<feOffset dy="4"/>
<feGaussianBlur stdDeviation="2"/>
<feComposite in2="hardAlpha" operator="out"/>
<feColorMatrix type="matrix" values="0 0 0 0 0 0 0 0 0 0 0 0 0 0 0 0 0 0 0.25 0"/>
<feBlend mode="normal" in2="BackgroundImageFix" result="effect1_dropShadow_79_6322"/>
<feBlend mode="normal" in="SourceGraphic" in2="effect1_dropShadow_79_6322" result="shape"/>
</filter>
<filter id="filter3_d_79_6322" x="15" y="734" width="397" height="100" filterUnits="userSpaceOnUse" color-interpolation-filters="sRGB">
<feFlood flood-opacity="0" result="BackgroundImageFix"/>
<feColorMatrix in="SourceAlpha" type="matrix" values="0 0 0 0 0 0 0 0 0 0 0 0 0 0 0 0 0 0 127 0" result="hardAlpha"/>
<feOffset dy="10"/>
<feGaussianBlur stdDeviation="10"/>
<feComposite in2="hardAlpha" operator="out"/>
<feColorMatrix type="matrix" values="0 0 0 0 0.795833 0 0 0 0 0.84075 0 0 0 0 1 0 0 0 1 0"/>
<feBlend mode="normal" in2="BackgroundImageFix" result="effect1_dropShadow_79_6322"/>
<feBlend mode="normal" in="SourceGraphic" in2="effect1_dropShadow_79_6322" result="shape"/>
</filter>
<filter id="filter4_d_79_6322" x="15" y="343" width="397" height="100" filterUnits="userSpaceOnUse" color-interpolation-filters="sRGB">
<feFlood flood-opacity="0" result="BackgroundImageFix"/>
<feColorMatrix in="SourceAlpha" type="matrix" values="0 0 0 0 0 0 0 0 0 0 0 0 0 0 0 0 0 0 127 0" result="hardAlpha"/>
<feOffset dy="10"/>
<feGaussianBlur stdDeviation="10"/>
<feComposite in2="hardAlpha" operator="out"/>
<feColorMatrix type="matrix" values="0 0 0 0 0.795833 0 0 0 0 0.84075 0 0 0 0 1 0 0 0 1 0"/>
<feBlend mode="normal" in2="BackgroundImageFix" result="effect1_dropShadow_79_6322"/>
<feBlend mode="normal" in="SourceGraphic" in2="effect1_dropShadow_79_6322" result="shape"/>
</filter>
<filter id="filter5_d_79_6322" x="40.0405" y="373.12" width="92.2402" height="32.432" filterUnits="userSpaceOnUse" color-interpolation-filters="sRGB">
<feFlood flood-opacity="0" result="BackgroundImageFix"/>
<feColorMatrix in="SourceAlpha" type="matrix" values="0 0 0 0 0 0 0 0 0 0 0 0 0 0 0 0 0 0 127 0" result="hardAlpha"/>
<feOffset dy="4"/>
<feGaussianBlur stdDeviation="2"/>
<feComposite in2="hardAlpha" operator="out"/>
<feColorMatrix type="matrix" values="0 0 0 0 0 0 0 0 0 0 0 0 0 0 0 0 0 0 0.25 0"/>
<feBlend mode="normal" in2="BackgroundImageFix" result="effect1_dropShadow_79_6322"/>
<feBlend mode="normal" in="SourceGraphic" in2="effect1_dropShadow_79_6322" result="shape"/>
</filter>
<filter id="filter6_d_79_6322" x="15" y="419" width="397" height="100" filterUnits="userSpaceOnUse" color-interpolation-filters="sRGB">
<feFlood flood-opacity="0" result="BackgroundImageFix"/>
<feColorMatrix in="SourceAlpha" type="matrix" values="0 0 0 0 0 0 0 0 0 0 0 0 0 0 0 0 0 0 127 0" result="hardAlpha"/>
<feOffset dy="10"/>
<feGaussianBlur stdDeviation="10"/>
<feComposite in2="hardAlpha" operator="out"/>
<feColorMatrix type="matrix" values="0 0 0 0 0.795833 0 0 0 0 0.84075 0 0 0 0 1 0 0 0 1 0"/>
<feBlend mode="normal" in2="BackgroundImageFix" result="effect1_dropShadow_79_6322"/>
<feBlend mode="normal" in="SourceGraphic" in2="effect1_dropShadow_79_6322" result="shape"/>
</filter>
<filter id="filter7_d_79_6322" x="39.4785" y="449.096" width="106.365" height="26.12" filterUnits="userSpaceOnUse" color-interpolation-filters="sRGB">
<feFlood flood-opacity="0" result="BackgroundImageFix"/>
<feColorMatrix in="SourceAlpha" type="matrix" values="0 0 0 0 0 0 0 0 0 0 0 0 0 0 0 0 0 0 127 0" result="hardAlpha"/>
<feOffset dy="4"/>
<feGaussianBlur stdDeviation="2"/>
<feComposite in2="hardAlpha" operator="out"/>
<feColorMatrix type="matrix" values="0 0 0 0 0 0 0 0 0 0 0 0 0 0 0 0 0 0 0.25 0"/>
<feBlend mode="normal" in2="BackgroundImageFix" result="effect1_dropShadow_79_6322"/>
<feBlend mode="normal" in="SourceGraphic" in2="effect1_dropShadow_79_6322" result="shape"/>
</filter>
</defs>
</svg>
