<svg width="428" height="926" viewBox="0 0 428 926" fill="none" xmlns="http://www.w3.org/2000/svg">
<rect width="428" height="926" rx="50" fill="white"/>
<path d="M51.8548 286.18C51.7148 286.18 51.4848 286.17 51.1648 286.15C50.8448 286.13 50.5148 286.11 50.1748 286.09C49.8348 286.07 49.5048 286.05 49.1848 286.03C48.8648 286.01 48.6348 286 48.4948 286H47.9248C47.7848 286 47.5548 286.01 47.2348 286.03C46.9148 286.05 46.5748 286.07 46.2148 286.09C45.8748 286.11 45.5448 286.13 45.2248 286.15C44.9048 286.17 44.6748 286.18 44.5348 286.18L44.5048 286.06L44.5648 285.52L44.7148 285.4C45.0348 285.4 45.3348 285.39 45.6148 285.37C45.9148 285.33 46.1448 285.24 46.3048 285.1C46.4648 284.96 46.6148 284.78 46.7548 284.56C46.9148 284.34 47.0148 283.95 47.0548 283.39C47.0748 283.25 47.0848 283.09 47.0848 282.91C47.1048 282.71 47.1148 282.47 47.1148 282.19C47.1348 281.91 47.1448 281.57 47.1448 281.17C47.1448 280.77 47.1448 280.27 47.1448 279.67V278.5C47.1448 277.94 47.0648 277.49 46.9048 277.15C46.7448 276.79 46.5848 276.47 46.4248 276.19C46.1248 275.65 45.7848 275.07 45.4048 274.45C45.0448 273.83 44.6648 273.19 44.2648 272.53C43.8648 271.87 43.4548 271.22 43.0348 270.58C42.6148 269.92 42.2148 269.29 41.8348 268.69C41.6948 268.47 41.5348 268.26 41.3548 268.06C41.1748 267.84 41.0148 267.67 40.8748 267.55C40.6548 267.37 40.3848 267.24 40.0648 267.16C39.7648 267.08 39.4148 267.02 39.0148 266.98L38.7748 266.86V266.32L38.9248 266.2C39.4048 266.26 39.8548 266.32 40.2748 266.38C40.6948 266.42 41.1348 266.44 41.5948 266.44H42.8548C43.3148 266.44 43.8448 266.42 44.4448 266.38C45.0648 266.32 45.6548 266.26 46.2148 266.2L46.3348 266.32V266.86L46.2148 266.98C45.8148 267 45.4648 267.04 45.1648 267.1C44.8648 267.14 44.6248 267.22 44.4448 267.34C44.2048 267.52 44.0848 267.69 44.0848 267.85C44.0848 267.95 44.1148 268.07 44.1748 268.21C44.2548 268.35 44.3248 268.47 44.3848 268.57C45.1048 269.89 45.7848 271.14 46.4248 272.32C47.0648 273.5 47.7648 274.74 48.5248 276.04C48.8648 275.46 49.2248 274.82 49.6048 274.12C50.0048 273.4 50.3848 272.71 50.7448 272.05C51.1048 271.37 51.4148 270.76 51.6748 270.22C51.9548 269.68 52.1448 269.3 52.2448 269.08C52.2848 268.98 52.3448 268.82 52.4248 268.6C52.5048 268.38 52.5448 268.19 52.5448 268.03C52.5448 267.79 52.4748 267.61 52.3348 267.49C52.1948 267.37 52.0148 267.28 51.7948 267.22C51.5948 267.16 51.3648 267.12 51.1048 267.1C50.8648 267.08 50.6348 267.04 50.4148 266.98L50.2948 266.86V266.32L50.4148 266.2C50.9948 266.3 51.4748 266.36 51.8548 266.38C52.2548 266.38 52.6948 266.38 53.1748 266.38H54.9148C55.3948 266.38 55.8348 266.37 56.2348 266.35C56.6348 266.33 57.1148 266.28 57.6748 266.2L57.7948 266.32V266.86L57.6748 266.98C57.2148 267.04 56.8248 267.12 56.5048 267.22C56.1848 267.32 55.8848 267.46 55.6048 267.64C55.3448 267.8 55.0948 268.02 54.8548 268.3C54.6148 268.58 54.3448 268.94 54.0448 269.38C53.4648 270.26 52.9548 271.04 52.5148 271.72C52.0948 272.4 51.7148 273.03 51.3748 273.61C51.0348 274.17 50.7248 274.69 50.4448 275.17C50.1848 275.65 49.9248 276.12 49.6648 276.58C49.5848 276.7 49.4948 276.91 49.3948 277.21C49.2948 277.49 49.2448 277.78 49.2448 278.08V279.13C49.2448 279.85 49.2448 280.43 49.2448 280.87C49.2448 281.31 49.2448 281.68 49.2448 281.98C49.2648 282.28 49.2748 282.53 49.2748 282.73C49.2948 282.93 49.3148 283.15 49.3348 283.39C49.3748 283.95 49.4648 284.34 49.6048 284.56C49.7648 284.78 49.9248 284.96 50.0848 285.1C50.2448 285.24 50.4648 285.33 50.7448 285.37C51.0448 285.39 51.3548 285.4 51.6748 285.4L51.8248 285.52L51.9148 286.06L51.8548 286.18ZM63.8945 271.75C65.0745 271.75 66.1245 271.96 67.0445 272.38C67.9645 272.78 68.7345 273.33 69.3545 274.03C69.9945 274.71 70.4745 275.5 70.7945 276.4C71.1345 277.3 71.3045 278.23 71.3045 279.19C71.3045 280.11 71.1545 281 70.8545 281.86C70.5545 282.72 70.0945 283.48 69.4745 284.14C68.8545 284.8 68.0845 285.33 67.1645 285.73C66.2445 286.13 65.1745 286.33 63.9545 286.33C62.6945 286.33 61.5945 286.12 60.6545 285.7C59.7145 285.28 58.9345 284.73 58.3145 284.05C57.7145 283.37 57.2645 282.6 56.9645 281.74C56.6645 280.86 56.5145 279.96 56.5145 279.04C56.5145 278.06 56.6845 277.13 57.0245 276.25C57.3645 275.37 57.8445 274.6 58.4645 273.94C59.1045 273.26 59.8745 272.73 60.7745 272.35C61.6945 271.95 62.7345 271.75 63.8945 271.75ZM63.9245 285.16C64.7645 285.16 65.5045 284.99 66.1445 284.65C66.7845 284.31 67.3145 283.86 67.7345 283.3C68.1545 282.74 68.4645 282.11 68.6645 281.41C68.8845 280.69 68.9945 279.95 68.9945 279.19C68.9945 278.47 68.8745 277.74 68.6345 277C68.4145 276.26 68.0845 275.6 67.6445 275.02C67.2045 274.42 66.6645 273.94 66.0245 273.58C65.3845 273.2 64.6445 273.01 63.8045 273.01C62.9245 273.01 62.1645 273.19 61.5245 273.55C60.9045 273.89 60.3845 274.34 59.9645 274.9C59.5645 275.46 59.2645 276.1 59.0645 276.82C58.8645 277.54 58.7645 278.26 58.7645 278.98C58.7645 279.72 58.8745 280.46 59.0945 281.2C59.3345 281.92 59.6745 282.58 60.1145 283.18C60.5545 283.76 61.0945 284.24 61.7345 284.62C62.3745 284.98 63.1045 285.16 63.9245 285.16ZM85.8247 283.42C85.3047 284.26 84.6347 284.96 83.8147 285.52C83.0147 286.06 82.0247 286.33 80.8447 286.33C80.2647 286.33 79.7047 286.26 79.1647 286.12C78.6447 286 78.1547 285.79 77.6947 285.49C77.2547 285.19 76.8747 284.79 76.5547 284.29C76.2347 283.79 76.0047 283.16 75.8647 282.4C75.7647 281.88 75.7147 281.34 75.7147 280.78C75.7347 280.2 75.7347 279.62 75.7147 279.04C75.7147 278.78 75.7047 278.43 75.6847 277.99C75.6847 277.53 75.6847 277.07 75.6847 276.61C75.6847 276.13 75.6847 275.69 75.6847 275.29C75.6847 274.89 75.6847 274.6 75.6847 274.42C75.6847 274.2 75.6347 274.01 75.5347 273.85C75.4347 273.67 75.3547 273.54 75.2947 273.46C75.0947 273.24 74.8447 273.11 74.5447 273.07C74.2447 273.01 73.9347 272.98 73.6147 272.98L73.5247 272.86V272.44L73.6147 272.35H74.1547C74.4947 272.35 74.9247 272.35 75.4447 272.35C75.9647 272.33 76.4147 272.29 76.7947 272.23L77.8447 272.08L78.0247 272.35C77.9847 272.43 77.9547 272.58 77.9347 272.8C77.9147 273 77.8947 273.22 77.8747 273.46C77.8547 273.7 77.8447 273.93 77.8447 274.15C77.8447 274.37 77.8447 274.54 77.8447 274.66C77.8447 275 77.8347 275.38 77.8147 275.8C77.8147 276.2 77.8047 276.61 77.7847 277.03C77.7847 277.45 77.7747 277.85 77.7547 278.23C77.7547 278.61 77.7547 278.93 77.7547 279.19C77.7547 279.63 77.7647 280.13 77.7847 280.69C77.8247 281.23 77.8947 281.7 77.9947 282.1C78.1947 283.04 78.6047 283.74 79.2247 284.2C79.8447 284.66 80.5647 284.89 81.3847 284.89C82.0047 284.89 82.5747 284.77 83.0947 284.53C83.6147 284.27 84.0647 283.96 84.4447 283.6C84.8447 283.24 85.1647 282.86 85.4047 282.46C85.6647 282.04 85.8347 281.66 85.9147 281.32V277.42C85.9147 277 85.9047 276.65 85.8847 276.37C85.8847 276.07 85.8747 275.81 85.8547 275.59C85.8547 275.37 85.8447 275.17 85.8247 274.99C85.8247 274.81 85.8147 274.62 85.7947 274.42C85.7547 274.2 85.6947 274.01 85.6147 273.85C85.5547 273.67 85.4947 273.55 85.4347 273.49C85.2347 273.25 84.9847 273.11 84.6847 273.07C84.3847 273.01 84.0747 272.98 83.7547 272.98L83.6347 272.86V272.44L83.7547 272.35H84.2947C84.6347 272.35 85.0647 272.35 85.5847 272.35C86.1047 272.33 86.5447 272.29 86.9047 272.23L87.9547 272.08L88.1347 272.35C88.0947 272.43 88.0647 272.58 88.0447 272.8C88.0247 273 88.0047 273.22 87.9847 273.46C87.9647 273.7 87.9547 273.93 87.9547 274.15C87.9547 274.37 87.9547 274.54 87.9547 274.66C87.9547 274.82 87.9447 274.97 87.9247 275.11C87.9247 275.25 87.9247 275.42 87.9247 275.62C87.9247 275.82 87.9147 276.06 87.8947 276.34C87.8947 276.6 87.8947 276.95 87.8947 277.39V280.75C87.8947 281.19 87.8947 281.55 87.8947 281.83C87.9147 282.11 87.9247 282.35 87.9247 282.55C87.9447 282.75 87.9547 282.94 87.9547 283.12C87.9747 283.28 87.9847 283.46 87.9847 283.66C88.0247 284.12 88.0747 284.46 88.1347 284.68C88.1947 284.88 88.2947 285.03 88.4347 285.13C88.5947 285.29 88.8247 285.39 89.1247 285.43C89.4447 285.45 89.7647 285.46 90.0847 285.46L90.2047 285.58L90.2647 286L90.2047 286.12C89.8447 286.08 89.4547 286.05 89.0347 286.03C88.6147 286.01 88.2047 286 87.8047 286C87.0447 286 86.3547 286.03 85.7347 286.09L85.5547 285.79C85.6147 285.53 85.6747 285.19 85.7347 284.77C85.8147 284.35 85.8747 283.92 85.9147 283.48L85.8247 283.42ZM93.0737 269.2L92.8937 269.02V268.9C93.1737 268.32 93.3537 267.8 93.4337 267.34C93.5337 266.88 93.5837 266.52 93.5837 266.26C93.5837 266.04 93.5237 265.82 93.4037 265.6C93.3037 265.38 93.2537 265.11 93.2537 264.79C93.2537 264.63 93.3137 264.49 93.4337 264.37C93.5537 264.23 93.6937 264.12 93.8537 264.04C94.0337 263.96 94.2237 263.9 94.4237 263.86C94.6437 263.82 94.8437 263.8 95.0237 263.8C95.1837 263.8 95.3137 263.85 95.4137 263.95C95.5137 264.03 95.5837 264.14 95.6237 264.28C95.6837 264.42 95.7237 264.56 95.7437 264.7C95.7637 264.84 95.7737 264.97 95.7737 265.09C95.7737 265.55 95.6737 266.01 95.4737 266.47C95.2937 266.91 95.0737 267.32 94.8137 267.7C94.5537 268.06 94.2737 268.38 93.9737 268.66C93.6937 268.92 93.4537 269.1 93.2537 269.2H93.0737ZM102.097 275.38C102.297 275 102.517 274.6 102.757 274.18C103.017 273.76 103.307 273.37 103.627 273.01C103.947 272.65 104.307 272.35 104.707 272.11C105.127 271.87 105.597 271.75 106.117 271.75C106.477 271.75 106.877 271.81 107.317 271.93C107.777 272.03 108.087 272.17 108.247 272.35L108.487 272.62L108.127 274.93H107.137C107.077 274.65 106.917 274.4 106.657 274.18C106.417 273.94 106.037 273.82 105.517 273.82C105.017 273.82 104.557 273.97 104.137 274.27C103.717 274.55 103.347 274.91 103.027 275.35C102.727 275.79 102.487 276.26 102.307 276.76C102.147 277.24 102.067 277.68 102.067 278.08V280.75C102.067 281.19 102.067 281.55 102.067 281.83C102.087 282.09 102.097 282.32 102.097 282.52C102.117 282.7 102.127 282.86 102.127 283C102.147 283.12 102.157 283.25 102.157 283.39L102.187 283.66C102.227 283.96 102.267 284.25 102.307 284.53C102.367 284.79 102.477 284.99 102.637 285.13C102.737 285.21 102.877 285.27 103.057 285.31C103.257 285.35 103.457 285.38 103.657 285.4C103.877 285.42 104.087 285.44 104.287 285.46C104.487 285.46 104.647 285.46 104.767 285.46L104.917 285.61L104.977 286L104.917 286.12C104.777 286.12 104.547 286.11 104.227 286.09C103.927 286.07 103.607 286.05 103.267 286.03C102.927 286.03 102.597 286.02 102.277 286C101.977 286 101.757 286 101.617 286H100.897C100.757 286 100.537 286 100.237 286C99.9571 286.02 99.6571 286.03 99.3371 286.03C99.0171 286.05 98.7071 286.07 98.4071 286.09C98.1271 286.11 97.9171 286.12 97.7771 286.12L97.7471 286L97.7771 285.58L97.8971 285.46C98.2171 285.46 98.5271 285.45 98.8271 285.43C99.1471 285.39 99.3871 285.29 99.5471 285.13C99.7071 284.99 99.8071 284.81 99.8471 284.59C99.9071 284.37 99.9571 284.06 99.9971 283.66L100.027 283.39C100.047 283.19 100.057 282.94 100.057 282.64C100.077 282.34 100.087 281.83 100.087 281.11V277.42C100.087 277 100.087 276.65 100.087 276.37C100.087 276.07 100.077 275.81 100.057 275.59C100.057 275.37 100.047 275.17 100.027 274.99C100.027 274.81 100.017 274.62 99.9971 274.42C99.9571 274.2 99.8971 274.01 99.8171 273.85C99.7371 273.67 99.6671 273.55 99.6071 273.49C99.4071 273.25 99.1571 273.11 98.8571 273.07C98.5571 273.01 98.2471 272.98 97.9271 272.98L97.8071 272.86V272.44L97.9271 272.35H98.4671C98.8071 272.35 99.2371 272.35 99.7571 272.35C100.277 272.33 100.727 272.29 101.107 272.23L102.157 272.08L102.337 272.35C102.217 272.77 102.127 273.25 102.067 273.79C102.027 274.33 102.007 274.85 102.007 275.35L102.097 275.38ZM123.557 277.93L123.077 278.14C121.997 278.14 120.887 278.15 119.747 278.17C118.607 278.19 117.487 278.2 116.387 278.2H112.847C112.827 278.34 112.817 278.48 112.817 278.62C112.817 278.74 112.817 278.86 112.817 278.98C112.817 279.74 112.927 280.47 113.147 281.17C113.367 281.85 113.707 282.45 114.167 282.97C114.647 283.49 115.257 283.91 115.997 284.23C116.737 284.53 117.637 284.68 118.697 284.68C119.317 284.68 119.977 284.62 120.677 284.5C121.397 284.36 122.057 284.12 122.657 283.78L122.957 283.96V284.5L122.657 284.83C122.177 285.21 121.497 285.56 120.617 285.88C119.737 286.18 118.757 286.33 117.677 286.33C116.617 286.33 115.647 286.16 114.767 285.82C113.907 285.46 113.157 284.96 112.517 284.32C111.897 283.68 111.407 282.92 111.047 282.04C110.707 281.16 110.537 280.18 110.537 279.1C110.537 278 110.717 277 111.077 276.1C111.437 275.2 111.927 274.43 112.547 273.79C113.187 273.15 113.927 272.65 114.767 272.29C115.627 271.93 116.547 271.75 117.527 271.75C118.047 271.75 118.627 271.82 119.267 271.96C119.927 272.1 120.557 272.37 121.157 272.77C121.757 273.15 122.297 273.7 122.777 274.42C123.257 275.12 123.587 276.05 123.767 277.21L123.557 277.93ZM117.557 273.1C116.917 273.1 116.337 273.21 115.817 273.43C115.317 273.63 114.867 273.91 114.467 274.27C114.087 274.61 113.767 275.02 113.507 275.5C113.267 275.96 113.097 276.45 112.997 276.97H114.167C115.247 276.97 116.297 276.96 117.317 276.94C118.337 276.9 119.407 276.85 120.527 276.79C120.787 276.77 120.957 276.7 121.037 276.58C121.137 276.46 121.187 276.32 121.187 276.16C121.187 276.04 121.177 275.93 121.157 275.83C121.137 275.73 121.107 275.63 121.067 275.53C120.847 274.77 120.437 274.18 119.837 273.76C119.237 273.32 118.477 273.1 117.557 273.1ZM150.306 286.12C150.166 286.12 149.956 286.11 149.676 286.09C149.396 286.07 149.096 286.05 148.776 286.03C148.456 286.03 148.156 286.02 147.876 286C147.596 286 147.386 286 147.246 286H146.826C146.686 286 146.466 286 146.166 286C145.886 286.02 145.586 286.03 145.266 286.03C144.966 286.05 144.666 286.07 144.366 286.09C144.086 286.11 143.876 286.12 143.736 286.12L143.706 286L143.736 285.58L143.856 285.46C144.176 285.46 144.486 285.45 144.786 285.43C145.106 285.39 145.346 285.29 145.506 285.13C145.666 284.99 145.766 284.81 145.806 284.59C145.866 284.37 145.916 284.06 145.956 283.66C145.976 283.34 145.996 283.02 146.016 282.7C146.036 282.36 146.046 281.83 146.046 281.11V277.42C146.046 277 146.046 276.65 146.046 276.37C146.046 276.07 146.036 275.81 146.016 275.59C146.016 275.37 146.006 275.17 145.986 274.99C145.986 274.81 145.976 274.62 145.956 274.42C145.936 274.34 145.906 274.25 145.866 274.15C145.846 274.05 145.786 273.96 145.686 273.88C145.606 273.8 145.476 273.74 145.296 273.7C145.116 273.64 144.876 273.61 144.576 273.61H138.066V278.26C138.066 279.1 138.066 279.81 138.066 280.39C138.066 280.95 138.066 281.43 138.066 281.83C138.086 282.21 138.106 282.54 138.126 282.82C138.146 283.1 138.166 283.38 138.186 283.66C138.226 283.96 138.266 284.25 138.306 284.53C138.366 284.79 138.476 284.99 138.636 285.13C138.736 285.21 138.876 285.27 139.056 285.31C139.256 285.35 139.456 285.38 139.656 285.4C139.876 285.42 140.086 285.44 140.286 285.46C140.486 285.46 140.646 285.46 140.766 285.46L140.916 285.61L140.976 286L140.916 286.12C140.776 286.12 140.546 286.11 140.226 286.09C139.926 286.07 139.606 286.05 139.266 286.03C138.926 286.03 138.596 286.02 138.276 286C137.976 286 137.756 286 137.616 286H136.896C136.756 286 136.536 286 136.236 286C135.956 286.02 135.656 286.03 135.336 286.03C135.016 286.05 134.706 286.07 134.406 286.09C134.126 286.11 133.916 286.12 133.776 286.12L133.746 286L133.776 285.58L133.896 285.46C134.216 285.46 134.526 285.45 134.826 285.43C135.146 285.39 135.386 285.29 135.546 285.13C135.666 285.01 135.766 284.86 135.846 284.68C135.926 284.48 135.976 284.16 135.996 283.72C136.036 283.28 136.056 282.69 136.056 281.95C136.076 281.21 136.086 280.22 136.086 278.98V273.61H133.866L133.746 273.46V272.92L133.866 272.8L136.086 272.35V271.42C136.086 270.24 136.196 269.17 136.416 268.21C136.636 267.25 136.986 266.44 137.466 265.78C137.946 265.1 138.566 264.58 139.326 264.22C140.086 263.84 141.006 263.65 142.086 263.65C142.986 263.65 143.826 263.77 144.606 264.01C145.386 264.23 146.036 264.52 146.556 264.88L146.706 265.18L146.346 267.49H145.566C145.406 266.73 145.016 266.15 144.396 265.75C143.776 265.33 142.866 265.12 141.666 265.12C140.846 265.12 140.196 265.26 139.716 265.54C139.256 265.8 138.896 266.16 138.636 266.62C138.396 267.06 138.236 267.57 138.156 268.15C138.096 268.73 138.066 269.33 138.066 269.95V272.35C140.306 272.35 142.266 272.33 143.946 272.29C145.646 272.25 147.036 272.18 148.116 272.08L148.296 272.35C148.256 272.43 148.216 272.57 148.176 272.77C148.156 272.97 148.136 273.19 148.116 273.43C148.116 273.65 148.106 273.87 148.086 274.09C148.086 274.31 148.086 274.48 148.086 274.6C148.086 274.76 148.076 274.92 148.056 275.08C148.056 275.22 148.056 275.39 148.056 275.59C148.056 275.79 148.046 276.03 148.026 276.31C148.026 276.59 148.026 276.95 148.026 277.39V280.75C148.026 281.19 148.026 281.55 148.026 281.83C148.046 282.11 148.056 282.35 148.056 282.55C148.076 282.75 148.086 282.94 148.086 283.12C148.106 283.28 148.126 283.46 148.146 283.66C148.186 284.08 148.226 284.4 148.266 284.62C148.326 284.82 148.436 284.99 148.596 285.13C148.756 285.27 148.976 285.36 149.256 285.4C149.556 285.44 149.856 285.46 150.156 285.46L150.306 285.61L150.366 286L150.306 286.12ZM156.677 274.78C157.197 273.92 157.867 273.2 158.687 272.62C159.507 272.04 160.527 271.75 161.747 271.75C162.307 271.75 162.867 271.83 163.427 271.99C163.987 272.15 164.497 272.4 164.957 272.74C165.437 273.08 165.827 273.52 166.127 274.06C166.447 274.58 166.657 275.2 166.757 275.92C166.817 276.44 166.847 276.99 166.847 277.57C166.867 278.15 166.877 278.73 166.877 279.31C166.877 280.03 166.877 280.76 166.877 281.5C166.897 282.22 166.907 282.94 166.907 283.66C166.947 284.12 166.997 284.46 167.057 284.68C167.117 284.88 167.207 285.03 167.327 285.13C167.507 285.29 167.747 285.39 168.047 285.43C168.367 285.45 168.687 285.46 169.007 285.46L169.097 285.58L169.157 286L169.097 286.12C168.757 286.08 168.377 286.05 167.957 286.03C167.537 286.01 167.127 286 166.727 286C165.967 286 165.277 286.03 164.657 286.09L164.447 285.79C164.527 285.53 164.587 285.19 164.627 284.77C164.667 284.35 164.697 283.98 164.717 283.66C164.757 282.82 164.787 282 164.807 281.2C164.827 280.38 164.837 279.7 164.837 279.16C164.837 278.7 164.817 278.2 164.777 277.66C164.757 277.12 164.697 276.65 164.597 276.25C164.397 275.31 163.987 274.61 163.367 274.15C162.747 273.69 162.027 273.46 161.207 273.46C160.547 273.46 159.927 273.6 159.347 273.88C158.787 274.16 158.307 274.51 157.907 274.93C157.507 275.33 157.187 275.76 156.947 276.22C156.727 276.66 156.617 277.04 156.617 277.36V280.75C156.617 281.19 156.617 281.55 156.617 281.83C156.617 282.11 156.617 282.35 156.617 282.55C156.637 282.75 156.657 282.94 156.677 283.12C156.697 283.28 156.717 283.46 156.737 283.66C156.777 284.08 156.817 284.4 156.857 284.62C156.917 284.82 157.027 284.99 157.187 285.13C157.347 285.27 157.567 285.36 157.847 285.4C158.147 285.44 158.447 285.46 158.747 285.46L158.897 285.61L158.957 286L158.897 286.12C158.757 286.12 158.547 286.11 158.267 286.09C157.987 286.07 157.687 286.05 157.367 286.03C157.047 286.03 156.747 286.02 156.467 286C156.187 286 155.977 286 155.837 286H155.417C155.277 286 155.057 286 154.757 286C154.477 286.02 154.177 286.03 153.857 286.03C153.557 286.05 153.257 286.07 152.957 286.09C152.677 286.11 152.467 286.12 152.327 286.12L152.297 286L152.327 285.58L152.447 285.46C152.767 285.46 153.077 285.45 153.377 285.43C153.697 285.39 153.937 285.29 154.097 285.13C154.257 284.99 154.357 284.81 154.397 284.59C154.457 284.37 154.507 284.06 154.547 283.66C154.567 283.34 154.587 283.02 154.607 282.7C154.627 282.36 154.637 281.83 154.637 281.11V277.42C154.637 277 154.637 276.65 154.637 276.37C154.637 276.07 154.627 275.81 154.607 275.59C154.607 275.37 154.597 275.17 154.577 274.99C154.577 274.81 154.567 274.62 154.547 274.42C154.507 274.2 154.447 274.01 154.367 273.85C154.287 273.67 154.217 273.55 154.157 273.49C153.957 273.25 153.707 273.11 153.407 273.07C153.107 273.01 152.797 272.98 152.477 272.98L152.357 272.86V272.44L152.477 272.35H153.017C153.357 272.35 153.787 272.35 154.307 272.35C154.827 272.33 155.277 272.29 155.657 272.23L156.707 272.08L156.887 272.35C156.787 272.61 156.717 272.97 156.677 273.43C156.637 273.87 156.607 274.3 156.587 274.72L156.677 274.78ZM177.478 286.12C177.338 286.12 177.128 286.11 176.848 286.09C176.568 286.07 176.268 286.05 175.948 286.03C175.628 286.03 175.328 286.02 175.048 286C174.768 286 174.558 286 174.418 286H173.998C173.858 286 173.638 286 173.338 286C173.058 286.02 172.758 286.03 172.438 286.03C172.138 286.05 171.838 286.07 171.538 286.09C171.258 286.11 171.048 286.12 170.908 286.12L170.878 286L170.908 285.58L171.028 285.46C171.348 285.46 171.658 285.45 171.958 285.43C172.278 285.39 172.518 285.29 172.678 285.13C172.838 284.99 172.938 284.81 172.978 284.59C173.038 284.37 173.088 284.06 173.128 283.66C173.148 283.34 173.168 283.02 173.188 282.7C173.208 282.36 173.218 281.83 173.218 281.11V277.42C173.218 277 173.218 276.65 173.218 276.37C173.218 276.07 173.208 275.81 173.188 275.59C173.188 275.37 173.178 275.17 173.158 274.99C173.158 274.81 173.148 274.62 173.128 274.42C173.088 274.2 173.028 274.01 172.948 273.85C172.868 273.67 172.798 273.55 172.738 273.49C172.538 273.25 172.288 273.11 171.988 273.07C171.688 273.01 171.378 272.98 171.058 272.98L170.938 272.86V272.44L171.058 272.35H171.598C171.938 272.35 172.368 272.35 172.888 272.35C173.408 272.33 173.858 272.29 174.238 272.23L175.288 272.08L175.468 272.35C175.428 272.43 175.388 272.57 175.348 272.77C175.328 272.97 175.308 273.19 175.288 273.43C175.288 273.65 175.278 273.87 175.258 274.09C175.258 274.31 175.258 274.48 175.258 274.6C175.258 274.76 175.248 274.92 175.228 275.08C175.228 275.22 175.228 275.39 175.228 275.59C175.228 275.79 175.218 276.03 175.198 276.31C175.198 276.59 175.198 276.95 175.198 277.39V280.75C175.198 281.19 175.198 281.55 175.198 281.83C175.218 282.11 175.228 282.35 175.228 282.55C175.248 282.75 175.258 282.94 175.258 283.12C175.278 283.28 175.298 283.46 175.318 283.66C175.358 284.08 175.398 284.4 175.438 284.62C175.498 284.82 175.608 284.99 175.768 285.13C175.928 285.27 176.148 285.36 176.428 285.4C176.728 285.44 177.028 285.46 177.328 285.46L177.478 285.61L177.538 286L177.478 286.12ZM172.438 267.07C172.438 266.67 172.568 266.33 172.828 266.05C173.108 265.75 173.448 265.6 173.848 265.6C174.248 265.6 174.588 265.75 174.868 266.05C175.168 266.33 175.318 266.67 175.318 267.07C175.318 267.47 175.168 267.81 174.868 268.09C174.588 268.35 174.248 268.48 173.848 268.48C173.448 268.48 173.108 268.35 172.828 268.09C172.568 267.81 172.438 267.47 172.438 267.07ZM186.609 278.05C187.449 278.23 188.119 278.48 188.619 278.8C189.139 279.1 189.539 279.43 189.819 279.79C190.099 280.15 190.279 280.52 190.359 280.9C190.459 281.26 190.509 281.6 190.509 281.92C190.509 282.56 190.379 283.15 190.119 283.69C189.859 284.23 189.479 284.7 188.979 285.1C188.499 285.48 187.909 285.78 187.209 286C186.509 286.22 185.719 286.33 184.839 286.33C183.859 286.33 182.939 286.22 182.079 286C181.239 285.76 180.569 285.51 180.069 285.25L180.009 284.98L180.459 281.89H181.149L181.239 282.01C181.239 282.97 181.539 283.73 182.139 284.29C182.739 284.83 183.609 285.1 184.749 285.1C185.429 285.1 185.999 285.02 186.459 284.86C186.919 284.7 187.279 284.49 187.539 284.23C187.819 283.97 188.019 283.69 188.139 283.39C188.259 283.09 188.319 282.8 188.319 282.52C188.319 282.34 188.309 282.14 188.289 281.92C188.269 281.68 188.189 281.45 188.049 281.23C187.909 280.99 187.699 280.77 187.419 280.57C187.139 280.35 186.739 280.17 186.219 280.03L183.339 279.31C182.679 279.15 182.139 278.94 181.719 278.68C181.299 278.42 180.969 278.14 180.729 277.84C180.489 277.52 180.319 277.19 180.219 276.85C180.119 276.49 180.069 276.13 180.069 275.77C180.069 275.11 180.199 274.53 180.459 274.03C180.719 273.51 181.069 273.09 181.509 272.77C181.969 272.43 182.499 272.18 183.099 272.02C183.699 271.84 184.349 271.75 185.049 271.75C185.989 271.75 186.849 271.87 187.629 272.11C188.429 272.35 189.049 272.59 189.489 272.83L189.579 273.1L189.249 275.41H188.619L188.499 275.32C188.499 274.86 188.369 274.48 188.109 274.18C187.869 273.86 187.569 273.61 187.209 273.43C186.849 273.23 186.469 273.09 186.069 273.01C185.669 272.93 185.319 272.89 185.019 272.89C184.019 272.89 183.299 273.14 182.859 273.64C182.419 274.14 182.199 274.7 182.199 275.32C182.199 275.78 182.349 276.22 182.649 276.64C182.969 277.04 183.579 277.35 184.479 277.57L186.609 278.05ZM204.743 285.79C204.823 285.53 204.883 285.19 204.923 284.77C204.963 284.35 204.993 283.98 205.013 283.66C205.053 282.82 205.083 282 205.103 281.2C205.123 280.38 205.133 279.7 205.133 279.16C205.133 278.7 205.113 278.2 205.073 277.66C205.053 277.12 204.993 276.65 204.893 276.25C204.693 275.31 204.283 274.61 203.663 274.15C203.043 273.69 202.323 273.46 201.503 273.46C200.843 273.46 200.223 273.61 199.643 273.91C199.083 274.19 198.603 274.54 198.203 274.96C197.803 275.36 197.483 275.79 197.243 276.25C197.023 276.69 196.913 277.06 196.913 277.36C196.913 278.44 196.913 279.31 196.913 279.97C196.913 280.61 196.913 281.15 196.913 281.59C196.933 282.03 196.943 282.4 196.943 282.7C196.963 282.98 196.993 283.3 197.033 283.66C197.073 284.08 197.113 284.4 197.153 284.62C197.213 284.82 197.323 284.99 197.483 285.13C197.643 285.27 197.863 285.36 198.143 285.4C198.443 285.44 198.743 285.46 199.043 285.46L199.193 285.61L199.253 286L199.193 286.12C199.053 286.12 198.843 286.11 198.563 286.09C198.283 286.07 197.983 286.05 197.663 286.03C197.343 286.03 197.043 286.02 196.763 286C196.483 286 196.273 286 196.133 286H195.713C195.573 286 195.353 286 195.053 286C194.773 286.02 194.473 286.03 194.153 286.03C193.853 286.05 193.553 286.07 193.253 286.09C192.973 286.11 192.763 286.12 192.623 286.12L192.593 286L192.623 285.58L192.743 285.46C193.063 285.46 193.373 285.45 193.673 285.43C193.993 285.39 194.233 285.29 194.393 285.13C194.553 284.99 194.653 284.81 194.693 284.59C194.753 284.37 194.803 284.06 194.843 283.66C194.863 283.4 194.873 283.14 194.873 282.88C194.893 282.62 194.903 282.32 194.903 281.98C194.923 281.62 194.933 281.21 194.933 280.75C194.933 280.27 194.933 279.68 194.933 278.98V271.78C194.933 270.96 194.933 270.27 194.933 269.71C194.933 269.13 194.923 268.63 194.903 268.21C194.903 267.79 194.893 267.42 194.873 267.1C194.873 266.78 194.863 266.46 194.843 266.14C194.823 265.92 194.763 265.73 194.663 265.57C194.583 265.41 194.513 265.29 194.453 265.21C194.253 264.99 194.003 264.85 193.703 264.79C193.403 264.73 193.093 264.7 192.773 264.7L192.653 264.58V264.19L192.773 264.07H193.313C193.653 264.07 194.083 264.07 194.603 264.07C195.123 264.05 195.573 264.01 195.953 263.95L197.003 263.8L197.183 264.07C197.143 264.15 197.113 264.3 197.093 264.52C197.073 264.72 197.053 264.94 197.033 265.18C197.013 265.42 197.003 265.65 197.003 265.87C197.003 266.09 197.003 266.26 197.003 266.38C197.003 267.02 196.983 267.79 196.943 268.69C196.923 269.57 196.913 270.58 196.913 271.72C196.913 272.56 196.903 273.22 196.883 273.7C196.883 274.18 196.863 274.56 196.823 274.84L196.913 274.9C197.413 274.02 198.083 273.28 198.923 272.68C199.763 272.06 200.803 271.75 202.043 271.75C202.603 271.75 203.163 271.83 203.723 271.99C204.303 272.15 204.823 272.4 205.283 272.74C205.743 273.08 206.133 273.51 206.453 274.03C206.773 274.55 206.973 275.17 207.053 275.89C207.113 276.41 207.143 277.01 207.143 277.69C207.163 278.35 207.173 278.89 207.173 279.31V283.54C207.173 284 207.213 284.36 207.293 284.62C207.393 284.86 207.503 285.03 207.623 285.13C207.803 285.29 208.043 285.39 208.343 285.43C208.663 285.45 208.983 285.46 209.303 285.46L209.393 285.58L209.453 286L209.393 286.12C209.053 286.08 208.673 286.05 208.253 286.03C207.833 286.01 207.423 286 207.023 286C206.263 286 205.573 286.03 204.953 286.09L204.743 285.79ZM224.593 277.93L224.113 278.14C223.033 278.14 221.923 278.15 220.783 278.17C219.643 278.19 218.523 278.2 217.423 278.2H213.883C213.863 278.34 213.853 278.48 213.853 278.62C213.853 278.74 213.853 278.86 213.853 278.98C213.853 279.74 213.963 280.47 214.183 281.17C214.403 281.85 214.743 282.45 215.203 282.97C215.683 283.49 216.293 283.91 217.033 284.23C217.773 284.53 218.673 284.68 219.733 284.68C220.353 284.68 221.013 284.62 221.713 284.5C222.433 284.36 223.093 284.12 223.693 283.78L223.993 283.96V284.5L223.693 284.83C223.213 285.21 222.533 285.56 221.653 285.88C220.773 286.18 219.793 286.33 218.713 286.33C217.653 286.33 216.683 286.16 215.803 285.82C214.943 285.46 214.193 284.96 213.553 284.32C212.933 283.68 212.443 282.92 212.083 282.04C211.743 281.16 211.573 280.18 211.573 279.1C211.573 278 211.753 277 212.113 276.1C212.473 275.2 212.963 274.43 213.583 273.79C214.223 273.15 214.963 272.65 215.803 272.29C216.663 271.93 217.583 271.75 218.563 271.75C219.083 271.75 219.663 271.82 220.303 271.96C220.963 272.1 221.593 272.37 222.193 272.77C222.793 273.15 223.333 273.7 223.813 274.42C224.293 275.12 224.623 276.05 224.803 277.21L224.593 277.93ZM218.593 273.1C217.953 273.1 217.373 273.21 216.853 273.43C216.353 273.63 215.903 273.91 215.503 274.27C215.123 274.61 214.803 275.02 214.543 275.5C214.303 275.96 214.133 276.45 214.033 276.97H215.203C216.283 276.97 217.333 276.96 218.353 276.94C219.373 276.9 220.443 276.85 221.563 276.79C221.823 276.77 221.993 276.7 222.073 276.58C222.173 276.46 222.223 276.32 222.223 276.16C222.223 276.04 222.213 275.93 222.193 275.83C222.173 275.73 222.143 275.63 222.103 275.53C221.883 274.77 221.473 274.18 220.873 273.76C220.273 273.32 219.513 273.1 218.593 273.1ZM238.855 285.79C238.915 285.57 238.965 285.24 239.005 284.8C239.065 284.36 239.115 283.97 239.155 283.63L239.125 283.51C238.565 284.35 237.875 285.03 237.055 285.55C236.235 286.07 235.295 286.33 234.235 286.33C233.095 286.33 232.105 286.13 231.265 285.73C230.445 285.33 229.765 284.8 229.225 284.14C228.705 283.48 228.315 282.73 228.055 281.89C227.795 281.03 227.665 280.14 227.665 279.22C227.665 277.86 227.875 276.71 228.295 275.77C228.715 274.81 229.245 274.04 229.885 273.46C230.525 272.86 231.225 272.43 231.985 272.17C232.765 271.89 233.505 271.75 234.205 271.75C235.165 271.75 236.085 271.97 236.965 272.41C237.845 272.83 238.595 273.55 239.215 274.57L239.275 274.45C239.235 273.99 239.215 273.55 239.215 273.13C239.215 272.69 239.215 272.24 239.215 271.78C239.215 270.96 239.215 270.27 239.215 269.71C239.215 269.13 239.205 268.63 239.185 268.21C239.185 267.79 239.175 267.42 239.155 267.1C239.155 266.78 239.145 266.46 239.125 266.14C239.105 265.92 239.045 265.73 238.945 265.57C238.865 265.41 238.795 265.29 238.735 265.21C238.535 264.99 238.285 264.85 237.985 264.79C237.685 264.73 237.375 264.7 237.055 264.7L236.935 264.58V264.19L237.055 264.07H237.595C237.935 264.07 238.365 264.07 238.885 264.07C239.405 264.05 239.855 264.01 240.235 263.95L241.285 263.8L241.465 264.07C241.425 264.15 241.385 264.3 241.345 264.52C241.325 264.72 241.305 264.94 241.285 265.18C241.285 265.42 241.275 265.65 241.255 265.87C241.255 266.09 241.255 266.26 241.255 266.38C241.255 266.7 241.245 267 241.225 267.28C241.225 267.56 241.225 267.89 241.225 268.27C241.225 268.65 241.215 269.11 241.195 269.65C241.195 270.19 241.195 270.88 241.195 271.72V278.26C241.195 279.1 241.195 279.79 241.195 280.33C241.215 280.87 241.225 281.33 241.225 281.71C241.245 282.09 241.255 282.42 241.255 282.7C241.275 282.98 241.295 283.3 241.315 283.66C241.355 284.12 241.405 284.46 241.465 284.68C241.525 284.88 241.615 285.03 241.735 285.13C241.915 285.29 242.155 285.39 242.455 285.43C242.755 285.45 243.065 285.46 243.385 285.46L243.505 285.58L243.565 286L243.505 286.12C243.145 286.08 242.755 286.05 242.335 286.03C241.935 286.01 241.525 286 241.105 286C240.365 286 239.685 286.03 239.065 286.09L238.855 285.79ZM229.945 279.16C229.945 279.84 230.035 280.51 230.215 281.17C230.395 281.83 230.665 282.42 231.025 282.94C231.385 283.44 231.845 283.85 232.405 284.17C232.965 284.47 233.635 284.62 234.415 284.62C235.155 284.62 235.815 284.48 236.395 284.2C236.995 283.92 237.495 283.58 237.895 283.18C238.295 282.78 238.605 282.36 238.825 281.92C239.065 281.48 239.195 281.1 239.215 280.78V277.45C239.175 277.13 239.045 276.74 238.825 276.28C238.625 275.82 238.325 275.38 237.925 274.96C237.545 274.52 237.065 274.15 236.485 273.85C235.925 273.55 235.255 273.4 234.475 273.4C233.675 273.4 232.985 273.57 232.405 273.91C231.845 274.23 231.375 274.66 230.995 275.2C230.635 275.74 230.365 276.36 230.185 277.06C230.025 277.74 229.945 278.44 229.945 279.16ZM260.121 278.05C260.961 278.23 261.631 278.48 262.131 278.8C262.651 279.1 263.051 279.43 263.331 279.79C263.611 280.15 263.791 280.52 263.871 280.9C263.971 281.26 264.021 281.6 264.021 281.92C264.021 282.56 263.891 283.15 263.631 283.69C263.371 284.23 262.991 284.7 262.491 285.1C262.011 285.48 261.421 285.78 260.721 286C260.021 286.22 259.231 286.33 258.351 286.33C257.371 286.33 256.451 286.22 255.591 286C254.751 285.76 254.081 285.51 253.581 285.25L253.521 284.98L253.971 281.89H254.661L254.751 282.01C254.751 282.97 255.051 283.73 255.651 284.29C256.251 284.83 257.121 285.1 258.261 285.1C258.941 285.1 259.511 285.02 259.971 284.86C260.431 284.7 260.791 284.49 261.051 284.23C261.331 283.97 261.531 283.69 261.651 283.39C261.771 283.09 261.831 282.8 261.831 282.52C261.831 282.34 261.821 282.14 261.801 281.92C261.781 281.68 261.701 281.45 261.561 281.23C261.421 280.99 261.211 280.77 260.931 280.57C260.651 280.35 260.251 280.17 259.731 280.03L256.851 279.31C256.191 279.15 255.651 278.94 255.231 278.68C254.811 278.42 254.481 278.14 254.241 277.84C254.001 277.52 253.831 277.19 253.731 276.85C253.631 276.49 253.581 276.13 253.581 275.77C253.581 275.11 253.711 274.53 253.971 274.03C254.231 273.51 254.581 273.09 255.021 272.77C255.481 272.43 256.011 272.18 256.611 272.02C257.211 271.84 257.861 271.75 258.561 271.75C259.501 271.75 260.361 271.87 261.141 272.11C261.941 272.35 262.561 272.59 263.001 272.83L263.091 273.1L262.761 275.41H262.131L262.011 275.32C262.011 274.86 261.881 274.48 261.621 274.18C261.381 273.86 261.081 273.61 260.721 273.43C260.361 273.23 259.981 273.09 259.581 273.01C259.181 272.93 258.831 272.89 258.531 272.89C257.531 272.89 256.811 273.14 256.371 273.64C255.931 274.14 255.711 274.7 255.711 275.32C255.711 275.78 255.861 276.22 256.161 276.64C256.481 277.04 257.091 277.35 257.991 277.57L260.121 278.05ZM278.254 285.79C278.334 285.53 278.394 285.19 278.434 284.77C278.474 284.35 278.504 283.98 278.524 283.66C278.564 282.82 278.594 282 278.614 281.2C278.634 280.38 278.644 279.7 278.644 279.16C278.644 278.7 278.624 278.2 278.584 277.66C278.564 277.12 278.504 276.65 278.404 276.25C278.204 275.31 277.794 274.61 277.174 274.15C276.554 273.69 275.834 273.46 275.014 273.46C274.354 273.46 273.734 273.61 273.154 273.91C272.594 274.19 272.114 274.54 271.714 274.96C271.314 275.36 270.994 275.79 270.754 276.25C270.534 276.69 270.424 277.06 270.424 277.36C270.424 278.44 270.424 279.31 270.424 279.97C270.424 280.61 270.424 281.15 270.424 281.59C270.444 282.03 270.454 282.4 270.454 282.7C270.474 282.98 270.504 283.3 270.544 283.66C270.584 284.08 270.624 284.4 270.664 284.62C270.724 284.82 270.834 284.99 270.994 285.13C271.154 285.27 271.374 285.36 271.654 285.4C271.954 285.44 272.254 285.46 272.554 285.46L272.704 285.61L272.764 286L272.704 286.12C272.564 286.12 272.354 286.11 272.074 286.09C271.794 286.07 271.494 286.05 271.174 286.03C270.854 286.03 270.554 286.02 270.274 286C269.994 286 269.784 286 269.644 286H269.224C269.084 286 268.864 286 268.564 286C268.284 286.02 267.984 286.03 267.664 286.03C267.364 286.05 267.064 286.07 266.764 286.09C266.484 286.11 266.274 286.12 266.134 286.12L266.104 286L266.134 285.58L266.254 285.46C266.574 285.46 266.884 285.45 267.184 285.43C267.504 285.39 267.744 285.29 267.904 285.13C268.064 284.99 268.164 284.81 268.204 284.59C268.264 284.37 268.314 284.06 268.354 283.66C268.374 283.4 268.384 283.14 268.384 282.88C268.404 282.62 268.414 282.32 268.414 281.98C268.434 281.62 268.444 281.21 268.444 280.75C268.444 280.27 268.444 279.68 268.444 278.98V271.78C268.444 270.96 268.444 270.27 268.444 269.71C268.444 269.13 268.434 268.63 268.414 268.21C268.414 267.79 268.404 267.42 268.384 267.1C268.384 266.78 268.374 266.46 268.354 266.14C268.334 265.92 268.274 265.73 268.174 265.57C268.094 265.41 268.024 265.29 267.964 265.21C267.764 264.99 267.514 264.85 267.214 264.79C266.914 264.73 266.604 264.7 266.284 264.7L266.164 264.58V264.19L266.284 264.07H266.824C267.164 264.07 267.594 264.07 268.114 264.07C268.634 264.05 269.084 264.01 269.464 263.95L270.514 263.8L270.694 264.07C270.654 264.15 270.624 264.3 270.604 264.52C270.584 264.72 270.564 264.94 270.544 265.18C270.524 265.42 270.514 265.65 270.514 265.87C270.514 266.09 270.514 266.26 270.514 266.38C270.514 267.02 270.494 267.79 270.454 268.69C270.434 269.57 270.424 270.58 270.424 271.72C270.424 272.56 270.414 273.22 270.394 273.7C270.394 274.18 270.374 274.56 270.334 274.84L270.424 274.9C270.924 274.02 271.594 273.28 272.434 272.68C273.274 272.06 274.314 271.75 275.554 271.75C276.114 271.75 276.674 271.83 277.234 271.99C277.814 272.15 278.334 272.4 278.794 272.74C279.254 273.08 279.644 273.51 279.964 274.03C280.284 274.55 280.484 275.17 280.564 275.89C280.624 276.41 280.654 277.01 280.654 277.69C280.674 278.35 280.684 278.89 280.684 279.31V283.54C280.684 284 280.724 284.36 280.804 284.62C280.904 284.86 281.014 285.03 281.134 285.13C281.314 285.29 281.554 285.39 281.854 285.43C282.174 285.45 282.494 285.46 282.814 285.46L282.904 285.58L282.964 286L282.904 286.12C282.564 286.08 282.184 286.05 281.764 286.03C281.344 286.01 280.934 286 280.534 286C279.774 286 279.084 286.03 278.464 286.09L278.254 285.79ZM292.435 271.75C293.615 271.75 294.665 271.96 295.585 272.38C296.505 272.78 297.275 273.33 297.895 274.03C298.535 274.71 299.015 275.5 299.335 276.4C299.675 277.3 299.845 278.23 299.845 279.19C299.845 280.11 299.695 281 299.395 281.86C299.095 282.72 298.635 283.48 298.015 284.14C297.395 284.8 296.625 285.33 295.705 285.73C294.785 286.13 293.715 286.33 292.495 286.33C291.235 286.33 290.135 286.12 289.195 285.7C288.255 285.28 287.475 284.73 286.855 284.05C286.255 283.37 285.805 282.6 285.505 281.74C285.205 280.86 285.055 279.96 285.055 279.04C285.055 278.06 285.225 277.13 285.565 276.25C285.905 275.37 286.385 274.6 287.005 273.94C287.645 273.26 288.415 272.73 289.315 272.35C290.235 271.95 291.275 271.75 292.435 271.75ZM292.465 285.16C293.305 285.16 294.045 284.99 294.685 284.65C295.325 284.31 295.855 283.86 296.275 283.3C296.695 282.74 297.005 282.11 297.205 281.41C297.425 280.69 297.535 279.95 297.535 279.19C297.535 278.47 297.415 277.74 297.175 277C296.955 276.26 296.625 275.6 296.185 275.02C295.745 274.42 295.205 273.94 294.565 273.58C293.925 273.2 293.185 273.01 292.345 273.01C291.465 273.01 290.705 273.19 290.065 273.55C289.445 273.89 288.925 274.34 288.505 274.9C288.105 275.46 287.805 276.1 287.605 276.82C287.405 277.54 287.305 278.26 287.305 278.98C287.305 279.72 287.415 280.46 287.635 281.2C287.875 281.92 288.215 282.58 288.655 283.18C289.095 283.76 289.635 284.24 290.275 284.62C290.915 284.98 291.645 285.16 292.465 285.16ZM306.535 274.48C307.115 273.66 307.815 273 308.635 272.5C309.475 272 310.405 271.75 311.425 271.75C312.565 271.75 313.545 271.95 314.365 272.35C315.205 272.75 315.895 273.28 316.435 273.94C316.975 274.6 317.375 275.36 317.635 276.22C317.895 277.06 318.025 277.94 318.025 278.86C318.025 280.22 317.815 281.38 317.395 282.34C316.975 283.28 316.435 284.05 315.775 284.65C315.135 285.23 314.425 285.66 313.645 285.94C312.885 286.2 312.155 286.33 311.455 286.33C310.495 286.33 309.575 286.11 308.695 285.67C307.815 285.21 307.065 284.47 306.445 283.45L306.355 283.51C306.375 283.79 306.395 284.12 306.415 284.5C306.435 284.88 306.445 285.43 306.445 286.15C306.445 286.97 306.445 287.63 306.445 288.13C306.445 288.65 306.445 289.09 306.445 289.45C306.465 289.81 306.475 290.13 306.475 290.41C306.495 290.71 306.525 291.03 306.565 291.37C306.605 291.77 306.645 292.08 306.685 292.3C306.745 292.52 306.855 292.69 307.015 292.81C307.175 292.97 307.395 293.07 307.675 293.11C307.975 293.15 308.275 293.17 308.575 293.17L308.725 293.29L308.785 293.71L308.725 293.8C308.585 293.8 308.375 293.79 308.095 293.77C307.815 293.77 307.515 293.76 307.195 293.74C306.875 293.74 306.575 293.73 306.295 293.71C306.015 293.71 305.805 293.71 305.665 293.71H305.245C305.105 293.71 304.885 293.71 304.585 293.71C304.305 293.73 304.005 293.74 303.685 293.74C303.385 293.76 303.085 293.77 302.785 293.77C302.505 293.79 302.295 293.8 302.155 293.8L302.125 293.71L302.155 293.26L302.275 293.17C302.595 293.17 302.905 293.15 303.205 293.11C303.505 293.07 303.745 292.97 303.925 292.81C304.085 292.67 304.185 292.49 304.225 292.27C304.285 292.07 304.335 291.77 304.375 291.37C304.395 291.11 304.405 290.85 304.405 290.59C304.425 290.35 304.435 290.06 304.435 289.72C304.455 289.38 304.465 288.98 304.465 288.52C304.465 288.06 304.465 287.5 304.465 286.84V279.85C304.465 279.05 304.465 278.38 304.465 277.84C304.465 277.3 304.455 276.83 304.435 276.43C304.435 276.03 304.425 275.68 304.405 275.38C304.405 275.06 304.395 274.74 304.375 274.42C304.355 274.2 304.295 274.01 304.195 273.85C304.115 273.67 304.045 273.55 303.985 273.49C303.785 273.25 303.535 273.11 303.235 273.07C302.935 273.01 302.625 272.98 302.305 272.98L302.185 272.86V272.44L302.305 272.35H302.845C303.185 272.35 303.615 272.35 304.135 272.35C304.655 272.33 305.105 272.29 305.485 272.23L306.535 272.08L306.715 272.35C306.675 272.43 306.635 272.56 306.595 272.74C306.575 272.9 306.545 273.09 306.505 273.31C306.485 273.51 306.465 273.72 306.445 273.94C306.445 274.14 306.445 274.31 306.445 274.45L306.535 274.48ZM315.745 278.92C315.745 278.24 315.655 277.57 315.475 276.91C315.295 276.25 315.015 275.67 314.635 275.17C314.275 274.65 313.815 274.24 313.255 273.94C312.695 273.62 312.035 273.46 311.275 273.46C310.515 273.46 309.845 273.6 309.265 273.88C308.685 274.16 308.185 274.51 307.765 274.93C307.365 275.33 307.045 275.75 306.805 276.19C306.585 276.63 306.465 277.01 306.445 277.33V280.63C306.505 280.95 306.635 281.34 306.835 281.8C307.035 282.26 307.325 282.71 307.705 283.15C308.105 283.57 308.595 283.93 309.175 284.23C309.755 284.53 310.435 284.68 311.215 284.68C311.995 284.68 312.665 284.52 313.225 284.2C313.805 283.86 314.275 283.42 314.635 282.88C315.015 282.34 315.295 281.73 315.475 281.05C315.655 280.35 315.745 279.64 315.745 278.92ZM324.765 274.48C325.345 273.66 326.045 273 326.865 272.5C327.705 272 328.635 271.75 329.655 271.75C330.795 271.75 331.775 271.95 332.595 272.35C333.435 272.75 334.125 273.28 334.665 273.94C335.205 274.6 335.605 275.36 335.865 276.22C336.125 277.06 336.255 277.94 336.255 278.86C336.255 280.22 336.045 281.38 335.625 282.34C335.205 283.28 334.665 284.05 334.005 284.65C333.365 285.23 332.655 285.66 331.875 285.94C331.115 286.2 330.385 286.33 329.685 286.33C328.725 286.33 327.805 286.11 326.925 285.67C326.045 285.21 325.295 284.47 324.675 283.45L324.585 283.51C324.605 283.79 324.625 284.12 324.645 284.5C324.665 284.88 324.675 285.43 324.675 286.15C324.675 286.97 324.675 287.63 324.675 288.13C324.675 288.65 324.675 289.09 324.675 289.45C324.695 289.81 324.705 290.13 324.705 290.41C324.725 290.71 324.755 291.03 324.795 291.37C324.835 291.77 324.875 292.08 324.915 292.3C324.975 292.52 325.085 292.69 325.245 292.81C325.405 292.97 325.625 293.07 325.905 293.11C326.205 293.15 326.505 293.17 326.805 293.17L326.955 293.29L327.015 293.71L326.955 293.8C326.815 293.8 326.605 293.79 326.325 293.77C326.045 293.77 325.745 293.76 325.425 293.74C325.105 293.74 324.805 293.73 324.525 293.71C324.245 293.71 324.035 293.71 323.895 293.71H323.475C323.335 293.71 323.115 293.71 322.815 293.71C322.535 293.73 322.235 293.74 321.915 293.74C321.615 293.76 321.315 293.77 321.015 293.77C320.735 293.79 320.525 293.8 320.385 293.8L320.355 293.71L320.385 293.26L320.505 293.17C320.825 293.17 321.135 293.15 321.435 293.11C321.735 293.07 321.975 292.97 322.155 292.81C322.315 292.67 322.415 292.49 322.455 292.27C322.515 292.07 322.565 291.77 322.605 291.37C322.625 291.11 322.635 290.85 322.635 290.59C322.655 290.35 322.665 290.06 322.665 289.72C322.685 289.38 322.695 288.98 322.695 288.52C322.695 288.06 322.695 287.5 322.695 286.84V279.85C322.695 279.05 322.695 278.38 322.695 277.84C322.695 277.3 322.685 276.83 322.665 276.43C322.665 276.03 322.655 275.68 322.635 275.38C322.635 275.06 322.625 274.74 322.605 274.42C322.585 274.2 322.525 274.01 322.425 273.85C322.345 273.67 322.275 273.55 322.215 273.49C322.015 273.25 321.765 273.11 321.465 273.07C321.165 273.01 320.855 272.98 320.535 272.98L320.415 272.86V272.44L320.535 272.35H321.075C321.415 272.35 321.845 272.35 322.365 272.35C322.885 272.33 323.335 272.29 323.715 272.23L324.765 272.08L324.945 272.35C324.905 272.43 324.865 272.56 324.825 272.74C324.805 272.9 324.775 273.09 324.735 273.31C324.715 273.51 324.695 273.72 324.675 273.94C324.675 274.14 324.675 274.31 324.675 274.45L324.765 274.48ZM333.975 278.92C333.975 278.24 333.885 277.57 333.705 276.91C333.525 276.25 333.245 275.67 332.865 275.17C332.505 274.65 332.045 274.24 331.485 273.94C330.925 273.62 330.265 273.46 329.505 273.46C328.745 273.46 328.075 273.6 327.495 273.88C326.915 274.16 326.415 274.51 325.995 274.93C325.595 275.33 325.275 275.75 325.035 276.19C324.815 276.63 324.695 277.01 324.675 277.33V280.63C324.735 280.95 324.865 281.34 325.065 281.8C325.265 282.26 325.555 282.71 325.935 283.15C326.335 283.57 326.825 283.93 327.405 284.23C327.985 284.53 328.665 284.68 329.445 284.68C330.225 284.68 330.895 284.52 331.455 284.2C332.035 283.86 332.505 283.42 332.865 282.88C333.245 282.34 333.525 281.73 333.705 281.05C333.885 280.35 333.975 279.64 333.975 278.92ZM345.514 286.12C345.374 286.12 345.164 286.11 344.884 286.09C344.604 286.07 344.304 286.05 343.984 286.03C343.664 286.03 343.364 286.02 343.084 286C342.804 286 342.594 286 342.454 286H342.034C341.894 286 341.674 286 341.374 286C341.094 286.02 340.794 286.03 340.474 286.03C340.174 286.05 339.874 286.07 339.574 286.09C339.294 286.11 339.084 286.12 338.944 286.12L338.914 286L338.944 285.58L339.064 285.46C339.384 285.46 339.694 285.45 339.994 285.43C340.314 285.39 340.554 285.29 340.714 285.13C340.874 284.99 340.974 284.81 341.014 284.59C341.074 284.37 341.124 284.06 341.164 283.66C341.184 283.34 341.204 283.02 341.224 282.7C341.244 282.36 341.254 281.83 341.254 281.11V277.42C341.254 277 341.254 276.65 341.254 276.37C341.254 276.07 341.244 275.81 341.224 275.59C341.224 275.37 341.214 275.17 341.194 274.99C341.194 274.81 341.184 274.62 341.164 274.42C341.124 274.2 341.064 274.01 340.984 273.85C340.904 273.67 340.834 273.55 340.774 273.49C340.574 273.25 340.324 273.11 340.024 273.07C339.724 273.01 339.414 272.98 339.094 272.98L338.974 272.86V272.44L339.094 272.35H339.634C339.974 272.35 340.404 272.35 340.924 272.35C341.444 272.33 341.894 272.29 342.274 272.23L343.324 272.08L343.504 272.35C343.464 272.43 343.424 272.57 343.384 272.77C343.364 272.97 343.344 273.19 343.324 273.43C343.324 273.65 343.314 273.87 343.294 274.09C343.294 274.31 343.294 274.48 343.294 274.6C343.294 274.76 343.284 274.92 343.264 275.08C343.264 275.22 343.264 275.39 343.264 275.59C343.264 275.79 343.254 276.03 343.234 276.31C343.234 276.59 343.234 276.95 343.234 277.39V280.75C343.234 281.19 343.234 281.55 343.234 281.83C343.254 282.11 343.264 282.35 343.264 282.55C343.284 282.75 343.294 282.94 343.294 283.12C343.314 283.28 343.334 283.46 343.354 283.66C343.394 284.08 343.434 284.4 343.474 284.62C343.534 284.82 343.644 284.99 343.804 285.13C343.964 285.27 344.184 285.36 344.464 285.4C344.764 285.44 345.064 285.46 345.364 285.46L345.514 285.61L345.574 286L345.514 286.12ZM340.474 267.07C340.474 266.67 340.604 266.33 340.864 266.05C341.144 265.75 341.484 265.6 341.884 265.6C342.284 265.6 342.624 265.75 342.904 266.05C343.204 266.33 343.354 266.67 343.354 267.07C343.354 267.47 343.204 267.81 342.904 268.09C342.624 268.35 342.284 268.48 341.884 268.48C341.484 268.48 341.144 268.35 340.864 268.09C340.604 267.81 340.474 267.47 340.474 267.07ZM351.885 274.78C352.405 273.92 353.075 273.2 353.895 272.62C354.715 272.04 355.735 271.75 356.955 271.75C357.515 271.75 358.075 271.83 358.635 271.99C359.195 272.15 359.705 272.4 360.165 272.74C360.645 273.08 361.035 273.52 361.335 274.06C361.655 274.58 361.865 275.2 361.965 275.92C362.025 276.44 362.055 276.99 362.055 277.57C362.075 278.15 362.085 278.73 362.085 279.31C362.085 280.03 362.085 280.76 362.085 281.5C362.105 282.22 362.115 282.94 362.115 283.66C362.155 284.12 362.205 284.46 362.265 284.68C362.325 284.88 362.415 285.03 362.535 285.13C362.715 285.29 362.955 285.39 363.255 285.43C363.575 285.45 363.895 285.46 364.215 285.46L364.305 285.58L364.365 286L364.305 286.12C363.965 286.08 363.585 286.05 363.165 286.03C362.745 286.01 362.335 286 361.935 286C361.175 286 360.485 286.03 359.865 286.09L359.655 285.79C359.735 285.53 359.795 285.19 359.835 284.77C359.875 284.35 359.905 283.98 359.925 283.66C359.965 282.82 359.995 282 360.015 281.2C360.035 280.38 360.045 279.7 360.045 279.16C360.045 278.7 360.025 278.2 359.985 277.66C359.965 277.12 359.905 276.65 359.805 276.25C359.605 275.31 359.195 274.61 358.575 274.15C357.955 273.69 357.235 273.46 356.415 273.46C355.755 273.46 355.135 273.6 354.555 273.88C353.995 274.16 353.515 274.51 353.115 274.93C352.715 275.33 352.395 275.76 352.155 276.22C351.935 276.66 351.825 277.04 351.825 277.36V280.75C351.825 281.19 351.825 281.55 351.825 281.83C351.825 282.11 351.825 282.35 351.825 282.55C351.845 282.75 351.865 282.94 351.885 283.12C351.905 283.28 351.925 283.46 351.945 283.66C351.985 284.08 352.025 284.4 352.065 284.62C352.125 284.82 352.235 284.99 352.395 285.13C352.555 285.27 352.775 285.36 353.055 285.4C353.355 285.44 353.655 285.46 353.955 285.46L354.105 285.61L354.165 286L354.105 286.12C353.965 286.12 353.755 286.11 353.475 286.09C353.195 286.07 352.895 286.05 352.575 286.03C352.255 286.03 351.955 286.02 351.675 286C351.395 286 351.185 286 351.045 286H350.625C350.485 286 350.265 286 349.965 286C349.685 286.02 349.385 286.03 349.065 286.03C348.765 286.05 348.465 286.07 348.165 286.09C347.885 286.11 347.675 286.12 347.535 286.12L347.505 286L347.535 285.58L347.655 285.46C347.975 285.46 348.285 285.45 348.585 285.43C348.905 285.39 349.145 285.29 349.305 285.13C349.465 284.99 349.565 284.81 349.605 284.59C349.665 284.37 349.715 284.06 349.755 283.66C349.775 283.34 349.795 283.02 349.815 282.7C349.835 282.36 349.845 281.83 349.845 281.11V277.42C349.845 277 349.845 276.65 349.845 276.37C349.845 276.07 349.835 275.81 349.815 275.59C349.815 275.37 349.805 275.17 349.785 274.99C349.785 274.81 349.775 274.62 349.755 274.42C349.715 274.2 349.655 274.01 349.575 273.85C349.495 273.67 349.425 273.55 349.365 273.49C349.165 273.25 348.915 273.11 348.615 273.07C348.315 273.01 348.005 272.98 347.685 272.98L347.565 272.86V272.44L347.685 272.35H348.225C348.565 272.35 348.995 272.35 349.515 272.35C350.035 272.33 350.485 272.29 350.865 272.23L351.915 272.08L352.095 272.35C351.995 272.61 351.925 272.97 351.885 273.43C351.845 273.87 351.815 274.3 351.795 274.72L351.885 274.78ZM369.657 281.92C368.577 281.52 367.797 280.89 367.317 280.03C366.837 279.17 366.597 278.22 366.597 277.18C366.597 276.44 366.727 275.74 366.987 275.08C367.247 274.42 367.617 273.85 368.097 273.37C368.597 272.87 369.187 272.48 369.867 272.2C370.567 271.92 371.357 271.78 372.237 271.78C372.757 271.78 373.267 271.83 373.767 271.93C374.287 272.03 374.737 272.17 375.117 272.35C375.957 272.33 376.737 272.28 377.457 272.2C378.197 272.12 378.887 271.99 379.527 271.81L379.677 271.93L379.467 273.58L379.317 273.73L376.587 273.61L376.557 273.7C377.077 274.12 377.457 274.67 377.697 275.35C377.937 276.03 378.057 276.69 378.057 277.33C378.057 277.99 377.927 278.62 377.667 279.22C377.427 279.82 377.067 280.35 376.587 280.81C376.107 281.25 375.507 281.61 374.787 281.89C374.067 282.15 373.237 282.28 372.297 282.28C372.137 282.28 371.937 282.28 371.697 282.28C371.457 282.26 371.257 282.25 371.097 282.25C370.757 282.39 370.497 282.58 370.317 282.82C370.157 283.06 370.077 283.26 370.077 283.42C370.077 283.62 370.207 283.8 370.467 283.96C370.747 284.1 371.187 284.2 371.787 284.26L374.697 284.56C375.357 284.64 375.967 284.78 376.527 284.98C377.107 285.18 377.607 285.45 378.027 285.79C378.467 286.11 378.807 286.5 379.047 286.96C379.287 287.44 379.407 287.99 379.407 288.61C379.407 289.19 379.277 289.77 379.017 290.35C378.757 290.95 378.367 291.48 377.847 291.94C377.327 292.38 376.607 292.74 375.687 293.02C374.767 293.3 373.707 293.44 372.507 293.44C371.427 293.44 370.487 293.32 369.687 293.08C368.907 292.86 368.247 292.55 367.707 292.15C367.187 291.77 366.797 291.33 366.537 290.83C366.277 290.35 366.147 289.85 366.147 289.33C366.147 288.49 366.417 287.74 366.957 287.08C367.517 286.44 368.227 285.99 369.087 285.73L369.117 285.64C368.677 285.46 368.327 285.24 368.067 284.98C367.807 284.7 367.677 284.36 367.677 283.96C367.677 283.44 367.887 283.02 368.307 282.7C368.727 282.38 369.177 282.16 369.657 282.04V281.92ZM372.357 281.02C372.917 281.02 373.407 280.92 373.827 280.72C374.267 280.52 374.637 280.25 374.937 279.91C375.237 279.57 375.467 279.18 375.627 278.74C375.787 278.28 375.867 277.81 375.867 277.33C375.867 276.83 375.787 276.33 375.627 275.83C375.467 275.33 375.227 274.88 374.907 274.48C374.607 274.08 374.227 273.75 373.767 273.49C373.307 273.23 372.777 273.1 372.177 273.1C371.597 273.1 371.087 273.22 370.647 273.46C370.227 273.7 369.867 274.01 369.567 274.39C369.287 274.77 369.077 275.2 368.937 275.68C368.797 276.14 368.727 276.6 368.727 277.06C368.727 277.54 368.797 278.02 368.937 278.5C369.097 278.96 369.327 279.38 369.627 279.76C369.947 280.14 370.327 280.45 370.767 280.69C371.227 280.91 371.757 281.02 372.357 281.02ZM371.397 286.15C370.837 286.17 370.347 286.27 369.927 286.45C369.507 286.63 369.147 286.85 368.847 287.11C368.567 287.39 368.357 287.69 368.217 288.01C368.077 288.35 368.007 288.68 368.007 289C368.007 289.76 368.427 290.38 369.267 290.86C370.107 291.34 371.247 291.58 372.687 291.58C373.347 291.58 373.957 291.52 374.517 291.4C375.077 291.3 375.557 291.13 375.957 290.89C376.377 290.67 376.707 290.39 376.947 290.05C377.187 289.73 377.307 289.35 377.307 288.91C377.307 288.43 377.187 288.04 376.947 287.74C376.727 287.44 376.427 287.19 376.047 286.99C375.687 286.81 375.267 286.67 374.787 286.57C374.327 286.49 373.867 286.42 373.407 286.36L371.397 286.15ZM385.672 265.51C385.672 265.69 385.662 265.86 385.642 266.02C385.642 266.16 385.642 266.28 385.642 266.38C385.622 266.6 385.602 266.82 385.582 267.04C385.562 267.26 385.532 267.56 385.492 267.94C385.472 268.3 385.442 268.79 385.402 269.41C385.362 270.01 385.312 270.81 385.252 271.81C385.212 272.81 385.162 274.05 385.102 275.53C385.062 276.99 385.022 278.76 384.982 280.84L384.832 281.05L383.782 281.53L383.602 281.41C383.562 279.43 383.512 277.72 383.452 276.28C383.412 274.82 383.372 273.58 383.332 272.56C383.292 271.52 383.252 270.66 383.212 269.98C383.172 269.28 383.132 268.71 383.092 268.27C383.052 267.81 383.022 267.45 383.002 267.19C382.982 266.91 382.962 266.67 382.942 266.47L383.062 266.2L385.522 265.42L385.672 265.51ZM382.882 284.95C382.882 284.57 383.012 284.24 383.272 283.96C383.552 283.66 383.892 283.51 384.292 283.51C384.652 283.51 384.972 283.66 385.252 283.96C385.552 284.24 385.702 284.57 385.702 284.95C385.702 285.33 385.552 285.66 385.252 285.94C384.972 286.2 384.652 286.33 384.292 286.33C383.892 286.33 383.552 286.2 383.272 285.94C383.012 285.66 382.882 285.33 382.882 284.95Z" fill="#1B1D1C"/>
<path d="M111.685 345.31L111.355 344.65C111.735 343.99 112.165 343.26 112.645 342.46C113.145 341.66 113.665 340.84 114.205 340C114.745 339.16 115.285 338.33 115.825 337.51C116.385 336.69 116.895 335.94 117.355 335.26C117.835 334.56 118.255 333.96 118.615 333.46C118.995 332.94 119.275 332.56 119.455 332.32L121.405 332.05H121.645L122.005 332.38C121.985 332.54 121.965 332.73 121.945 332.95C121.945 333.15 121.935 333.36 121.915 333.58C121.915 333.8 121.905 334.01 121.885 334.21C121.885 334.41 121.885 334.57 121.885 334.69C121.865 335.01 121.845 335.31 121.825 335.59C121.825 335.87 121.815 336.2 121.795 336.58C121.795 336.96 121.795 337.42 121.795 337.96C121.795 338.5 121.795 339.19 121.795 340.03V343.9H124.345L124.465 344.08L124.135 345.31L123.925 345.46H121.795C121.795 346 121.795 346.46 121.795 346.84C121.795 347.22 121.795 347.56 121.795 347.86C121.815 348.16 121.825 348.44 121.825 348.7C121.845 348.96 121.875 349.24 121.915 349.54C121.955 349.96 122.045 350.28 122.185 350.5C122.345 350.7 122.505 350.87 122.665 351.01C122.825 351.15 123.095 351.26 123.475 351.34C123.875 351.42 124.225 351.46 124.525 351.46L124.645 351.61L124.705 352L124.645 352.12C124.505 352.12 124.295 352.11 124.015 352.09C123.735 352.07 123.435 352.05 123.115 352.03C122.815 352.03 122.525 352.02 122.245 352C121.965 352 121.755 352 121.615 352H119.935C119.795 352 119.565 352 119.245 352C118.925 352.02 118.585 352.03 118.225 352.03C117.885 352.05 117.555 352.07 117.235 352.09C116.915 352.11 116.685 352.12 116.545 352.12L116.515 352L116.635 351.58L116.755 351.46C116.915 351.46 117.095 351.45 117.295 351.43C117.515 351.41 117.725 351.38 117.925 351.34C118.145 351.3 118.335 351.26 118.495 351.22C118.675 351.16 118.805 351.09 118.885 351.01C119.045 350.87 119.195 350.69 119.335 350.47C119.475 350.25 119.565 349.94 119.605 349.54C119.645 349.04 119.675 348.47 119.695 347.83C119.715 347.17 119.725 346.38 119.725 345.46H111.955L111.685 345.31ZM119.635 334.57C119.295 334.97 118.855 335.53 118.315 336.25C117.795 336.97 117.245 337.77 116.665 338.65C116.105 339.53 115.545 340.43 114.985 341.35C114.445 342.27 113.985 343.12 113.605 343.9H119.725V340.09C119.725 339.67 119.725 339.22 119.725 338.74C119.725 338.26 119.715 337.77 119.695 337.27C119.695 336.77 119.685 336.29 119.665 335.83C119.665 335.35 119.655 334.93 119.635 334.57ZM142.466 332.32L142.376 332.86L142.256 332.98C141.936 332.98 141.626 333 141.326 333.04C141.046 333.06 140.816 333.14 140.636 333.28C140.476 333.42 140.326 333.6 140.186 333.82C140.046 334.04 139.956 334.43 139.916 334.99C139.896 335.27 139.876 335.53 139.856 335.77C139.856 336.01 139.846 336.29 139.826 336.61C139.826 336.93 139.826 337.32 139.826 337.78C139.826 338.24 139.826 338.83 139.826 339.55V345.07C139.826 345.79 139.826 346.38 139.826 346.84C139.826 347.28 139.826 347.65 139.826 347.95C139.846 348.25 139.856 348.51 139.856 348.73C139.876 348.93 139.896 349.15 139.916 349.39C139.956 349.95 140.046 350.34 140.186 350.56C140.326 350.78 140.476 350.96 140.636 351.1C140.816 351.24 141.046 351.33 141.326 351.37C141.626 351.39 141.936 351.4 142.256 351.4L142.376 351.52L142.466 352.06L142.406 352.18C142.266 352.18 142.036 352.17 141.716 352.15C141.396 352.13 141.066 352.11 140.726 352.09C140.386 352.07 140.056 352.05 139.736 352.03C139.416 352.01 139.186 352 139.046 352H138.476C138.336 352 138.106 352.01 137.786 352.03C137.466 352.05 137.136 352.07 136.796 352.09C136.456 352.11 136.126 352.13 135.806 352.15C135.486 352.17 135.256 352.18 135.116 352.18L135.056 352.06L135.146 351.52L135.296 351.4C135.616 351.4 135.916 351.39 136.196 351.37C136.476 351.33 136.706 351.24 136.886 351.1C137.046 350.96 137.196 350.78 137.336 350.56C137.496 350.34 137.596 349.95 137.636 349.39C137.636 349.25 137.636 349.09 137.636 348.91C137.656 348.71 137.666 348.47 137.666 348.19C137.686 347.91 137.696 347.57 137.696 347.17C137.696 346.77 137.696 346.27 137.696 345.67V339.58C137.696 338.88 137.696 338.29 137.696 337.81C137.696 337.33 137.686 336.92 137.666 336.58C137.666 336.24 137.656 335.95 137.636 335.71C137.636 335.47 137.626 335.23 137.606 334.99C137.566 334.47 137.476 334.09 137.336 333.85C137.196 333.61 137.046 333.42 136.886 333.28C136.706 333.14 136.476 333.06 136.196 333.04C135.916 333 135.616 332.98 135.296 332.98L135.146 332.86L135.056 332.32L135.116 332.2C135.256 332.2 135.486 332.21 135.806 332.23C136.126 332.25 136.456 332.27 136.796 332.29C137.136 332.31 137.466 332.33 137.786 332.35C138.106 332.37 138.336 332.38 138.476 332.38H139.046C139.186 332.38 139.416 332.37 139.736 332.35C140.056 332.33 140.386 332.31 140.726 332.29C141.066 332.27 141.396 332.25 141.716 332.23C142.036 332.21 142.266 332.2 142.406 332.2L142.466 332.32ZM152.585 339.61H148.685C148.685 340.91 148.675 342.11 148.655 343.21C148.655 344.31 148.655 345.28 148.655 346.12C148.655 346.94 148.645 347.6 148.625 348.1C148.625 348.6 148.625 348.91 148.625 349.03C148.625 349.81 148.775 350.33 149.075 350.59C149.375 350.85 149.725 350.98 150.125 350.98C150.465 350.98 150.855 350.92 151.295 350.8C151.755 350.66 152.125 350.51 152.405 350.35L152.675 350.56L152.405 351.4C151.945 351.72 151.425 351.95 150.845 352.09C150.285 352.25 149.785 352.33 149.345 352.33C148.325 352.33 147.605 352.05 147.185 351.49C146.765 350.93 146.555 350.21 146.555 349.33C146.555 349.15 146.565 348.78 146.585 348.22C146.605 347.66 146.625 346.96 146.645 346.12C146.665 345.28 146.685 344.31 146.705 343.21C146.725 342.11 146.735 340.91 146.735 339.61H144.575L144.455 339.46V338.89L144.575 338.77L146.735 338.35C146.735 337.65 146.715 336.94 146.675 336.22C146.655 335.48 146.625 334.76 146.585 334.06L146.795 333.88L147.215 333.85C147.375 333.83 147.635 333.79 147.995 333.73C148.355 333.67 148.605 333.6 148.745 333.52L149.015 333.64C148.955 333.92 148.905 334.25 148.865 334.63C148.825 334.99 148.785 335.38 148.745 335.8C148.725 336.22 148.705 336.65 148.685 337.09C148.685 337.53 148.685 337.95 148.685 338.35L152.585 338.17L152.735 338.29V339.46L152.585 339.61ZM168.19 343.93L167.71 344.14C166.63 344.14 165.52 344.15 164.38 344.17C163.24 344.19 162.12 344.2 161.02 344.2H157.48C157.46 344.34 157.45 344.48 157.45 344.62C157.45 344.74 157.45 344.86 157.45 344.98C157.45 345.74 157.56 346.47 157.78 347.17C158 347.85 158.34 348.45 158.8 348.97C159.28 349.49 159.89 349.91 160.63 350.23C161.37 350.53 162.27 350.68 163.33 350.68C163.95 350.68 164.61 350.62 165.31 350.5C166.03 350.36 166.69 350.12 167.29 349.78L167.59 349.96V350.5L167.29 350.83C166.81 351.21 166.13 351.56 165.25 351.88C164.37 352.18 163.39 352.33 162.31 352.33C161.25 352.33 160.28 352.16 159.4 351.82C158.54 351.46 157.79 350.96 157.15 350.32C156.53 349.68 156.04 348.92 155.68 348.04C155.34 347.16 155.17 346.18 155.17 345.1C155.17 344 155.35 343 155.71 342.1C156.07 341.2 156.56 340.43 157.18 339.79C157.82 339.15 158.56 338.65 159.4 338.29C160.26 337.93 161.18 337.75 162.16 337.75C162.68 337.75 163.26 337.82 163.9 337.96C164.56 338.1 165.19 338.37 165.79 338.77C166.39 339.15 166.93 339.7 167.41 340.42C167.89 341.12 168.22 342.05 168.4 343.21L168.19 343.93ZM162.19 339.1C161.55 339.1 160.97 339.21 160.45 339.43C159.95 339.63 159.5 339.91 159.1 340.27C158.72 340.61 158.4 341.02 158.14 341.5C157.9 341.96 157.73 342.45 157.63 342.97H158.8C159.88 342.97 160.93 342.96 161.95 342.94C162.97 342.9 164.04 342.85 165.16 342.79C165.42 342.77 165.59 342.7 165.67 342.58C165.77 342.46 165.82 342.32 165.82 342.16C165.82 342.04 165.81 341.93 165.79 341.83C165.77 341.73 165.74 341.63 165.7 341.53C165.48 340.77 165.07 340.18 164.47 339.76C163.87 339.32 163.11 339.1 162.19 339.1ZM170.872 338.44L170.992 338.35H171.532C171.872 338.35 172.302 338.35 172.822 338.35C173.342 338.33 173.792 338.29 174.172 338.23L175.222 338.08L175.402 338.35C175.362 338.47 175.322 338.63 175.282 338.83C175.262 339.01 175.232 339.22 175.192 339.46C175.172 339.68 175.152 339.9 175.132 340.12C175.112 340.34 175.102 340.53 175.102 340.69L175.192 340.75C175.412 340.35 175.662 339.97 175.942 339.61C176.242 339.23 176.582 338.91 176.962 338.65C177.342 338.37 177.772 338.15 178.252 337.99C178.732 337.83 179.282 337.75 179.902 337.75C180.422 337.75 180.932 337.82 181.432 337.96C181.932 338.08 182.392 338.28 182.812 338.56C183.252 338.82 183.632 339.17 183.952 339.61C184.292 340.03 184.552 340.54 184.732 341.14C184.972 340.7 185.232 340.28 185.512 339.88C185.812 339.46 186.152 339.1 186.532 338.8C186.932 338.48 187.382 338.23 187.882 338.05C188.402 337.85 188.992 337.75 189.652 337.75C190.232 337.75 190.792 337.83 191.332 337.99C191.892 338.15 192.392 338.4 192.832 338.74C193.292 339.08 193.682 339.51 194.002 340.03C194.342 340.55 194.572 341.18 194.692 341.92C194.792 342.44 194.842 342.99 194.842 343.57C194.862 344.15 194.872 344.73 194.872 345.31V349.66C194.872 350.12 194.912 350.46 194.992 350.68C195.072 350.88 195.182 351.03 195.322 351.13C195.482 351.29 195.712 351.39 196.012 351.43C196.332 351.45 196.652 351.46 196.972 351.46L197.092 351.58L197.152 352L197.092 352.12C196.732 352.08 196.342 352.05 195.922 352.03C195.522 352.01 195.112 352 194.692 352C193.952 352 193.272 352.03 192.652 352.09L192.442 351.79C192.522 351.53 192.582 351.19 192.622 350.77C192.662 350.35 192.692 349.98 192.712 349.66C192.732 349.36 192.742 348.99 192.742 348.55C192.762 348.11 192.772 347.67 192.772 347.23C192.792 346.77 192.802 346.34 192.802 345.94C192.802 345.54 192.802 345.23 192.802 345.01C192.802 344.61 192.782 344.11 192.742 343.51C192.722 342.89 192.662 342.37 192.562 341.95C192.362 341.13 191.952 340.51 191.332 340.09C190.732 339.67 190.052 339.46 189.292 339.46C188.732 339.46 188.212 339.57 187.732 339.79C187.272 339.99 186.862 340.25 186.502 340.57C186.142 340.87 185.832 341.21 185.572 341.59C185.332 341.97 185.152 342.33 185.032 342.67C185.072 343.11 185.092 343.55 185.092 343.99C185.112 344.43 185.122 344.87 185.122 345.31V349.66C185.122 350.08 185.162 350.4 185.242 350.62C185.322 350.82 185.442 350.99 185.602 351.13C185.762 351.27 185.982 351.36 186.262 351.4C186.562 351.44 186.862 351.46 187.162 351.46L187.312 351.61L187.372 352L187.312 352.12C187.172 352.12 186.962 352.11 186.682 352.09C186.402 352.07 186.102 352.05 185.782 352.03C185.462 352.03 185.162 352.02 184.882 352C184.602 352 184.392 352 184.252 352H183.832C183.692 352 183.472 352 183.172 352C182.892 352.02 182.592 352.03 182.272 352.03C181.972 352.05 181.672 352.07 181.372 352.09C181.092 352.11 180.882 352.12 180.742 352.12L180.682 352L180.742 351.58L180.862 351.46C181.182 351.46 181.492 351.45 181.792 351.43C182.112 351.39 182.352 351.29 182.512 351.13C182.672 350.99 182.772 350.81 182.812 350.59C182.852 350.37 182.892 350.06 182.932 349.66C182.952 349.36 182.962 348.99 182.962 348.55C182.982 348.11 182.992 347.67 182.992 347.23C183.012 346.77 183.022 346.34 183.022 345.94C183.042 345.54 183.052 345.23 183.052 345.01C183.052 344.81 183.052 344.58 183.052 344.32C183.052 344.04 183.042 343.76 183.022 343.48C183.002 343.2 182.972 342.93 182.932 342.67C182.912 342.41 182.872 342.17 182.812 341.95C182.592 341.13 182.182 340.51 181.582 340.09C180.982 339.67 180.302 339.46 179.542 339.46C178.882 339.46 178.282 339.61 177.742 339.91C177.202 340.19 176.732 340.54 176.332 340.96C175.952 341.36 175.652 341.79 175.432 342.25C175.232 342.69 175.132 343.07 175.132 343.39V346.75C175.132 347.19 175.132 347.55 175.132 347.83C175.152 348.11 175.162 348.35 175.162 348.55C175.182 348.75 175.192 348.94 175.192 349.12C175.212 349.28 175.232 349.46 175.252 349.66C175.292 350.08 175.332 350.4 175.372 350.62C175.432 350.82 175.542 350.99 175.702 351.13C175.862 351.27 176.082 351.36 176.362 351.4C176.662 351.44 176.962 351.46 177.262 351.46L177.412 351.61L177.472 352L177.412 352.12C177.272 352.12 177.062 352.11 176.782 352.09C176.502 352.07 176.202 352.05 175.882 352.03C175.562 352.03 175.262 352.02 174.982 352C174.702 352 174.492 352 174.352 352H173.932C173.792 352 173.572 352 173.272 352C172.992 352.02 172.692 352.03 172.372 352.03C172.072 352.05 171.772 352.07 171.472 352.09C171.192 352.11 170.982 352.12 170.842 352.12L170.812 352L170.842 351.58L170.962 351.46C171.282 351.46 171.592 351.45 171.892 351.43C172.212 351.39 172.452 351.29 172.612 351.13C172.772 350.99 172.872 350.81 172.912 350.59C172.972 350.37 173.022 350.06 173.062 349.66C173.082 349.34 173.102 349.02 173.122 348.7C173.142 348.36 173.152 347.83 173.152 347.11V343.42C173.152 343 173.152 342.65 173.152 342.37C173.152 342.07 173.142 341.81 173.122 341.59C173.122 341.37 173.112 341.17 173.092 340.99C173.092 340.81 173.082 340.62 173.062 340.42C173.022 340.2 172.962 340.01 172.882 339.85C172.802 339.67 172.732 339.55 172.672 339.49C172.472 339.25 172.222 339.11 171.922 339.07C171.622 339.01 171.312 338.98 170.992 338.98L170.872 338.86V338.44ZM205.967 344.05C206.807 344.23 207.477 344.48 207.977 344.8C208.497 345.1 208.897 345.43 209.177 345.79C209.457 346.15 209.637 346.52 209.717 346.9C209.817 347.26 209.867 347.6 209.867 347.92C209.867 348.56 209.737 349.15 209.477 349.69C209.217 350.23 208.837 350.7 208.337 351.1C207.857 351.48 207.267 351.78 206.567 352C205.867 352.22 205.077 352.33 204.197 352.33C203.217 352.33 202.297 352.22 201.437 352C200.597 351.76 199.927 351.51 199.427 351.25L199.367 350.98L199.817 347.89H200.507L200.597 348.01C200.597 348.97 200.897 349.73 201.497 350.29C202.097 350.83 202.967 351.1 204.107 351.1C204.787 351.1 205.357 351.02 205.817 350.86C206.277 350.7 206.637 350.49 206.897 350.23C207.177 349.97 207.377 349.69 207.497 349.39C207.617 349.09 207.677 348.8 207.677 348.52C207.677 348.34 207.667 348.14 207.647 347.92C207.627 347.68 207.547 347.45 207.407 347.23C207.267 346.99 207.057 346.77 206.777 346.57C206.497 346.35 206.097 346.17 205.577 346.03L202.697 345.31C202.037 345.15 201.497 344.94 201.077 344.68C200.657 344.42 200.327 344.14 200.087 343.84C199.847 343.52 199.677 343.19 199.577 342.85C199.477 342.49 199.427 342.13 199.427 341.77C199.427 341.11 199.557 340.53 199.817 340.03C200.077 339.51 200.427 339.09 200.867 338.77C201.327 338.43 201.857 338.18 202.457 338.02C203.057 337.84 203.707 337.75 204.407 337.75C205.347 337.75 206.207 337.87 206.987 338.11C207.787 338.35 208.407 338.59 208.847 338.83L208.937 339.1L208.607 341.41H207.977L207.857 341.32C207.857 340.86 207.727 340.48 207.467 340.18C207.227 339.86 206.927 339.61 206.567 339.43C206.207 339.23 205.827 339.09 205.427 339.01C205.027 338.93 204.677 338.89 204.377 338.89C203.377 338.89 202.657 339.14 202.217 339.64C201.777 340.14 201.557 340.7 201.557 341.32C201.557 341.78 201.707 342.22 202.007 342.64C202.327 343.04 202.937 343.35 203.837 343.57L205.967 344.05ZM223.567 352C223.427 352 223.197 352.01 222.877 352.03C222.557 352.05 222.227 352.07 221.887 352.09C221.547 352.11 221.217 352.13 220.897 352.15C220.577 352.17 220.347 352.18 220.207 352.18L220.147 352.06L220.237 351.52L220.387 351.4C220.627 351.4 220.907 351.39 221.227 351.37C221.547 351.33 221.797 351.25 221.977 351.13C222.137 351.01 222.287 350.82 222.427 350.56C222.567 350.3 222.667 349.91 222.727 349.39C222.747 349.09 222.757 348.64 222.757 348.04C222.777 347.44 222.787 346.55 222.787 345.37V337.87C222.787 337.47 222.787 337.02 222.787 336.52C222.787 336 222.767 335.49 222.727 334.99C222.687 334.45 222.587 334.06 222.427 333.82C222.287 333.58 222.137 333.4 221.977 333.28C221.797 333.18 221.607 333.11 221.407 333.07C221.227 333.01 220.887 332.98 220.387 332.98L220.237 332.86L220.147 332.32L220.207 332.2C220.347 332.2 220.527 332.21 220.747 332.23C220.987 332.25 221.227 332.27 221.467 332.29C221.727 332.31 221.987 332.33 222.247 332.35C222.507 332.37 222.747 332.38 222.967 332.38H224.047C224.267 332.38 224.517 332.38 224.797 332.38C225.077 332.38 225.357 332.38 225.637 332.38C225.937 332.36 226.207 332.35 226.447 332.35C226.687 332.35 226.877 332.35 227.017 332.35C229.177 332.35 230.727 332.77 231.667 333.61C232.607 334.43 233.077 335.52 233.077 336.88C233.077 337.48 232.997 338.01 232.837 338.47C232.697 338.93 232.497 339.34 232.237 339.7C231.977 340.04 231.687 340.34 231.367 340.6C231.047 340.84 230.707 341.05 230.347 341.23C231.807 341.49 232.927 342.04 233.707 342.88C234.507 343.72 234.907 344.88 234.907 346.36C234.907 347.36 234.727 348.22 234.367 348.94C234.007 349.64 233.497 350.22 232.837 350.68C232.197 351.12 231.427 351.45 230.527 351.67C229.627 351.89 228.637 352 227.557 352H223.567ZM224.917 342.04C224.917 342.6 224.917 343.26 224.917 344.02C224.917 344.78 224.917 345.53 224.917 346.27C224.937 346.99 224.947 347.64 224.947 348.22C224.967 348.8 224.987 349.19 225.007 349.39C225.047 349.93 225.157 350.26 225.337 350.38C225.517 350.5 225.757 350.56 226.057 350.56H227.887C228.367 350.56 228.887 350.5 229.447 350.38C230.027 350.26 230.567 350.05 231.067 349.75C231.567 349.45 231.987 349.03 232.327 348.49C232.667 347.95 232.837 347.26 232.837 346.42C232.837 345.7 232.707 345.07 232.447 344.53C232.187 343.97 231.827 343.51 231.367 343.15C230.907 342.79 230.367 342.52 229.747 342.34C229.147 342.14 228.487 342.04 227.767 342.04H224.917ZM226.327 340.93C226.967 340.93 227.577 340.89 228.157 340.81C228.737 340.73 229.257 340.52 229.717 340.18C230.157 339.9 230.517 339.5 230.797 338.98C231.077 338.44 231.217 337.81 231.217 337.09C231.217 336.03 230.917 335.22 230.317 334.66C229.717 334.1 228.867 333.82 227.767 333.82H225.067C225.027 334.4 224.997 334.89 224.977 335.29C224.977 335.69 224.967 336.04 224.947 336.34C224.927 336.64 224.917 336.91 224.917 337.15C224.917 337.39 224.917 337.62 224.917 337.84V339.7C224.917 340.16 224.937 340.48 224.977 340.66C225.017 340.84 225.167 340.93 225.427 340.93H226.327ZM245.495 337.75C246.675 337.75 247.725 337.96 248.645 338.38C249.565 338.78 250.335 339.33 250.955 340.03C251.595 340.71 252.075 341.5 252.395 342.4C252.735 343.3 252.905 344.23 252.905 345.19C252.905 346.11 252.755 347 252.455 347.86C252.155 348.72 251.695 349.48 251.075 350.14C250.455 350.8 249.685 351.33 248.765 351.73C247.845 352.13 246.775 352.33 245.555 352.33C244.295 352.33 243.195 352.12 242.255 351.7C241.315 351.28 240.535 350.73 239.915 350.05C239.315 349.37 238.865 348.6 238.565 347.74C238.265 346.86 238.115 345.96 238.115 345.04C238.115 344.06 238.285 343.13 238.625 342.25C238.965 341.37 239.445 340.6 240.065 339.94C240.705 339.26 241.475 338.73 242.375 338.35C243.295 337.95 244.335 337.75 245.495 337.75ZM245.525 351.16C246.365 351.16 247.105 350.99 247.745 350.65C248.385 350.31 248.915 349.86 249.335 349.3C249.755 348.74 250.065 348.11 250.265 347.41C250.485 346.69 250.595 345.95 250.595 345.19C250.595 344.47 250.475 343.74 250.235 343C250.015 342.26 249.685 341.6 249.245 341.02C248.805 340.42 248.265 339.94 247.625 339.58C246.985 339.2 246.245 339.01 245.405 339.01C244.525 339.01 243.765 339.19 243.125 339.55C242.505 339.89 241.985 340.34 241.565 340.9C241.165 341.46 240.865 342.1 240.665 342.82C240.465 343.54 240.365 344.26 240.365 344.98C240.365 345.72 240.475 346.46 240.695 347.2C240.935 347.92 241.275 348.58 241.715 349.18C242.155 349.76 242.695 350.24 243.335 350.62C243.975 350.98 244.705 351.16 245.525 351.16ZM267.425 349.42C266.905 350.26 266.235 350.96 265.415 351.52C264.615 352.06 263.625 352.33 262.445 352.33C261.865 352.33 261.305 352.26 260.765 352.12C260.245 352 259.755 351.79 259.295 351.49C258.855 351.19 258.475 350.79 258.155 350.29C257.835 349.79 257.605 349.16 257.465 348.4C257.365 347.88 257.315 347.34 257.315 346.78C257.335 346.2 257.335 345.62 257.315 345.04C257.315 344.78 257.305 344.43 257.285 343.99C257.285 343.53 257.285 343.07 257.285 342.61C257.285 342.13 257.285 341.69 257.285 341.29C257.285 340.89 257.285 340.6 257.285 340.42C257.285 340.2 257.235 340.01 257.135 339.85C257.035 339.67 256.955 339.54 256.895 339.46C256.695 339.24 256.445 339.11 256.145 339.07C255.845 339.01 255.535 338.98 255.215 338.98L255.125 338.86V338.44L255.215 338.35H255.755C256.095 338.35 256.525 338.35 257.045 338.35C257.565 338.33 258.015 338.29 258.395 338.23L259.445 338.08L259.625 338.35C259.585 338.43 259.555 338.58 259.535 338.8C259.515 339 259.495 339.22 259.475 339.46C259.455 339.7 259.445 339.93 259.445 340.15C259.445 340.37 259.445 340.54 259.445 340.66C259.445 341 259.435 341.38 259.415 341.8C259.415 342.2 259.405 342.61 259.385 343.03C259.385 343.45 259.375 343.85 259.355 344.23C259.355 344.61 259.355 344.93 259.355 345.19C259.355 345.63 259.365 346.13 259.385 346.69C259.425 347.23 259.495 347.7 259.595 348.1C259.795 349.04 260.205 349.74 260.825 350.2C261.445 350.66 262.165 350.89 262.985 350.89C263.605 350.89 264.175 350.77 264.695 350.53C265.215 350.27 265.665 349.96 266.045 349.6C266.445 349.24 266.765 348.86 267.005 348.46C267.265 348.04 267.435 347.66 267.515 347.32V343.42C267.515 343 267.505 342.65 267.485 342.37C267.485 342.07 267.475 341.81 267.455 341.59C267.455 341.37 267.445 341.17 267.425 340.99C267.425 340.81 267.415 340.62 267.395 340.42C267.355 340.2 267.295 340.01 267.215 339.85C267.155 339.67 267.095 339.55 267.035 339.49C266.835 339.25 266.585 339.11 266.285 339.07C265.985 339.01 265.675 338.98 265.355 338.98L265.235 338.86V338.44L265.355 338.35H265.895C266.235 338.35 266.665 338.35 267.185 338.35C267.705 338.33 268.145 338.29 268.505 338.23L269.555 338.08L269.735 338.35C269.695 338.43 269.665 338.58 269.645 338.8C269.625 339 269.605 339.22 269.585 339.46C269.565 339.7 269.555 339.93 269.555 340.15C269.555 340.37 269.555 340.54 269.555 340.66C269.555 340.82 269.545 340.97 269.525 341.11C269.525 341.25 269.525 341.42 269.525 341.62C269.525 341.82 269.515 342.06 269.495 342.34C269.495 342.6 269.495 342.95 269.495 343.39V346.75C269.495 347.19 269.495 347.55 269.495 347.83C269.515 348.11 269.525 348.35 269.525 348.55C269.545 348.75 269.555 348.94 269.555 349.12C269.575 349.28 269.585 349.46 269.585 349.66C269.625 350.12 269.675 350.46 269.735 350.68C269.795 350.88 269.895 351.03 270.035 351.13C270.195 351.29 270.425 351.39 270.725 351.43C271.045 351.45 271.365 351.46 271.685 351.46L271.805 351.58L271.865 352L271.805 352.12C271.445 352.08 271.055 352.05 270.635 352.03C270.215 352.01 269.805 352 269.405 352C268.645 352 267.955 352.03 267.335 352.09L267.155 351.79C267.215 351.53 267.275 351.19 267.335 350.77C267.415 350.35 267.475 349.92 267.515 349.48L267.425 349.42ZM277.344 347.92C276.264 347.52 275.484 346.89 275.004 346.03C274.524 345.17 274.284 344.22 274.284 343.18C274.284 342.44 274.414 341.74 274.674 341.08C274.934 340.42 275.304 339.85 275.784 339.37C276.284 338.87 276.874 338.48 277.554 338.2C278.254 337.92 279.044 337.78 279.924 337.78C280.444 337.78 280.954 337.83 281.454 337.93C281.974 338.03 282.424 338.17 282.804 338.35C283.644 338.33 284.424 338.28 285.144 338.2C285.884 338.12 286.574 337.99 287.214 337.81L287.364 337.93L287.154 339.58L287.004 339.73L284.274 339.61L284.244 339.7C284.764 340.12 285.144 340.67 285.384 341.35C285.624 342.03 285.744 342.69 285.744 343.33C285.744 343.99 285.614 344.62 285.354 345.22C285.114 345.82 284.754 346.35 284.274 346.81C283.794 347.25 283.194 347.61 282.474 347.89C281.754 348.15 280.924 348.28 279.984 348.28C279.824 348.28 279.624 348.28 279.384 348.28C279.144 348.26 278.944 348.25 278.784 348.25C278.444 348.39 278.184 348.58 278.004 348.82C277.844 349.06 277.764 349.26 277.764 349.42C277.764 349.62 277.894 349.8 278.154 349.96C278.434 350.1 278.874 350.2 279.474 350.26L282.384 350.56C283.044 350.64 283.654 350.78 284.214 350.98C284.794 351.18 285.294 351.45 285.714 351.79C286.154 352.11 286.494 352.5 286.734 352.96C286.974 353.44 287.094 353.99 287.094 354.61C287.094 355.19 286.964 355.77 286.704 356.35C286.444 356.95 286.054 357.48 285.534 357.94C285.014 358.38 284.294 358.74 283.374 359.02C282.454 359.3 281.394 359.44 280.194 359.44C279.114 359.44 278.174 359.32 277.374 359.08C276.594 358.86 275.934 358.55 275.394 358.15C274.874 357.77 274.484 357.33 274.224 356.83C273.964 356.35 273.834 355.85 273.834 355.33C273.834 354.49 274.104 353.74 274.644 353.08C275.204 352.44 275.914 351.99 276.774 351.73L276.804 351.64C276.364 351.46 276.014 351.24 275.754 350.98C275.494 350.7 275.364 350.36 275.364 349.96C275.364 349.44 275.574 349.02 275.994 348.7C276.414 348.38 276.864 348.16 277.344 348.04V347.92ZM280.044 347.02C280.604 347.02 281.094 346.92 281.514 346.72C281.954 346.52 282.324 346.25 282.624 345.91C282.924 345.57 283.154 345.18 283.314 344.74C283.474 344.28 283.554 343.81 283.554 343.33C283.554 342.83 283.474 342.33 283.314 341.83C283.154 341.33 282.914 340.88 282.594 340.48C282.294 340.08 281.914 339.75 281.454 339.49C280.994 339.23 280.464 339.1 279.864 339.1C279.284 339.1 278.774 339.22 278.334 339.46C277.914 339.7 277.554 340.01 277.254 340.39C276.974 340.77 276.764 341.2 276.624 341.68C276.484 342.14 276.414 342.6 276.414 343.06C276.414 343.54 276.484 344.02 276.624 344.5C276.784 344.96 277.014 345.38 277.314 345.76C277.634 346.14 278.014 346.45 278.454 346.69C278.914 346.91 279.444 347.02 280.044 347.02ZM279.084 352.15C278.524 352.17 278.034 352.27 277.614 352.45C277.194 352.63 276.834 352.85 276.534 353.11C276.254 353.39 276.044 353.69 275.904 354.01C275.764 354.35 275.694 354.68 275.694 355C275.694 355.76 276.114 356.38 276.954 356.86C277.794 357.34 278.934 357.58 280.374 357.58C281.034 357.58 281.644 357.52 282.204 357.4C282.764 357.3 283.244 357.13 283.644 356.89C284.064 356.67 284.394 356.39 284.634 356.05C284.874 355.73 284.994 355.35 284.994 354.91C284.994 354.43 284.874 354.04 284.634 353.74C284.414 353.44 284.114 353.19 283.734 352.99C283.374 352.81 282.954 352.67 282.474 352.57C282.014 352.49 281.554 352.42 281.094 352.36L279.084 352.15ZM301.04 351.79C301.12 351.53 301.18 351.19 301.22 350.77C301.26 350.35 301.29 349.98 301.31 349.66C301.35 348.82 301.38 348 301.4 347.2C301.42 346.38 301.43 345.7 301.43 345.16C301.43 344.7 301.41 344.2 301.37 343.66C301.35 343.12 301.29 342.65 301.19 342.25C300.99 341.31 300.58 340.61 299.96 340.15C299.34 339.69 298.62 339.46 297.8 339.46C297.14 339.46 296.52 339.61 295.94 339.91C295.38 340.19 294.9 340.54 294.5 340.96C294.1 341.36 293.78 341.79 293.54 342.25C293.32 342.69 293.21 343.06 293.21 343.36C293.21 344.44 293.21 345.31 293.21 345.97C293.21 346.61 293.21 347.15 293.21 347.59C293.23 348.03 293.24 348.4 293.24 348.7C293.26 348.98 293.29 349.3 293.33 349.66C293.37 350.08 293.41 350.4 293.45 350.62C293.51 350.82 293.62 350.99 293.78 351.13C293.94 351.27 294.16 351.36 294.44 351.4C294.74 351.44 295.04 351.46 295.34 351.46L295.49 351.61L295.55 352L295.49 352.12C295.35 352.12 295.14 352.11 294.86 352.09C294.58 352.07 294.28 352.05 293.96 352.03C293.64 352.03 293.34 352.02 293.06 352C292.78 352 292.57 352 292.43 352H292.01C291.87 352 291.65 352 291.35 352C291.07 352.02 290.77 352.03 290.45 352.03C290.15 352.05 289.85 352.07 289.55 352.09C289.27 352.11 289.06 352.12 288.92 352.12L288.89 352L288.92 351.58L289.04 351.46C289.36 351.46 289.67 351.45 289.97 351.43C290.29 351.39 290.53 351.29 290.69 351.13C290.85 350.99 290.95 350.81 290.99 350.59C291.05 350.37 291.1 350.06 291.14 349.66C291.16 349.4 291.17 349.14 291.17 348.88C291.19 348.62 291.2 348.32 291.2 347.98C291.22 347.62 291.23 347.21 291.23 346.75C291.23 346.27 291.23 345.68 291.23 344.98V337.78C291.23 336.96 291.23 336.27 291.23 335.71C291.23 335.13 291.22 334.63 291.2 334.21C291.2 333.79 291.19 333.42 291.17 333.1C291.17 332.78 291.16 332.46 291.14 332.14C291.12 331.92 291.06 331.73 290.96 331.57C290.88 331.41 290.81 331.29 290.75 331.21C290.55 330.99 290.3 330.85 290 330.79C289.7 330.73 289.39 330.7 289.07 330.7L288.95 330.58V330.19L289.07 330.07H289.61C289.95 330.07 290.38 330.07 290.9 330.07C291.42 330.05 291.87 330.01 292.25 329.95L293.3 329.8L293.48 330.07C293.44 330.15 293.41 330.3 293.39 330.52C293.37 330.72 293.35 330.94 293.33 331.18C293.31 331.42 293.3 331.65 293.3 331.87C293.3 332.09 293.3 332.26 293.3 332.38C293.3 333.02 293.28 333.79 293.24 334.69C293.22 335.57 293.21 336.58 293.21 337.72C293.21 338.56 293.2 339.22 293.18 339.7C293.18 340.18 293.16 340.56 293.12 340.84L293.21 340.9C293.71 340.02 294.38 339.28 295.22 338.68C296.06 338.06 297.1 337.75 298.34 337.75C298.9 337.75 299.46 337.83 300.02 337.99C300.6 338.15 301.12 338.4 301.58 338.74C302.04 339.08 302.43 339.51 302.75 340.03C303.07 340.55 303.27 341.17 303.35 341.89C303.41 342.41 303.44 343.01 303.44 343.69C303.46 344.35 303.47 344.89 303.47 345.31V349.54C303.47 350 303.51 350.36 303.59 350.62C303.69 350.86 303.8 351.03 303.92 351.13C304.1 351.29 304.34 351.39 304.64 351.43C304.96 351.45 305.28 351.46 305.6 351.46L305.69 351.58L305.75 352L305.69 352.12C305.35 352.08 304.97 352.05 304.55 352.03C304.13 352.01 303.72 352 303.32 352C302.56 352 301.87 352.03 301.25 352.09L301.04 351.79ZM315.37 339.61H311.47C311.47 340.91 311.46 342.11 311.44 343.21C311.44 344.31 311.44 345.28 311.44 346.12C311.44 346.94 311.43 347.6 311.41 348.1C311.41 348.6 311.41 348.91 311.41 349.03C311.41 349.81 311.56 350.33 311.86 350.59C312.16 350.85 312.51 350.98 312.91 350.98C313.25 350.98 313.64 350.92 314.08 350.8C314.54 350.66 314.91 350.51 315.19 350.35L315.46 350.56L315.19 351.4C314.73 351.72 314.21 351.95 313.63 352.09C313.07 352.25 312.57 352.33 312.13 352.33C311.11 352.33 310.39 352.05 309.97 351.49C309.55 350.93 309.34 350.21 309.34 349.33C309.34 349.15 309.35 348.78 309.37 348.22C309.39 347.66 309.41 346.96 309.43 346.12C309.45 345.28 309.47 344.31 309.49 343.21C309.51 342.11 309.52 340.91 309.52 339.61H307.36L307.24 339.46V338.89L307.36 338.77L309.52 338.35C309.52 337.65 309.5 336.94 309.46 336.22C309.44 335.48 309.41 334.76 309.37 334.06L309.58 333.88L310 333.85C310.16 333.83 310.42 333.79 310.78 333.73C311.14 333.67 311.39 333.6 311.53 333.52L311.8 333.64C311.74 333.92 311.69 334.25 311.65 334.63C311.61 334.99 311.57 335.38 311.53 335.8C311.51 336.22 311.49 336.65 311.47 337.09C311.47 337.53 311.47 337.95 311.47 338.35L315.37 338.17L315.52 338.29V339.46L315.37 339.61Z" fill="#E97B2C"/>
<g filter="url(#filter0_d_85_1191)">
<rect x="35" y="433" width="357" height="60" rx="10" fill="#039855" shape-rendering="crispEdges"/>
<path d="M196.265 456.04V470H193.465V464.06H187.485V470H184.685V456.04H187.485V461.78H193.465V456.04H196.265ZM203.941 470.18C202.874 470.18 201.914 469.947 201.061 469.48C200.207 469 199.534 468.327 199.041 467.46C198.561 466.593 198.321 465.593 198.321 464.46C198.321 463.327 198.567 462.327 199.061 461.46C199.567 460.593 200.254 459.927 201.121 459.46C201.987 458.98 202.954 458.74 204.021 458.74C205.087 458.74 206.054 458.98 206.921 459.46C207.787 459.927 208.467 460.593 208.961 461.46C209.467 462.327 209.721 463.327 209.721 464.46C209.721 465.593 209.461 466.593 208.941 467.46C208.434 468.327 207.741 469 206.861 469.48C205.994 469.947 205.021 470.18 203.941 470.18ZM203.941 467.74C204.447 467.74 204.921 467.62 205.361 467.38C205.814 467.127 206.174 466.753 206.441 466.26C206.707 465.767 206.841 465.167 206.841 464.46C206.841 463.407 206.561 462.6 206.001 462.04C205.454 461.467 204.781 461.18 203.981 461.18C203.181 461.18 202.507 461.467 201.961 462.04C201.427 462.6 201.161 463.407 201.161 464.46C201.161 465.513 201.421 466.327 201.941 466.9C202.474 467.46 203.141 467.74 203.941 467.74ZM225.535 458.76C226.895 458.76 227.988 459.18 228.815 460.02C229.655 460.847 230.075 462.007 230.075 463.5V470H227.275V463.88C227.275 463.013 227.055 462.353 226.615 461.9C226.175 461.433 225.575 461.2 224.815 461.2C224.055 461.2 223.448 461.433 222.995 461.9C222.555 462.353 222.335 463.013 222.335 463.88V470H219.535V463.88C219.535 463.013 219.315 462.353 218.875 461.9C218.435 461.433 217.835 461.2 217.075 461.2C216.301 461.2 215.688 461.433 215.235 461.9C214.795 462.353 214.575 463.013 214.575 463.88V470H211.775V458.92H214.575V460.26C214.935 459.793 215.395 459.427 215.955 459.16C216.528 458.893 217.155 458.76 217.835 458.76C218.701 458.76 219.475 458.947 220.155 459.32C220.835 459.68 221.361 460.2 221.735 460.88C222.095 460.24 222.615 459.727 223.295 459.34C223.988 458.953 224.735 458.76 225.535 458.76ZM243.032 464.22C243.032 464.62 243.005 464.98 242.952 465.3H234.852C234.918 466.1 235.198 466.727 235.692 467.18C236.185 467.633 236.792 467.86 237.512 467.86C238.552 467.86 239.292 467.413 239.732 466.52H242.752C242.432 467.587 241.818 468.467 240.912 469.16C240.005 469.84 238.892 470.18 237.572 470.18C236.505 470.18 235.545 469.947 234.692 469.48C233.852 469 233.192 468.327 232.712 467.46C232.245 466.593 232.012 465.593 232.012 464.46C232.012 463.313 232.245 462.307 232.712 461.44C233.178 460.573 233.832 459.907 234.672 459.44C235.512 458.973 236.478 458.74 237.572 458.74C238.625 458.74 239.565 458.967 240.392 459.42C241.232 459.873 241.878 460.52 242.332 461.36C242.798 462.187 243.032 463.14 243.032 464.22ZM240.132 463.42C240.118 462.7 239.858 462.127 239.352 461.7C238.845 461.26 238.225 461.04 237.492 461.04C236.798 461.04 236.212 461.253 235.732 461.68C235.265 462.093 234.978 462.673 234.872 463.42H240.132Z" fill="white"/>
</g>
<defs>
<filter id="filter0_d_85_1191" x="15" y="423" width="397" height="100" filterUnits="userSpaceOnUse" color-interpolation-filters="sRGB">
<feFlood flood-opacity="0" result="BackgroundImageFix"/>
<feColorMatrix in="SourceAlpha" type="matrix" values="0 0 0 0 0 0 0 0 0 0 0 0 0 0 0 0 0 0 127 0" result="hardAlpha"/>
<feOffset dy="10"/>
<feGaussianBlur stdDeviation="10"/>
<feComposite in2="hardAlpha" operator="out"/>
<feColorMatrix type="matrix" values="0 0 0 0 0.795833 0 0 0 0 0.84075 0 0 0 0 1 0 0 0 1 0"/>
<feBlend mode="normal" in2="BackgroundImageFix" result="effect1_dropShadow_85_1191"/>
<feBlend mode="normal" in="SourceGraphic" in2="effect1_dropShadow_85_1191" result="shape"/>
</filter>
</defs>
</svg>
