<svg width="428" height="926" viewBox="0 0 428 926" fill="none" xmlns="http://www.w3.org/2000/svg">
<rect width="428" height="926" rx="50" fill="white"/>
<path d="M56.4846 286.33L51.5946 272.71C51.3746 272.11 51.1846 271.61 51.0246 271.21C50.8846 270.81 50.7546 270.47 50.6346 270.19C50.5346 269.91 50.4446 269.68 50.3646 269.5C50.2846 269.32 50.2146 269.15 50.1546 268.99C49.9346 268.49 49.7046 268.11 49.4646 267.85C49.2446 267.57 49.0146 267.37 48.7746 267.25C48.5346 267.11 48.2846 267.03 48.0246 267.01C47.7846 266.99 47.5346 266.98 47.2746 266.98L47.1246 266.86L47.0646 266.32L47.0946 266.2C47.2346 266.2 47.4346 266.21 47.6946 266.23C47.9746 266.25 48.2646 266.27 48.5646 266.29C48.8646 266.31 49.1546 266.33 49.4346 266.35C49.7146 266.37 49.9246 266.38 50.0646 266.38H51.0846C51.2246 266.38 51.4546 266.37 51.7746 266.35C52.0946 266.33 52.4246 266.31 52.7646 266.29C53.1246 266.27 53.4646 266.25 53.7846 266.23C54.1046 266.21 54.3346 266.2 54.4746 266.2L54.5346 266.32L54.4446 266.86L54.2946 266.98C53.7146 266.98 53.2646 267.05 52.9446 267.19C52.6246 267.31 52.4646 267.66 52.4646 268.24C52.4646 268.7 52.6146 269.35 52.9146 270.19C53.2346 271.01 53.6246 272.05 54.0846 273.31L56.1246 278.83C56.5046 279.87 56.8346 280.81 57.1146 281.65C57.4146 282.47 57.6846 283.18 57.9246 283.78C58.1446 283.2 58.4046 282.51 58.7046 281.71C59.0246 280.91 59.3846 279.95 59.7846 278.83L61.8246 273.31C62.2846 272.05 62.6646 271.01 62.9646 270.19C63.2846 269.35 63.4446 268.7 63.4446 268.24C63.4446 267.66 63.2846 267.31 62.9646 267.19C62.6446 267.05 62.1946 266.98 61.6146 266.98L61.4646 266.86L61.4046 266.32L61.4646 266.2C61.6046 266.2 61.8246 266.21 62.1246 266.23C62.4246 266.25 62.7346 266.27 63.0546 266.29C63.3746 266.31 63.6846 266.33 63.9846 266.35C64.2846 266.37 64.5046 266.38 64.6446 266.38H65.2146C65.3546 266.38 65.5546 266.37 65.8146 266.35C66.0946 266.33 66.3846 266.31 66.6846 266.29C66.9846 266.27 67.2746 266.25 67.5546 266.23C67.8346 266.21 68.0446 266.2 68.1846 266.2L68.2446 266.32L68.1546 266.86L68.0046 266.98C67.7446 266.98 67.4946 266.99 67.2546 267.01C67.0146 267.03 66.7746 267.11 66.5346 267.25C66.2946 267.37 66.0546 267.57 65.8146 267.85C65.5946 268.11 65.3646 268.49 65.1246 268.99C65.0646 269.15 64.9746 269.35 64.8546 269.59C64.7546 269.83 64.5746 270.28 64.3146 270.94C64.0546 271.6 63.6746 272.55 63.1746 273.79C62.6946 275.01 62.0446 276.68 61.2246 278.8C60.9446 279.5 60.6546 280.23 60.3546 280.99C60.0746 281.73 59.7946 282.44 59.5146 283.12C59.2546 283.78 59.0246 284.37 58.8246 284.89C58.6246 285.41 58.4846 285.78 58.4046 286L56.8446 286.33H56.4846ZM75.4994 286.12C75.3594 286.12 75.1494 286.11 74.8694 286.09C74.5894 286.07 74.2894 286.05 73.9694 286.03C73.6494 286.03 73.3494 286.02 73.0694 286C72.7894 286 72.5794 286 72.4394 286H72.0194C71.8794 286 71.6594 286 71.3594 286C71.0794 286.02 70.7794 286.03 70.4594 286.03C70.1594 286.05 69.8594 286.07 69.5594 286.09C69.2794 286.11 69.0694 286.12 68.9294 286.12L68.8994 286L68.9294 285.58L69.0494 285.46C69.3694 285.46 69.6794 285.45 69.9794 285.43C70.2994 285.39 70.5394 285.29 70.6994 285.13C70.8594 284.99 70.9594 284.81 70.9994 284.59C71.0594 284.37 71.1094 284.06 71.1494 283.66C71.1694 283.34 71.1894 283.02 71.2094 282.7C71.2294 282.36 71.2394 281.83 71.2394 281.11V277.42C71.2394 277 71.2394 276.65 71.2394 276.37C71.2394 276.07 71.2294 275.81 71.2094 275.59C71.2094 275.37 71.1994 275.17 71.1794 274.99C71.1794 274.81 71.1694 274.62 71.1494 274.42C71.1094 274.2 71.0494 274.01 70.9694 273.85C70.8894 273.67 70.8194 273.55 70.7594 273.49C70.5594 273.25 70.3094 273.11 70.0094 273.07C69.7094 273.01 69.3994 272.98 69.0794 272.98L68.9594 272.86V272.44L69.0794 272.35H69.6194C69.9594 272.35 70.3894 272.35 70.9094 272.35C71.4294 272.33 71.8794 272.29 72.2594 272.23L73.3094 272.08L73.4894 272.35C73.4494 272.43 73.4094 272.57 73.3694 272.77C73.3494 272.97 73.3294 273.19 73.3094 273.43C73.3094 273.65 73.2994 273.87 73.2794 274.09C73.2794 274.31 73.2794 274.48 73.2794 274.6C73.2794 274.76 73.2694 274.92 73.2494 275.08C73.2494 275.22 73.2494 275.39 73.2494 275.59C73.2494 275.79 73.2394 276.03 73.2194 276.31C73.2194 276.59 73.2194 276.95 73.2194 277.39V280.75C73.2194 281.19 73.2194 281.55 73.2194 281.83C73.2394 282.11 73.2494 282.35 73.2494 282.55C73.2694 282.75 73.2794 282.94 73.2794 283.12C73.2994 283.28 73.3194 283.46 73.3394 283.66C73.3794 284.08 73.4194 284.4 73.4594 284.62C73.5194 284.82 73.6294 284.99 73.7894 285.13C73.9494 285.27 74.1694 285.36 74.4494 285.4C74.7494 285.44 75.0494 285.46 75.3494 285.46L75.4994 285.61L75.5594 286L75.4994 286.12ZM70.4594 267.07C70.4594 266.67 70.5894 266.33 70.8494 266.05C71.1294 265.75 71.4694 265.6 71.8694 265.6C72.2694 265.6 72.6094 265.75 72.8894 266.05C73.1894 266.33 73.3394 266.67 73.3394 267.07C73.3394 267.47 73.1894 267.81 72.8894 268.09C72.6094 268.35 72.2694 268.48 71.8694 268.48C71.4694 268.48 71.1294 268.35 70.8494 268.09C70.5894 267.81 70.4594 267.47 70.4594 267.07ZM90.9305 277.93L90.4505 278.14C89.3705 278.14 88.2605 278.15 87.1205 278.17C85.9805 278.19 84.8605 278.2 83.7605 278.2H80.2205C80.2005 278.34 80.1905 278.48 80.1905 278.62C80.1905 278.74 80.1905 278.86 80.1905 278.98C80.1905 279.74 80.3005 280.47 80.5205 281.17C80.7405 281.85 81.0805 282.45 81.5405 282.97C82.0205 283.49 82.6305 283.91 83.3705 284.23C84.1105 284.53 85.0105 284.68 86.0705 284.68C86.6905 284.68 87.3505 284.62 88.0505 284.5C88.7705 284.36 89.4305 284.12 90.0305 283.78L90.3305 283.96V284.5L90.0305 284.83C89.5505 285.21 88.8705 285.56 87.9905 285.88C87.1105 286.18 86.1305 286.33 85.0505 286.33C83.9905 286.33 83.0205 286.16 82.1405 285.82C81.2805 285.46 80.5305 284.96 79.8905 284.32C79.2705 283.68 78.7805 282.92 78.4205 282.04C78.0805 281.16 77.9105 280.18 77.9105 279.1C77.9105 278 78.0905 277 78.4505 276.1C78.8105 275.2 79.3005 274.43 79.9205 273.79C80.5605 273.15 81.3005 272.65 82.1405 272.29C83.0005 271.93 83.9205 271.75 84.9005 271.75C85.4205 271.75 86.0005 271.82 86.6405 271.96C87.3005 272.1 87.9305 272.37 88.5305 272.77C89.1305 273.15 89.6705 273.7 90.1505 274.42C90.6305 275.12 90.9605 276.05 91.1405 277.21L90.9305 277.93ZM84.9305 273.1C84.2905 273.1 83.7105 273.21 83.1905 273.43C82.6905 273.63 82.2405 273.91 81.8405 274.27C81.4605 274.61 81.1405 275.02 80.8805 275.5C80.6405 275.96 80.4705 276.45 80.3705 276.97H81.5405C82.6205 276.97 83.6705 276.96 84.6905 276.94C85.7105 276.9 86.7805 276.85 87.9005 276.79C88.1605 276.77 88.3305 276.7 88.4105 276.58C88.5105 276.46 88.5605 276.32 88.5605 276.16C88.5605 276.04 88.5505 275.93 88.5305 275.83C88.5105 275.73 88.4805 275.63 88.4405 275.53C88.2205 274.77 87.8105 274.18 87.2105 273.76C86.6105 273.32 85.8505 273.1 84.9305 273.1ZM108.168 286L104.628 276.88C104.408 277.44 104.188 278 103.968 278.56C103.768 279.12 103.578 279.65 103.398 280.15C103.218 280.63 103.058 281.05 102.918 281.41C102.778 281.77 102.678 282.02 102.618 282.16L101.088 286L99.2578 286.15L98.9578 286L97.1578 281.2C97.0978 281.04 96.9678 280.73 96.7678 280.27C96.5878 279.79 96.3778 279.25 96.1378 278.65C95.8978 278.05 95.6478 277.44 95.3878 276.82C95.1478 276.18 94.9278 275.62 94.7278 275.14C94.5278 274.66 94.3478 274.28 94.1878 274C93.9878 273.68 93.7578 273.43 93.4978 273.25C93.2578 273.07 92.9278 272.96 92.5078 272.92L92.3278 272.77V272.35L92.4478 272.23C92.7878 272.27 93.1478 272.31 93.5278 272.35C93.9078 272.39 94.2578 272.41 94.5778 272.41H95.7478C96.0678 272.41 96.4478 272.39 96.8878 272.35C97.3478 272.31 97.7778 272.27 98.1778 272.23L98.2978 272.35V272.71L98.1778 272.83C97.7378 272.87 97.3678 272.99 97.0678 273.19C96.7878 273.37 96.6478 273.64 96.6478 274C96.6478 274.16 96.6878 274.41 96.7678 274.75C96.8678 275.09 96.9878 275.47 97.1278 275.89C97.2678 276.31 97.4178 276.76 97.5778 277.24C97.7378 277.7 97.8978 278.14 98.0578 278.56C98.2178 278.98 98.3578 279.35 98.4778 279.67C98.5978 279.99 98.6778 280.21 98.7178 280.33L100.188 284.23L101.628 280.78C101.748 280.48 101.908 280.09 102.108 279.61C102.328 279.13 102.538 278.61 102.738 278.05C102.958 277.49 103.158 276.92 103.338 276.34C103.538 275.76 103.678 275.23 103.758 274.75C103.658 274.37 103.498 274 103.278 273.64C103.078 273.26 102.668 273.02 102.048 272.92L101.868 272.77V272.35L101.988 272.23C102.328 272.27 102.638 272.31 102.918 272.35C103.218 272.39 103.528 272.41 103.848 272.41H105.018C105.678 272.41 106.388 272.35 107.148 272.23L107.268 272.35V272.71L107.148 272.83C106.268 272.93 105.828 273.32 105.828 274C105.828 274.16 105.868 274.41 105.948 274.75C106.048 275.09 106.168 275.47 106.308 275.89C106.448 276.31 106.598 276.76 106.758 277.24C106.918 277.7 107.078 278.14 107.238 278.56C107.398 278.98 107.538 279.35 107.658 279.67C107.778 279.99 107.858 280.21 107.898 280.33L109.368 284.23L110.808 280.78C110.948 280.44 111.138 279.98 111.378 279.4C111.618 278.82 111.858 278.2 112.098 277.54C112.338 276.88 112.538 276.24 112.698 275.62C112.878 274.98 112.968 274.44 112.968 274C112.968 273.56 112.808 273.27 112.488 273.13C112.168 272.97 111.808 272.87 111.408 272.83L111.288 272.71V272.35L111.408 272.23C112.208 272.35 112.938 272.41 113.598 272.41H114.828C115.168 272.41 115.488 272.39 115.788 272.35C116.108 272.31 116.468 272.27 116.868 272.23L116.958 272.35V272.77L116.808 272.92C116.448 272.96 116.138 273.06 115.878 273.22C115.638 273.38 115.408 273.64 115.188 274C114.988 274.32 114.778 274.72 114.558 275.2C114.338 275.68 114.108 276.2 113.868 276.76C113.648 277.32 113.428 277.89 113.208 278.47C112.988 279.05 112.778 279.59 112.578 280.09C112.398 280.59 112.238 281.03 112.098 281.41C111.958 281.77 111.858 282.02 111.798 282.16L110.268 286L108.438 286.15L108.168 286ZM124.276 292.87C124.556 292.87 124.816 292.86 125.056 292.84C125.316 292.82 125.566 292.77 125.806 292.69C126.046 292.63 126.276 292.52 126.496 292.36C126.736 292.2 126.996 291.98 127.276 291.7C127.656 291.3 127.986 290.87 128.266 290.41C128.546 289.97 128.776 289.52 128.956 289.06L129.916 286.63L127.846 281.2C127.766 281.02 127.626 280.69 127.426 280.21C127.246 279.73 127.036 279.2 126.796 278.62C126.556 278.02 126.306 277.41 126.046 276.79C125.806 276.17 125.596 275.62 125.416 275.14C125.216 274.66 125.036 274.28 124.876 274C124.676 273.68 124.446 273.43 124.186 273.25C123.946 273.07 123.616 272.96 123.196 272.92L123.016 272.77V272.35L123.136 272.23C123.476 272.27 123.836 272.31 124.216 272.35C124.596 272.39 124.946 272.41 125.266 272.41H126.436C126.756 272.41 127.136 272.39 127.576 272.35C128.036 272.31 128.466 272.27 128.866 272.23L128.986 272.35V272.71L128.866 272.83C128.426 272.87 128.056 272.99 127.756 273.19C127.476 273.37 127.336 273.64 127.336 274C127.336 274.24 127.426 274.67 127.606 275.29C127.806 275.89 128.026 276.54 128.266 277.24C128.506 277.92 128.736 278.56 128.956 279.16C129.176 279.76 129.326 280.15 129.406 280.33L130.906 284.23L132.316 280.78C132.456 280.44 132.646 279.98 132.886 279.4C133.126 278.82 133.366 278.2 133.606 277.54C133.846 276.88 134.046 276.24 134.206 275.62C134.386 274.98 134.476 274.44 134.476 274C134.476 273.56 134.316 273.27 133.996 273.13C133.676 272.97 133.316 272.87 132.916 272.83L132.796 272.71V272.35L132.916 272.23C133.696 272.35 134.426 272.41 135.106 272.41H136.336C136.676 272.41 136.996 272.39 137.296 272.35C137.616 272.31 137.966 272.27 138.346 272.23L138.466 272.35V272.77L138.316 272.92C137.956 272.96 137.676 273.06 137.476 273.22C137.296 273.38 137.096 273.64 136.876 274C136.696 274.32 136.486 274.72 136.246 275.2C136.026 275.68 135.796 276.2 135.556 276.76C135.336 277.32 135.106 277.89 134.866 278.47C134.646 279.05 134.436 279.59 134.236 280.09C134.056 280.59 133.896 281.03 133.756 281.41C133.636 281.77 133.546 282.02 133.486 282.16L130.546 289.48C130.026 290.78 129.316 291.74 128.416 292.36C127.536 293 126.576 293.45 125.536 293.71C125.336 293.75 125.156 293.77 124.996 293.77C124.836 293.79 124.656 293.8 124.456 293.8L124.216 293.74L124.156 293.02L124.276 292.87ZM147.31 271.75C148.49 271.75 149.54 271.96 150.46 272.38C151.38 272.78 152.15 273.33 152.77 274.03C153.41 274.71 153.89 275.5 154.21 276.4C154.55 277.3 154.72 278.23 154.72 279.19C154.72 280.11 154.57 281 154.27 281.86C153.97 282.72 153.51 283.48 152.89 284.14C152.27 284.8 151.5 285.33 150.58 285.73C149.66 286.13 148.59 286.33 147.37 286.33C146.11 286.33 145.01 286.12 144.07 285.7C143.13 285.28 142.35 284.73 141.73 284.05C141.13 283.37 140.68 282.6 140.38 281.74C140.08 280.86 139.93 279.96 139.93 279.04C139.93 278.06 140.1 277.13 140.44 276.25C140.78 275.37 141.26 274.6 141.88 273.94C142.52 273.26 143.29 272.73 144.19 272.35C145.11 271.95 146.15 271.75 147.31 271.75ZM147.34 285.16C148.18 285.16 148.92 284.99 149.56 284.65C150.2 284.31 150.73 283.86 151.15 283.3C151.57 282.74 151.88 282.11 152.08 281.41C152.3 280.69 152.41 279.95 152.41 279.19C152.41 278.47 152.29 277.74 152.05 277C151.83 276.26 151.5 275.6 151.06 275.02C150.62 274.42 150.08 273.94 149.44 273.58C148.8 273.2 148.06 273.01 147.22 273.01C146.34 273.01 145.58 273.19 144.94 273.55C144.32 273.89 143.8 274.34 143.38 274.9C142.98 275.46 142.68 276.1 142.48 276.82C142.28 277.54 142.18 278.26 142.18 278.98C142.18 279.72 142.29 280.46 142.51 281.2C142.75 281.92 143.09 282.58 143.53 283.18C143.97 283.76 144.51 284.24 145.15 284.62C145.79 284.98 146.52 285.16 147.34 285.16ZM169.24 283.42C168.72 284.26 168.05 284.96 167.23 285.52C166.43 286.06 165.44 286.33 164.26 286.33C163.68 286.33 163.12 286.26 162.58 286.12C162.06 286 161.57 285.79 161.11 285.49C160.67 285.19 160.29 284.79 159.97 284.29C159.65 283.79 159.42 283.16 159.28 282.4C159.18 281.88 159.13 281.34 159.13 280.78C159.15 280.2 159.15 279.62 159.13 279.04C159.13 278.78 159.12 278.43 159.1 277.99C159.1 277.53 159.1 277.07 159.1 276.61C159.1 276.13 159.1 275.69 159.1 275.29C159.1 274.89 159.1 274.6 159.1 274.42C159.1 274.2 159.05 274.01 158.95 273.85C158.85 273.67 158.77 273.54 158.71 273.46C158.51 273.24 158.26 273.11 157.96 273.07C157.66 273.01 157.35 272.98 157.03 272.98L156.94 272.86V272.44L157.03 272.35H157.57C157.91 272.35 158.34 272.35 158.86 272.35C159.38 272.33 159.83 272.29 160.21 272.23L161.26 272.08L161.44 272.35C161.4 272.43 161.37 272.58 161.35 272.8C161.33 273 161.31 273.22 161.29 273.46C161.27 273.7 161.26 273.93 161.26 274.15C161.26 274.37 161.26 274.54 161.26 274.66C161.26 275 161.25 275.38 161.23 275.8C161.23 276.2 161.22 276.61 161.2 277.03C161.2 277.45 161.19 277.85 161.17 278.23C161.17 278.61 161.17 278.93 161.17 279.19C161.17 279.63 161.18 280.13 161.2 280.69C161.24 281.23 161.31 281.7 161.41 282.1C161.61 283.04 162.02 283.74 162.64 284.2C163.26 284.66 163.98 284.89 164.8 284.89C165.42 284.89 165.99 284.77 166.51 284.53C167.03 284.27 167.48 283.96 167.86 283.6C168.26 283.24 168.58 282.86 168.82 282.46C169.08 282.04 169.25 281.66 169.33 281.32V277.42C169.33 277 169.32 276.65 169.3 276.37C169.3 276.07 169.29 275.81 169.27 275.59C169.27 275.37 169.26 275.17 169.24 274.99C169.24 274.81 169.23 274.62 169.21 274.42C169.17 274.2 169.11 274.01 169.03 273.85C168.97 273.67 168.91 273.55 168.85 273.49C168.65 273.25 168.4 273.11 168.1 273.07C167.8 273.01 167.49 272.98 167.17 272.98L167.05 272.86V272.44L167.17 272.35H167.71C168.05 272.35 168.48 272.35 169 272.35C169.52 272.33 169.96 272.29 170.32 272.23L171.37 272.08L171.55 272.35C171.51 272.43 171.48 272.58 171.46 272.8C171.44 273 171.42 273.22 171.4 273.46C171.38 273.7 171.37 273.93 171.37 274.15C171.37 274.37 171.37 274.54 171.37 274.66C171.37 274.82 171.36 274.97 171.34 275.11C171.34 275.25 171.34 275.42 171.34 275.62C171.34 275.82 171.33 276.06 171.31 276.34C171.31 276.6 171.31 276.95 171.31 277.39V280.75C171.31 281.19 171.31 281.55 171.31 281.83C171.33 282.11 171.34 282.35 171.34 282.55C171.36 282.75 171.37 282.94 171.37 283.12C171.39 283.28 171.4 283.46 171.4 283.66C171.44 284.12 171.49 284.46 171.55 284.68C171.61 284.88 171.71 285.03 171.85 285.13C172.01 285.29 172.24 285.39 172.54 285.43C172.86 285.45 173.18 285.46 173.5 285.46L173.62 285.58L173.68 286L173.62 286.12C173.26 286.08 172.87 286.05 172.45 286.03C172.03 286.01 171.62 286 171.22 286C170.46 286 169.77 286.03 169.15 286.09L168.97 285.79C169.03 285.53 169.09 285.19 169.15 284.77C169.23 284.35 169.29 283.92 169.33 283.48L169.24 283.42ZM179.939 275.38C180.139 275 180.359 274.6 180.599 274.18C180.859 273.76 181.149 273.37 181.469 273.01C181.789 272.65 182.149 272.35 182.549 272.11C182.969 271.87 183.439 271.75 183.959 271.75C184.319 271.75 184.719 271.81 185.159 271.93C185.619 272.03 185.929 272.17 186.089 272.35L186.329 272.62L185.969 274.93H184.979C184.919 274.65 184.759 274.4 184.499 274.18C184.259 273.94 183.879 273.82 183.359 273.82C182.859 273.82 182.399 273.97 181.979 274.27C181.559 274.55 181.189 274.91 180.869 275.35C180.569 275.79 180.329 276.26 180.149 276.76C179.989 277.24 179.909 277.68 179.909 278.08V280.75C179.909 281.19 179.909 281.55 179.909 281.83C179.929 282.09 179.939 282.32 179.939 282.52C179.959 282.7 179.969 282.86 179.969 283C179.989 283.12 179.999 283.25 179.999 283.39L180.029 283.66C180.069 283.96 180.109 284.25 180.149 284.53C180.209 284.79 180.319 284.99 180.479 285.13C180.579 285.21 180.719 285.27 180.899 285.31C181.099 285.35 181.299 285.38 181.499 285.4C181.719 285.42 181.929 285.44 182.129 285.46C182.329 285.46 182.489 285.46 182.609 285.46L182.759 285.61L182.819 286L182.759 286.12C182.619 286.12 182.389 286.11 182.069 286.09C181.769 286.07 181.449 286.05 181.109 286.03C180.769 286.03 180.439 286.02 180.119 286C179.819 286 179.599 286 179.459 286H178.739C178.599 286 178.379 286 178.079 286C177.799 286.02 177.499 286.03 177.179 286.03C176.859 286.05 176.549 286.07 176.249 286.09C175.969 286.11 175.759 286.12 175.619 286.12L175.589 286L175.619 285.58L175.739 285.46C176.059 285.46 176.369 285.45 176.669 285.43C176.989 285.39 177.229 285.29 177.389 285.13C177.549 284.99 177.649 284.81 177.689 284.59C177.749 284.37 177.799 284.06 177.839 283.66L177.869 283.39C177.889 283.19 177.899 282.94 177.899 282.64C177.919 282.34 177.929 281.83 177.929 281.11V277.42C177.929 277 177.929 276.65 177.929 276.37C177.929 276.07 177.919 275.81 177.899 275.59C177.899 275.37 177.889 275.17 177.869 274.99C177.869 274.81 177.859 274.62 177.839 274.42C177.799 274.2 177.739 274.01 177.659 273.85C177.579 273.67 177.509 273.55 177.449 273.49C177.249 273.25 176.999 273.11 176.699 273.07C176.399 273.01 176.089 272.98 175.769 272.98L175.649 272.86V272.44L175.769 272.35H176.309C176.649 272.35 177.079 272.35 177.599 272.35C178.119 272.33 178.569 272.29 178.949 272.23L179.999 272.08L180.179 272.35C180.059 272.77 179.969 273.25 179.909 273.79C179.869 274.33 179.849 274.85 179.849 275.35L179.939 275.38ZM194.759 264.19L194.879 264.07H195.419C195.759 264.07 196.189 264.07 196.709 264.07C197.229 264.05 197.679 264.01 198.059 263.95L199.139 263.8L199.319 264.07C199.279 264.15 199.249 264.3 199.229 264.52C199.209 264.72 199.189 264.94 199.169 265.18C199.149 265.42 199.129 265.65 199.109 265.87C199.109 266.09 199.109 266.26 199.109 266.38C199.089 266.7 199.069 267 199.049 267.28C199.049 267.56 199.039 267.89 199.019 268.27C199.019 268.65 199.019 269.11 199.019 269.65C199.019 270.19 199.019 270.88 199.019 271.72V278.26C199.019 279.1 199.019 279.79 199.019 280.33C199.039 280.87 199.049 281.33 199.049 281.71C199.069 282.09 199.079 282.42 199.079 282.7C199.099 282.98 199.119 283.3 199.139 283.66C199.179 284.08 199.219 284.4 199.259 284.62C199.319 284.82 199.429 284.99 199.589 285.13C199.749 285.27 199.969 285.36 200.249 285.4C200.549 285.44 200.849 285.46 201.149 285.46L201.299 285.61L201.359 286L201.299 286.12C201.159 286.12 200.949 286.11 200.669 286.09C200.389 286.07 200.089 286.05 199.769 286.03C199.449 286.03 199.149 286.02 198.869 286C198.589 286 198.379 286 198.239 286H197.819C197.679 286 197.459 286 197.159 286C196.879 286.02 196.579 286.03 196.259 286.03C195.959 286.05 195.659 286.07 195.359 286.09C195.079 286.11 194.869 286.12 194.729 286.12L194.699 286L194.729 285.58L194.849 285.46C195.169 285.46 195.479 285.45 195.779 285.43C196.099 285.39 196.339 285.29 196.499 285.13C196.659 284.99 196.759 284.81 196.799 284.59C196.859 284.37 196.909 284.06 196.949 283.66C196.969 283.4 196.979 283.14 196.979 282.88C196.999 282.62 197.009 282.32 197.009 281.98C197.029 281.62 197.039 281.21 197.039 280.75C197.039 280.27 197.039 279.68 197.039 278.98V271.78C197.039 270.96 197.039 270.27 197.039 269.71C197.039 269.13 197.029 268.63 197.009 268.21C197.009 267.79 196.999 267.42 196.979 267.1C196.979 266.78 196.969 266.46 196.949 266.14C196.929 265.92 196.869 265.73 196.769 265.57C196.689 265.41 196.619 265.29 196.559 265.21C196.359 264.99 196.109 264.85 195.809 264.79C195.509 264.73 195.199 264.7 194.879 264.7L194.759 264.58V264.19ZM209.925 286.12C209.785 286.12 209.575 286.11 209.295 286.09C209.015 286.07 208.715 286.05 208.395 286.03C208.075 286.03 207.775 286.02 207.495 286C207.215 286 207.005 286 206.865 286H206.445C206.305 286 206.085 286 205.785 286C205.505 286.02 205.205 286.03 204.885 286.03C204.585 286.05 204.285 286.07 203.985 286.09C203.705 286.11 203.495 286.12 203.355 286.12L203.325 286L203.355 285.58L203.475 285.46C203.795 285.46 204.105 285.45 204.405 285.43C204.725 285.39 204.965 285.29 205.125 285.13C205.285 284.99 205.385 284.81 205.425 284.59C205.485 284.37 205.535 284.06 205.575 283.66C205.595 283.34 205.615 283.02 205.635 282.7C205.655 282.36 205.665 281.83 205.665 281.11V277.42C205.665 277 205.665 276.65 205.665 276.37C205.665 276.07 205.655 275.81 205.635 275.59C205.635 275.37 205.625 275.17 205.605 274.99C205.605 274.81 205.595 274.62 205.575 274.42C205.535 274.2 205.475 274.01 205.395 273.85C205.315 273.67 205.245 273.55 205.185 273.49C204.985 273.25 204.735 273.11 204.435 273.07C204.135 273.01 203.825 272.98 203.505 272.98L203.385 272.86V272.44L203.505 272.35H204.045C204.385 272.35 204.815 272.35 205.335 272.35C205.855 272.33 206.305 272.29 206.685 272.23L207.735 272.08L207.915 272.35C207.875 272.43 207.835 272.57 207.795 272.77C207.775 272.97 207.755 273.19 207.735 273.43C207.735 273.65 207.725 273.87 207.705 274.09C207.705 274.31 207.705 274.48 207.705 274.6C207.705 274.76 207.695 274.92 207.675 275.08C207.675 275.22 207.675 275.39 207.675 275.59C207.675 275.79 207.665 276.03 207.645 276.31C207.645 276.59 207.645 276.95 207.645 277.39V280.75C207.645 281.19 207.645 281.55 207.645 281.83C207.665 282.11 207.675 282.35 207.675 282.55C207.695 282.75 207.705 282.94 207.705 283.12C207.725 283.28 207.745 283.46 207.765 283.66C207.805 284.08 207.845 284.4 207.885 284.62C207.945 284.82 208.055 284.99 208.215 285.13C208.375 285.27 208.595 285.36 208.875 285.4C209.175 285.44 209.475 285.46 209.775 285.46L209.925 285.61L209.985 286L209.925 286.12ZM204.885 267.07C204.885 266.67 205.015 266.33 205.275 266.05C205.555 265.75 205.895 265.6 206.295 265.6C206.695 265.6 207.035 265.75 207.315 266.05C207.615 266.33 207.765 266.67 207.765 267.07C207.765 267.47 207.615 267.81 207.315 268.09C207.035 268.35 206.695 268.48 206.295 268.48C205.895 268.48 205.555 268.35 205.275 268.09C205.015 267.81 204.885 267.47 204.885 267.07ZM219.056 278.05C219.896 278.23 220.566 278.48 221.066 278.8C221.586 279.1 221.986 279.43 222.266 279.79C222.546 280.15 222.726 280.52 222.806 280.9C222.906 281.26 222.956 281.6 222.956 281.92C222.956 282.56 222.826 283.15 222.566 283.69C222.306 284.23 221.926 284.7 221.426 285.1C220.946 285.48 220.356 285.78 219.656 286C218.956 286.22 218.166 286.33 217.286 286.33C216.306 286.33 215.386 286.22 214.526 286C213.686 285.76 213.016 285.51 212.516 285.25L212.456 284.98L212.906 281.89H213.596L213.686 282.01C213.686 282.97 213.986 283.73 214.586 284.29C215.186 284.83 216.056 285.1 217.196 285.1C217.876 285.1 218.446 285.02 218.906 284.86C219.366 284.7 219.726 284.49 219.986 284.23C220.266 283.97 220.466 283.69 220.586 283.39C220.706 283.09 220.766 282.8 220.766 282.52C220.766 282.34 220.756 282.14 220.736 281.92C220.716 281.68 220.636 281.45 220.496 281.23C220.356 280.99 220.146 280.77 219.866 280.57C219.586 280.35 219.186 280.17 218.666 280.03L215.786 279.31C215.126 279.15 214.586 278.94 214.166 278.68C213.746 278.42 213.416 278.14 213.176 277.84C212.936 277.52 212.766 277.19 212.666 276.85C212.566 276.49 212.516 276.13 212.516 275.77C212.516 275.11 212.646 274.53 212.906 274.03C213.166 273.51 213.516 273.09 213.956 272.77C214.416 272.43 214.946 272.18 215.546 272.02C216.146 271.84 216.796 271.75 217.496 271.75C218.436 271.75 219.296 271.87 220.076 272.11C220.876 272.35 221.496 272.59 221.936 272.83L222.026 273.1L221.696 275.41H221.066L220.946 275.32C220.946 274.86 220.816 274.48 220.556 274.18C220.316 273.86 220.016 273.61 219.656 273.43C219.296 273.23 218.916 273.09 218.516 273.01C218.116 272.93 217.766 272.89 217.466 272.89C216.466 272.89 215.746 273.14 215.306 273.64C214.866 274.14 214.646 274.7 214.646 275.32C214.646 275.78 214.796 276.22 215.096 276.64C215.416 277.04 216.026 277.35 216.926 277.57L219.056 278.05ZM233.32 273.61H229.42C229.42 274.91 229.41 276.11 229.39 277.21C229.39 278.31 229.39 279.28 229.39 280.12C229.39 280.94 229.38 281.6 229.36 282.1C229.36 282.6 229.36 282.91 229.36 283.03C229.36 283.81 229.51 284.33 229.81 284.59C230.11 284.85 230.46 284.98 230.86 284.98C231.2 284.98 231.59 284.92 232.03 284.8C232.49 284.66 232.86 284.51 233.14 284.35L233.41 284.56L233.14 285.4C232.68 285.72 232.16 285.95 231.58 286.09C231.02 286.25 230.52 286.33 230.08 286.33C229.06 286.33 228.34 286.05 227.92 285.49C227.5 284.93 227.29 284.21 227.29 283.33C227.29 283.15 227.3 282.78 227.32 282.22C227.34 281.66 227.36 280.96 227.38 280.12C227.4 279.28 227.42 278.31 227.44 277.21C227.46 276.11 227.47 274.91 227.47 273.61H225.31L225.19 273.46V272.89L225.31 272.77L227.47 272.35C227.47 271.65 227.45 270.94 227.41 270.22C227.39 269.48 227.36 268.76 227.32 268.06L227.53 267.88L227.95 267.85C228.11 267.83 228.37 267.79 228.73 267.73C229.09 267.67 229.34 267.6 229.48 267.52L229.75 267.64C229.69 267.92 229.64 268.25 229.6 268.63C229.56 268.99 229.52 269.38 229.48 269.8C229.46 270.22 229.44 270.65 229.42 271.09C229.42 271.53 229.42 271.95 229.42 272.35L233.32 272.17L233.47 272.29V273.46L233.32 273.61ZM256.992 286L253.452 276.88C253.232 277.44 253.012 278 252.792 278.56C252.592 279.12 252.402 279.65 252.222 280.15C252.042 280.63 251.882 281.05 251.742 281.41C251.602 281.77 251.502 282.02 251.442 282.16L249.912 286L248.082 286.15L247.782 286L245.982 281.2C245.922 281.04 245.792 280.73 245.592 280.27C245.412 279.79 245.202 279.25 244.962 278.65C244.722 278.05 244.472 277.44 244.212 276.82C243.972 276.18 243.752 275.62 243.552 275.14C243.352 274.66 243.172 274.28 243.012 274C242.812 273.68 242.582 273.43 242.322 273.25C242.082 273.07 241.752 272.96 241.332 272.92L241.152 272.77V272.35L241.272 272.23C241.612 272.27 241.972 272.31 242.352 272.35C242.732 272.39 243.082 272.41 243.402 272.41H244.572C244.892 272.41 245.272 272.39 245.712 272.35C246.172 272.31 246.602 272.27 247.002 272.23L247.122 272.35V272.71L247.002 272.83C246.562 272.87 246.192 272.99 245.892 273.19C245.612 273.37 245.472 273.64 245.472 274C245.472 274.16 245.512 274.41 245.592 274.75C245.692 275.09 245.812 275.47 245.952 275.89C246.092 276.31 246.242 276.76 246.402 277.24C246.562 277.7 246.722 278.14 246.882 278.56C247.042 278.98 247.182 279.35 247.302 279.67C247.422 279.99 247.502 280.21 247.542 280.33L249.012 284.23L250.452 280.78C250.572 280.48 250.732 280.09 250.932 279.61C251.152 279.13 251.362 278.61 251.562 278.05C251.782 277.49 251.982 276.92 252.162 276.34C252.362 275.76 252.502 275.23 252.582 274.75C252.482 274.37 252.322 274 252.102 273.64C251.902 273.26 251.492 273.02 250.872 272.92L250.692 272.77V272.35L250.812 272.23C251.152 272.27 251.462 272.31 251.742 272.35C252.042 272.39 252.352 272.41 252.672 272.41H253.842C254.502 272.41 255.212 272.35 255.972 272.23L256.092 272.35V272.71L255.972 272.83C255.092 272.93 254.652 273.32 254.652 274C254.652 274.16 254.692 274.41 254.772 274.75C254.872 275.09 254.992 275.47 255.132 275.89C255.272 276.31 255.422 276.76 255.582 277.24C255.742 277.7 255.902 278.14 256.062 278.56C256.222 278.98 256.362 279.35 256.482 279.67C256.602 279.99 256.682 280.21 256.722 280.33L258.192 284.23L259.632 280.78C259.772 280.44 259.962 279.98 260.202 279.4C260.442 278.82 260.682 278.2 260.922 277.54C261.162 276.88 261.362 276.24 261.522 275.62C261.702 274.98 261.792 274.44 261.792 274C261.792 273.56 261.632 273.27 261.312 273.13C260.992 272.97 260.632 272.87 260.232 272.83L260.112 272.71V272.35L260.232 272.23C261.032 272.35 261.762 272.41 262.422 272.41H263.652C263.992 272.41 264.312 272.39 264.612 272.35C264.932 272.31 265.292 272.27 265.692 272.23L265.782 272.35V272.77L265.632 272.92C265.272 272.96 264.962 273.06 264.702 273.22C264.462 273.38 264.232 273.64 264.012 274C263.812 274.32 263.602 274.72 263.382 275.2C263.162 275.68 262.932 276.2 262.692 276.76C262.472 277.32 262.252 277.89 262.032 278.47C261.812 279.05 261.602 279.59 261.402 280.09C261.222 280.59 261.062 281.03 260.922 281.41C260.782 281.77 260.682 282.02 260.622 282.16L259.092 286L257.262 286.15L256.992 286ZM278.813 285.79C278.893 285.53 278.953 285.19 278.993 284.77C279.033 284.35 279.063 283.98 279.083 283.66C279.123 282.82 279.153 282 279.173 281.2C279.193 280.38 279.203 279.7 279.203 279.16C279.203 278.7 279.183 278.2 279.143 277.66C279.123 277.12 279.063 276.65 278.963 276.25C278.763 275.31 278.353 274.61 277.733 274.15C277.113 273.69 276.393 273.46 275.573 273.46C274.913 273.46 274.293 273.61 273.713 273.91C273.153 274.19 272.673 274.54 272.273 274.96C271.873 275.36 271.553 275.79 271.313 276.25C271.093 276.69 270.983 277.06 270.983 277.36C270.983 278.44 270.983 279.31 270.983 279.97C270.983 280.61 270.983 281.15 270.983 281.59C271.003 282.03 271.013 282.4 271.013 282.7C271.033 282.98 271.063 283.3 271.103 283.66C271.143 284.08 271.183 284.4 271.223 284.62C271.283 284.82 271.393 284.99 271.553 285.13C271.713 285.27 271.933 285.36 272.213 285.4C272.513 285.44 272.813 285.46 273.113 285.46L273.263 285.61L273.323 286L273.263 286.12C273.123 286.12 272.913 286.11 272.633 286.09C272.353 286.07 272.053 286.05 271.733 286.03C271.413 286.03 271.113 286.02 270.833 286C270.553 286 270.343 286 270.203 286H269.783C269.643 286 269.423 286 269.123 286C268.843 286.02 268.543 286.03 268.223 286.03C267.923 286.05 267.623 286.07 267.323 286.09C267.043 286.11 266.833 286.12 266.693 286.12L266.663 286L266.693 285.58L266.813 285.46C267.133 285.46 267.443 285.45 267.743 285.43C268.063 285.39 268.303 285.29 268.463 285.13C268.623 284.99 268.723 284.81 268.763 284.59C268.823 284.37 268.873 284.06 268.913 283.66C268.933 283.4 268.943 283.14 268.943 282.88C268.963 282.62 268.973 282.32 268.973 281.98C268.993 281.62 269.003 281.21 269.003 280.75C269.003 280.27 269.003 279.68 269.003 278.98V271.78C269.003 270.96 269.003 270.27 269.003 269.71C269.003 269.13 268.993 268.63 268.973 268.21C268.973 267.79 268.963 267.42 268.943 267.1C268.943 266.78 268.933 266.46 268.913 266.14C268.893 265.92 268.833 265.73 268.733 265.57C268.653 265.41 268.583 265.29 268.523 265.21C268.323 264.99 268.073 264.85 267.773 264.79C267.473 264.73 267.163 264.7 266.843 264.7L266.723 264.58V264.19L266.843 264.07H267.383C267.723 264.07 268.153 264.07 268.673 264.07C269.193 264.05 269.643 264.01 270.022 263.95L271.073 263.8L271.253 264.07C271.213 264.15 271.183 264.3 271.163 264.52C271.143 264.72 271.123 264.94 271.103 265.18C271.083 265.42 271.073 265.65 271.073 265.87C271.073 266.09 271.073 266.26 271.073 266.38C271.073 267.02 271.053 267.79 271.013 268.69C270.993 269.57 270.983 270.58 270.983 271.72C270.983 272.56 270.973 273.22 270.953 273.7C270.953 274.18 270.933 274.56 270.893 274.84L270.983 274.9C271.483 274.02 272.153 273.28 272.993 272.68C273.833 272.06 274.873 271.75 276.113 271.75C276.673 271.75 277.233 271.83 277.793 271.99C278.373 272.15 278.893 272.4 279.353 272.74C279.813 273.08 280.203 273.51 280.523 274.03C280.843 274.55 281.043 275.17 281.123 275.89C281.183 276.41 281.212 277.01 281.212 277.69C281.233 278.35 281.243 278.89 281.243 279.31V283.54C281.243 284 281.283 284.36 281.363 284.62C281.463 284.86 281.573 285.03 281.693 285.13C281.873 285.29 282.113 285.39 282.413 285.43C282.733 285.45 283.053 285.46 283.373 285.46L283.463 285.58L283.523 286L283.463 286.12C283.123 286.08 282.743 286.05 282.323 286.03C281.903 286.01 281.493 286 281.093 286C280.333 286 279.643 286.03 279.023 286.09L278.813 285.79ZM298.663 277.93L298.183 278.14C297.103 278.14 295.993 278.15 294.853 278.17C293.713 278.19 292.593 278.2 291.493 278.2H287.953C287.933 278.34 287.923 278.48 287.923 278.62C287.923 278.74 287.923 278.86 287.923 278.98C287.923 279.74 288.033 280.47 288.253 281.17C288.473 281.85 288.813 282.45 289.273 282.97C289.753 283.49 290.363 283.91 291.103 284.23C291.843 284.53 292.743 284.68 293.803 284.68C294.423 284.68 295.083 284.62 295.783 284.5C296.503 284.36 297.163 284.12 297.763 283.78L298.063 283.96V284.5L297.763 284.83C297.283 285.21 296.603 285.56 295.723 285.88C294.843 286.18 293.863 286.33 292.783 286.33C291.723 286.33 290.753 286.16 289.873 285.82C289.013 285.46 288.263 284.96 287.623 284.32C287.003 283.68 286.513 282.92 286.153 282.04C285.813 281.16 285.643 280.18 285.643 279.1C285.643 278 285.823 277 286.183 276.1C286.543 275.2 287.033 274.43 287.653 273.79C288.293 273.15 289.033 272.65 289.873 272.29C290.733 271.93 291.653 271.75 292.633 271.75C293.153 271.75 293.733 271.82 294.373 271.96C295.033 272.1 295.663 272.37 296.263 272.77C296.863 273.15 297.403 273.7 297.883 274.42C298.363 275.12 298.693 276.05 298.873 277.21L298.663 277.93ZM292.663 273.1C292.023 273.1 291.443 273.21 290.923 273.43C290.423 273.63 289.973 273.91 289.573 274.27C289.193 274.61 288.873 275.02 288.613 275.5C288.373 275.96 288.203 276.45 288.103 276.97H289.273C290.353 276.97 291.403 276.96 292.423 276.94C293.443 276.9 294.513 276.85 295.633 276.79C295.893 276.77 296.063 276.7 296.143 276.58C296.243 276.46 296.293 276.32 296.293 276.16C296.293 276.04 296.283 275.93 296.263 275.83C296.243 275.73 296.213 275.63 296.173 275.53C295.953 274.77 295.543 274.18 294.943 273.76C294.343 273.32 293.583 273.1 292.663 273.1ZM305.665 274.78C306.185 273.92 306.855 273.2 307.675 272.62C308.495 272.04 309.515 271.75 310.735 271.75C311.295 271.75 311.855 271.83 312.415 271.99C312.975 272.15 313.485 272.4 313.945 272.74C314.425 273.08 314.815 273.52 315.115 274.06C315.435 274.58 315.645 275.2 315.745 275.92C315.805 276.44 315.835 276.99 315.835 277.57C315.855 278.15 315.865 278.73 315.865 279.31C315.865 280.03 315.865 280.76 315.865 281.5C315.885 282.22 315.895 282.94 315.895 283.66C315.935 284.12 315.985 284.46 316.045 284.68C316.105 284.88 316.195 285.03 316.315 285.13C316.495 285.29 316.735 285.39 317.035 285.43C317.355 285.45 317.675 285.46 317.995 285.46L318.085 285.58L318.145 286L318.085 286.12C317.745 286.08 317.365 286.05 316.945 286.03C316.525 286.01 316.115 286 315.715 286C314.955 286 314.265 286.03 313.645 286.09L313.435 285.79C313.515 285.53 313.575 285.19 313.615 284.77C313.655 284.35 313.685 283.98 313.705 283.66C313.745 282.82 313.775 282 313.795 281.2C313.815 280.38 313.825 279.7 313.825 279.16C313.825 278.7 313.805 278.2 313.765 277.66C313.745 277.12 313.685 276.65 313.585 276.25C313.385 275.31 312.975 274.61 312.355 274.15C311.735 273.69 311.015 273.46 310.195 273.46C309.535 273.46 308.915 273.6 308.335 273.88C307.775 274.16 307.295 274.51 306.895 274.93C306.495 275.33 306.175 275.76 305.935 276.22C305.715 276.66 305.605 277.04 305.605 277.36V280.75C305.605 281.19 305.605 281.55 305.605 281.83C305.605 282.11 305.605 282.35 305.605 282.55C305.625 282.75 305.645 282.94 305.665 283.12C305.685 283.28 305.705 283.46 305.725 283.66C305.765 284.08 305.805 284.4 305.845 284.62C305.905 284.82 306.015 284.99 306.175 285.13C306.335 285.27 306.555 285.36 306.835 285.4C307.135 285.44 307.435 285.46 307.735 285.46L307.885 285.61L307.945 286L307.885 286.12C307.745 286.12 307.535 286.11 307.255 286.09C306.975 286.07 306.675 286.05 306.355 286.03C306.035 286.03 305.735 286.02 305.455 286C305.175 286 304.965 286 304.825 286H304.405C304.265 286 304.045 286 303.745 286C303.465 286.02 303.165 286.03 302.845 286.03C302.545 286.05 302.245 286.07 301.945 286.09C301.665 286.11 301.455 286.12 301.315 286.12L301.285 286L301.315 285.58L301.435 285.46C301.755 285.46 302.065 285.45 302.365 285.43C302.685 285.39 302.925 285.29 303.085 285.13C303.245 284.99 303.345 284.81 303.385 284.59C303.445 284.37 303.495 284.06 303.535 283.66C303.555 283.34 303.575 283.02 303.595 282.7C303.615 282.36 303.625 281.83 303.625 281.11V277.42C303.625 277 303.625 276.65 303.625 276.37C303.625 276.07 303.615 275.81 303.595 275.59C303.595 275.37 303.585 275.17 303.565 274.99C303.565 274.81 303.555 274.62 303.535 274.42C303.495 274.2 303.435 274.01 303.355 273.85C303.275 273.67 303.205 273.55 303.145 273.49C302.945 273.25 302.695 273.11 302.395 273.07C302.095 273.01 301.785 272.98 301.465 272.98L301.345 272.86V272.44L301.465 272.35H302.005C302.345 272.35 302.775 272.35 303.295 272.35C303.815 272.33 304.265 272.29 304.645 272.23L305.695 272.08L305.875 272.35C305.775 272.61 305.705 272.97 305.665 273.43C305.625 273.87 305.595 274.3 305.575 274.72L305.665 274.78ZM333.306 277.93L332.826 278.14C331.746 278.14 330.636 278.15 329.496 278.17C328.356 278.19 327.236 278.2 326.136 278.2H322.596C322.576 278.34 322.566 278.48 322.566 278.62C322.566 278.74 322.566 278.86 322.566 278.98C322.566 279.74 322.676 280.47 322.896 281.17C323.116 281.85 323.456 282.45 323.916 282.97C324.396 283.49 325.006 283.91 325.746 284.23C326.486 284.53 327.386 284.68 328.446 284.68C329.066 284.68 329.726 284.62 330.426 284.5C331.146 284.36 331.806 284.12 332.406 283.78L332.706 283.96V284.5L332.406 284.83C331.926 285.21 331.246 285.56 330.366 285.88C329.486 286.18 328.506 286.33 327.426 286.33C326.366 286.33 325.396 286.16 324.516 285.82C323.656 285.46 322.906 284.96 322.266 284.32C321.646 283.68 321.156 282.92 320.796 282.04C320.456 281.16 320.286 280.18 320.286 279.1C320.286 278 320.466 277 320.826 276.1C321.186 275.2 321.676 274.43 322.296 273.79C322.936 273.15 323.676 272.65 324.516 272.29C325.376 271.93 326.296 271.75 327.276 271.75C327.796 271.75 328.376 271.82 329.016 271.96C329.676 272.1 330.306 272.37 330.906 272.77C331.506 273.15 332.046 273.7 332.526 274.42C333.006 275.12 333.336 276.05 333.516 277.21L333.306 277.93ZM327.306 273.1C326.666 273.1 326.086 273.21 325.566 273.43C325.066 273.63 324.616 273.91 324.216 274.27C323.836 274.61 323.516 275.02 323.256 275.5C323.016 275.96 322.846 276.45 322.746 276.97H323.916C324.996 276.97 326.046 276.96 327.066 276.94C328.086 276.9 329.156 276.85 330.276 276.79C330.536 276.77 330.706 276.7 330.786 276.58C330.886 276.46 330.936 276.32 330.936 276.16C330.936 276.04 330.926 275.93 330.906 275.83C330.886 275.73 330.856 275.63 330.816 275.53C330.596 274.77 330.186 274.18 329.586 273.76C328.986 273.32 328.226 273.1 327.306 273.1ZM341.633 286.15L341.333 286L339.533 281.2C339.473 281.02 339.343 280.69 339.143 280.21C338.963 279.73 338.753 279.2 338.513 278.62C338.273 278.04 338.023 277.44 337.763 276.82C337.523 276.18 337.303 275.62 337.103 275.14C336.903 274.66 336.723 274.28 336.563 274C336.363 273.68 336.133 273.43 335.873 273.25C335.633 273.07 335.303 272.96 334.883 272.92L334.703 272.77V272.35L334.823 272.23C335.163 272.27 335.523 272.31 335.903 272.35C336.283 272.39 336.633 272.41 336.953 272.41H338.123C338.443 272.41 338.823 272.39 339.263 272.35C339.723 272.31 340.153 272.27 340.553 272.23L340.673 272.35V272.71L340.553 272.83C340.113 272.87 339.743 272.99 339.443 273.19C339.163 273.37 339.023 273.64 339.023 274C339.023 274.24 339.113 274.67 339.293 275.29C339.493 275.89 339.713 276.54 339.953 277.24C340.193 277.92 340.423 278.56 340.643 279.16C340.863 279.74 341.013 280.13 341.093 280.33L342.563 284.23L344.003 280.78C344.143 280.44 344.333 279.98 344.573 279.4C344.813 278.82 345.053 278.2 345.293 277.54C345.533 276.88 345.733 276.24 345.893 275.62C346.073 274.98 346.163 274.44 346.163 274C346.163 273.56 346.003 273.27 345.683 273.13C345.363 272.97 345.003 272.87 344.603 272.83L344.483 272.71V272.35L344.603 272.23C345.383 272.35 346.113 272.41 346.793 272.41H348.023C348.363 272.41 348.693 272.39 349.013 272.35C349.353 272.31 349.713 272.27 350.093 272.23L350.213 272.35V272.77L350.033 272.92C349.693 272.96 349.393 273.06 349.133 273.22C348.893 273.38 348.663 273.64 348.443 274C348.263 274.32 348.053 274.72 347.813 275.2C347.593 275.68 347.363 276.2 347.123 276.76C346.903 277.32 346.673 277.89 346.433 278.47C346.213 279.05 346.003 279.59 345.803 280.09C345.623 280.59 345.463 281.03 345.323 281.41C345.203 281.77 345.113 282.02 345.053 282.16L343.523 286L341.633 286.15ZM364.668 277.93L364.188 278.14C363.108 278.14 361.998 278.15 360.858 278.17C359.718 278.19 358.598 278.2 357.498 278.2H353.958C353.938 278.34 353.928 278.48 353.928 278.62C353.928 278.74 353.928 278.86 353.928 278.98C353.928 279.74 354.038 280.47 354.258 281.17C354.478 281.85 354.818 282.45 355.278 282.97C355.758 283.49 356.368 283.91 357.108 284.23C357.848 284.53 358.748 284.68 359.808 284.68C360.428 284.68 361.088 284.62 361.788 284.5C362.508 284.36 363.168 284.12 363.768 283.78L364.068 283.96V284.5L363.768 284.83C363.288 285.21 362.608 285.56 361.728 285.88C360.848 286.18 359.868 286.33 358.788 286.33C357.728 286.33 356.758 286.16 355.878 285.82C355.018 285.46 354.268 284.96 353.628 284.32C353.008 283.68 352.518 282.92 352.158 282.04C351.818 281.16 351.648 280.18 351.648 279.1C351.648 278 351.828 277 352.188 276.1C352.548 275.2 353.038 274.43 353.658 273.79C354.298 273.15 355.038 272.65 355.878 272.29C356.738 271.93 357.658 271.75 358.638 271.75C359.158 271.75 359.738 271.82 360.378 271.96C361.038 272.1 361.668 272.37 362.268 272.77C362.868 273.15 363.408 273.7 363.888 274.42C364.368 275.12 364.698 276.05 364.878 277.21L364.668 277.93ZM358.668 273.1C358.028 273.1 357.448 273.21 356.928 273.43C356.428 273.63 355.978 273.91 355.578 274.27C355.198 274.61 354.878 275.02 354.618 275.5C354.378 275.96 354.208 276.45 354.108 276.97H355.278C356.358 276.97 357.408 276.96 358.428 276.94C359.448 276.9 360.518 276.85 361.638 276.79C361.898 276.77 362.068 276.7 362.148 276.58C362.248 276.46 362.298 276.32 362.298 276.16C362.298 276.04 362.288 275.93 362.268 275.83C362.248 275.73 362.218 275.63 362.178 275.53C361.958 274.77 361.548 274.18 360.948 273.76C360.348 273.32 359.588 273.1 358.668 273.1ZM371.639 275.38C371.839 275 372.059 274.6 372.299 274.18C372.559 273.76 372.849 273.37 373.169 273.01C373.489 272.65 373.849 272.35 374.249 272.11C374.669 271.87 375.139 271.75 375.659 271.75C376.019 271.75 376.419 271.81 376.859 271.93C377.319 272.03 377.629 272.17 377.789 272.35L378.029 272.62L377.669 274.93H376.679C376.619 274.65 376.459 274.4 376.199 274.18C375.959 273.94 375.579 273.82 375.059 273.82C374.559 273.82 374.099 273.97 373.679 274.27C373.259 274.55 372.889 274.91 372.569 275.35C372.269 275.79 372.029 276.26 371.849 276.76C371.689 277.24 371.609 277.68 371.609 278.08V280.75C371.609 281.19 371.609 281.55 371.609 281.83C371.629 282.09 371.639 282.32 371.639 282.52C371.659 282.7 371.669 282.86 371.669 283C371.689 283.12 371.699 283.25 371.699 283.39L371.729 283.66C371.769 283.96 371.809 284.25 371.849 284.53C371.909 284.79 372.019 284.99 372.179 285.13C372.279 285.21 372.419 285.27 372.599 285.31C372.799 285.35 372.999 285.38 373.199 285.4C373.419 285.42 373.629 285.44 373.829 285.46C374.029 285.46 374.189 285.46 374.309 285.46L374.459 285.61L374.519 286L374.459 286.12C374.319 286.12 374.089 286.11 373.769 286.09C373.469 286.07 373.149 286.05 372.809 286.03C372.469 286.03 372.139 286.02 371.819 286C371.519 286 371.299 286 371.159 286H370.439C370.299 286 370.079 286 369.779 286C369.499 286.02 369.199 286.03 368.879 286.03C368.559 286.05 368.249 286.07 367.949 286.09C367.669 286.11 367.459 286.12 367.319 286.12L367.289 286L367.319 285.58L367.439 285.46C367.759 285.46 368.069 285.45 368.369 285.43C368.689 285.39 368.929 285.29 369.089 285.13C369.249 284.99 369.349 284.81 369.389 284.59C369.449 284.37 369.499 284.06 369.539 283.66L369.569 283.39C369.589 283.19 369.599 282.94 369.599 282.64C369.619 282.34 369.629 281.83 369.629 281.11V277.42C369.629 277 369.629 276.65 369.629 276.37C369.629 276.07 369.619 275.81 369.599 275.59C369.599 275.37 369.589 275.17 369.569 274.99C369.569 274.81 369.559 274.62 369.539 274.42C369.499 274.2 369.439 274.01 369.359 273.85C369.279 273.67 369.209 273.55 369.149 273.49C368.949 273.25 368.699 273.11 368.399 273.07C368.099 273.01 367.789 272.98 367.469 272.98L367.349 272.86V272.44L367.469 272.35H368.009C368.349 272.35 368.779 272.35 369.299 272.35C369.819 272.33 370.269 272.29 370.649 272.23L371.699 272.08L371.879 272.35C371.759 272.77 371.669 273.25 371.609 273.79C371.569 274.33 371.549 274.85 371.549 275.35L371.639 275.38ZM61.7538 325.87C62.0338 325.87 62.2938 325.86 62.5338 325.84C62.7938 325.82 63.0438 325.77 63.2838 325.69C63.5238 325.63 63.7538 325.52 63.9738 325.36C64.2138 325.2 64.4738 324.98 64.7538 324.7C65.1338 324.3 65.4638 323.87 65.7438 323.41C66.0238 322.97 66.2538 322.52 66.4338 322.06L67.3938 319.63L65.3238 314.2C65.2438 314.02 65.1038 313.69 64.9038 313.21C64.7238 312.73 64.5138 312.2 64.2738 311.62C64.0338 311.02 63.7838 310.41 63.5238 309.79C63.2838 309.17 63.0738 308.62 62.8938 308.14C62.6938 307.66 62.5138 307.28 62.3538 307C62.1538 306.68 61.9238 306.43 61.6638 306.25C61.4238 306.07 61.0938 305.96 60.6738 305.92L60.4938 305.77V305.35L60.6138 305.23C60.9538 305.27 61.3138 305.31 61.6938 305.35C62.0738 305.39 62.4238 305.41 62.7438 305.41H63.9138C64.2338 305.41 64.6138 305.39 65.0538 305.35C65.5138 305.31 65.9438 305.27 66.3438 305.23L66.4638 305.35V305.71L66.3438 305.83C65.9038 305.87 65.5338 305.99 65.2338 306.19C64.9538 306.37 64.8138 306.64 64.8138 307C64.8138 307.24 64.9038 307.67 65.0838 308.29C65.2838 308.89 65.5038 309.54 65.7438 310.24C65.9838 310.92 66.2138 311.56 66.4338 312.16C66.6538 312.76 66.8038 313.15 66.8838 313.33L68.3838 317.23L69.7938 313.78C69.9338 313.44 70.1238 312.98 70.3638 312.4C70.6038 311.82 70.8438 311.2 71.0838 310.54C71.3238 309.88 71.5238 309.24 71.6838 308.62C71.8638 307.98 71.9538 307.44 71.9538 307C71.9538 306.56 71.7938 306.27 71.4738 306.13C71.1538 305.97 70.7938 305.87 70.3938 305.83L70.2738 305.71V305.35L70.3938 305.23C71.1738 305.35 71.9038 305.41 72.5838 305.41H73.8138C74.1538 305.41 74.4738 305.39 74.7738 305.35C75.0938 305.31 75.4438 305.27 75.8238 305.23L75.9438 305.35V305.77L75.7938 305.92C75.4338 305.96 75.1538 306.06 74.9538 306.22C74.7738 306.38 74.5738 306.64 74.3538 307C74.1738 307.32 73.9638 307.72 73.7238 308.2C73.5038 308.68 73.2738 309.2 73.0338 309.76C72.8138 310.32 72.5838 310.89 72.3438 311.47C72.1238 312.05 71.9138 312.59 71.7138 313.09C71.5338 313.59 71.3738 314.03 71.2338 314.41C71.1138 314.77 71.0238 315.02 70.9638 315.16L68.0238 322.48C67.5038 323.78 66.7938 324.74 65.8938 325.36C65.0138 326 64.0538 326.45 63.0138 326.71C62.8138 326.75 62.6338 326.77 62.4738 326.77C62.3138 326.79 62.1338 326.8 61.9338 326.8L61.6938 326.74L61.6338 326.02L61.7538 325.87ZM84.7882 304.75C85.9682 304.75 87.0182 304.96 87.9382 305.38C88.8582 305.78 89.6282 306.33 90.2482 307.03C90.8882 307.71 91.3682 308.5 91.6882 309.4C92.0282 310.3 92.1982 311.23 92.1982 312.19C92.1982 313.11 92.0482 314 91.7482 314.86C91.4482 315.72 90.9882 316.48 90.3682 317.14C89.7482 317.8 88.9782 318.33 88.0582 318.73C87.1382 319.13 86.0682 319.33 84.8482 319.33C83.5882 319.33 82.4882 319.12 81.5482 318.7C80.6082 318.28 79.8282 317.73 79.2082 317.05C78.6082 316.37 78.1582 315.6 77.8582 314.74C77.5582 313.86 77.4082 312.96 77.4082 312.04C77.4082 311.06 77.5782 310.13 77.9182 309.25C78.2582 308.37 78.7382 307.6 79.3582 306.94C79.9982 306.26 80.7682 305.73 81.6682 305.35C82.5882 304.95 83.6282 304.75 84.7882 304.75ZM84.8182 318.16C85.6582 318.16 86.3982 317.99 87.0382 317.65C87.6782 317.31 88.2082 316.86 88.6282 316.3C89.0482 315.74 89.3582 315.11 89.5582 314.41C89.7782 313.69 89.8882 312.95 89.8882 312.19C89.8882 311.47 89.7682 310.74 89.5282 310C89.3082 309.26 88.9782 308.6 88.5382 308.02C88.0982 307.42 87.5582 306.94 86.9182 306.58C86.2782 306.2 85.5382 306.01 84.6982 306.01C83.8182 306.01 83.0582 306.19 82.4182 306.55C81.7982 306.89 81.2782 307.34 80.8582 307.9C80.4582 308.46 80.1582 309.1 79.9582 309.82C79.7582 310.54 79.6582 311.26 79.6582 311.98C79.6582 312.72 79.7682 313.46 79.9882 314.2C80.2282 314.92 80.5682 315.58 81.0082 316.18C81.4482 316.76 81.9882 317.24 82.6282 317.62C83.2682 317.98 83.9982 318.16 84.8182 318.16ZM106.718 316.42C106.198 317.26 105.528 317.96 104.708 318.52C103.908 319.06 102.918 319.33 101.738 319.33C101.158 319.33 100.598 319.26 100.058 319.12C99.5384 319 99.0484 318.79 98.5884 318.49C98.1484 318.19 97.7684 317.79 97.4484 317.29C97.1284 316.79 96.8984 316.16 96.7584 315.4C96.6584 314.88 96.6084 314.34 96.6084 313.78C96.6284 313.2 96.6284 312.62 96.6084 312.04C96.6084 311.78 96.5984 311.43 96.5784 310.99C96.5784 310.53 96.5784 310.07 96.5784 309.61C96.5784 309.13 96.5784 308.69 96.5784 308.29C96.5784 307.89 96.5784 307.6 96.5784 307.42C96.5784 307.2 96.5284 307.01 96.4284 306.85C96.3284 306.67 96.2484 306.54 96.1884 306.46C95.9884 306.24 95.7384 306.11 95.4384 306.07C95.1384 306.01 94.8284 305.98 94.5084 305.98L94.4184 305.86V305.44L94.5084 305.35H95.0484C95.3884 305.35 95.8184 305.35 96.3384 305.35C96.8584 305.33 97.3084 305.29 97.6884 305.23L98.7384 305.08L98.9184 305.35C98.8784 305.43 98.8484 305.58 98.8284 305.8C98.8084 306 98.7884 306.22 98.7684 306.46C98.7484 306.7 98.7384 306.93 98.7384 307.15C98.7384 307.37 98.7384 307.54 98.7384 307.66C98.7384 308 98.7284 308.38 98.7084 308.8C98.7084 309.2 98.6984 309.61 98.6784 310.03C98.6784 310.45 98.6684 310.85 98.6484 311.23C98.6484 311.61 98.6484 311.93 98.6484 312.19C98.6484 312.63 98.6584 313.13 98.6784 313.69C98.7184 314.23 98.7884 314.7 98.8884 315.1C99.0884 316.04 99.4984 316.74 100.118 317.2C100.738 317.66 101.458 317.89 102.278 317.89C102.898 317.89 103.468 317.77 103.988 317.53C104.508 317.27 104.958 316.96 105.338 316.6C105.738 316.24 106.058 315.86 106.298 315.46C106.558 315.04 106.728 314.66 106.808 314.32V310.42C106.808 310 106.798 309.65 106.778 309.37C106.778 309.07 106.768 308.81 106.748 308.59C106.748 308.37 106.738 308.17 106.718 307.99C106.718 307.81 106.708 307.62 106.688 307.42C106.648 307.2 106.588 307.01 106.508 306.85C106.448 306.67 106.388 306.55 106.328 306.49C106.128 306.25 105.878 306.11 105.578 306.07C105.278 306.01 104.968 305.98 104.648 305.98L104.528 305.86V305.44L104.648 305.35H105.188C105.528 305.35 105.958 305.35 106.478 305.35C106.998 305.33 107.438 305.29 107.798 305.23L108.848 305.08L109.028 305.35C108.988 305.43 108.958 305.58 108.938 305.8C108.918 306 108.898 306.22 108.878 306.46C108.858 306.7 108.848 306.93 108.848 307.15C108.848 307.37 108.848 307.54 108.848 307.66C108.848 307.82 108.838 307.97 108.818 308.11C108.818 308.25 108.818 308.42 108.818 308.62C108.818 308.82 108.808 309.06 108.788 309.34C108.788 309.6 108.788 309.95 108.788 310.39V313.75C108.788 314.19 108.788 314.55 108.788 314.83C108.808 315.11 108.818 315.35 108.818 315.55C108.838 315.75 108.848 315.94 108.848 316.12C108.868 316.28 108.878 316.46 108.878 316.66C108.918 317.12 108.968 317.46 109.028 317.68C109.088 317.88 109.188 318.03 109.328 318.13C109.488 318.29 109.718 318.39 110.018 318.43C110.338 318.45 110.658 318.46 110.978 318.46L111.098 318.58L111.158 319L111.098 319.12C110.738 319.08 110.348 319.05 109.928 319.03C109.508 319.01 109.098 319 108.698 319C107.938 319 107.248 319.03 106.628 319.09L106.448 318.79C106.508 318.53 106.568 318.19 106.628 317.77C106.708 317.35 106.768 316.92 106.808 316.48L106.718 316.42ZM129.334 318.79C129.394 318.57 129.434 318.24 129.454 317.8C129.494 317.36 129.544 316.95 129.604 316.57L129.574 316.48C129.314 316.84 129.004 317.19 128.644 317.53C128.284 317.87 127.884 318.18 127.444 318.46C127.024 318.72 126.564 318.93 126.064 319.09C125.584 319.25 125.074 319.33 124.534 319.33C123.914 319.33 123.364 319.22 122.884 319C122.404 318.78 122.004 318.49 121.684 318.13C121.364 317.77 121.124 317.35 120.964 316.87C120.804 316.39 120.724 315.89 120.724 315.37C120.724 314.63 120.894 313.99 121.234 313.45C121.574 312.89 122.024 312.43 122.584 312.07C123.104 311.75 123.714 311.49 124.414 311.29C125.134 311.09 125.824 310.95 126.484 310.87C127.164 310.77 127.774 310.71 128.314 310.69C128.854 310.65 129.214 310.63 129.394 310.63H129.814C129.794 309.89 129.754 309.31 129.694 308.89C129.634 308.45 129.554 308.09 129.454 307.81C129.234 307.21 128.854 306.78 128.314 306.52C127.774 306.24 127.124 306.1 126.364 306.1C126.044 306.1 125.694 306.13 125.314 306.19C124.954 306.25 124.604 306.36 124.264 306.52C123.944 306.68 123.664 306.91 123.424 307.21C123.184 307.49 123.044 307.86 123.004 308.32L122.884 308.41H122.224L121.954 306.19L122.044 306.01C122.144 305.89 122.354 305.76 122.674 305.62C122.994 305.48 123.364 305.35 123.784 305.23C124.224 305.09 124.704 304.98 125.224 304.9C125.764 304.8 126.294 304.75 126.814 304.75C127.534 304.75 128.204 304.85 128.824 305.05C129.444 305.23 129.974 305.51 130.414 305.89C130.874 306.27 131.234 306.75 131.494 307.33C131.754 307.89 131.884 308.55 131.884 309.31C131.884 310.15 131.874 310.9 131.854 311.56C131.854 312.2 131.844 312.8 131.824 313.36C131.804 313.9 131.784 314.44 131.764 314.98C131.764 315.5 131.764 316.06 131.764 316.66C131.804 317.12 131.854 317.46 131.914 317.68C131.974 317.88 132.074 318.03 132.214 318.13C132.374 318.29 132.604 318.39 132.904 318.43C133.224 318.45 133.544 318.46 133.864 318.46L133.984 318.58L134.014 319L133.984 319.12C133.624 319.08 133.234 319.05 132.814 319.03C132.394 319.01 131.984 319 131.584 319C130.824 319 130.134 319.03 129.514 319.09L129.334 318.79ZM129.334 315.55C129.394 315.45 129.454 315.33 129.514 315.19C129.594 315.05 129.644 314.88 129.664 314.68L129.814 311.68H129.544C128.744 311.68 127.944 311.73 127.144 311.83C126.344 311.91 125.624 312.08 124.984 312.34C124.364 312.6 123.854 312.96 123.454 313.42C123.054 313.88 122.854 314.47 122.854 315.19C122.854 315.95 123.074 316.56 123.514 317.02C123.954 317.46 124.524 317.68 125.224 317.68C125.644 317.68 126.064 317.61 126.484 317.47C126.904 317.33 127.294 317.15 127.654 316.93C128.034 316.71 128.364 316.48 128.644 316.24C128.944 316 129.174 315.77 129.334 315.55ZM140.107 308.38C140.307 308 140.527 307.6 140.767 307.18C141.027 306.76 141.317 306.37 141.637 306.01C141.957 305.65 142.317 305.35 142.717 305.11C143.137 304.87 143.607 304.75 144.127 304.75C144.487 304.75 144.887 304.81 145.327 304.93C145.787 305.03 146.097 305.17 146.257 305.35L146.497 305.62L146.137 307.93H145.147C145.087 307.65 144.927 307.4 144.667 307.18C144.427 306.94 144.047 306.82 143.527 306.82C143.027 306.82 142.567 306.97 142.147 307.27C141.727 307.55 141.357 307.91 141.037 308.35C140.737 308.79 140.497 309.26 140.317 309.76C140.157 310.24 140.077 310.68 140.077 311.08V313.75C140.077 314.19 140.077 314.55 140.077 314.83C140.097 315.09 140.107 315.32 140.107 315.52C140.127 315.7 140.137 315.86 140.137 316C140.157 316.12 140.167 316.25 140.167 316.39L140.197 316.66C140.237 316.96 140.277 317.25 140.317 317.53C140.377 317.79 140.487 317.99 140.647 318.13C140.747 318.21 140.887 318.27 141.067 318.31C141.267 318.35 141.467 318.38 141.667 318.4C141.887 318.42 142.097 318.44 142.297 318.46C142.497 318.46 142.657 318.46 142.777 318.46L142.927 318.61L142.987 319L142.927 319.12C142.787 319.12 142.557 319.11 142.237 319.09C141.937 319.07 141.617 319.05 141.277 319.03C140.937 319.03 140.607 319.02 140.287 319C139.987 319 139.767 319 139.627 319H138.907C138.767 319 138.547 319 138.247 319C137.967 319.02 137.667 319.03 137.347 319.03C137.027 319.05 136.717 319.07 136.417 319.09C136.137 319.11 135.927 319.12 135.787 319.12L135.757 319L135.787 318.58L135.907 318.46C136.227 318.46 136.537 318.45 136.837 318.43C137.157 318.39 137.397 318.29 137.557 318.13C137.717 317.99 137.817 317.81 137.857 317.59C137.917 317.37 137.967 317.06 138.007 316.66L138.037 316.39C138.057 316.19 138.067 315.94 138.067 315.64C138.087 315.34 138.097 314.83 138.097 314.11V310.42C138.097 310 138.097 309.65 138.097 309.37C138.097 309.07 138.087 308.81 138.067 308.59C138.067 308.37 138.057 308.17 138.037 307.99C138.037 307.81 138.027 307.62 138.007 307.42C137.967 307.2 137.907 307.01 137.827 306.85C137.747 306.67 137.677 306.55 137.617 306.49C137.417 306.25 137.167 306.11 136.867 306.07C136.567 306.01 136.257 305.98 135.937 305.98L135.817 305.86V305.44L135.937 305.35H136.477C136.817 305.35 137.247 305.35 137.767 305.35C138.287 305.33 138.737 305.29 139.117 305.23L140.167 305.08L140.347 305.35C140.227 305.77 140.137 306.25 140.077 306.79C140.037 307.33 140.017 307.85 140.017 308.35L140.107 308.38ZM161.568 310.93L161.088 311.14C160.008 311.14 158.898 311.15 157.758 311.17C156.618 311.19 155.498 311.2 154.398 311.2H150.858C150.838 311.34 150.828 311.48 150.828 311.62C150.828 311.74 150.828 311.86 150.828 311.98C150.828 312.74 150.938 313.47 151.158 314.17C151.378 314.85 151.718 315.45 152.178 315.97C152.658 316.49 153.268 316.91 154.008 317.23C154.748 317.53 155.648 317.68 156.708 317.68C157.328 317.68 157.988 317.62 158.688 317.5C159.408 317.36 160.068 317.12 160.668 316.78L160.968 316.96V317.5L160.668 317.83C160.188 318.21 159.508 318.56 158.628 318.88C157.748 319.18 156.768 319.33 155.688 319.33C154.628 319.33 153.658 319.16 152.778 318.82C151.918 318.46 151.168 317.96 150.528 317.32C149.908 316.68 149.418 315.92 149.058 315.04C148.718 314.16 148.548 313.18 148.548 312.1C148.548 311 148.728 310 149.088 309.1C149.448 308.2 149.938 307.43 150.558 306.79C151.198 306.15 151.938 305.65 152.778 305.29C153.638 304.93 154.558 304.75 155.538 304.75C156.058 304.75 156.638 304.82 157.278 304.96C157.938 305.1 158.568 305.37 159.168 305.77C159.768 306.15 160.308 306.7 160.788 307.42C161.268 308.12 161.598 309.05 161.778 310.21L161.568 310.93ZM155.568 306.1C154.928 306.1 154.348 306.21 153.828 306.43C153.328 306.63 152.878 306.91 152.478 307.27C152.098 307.61 151.778 308.02 151.518 308.5C151.278 308.96 151.108 309.45 151.008 309.97H152.178C153.258 309.97 154.308 309.96 155.328 309.94C156.348 309.9 157.418 309.85 158.538 309.79C158.798 309.77 158.968 309.7 159.048 309.58C159.148 309.46 159.198 309.32 159.198 309.16C159.198 309.04 159.188 308.93 159.168 308.83C159.148 308.73 159.118 308.63 159.078 308.53C158.858 307.77 158.448 307.18 157.848 306.76C157.248 306.32 156.488 306.1 155.568 306.1ZM176.046 308.38C176.246 308 176.466 307.6 176.706 307.18C176.966 306.76 177.256 306.37 177.576 306.01C177.896 305.65 178.256 305.35 178.656 305.11C179.076 304.87 179.546 304.75 180.066 304.75C180.426 304.75 180.826 304.81 181.266 304.93C181.726 305.03 182.036 305.17 182.196 305.35L182.436 305.62L182.076 307.93H181.086C181.026 307.65 180.866 307.4 180.606 307.18C180.366 306.94 179.986 306.82 179.466 306.82C178.966 306.82 178.506 306.97 178.086 307.27C177.666 307.55 177.296 307.91 176.976 308.35C176.676 308.79 176.436 309.26 176.256 309.76C176.096 310.24 176.016 310.68 176.016 311.08V313.75C176.016 314.19 176.016 314.55 176.016 314.83C176.036 315.09 176.046 315.32 176.046 315.52C176.066 315.7 176.076 315.86 176.076 316C176.096 316.12 176.106 316.25 176.106 316.39L176.136 316.66C176.176 316.96 176.216 317.25 176.256 317.53C176.316 317.79 176.426 317.99 176.586 318.13C176.686 318.21 176.826 318.27 177.006 318.31C177.206 318.35 177.406 318.38 177.606 318.4C177.826 318.42 178.036 318.44 178.236 318.46C178.436 318.46 178.596 318.46 178.716 318.46L178.866 318.61L178.926 319L178.866 319.12C178.726 319.12 178.496 319.11 178.176 319.09C177.876 319.07 177.556 319.05 177.216 319.03C176.876 319.03 176.546 319.02 176.226 319C175.926 319 175.706 319 175.566 319H174.846C174.706 319 174.486 319 174.186 319C173.906 319.02 173.606 319.03 173.286 319.03C172.966 319.05 172.656 319.07 172.356 319.09C172.076 319.11 171.866 319.12 171.726 319.12L171.696 319L171.726 318.58L171.846 318.46C172.166 318.46 172.476 318.45 172.776 318.43C173.096 318.39 173.336 318.29 173.496 318.13C173.656 317.99 173.756 317.81 173.796 317.59C173.856 317.37 173.906 317.06 173.946 316.66L173.976 316.39C173.996 316.19 174.006 315.94 174.006 315.64C174.026 315.34 174.036 314.83 174.036 314.11V310.42C174.036 310 174.036 309.65 174.036 309.37C174.036 309.07 174.026 308.81 174.006 308.59C174.006 308.37 173.996 308.17 173.976 307.99C173.976 307.81 173.966 307.62 173.946 307.42C173.906 307.2 173.846 307.01 173.766 306.85C173.686 306.67 173.616 306.55 173.556 306.49C173.356 306.25 173.106 306.11 172.806 306.07C172.506 306.01 172.196 305.98 171.876 305.98L171.756 305.86V305.44L171.876 305.35H172.416C172.756 305.35 173.186 305.35 173.706 305.35C174.226 305.33 174.676 305.29 175.056 305.23L176.106 305.08L176.286 305.35C176.166 305.77 176.076 306.25 176.016 306.79C175.976 307.33 175.956 307.85 175.956 308.35L176.046 308.38ZM197.507 310.93L197.027 311.14C195.947 311.14 194.837 311.15 193.697 311.17C192.557 311.19 191.437 311.2 190.337 311.2H186.797C186.777 311.34 186.767 311.48 186.767 311.62C186.767 311.74 186.767 311.86 186.767 311.98C186.767 312.74 186.877 313.47 187.097 314.17C187.317 314.85 187.657 315.45 188.117 315.97C188.597 316.49 189.207 316.91 189.947 317.23C190.687 317.53 191.587 317.68 192.647 317.68C193.267 317.68 193.927 317.62 194.627 317.5C195.347 317.36 196.007 317.12 196.607 316.78L196.907 316.96V317.5L196.607 317.83C196.127 318.21 195.447 318.56 194.567 318.88C193.687 319.18 192.707 319.33 191.627 319.33C190.567 319.33 189.597 319.16 188.717 318.82C187.857 318.46 187.107 317.96 186.467 317.32C185.847 316.68 185.357 315.92 184.997 315.04C184.657 314.16 184.487 313.18 184.487 312.1C184.487 311 184.667 310 185.027 309.1C185.387 308.2 185.877 307.43 186.497 306.79C187.137 306.15 187.877 305.65 188.717 305.29C189.577 304.93 190.497 304.75 191.477 304.75C191.997 304.75 192.577 304.82 193.217 304.96C193.877 305.1 194.507 305.37 195.107 305.77C195.707 306.15 196.247 306.7 196.727 307.42C197.207 308.12 197.537 309.05 197.717 310.21L197.507 310.93ZM191.507 306.1C190.867 306.1 190.287 306.21 189.767 306.43C189.267 306.63 188.817 306.91 188.417 307.27C188.037 307.61 187.717 308.02 187.457 308.5C187.217 308.96 187.047 309.45 186.947 309.97H188.117C189.197 309.97 190.247 309.96 191.267 309.94C192.287 309.9 193.357 309.85 194.477 309.79C194.737 309.77 194.907 309.7 194.987 309.58C195.087 309.46 195.137 309.32 195.137 309.16C195.137 309.04 195.127 308.93 195.107 308.83C195.087 308.73 195.057 308.63 195.017 308.53C194.797 307.77 194.387 307.18 193.787 306.76C193.187 306.32 192.427 306.1 191.507 306.1ZM208.888 318.79C208.948 318.57 208.988 318.24 209.008 317.8C209.048 317.36 209.098 316.95 209.158 316.57L209.128 316.48C208.868 316.84 208.558 317.19 208.198 317.53C207.838 317.87 207.438 318.18 206.998 318.46C206.578 318.72 206.118 318.93 205.618 319.09C205.138 319.25 204.628 319.33 204.088 319.33C203.468 319.33 202.918 319.22 202.438 319C201.958 318.78 201.558 318.49 201.238 318.13C200.918 317.77 200.678 317.35 200.518 316.87C200.358 316.39 200.278 315.89 200.278 315.37C200.278 314.63 200.448 313.99 200.788 313.45C201.128 312.89 201.578 312.43 202.138 312.07C202.658 311.75 203.268 311.49 203.968 311.29C204.688 311.09 205.378 310.95 206.038 310.87C206.718 310.77 207.328 310.71 207.868 310.69C208.408 310.65 208.768 310.63 208.948 310.63H209.368C209.348 309.89 209.308 309.31 209.248 308.89C209.188 308.45 209.108 308.09 209.008 307.81C208.788 307.21 208.408 306.78 207.868 306.52C207.328 306.24 206.678 306.1 205.918 306.1C205.598 306.1 205.248 306.13 204.868 306.19C204.508 306.25 204.158 306.36 203.818 306.52C203.498 306.68 203.218 306.91 202.978 307.21C202.738 307.49 202.598 307.86 202.558 308.32L202.438 308.41H201.778L201.508 306.19L201.598 306.01C201.698 305.89 201.908 305.76 202.228 305.62C202.548 305.48 202.918 305.35 203.338 305.23C203.778 305.09 204.258 304.98 204.778 304.9C205.318 304.8 205.848 304.75 206.368 304.75C207.088 304.75 207.758 304.85 208.378 305.05C208.998 305.23 209.528 305.51 209.968 305.89C210.428 306.27 210.788 306.75 211.048 307.33C211.308 307.89 211.438 308.55 211.438 309.31C211.438 310.15 211.428 310.9 211.408 311.56C211.408 312.2 211.398 312.8 211.378 313.36C211.358 313.9 211.338 314.44 211.318 314.98C211.318 315.5 211.318 316.06 211.318 316.66C211.358 317.12 211.408 317.46 211.468 317.68C211.528 317.88 211.628 318.03 211.768 318.13C211.928 318.29 212.158 318.39 212.458 318.43C212.778 318.45 213.098 318.46 213.418 318.46L213.538 318.58L213.568 319L213.538 319.12C213.178 319.08 212.788 319.05 212.368 319.03C211.948 319.01 211.538 319 211.138 319C210.378 319 209.688 319.03 209.068 319.09L208.888 318.79ZM208.888 315.55C208.948 315.45 209.008 315.33 209.068 315.19C209.148 315.05 209.198 314.88 209.218 314.68L209.368 311.68H209.098C208.298 311.68 207.498 311.73 206.698 311.83C205.898 311.91 205.178 312.08 204.538 312.34C203.918 312.6 203.408 312.96 203.008 313.42C202.608 313.88 202.408 314.47 202.408 315.19C202.408 315.95 202.628 316.56 203.068 317.02C203.508 317.46 204.078 317.68 204.778 317.68C205.198 317.68 205.618 317.61 206.038 317.47C206.458 317.33 206.848 317.15 207.208 316.93C207.588 316.71 207.918 316.48 208.198 316.24C208.498 316 208.728 315.77 208.888 315.55ZM226.951 318.79C227.011 318.57 227.061 318.24 227.101 317.8C227.161 317.36 227.211 316.97 227.251 316.63L227.221 316.51C226.661 317.35 225.971 318.03 225.151 318.55C224.331 319.07 223.391 319.33 222.331 319.33C221.191 319.33 220.201 319.13 219.361 318.73C218.541 318.33 217.861 317.8 217.321 317.14C216.801 316.48 216.411 315.73 216.151 314.89C215.891 314.03 215.761 313.14 215.761 312.22C215.761 310.86 215.971 309.71 216.391 308.77C216.811 307.81 217.341 307.04 217.981 306.46C218.621 305.86 219.321 305.43 220.081 305.17C220.861 304.89 221.601 304.75 222.301 304.75C223.261 304.75 224.181 304.97 225.061 305.41C225.941 305.83 226.691 306.55 227.311 307.57L227.371 307.45C227.331 306.99 227.311 306.55 227.311 306.13C227.311 305.69 227.311 305.24 227.311 304.78C227.311 303.96 227.311 303.27 227.311 302.71C227.311 302.13 227.301 301.63 227.281 301.21C227.281 300.79 227.271 300.42 227.251 300.1C227.251 299.78 227.241 299.46 227.221 299.14C227.201 298.92 227.141 298.73 227.041 298.57C226.961 298.41 226.891 298.29 226.831 298.21C226.631 297.99 226.381 297.85 226.081 297.79C225.781 297.73 225.471 297.7 225.151 297.7L225.031 297.58V297.19L225.151 297.07H225.691C226.031 297.07 226.461 297.07 226.981 297.07C227.501 297.05 227.951 297.01 228.331 296.95L229.381 296.8L229.561 297.07C229.521 297.15 229.481 297.3 229.441 297.52C229.421 297.72 229.401 297.94 229.381 298.18C229.381 298.42 229.371 298.65 229.351 298.87C229.351 299.09 229.351 299.26 229.351 299.38C229.351 299.7 229.341 300 229.321 300.28C229.321 300.56 229.321 300.89 229.321 301.27C229.321 301.65 229.311 302.11 229.291 302.65C229.291 303.19 229.291 303.88 229.291 304.72V311.26C229.291 312.1 229.291 312.79 229.291 313.33C229.311 313.87 229.321 314.33 229.321 314.71C229.341 315.09 229.351 315.42 229.351 315.7C229.371 315.98 229.391 316.3 229.411 316.66C229.451 317.12 229.501 317.46 229.561 317.68C229.621 317.88 229.711 318.03 229.831 318.13C230.011 318.29 230.251 318.39 230.551 318.43C230.851 318.45 231.161 318.46 231.481 318.46L231.601 318.58L231.661 319L231.601 319.12C231.241 319.08 230.851 319.05 230.431 319.03C230.031 319.01 229.621 319 229.201 319C228.461 319 227.781 319.03 227.161 319.09L226.951 318.79ZM218.041 312.16C218.041 312.84 218.131 313.51 218.311 314.17C218.491 314.83 218.761 315.42 219.121 315.94C219.481 316.44 219.941 316.85 220.501 317.17C221.061 317.47 221.731 317.62 222.511 317.62C223.251 317.62 223.911 317.48 224.491 317.2C225.091 316.92 225.591 316.58 225.991 316.18C226.391 315.78 226.701 315.36 226.921 314.92C227.161 314.48 227.291 314.1 227.311 313.78V310.45C227.271 310.13 227.141 309.74 226.921 309.28C226.721 308.82 226.421 308.38 226.021 307.96C225.641 307.52 225.161 307.15 224.581 306.85C224.021 306.55 223.351 306.4 222.571 306.4C221.771 306.4 221.081 306.57 220.501 306.91C219.941 307.23 219.471 307.66 219.091 308.2C218.731 308.74 218.461 309.36 218.281 310.06C218.121 310.74 218.041 311.44 218.041 312.16ZM233.84 325.87C234.12 325.87 234.38 325.86 234.62 325.84C234.88 325.82 235.13 325.77 235.37 325.69C235.61 325.63 235.84 325.52 236.06 325.36C236.3 325.2 236.56 324.98 236.84 324.7C237.22 324.3 237.55 323.87 237.83 323.41C238.11 322.97 238.34 322.52 238.52 322.06L239.48 319.63L237.41 314.2C237.33 314.02 237.19 313.69 236.99 313.21C236.81 312.73 236.6 312.2 236.36 311.62C236.12 311.02 235.87 310.41 235.61 309.79C235.37 309.17 235.16 308.62 234.98 308.14C234.78 307.66 234.6 307.28 234.44 307C234.24 306.68 234.01 306.43 233.75 306.25C233.51 306.07 233.18 305.96 232.76 305.92L232.58 305.77V305.35L232.7 305.23C233.04 305.27 233.4 305.31 233.78 305.35C234.16 305.39 234.51 305.41 234.83 305.41H236C236.32 305.41 236.7 305.39 237.14 305.35C237.6 305.31 238.03 305.27 238.43 305.23L238.55 305.35V305.71L238.43 305.83C237.99 305.87 237.62 305.99 237.32 306.19C237.04 306.37 236.9 306.64 236.9 307C236.9 307.24 236.99 307.67 237.17 308.29C237.37 308.89 237.59 309.54 237.83 310.24C238.07 310.92 238.3 311.56 238.52 312.16C238.74 312.76 238.89 313.15 238.97 313.33L240.47 317.23L241.88 313.78C242.02 313.44 242.21 312.98 242.45 312.4C242.69 311.82 242.93 311.2 243.17 310.54C243.41 309.88 243.61 309.24 243.77 308.62C243.95 307.98 244.04 307.44 244.04 307C244.04 306.56 243.88 306.27 243.56 306.13C243.24 305.97 242.88 305.87 242.48 305.83L242.36 305.71V305.35L242.48 305.23C243.26 305.35 243.99 305.41 244.67 305.41H245.9C246.24 305.41 246.56 305.39 246.86 305.35C247.18 305.31 247.53 305.27 247.91 305.23L248.03 305.35V305.77L247.88 305.92C247.52 305.96 247.24 306.06 247.04 306.22C246.86 306.38 246.66 306.64 246.44 307C246.26 307.32 246.05 307.72 245.81 308.2C245.59 308.68 245.36 309.2 245.12 309.76C244.9 310.32 244.67 310.89 244.43 311.47C244.21 312.05 244 312.59 243.8 313.09C243.62 313.59 243.46 314.03 243.32 314.41C243.2 314.77 243.11 315.02 243.05 315.16L240.11 322.48C239.59 323.78 238.88 324.74 237.98 325.36C237.1 326 236.14 326.45 235.1 326.71C234.9 326.75 234.72 326.77 234.56 326.77C234.4 326.79 234.22 326.8 234.02 326.8L233.78 326.74L233.72 326.02L233.84 325.87ZM263.887 306.61H259.987C259.987 307.91 259.977 309.11 259.957 310.21C259.957 311.31 259.957 312.28 259.957 313.12C259.957 313.94 259.947 314.6 259.927 315.1C259.927 315.6 259.927 315.91 259.927 316.03C259.927 316.81 260.077 317.33 260.377 317.59C260.677 317.85 261.027 317.98 261.427 317.98C261.767 317.98 262.157 317.92 262.597 317.8C263.057 317.66 263.427 317.51 263.707 317.35L263.977 317.56L263.707 318.4C263.247 318.72 262.727 318.95 262.147 319.09C261.587 319.25 261.087 319.33 260.647 319.33C259.627 319.33 258.907 319.05 258.487 318.49C258.067 317.93 257.857 317.21 257.857 316.33C257.857 316.15 257.867 315.78 257.887 315.22C257.907 314.66 257.927 313.96 257.947 313.12C257.967 312.28 257.987 311.31 258.007 310.21C258.027 309.11 258.037 307.91 258.037 306.61H255.877L255.757 306.46V305.89L255.877 305.77L258.037 305.35C258.037 304.65 258.017 303.94 257.977 303.22C257.957 302.48 257.927 301.76 257.887 301.06L258.097 300.88L258.517 300.85C258.677 300.83 258.937 300.79 259.297 300.73C259.657 300.67 259.907 300.6 260.047 300.52L260.317 300.64C260.257 300.92 260.207 301.25 260.167 301.63C260.127 301.99 260.087 302.38 260.047 302.8C260.027 303.22 260.007 303.65 259.987 304.09C259.987 304.53 259.987 304.95 259.987 305.35L263.887 305.17L264.037 305.29V306.46L263.887 306.61ZM273.822 304.75C275.002 304.75 276.052 304.96 276.972 305.38C277.892 305.78 278.662 306.33 279.282 307.03C279.922 307.71 280.402 308.5 280.722 309.4C281.062 310.3 281.232 311.23 281.232 312.19C281.232 313.11 281.082 314 280.782 314.86C280.482 315.72 280.022 316.48 279.402 317.14C278.782 317.8 278.012 318.33 277.092 318.73C276.172 319.13 275.102 319.33 273.882 319.33C272.622 319.33 271.522 319.12 270.582 318.7C269.642 318.28 268.862 317.73 268.242 317.05C267.642 316.37 267.192 315.6 266.892 314.74C266.592 313.86 266.442 312.96 266.442 312.04C266.442 311.06 266.612 310.13 266.952 309.25C267.292 308.37 267.772 307.6 268.392 306.94C269.032 306.26 269.802 305.73 270.702 305.35C271.622 304.95 272.662 304.75 273.822 304.75ZM273.852 318.16C274.692 318.16 275.432 317.99 276.072 317.65C276.712 317.31 277.242 316.86 277.662 316.3C278.082 315.74 278.392 315.11 278.592 314.41C278.812 313.69 278.922 312.95 278.922 312.19C278.922 311.47 278.802 310.74 278.562 310C278.342 309.26 278.012 308.6 277.572 308.02C277.132 307.42 276.592 306.94 275.952 306.58C275.312 306.2 274.572 306.01 273.732 306.01C272.852 306.01 272.092 306.19 271.452 306.55C270.832 306.89 270.312 307.34 269.892 307.9C269.492 308.46 269.192 309.1 268.992 309.82C268.792 310.54 268.692 311.26 268.692 311.98C268.692 312.72 268.802 313.46 269.022 314.2C269.262 314.92 269.602 315.58 270.042 316.18C270.482 316.76 271.022 317.24 271.662 317.62C272.302 317.98 273.032 318.16 273.852 318.16ZM298.489 311.05C299.329 311.23 299.999 311.48 300.499 311.8C301.019 312.1 301.419 312.43 301.699 312.79C301.979 313.15 302.159 313.52 302.239 313.9C302.339 314.26 302.389 314.6 302.389 314.92C302.389 315.56 302.259 316.15 301.999 316.69C301.739 317.23 301.359 317.7 300.859 318.1C300.379 318.48 299.789 318.78 299.089 319C298.389 319.22 297.599 319.33 296.719 319.33C295.739 319.33 294.819 319.22 293.959 319C293.119 318.76 292.449 318.51 291.949 318.25L291.889 317.98L292.339 314.89H293.029L293.119 315.01C293.119 315.97 293.419 316.73 294.019 317.29C294.619 317.83 295.489 318.1 296.629 318.1C297.309 318.1 297.879 318.02 298.339 317.86C298.799 317.7 299.159 317.49 299.419 317.23C299.699 316.97 299.899 316.69 300.019 316.39C300.139 316.09 300.199 315.8 300.199 315.52C300.199 315.34 300.189 315.14 300.169 314.92C300.149 314.68 300.069 314.45 299.929 314.23C299.789 313.99 299.579 313.77 299.299 313.57C299.019 313.35 298.619 313.17 298.099 313.03L295.219 312.31C294.559 312.15 294.019 311.94 293.599 311.68C293.179 311.42 292.849 311.14 292.609 310.84C292.369 310.52 292.199 310.19 292.099 309.85C291.999 309.49 291.949 309.13 291.949 308.77C291.949 308.11 292.079 307.53 292.339 307.03C292.599 306.51 292.949 306.09 293.389 305.77C293.849 305.43 294.379 305.18 294.979 305.02C295.579 304.84 296.229 304.75 296.929 304.75C297.869 304.75 298.729 304.87 299.509 305.11C300.309 305.35 300.929 305.59 301.369 305.83L301.459 306.1L301.129 308.41H300.499L300.379 308.32C300.379 307.86 300.249 307.48 299.989 307.18C299.749 306.86 299.449 306.61 299.089 306.43C298.729 306.23 298.349 306.09 297.949 306.01C297.549 305.93 297.199 305.89 296.899 305.89C295.899 305.89 295.179 306.14 294.739 306.64C294.299 307.14 294.079 307.7 294.079 308.32C294.079 308.78 294.229 309.22 294.529 309.64C294.849 310.04 295.459 310.35 296.359 310.57L298.489 311.05ZM316.623 318.79C316.703 318.53 316.763 318.19 316.803 317.77C316.843 317.35 316.873 316.98 316.893 316.66C316.933 315.82 316.963 315 316.983 314.2C317.003 313.38 317.013 312.7 317.013 312.16C317.013 311.7 316.993 311.2 316.953 310.66C316.933 310.12 316.873 309.65 316.773 309.25C316.573 308.31 316.163 307.61 315.543 307.15C314.923 306.69 314.203 306.46 313.383 306.46C312.723 306.46 312.103 306.61 311.523 306.91C310.963 307.19 310.483 307.54 310.083 307.96C309.683 308.36 309.363 308.79 309.123 309.25C308.903 309.69 308.793 310.06 308.793 310.36C308.793 311.44 308.793 312.31 308.793 312.97C308.793 313.61 308.793 314.15 308.793 314.59C308.813 315.03 308.823 315.4 308.823 315.7C308.843 315.98 308.873 316.3 308.913 316.66C308.953 317.08 308.993 317.4 309.033 317.62C309.093 317.82 309.203 317.99 309.363 318.13C309.523 318.27 309.743 318.36 310.023 318.4C310.323 318.44 310.623 318.46 310.923 318.46L311.073 318.61L311.133 319L311.073 319.12C310.933 319.12 310.723 319.11 310.443 319.09C310.163 319.07 309.863 319.05 309.543 319.03C309.223 319.03 308.923 319.02 308.643 319C308.363 319 308.153 319 308.013 319H307.593C307.453 319 307.233 319 306.933 319C306.653 319.02 306.353 319.03 306.033 319.03C305.733 319.05 305.433 319.07 305.133 319.09C304.853 319.11 304.643 319.12 304.503 319.12L304.473 319L304.503 318.58L304.623 318.46C304.943 318.46 305.253 318.45 305.553 318.43C305.873 318.39 306.113 318.29 306.273 318.13C306.433 317.99 306.533 317.81 306.573 317.59C306.633 317.37 306.683 317.06 306.723 316.66C306.743 316.4 306.753 316.14 306.753 315.88C306.773 315.62 306.783 315.32 306.783 314.98C306.803 314.62 306.813 314.21 306.813 313.75C306.813 313.27 306.813 312.68 306.813 311.98V304.78C306.813 303.96 306.813 303.27 306.813 302.71C306.813 302.13 306.803 301.63 306.783 301.21C306.783 300.79 306.773 300.42 306.753 300.1C306.753 299.78 306.743 299.46 306.723 299.14C306.703 298.92 306.643 298.73 306.543 298.57C306.463 298.41 306.393 298.29 306.333 298.21C306.133 297.99 305.883 297.85 305.583 297.79C305.283 297.73 304.973 297.7 304.653 297.7L304.533 297.58V297.19L304.653 297.07H305.193C305.533 297.07 305.963 297.07 306.483 297.07C307.003 297.05 307.453 297.01 307.833 296.95L308.883 296.8L309.063 297.07C309.023 297.15 308.993 297.3 308.973 297.52C308.953 297.72 308.933 297.94 308.913 298.18C308.893 298.42 308.883 298.65 308.883 298.87C308.883 299.09 308.883 299.26 308.883 299.38C308.883 300.02 308.863 300.79 308.823 301.69C308.803 302.57 308.793 303.58 308.793 304.72C308.793 305.56 308.783 306.22 308.763 306.7C308.763 307.18 308.743 307.56 308.703 307.84L308.793 307.9C309.293 307.02 309.963 306.28 310.803 305.68C311.643 305.06 312.683 304.75 313.923 304.75C314.483 304.75 315.043 304.83 315.603 304.99C316.183 305.15 316.703 305.4 317.163 305.74C317.623 306.08 318.013 306.51 318.333 307.03C318.653 307.55 318.853 308.17 318.933 308.89C318.993 309.41 319.023 310.01 319.023 310.69C319.043 311.35 319.053 311.89 319.053 312.31V316.54C319.053 317 319.093 317.36 319.173 317.62C319.273 317.86 319.383 318.03 319.503 318.13C319.683 318.29 319.923 318.39 320.223 318.43C320.543 318.45 320.863 318.46 321.183 318.46L321.273 318.58L321.333 319L321.273 319.12C320.933 319.08 320.553 319.05 320.133 319.03C319.713 319.01 319.303 319 318.903 319C318.143 319 317.453 319.03 316.833 319.09L316.623 318.79ZM330.803 304.75C331.983 304.75 333.033 304.96 333.953 305.38C334.873 305.78 335.643 306.33 336.263 307.03C336.903 307.71 337.383 308.5 337.703 309.4C338.043 310.3 338.213 311.23 338.213 312.19C338.213 313.11 338.063 314 337.763 314.86C337.463 315.72 337.003 316.48 336.383 317.14C335.763 317.8 334.993 318.33 334.073 318.73C333.153 319.13 332.083 319.33 330.863 319.33C329.603 319.33 328.503 319.12 327.563 318.7C326.623 318.28 325.843 317.73 325.223 317.05C324.623 316.37 324.173 315.6 323.873 314.74C323.573 313.86 323.423 312.96 323.423 312.04C323.423 311.06 323.593 310.13 323.933 309.25C324.273 308.37 324.753 307.6 325.373 306.94C326.013 306.26 326.783 305.73 327.683 305.35C328.603 304.95 329.643 304.75 330.803 304.75ZM330.833 318.16C331.673 318.16 332.413 317.99 333.053 317.65C333.693 317.31 334.223 316.86 334.643 316.3C335.063 315.74 335.373 315.11 335.573 314.41C335.793 313.69 335.903 312.95 335.903 312.19C335.903 311.47 335.783 310.74 335.543 310C335.323 309.26 334.993 308.6 334.553 308.02C334.113 307.42 333.573 306.94 332.933 306.58C332.293 306.2 331.553 306.01 330.713 306.01C329.833 306.01 329.073 306.19 328.433 306.55C327.813 306.89 327.293 307.34 326.873 307.9C326.473 308.46 326.173 309.1 325.973 309.82C325.773 310.54 325.673 311.26 325.673 311.98C325.673 312.72 325.783 313.46 326.003 314.2C326.243 314.92 326.583 315.58 327.023 316.18C327.463 316.76 328.003 317.24 328.643 317.62C329.283 317.98 330.013 318.16 330.833 318.16ZM344.904 307.48C345.484 306.66 346.184 306 347.004 305.5C347.844 305 348.774 304.75 349.794 304.75C350.934 304.75 351.914 304.95 352.734 305.35C353.574 305.75 354.264 306.28 354.804 306.94C355.344 307.6 355.744 308.36 356.004 309.22C356.264 310.06 356.394 310.94 356.394 311.86C356.394 313.22 356.184 314.38 355.764 315.34C355.344 316.28 354.804 317.05 354.144 317.65C353.504 318.23 352.794 318.66 352.014 318.94C351.254 319.2 350.524 319.33 349.824 319.33C348.864 319.33 347.944 319.11 347.064 318.67C346.184 318.21 345.434 317.47 344.814 316.45L344.724 316.51C344.744 316.79 344.764 317.12 344.784 317.5C344.804 317.88 344.814 318.43 344.814 319.15C344.814 319.97 344.814 320.63 344.814 321.13C344.814 321.65 344.814 322.09 344.814 322.45C344.834 322.81 344.844 323.13 344.844 323.41C344.864 323.71 344.894 324.03 344.934 324.37C344.974 324.77 345.014 325.08 345.054 325.3C345.114 325.52 345.224 325.69 345.384 325.81C345.544 325.97 345.764 326.07 346.044 326.11C346.344 326.15 346.644 326.17 346.944 326.17L347.094 326.29L347.154 326.71L347.094 326.8C346.954 326.8 346.744 326.79 346.464 326.77C346.184 326.77 345.884 326.76 345.564 326.74C345.244 326.74 344.944 326.73 344.664 326.71C344.384 326.71 344.174 326.71 344.034 326.71H343.614C343.474 326.71 343.254 326.71 342.954 326.71C342.674 326.73 342.374 326.74 342.054 326.74C341.754 326.76 341.454 326.77 341.154 326.77C340.874 326.79 340.664 326.8 340.524 326.8L340.494 326.71L340.524 326.26L340.644 326.17C340.964 326.17 341.274 326.15 341.574 326.11C341.874 326.07 342.114 325.97 342.294 325.81C342.454 325.67 342.554 325.49 342.594 325.27C342.654 325.07 342.704 324.77 342.744 324.37C342.764 324.11 342.774 323.85 342.774 323.59C342.794 323.35 342.804 323.06 342.804 322.72C342.824 322.38 342.834 321.98 342.834 321.52C342.834 321.06 342.834 320.5 342.834 319.84V312.85C342.834 312.05 342.834 311.38 342.834 310.84C342.834 310.3 342.824 309.83 342.804 309.43C342.804 309.03 342.794 308.68 342.774 308.38C342.774 308.06 342.764 307.74 342.744 307.42C342.724 307.2 342.664 307.01 342.564 306.85C342.484 306.67 342.414 306.55 342.354 306.49C342.154 306.25 341.904 306.11 341.604 306.07C341.304 306.01 340.994 305.98 340.674 305.98L340.554 305.86V305.44L340.674 305.35H341.214C341.554 305.35 341.984 305.35 342.504 305.35C343.024 305.33 343.474 305.29 343.854 305.23L344.904 305.08L345.084 305.35C345.044 305.43 345.004 305.56 344.964 305.74C344.944 305.9 344.914 306.09 344.874 306.31C344.854 306.51 344.834 306.72 344.814 306.94C344.814 307.14 344.814 307.31 344.814 307.45L344.904 307.48ZM354.114 311.92C354.114 311.24 354.024 310.57 353.844 309.91C353.664 309.25 353.384 308.67 353.004 308.17C352.644 307.65 352.184 307.24 351.624 306.94C351.064 306.62 350.404 306.46 349.644 306.46C348.884 306.46 348.214 306.6 347.634 306.88C347.054 307.16 346.554 307.51 346.134 307.93C345.734 308.33 345.414 308.75 345.174 309.19C344.954 309.63 344.834 310.01 344.814 310.33V313.63C344.874 313.95 345.004 314.34 345.204 314.8C345.404 315.26 345.694 315.71 346.074 316.15C346.474 316.57 346.964 316.93 347.544 317.23C348.124 317.53 348.804 317.68 349.584 317.68C350.364 317.68 351.034 317.52 351.594 317.2C352.174 316.86 352.644 316.42 353.004 315.88C353.384 315.34 353.664 314.73 353.844 314.05C354.024 313.35 354.114 312.64 354.114 311.92ZM363.163 298.51C363.163 298.69 363.153 298.86 363.133 299.02C363.133 299.16 363.133 299.28 363.133 299.38C363.113 299.6 363.093 299.82 363.073 300.04C363.053 300.26 363.023 300.56 362.983 300.94C362.963 301.3 362.933 301.79 362.893 302.41C362.853 303.01 362.803 303.81 362.743 304.81C362.703 305.81 362.653 307.05 362.593 308.53C362.553 309.99 362.513 311.76 362.473 313.84L362.323 314.05L361.273 314.53L361.093 314.41C361.053 312.43 361.003 310.72 360.943 309.28C360.903 307.82 360.863 306.58 360.823 305.56C360.783 304.52 360.743 303.66 360.703 302.98C360.663 302.28 360.623 301.71 360.583 301.27C360.543 300.81 360.513 300.45 360.493 300.19C360.473 299.91 360.453 299.67 360.433 299.47L360.553 299.2L363.013 298.42L363.163 298.51ZM360.373 317.95C360.373 317.57 360.503 317.24 360.763 316.96C361.043 316.66 361.383 316.51 361.783 316.51C362.143 316.51 362.463 316.66 362.743 316.96C363.043 317.24 363.193 317.57 363.193 317.95C363.193 318.33 363.043 318.66 362.743 318.94C362.463 319.2 362.143 319.33 361.783 319.33C361.383 319.33 361.043 319.2 360.763 318.94C360.503 318.66 360.373 318.33 360.373 317.95Z" fill="#1B1D1C"/>
<g filter="url(#filter0_d_68_3653)">
<rect x="35" y="433" width="357" height="60" rx="10" fill="#039855" shape-rendering="crispEdges"/>
<path d="M183.836 456.04L178.716 470H175.316L170.196 456.04H173.196L177.036 467.14L180.856 456.04H183.836ZM186.935 457.6C186.441 457.6 186.028 457.447 185.695 457.14C185.375 456.82 185.215 456.427 185.215 455.96C185.215 455.493 185.375 455.107 185.695 454.8C186.028 454.48 186.441 454.32 186.935 454.32C187.428 454.32 187.835 454.48 188.155 454.8C188.488 455.107 188.655 455.493 188.655 455.96C188.655 456.427 188.488 456.82 188.155 457.14C187.835 457.447 187.428 457.6 186.935 457.6ZM188.315 458.92V470H185.515V458.92H188.315ZM201.381 464.22C201.381 464.62 201.355 464.98 201.301 465.3H193.201C193.268 466.1 193.548 466.727 194.041 467.18C194.535 467.633 195.141 467.86 195.861 467.86C196.901 467.86 197.641 467.413 198.081 466.52H201.101C200.781 467.587 200.168 468.467 199.261 469.16C198.355 469.84 197.241 470.18 195.921 470.18C194.855 470.18 193.895 469.947 193.041 469.48C192.201 469 191.541 468.327 191.061 467.46C190.595 466.593 190.361 465.593 190.361 464.46C190.361 463.313 190.595 462.307 191.061 461.44C191.528 460.573 192.181 459.907 193.021 459.44C193.861 458.973 194.828 458.74 195.921 458.74C196.975 458.74 197.915 458.967 198.741 459.42C199.581 459.873 200.228 460.52 200.681 461.36C201.148 462.187 201.381 463.14 201.381 464.22ZM198.481 463.42C198.468 462.7 198.208 462.127 197.701 461.7C197.195 461.26 196.575 461.04 195.841 461.04C195.148 461.04 194.561 461.253 194.081 461.68C193.615 462.093 193.328 462.673 193.221 463.42H198.481ZM218.785 458.92L215.545 470H212.525L210.505 462.26L208.485 470H205.445L202.185 458.92H205.025L206.985 467.36L209.105 458.92H212.065L214.145 467.34L216.105 458.92H218.785ZM227.866 467.78H232.466V470H225.066V456.04H227.866V467.78ZM235.665 457.6C235.172 457.6 234.759 457.447 234.425 457.14C234.105 456.82 233.945 456.427 233.945 455.96C233.945 455.493 234.105 455.107 234.425 454.8C234.759 454.48 235.172 454.32 235.665 454.32C236.159 454.32 236.565 454.48 236.885 454.8C237.219 455.107 237.385 455.493 237.385 455.96C237.385 456.427 237.219 456.82 236.885 457.14C236.565 457.447 236.159 457.6 235.665 457.6ZM237.045 458.92V470H234.245V458.92H237.045ZM244.052 470.18C243.145 470.18 242.332 470.02 241.612 469.7C240.892 469.367 240.318 468.92 239.892 468.36C239.478 467.8 239.252 467.18 239.212 466.5H242.032C242.085 466.927 242.292 467.28 242.652 467.56C243.025 467.84 243.485 467.98 244.032 467.98C244.565 467.98 244.978 467.873 245.272 467.66C245.578 467.447 245.732 467.173 245.732 466.84C245.732 466.48 245.545 466.213 245.172 466.04C244.812 465.853 244.232 465.653 243.432 465.44C242.605 465.24 241.925 465.033 241.392 464.82C240.872 464.607 240.418 464.28 240.032 463.84C239.658 463.4 239.472 462.807 239.472 462.06C239.472 461.447 239.645 460.887 239.992 460.38C240.352 459.873 240.858 459.473 241.512 459.18C242.178 458.887 242.958 458.74 243.852 458.74C245.172 458.74 246.225 459.073 247.012 459.74C247.798 460.393 248.232 461.28 248.312 462.4H245.632C245.592 461.96 245.405 461.613 245.072 461.36C244.752 461.093 244.318 460.96 243.772 460.96C243.265 460.96 242.872 461.053 242.592 461.24C242.325 461.427 242.192 461.687 242.192 462.02C242.192 462.393 242.378 462.68 242.752 462.88C243.125 463.067 243.705 463.26 244.492 463.46C245.292 463.66 245.952 463.867 246.472 464.08C246.992 464.293 247.438 464.627 247.812 465.08C248.198 465.52 248.398 466.107 248.412 466.84C248.412 467.48 248.232 468.053 247.872 468.56C247.525 469.067 247.018 469.467 246.352 469.76C245.698 470.04 244.932 470.18 244.052 470.18ZM253.97 461.22V466.58C253.97 466.953 254.057 467.227 254.23 467.4C254.417 467.56 254.723 467.64 255.15 467.64H256.45V470H254.69C252.33 470 251.15 468.853 251.15 466.56V461.22H249.83V458.92H251.15V456.18H253.97V458.92H256.45V461.22H253.97Z" fill="white"/>
</g>
<defs>
<filter id="filter0_d_68_3653" x="15" y="423" width="397" height="100" filterUnits="userSpaceOnUse" color-interpolation-filters="sRGB">
<feFlood flood-opacity="0" result="BackgroundImageFix"/>
<feColorMatrix in="SourceAlpha" type="matrix" values="0 0 0 0 0 0 0 0 0 0 0 0 0 0 0 0 0 0 127 0" result="hardAlpha"/>
<feOffset dy="10"/>
<feGaussianBlur stdDeviation="10"/>
<feComposite in2="hardAlpha" operator="out"/>
<feColorMatrix type="matrix" values="0 0 0 0 0.795833 0 0 0 0 0.84075 0 0 0 0 1 0 0 0 1 0"/>
<feBlend mode="normal" in2="BackgroundImageFix" result="effect1_dropShadow_68_3653"/>
<feBlend mode="normal" in="SourceGraphic" in2="effect1_dropShadow_68_3653" result="shape"/>
</filter>
</defs>
</svg>
